<?xml version="1.0" encoding="UTF-8" standalone="no"?>
<svg
   xmlns:dc="http://purl.org/dc/elements/1.1/"
   xmlns:cc="http://creativecommons.org/ns#"
   xmlns:rdf="http://www.w3.org/1999/02/22-rdf-syntax-ns#"
   xmlns:svg="http://www.w3.org/2000/svg"
   xmlns="http://www.w3.org/2000/svg"
   xmlns:sodipodi="http://sodipodi.sourceforge.net/DTD/sodipodi-0.dtd"
   xmlns:inkscape="http://www.inkscape.org/namespaces/inkscape"
   width="512"
   height="512"
   viewBox="0 0 512 512"
   version="1.1"
   id="svg24"
   sodipodi:docname="arizona-cardinals.svg"
   inkscape:version="0.92.5 (2060ec1f9f, 2020-04-08)">
  <metadata
     id="metadata30">
    <rdf:RDF>
      <cc:Work
         rdf:about="">
        <dc:format>image/svg+xml</dc:format>
        <dc:type
           rdf:resource="http://purl.org/dc/dcmitype/StillImage" />
      </cc:Work>
    </rdf:RDF>
  </metadata>
  <defs
     id="defs28" />
  <sodipodi:namedview
     pagecolor="#ffffff"
     bordercolor="#666666"
     borderopacity="1"
     objecttolerance="10"
     gridtolerance="10"
     guidetolerance="10"
     inkscape:pageopacity="0"
     inkscape:pageshadow="2"
     inkscape:window-width="640"
     inkscape:window-height="480"
     id="namedview26"
     showgrid="false"
     inkscape:zoom="0.4609375"
     inkscape:cx="256"
     inkscape:cy="256"
     inkscape:window-x="0"
     inkscape:window-y="0"
     inkscape:window-maximized="0"
     inkscape:current-layer="svg24" />
  <title
     id="title2">arizona-cardinals</title>
  <g
     id="g22"
     transform="translate(-2.1694915,50.033898)"
     style="fill:none;fill-rule:evenodd">
    <path
       d="m 82.428,174.16 -13.99,-1.514 c 0,0 14.747,20.795 41.4,33.84 L 95.28,205.16 c 0,0 19.472,31.004 58.983,46.317 0,0 3.97,25.332 38.186,48.206 0,0 32.51,18.717 36.29,35.92 0,0 62.61,-4.142 131.17,41.783 0,0 16.17,-66.193 100.03,-74.178 0,0 0.07,-35.93 -47.47,-59.735 0,0 -19.49,-74.554 -137.462,-82.66 l -99.45,0.312 c 0,0 -75.857,-5.002 -123.377,-25.345 0,0 6.238,21.55 30.248,38.377 z"
       id="path4"
       inkscape:connector-curvature="0"
       style="fill:#000000" />
    <path
       d="m 80.82,155.186 c 0,0 20.33,26.583 77.87,40.03 l -51.912,-4.69 c 0,0 19.39,18.606 76.932,32.68 l -52.068,-4.534 c 0,0 29.237,27.832 74.586,35.338 l -27.832,4.38 c 0,0 2.5,14.07 50.35,45.033 0,0 15.792,13.288 12.508,16.573 0,0 25.957,0.314 71.304,21.58 0,0 43.47,-22.204 -17.2,-86.94 0,0 -27.833,-30.647 -59.105,-50.663 0,0 47.222,-11.258 106.015,22.518 0,0 30.022,22.52 57.543,11.26 0,0 -11.25,-56.91 -117.27,-65.98 H 167.45 c 0,0 -48.788,-3.75 -86.63,-16.57"
       id="path6"
       inkscape:connector-curvature="0"
       style="fill:#97233f" />
    <path
       d="m 80.82,155.186 c 0,0 20.33,26.583 77.87,40.03 l -51.912,-4.69 c 0,0 19.39,18.606 76.932,32.68 l -52.068,-4.534 c 0,0 29.237,27.832 74.586,35.338 l -27.832,4.38 c 0,0 2.5,14.07 50.35,45.033 0,0 15.792,13.288 12.508,16.573 0,0 25.957,0.314 71.304,21.58 0,0 43.47,-22.204 -17.2,-86.94 0,0 -27.833,-30.647 -59.105,-50.663 0,0 47.222,-11.258 106.015,22.518 0,0 30.022,22.52 57.543,11.26 0,0 -11.25,-56.91 -117.27,-65.98 H 167.45 c 0,0 -48.788,-3.75 -86.63,-16.57 z"
       id="path8"
       inkscape:connector-curvature="0"
       style="stroke:#000000" />
    <path
       d="m 304.74,223.362 c 0,0 6.255,49.1 54.416,46.596 0,0 16.886,-4.065 20.326,-21.578 h -6.566 c 0,0 -5.628,17.825 -22.516,14.386 0,0 -10.164,-0.158 -20.015,-15.012 l 15.95,-2.19 c 0,0.002 -28.145,-8.756 -41.595,-22.202"
       id="path10"
       inkscape:connector-curvature="0"
       style="fill:#ffffff" />
    <path
       d="m 304.74,223.362 c 0,0 6.255,49.1 54.416,46.596 0,0 16.886,-4.065 20.326,-21.578 h -6.566 c 0,0 -5.628,17.825 -22.516,14.386 0,0 -10.164,-0.158 -20.015,-15.012 l 15.95,-2.19 c 0,0.002 -28.145,-8.756 -41.595,-22.202 z"
       id="path12"
       inkscape:connector-curvature="0"
       style="stroke:#000000" />
    <path
       d="m 369.233,292.064 c 0,0 48.912,-8.957 81.906,7.197 0,0 -41.83,1.73 -69.79,25.36 0,0 2.56,-17.87 -12.12,-32.55"
       id="path14"
       inkscape:connector-curvature="0"
       style="fill:#ffb612" />
    <path
       d="m 369.233,292.064 c 0,0 48.912,-8.957 81.906,7.197 0,0 -41.83,1.73 -69.79,25.36 0,0 2.56,-17.87 -12.12,-32.55 z"
       id="path16"
       inkscape:connector-curvature="0"
       style="stroke:#000000" />
    <path
       d="m 369.9,280.217 c 0,0 53.578,-2.33 81.53,15.31 -6.604,-26.07 -51.57,-46.376 -47.92,-44.592 0,-0.002 -8.984,20.962 -33.61,29.282"
       id="path18"
       inkscape:connector-curvature="0"
       style="fill:#ffb612" />
    <path
       d="m 369.9,280.217 c 0,0 53.578,-2.33 81.53,15.31 -6.604,-26.07 -51.57,-46.376 -47.92,-44.592 0,-0.002 -8.984,20.962 -33.61,29.282 z"
       id="path20"
       inkscape:connector-curvature="0"
       style="stroke:#000000" />
  </g>
</svg>
