<?xml version="1.0" encoding="UTF-8" standalone="no"?>
<svg
   xmlns:dc="http://purl.org/dc/elements/1.1/"
   xmlns:cc="http://creativecommons.org/ns#"
   xmlns:rdf="http://www.w3.org/1999/02/22-rdf-syntax-ns#"
   xmlns:svg="http://www.w3.org/2000/svg"
   xmlns="http://www.w3.org/2000/svg"
   xmlns:sodipodi="http://sodipodi.sourceforge.net/DTD/sodipodi-0.dtd"
   xmlns:inkscape="http://www.inkscape.org/namespaces/inkscape"
   width="512"
   height="512"
   viewBox="0 0 512 512"
   version="1.1"
   id="svg30"
   sodipodi:docname="atlanta-falcons.svg"
   inkscape:version="0.92.5 (2060ec1f9f, 2020-04-08)">
  <metadata
     id="metadata36">
    <rdf:RDF>
      <cc:Work
         rdf:about="">
        <dc:format>image/svg+xml</dc:format>
        <dc:type
           rdf:resource="http://purl.org/dc/dcmitype/StillImage" />
      </cc:Work>
    </rdf:RDF>
  </metadata>
  <defs
     id="defs34" />
  <sodipodi:namedview
     pagecolor="#ffffff"
     bordercolor="#666666"
     borderopacity="1"
     objecttolerance="10"
     gridtolerance="10"
     guidetolerance="10"
     inkscape:pageopacity="0"
     inkscape:pageshadow="2"
     inkscape:window-width="640"
     inkscape:window-height="480"
     id="namedview32"
     showgrid="false"
     inkscape:zoom="0.4609375"
     inkscape:cx="256"
     inkscape:cy="256"
     inkscape:window-x="0"
     inkscape:window-y="0"
     inkscape:window-maximized="0"
     inkscape:current-layer="svg30" />
  <title
     id="title2">atlanta-falcons</title>
  <g
     id="g28"
     transform="translate(-33.559323,-8)"
     style="fill:none;fill-rule:evenodd">
    <path
       d="m 413.104,220.955 c 0,0 21.762,-3.297 25.718,-23.738 3.952,-20.438 -9.96,-36.773 -34.948,-48.13 C 367.61,132.602 324.096,116.779 232.446,96.34 182.958,85.302 169.152,81.834 169.152,81.834 L 71.57,186.01 l 83.735,-2.638 c 0,0 -27.693,42.198 -23.077,111.428 4.614,69.23 34.08,103.818 57.362,119.34 15.828,10.55 37.585,15.164 37.585,15.164 0,0 -11.21,-15.824 -7.915,-35.604 3.3,-19.78 11.21,-30.328 17.147,-40.88 5.934,-10.55 44.177,-85.713 44.177,-85.713 0,0 13.845,0 19.778,0.66 5.936,0.66 9.89,3.297 9.89,6.596 0,3.295 -3.955,7.91 -3.955,7.91 0,0 19.78,1.322 45.493,-8.57 25.715,-9.89 34.284,-26.374 34.284,-26.374 0,0 -11.208,-13.85 -24.394,-24.4 -13.19,-10.55 -23.737,-17.14 -23.737,-17.14 h 58.023 c 0,0 11.206,0 15.164,3.29 3.956,3.29 1.976,11.87 1.976,11.87 h -0.002"
       id="path4"
       inkscape:connector-curvature="0"
       style="fill:#a5acaf" />
    <path
       d="m 419.37,212.712 c 0,0 12.528,-3.956 14.178,-16.812 1.647,-12.857 -5.606,-22.088 -9.56,-26.045 -3.958,-3.957 -21.43,-16.485 -52.09,-27.363 -25.25,-8.96 -63.628,-19.12 -132.53,-34.615 -44.72,-10.058 -63.625,-11.538 -63.625,-11.538 l -71.868,77.47 74.177,-0.33 c 0,0 -30.67,37.61 -33.298,112.08 -3.955,112.09 71.868,135.82 71.868,135.82 0,0 -7.252,-13.19 -5.275,-28.35 1.977,-15.17 8.57,-27.03 15.822,-40.22 7.25,-13.19 46.81,-91.65 46.81,-91.65 h 27.69 c 4.94,0 11.87,2.63 14.5,6.26 2.64,3.63 1.32,6.59 1.32,6.59 0,0 19.13,1.35 31.97,-4.28 18.79,-8.248 28.68,-20.778 28.68,-20.778 0,0 -13.19,-15.82 -32.638,-28.02 -19.45,-12.2 -35.937,-20.44 -35.937,-20.44 h 91.98 c 0,0 11.203,0 14.5,2.965 3.3,2.967 3.3,9.23 3.3,9.23 l 0.003,0.004"
       id="path6"
       inkscape:connector-curvature="0"
       style="fill:#ffffff" />
    <path
       d="m 423.325,204.473 c 0,0 5.935,-3.29 5.935,-13.19 0,-7.582 -7.253,-16.484 -13.186,-20.767 -5.937,-4.286 -18.79,-12.2 -39.89,-19.12 -21.1,-6.925 -65.606,-17.803 -103.848,-25.713 -38.24,-7.914 -100.547,-18.135 -100.547,-18.135 l 5.6,8.243 -41.21,44.18 146.37,11.54 -1.32,1.65 h -97.91 l 7.25,7.26 -15.83,28.02 82.42,-17.14 -2.31,2.31 -96.26,32.64 8.24,5.273 c 0,0 -2.97,5.605 -4.95,17.474 -1.978,11.87 -3.297,23.077 -3.297,23.077 l 82.42,-50.436 -0.33,1.98 -90.99,72.527 8.57,2.308 c 0,0 0.33,15.497 1.977,24.726 1.648,9.23 4.29,19.78 4.29,19.78 l 74.506,-87.69 v 2.964 l -73.52,108.13 h 7.253 c 0,0 3.952,11.54 13.18,23.405 9.23,11.87 22.75,21.43 22.75,21.43 0,0 -5.01,-10.353 -2.97,-27.69 1.318,-11.21 12.53,-29.673 17.805,-40.22 5.27,-10.55 72.522,-143.406 72.522,-143.406 l -12.855,-6.93 h 124.95 c 0,0 7.583,0.99 11.21,3.96 3.622,2.966 3.953,7.582 3.953,7.582 l -0.004,0.003"
       id="path8"
       inkscape:connector-curvature="0"
       style="fill:#000000" />
    <path
       d="m 424.316,196.23 c 0,0 1.65,-6.264 -1.32,-11.54 -2.966,-5.273 -9.56,-8.9 -9.56,-8.9 l 1.32,6.593 -34.286,4.287 -1.318,1.976 h 33.297 c 0,0 3.45,0.166 7.25,2.473 3.2,1.95 4.61,5.11 4.61,5.11"
       id="path10"
       inkscape:connector-curvature="0"
       style="fill:#ffffff" />
    <path
       d="m 408.162,178.758 c 0,0 -3.626,-4.946 -9.562,-8.57 -5.935,-3.63 -16.482,-8.573 -16.482,-8.573 0,0 7.252,6.098 10.877,10.384 3.626,4.28 4.616,6.42 4.616,6.42 l 10.56,0.33"
       id="path12"
       inkscape:connector-curvature="0"
       style="fill:#ffffff" />
    <path
       d="m 368.932,167.877 c 0,0 -43.967,-11.89 -94.948,-21.758 -51.098,-9.89 -88.68,-15.83 -88.68,-15.83 l -11.54,13.51 194.836,26.381 0.332,-2.31"
       id="path14"
       inkscape:connector-curvature="0"
       style="fill:#a71930" />
    <path
       d="m 250.58,182.713 -52.747,0.99 -6.76,11.868 58.85,-11.2 0.657,-1.65"
       id="path16"
       inkscape:connector-curvature="0"
       style="fill:#a71930" />
    <path
       d="m 232.613,213.537 -57.198,20.603 -3.79,15.164 60,-33.46 0.99,-2.307 h -0.002"
       id="path18"
       inkscape:connector-curvature="0"
       style="fill:#a71930" />
    <path
       d="m 224.537,252.108 -55.55,46.98 c 0,0 0.165,6.095 0.657,9.065 0.495,2.964 1.318,6.592 1.318,6.592 l 53.735,-60 -0.16,-2.637"
       id="path20"
       inkscape:connector-curvature="0"
       style="fill:#a71930" />
    <path
       d="m 234.59,289.852 c 0,0 -15.988,23.574 -26.867,40.223 -10.88,16.644 -21.592,32.635 -21.592,32.635 0,0 2.48,4.945 4.12,7.584 1.65,2.636 4.29,5.934 4.29,5.934 l 41.21,-84.89 -1.15,-1.486"
       id="path22"
       inkscape:connector-curvature="0"
       style="fill:#a71930" />
    <path
       d="m 300.687,202.492 c 0,0 29.177,14.34 44.836,24.89 15.66,10.55 26.374,21.923 26.374,21.923 0,0 -3.297,4.947 -11.21,10.055 -7.91,5.112 -16.153,6.427 -16.153,6.427 0,0 6.263,-5.6 6.758,-8.405 0.494,-2.804 -0.657,-3.462 -2.31,-3.462 h -18.13 c 0,0 -2.966,2.14 -2.804,6.593 0.17,4.45 2.31,7.25 2.31,7.25 0,0 -5.77,-0.82 -9.89,-5.603 -4.12,-4.78 -4.12,-8.242 -4.12,-8.242 h -37.583 l 23.572,-46.316 -1.65,-5.113"
       id="path24"
       inkscape:connector-curvature="0"
       style="fill:#000000" />
    <path
       d="m 296.735,239.25 42.03,6.427 -0.988,1.982 h -45.66 l 4.618,-8.41"
       id="path26"
       inkscape:connector-curvature="0"
       style="fill:#a71930" />
  </g>
</svg>
