<?xml version="1.0" encoding="UTF-8" standalone="no"?>
<svg
   xmlns:dc="http://purl.org/dc/elements/1.1/"
   xmlns:cc="http://creativecommons.org/ns#"
   xmlns:rdf="http://www.w3.org/1999/02/22-rdf-syntax-ns#"
   xmlns:svg="http://www.w3.org/2000/svg"
   xmlns="http://www.w3.org/2000/svg"
   xmlns:sodipodi="http://sodipodi.sourceforge.net/DTD/sodipodi-0.dtd"
   xmlns:inkscape="http://www.inkscape.org/namespaces/inkscape"
   width="512"
   height="512"
   viewBox="0 0 512 512"
   version="1.1"
   id="svg26"
   sodipodi:docname="baltimore-ravens.svg"
   inkscape:version="0.92.5 (2060ec1f9f, 2020-04-08)">
  <metadata
     id="metadata32">
    <rdf:RDF>
      <cc:Work
         rdf:about="">
        <dc:format>image/svg+xml</dc:format>
        <dc:type
           rdf:resource="http://purl.org/dc/dcmitype/StillImage" />
      </cc:Work>
    </rdf:RDF>
  </metadata>
  <defs
     id="defs30" />
  <sodipodi:namedview
     pagecolor="#ffffff"
     bordercolor="#666666"
     borderopacity="1"
     objecttolerance="10"
     gridtolerance="10"
     guidetolerance="10"
     inkscape:pageopacity="0"
     inkscape:pageshadow="2"
     inkscape:window-width="640"
     inkscape:window-height="480"
     id="namedview28"
     showgrid="false"
     inkscape:zoom="0.4609375"
     inkscape:cx="256"
     inkscape:cy="256"
     inkscape:window-x="67"
     inkscape:window-y="27"
     inkscape:window-maximized="0"
     inkscape:current-layer="svg26" />
  <title
     id="title2">baltimore-ravens</title>
  <g
     id="g24"
     transform="translate(18,38)"
     style="fill:none;fill-rule:evenodd">
    <path
       d="m 370.898,182.56 c 0,9.204 -3.72,14.88 -3.72,14.88 -4.102,-15.04 -25.254,-34.848 -25.254,-34.848 3.72,4.7 2.545,14.097 2.545,14.097 -1.38,-1.18 -11.78,-8.02 -11.78,-8.02 -20.59,-14.71 -54.45,-29.96 -106.35,-29.96 -131.26,0 -186.74,84.4 -189.04,88 0,0 -12.79,18.34 -16.22,28.63 l 27.98,-16.74 c 0.22,-0.15 23.25,-14.14 58.92,-14.14 2.77,0 9.36,0.32 10.84,3.34 3.512,7.2 -7.45,29.15 -19.89,45.13 L 72.219,307.239 110,285.63 c 0.15,-0.08 15.26,-8.56 40.297,-8.56 5.06,0 7.23,0.82 7.967,1.197 -0.083,1.37 -1.378,4.29 -2.82,6.24 l -18.514,25.03 28.71,-11.99 c 0.176,-0.07 17.81,-7.33 42.98,-7.33 14.816,0 24.954,2.89 27.82,7.93 2.646,4.664 -0.635,12.22 -1.996,14.5 l -5.916,9.914 11.175,2.85 c 1.256,0.32 2.853,0.7 9.31,-0.61 -0.058,0.92 -0.136,1.84 -0.136,2.74 0,14.494 7.01,25.59 7.42,26.227 l 11.305,17.52 4.294,-20.4 c 3.8,-18.053 18.255,-25.87 27.256,-29.043 l 2.584,9.67 8.98,-3.59 c 8.064,-3.225 21.335,-12.91 26.12,-16.497 3.9,-0.71 14.177,-2.33 26.722,-2.33 7.413,0 16.094,0.7 25.283,1.44 11.55,0.93 24.63,1.99 38.75,1.99 20.17,0 38.64,-3.464 46.34,-5.116 l 16.39,10.93 0.73,-15.12 c 0.07,-1.28 0.1,-2.544 0.1,-3.787 0,-31.665 -19.59,-51.698 -40.826,-63.23 l 1.334,-0.075 -22.94,-14.35 c -3.18,-1.98 -9.39,-3.51 -15.594,-4.624 l 1.132,-2.265 -10.19,-2.7 c -10.045,-2.66 -18.66,-2.98 -25.126,-2.54 3.126,-16.326 -8.03,-27.09 -8.03,-27.09"
       id="path4"
       inkscape:connector-curvature="0"
       style="fill:#9e7c0c" />
    <path
       d="m 226.34,147.294 c 94.335,0 125.782,52.597 125.782,52.597 0,0 1.715,-8 -0.574,-12 0,0 10.865,11.44 11.435,25.16 0,0 6.29,-6.29 6.29,-8.57 0,0 2.858,9.72 0,15.44 0,0 13.15,-4.57 32.588,0.57 l -1.71,3.43 c 0,0 19.44,2.29 24.01,5.15 0,0 -10.86,0.576 -10.86,3.43 0,0 72.04,10.87 69.18,70.327 l -6.86,-4.575 c 0,0 -22.87,5.72 -48.02,5.72 -25.15,0 -46.88,-3.43 -64.03,-3.43 -17.15,0 -30.3,2.86 -30.3,2.86 0,0 -17.15,13.15 -25.73,16.58 l -2.29,-8.576 c 0,0 -34.87,5.145 -41.73,37.734 0,0 -11.434,-17.724 -2.86,-36.02 0,0 -16.576,4.574 -18.864,4.002 0,0 21.74,-35.45 -33.16,-35.45 -27.442,0 -46.31,8.003 -46.31,8.003 0,0 16.01,-21.16 -12.005,-21.16 l -44.596,9.72 c 0,0 48.63,-62.317 2.287,-62.317 -38.874,-0.003 -63.46,15.433 -63.46,15.433 0,0 53.74,-84.04 181.81,-84.04 z"
       id="path6"
       inkscape:connector-curvature="0"
       style="fill:#000000" />
    <path
       d="m 331.54,238.198 c 0,0 -37.733,-6.86 -54.03,2.574 0,0 42.024,0 58.317,9.433 0,0 -74.61,-10.292 -105.483,14.58 0,0 45.452,-11.15 80.614,-7.72 0,0 -12.865,5.146 0.858,13.722 13.72,8.575 22.296,10.29 18.867,24.87 l 7.145,-10.577 8.006,8.005 c 0,0 20.58,-1.715 34.873,0 14.293,1.714 33.733,3.43 44.595,3.43 10.864,0 40.596,-4 40.596,-4 0,0 -62.318,-24.585 -118.348,-24.585 -6.292,0 -13.154,1.142 -9.15,8.003 0,0 -19.44,-9.583 -19.44,-14.728 0,-5.145 14.866,-2.424 14.866,-2.424 6.86,0 130.354,12.58 142.93,34.88 0,0 0,-50.88 -102.338,-61.17 l 11.435,9.73 -18.293,-1.712 10.864,9.72 c -0.002,-0.002 -28.59,-9.72 -46.885,-12.01"
       id="path8"
       inkscape:connector-curvature="0"
       style="fill:#ffffff" />
    <path
       d="m 226.055,155.87 c 84.045,0 120.062,47.166 120.062,47.166 0,0 15.438,23.157 6.862,31.733 -8.58,8.57 -10.3,-21.45 -31.74,-28.31 l 18.01,6 c 0,0 -19.73,-25.73 -53.17,-19.73 0,0 18.86,4.29 24.01,10.29 0,0 -42.03,4.29 -43.74,7.72 0,0 32.59,6.86 34.3,12 0,0 -30.88,0.86 -39.45,8.58 0,0 57.452,2.573 70.32,6.86 0,0 -37.74,-6.86 -54.03,2.575 0,0 42.02,0 58.312,9.432 0,0 -74.61,-10.293 -105.483,14.58 0,0 45.45,-11.15 80.61,-7.72 0,0 -12.864,5.145 0.86,13.72 13.72,8.574 22.296,10.29 18.866,24.87 0,0 -6.864,10.29 -17.154,14.58 l -0.86,-12.01 c 0,0 -32.59,2.576 -47.17,32.59 0,0 2.574,-24.87 9.435,-30.872 l -18.868,6 c 0,0 18.87,-30.87 -28.3,-33.446 L 178,277.626 c 0,0 6.005,-23.155 -47.167,-13.72 0,-0.003 50.6,-83.19 -57.455,-51.46 0,0 56.6,-56.6 152.65,-56.6 z"
       id="path10"
       inkscape:connector-curvature="0"
       style="fill:#241773" />
    <path
       d="m 266.05,176.626 c -5.212,-7.62 -18.014,-11.322 -39.137,-11.322 -59.73,0 -93.557,16.995 -94.967,17.717 l -22.993,12.66 26.456,-3.05 c 0.44,-0.1 37.52,-8.25 67.01,-9.01 -39.68,5.02 -53.7,70.36 -54.3,73.27 l -1.35,6.51 61.38,-3.02 1.48,-2 c 2.51,-2.8 20.37,-11.06 35.48,-17.1 l 1.91,-0.77 5.46,-12.01 0.1,-0.75 c 0.08,-0.623 0.12,-1.244 0.12,-1.855 0,-3.2 -1.13,-6.193 -3.327,-8.74 -2.738,-3.176 -7.04,-5.4 -11.716,-6.966 23.11,-5.74 29.733,-21.63 30.03,-22.37 0.24,-0.61 2.06,-5.733 -1.658,-11.17 z M 188.945,246.4 c 3.108,-8.54 9.75,-23.402 11.37,-27.846 3.25,0 19.907,-0.94 19.907,8.782 0,4.573 -7.647,19.156 -31.276,19.065 z m 16.697,-40.39 c 3,-5.995 8.53,-20.26 9.748,-22.698 3.974,0.556 19.032,2.062 18.1,8.575 -1.144,8.006 -9.386,14.21 -11.434,15.15 l -16.413,-1.026 z"
       id="path12"
       inkscape:connector-curvature="0"
       style="fill:#ffffff" />
    <path
       d="m 214.05,211.612 -15.3,-0.856 9.295,-22.298 c -40.306,-0.856 -54.885,69.465 -54.885,69.465 l 52.314,-2.572 c 3.43,-5.14 37.733,-18.86 37.733,-18.86 l 4.29,-9.43 c 1.978,-14.87 -33.447,-15.43 -33.447,-15.43 z m 11.15,18.01 c -8.207,22.255 -38.594,22.298 -43.74,22.298 l 16.476,-38.493 c 0,0 33.788,-1.5 27.263,16.195 z m 1.713,-59.173 c -59.174,0 -92.62,17.15 -92.62,17.15 0,0 54.03,-12.01 84.9,-8.58 40.288,4.47 10.292,27.44 10.292,27.44 26.586,-3.43 33.448,-20.59 33.448,-20.59 0,0 6.002,-15.44 -36.02,-15.44 z"
       id="path14"
       inkscape:connector-curvature="0"
       style="fill:#9e7c0c" />
    <path
       d="m 317.82,211.71 c 5.398,0 9.774,4.032 9.774,9.005 0,4.974 -4.376,9.005 -9.775,9.005 -5.4,0 -9.78,-4.03 -9.78,-9.005 0,-4.973 4.38,-9.005 9.77,-9.005"
       id="path16"
       inkscape:connector-curvature="0"
       style="fill:#c60c30" />
    <path
       d="m 319.82,213.044 c 4.895,0 8.862,4.096 8.862,9.147 0,5.06 -3.967,9.15 -8.862,9.15 -4.895,0 -8.864,-4.09 -8.864,-9.14 0,-5.05 3.97,-9.14 8.864,-9.14"
       id="path18"
       inkscape:connector-curvature="0"
       style="fill:#ffffff" />
    <path
       d="m 321.535,215.9 c 3.947,0 7.147,3.073 7.147,6.86 0,3.792 -3.2,6.862 -7.147,6.862 -3.947,0 -7.147,-3.07 -7.147,-6.86 0,-3.79 3.2,-6.86 7.147,-6.86"
       id="path20"
       inkscape:connector-curvature="0"
       style="fill:#c60c30" />
    <path
       d="m 323.25,215.9 c 3.315,0 6.002,2.944 6.002,6.575 0,3.63 -2.687,6.575 -6.003,6.575 -3.32,0 -6.01,-2.944 -6.01,-6.575 0,-3.63 2.69,-6.575 6,-6.575"
       id="path22"
       inkscape:connector-curvature="0"
       style="fill:#000000" />
  </g>
</svg>
