<?xml version="1.0" encoding="UTF-8" standalone="no"?>
<svg
   xmlns:dc="http://purl.org/dc/elements/1.1/"
   xmlns:cc="http://creativecommons.org/ns#"
   xmlns:rdf="http://www.w3.org/1999/02/22-rdf-syntax-ns#"
   xmlns:svg="http://www.w3.org/2000/svg"
   xmlns="http://www.w3.org/2000/svg"
   xmlns:sodipodi="http://sodipodi.sourceforge.net/DTD/sodipodi-0.dtd"
   xmlns:inkscape="http://www.inkscape.org/namespaces/inkscape"
   width="512"
   height="512"
   viewBox="0 0 512 512"
   version="1.1"
   id="svg38"
   sodipodi:docname="carolina-panthers.svg"
   inkscape:version="0.92.5 (2060ec1f9f, 2020-04-08)">
  <metadata
     id="metadata44">
    <rdf:RDF>
      <cc:Work
         rdf:about="">
        <dc:format>image/svg+xml</dc:format>
        <dc:type
           rdf:resource="http://purl.org/dc/dcmitype/StillImage" />
      </cc:Work>
    </rdf:RDF>
  </metadata>
  <defs
     id="defs42" />
  <sodipodi:namedview
     pagecolor="#ffffff"
     bordercolor="#666666"
     borderopacity="1"
     objecttolerance="10"
     gridtolerance="10"
     guidetolerance="10"
     inkscape:pageopacity="0"
     inkscape:pageshadow="2"
     inkscape:window-width="640"
     inkscape:window-height="480"
     id="namedview40"
     showgrid="false"
     inkscape:zoom="0.4609375"
     inkscape:cx="256"
     inkscape:cy="256"
     inkscape:window-x="0"
     inkscape:window-y="0"
     inkscape:window-maximized="0"
     inkscape:current-layer="svg38" />
  <title
     id="title2">carolina-panthers</title>
  <g
     id="g36"
     transform="translate(10,20)"
     style="fill:none;fill-rule:evenodd">
    <path
       d="m 446.213,157.9 c 0.1,-0.243 0.18,-0.47 0.25,-0.687 0.06,-0.192 0.11,-0.376 0.155,-0.547 0,-0.01 -0.005,-0.02 -0.01,-0.03 -0.656,-1.89 -1.968,-2.028 -4.73,-1.81 -4.03,0.77 -7.757,1.258 -10.892,1.574 h 0.005 l -0.51,0.05 c -0.12,0.01 -0.24,0.025 -0.36,0.033 -0.47,0.045 -0.92,0.085 -1.35,0.12 -0.06,0.007 -0.12,0.01 -0.19,0.017 -4.04,0.33 -6.59,0.342 -6.59,0.342 10.32,7.827 11.53,19.942 11.53,19.942 l 0.528,-0.45 c 7.927,-5.766 12.187,-18.553 12.187,-18.553"
       id="path4"
       inkscape:connector-curvature="0"
       style="fill:#000000" />
    <path
       d="m 338.966,222.245 c 5.12,15.117 -3.5,35.367 -3.5,35.367 11.31,-9.718 20.198,-29.695 20.198,-29.695 18.582,-3.78 28.818,0 28.818,0 2.42,14.578 -2.968,26.453 -2.968,26.453 10.776,-8.635 15.623,-31.587 15.623,-31.587 0,0 -4.31,-4.046 -23.427,-5.396 -19.124,-1.353 -34.744,4.858 -34.744,4.858"
       id="path6"
       inkscape:connector-curvature="0"
       style="fill:#bfc0bf" />
    <path
       d="m 352.903,280.066 c 0,0 -5.617,15.667 -11.382,21.452 0,0 7.45,4.097 20.44,2.892 12.98,-1.206 16.11,-6.023 17.32,-10.846 1.21,-4.82 0,-11.572 -2.16,-16.634 0,0 0.97,12.776 -7.93,19.287 0,0 -9.585,2.01 -15.84,0.082 0,0 2.46,-5.15 -0.426,-16.24"
       id="path8"
       inkscape:connector-curvature="0"
       style="fill:#bfc0bf" />
    <path
       d="m 322.297,158.283 c 0.13,0.026 0.263,0.053 0.397,0.083 -0.13,-0.03 -0.266,-0.057 -0.397,-0.083 -7.836,-1.494 -11.14,4.438 -11.14,4.438 -2.483,3.69 -1.538,5.45 -1.538,5.45 24.15,-0.42 37.17,3.49 37.17,3.49 0,0 -9,-9.85 -23.51,-13.16 l -0.99,-0.2"
       id="path10"
       inkscape:connector-curvature="0"
       style="fill:#bfc0bf" />
    <path
       d="m 418.797,170.715 c -3.177,-2.97 -9.954,-6.795 -17.37,-5.31 -7.413,1.49 -7.84,9.558 -7.84,9.558 8.05,-7.432 25.21,-4.248 25.21,-4.248"
       id="path12"
       inkscape:connector-curvature="0"
       style="fill:#bfc0bf" />
    <path
       d="m 239.05,186.61 c 0,0 39.798,-7.638 85.322,3.14 1.635,-1.47 3.52,-2.97 5.704,-4.49 0,0 -41.742,-11.61 -91.026,1.35"
       id="path14"
       inkscape:connector-curvature="0"
       style="fill:#0085ca" />
    <path
       d="m 239.264,202.193 c 0,0 34.885,-8.717 77.415,-2.838 0.81,-1.617 1.9,-3.32 3.34,-5.083 -15.35,-1.765 -46.51,-3.144 -80.76,7.92"
       id="path16"
       inkscape:connector-curvature="0"
       style="fill:#0085ca" />
    <path
       d="m 240.15,217.28 c 0,0 32.964,-10.206 74.53,-7.324 -0.2,-1.492 -0.22,-3.277 0.165,-5.29 -16.662,-0.452 -44.72,1.065 -74.695,12.615"
       id="path18"
       inkscape:connector-curvature="0"
       style="fill:#0085ca" />
    <path
       d="m 142.935,321.335 h 0.016 l 0.2,0.02 c 0.73,0.066 3.05,0.28 3.18,0.294 0.32,0.02 4.31,0.44 4.34,0.45 5.67,0.63 11.41,1.43 17.19,2.42 v -0.01 c 13.05,-47.85 49.74,-73.42 49.74,-73.42 -49.63,24.06 -70.49,63.23 -74.65,70.23"
       id="path20"
       inkscape:connector-curvature="0"
       style="fill:#0085ca" />
    <path
       d="m 376.95,255.053 c -3.105,-14.434 5.1,-24.318 5.1,-24.318 -18.646,16.393 -7.358,32.805 -1.716,45.536 5.646,12.73 3.39,22.08 -2.255,28.59 -5.65,6.51 -21.18,7.08 -31.62,5.1 -10.44,-1.98 -15.81,-13.02 -18.63,-26.03 -2.82,-13.01 2.26,-35.94 2.26,-35.94 -7.62,11.61 -7.62,35.377 -1.7,54.62 5.93,19.24 21.45,24.05 32.74,24.05 11.29,0 31.61,-9.617 28.48,-32.53 -3.14,-22.91 -9.57,-24.625 -12.67,-39.056"
       id="path22"
       inkscape:connector-curvature="0"
       style="fill:#0085ca" />
    <path
       d="m 255.55,266.754 c -19.477,-19.767 -20.07,-42.125 -20.07,-42.125 0,0 -6.682,26.06 9.19,45.59 15.873,19.52 54.527,21.65 54.527,21.65 0,0 -24.172,-5.36 -43.648,-25.13"
       id="path24"
       inkscape:connector-curvature="0"
       style="fill:#0085ca" />
    <path
       d="m 354.046,181.208 c 22.892,8.913 22.62,22.68 22.62,22.68 3.503,-13.228 19.665,-20.247 19.665,-20.247 0,0 -8.35,-4.05 -19.93,-4.85 -11.58,-0.81 -22.35,2.43 -22.35,2.43"
       id="path26"
       inkscape:connector-curvature="0"
       style="fill:#0085ca" />
    <path
       d="m 322.297,158.283 c -13.79,-2.75 -27.026,2.792 -27.692,3.074 -0.008,0.004 -0.01,0.004 -0.014,0.008 0,0.003 -0.01,0.003 -0.01,0.003 v 0.003 c 12.71,0.22 16.58,1.35 16.58,1.35 0,0 3.31,-5.93 11.14,-4.43"
       id="path28"
       inkscape:connector-curvature="0"
       style="fill:#0085ca" />
    <path
       d="m 367.128,337.847 -0.003,0.004 c -0.15,0.06 -8.244,2.92 -18.268,1.11 0,0 13.26,12.86 26.725,40.99 0.006,0.02 0.014,0.03 0.02,0.05 l 0.52,-0.04 c -1.3,-12.82 -6.76,-34.3 -8.02,-38.26 l -0.974,-3.84"
       id="path30"
       inkscape:connector-curvature="0"
       style="fill:#0085ca" />
    <path
       d="m 381.515,254.37 c 0,0 5.388,-11.875 2.965,-26.457 0,0 -10.236,-3.776 -28.818,0 0,0 -8.886,19.98 -20.2,29.698 0,0 8.622,-20.24 3.504,-35.36 0,0 15.618,-6.21 34.742,-4.86 19.12,1.35 23.43,5.4 23.43,5.4 0,0 -4.847,22.95 -15.623,31.59 z m -12.345,41.847 c 8.9,-6.51 7.936,-19.288 7.936,-19.288 2.165,5.06 3.367,11.81 2.165,16.63 -1.2,4.82 -4.33,9.64 -17.31,10.84 -12.98,1.2 -20.43,-2.89 -20.43,-2.89 5.77,-5.79 11.39,-21.46 11.39,-21.46 2.89,11.09 0.43,16.23 0.43,16.23 6.254,1.923 15.84,-0.085 15.84,-0.085 z m 20.453,-2.108 c 3.132,22.91 -17.19,32.52 -28.48,32.52 -11.29,0 -26.82,-4.81 -32.745,-24.05 -5.927,-19.25 -5.927,-43.01 1.695,-54.62 0,0 -5.08,22.92 -2.26,35.94 2.826,13.01 8.188,24.05 18.63,26.03 10.447,1.98 25.968,1.41 31.616,-5.1 5.64,-6.51 7.89,-15.85 2.25,-28.58 -5.65,-12.73 -16.94,-29.144 1.71,-45.537 0,0 -8.21,9.884 -5.1,24.32 3.1,14.43 9.54,16.15 12.67,39.055 z m -72.946,-94.76 c -42.528,-5.88 -77.413,2.84 -77.413,2.84 34.255,-11.07 65.41,-9.69 80.76,-7.92 -1.436,1.76 -2.532,3.46 -3.347,5.08 z m -1.996,10.6 c -41.56,-2.89 -74.53,7.32 -74.53,7.32 29.98,-11.55 58.04,-13.07 74.7,-12.62 -0.38,2.01 -0.36,3.8 -0.16,5.29 z m -70.01,60.26 c -15.87,-19.53 -9.19,-45.6 -9.19,-45.6 0,0 0.6,22.36 20.07,42.122 19.48,19.767 43.65,25.125 43.65,25.125 0,0 -38.65,-2.127 -54.52,-21.654 z m 85.41,-84.97 c -2.18,1.52 -4.07,3.02 -5.71,4.49 -45.52,-10.78 -85.31,-3.14 -85.31,-3.14 49.28,-12.96 91.03,-1.35 91.03,-1.35 z m -35.5,-23.89 0.02,-0.004 0.02,-0.007 c 0.68,-0.29 14.54,-6.1 28.68,-2.87 14.51,3.31 23.51,13.17 23.51,13.17 0,0 -13.03,-3.915 -37.17,-3.49 0,0 -0.945,-1.764 1.537,-5.444 0,0 -3.87,-1.13 -16.58,-1.35 z m 106.85,4.035 c 7.42,-1.485 14.19,2.336 17.37,5.31 0,0 -17.16,-3.187 -25.21,4.247 0,0 0.43,-8.07 7.84,-9.556 z m 24.4,37.713 c -0.27,-1.54 -0.7,-2.85 -1.23,-3.99 0,0 -0.43,-1.088 -1.73,-2.79 -1.11,-1.42 -2.36,-2.537 -3.49,-3.61 -2.48,-2.345 -6.945,-3.737 -6.945,-3.737 0,0 -0.002,0 -0.004,-0.004 3.106,2.364 5.486,5.762 5.73,10.65 0.72,15.05 -14.775,21.124 -14.775,21.124 3.633,-2.433 10.17,-10.684 8.475,-21.37 -1.7,-10.68 -15.51,-15.755 -15.51,-15.755 0,0 -16.168,7.02 -19.66,20.244 0,0 0.27,-13.77 -22.63,-22.68 0,0 10.77,-3.246 22.352,-2.43 11.584,0.81 19.935,4.86 19.935,4.86 0,0 2.14,-5.66 13.51,-7.597 11.365,-1.936 23.66,0.853 23.66,0.853 -2.274,-4.153 -4.888,-10.21 -16.314,-14.89 -11.424,-4.68 -21.667,-0.443 -21.667,-0.443 0,0 -0.75,-5.53 -9.05,-10.913 -13.498,-8.75 -49.187,-13.966 -56.07,-14.336 -6.88,-0.365 5.15,4.076 9.98,6.83 5.478,3.13 11.617,8.45 12.138,13.49 0.136,1.355 -0.183,2.54 -0.79,3.52 -0.483,-1.41 -1.5,-3.21 -3.284,-5.506 -9.77,-12.59 -34.582,-18.03 -53.192,-16.785 -18.604,1.24 -33.388,8.3 -33.388,8.3 0.21,1.72 -6.87,7.74 -26.38,9.892 -18.597,2.04 -31.717,-1.367 -36.44,-2.06 -0.123,-0.036 -0.244,-0.06 -0.36,-0.07 -1.914,-0.246 -3.35,-0.155 -3.95,1.224 -0.027,0.06 -0.045,0.123 -0.066,0.19 l -0.04,0.25 c -0.087,0.96 0.5,2.29 0.5,2.29 l -0.27,-0.52 c 1.327,2.55 9.238,17.16 19.66,24.67 0,0 6.23,-1.32 13.623,-2.118 0,0 -114.22,55.72 -160.495,142.788 20.164,-2.364 46.69,-3.892 75.493,-1.35 -0.1,-0.007 -0.163,-0.015 -0.196,-0.017 h -0.02 c 4.155,-7.007 25.023,-46.18 74.654,-70.24 0,0 -36.692,25.57 -49.734,73.42 16.594,2.828 33.54,7.205 50.13,13.677 53.35,20.846 98.31,42.63 148.995,42.18 l 8.62,-0.376 -0.02,-0.047 c -13.462,-28.13 -26.72,-40.99 -26.72,-40.99 10.024,1.806 18.12,-1.06 18.267,-1.11 0.763,-0.274 1.413,-0.546 1.956,-0.797 16.57,-8.96 19.35,-24.12 20.703,-34.99 1.565,-12.56 -0.66,-20.6 -0.66,-20.6 0,0 28.69,-37.76 35.984,-67.476 0,0 1.687,-5.374 0.723,-10.872 z"
       id="path32"
       inkscape:connector-curvature="0"
       style="fill:#000000" />
    <path
       d="m 483.22,222.178 c -16.77,-9.176 -35.797,-12.027 -50.386,-12.594 h -0.084 0.084 c 0.55,-1.853 1.218,-4.21 1.864,-6.752 0.324,-0.02 0.55,-0.037 0.55,-0.037 29.243,-0.96 44.703,6.796 44.703,6.796 l -1.47,-1.13 c -14.25,-6.62 -29.31,-9.03 -42.35,-9.4 h -0.53 c 0.46,-2.03 1.04,-6.15 1.16,-6.15 l 0.31,0.01 c 22.5,0.24 34.77,5.59 34.77,5.59 l -1.47,-1.163 c -11.16,-4.772 -22.572,-6.932 -33.26,-7.647 0.068,-4.174 -0.63,-7.61 -2.21,-10.58 8.25,-7.178 11.3,-18.11 11.74,-22.427 v -0.01 l 0.003,-0.01 c 0.035,-0.14 0.11,-0.535 0.12,-0.62 0.014,-0.085 0.024,-0.17 0.03,-0.244 0.015,-0.15 0.02,-0.296 0.02,-0.43 v -0.22 c -0.007,-0.13 -0.02,-0.256 -0.036,-0.377 -0.014,-0.064 -0.02,-0.13 -0.034,-0.19 -0.03,-0.11 -0.057,-0.223 -0.094,-0.325 -0.016,-0.054 -0.035,-0.11 -0.055,-0.16 -0.04,-0.104 -0.09,-0.196 -0.14,-0.285 -0.02,-0.05 -0.05,-0.096 -0.075,-0.14 -0.057,-0.085 -0.113,-0.16 -0.173,-0.243 -0.036,-0.03 -0.066,-0.074 -0.094,-0.112 -0.07,-0.07 -0.132,-0.137 -0.2,-0.2 -0.04,-0.03 -0.07,-0.07 -0.105,-0.096 -0.076,-0.06 -0.148,-0.114 -0.223,-0.17 -0.033,-0.023 -0.07,-0.05 -0.106,-0.07 -0.08,-0.05 -0.158,-0.094 -0.235,-0.138 -0.04,-0.02 -0.074,-0.04 -0.11,-0.064 -0.075,-0.036 -0.154,-0.073 -0.24,-0.102 -0.03,-0.015 -0.06,-0.03 -0.1,-0.044 -0.073,-0.03 -0.15,-0.056 -0.225,-0.082 -0.035,-0.01 -0.066,-0.024 -0.096,-0.03 -0.073,-0.023 -0.14,-0.043 -0.213,-0.06 -0.022,-0.01 -0.053,-0.015 -0.075,-0.02 -0.07,-0.02 -0.13,-0.03 -0.194,-0.04 l -0.06,-0.015 c -0.06,-0.01 -0.104,-0.02 -0.154,-0.02 -0.01,0 -0.03,-0.004 -0.04,-0.01 -0.11,-0.015 -0.174,-0.02 -0.174,-0.02 -14.247,0.16 -25.955,-4.693 -25.955,-4.693 -0.32,-0.12 -0.64,-0.225 -0.96,-0.344 -31.69,-11.62 -64.577,-14.95 -93.86,-14.42 l -0.01,-0.025 c -13.078,0.12 -22.63,1.19 -22.63,1.19 -42.046,3.563 -72.185,13.657 -72.185,13.657 0,0 -11.44,3.24 -26.68,2.48 0,0 -5.66,-0.1 -6.775,3.51 -0.96,2.3 -1.084,5.04 1.07,11.03 2.487,6.903 12.425,19.884 12.5,19.986 C 178,196.754 99.69,240.79 29.53,329.324 c 0,0 14.826,-3.864 38.144,-6.6 46.27,-87.07 160.49,-142.79 160.49,-142.79 -7.39,0.792 -13.62,2.116 -13.62,2.116 -10.42,-7.51 -18.33,-22.12 -19.66,-24.67 l 0.275,0.52 c 0,0 -0.59,-1.332 -0.51,-2.294 0.01,-0.085 0.02,-0.168 0.04,-0.25 0.02,-0.066 0.04,-0.13 0.07,-0.19 0.6,-1.38 2.038,-1.47 3.95,-1.228 0.115,0.01 0.236,0.036 0.36,0.07 4.724,0.7 17.844,4.11 36.44,2.06 19.51,-2.15 26.59,-8.17 26.38,-9.89 0,0 14.78,-7.057 33.39,-8.298 18.607,-1.25 43.416,4.19 53.186,16.78 1.79,2.295 2.805,4.096 3.287,5.505 0.61,-0.98 0.926,-2.164 0.79,-3.52 -0.52,-5.046 -6.658,-10.363 -12.136,-13.493 -4.828,-2.758 -16.86,-7.2 -9.98,-6.83 6.88,0.37 42.573,5.584 56.064,14.335 8.305,5.39 9.05,10.915 9.05,10.915 0,0 10.245,-4.23 21.666,0.443 11.43,4.68 14.045,10.734 16.316,14.89 0,0 -1.2,-12.117 -11.526,-19.94 0,0 2.558,-0.016 6.6,-0.34 0.06,-0.01 0.12,-0.016 0.19,-0.02 l 1.36,-0.12 c 0.114,-0.01 0.24,-0.027 0.36,-0.037 l 0.51,-0.05 H 431 c 3.13,-0.314 6.86,-0.802 10.887,-1.572 2.764,-0.215 4.076,-0.08 4.733,1.81 0,0.01 0.007,0.02 0.008,0.03 -0.046,0.174 -0.094,0.358 -0.154,0.55 -0.072,0.217 -0.155,0.447 -0.254,0.69 0,0 -4.26,12.79 -12.184,18.55 l -0.527,0.45 c 0,0 -12.3,-2.79 -23.66,-0.855 -11.37,1.94 -13.51,7.594 -13.51,7.594 0,0 13.81,5.08 15.51,15.755 1.69,10.686 -4.85,18.94 -8.48,21.37 0,0 15.49,-6.075 14.77,-21.12 -0.24,-4.89 -2.62,-8.29 -5.73,-10.65 0,0.003 0.01,0.003 0.01,0.003 0,0 4.45,1.39 6.94,3.734 1.13,1.07 2.38,2.187 3.5,3.61 1.3,1.705 1.73,2.79 1.73,2.79 0.53,1.136 0.96,2.447 1.23,3.99 0.96,5.5 -0.72,10.87 -0.72,10.87 -7.296,29.715 -35.985,67.473 -35.985,67.473 0.007,-0.007 0.01,-0.01 0.017,-0.01 21.69,-18.55 36.145,-51.37 42.476,-67.904 34.197,0.37 52.885,9.914 52.885,9.914 l -1.27,-1.29"
       id="path34"
       inkscape:connector-curvature="0"
       style="fill:#0085ca" />
  </g>
</svg>
