<?xml version="1.0" encoding="UTF-8" standalone="no"?>
<svg
   xmlns:dc="http://purl.org/dc/elements/1.1/"
   xmlns:cc="http://creativecommons.org/ns#"
   xmlns:rdf="http://www.w3.org/1999/02/22-rdf-syntax-ns#"
   xmlns:svg="http://www.w3.org/2000/svg"
   xmlns="http://www.w3.org/2000/svg"
   xmlns:sodipodi="http://sodipodi.sourceforge.net/DTD/sodipodi-0.dtd"
   xmlns:inkscape="http://www.inkscape.org/namespaces/inkscape"
   width="512"
   height="512"
   viewBox="0 0 512 512"
   version="1.1"
   id="svg182"
   sodipodi:docname="cleveland-browns.svg"
   inkscape:version="0.92.5 (2060ec1f9f, 2020-04-08)">
  <metadata
     id="metadata188">
    <rdf:RDF>
      <cc:Work
         rdf:about="">
        <dc:format>image/svg+xml</dc:format>
        <dc:type
           rdf:resource="http://purl.org/dc/dcmitype/StillImage" />
      </cc:Work>
    </rdf:RDF>
  </metadata>
  <defs
     id="defs186" />
  <sodipodi:namedview
     pagecolor="#ffffff"
     bordercolor="#666666"
     borderopacity="1"
     objecttolerance="10"
     gridtolerance="10"
     guidetolerance="10"
     inkscape:pageopacity="0"
     inkscape:pageshadow="2"
     inkscape:window-width="640"
     inkscape:window-height="480"
     id="namedview184"
     showgrid="false"
     inkscape:zoom="0.4609375"
     inkscape:cx="256"
     inkscape:cy="256"
     inkscape:window-x="0"
     inkscape:window-y="0"
     inkscape:window-maximized="0"
     inkscape:current-layer="svg182" />
  <title
     id="title2">cleveland-browns</title>
  <g
     id="g180"
     transform="translate(-2,4)"
     style="fill:none;fill-rule:evenodd">
    <path
       d="m 102.88,336.486 c -1.353,7.695 0.44,15.996 3.744,22.127 1.97,3.657 3.41,6.884 3.484,10.54 0.427,20.81 45.117,4.25 47.98,-2.7"
       id="path4"
       inkscape:connector-curvature="0"
       style="fill:#ffffff" />
    <path
       d="m 101.886,336.31 c -0.32,1.823 -0.47,3.672 -0.47,5.517 0.003,6.22 1.69,12.38 4.32,17.265 1.956,3.628 3.295,6.692 3.36,10.083 0.043,2 0.47,3.737 1.248,5.196 1.162,2.2 3.093,3.71 5.414,4.63 2.325,0.93 5.053,1.31 7.99,1.31 6.97,0 15.17,-2.13 21.93,-4.82 3.38,-1.34 6.39,-2.83 8.712,-4.29 1.16,-0.73 2.147,-1.45 2.93,-2.16 0.78,-0.71 1.372,-1.41 1.703,-2.19 l -1.867,-0.77 c -0.128,0.33 -0.533,0.88 -1.193,1.47 -1.153,1.05 -3.046,2.29 -5.39,3.51 -7.04,3.68 -18.21,7.257 -26.824,7.24 -3.69,0.008 -6.88,-0.654 -9.07,-2.092 -1.1,-0.72 -1.96,-1.62 -2.56,-2.763 -0.61,-1.142 -0.97,-2.544 -1.01,-4.29 -0.09,-3.92 -1.62,-7.31 -3.61,-11 -2.47,-4.57 -4.08,-10.45 -4.08,-16.303 0,-1.734 0.14,-3.47 0.44,-5.164 l -1.99,-0.35"
       id="path6"
       inkscape:connector-curvature="0"
       style="fill:#000000" />
    <path
       d="m 332.908,189.968 c 1.485,2.818 -7.836,2.33 -15.343,1.844 -3.43,-0.223 -6.48,-0.446 -7.95,-0.353 -2.325,0.14 -7.59,0.68 -4.243,8.82 2.77,6.74 3.076,9.98 5.153,14.58 5.62,12.44 1.198,17.55 -6.76,18.34 -41.577,4.11 -58.316,32.41 -41.105,78.43 35.067,93.522 -73.172,76.51 -95.39,56.34 -8.593,-7.8 -18.91,-11.8 -30.783,-7.45 -8.862,3.25 -13.07,1.386 -16.404,-4.06 C -7.564,148.08 262.365,55.98 332.908,189.963"
       id="path8"
       inkscape:connector-curvature="0"
       style="fill:#fb4f14" />
    <path
       d="m 332.908,189.968 -1.786,0.942 0.73,-0.386 h -0.805 c 0,0.24 0.07,0.376 0.075,0.386 l 0.73,-0.386 h -0.805 1.216 l -1.017,-0.67 c -0.113,0.16 -0.205,0.444 -0.2,0.67 h 1.217 l -1.017,-0.67 0.665,0.438 -0.46,-0.66 c -0.02,0.015 -0.1,0.077 -0.2,0.22 l 0.67,0.44 -0.46,-0.66 0.08,0.106 -0.065,-0.11 -0.006,0.005 0.074,0.105 -0.066,-0.11 c 0,0.006 -0.172,0.09 -0.46,0.164 -0.426,0.115 -1.1,0.218 -1.905,0.28 -0.81,0.065 -1.756,0.094 -2.785,0.093 -2.615,0 -5.735,-0.183 -8.608,-0.37 -2.88,-0.185 -5.49,-0.376 -7.26,-0.377 -0.34,0 -0.653,0.006 -0.95,0.025 h 0.004 c -0.474,0.03 -1.116,0.077 -1.83,0.21 -1.07,0.204 -2.36,0.588 -3.496,1.583 -0.56,0.495 -1.06,1.15 -1.39,1.932 -0.336,0.78 -0.5,1.667 -0.5,2.623 0,1.53 0.4,3.23 1.232,5.27 1.35,3.29 2.09,5.69 2.773,7.92 0.68,2.22 1.307,4.3 2.405,6.73 1.678,3.7 2.35,6.62 2.35,8.75 0,1.183 -0.2,2.12 -0.52,2.88 -0.49,1.136 -1.247,1.943 -2.394,2.603 -1.15,0.65 -2.7,1.095 -4.56,1.277 -15.627,1.54 -28.045,6.46 -36.59,14.632 -4.27,4.08 -7.547,8.965 -9.736,14.553 -2.193,5.586 -3.3,11.87 -3.3,18.77 0,9.834 2.243,20.93 6.83,33.193 4.76,12.693 6.805,23.236 6.803,31.876 0,7.19 -1.402,13.06 -3.823,17.85 -1.813,3.597 -4.21,6.6 -7.08,9.11 -4.3,3.764 -9.68,6.42 -15.73,8.13 -6.043,1.71 -12.74,2.47 -19.573,2.47 -10.76,0 -21.866,-1.88 -31.33,-4.76 -4.73,-1.44 -9.056,-3.125 -12.71,-4.932 -3.66,-1.803 -6.65,-3.74 -8.697,-5.602 -3.21,-2.91 -6.68,-5.34 -10.43,-7.06 -3.742,-1.713 -7.78,-2.7 -12.03,-2.7 -3.346,0 -6.82,0.61 -10.38,1.918 -2.82,1.035 -5.05,1.48 -6.773,1.475 -1.723,-0.003 -2.94,-0.393 -4.052,-1.13 -1.11,-0.74 -2.14,-1.902 -3.154,-3.563 -23.686,-38.67 -33.51,-73.163 -33.51,-102.797 0,-19.524 4.256,-36.954 11.664,-52.156 11.114,-22.8 29.35,-40.61 51.084,-52.73 21.727,-12.12 46.94,-18.535 71.875,-18.533 21.725,0 43.226,4.86 62.054,14.996 18.825,10.136 34.995,25.524 46.145,46.696 l 3.573,-1.883 c -11.526,-21.89 -28.327,-37.89 -47.81,-48.37 -19.487,-10.488 -41.64,-15.48 -63.966,-15.48 -34.16,0.006 -68.75,11.68 -94.893,33.46 -13.07,10.89 -24.017,24.32 -31.695,40.07 -7.677,15.747 -12.075,33.814 -12.074,53.926 0,30.536 10.124,65.755 34.105,104.904 1.205,1.964 2.585,3.63 4.36,4.816 1.77,1.19 3.91,1.82 6.296,1.81 2.403,0 5.06,-0.59 8.168,-1.723 3.147,-1.155 6.13,-1.67 8.985,-1.67 3.63,0 7.06,0.83 10.352,2.336 3.29,1.5 6.43,3.69 9.39,6.375 2.45,2.224 5.727,4.308 9.62,6.234 5.84,2.88 13.08,5.4 20.976,7.21 7.892,1.8 16.432,2.9 24.852,2.9 6.34,0 12.61,-0.62 18.49,-2.05 8.8,-2.14 16.76,-6.11 22.532,-12.58 2.886,-3.235 5.206,-7.086 6.79,-11.576 1.586,-4.488 2.44,-9.61 2.44,-15.395 0,-9.273 -2.18,-20.27 -7.06,-33.29 -4.46,-11.92 -6.57,-22.56 -6.57,-31.78 0,-6.47 1.034,-12.232 3.02,-17.29 2.98,-7.588 8.07,-13.62 15.24,-18.12 7.17,-4.494 16.46,-7.41 27.72,-8.526 3,-0.302 5.736,-1.16 7.825,-2.962 1.034,-0.9 1.88,-2.032 2.44,-3.36 0.56,-1.323 0.84,-2.82 0.84,-4.454 -0.006,-2.954 -0.88,-6.364 -2.705,-10.406 -0.975,-2.164 -1.54,-4.01 -2.223,-6.245 -0.687,-2.23 -1.48,-4.82 -2.9,-8.27 -0.707,-1.706 -0.94,-2.94 -0.93,-3.725 0,-0.662 0.133,-1 0.272,-1.226 0.11,-0.175 0.24,-0.306 0.43,-0.438 0.28,-0.198 0.72,-0.368 1.22,-0.47 0.497,-0.11 1.035,-0.156 1.51,-0.187 h 0.003 c 0.17,-0.01 0.406,-0.02 0.687,-0.02 1.495,0 4.12,0.18 7,0.37 2.894,0.188 6.073,0.38 8.867,0.38 1.99,-0.004 3.76,-0.09 5.236,-0.392 0.74,-0.165 1.42,-0.36 2.106,-0.79 0.34,-0.22 0.69,-0.517 0.98,-0.95 0.285,-0.428 0.47,-1.005 0.464,-1.55 0,-0.58 -0.173,-1.086 -0.39,-1.5 l -1.787,0.94"
       id="path10"
       inkscape:connector-curvature="0"
       style="fill:#000000" />
    <path
       d="m 309.845,191.503 12.386,0.197 c -21.18,-40.357 -64.87,-67.494 -125.27,-61.405 50.54,-0.52 91.05,22.806 112.89,61.21 v -0.002"
       id="path12"
       inkscape:connector-curvature="0"
       style="fill:#22150c" />
    <path
       d="m 336.157,193.084 c 1.316,-0.72 11.24,-4.786 11.24,-4.786 l 13.038,24.167 c 8.573,15.897 -11.228,17.737 -14.35,8.854 l -9.927,-28.24"
       id="path14"
       inkscape:connector-curvature="0"
       style="fill:#7f8180" />
    <path
       d="m 336.157,193.084 0.483,0.886 c 0.113,-0.062 0.408,-0.203 0.793,-0.378 1.366,-0.62 3.963,-1.713 6.206,-2.647 1.12,-0.467 2.15,-0.896 2.91,-1.207 l 1.22,-0.505 -0.38,-0.935 -0.89,0.48 13.03,24.167 c 1.45,2.686 2.01,4.89 2.01,6.61 -0.01,2.128 -0.81,3.543 -2.05,4.543 -1.243,0.992 -2.995,1.514 -4.823,1.513 -1.644,0.01 -3.328,-0.42 -4.7,-1.21 -1.38,-0.8 -2.435,-1.94 -2.955,-3.41 l -10.163,-28.91 h -0.717 v 1.01 l 0.483,0.89 -0.48,-0.88 v 1.01 -1.01 l -0.95,0.34 9.924,28.235 c 0.7,1.99 2.134,3.503 3.85,4.49 1.72,0.99 3.728,1.483 5.71,1.485 2.2,0 4.386,-0.61 6.08,-1.95 1.694,-1.334 2.823,-3.453 2.81,-6.126 -0.002,-2.165 -0.7,-4.675 -2.256,-7.57 l -13.47,-24.968 -0.84,0.345 c 0,0 -2.485,1.018 -5.134,2.126 -1.325,0.552 -2.69,1.13 -3.813,1.614 -0.56,0.24 -1.06,0.46 -1.463,0.644 -0.41,0.186 -0.71,0.328 -0.926,0.446 l 0.487,1.894 v -1.01"
       id="path16"
       inkscape:connector-curvature="0"
       style="fill:#000000" />
    <path
       d="m 319.654,291.91 c -3.82,-14.605 -6.275,-41.566 15.07,-48.817 11.03,-3.747 15.914,-8.313 10.523,-23.928 l -9.02,-26.123 -25.663,-1.634 c -5.104,-0.325 -6.935,3.042 -5.263,7.658 l 7.9,21.774 c 2.64,7.27 -2.38,12.055 -7.89,12.682 -50,5.69 -56.01,39.327 -42.37,77.527 7.48,20.88 9.81,37.97 2.15,52.88 28.82,3.04 72.4,-4.06 54.58,-72.03 z"
       id="path18"
       inkscape:connector-curvature="0"
       style="fill:#000000" />
    <path
       d="m 265.077,363.933 -0.106,1.003 c 3.39,0.36 6.97,0.578 10.64,0.578 11.4,-0.004 23.65,-2.102 33.14,-8.862 4.75,-3.38 8.78,-7.934 11.61,-13.923 2.83,-5.99 4.46,-13.4 4.46,-22.49 0,-8.12 -1.29,-17.57 -4.18,-28.6 -1.34,-5.14 -2.51,-11.84 -2.51,-18.61 0,-6.12 0.96,-12.298 3.55,-17.44 2.6,-5.15 6.76,-9.3 13.38,-11.56 4.04,-1.376 7.34,-2.864 9.72,-5.08 1.19,-1.11 2.127,-2.408 2.75,-3.926 0.63,-1.518 0.95,-3.244 0.95,-5.204 -0.004,-3.02 -0.74,-6.6 -2.26,-11.003 l -9.24,-26.757 -26.335,-1.677 c -0.25,-0.02 -0.49,-0.028 -0.73,-0.028 -1.89,0 -3.47,0.51 -4.575,1.53 -1.11,1.02 -1.645,2.49 -1.638,4.08 0,1.078 0.228,2.227 0.66,3.427 l 7.897,21.773 c 0.46,1.274 0.66,2.44 0.66,3.496 -0.01,2.267 -0.9,4.058 -2.32,5.407 -1.414,1.345 -3.37,2.206 -5.4,2.436 -17.81,2.025 -30.23,7.586 -38.2,15.755 -7.98,8.17 -11.398,18.88 -11.39,30.896 0,10 2.34,20.927 6.372,32.22 4.26,11.898 6.817,22.507 6.815,32.098 0,7.17 -1.415,13.765 -4.61,19.99 l -0.67,1.31 1.46,0.154 0.11,-1.007 0.9,0.46 c 3.35,-6.527 4.83,-13.478 4.83,-20.91 0,-9.954 -2.64,-20.767 -6.93,-32.78 -3.98,-11.14 -6.26,-21.86 -6.26,-31.54 0.006,-11.65 3.273,-21.75 10.814,-29.486 7.54,-7.73 19.466,-13.163 36.98,-15.16 2.44,-0.275 4.79,-1.29 6.565,-2.97 1.776,-1.67 2.953,-4.05 2.948,-6.87 0,-1.313 -0.25,-2.716 -0.783,-4.186 l -7.9,-21.774 c -0.37,-1.02 -0.54,-1.95 -0.54,-2.736 0.01,-1.176 0.36,-2.005 0.99,-2.594 0.635,-0.59 1.657,-0.993 3.205,-0.996 0.195,0 0.395,0.01 0.6,0.02 l 25,1.596 8.8,25.486 c 1.477,4.272 2.15,7.66 2.147,10.345 0,1.746 -0.28,3.19 -0.79,4.432 -0.77,1.853 -2.07,3.29 -3.96,4.553 -1.88,1.26 -4.34,2.313 -7.29,3.313 -7.114,2.41 -11.76,7.016 -14.54,12.56 -2.78,5.55 -3.76,12.02 -3.76,18.35 0.006,7.007 1.21,13.85 2.587,19.12 2.855,10.894 4.115,20.186 4.115,28.084 0,8.85 -1.58,15.947 -4.26,21.62 -4.025,8.505 -10.525,13.87 -18.16,17.167 -7.63,3.29 -16.395,4.46 -24.76,4.46 -3.59,0 -7.11,-0.213 -10.426,-0.565 l -0.11,1.002 0.9,0.46 -0.9,-0.46"
       id="path20"
       inkscape:connector-curvature="0"
       style="fill:#000000" />
    <path
       d="m 319.894,190.5 12.298,0.017 c -18.97,-39.85 -71.08,-72.012 -134.15,-60.33 55.637,-5.328 104.07,19.88 121.852,60.312"
       id="path22"
       inkscape:connector-curvature="0"
       style="fill:#ffffff" />
    <path
       d="m 334.723,243.093 c 11.03,-3.747 15.915,-8.312 10.524,-23.927 l -9.02,-26.123 -25.663,-1.634 c -5.104,-0.33 -6.935,3.04 -5.263,7.65 l 7.9,21.77 c 2.64,7.27 -2.38,12.05 -7.89,12.68 -4.22,0.48 -8.13,1.16 -11.75,2.02 8.46,4.75 56.89,-3.96 41.18,7.54"
       id="path24"
       inkscape:connector-curvature="0"
       style="fill:#ffffff" />
    <path
       d="m 334.723,243.093 0.324,0.957 c 4.034,-1.375 7.34,-2.862 9.716,-5.08 1.185,-1.108 2.123,-2.406 2.75,-3.924 0.63,-1.518 0.946,-3.244 0.946,-5.204 -0.01,-3.02 -0.74,-6.602 -2.26,-11.006 l -9.24,-26.758 -26.34,-1.678 c -0.25,-0.015 -0.49,-0.024 -0.73,-0.024 -1.89,-0.002 -3.47,0.51 -4.58,1.53 -1.11,1.017 -1.64,2.488 -1.64,4.078 0,1.077 0.23,2.226 0.66,3.426 l 7.894,21.775 c 0.46,1.275 0.66,2.44 0.66,3.496 -0.005,2.27 -0.9,4.06 -2.316,5.41 -1.41,1.34 -3.37,2.21 -5.4,2.44 -4.264,0.49 -8.216,1.18 -11.87,2.05 l -2.51,0.6 2.25,1.26 c 1.355,0.75 3.24,1.13 5.56,1.38 2.31,0.24 5.05,0.32 8,0.32 6.13,0 13.17,-0.34 18.985,-0.34 3.452,0 6.48,0.128 8.55,0.5 1.03,0.18 1.82,0.433 2.246,0.684 0.217,0.12 0.334,0.235 0.38,0.3 l 0.05,0.134 c 0,0.05 -0.014,0.15 -0.09,0.313 -0.11,0.244 -0.366,0.61 -0.797,1.047 -0.43,0.44 -1.034,0.95 -1.816,1.52 l 0.92,1.77 -0.32,-0.957 0.593,0.81 c 1.123,-0.827 1.96,-1.56 2.55,-2.275 0.294,-0.36 0.53,-0.71 0.7,-1.08 0.17,-0.368 0.276,-0.758 0.277,-1.163 0.004,-0.48 -0.16,-0.955 -0.43,-1.32 -0.48,-0.65 -1.165,-1.01 -1.96,-1.3 -1.2,-0.425 -2.747,-0.664 -4.588,-0.82 -1.84,-0.15 -3.96,-0.2 -6.26,-0.2 -5.89,0 -12.93,0.35 -18.99,0.35 -2.91,0 -5.59,-0.08 -7.79,-0.31 -2.19,-0.224 -3.916,-0.63 -4.78,-1.13 l -0.49,0.88 0.23,0.98 c 3.57,-0.853 7.44,-1.53 11.63,-2.004 2.437,-0.28 4.787,-1.296 6.563,-2.975 1.773,-1.67 2.95,-4.05 2.945,-6.87 0,-1.314 -0.25,-2.716 -0.783,-4.186 l -7.89,-21.778 c -0.37,-1.02 -0.54,-1.95 -0.54,-2.737 0.004,-1.175 0.352,-2.003 0.983,-2.593 0.633,-0.586 1.654,-0.99 3.202,-0.994 0.19,0 0.39,0.006 0.6,0.02 l 24.99,1.59 8.8,25.49 c 1.473,4.27 2.145,7.66 2.143,10.344 0,1.747 -0.28,3.19 -0.793,4.43 -0.77,1.855 -2.07,3.29 -3.96,4.554 -1.88,1.26 -4.34,2.314 -7.29,3.314 l 0.33,0.953 0.595,0.82 -0.6,-0.815"
       id="path26"
       inkscape:connector-curvature="0"
       style="fill:#000000" />
    <path
       d="m 334.723,243.093 c 11.03,-3.747 15.915,-8.312 10.524,-23.927 l -9.02,-26.123 -22.463,-1.43 c -5.104,-0.325 -6.935,3.042 -5.262,7.657 l 7.893,21.774 c 2.635,7.27 -2.212,14.255 -7.724,14.883 -4.22,0.48 -11.67,0.618 -15.12,-0.377 8.46,4.75 56.89,-3.96 41.18,7.543"
       id="path28"
       inkscape:connector-curvature="0"
       style="fill:#ffffff" />
    <path
       d="m 334.723,243.093 0.324,0.957 c 4.034,-1.375 7.34,-2.862 9.716,-5.08 1.185,-1.108 2.123,-2.406 2.75,-3.924 0.63,-1.518 0.946,-3.244 0.946,-5.204 -0.01,-3.02 -0.74,-6.602 -2.26,-11.006 l -9.24,-26.758 -23.14,-1.474 c -0.25,-0.016 -0.49,-0.024 -0.73,-0.024 -1.89,-0.002 -3.47,0.508 -4.58,1.53 -1.11,1.017 -1.64,2.487 -1.64,4.08 0,1.075 0.23,2.224 0.66,3.424 l 7.895,21.774 c 0.467,1.294 0.677,2.568 0.677,3.792 0,2.553 -0.92,4.894 -2.34,6.644 -1.42,1.753 -3.32,2.885 -5.23,3.1 -1.887,0.215 -4.478,0.362 -7.036,0.36 -1.51,0 -3.013,-0.05 -4.35,-0.165 -1.335,-0.12 -2.513,-0.3 -3.34,-0.54 l -0.775,1.85 c 1.36,0.75 3.24,1.12 5.56,1.37 2.314,0.24 5.05,0.32 8,0.32 6.133,0 13.174,-0.35 18.99,-0.35 3.45,0 6.48,0.12 8.55,0.49 1.03,0.18 1.82,0.43 2.245,0.682 0.22,0.122 0.336,0.237 0.38,0.302 l 0.05,0.132 c 0,0.05 -0.013,0.15 -0.09,0.31 -0.11,0.24 -0.365,0.61 -0.796,1.044 -0.43,0.44 -1.03,0.95 -1.814,1.52 l 0.92,1.77 -0.32,-0.953 0.596,0.82 c 1.123,-0.825 1.96,-1.56 2.55,-2.273 0.294,-0.356 0.53,-0.71 0.7,-1.076 0.17,-0.366 0.276,-0.756 0.28,-1.16 0,-0.476 -0.165,-0.95 -0.43,-1.32 -0.48,-0.644 -1.17,-1.007 -1.967,-1.3 -1.205,-0.42 -2.75,-0.66 -4.59,-0.813 -1.84,-0.15 -3.96,-0.2 -6.26,-0.2 -5.89,0 -12.93,0.348 -18.99,0.348 -2.91,0 -5.594,-0.08 -7.79,-0.31 -2.19,-0.223 -3.916,-0.63 -4.78,-1.13 l -0.495,0.882 -0.28,0.97 c 1.04,0.3 2.31,0.485 3.728,0.61 1.42,0.12 2.97,0.172 4.527,0.174 2.64,0 5.28,-0.15 7.268,-0.377 2.54,-0.29 4.87,-1.735 6.57,-3.83 1.7,-2.098 2.788,-4.877 2.79,-7.917 0,-1.454 -0.25,-2.966 -0.8,-4.48 l -7.893,-21.773 c -0.37,-1.023 -0.543,-1.95 -0.543,-2.738 0.01,-1.18 0.357,-2.01 0.988,-2.598 0.636,-0.585 1.66,-0.99 3.206,-0.99 0.19,0 0.39,0.01 0.6,0.02 l 21.8,1.39 8.8,25.486 c 1.478,4.272 2.15,7.66 2.148,10.345 0,1.743 -0.28,3.19 -0.79,4.43 -0.77,1.85 -2.07,3.29 -3.96,4.55 -1.88,1.26 -4.348,2.313 -7.29,3.313 l 0.32,0.954 0.597,0.813 -0.597,-0.816"
       id="path30"
       inkscape:connector-curvature="0"
       style="fill:#000000" />
    <path
       d="m 280.42,241.935 c -33.612,18.8 -23.73,51.22 -10.32,85.108 -11.045,-37.812 -18.35,-65.054 10.32,-85.108"
       id="path32"
       inkscape:connector-curvature="0"
       style="fill:#d6d6d6" />
    <path
       d="m 176.7,355.943 c 0.555,3.4 -1.668,6.155 -4.962,6.155 -3.297,0 -6.415,-2.756 -6.965,-6.155 -0.557,-3.4 1.666,-6.153 4.962,-6.153 3.296,0 6.415,2.755 6.965,6.153"
       id="path34"
       inkscape:connector-curvature="0"
       style="fill:#ffffff" />
    <path
       d="m 176.7,355.943 -1.265,0.206 c 0.045,0.28 0.068,0.55 0.068,0.82 -0.003,1.15 -0.404,2.09 -1.053,2.76 -0.654,0.66 -1.557,1.08 -2.712,1.08 -1.286,0 -2.61,-0.55 -3.663,-1.48 -1.056,-0.93 -1.816,-2.23 -2.036,-3.6 -0.05,-0.29 -0.07,-0.56 -0.07,-0.83 0,-1.15 0.4,-2.09 1.05,-2.76 0.65,-0.668 1.55,-1.08 2.71,-1.086 1.28,-0.004 2.61,0.55 3.66,1.48 1.05,0.932 1.82,2.222 2.04,3.595 l 1.26,-0.206 1.26,-0.204 c -0.33,-2.023 -1.407,-3.81 -2.87,-5.105 -1.47,-1.295 -3.35,-2.12 -5.36,-2.124 -1.8,-0.003 -3.42,0.69 -4.55,1.86 -1.14,1.165 -1.78,2.785 -1.78,4.546 0,0.41 0.03,0.822 0.1,1.24 0.33,2.024 1.404,3.81 2.87,5.106 1.464,1.297 3.35,2.12 5.36,2.127 1.8,0.006 3.42,-0.69 4.55,-1.86 1.137,-1.166 1.782,-2.787 1.78,-4.55 0,-0.404 -0.033,-0.816 -0.1,-1.23 l -1.268,0.203"
       id="path36"
       inkscape:connector-curvature="0"
       style="fill:#000000" />
    <path
       d="m 335.472,213.003 c 1.05,-0.91 17.714,0.408 19.367,1.015 4.81,1.768 4.25,8.682 -0.51,7.613 -6.43,-1.44 -12.42,-1.43 -18.78,-1.86 l -0.09,-6.76"
       id="path38"
       inkscape:connector-curvature="0"
       style="fill:#7f8180" />
    <path
       d="m 335.472,213.003 0.66,0.763 -0.35,-0.408 0.2,0.507 c 0.005,-0.004 0.05,-0.015 0.15,-0.1 l -0.35,-0.407 0.2,0.507 0.01,-0.003 c 0.082,-0.03 0.424,-0.088 0.874,-0.115 0.453,-0.03 1.035,-0.046 1.7,-0.045 2.535,0 6.278,0.214 9.522,0.487 1.622,0.13 3.122,0.28 4.283,0.43 0.59,0.07 1.08,0.14 1.46,0.2 0.37,0.06 0.65,0.13 0.67,0.14 0.95,0.34 1.6,0.91 2.04,1.55 0.44,0.65 0.65,1.39 0.65,2.06 0,0.65 -0.19,1.2 -0.5,1.56 -0.31,0.35 -0.7,0.58 -1.39,0.59 -0.21,0 -0.453,-0.03 -0.73,-0.09 -6.56,-1.47 -12.612,-1.46 -18.924,-1.886 l -0.067,1.007 1.01,-0.013 -0.087,-6.77 -2.02,0.016 v 2.214 l 1.67,-1.45 -0.66,-0.76 h 1.01 -1.01 l -1.01,0.01 0.096,7.7 0.93,0.066 c 6.4,0.42 12.33,0.422 18.62,1.835 0.4,0.09 0.792,0.14 1.17,0.14 1.21,0.01 2.27,-0.504 2.94,-1.307 0.67,-0.8 0.974,-1.823 0.975,-2.866 0,-1.08 -0.325,-2.2 -0.992,-3.19 -0.663,-0.986 -1.68,-1.832 -3.014,-2.32 -0.3,-0.104 -0.6,-0.16 -1.03,-0.237 -1.465,-0.248 -4.19,-0.53 -7.154,-0.758 -2.96,-0.227 -6.13,-0.395 -8.44,-0.395 -0.85,0 -1.58,0.02 -2.17,0.08 -0.294,0.023 -0.553,0.06 -0.793,0.113 -0.245,0.07 -0.462,0.1 -0.794,0.366 l 0.66,0.762 h 1.01 -1.01"
       id="path40"
       inkscape:connector-curvature="0"
       style="fill:#000000" />
    <path
       d="m 271.624,330.935 c 0.302,9.527 0.772,19.01 -3.89,29.78 29.475,4.083 69.275,-15.075 45.836,-72.08 -6.737,-16.382 -30.317,-14.35 -27.063,9.306 2.726,19.81 -6.57,27.11 -14.884,33"
       id="path42"
       inkscape:connector-curvature="0"
       style="fill:#ffffff" />
    <path
       d="m 183.198,294.427 c -8.07,0.042 -14.445,6.356 -14.503,14.777 -0.06,8.98 7.06,16.987 15.895,17.854 1.855,0.183 3.636,0.014 5.3,-0.415 l 10.773,-15.694 c -0.646,-8.44 -7.472,-15.62 -15.836,-16.44 -0.552,-0.06 -1.09,-0.09 -1.63,-0.09"
       id="path44"
       inkscape:connector-curvature="0"
       style="fill:#000000" />
    <path
       d="m 150.067,353.644 c 9.86,4.002 21.14,12.48 30.837,16.32 63.703,25.22 100.55,-15.55 75.364,-61.306 19.012,62.2 -28.48,77.92 -75.375,59.434 -10.68,-4.21 -18.785,-11.487 -30.825,-14.448"
       id="path46"
       inkscape:connector-curvature="0"
       style="fill:#000000" />
    <path
       d="m 163.82,335.218 c 12.45,17.705 37.783,17.408 47.6,4.307 -15.28,10.368 -31.918,9.076 -47.6,-4.307"
       id="path48"
       inkscape:connector-curvature="0"
       style="fill:#000000" />
    <path
       d="m 137.103,365.408 c 4.947,-0.763 8.746,-0.565 13.932,1.218 0.777,0.27 2.012,0.785 -1.393,2.442 -8.5,4.133 -17.156,7.265 -25.427,6.62 -1.54,-0.12 -2.886,-1.852 0.173,-3.136 3.64,-1.527 5.435,-3.87 5.05,-7.666 l 6.097,-1.916 c -0.41,1.06 -0.983,2.83 1.568,2.44 v -0.002"
       id="path50"
       inkscape:connector-curvature="0"
       style="fill:#000000" />
    <path
       d="m 108.855,356.002 c 1.16,1.212 2.085,2.312 2.74,3.57 0.656,1.258 1.068,2.69 1.16,4.663 0.11,2.49 0.91,4.347 2.202,5.537 1.288,1.193 2.96,1.648 4.6,1.646 2.14,-0.006 4.3,-0.736 5.997,-1.785 0.85,-0.527 1.585,-1.137 2.14,-1.826 0.548,-0.685 0.945,-1.473 0.95,-2.366 0,-0.15 -0.013,-0.31 -0.038,-0.46 l -1.992,0.34 0.01,0.13 c 0.007,0.25 -0.13,0.65 -0.503,1.1 -0.54,0.69 -1.56,1.44 -2.75,1.98 -1.19,0.55 -2.56,0.89 -3.81,0.888 -1.29,-0.002 -2.4,-0.345 -3.23,-1.107 -0.82,-0.763 -1.45,-2.016 -1.55,-4.147 -0.1,-2.213 -0.59,-3.99 -1.39,-5.507 -0.79,-1.52 -1.86,-2.77 -3.07,-4.03 l -1.46,1.39"
       id="path52"
       inkscape:connector-curvature="0"
       style="fill:#000000" />
    <path
       d="m 322.403,249.196 c 1.77,-2.102 -0.612,-2.837 -1.793,-1.676 -11.355,11.186 -9.478,22.95 -6.696,32.424 1.052,3.587 2.166,2.202 1.673,-0.24 -2.546,-12.606 1,-23.6 6.816,-30.508"
       id="path54"
       inkscape:connector-curvature="0"
       style="fill:#ffffff" />
    <path
       d="m 332.908,189.968 -1.786,0.942 0.73,-0.386 h -0.805 c 0,0.24 0.07,0.376 0.075,0.386 l 0.73,-0.386 h -0.805 1.216 l -1.017,-0.67 c -0.113,0.16 -0.205,0.444 -0.2,0.67 h 1.217 l -1.017,-0.67 0.665,0.438 -0.46,-0.66 c -0.02,0.015 -0.1,0.077 -0.2,0.22 l 0.67,0.44 -0.46,-0.66 0.08,0.106 -0.065,-0.11 -0.006,0.005 0.074,0.105 -0.066,-0.11 c 0,0.006 -0.172,0.09 -0.46,0.164 -0.426,0.115 -1.1,0.218 -1.905,0.28 -0.81,0.065 -1.756,0.094 -2.785,0.093 -2.615,0 -5.735,-0.183 -8.608,-0.37 -2.88,-0.185 -5.49,-0.376 -7.26,-0.377 -0.34,0 -0.653,0.006 -0.95,0.025 h 0.004 c -0.474,0.03 -1.116,0.077 -1.83,0.21 -1.07,0.204 -2.36,0.588 -3.496,1.583 -0.56,0.495 -1.06,1.15 -1.39,1.932 -0.336,0.78 -0.5,1.667 -0.5,2.623 0,1.53 0.4,3.23 1.232,5.27 1.35,3.29 2.09,5.69 2.773,7.92 0.68,2.22 1.307,4.3 2.405,6.73 1.678,3.7 2.35,6.62 2.35,8.75 0,1.183 -0.2,2.12 -0.52,2.88 -0.49,1.136 -1.247,1.943 -2.394,2.603 -1.15,0.65 -2.7,1.095 -4.56,1.277 -15.627,1.54 -28.045,6.46 -36.59,14.632 -4.27,4.08 -7.547,8.965 -9.736,14.553 -2.193,5.586 -3.3,11.87 -3.3,18.77 0,9.834 2.243,20.93 6.83,33.193 4.76,12.693 6.805,23.236 6.803,31.876 0,7.19 -1.402,13.06 -3.823,17.85 -1.813,3.597 -4.21,6.6 -7.08,9.11 -4.3,3.764 -9.68,6.42 -15.73,8.13 -6.043,1.71 -12.74,2.47 -19.573,2.47 -10.76,0 -21.866,-1.88 -31.33,-4.76 -4.73,-1.44 -9.056,-3.125 -12.71,-4.932 -3.66,-1.803 -6.65,-3.74 -8.697,-5.602 -3.21,-2.91 -6.68,-5.34 -10.43,-7.06 -3.742,-1.713 -7.78,-2.7 -12.03,-2.7 -3.346,0 -6.82,0.61 -10.38,1.918 -2.82,1.035 -5.05,1.48 -6.773,1.475 -1.723,-0.003 -2.94,-0.393 -4.052,-1.13 -1.11,-0.74 -2.14,-1.902 -3.154,-3.563 -23.686,-38.67 -33.51,-73.163 -33.51,-102.797 0,-19.524 4.256,-36.954 11.664,-52.156 11.114,-22.8 29.35,-40.61 51.084,-52.73 21.727,-12.12 46.94,-18.535 71.875,-18.533 21.725,0 43.226,4.86 62.054,14.996 18.825,10.136 34.995,25.524 46.145,46.696 l 3.573,-1.883 c -11.526,-21.89 -28.327,-37.89 -47.81,-48.37 -19.487,-10.488 -41.64,-15.48 -63.966,-15.48 -34.16,0.006 -68.75,11.68 -94.893,33.46 -13.07,10.89 -24.017,24.32 -31.695,40.07 -7.677,15.747 -12.075,33.814 -12.074,53.926 0,30.536 10.124,65.755 34.105,104.904 1.205,1.964 2.585,3.63 4.36,4.816 1.77,1.19 3.91,1.82 6.296,1.81 2.403,0 5.06,-0.59 8.168,-1.723 3.147,-1.155 6.13,-1.67 8.985,-1.67 3.63,0 7.06,0.83 10.352,2.336 3.29,1.5 6.43,3.69 9.39,6.375 2.45,2.224 5.727,4.308 9.62,6.234 5.84,2.88 13.08,5.4 20.976,7.21 7.892,1.8 16.432,2.9 24.852,2.9 6.34,0 12.61,-0.62 18.49,-2.05 8.8,-2.14 16.76,-6.11 22.532,-12.58 2.886,-3.235 5.206,-7.086 6.79,-11.576 1.586,-4.488 2.44,-9.61 2.44,-15.395 0,-9.273 -2.18,-20.27 -7.06,-33.29 -4.46,-11.92 -6.57,-22.56 -6.57,-31.78 0,-6.47 1.034,-12.232 3.02,-17.29 2.98,-7.588 8.07,-13.62 15.24,-18.12 7.17,-4.494 16.46,-7.41 27.72,-8.526 3,-0.302 5.736,-1.16 7.825,-2.962 1.034,-0.9 1.88,-2.032 2.44,-3.36 0.56,-1.323 0.84,-2.82 0.84,-4.454 -0.006,-2.954 -0.88,-6.364 -2.705,-10.406 -0.975,-2.164 -1.54,-4.01 -2.223,-6.245 -0.687,-2.23 -1.48,-4.82 -2.9,-8.27 -0.707,-1.706 -0.94,-2.94 -0.93,-3.725 0,-0.662 0.133,-1 0.272,-1.226 0.11,-0.175 0.24,-0.306 0.43,-0.438 0.28,-0.198 0.72,-0.368 1.22,-0.47 0.497,-0.11 1.035,-0.156 1.51,-0.187 h 0.003 c 0.17,-0.01 0.406,-0.02 0.687,-0.02 1.495,0 4.12,0.18 7,0.37 2.894,0.188 6.073,0.38 8.867,0.38 1.99,-0.004 3.76,-0.09 5.236,-0.392 0.74,-0.165 1.42,-0.36 2.106,-0.79 0.34,-0.22 0.69,-0.517 0.98,-0.95 0.285,-0.428 0.47,-1.005 0.464,-1.55 0,-0.58 -0.173,-1.086 -0.39,-1.5 l -1.787,0.94"
       id="path56"
       inkscape:connector-curvature="0"
       style="fill:#22150c" />
    <path
       d="m 318.39,261.478 c 13.45,20.693 28.47,34.107 82.283,26.48 5.628,-0.798 9.418,0.786 11.163,5.922 8.33,24.524 13.094,46.155 14.713,71.232 0.41,6.333 -7.53,8.627 -8.63,-0.17 -3.04,-24.258 -7.69,-45.83 -15.56,-69.032 -52.97,12.373 -76.54,-9.47 -85.25,-22.08 0.03,-4.118 0.13,-8.234 1.27,-12.352"
       id="path58"
       inkscape:connector-curvature="0"
       style="fill:#7f8180" />
    <path
       d="m 318.39,261.478 -0.847,0.55 c 5.45,8.387 11.23,15.7 19.802,20.894 8.57,5.194 19.852,8.212 36.178,8.21 7.837,0 16.843,-0.694 27.292,-2.174 0.867,-0.124 1.68,-0.185 2.435,-0.185 1.97,0 3.524,0.417 4.753,1.263 1.226,0.85 2.19,2.162 2.877,4.168 8.31,24.466 13.047,45.987 14.662,70.973 0.01,0.138 0.013,0.273 0.013,0.407 0,1.337 -0.437,2.375 -1.05,3.077 -0.614,0.71 -1.394,1.06 -2.132,1.06 -0.676,0 -1.353,-0.27 -1.996,-1 -0.637,-0.73 -1.213,-1.98 -1.45,-3.89 -3.046,-24.31 -7.715,-45.96 -15.608,-69.23 l -0.3,-0.87 -0.89,0.21 c -10.97,2.56 -20.65,3.65 -29.18,3.65 -16.21,0 -28.25,-3.895 -37.1,-8.996 -8.86,-5.1 -14.53,-11.425 -17.91,-16.317 l -0.83,0.574 1.01,0.006 c 0.03,-4.11 0.13,-8.13 1.23,-12.09 l -0.98,-0.27 -0.85,0.55 0.846,-0.55 -0.975,-0.27 c -1.18,4.273 -1.27,8.486 -1.302,12.612 v 0.32 l 0.18,0.264 c 3.514,5.09 9.4,11.64 18.554,16.92 9.156,5.28 21.582,9.27 38.11,9.268 8.7,0 18.536,-1.1 29.64,-3.695 l -0.23,-0.984 -0.957,0.324 c 7.846,23.133 12.48,44.623 15.515,68.83 0.272,2.19 0.95,3.83 1.922,4.96 0.97,1.135 2.26,1.716 3.527,1.71 1.39,0 2.707,-0.66 3.657,-1.746 0.955,-1.09 1.55,-2.625 1.55,-4.408 0,-0.178 -0.006,-0.357 -0.02,-0.54 -1.62,-25.17 -6.41,-46.91 -14.763,-71.494 -0.78,-2.3 -1.997,-4.05 -3.643,-5.18 -1.647,-1.133 -3.65,-1.62 -5.9,-1.62 -0.867,0 -1.77,0.07 -2.72,0.207 -10.375,1.47 -19.29,2.156 -27.01,2.156 -16.09,-0.006 -26.95,-2.965 -35.132,-7.92 -8.18,-4.96 -13.76,-11.966 -19.154,-20.268 l -1.22,-1.88 -0.6,2.164 0.972,0.268"
       id="path60"
       inkscape:connector-curvature="0"
       style="fill:#000000" />
    <path
       d="m 313.06,200.736 c -1.344,-3.972 -1.582,-7.426 2.03,-9.053 l 6.767,-3.044 c 2.774,-1.25 6.725,-2.4 8.288,1.18 l 9.64,22.08 c 2.16,4.94 3.522,14.88 -6.005,14.63 l -6.596,-0.17 c -4.907,-0.13 -5.952,-1.54 -7.526,-6.18 l -6.598,-19.46"
       id="path62"
       inkscape:connector-curvature="0"
       style="fill:#7f8180" />
    <path
       d="m 313.06,200.736 0.956,-0.325 c -0.527,-1.55 -0.856,-2.98 -0.853,-4.15 0,-0.86 0.17,-1.56 0.518,-2.15 0.36,-0.58 0.9,-1.08 1.83,-1.5 l 6.77,-3.04 c 1.32,-0.6 2.91,-1.13 4.17,-1.13 0.64,0 1.18,0.13 1.63,0.39 0.444,0.27 0.835,0.67 1.16,1.41 l 9.64,22.08 c 0.794,1.81 1.484,4.41 1.48,6.76 0,1.82 -0.4,3.45 -1.312,4.57 -0.46,0.57 -1.045,1.03 -1.836,1.36 -0.79,0.34 -1.794,0.54 -3.072,0.54 h -0.315 l -6.593,-0.17 c -1.18,-0.03 -2.09,-0.14 -2.785,-0.33 -1.043,-0.294 -1.602,-0.7 -2.17,-1.462 -0.56,-0.77 -1.063,-1.98 -1.642,-3.695 l -6.595,-19.46 -0.958,0.326 -0.956,0.323 6.598,19.453 c 0.4,1.177 0.77,2.174 1.205,3.036 0.322,0.643 0.684,1.215 1.13,1.71 0.66,0.744 1.503,1.287 2.512,1.61 1.01,0.327 2.176,0.465 3.61,0.5 l 6.593,0.17 c 0.125,0.006 0.248,0.008 0.368,0.008 1.5,0 2.78,-0.24 3.86,-0.698 1.63,-0.685 2.78,-1.877 3.45,-3.26 0.68,-1.39 0.93,-2.957 0.936,-4.528 -0.005,-2.74 -0.757,-5.52 -1.65,-7.572 l -9.64,-22.08 c -0.457,-1.06 -1.153,-1.85 -1.983,-2.34 -0.83,-0.49 -1.75,-0.67 -2.65,-0.67 -1.784,0.01 -3.55,0.67 -4.993,1.31 l -6.764,3.048 c -1.222,0.55 -2.145,1.34 -2.724,2.308 -0.584,0.966 -0.81,2.066 -0.81,3.19 0,1.53 0.4,3.14 0.96,4.803 l 0.958,-0.324"
       id="path64"
       inkscape:connector-curvature="0"
       style="fill:#000000" />
    <path
       d="m 319.413,188.647 c -1.397,0.628 -2.553,1.49 -3.353,2.63 -0.803,1.137 -1.214,2.53 -1.21,4.088 0,1.143 0.212,2.38 0.63,3.726 l 0.008,0.03 6.775,18.38 1.894,-0.7 -6.766,-18.36 -0.94,0.35 0.97,-0.3 c -0.37,-1.19 -0.54,-2.23 -0.54,-3.12 0,-1.22 0.3,-2.14 0.85,-2.92 0.548,-0.78 1.376,-1.43 2.53,-1.95 l -0.83,-1.84"
       id="path66"
       inkscape:connector-curvature="0"
       style="fill:#000000" />
    <path
       d="m 210.292,306.593 c -2.7,-1.724 -2.93,-4.256 -1.353,-6.768 l 6.53,-9.667 c 1.69,-2.503 3.24,-2.14 5.92,-0.51 l 21.65,13.2 c 10.1,6.157 -3.06,26.864 -12.69,20.47 l -20.06,-16.725"
       id="path68"
       inkscape:connector-curvature="0"
       style="fill:#7f8180" />
    <path
       d="m 210.292,306.593 0.543,-0.85 c -0.697,-0.447 -1.16,-0.924 -1.45,-1.402 -0.29,-0.48 -0.418,-0.96 -0.42,-1.5 -0.002,-0.73 0.26,-1.57 0.828,-2.47 l -0.854,-0.53 0.83,0.57 6.53,-9.666 c 0.38,-0.567 0.73,-0.92 1.01,-1.11 0.29,-0.19 0.5,-0.25 0.79,-0.252 0.28,0 0.64,0.08 1.1,0.27 0.46,0.195 1.01,0.49 1.65,0.88 l 21.65,13.2 c 1.13,0.694 1.9,1.56 2.4,2.564 0.503,1 0.744,2.16 0.744,3.413 0.01,3.026 -1.45,6.576 -3.657,9.29 -1.1,1.36 -2.376,2.51 -3.71,3.31 -1.33,0.8 -2.71,1.24 -4.034,1.236 -1.134,0 -2.243,-0.31 -3.35,-1.04 l -0.56,0.84 0.647,-0.778 -20.34,-16.96 h -0.365 v 1.01 l 0.544,-0.85 -0.54,0.85 v 1.01 -1.01 l -0.65,0.776 20.1,16.76 0.05,0.03 c 1.42,0.947 2.957,1.384 4.47,1.38 1.776,0 3.5,-0.58 5.074,-1.523 2.36,-1.416 4.42,-3.646 5.914,-6.187 1.49,-2.544 2.426,-5.405 2.43,-8.144 0,-1.51 -0.29,-2.99 -0.96,-4.32 -0.67,-1.34 -1.72,-2.51 -3.16,-3.38 l -21.65,-13.2 c -0.68,-0.418 -1.31,-0.767 -1.93,-1.02 -0.613,-0.258 -1.23,-0.428 -1.875,-0.428 -0.67,-0.005 -1.348,0.2 -1.92,0.597 -0.58,0.396 -1.08,0.95 -1.56,1.654 l -6.545,9.68 -0.01,0.014 c -0.71,1.14 -1.133,2.34 -1.135,3.555 -0.003,0.88 0.234,1.763 0.712,2.55 0.48,0.79 1.185,1.476 2.09,2.056 l 0.25,0.156 h 0.295 v -1.01"
       id="path70"
       inkscape:connector-curvature="0"
       style="fill:#000000" />
    <path
       d="m 209.92,300.966 9.68,4.018 -14.997,23.774 c -4.07,6.455 -12.847,0.008 -9.088,-5.743 l 14.405,-22.05"
       id="path72"
       inkscape:connector-curvature="0"
       style="fill:#7f8180" />
    <path
       d="m 209.92,300.966 -0.387,0.933 8.573,3.55 -14.357,22.76 c -0.53,0.84 -1.12,1.38 -1.72,1.73 -0.6,0.34 -1.22,0.49 -1.85,0.49 -1.13,0 -2.3,-0.51 -3.17,-1.36 -0.87,-0.845 -1.42,-1.975 -1.42,-3.15 0,-0.755 0.21,-1.547 0.75,-2.37 l 14.404,-22.05 -0.846,-0.55 -0.388,0.93 0.386,-0.936 -0.85,-0.554 -14.407,22.05 c -0.74,1.127 -1.08,2.33 -1.08,3.476 0.004,1.81 0.826,3.436 2.035,4.605 1.213,1.17 2.84,1.92 4.567,1.92 0.96,0.004 1.947,-0.236 2.857,-0.76 0.91,-0.526 1.736,-1.326 2.414,-2.4 l 15.633,-24.79 -11.56,-4.8 -0.457,0.7 0.843,0.553"
       id="path74"
       inkscape:connector-curvature="0"
       style="fill:#000000" />
    <path
       d="m 210.382,310.07 c -3.686,-2.447 -4.026,-6.424 -2.25,-9.052 l 5.28,-7.81 c 1.69,-2.502 0.405,-0.65 2.005,-2.948 l 25.562,15.637 c 10.1,6.16 -1,23.816 -10.63,17.423 l -19.98,-13.25"
       id="path76"
       inkscape:connector-curvature="0"
       style="fill:#7f8180" />
    <path
       d="m 210.382,310.07 0.56,-0.84 c -2.04,-1.366 -2.832,-3.13 -2.84,-4.808 0,-1.02 0.308,-2.012 0.867,-2.837 l 5.27,-7.812 c 0.84,-1.25 0.96,-1.43 1.04,-1.56 0.07,-0.112 0.15,-0.226 0.95,-1.376 l -0.83,-0.577 -0.53,0.86 25.56,15.64 c 1.275,0.778 2.134,1.724 2.695,2.78 0.56,1.053 0.82,2.228 0.82,3.46 0.005,2.507 -1.108,5.24 -2.858,7.292 -0.875,1.026 -1.898,1.883 -2.99,2.473 -1.098,0.59 -2.257,0.918 -3.43,0.918 -1.23,-0.002 -2.49,-0.35 -3.78,-1.204 l -19.97,-13.25 -0.56,0.84 h 1.01 v -0.55 l -0.45,-0.3 -0.56,0.84 h -1.01 v 0.54 l 20.424,13.55 c 1.59,1.06 3.27,1.54 4.893,1.54 1.55,0 3.042,-0.43 4.386,-1.16 2.014,-1.09 3.72,-2.83 4.942,-4.86 1.22,-2.03 1.96,-4.37 1.96,-6.68 0.002,-1.52 -0.32,-3.03 -1.05,-4.41 -0.734,-1.38 -1.87,-2.61 -3.43,-3.56 l -26.35,-16.12 -0.544,0.78 c -0.8,1.15 -0.877,1.26 -0.985,1.42 -0.09,0.14 -0.18,0.284 -1.03,1.54 l -5.28,7.81 c -0.78,1.16 -1.21,2.54 -1.21,3.97 -0.01,2.35 1.2,4.81 3.74,6.49 l 0.56,-0.84 h -1.01 1.01"
       id="path78"
       inkscape:connector-curvature="0"
       style="fill:#000000" />
    <path
       d="m 213.555,294.895 -1.47,2.078 -3.116,4.612 c -0.56,0.825 -0.87,1.817 -0.87,2.837 0.01,1.677 0.8,3.442 2.84,4.807 l 0.45,0.29 19.52,12.95 c 1.29,0.85 2.55,1.2 3.78,1.2 1.17,0 2.33,-0.33 3.42,-0.92 1.09,-0.59 2.11,-1.45 2.99,-2.48 l 0.03,-0.04 c 0.48,-0.96 0.75,-2.03 0.74,-3.12 0,-1.14 -0.287,-2.303 -0.933,-3.41 -0.647,-1.105 -1.658,-2.166 -3.15,-3.077 l -19.88,-12.176 c -0.85,-0.525 -1.716,-1.04 -2.494,-1.62 -0.734,-0.558 -1.406,-1.17 -1.88,-1.958"
       id="path80"
       inkscape:connector-curvature="0"
       style="fill:#7f8180" />
    <path
       d="m 241.144,320.25 -0.035,0.042 c -0.88,1.026 -1.9,1.883 -2.99,2.473 -1.1,0.59 -2.26,0.918 -3.43,0.918 -1.23,-0.002 -2.49,-0.35 -3.78,-1.204 1.6,1.06 3.1,1.48 4.45,1.48 1.85,0 3.46,-0.8 4.64,-2.07 0.45,-0.49 0.83,-1.04 1.13,-1.65 m -29.06,-23.28 -0.02,0.02 -3.1,4.582 c -0.56,0.826 -0.87,1.82 -0.87,2.84 0,-1.02 0.31,-2.01 0.87,-2.838 l 3.112,-4.61"
       id="path82"
       inkscape:connector-curvature="0"
       style="fill:#7b7d7c" />
    <path
       d="m 215.417,288.767 -0.15,0.215 0.12,0.075 0.03,-0.29"
       id="path84"
       inkscape:connector-curvature="0"
       style="fill:#000000" />
    <path
       d="m 208.082,299.29 -0.786,1.163 c -0.784,1.16 -1.213,2.542 -1.213,3.97 v 0.027 -0.028 c 0,-1.427 0.43,-2.81 1.213,-3.97 l 0.783,-1.158 v -0.005 m 2.32,-3.44 h -0.01 l -0.27,0.4 0.27,-0.41"
       id="path86"
       inkscape:connector-curvature="0"
       style="fill:#070300" />
    <path
       d="m 210.424,295.824 -0.02,0.027 -2.322,3.44 -0.003,0.01 2.34,-3.47"
       id="path88"
       inkscape:connector-curvature="0"
       style="fill:#000000" />
    <path
       d="m 242.838,321.37 c -1.056,1.3 -2.33,2.4 -3.76,3.172 -1.343,0.727 -2.834,1.162 -4.386,1.16 h -0.012 c -1.607,0 -3.27,-0.477 -4.843,-1.513 1.868,1.23 3.758,1.79 5.523,1.79 h 0.01 c 2.45,0 4.606,-1.08 6.117,-2.72 0.53,-0.57 0.983,-1.21 1.35,-1.9"
       id="path90"
       inkscape:connector-curvature="0"
       style="fill:#070300" />
    <path
       d="m 215.008,292.644 -0.76,1.13 -2.164,3.2 1.47,-2.08 c 0.472,0.787 1.144,1.4 1.88,1.955 0.778,0.58 1.643,1.09 2.492,1.62 l 19.88,12.17 c 1.494,0.91 2.505,1.97 3.152,3.08 0.646,1.1 0.932,2.26 0.933,3.4 0.01,1.09 -0.26,2.16 -0.74,3.12 1.23,-1.45 2.13,-3.23 2.56,-5.03 -0.19,-0.86 -0.52,-1.71 -0.99,-2.52 -0.826,-1.42 -2.1,-2.73 -3.84,-3.79 L 219,296.732 c -1.145,-0.7 -2.22,-1.35 -2.937,-2.004 -0.36,-0.33 -0.626,-0.648 -0.794,-0.955 -0.17,-0.303 -0.25,-0.593 -0.25,-0.94 l 0.01,-0.2"
       id="path92"
       inkscape:connector-curvature="0"
       style="fill:#040404" />
    <path
       d="m 215.266,288.982 -4.842,6.842 -3.128,4.63 c -0.784,1.16 -1.213,2.54 -1.213,3.968 v 0.028 c 0,2.197 1.062,4.49 3.29,6.146 v 0.016 l 20.424,13.55 c 0.013,0.01 0.027,0.018 0.04,0.027 1.572,1.03 3.236,1.51 4.843,1.51 h 0.012 c 1.552,0 3.043,-0.44 4.387,-1.16 1.43,-0.78 2.7,-1.88 3.75,-3.17 0.68,-1.29 1.07,-2.74 1.07,-4.24 0,-0.63 -0.07,-1.27 -0.22,-1.91 -0.427,1.8 -1.33,3.58 -2.557,5.02 -0.3,0.6 -0.684,1.15 -1.137,1.64 -1.18,1.262 -2.79,2.07 -4.64,2.07 -1.348,0 -2.85,-0.428 -4.45,-1.49 l -19.52,-12.95 v -0.004 l -0.455,-0.3 -0.56,0.842 h -1.01 1.01 l 0.56,-0.84 -0.56,0.84 h -1.01 1.01 l 0.56,-0.84 c -2.04,-1.37 -2.83,-3.13 -2.84,-4.81 0,-1.02 0.31,-2.01 0.868,-2.838 l 3.093,-4.587 0.017,-0.027 2.162,-3.2 c 0.38,-0.56 0.61,-0.905 0.76,-1.13 v -0.02 l 0.375,-3.56 -0.12,-0.08"
       id="path94"
       inkscape:connector-curvature="0"
       style="fill:#000000" />
    <path
       d="m 224.916,296.41 c -2.08,2.08 -10.25,-3.13 -8.953,-5.376 l 27.39,-41.24 c 9.94,-15.215 22.25,-22.468 36.595,-26.8 13.712,-4.142 27.464,-6 41.14,-8.615 5.91,-1.13 8.413,6.1 0.478,7.89 -14.89,3.37 -29.96,6.25 -44.01,11.24 -12.453,4.42 -21.24,13.25 -29.18,25.84 l -23.46,37.04"
       id="path96"
       inkscape:connector-curvature="0"
       style="fill:#7f8180" />
    <path
       d="m 224.916,296.41 -0.715,-0.715 c -0.04,0.043 -0.09,0.083 -0.21,0.12 -0.11,0.038 -0.27,0.065 -0.48,0.065 -0.5,0.003 -1.23,-0.164 -2,-0.476 -1.15,-0.463 -2.41,-1.236 -3.32,-2.03 -0.45,-0.397 -0.82,-0.798 -1.05,-1.137 -0.24,-0.34 -0.3,-0.605 -0.29,-0.67 v -0.025 l -0.87,-0.508 0.84,0.558 27.39,-41.24 0.008,-0.006 c 9.82,-15.006 21.84,-22.084 36.043,-26.386 13.61,-4.113 27.324,-5.968 41.038,-8.59 0.366,-0.068 0.71,-0.1 1.03,-0.1 1.07,0 1.89,0.348 2.436,0.83 0.545,0.49 0.82,1.105 0.823,1.735 -0.004,0.587 -0.23,1.22 -0.87,1.85 -0.64,0.627 -1.716,1.234 -3.357,1.605 -14.87,3.37 -29.978,6.256 -44.128,11.28 -6.358,2.257 -11.795,5.65 -16.627,10.065 -4.835,4.414 -9.07,9.844 -13.07,16.19 l -23.62,37.29 v 0.294 h 1.01 l -0.71,-0.72 0.713,0.71 h 1.01 -1.01 l 0.85,0.54 23.46,-37.04 c 3.94,-6.25 8.07,-11.53 12.724,-15.78 4.66,-4.26 9.845,-7.49 15.94,-9.66 13.95,-4.96 28.985,-7.84 43.897,-11.22 1.91,-0.434 3.34,-1.175 4.32,-2.13 0.98,-0.95 1.48,-2.14 1.48,-3.296 0,-1.243 -0.56,-2.415 -1.504,-3.247 -0.94,-0.836 -2.26,-1.34 -3.775,-1.34 -0.454,0 -0.925,0.045 -1.41,0.14 -13.64,2.61 -27.43,4.47 -41.24,8.64 -14.49,4.36 -27.09,11.79 -37.15,27.213 v -0.006 l -27.405,41.266 -0.015,0.026 c -0.19,0.32 -0.276,0.69 -0.274,1.04 0,0.46 0.132,0.87 0.32,1.25 0.33,0.664 0.836,1.26 1.45,1.834 0.92,0.852 2.09,1.64 3.296,2.232 1.214,0.59 2.45,1.003 3.62,1.01 0.38,0 0.753,-0.045 1.118,-0.165 0.364,-0.12 0.72,-0.32 1.01,-0.61 l 0.298,-0.3 v -0.418 h -1.01"
       id="path98"
       inkscape:connector-curvature="0"
       style="fill:#000000" />
    <path
       d="m 236.537,318.584 c -0.865,1.864 -3.33,2.595 -5.643,1.625 -2.413,-1.02 -3.754,-3.49 -2.995,-5.53 0.3,-0.82 0.89,-1.44 1.64,-1.83"
       id="path100"
       inkscape:connector-curvature="0"
       style="fill:#7f8180" />
    <path
       d="m 236.066,318.364 c -0.504,1.09 -1.682,1.75 -3.095,1.754 -0.6,0 -1.24,-0.123 -1.87,-0.39 -1.78,-0.743 -2.9,-2.374 -2.89,-3.854 0,-0.347 0.06,-0.686 0.18,-1.013 0.26,-0.68 0.75,-1.2 1.4,-1.54 l -0.47,-0.92 c -0.85,0.44 -1.54,1.17 -1.89,2.11 -0.167,0.45 -0.245,0.91 -0.245,1.38 0.01,1.99 1.4,3.92 3.525,4.818 0.753,0.317 1.53,0.47 2.275,0.47 1.73,0.003 3.33,-0.835 4.04,-2.355 l -0.94,-0.44"
       id="path102"
       inkscape:connector-curvature="0"
       style="fill:#000000" />
    <path
       d="m 238.177,316.803 c -0.76,2.04 -3.332,2.877 -5.746,1.866 -2.41,-1.02 -3.75,-3.49 -2.99,-5.53 0.76,-2.04 3.34,-2.88 5.75,-1.87 2.41,1.01 3.76,3.48 3,5.53"
       id="path104"
       inkscape:connector-curvature="0"
       style="fill:#7f8180" />
    <path
       d="m 238.177,316.803 -0.487,-0.182 c -0.23,0.62 -0.644,1.1 -1.196,1.43 -0.55,0.34 -1.24,0.53 -1.985,0.53 -0.61,0 -1.25,-0.12 -1.88,-0.39 -1.79,-0.74 -2.9,-2.37 -2.89,-3.85 0,-0.35 0.06,-0.68 0.18,-1.01 0.23,-0.61 0.64,-1.09 1.19,-1.43 0.55,-0.33 1.24,-0.52 1.98,-0.52 0.6,0 1.24,0.13 1.87,0.39 1.786,0.74 2.896,2.38 2.89,3.86 0,0.346 -0.06,0.686 -0.18,1.014 l 0.486,0.18 0.487,0.183 c 0.162,-0.45 0.242,-0.913 0.242,-1.377 -0.01,-1.99 -1.4,-3.92 -3.526,-4.815 -0.755,-0.316 -1.53,-0.47 -2.276,-0.47 -0.92,0 -1.8,0.235 -2.53,0.68 -0.73,0.447 -1.315,1.116 -1.627,1.956 -0.164,0.45 -0.243,0.91 -0.243,1.38 0.007,1.99 1.4,3.92 3.524,4.816 0.76,0.315 1.534,0.47 2.28,0.47 0.92,0 1.795,-0.235 2.526,-0.68 0.73,-0.448 1.318,-1.115 1.63,-1.956 l -0.486,-0.18"
       id="path106"
       inkscape:connector-curvature="0"
       style="fill:#000000" />
    <path
       d="m 229.16,313.117 c -0.807,2.156 -3.546,3.253 -6.112,2.188 -2.566,-1.068 -3.78,-3.616 -3.185,-5.84 0.323,-1.206 2.17,-3.17 2.313,-3.17"
       id="path108"
       inkscape:connector-curvature="0"
       style="fill:#7f8180" />
    <path
       d="m 228.672,312.934 c -0.5,1.353 -1.93,2.26 -3.594,2.262 -0.594,0 -1.217,-0.117 -1.832,-0.372 -1.95,-0.813 -3.012,-2.54 -3.013,-4.22 0,-0.338 0.044,-0.675 0.13,-1.003 0.11,-0.44 0.628,-1.23 1.128,-1.84 0.25,-0.31 0.5,-0.58 0.69,-0.77 0.09,-0.09 0.17,-0.17 0.22,-0.21 l 0.03,-0.02 h 0.01 l -0.14,-0.2 0.11,0.22 0.03,-0.02 -0.14,-0.2 0.11,0.22 -0.22,-0.42 v 0.47 c 0.16,-0.01 0.19,-0.042 0.22,-0.05 l -0.22,-0.42 v 0.47 -1.04 c -0.15,0.005 -0.2,0.04 -0.24,0.06 l -0.158,0.1 c -0.142,0.113 -0.312,0.283 -0.53,0.517 -0.323,0.348 -0.72,0.82 -1.074,1.325 -0.353,0.51 -0.666,1.03 -0.81,1.555 -0.11,0.42 -0.167,0.85 -0.167,1.274 0,2.118 1.338,4.216 3.655,5.18 0.74,0.307 1.5,0.45 2.23,0.45 2.03,0.003 3.88,-1.116 4.57,-2.936 l -0.977,-0.367"
       id="path110"
       inkscape:connector-curvature="0"
       style="fill:#000000" />
    <path
       d="m 230.484,311.486 c -0.81,2.155 -3.547,3.037 -6.112,1.97 -2.565,-1.07 -3.993,-3.684 -3.185,-5.84 0.807,-2.154 3.545,-3.035 6.112,-1.97 2.56,1.068 3.99,3.685 3.18,5.84"
       id="path112"
       inkscape:connector-curvature="0"
       style="fill:#7f8180" />
    <path
       d="m 230.484,311.486 -0.486,-0.183 c -0.247,0.653 -0.694,1.164 -1.286,1.525 -0.592,0.36 -1.33,0.56 -2.13,0.56 -0.648,0 -1.334,-0.13 -2.01,-0.412 -1.91,-0.79 -3.1,-2.524 -3.092,-4.097 0,-0.37 0.063,-0.74 0.194,-1.08 0.245,-0.66 0.692,-1.17 1.283,-1.53 0.592,-0.36 1.33,-0.56 2.132,-0.56 0.64,0 1.33,0.13 2.01,0.41 1.91,0.79 3.1,2.52 3.09,4.09 0,0.37 -0.07,0.73 -0.2,1.08 l 0.48,0.18 0.48,0.18 c 0.176,-0.47 0.26,-0.96 0.26,-1.446 -0.01,-2.084 -1.484,-4.116 -3.73,-5.055 -0.803,-0.334 -1.624,-0.494 -2.41,-0.494 -0.976,0 -1.9,0.243 -2.67,0.712 -0.774,0.464 -1.39,1.163 -1.72,2.05 -0.177,0.464 -0.26,0.954 -0.26,1.44 0.01,2.085 1.483,4.115 3.73,5.056 0.8,0.335 1.624,0.495 2.41,0.495 0.973,0 1.9,-0.245 2.67,-0.713 0.77,-0.468 1.39,-1.168 1.72,-2.05 l -0.487,-0.184"
       id="path114"
       inkscape:connector-curvature="0"
       style="fill:#000000" />
    <path
       d="m 225.67,305.343 0.394,8.447"
       id="path116"
       inkscape:connector-curvature="0"
       style="fill:#7f8180" />
    <path
       d="m 224.89,305.38 0.395,8.446 1.557,-0.073 -0.394,-8.446"
       id="path118"
       inkscape:connector-curvature="0"
       style="fill:#000000" />
    <path
       d="m 252.85,239.06 49.387,108.287 c 25.436,55.77 93.327,32.468 113.32,27.07 12.415,-3.35 13.732,-10.504 -2.2,-13.873 -19.988,-4.227 -35.867,-14.81 -43.468,-33.332 l -34.51,-84.092 c -1.01,-2.456 -10.03,0.875 -8.46,4.568 l 33.49,79.016 c 8.56,20.207 23.59,37.68 40.93,39.254 4.34,0.395 18,-1.256 -9.98,4.4 -33.03,6.674 -66.14,4.88 -79.67,-24.536 l -51.75,-112.516 c -0.978,-2.117 -8.65,2.364 -7.108,5.752"
       id="path120"
       inkscape:connector-curvature="0"
       style="fill:#7f8180" />
    <path
       d="m 252.85,239.06 -0.918,0.418 49.387,108.288 c 6.63,14.57 16.2,23.89 27.05,29.513 10.85,5.62 22.94,7.57 34.71,7.57 11.04,0 21.81,-1.72 31.03,-3.76 9.21,-2.04 16.89,-4.41 21.7,-5.71 3.13,-0.85 5.62,-1.93 7.38,-3.21 0.88,-0.64 1.59,-1.338 2.09,-2.1 0.504,-0.76 0.8,-1.61 0.8,-2.48 0,-0.9 -0.32,-1.79 -0.886,-2.578 -0.858,-1.19 -2.24,-2.208 -4.16,-3.12 -1.92,-0.91 -4.4,-1.706 -7.49,-2.36 -9.88,-2.09 -18.71,-5.743 -25.988,-11.13 -7.28,-5.39 -13.02,-12.502 -16.757,-21.6 l -34.5,-84.09 c -0.23,-0.574 -0.71,-0.98 -1.203,-1.184 -0.497,-0.213 -1.023,-0.28 -1.57,-0.284 -1.55,0.01 -3.346,0.58 -4.883,1.494 -0.766,0.46 -1.46,1.016 -2,1.68 -0.536,0.66 -0.926,1.47 -0.927,2.38 0,0.42 0.087,0.855 0.263,1.267 l 33.49,79.015 c 4.32,10.2 10.276,19.72 17.385,26.93 7.103,7.2 15.394,12.114 24.38,12.933 0.684,0.062 1.52,0.074 2.39,0.075 0.905,0 1.85,-0.02 2.646,-0.02 0.62,0 1.168,0.01 1.5,0.04 l 0.208,0.02 0.072,0.01 0.17,-0.582 -0.348,0.497 c 0.128,0.084 0.17,0.086 0.18,0.09 l 0.17,-0.584 -0.35,0.494 0.518,-0.73 -0.747,0.49 c 0.087,0.126 0.174,0.196 0.234,0.24 l 0.517,-0.73 -0.746,0.49 0.793,-0.52 h -0.944 c -0.007,0.192 0.064,0.39 0.15,0.52 l 0.79,-0.52 h -0.944 0.93 l -0.81,-0.464 c -0.06,0.1 -0.12,0.265 -0.12,0.465 h 0.93 l -0.81,-0.46 0.63,0.36 -0.415,-0.604 c -0.02,0.02 -0.093,0.05 -0.214,0.246 l 0.63,0.36 -0.413,-0.607 0.11,0.16 -0.1,-0.17 h -0.01 l 0.11,0.163 -0.1,-0.17 c 0,0.005 -0.12,0.06 -0.3,0.128 -0.67,0.25 -2.21,0.665 -4.84,1.265 -2.64,0.6 -6.38,1.396 -11.55,2.44 -9.71,1.963 -19.41,3.186 -28.588,3.186 -10.944,0 -21.126,-1.74 -29.703,-5.993 -8.58,-4.26 -15.58,-10.995 -20.26,-21.16 l -51.73,-112.5 c -0.18,-0.403 -0.52,-0.73 -0.888,-0.903 -0.367,-0.172 -0.744,-0.23 -1.108,-0.23 -0.743,0.006 -1.493,0.226 -2.263,0.56 -1.15,0.51 -2.33,1.305 -3.275,2.278 -0.475,0.49 -0.888,1.025 -1.197,1.61 -0.307,0.59 -0.51,1.23 -0.51,1.92 -0.004,0.46 0.092,0.93 0.293,1.37 l 0.077,0.17 0.13,0.13 0.713,-0.716 -0.918,0.42 0.92,-0.42 0.71,-0.71 -0.713,0.712 0.92,-0.42 c -0.08,-0.174 -0.115,-0.34 -0.116,-0.525 -0.003,-0.364 0.16,-0.842 0.51,-1.353 0.51,-0.764 1.413,-1.56 2.344,-2.114 0.463,-0.28 0.934,-0.508 1.353,-0.656 0.42,-0.15 0.79,-0.22 1.016,-0.216 0.147,0 0.222,0.03 0.222,0.03 l 0.05,-0.103 -0.08,0.08 0.03,0.026 0.05,-0.11 -0.08,0.08 0.114,-0.117 -0.15,0.07 0.033,0.043 0.112,-0.12 -0.15,0.068 51.76,112.52 c 4.85,10.56 12.24,17.697 21.2,22.128 8.95,4.435 19.44,6.2 30.59,6.2 9.35,0 19.18,-1.244 28.98,-3.225 6.62,-1.34 10.912,-2.264 13.572,-2.915 1.33,-0.326 2.25,-0.58 2.88,-0.792 0.312,-0.11 0.55,-0.204 0.78,-0.32 0.11,-0.065 0.22,-0.13 0.36,-0.254 0.062,-0.067 0.14,-0.15 0.22,-0.28 0.07,-0.13 0.14,-0.32 0.14,-0.54 0,-0.22 -0.08,-0.45 -0.18,-0.596 -0.2,-0.285 -0.386,-0.36 -0.514,-0.42 -0.23,-0.1 -0.387,-0.12 -0.566,-0.15 -0.513,-0.07 -1.18,-0.08 -1.98,-0.084 -0.82,0 -1.76,0.018 -2.644,0.018 -0.846,0 -1.646,-0.017 -2.21,-0.07 -8.35,-0.753 -16.24,-5.36 -23.127,-12.342 -6.88,-6.97 -12.73,-16.29 -16.97,-26.295 l -33.48,-79.01 c -0.077,-0.178 -0.104,-0.328 -0.105,-0.48 0,-0.313 0.14,-0.686 0.48,-1.11 0.5,-0.63 1.424,-1.27 2.44,-1.714 1.004,-0.45 2.11,-0.71 2.87,-0.706 0.354,0 0.63,0.057 0.765,0.12 0.142,0.07 0.13,0.085 0.14,0.1 l 34.5,84.094 c 3.867,9.43 9.865,16.863 17.42,22.453 7.56,5.59 16.666,9.344 26.773,11.48 3.97,0.84 6.805,1.92 8.566,3.04 0.883,0.56 1.49,1.124 1.86,1.638 0.37,0.52 0.505,0.97 0.506,1.403 0,0.42 -0.132,0.87 -0.462,1.37 -0.49,0.75 -1.444,1.586 -2.85,2.36 -1.403,0.78 -3.246,1.505 -5.476,2.106 -4.87,1.316 -12.485,3.66 -21.615,5.68 -9.13,2.02 -19.76,3.71 -30.596,3.71 -11.55,0 -23.32,-1.92 -33.78,-7.35 -10.47,-5.43 -19.67,-14.36 -26.15,-28.554 l -49.46,-108.46 -0.13,-0.13 -0.715,0.713"
       id="path122"
       inkscape:connector-curvature="0"
       style="fill:#000000" />
    <path
       d="m 227.803,274.68 21.527,21.536 c 11.657,11.66 28.596,19.107 61.95,15.313 39.133,-4.45 67.23,-9.85 90.894,-14.12 3.972,-0.72 4.856,-10.01 -2.87,-8.62 -29.828,5.38 -59.753,10.29 -89.935,13.4 -30.31,3.11 -44.88,-2.19 -53.82,-11.73 l -21.65,-23.09 c -1.84,-1.96 -8.89,4.5 -6.1,7.3"
       id="path124"
       inkscape:connector-curvature="0"
       style="fill:#7f8180" />
    <path
       d="m 227.803,274.68 -0.714,0.715 21.52,21.535 c 4.86,4.868 10.67,9.04 18.15,11.972 7.47,2.935 16.61,4.635 28.14,4.634 5.02,0 10.49,-0.32 16.48,-1.003 39.17,-4.454 67.3,-9.86 90.96,-14.127 1.25,-0.23 2.22,-1.06 2.84,-2.06 0.63,-1.01 0.964,-2.223 0.967,-3.448 0,-1.265 -0.368,-2.574 -1.27,-3.597 -0.9,-1.02 -2.328,-1.66 -4.1,-1.65 -0.525,0 -1.08,0.05 -1.67,0.16 -29.818,5.38 -59.718,10.28 -89.86,13.39 -5.86,0.6 -11.12,0.89 -15.857,0.89 -9.817,0 -17.363,-1.22 -23.31,-3.36 -5.95,-2.143 -10.31,-5.194 -13.814,-8.93 l -21.64,-23.1 c -0.223,-0.24 -0.5,-0.42 -0.79,-0.53 -0.29,-0.11 -0.59,-0.152 -0.877,-0.152 -0.8,0.006 -1.547,0.3 -2.285,0.713 -1.1,0.63 -2.18,1.586 -3.04,2.685 -0.84,1.1 -1.49,2.34 -1.5,3.68 -0.01,0.81 0.29,1.67 0.94,2.306 l 1.43,-1.43 c -0.26,-0.27 -0.34,-0.5 -0.35,-0.88 -0.008,-0.41 0.16,-0.97 0.49,-1.56 0.482,-0.887 1.32,-1.82 2.18,-2.48 0.43,-0.337 0.86,-0.605 1.24,-0.78 0.382,-0.177 0.71,-0.25 0.89,-0.246 l 0.156,0.023 0.037,0.022 21.644,23.09 c 3.7,3.95 8.374,7.21 14.604,9.45 6.23,2.24 14.01,3.483 23.99,3.484 4.816,0 10.145,-0.29 16.06,-0.9 30.226,-3.11 60.178,-8.024 90.014,-13.41 0.487,-0.09 0.923,-0.127 1.314,-0.127 1.33,0.01 2.088,0.42 2.59,0.977 0.507,0.567 0.768,1.38 0.767,2.26 0.003,0.846 -0.25,1.726 -0.657,2.374 -0.41,0.655 -0.94,1.046 -1.495,1.145 -23.67,4.27 -51.73,9.663 -90.828,14.11 -5.93,0.673 -11.33,0.99 -16.26,0.99 -11.338,0 -20.206,-1.67 -27.407,-4.496 -7.2,-2.826 -12.75,-6.81 -17.46,-11.517 L 228.5,273.96 l -0.714,0.71"
       id="path126"
       inkscape:connector-curvature="0"
       style="fill:#000000" />
    <path
       d="m 367.013,320.29 c 14.663,1.09 25.394,-0.74 38.75,-3.018 12.577,-2.145 12.744,10.146 5.02,11.725 -28.63,5.858 -56.382,11.888 -87.302,14.836 -10.08,0.96 -19.98,3.067 -29.89,1.434 l -90.47,-14.894 c 1.19,-0.872 3.54,-4.723 5.8,-8.375 l 82.05,14.177 c 10.63,1.836 21.39,0.343 32.53,-1.196 29.53,-4.09 57.64,-8.39 84.436,-14.84 -13.344,3.12 -25.89,6.25 -38.277,7.15 m -8.88,0.23 c -3.41,-0.09 -6.823,-0.38 -10.25,-0.93 l -26.7,-4.3 -0.253,-8.613 30.544,5.01 c 1.114,0.183 2.207,0.355 3.276,0.51"
       id="path128"
       inkscape:connector-curvature="0"
       style="fill:#7f8180" />
    <path
       d="m 366.938,321.297 c 3.02,0.226 5.878,0.327 8.627,0.327 10.707,0 19.745,-1.545 30.366,-3.357 0.96,-0.163 1.83,-0.236 2.61,-0.236 2.39,0.01 3.99,0.67 5,1.58 1.01,0.91 1.47,2.09 1.47,3.32 0,1.1 -0.38,2.23 -1.13,3.15 -0.74,0.92 -1.83,1.64 -3.29,1.94 -28.64,5.86 -56.35,11.88 -87.19,14.82 -7.48,0.72 -14.77,2.04 -21.96,2.04 -2.57,0 -5.13,-0.17 -7.68,-0.59 L 203.29,329.4 l -0.162,0.995 0.6,0.815 c 0.44,-0.335 0.83,-0.78 1.283,-1.358 1.33,-1.71 3.07,-4.56 4.774,-7.303 l -0.86,-0.53 -0.17,0.996 82.04,14.176 c 3.567,0.615 7.14,0.86 10.72,0.86 7.306,0 14.65,-1.025 22.12,-2.056 29.54,-4.085 57.685,-8.394 84.536,-14.855 l -0.466,-1.964 c -13.355,3.126 -25.86,6.24 -38.12,7.13 l 0.144,2.02 c 12.506,-0.913 25.1,-4.063 38.432,-7.18 l -0.467,-1.964 c -26.735,6.435 -54.815,10.737 -84.335,14.817 -7.475,1.03 -14.73,2.033 -21.843,2.032 -3.49,0 -6.943,-0.24 -10.38,-0.835 l -82.712,-14.29 -0.358,0.58 c -1.14,1.827 -2.29,3.7 -3.29,5.202 -0.5,0.75 -0.97,1.41 -1.36,1.92 -0.39,0.505 -0.74,0.866 -0.89,0.97 l -1.94,1.42 92.843,15.28 c 2.68,0.44 5.35,0.615 8.01,0.615 7.428,-0.004 14.783,-1.343 22.15,-2.04 30.993,-2.957 58.786,-8.998 87.41,-14.853 1.9,-0.385 3.428,-1.37 4.456,-2.65 1.03,-1.28 1.578,-2.843 1.58,-4.413 0,-1.75 -0.694,-3.52 -2.14,-4.82 -1.44,-1.3 -3.58,-2.1 -6.345,-2.096 -0.91,0 -1.89,0.088 -2.95,0.268 -10.63,1.815 -19.52,3.33 -30.025,3.33 -2.7,0 -5.5,-0.1 -8.47,-0.32 l -0.154,2.016 z m -6.155,5.224 c -3.372,-0.08 -6.738,-0.37 -10.113,-0.91 l -25.88,-4.16 -0.192,-6.55 29.335,4.81 c 1.118,0.19 2.217,0.36 3.294,0.51 l 0.29,-2 c -1.063,-0.15 -2.148,-0.32 -3.257,-0.5 l -31.753,-5.2 0.315,10.67 27.526,4.428 c 3.474,0.56 6.93,0.857 10.386,0.94 l 0.05,-2.02 z"
       id="path130"
       inkscape:connector-curvature="0"
       style="fill:#000000" />
    <path
       d="m 396.143,384.206 c 1.63,1.588 8.036,0.91 8.12,-2.072 1.04,-36.5 -7.41,-64.45 -19.33,-88.683 -1.16,-2.35 -7.27,-1.42 -7.97,1.1 -0.697,2.53 -0.03,0.55 3.225,8.68 3.26,8.13 5.932,16.2 8.09,24.06 2.155,7.86 -0.907,-4.75 2.243,8.89 3.15,13.64 4.76,26.56 5.18,37.55"
       id="path132"
       inkscape:connector-curvature="0"
       style="fill:#7f8180" />
    <path
       d="m 395.438,384.93 c 0.473,0.453 1.052,0.705 1.675,0.876 0.625,0.167 1.307,0.243 2.013,0.243 1.312,-0.01 2.7,-0.26 3.874,-0.83 0.586,-0.29 1.124,-0.67 1.547,-1.17 0.42,-0.51 0.708,-1.17 0.726,-1.89 0.058,-2.05 0.087,-4.07 0.087,-6.06 0.004,-33.74 -8.214,-60.12 -19.52,-83.1 -0.372,-0.75 -1.033,-1.24 -1.732,-1.52 -0.707,-0.29 -1.484,-0.4 -2.278,-0.4 -1.19,0 -2.42,0.26 -3.483,0.75 -0.532,0.25 -1.023,0.56 -1.438,0.96 -0.42,0.39 -0.76,0.89 -0.92,1.48 -0.16,0.59 -0.28,0.98 -0.29,1.48 -0.01,0.42 0.13,0.83 0.3,1.14 0.25,0.48 0.57,0.95 1.09,1.94 0.52,0.97 1.22,2.44 2.15,4.76 3.24,8.09 5.9,16.12 8.05,23.95 0.3,1.12 0.51,1.83 0.64,2.27 0.07,0.22 0.11,0.37 0.16,0.49 l 0.07,0.18 0.092,0.17 c 0.033,0.04 0.07,0.1 0.17,0.19 0.05,0.04 0.116,0.093 0.22,0.15 0.105,0.05 0.26,0.1 0.45,0.1 0.173,0 0.37,-0.053 0.513,-0.14 0.26,-0.16 0.355,-0.345 0.407,-0.453 0.077,-0.17 0.08,-0.25 0.09,-0.31 l 0.01,-0.125 c 0,-0.1 -0.01,-0.143 -0.015,-0.19 -0.02,-0.157 -0.05,-0.308 -0.08,-0.45 l -0.04,-0.184 -0.02,-0.07 -0.01,-0.05 -0.02,-0.067 -0.05,-0.114 -0.11,-0.177 c -0.04,-0.048 -0.09,-0.11 -0.2,-0.19 -0.106,-0.075 -0.296,-0.19 -0.59,-0.193 -0.27,0 -0.53,0.11 -0.717,0.3 -0.19,0.19 -0.297,0.45 -0.297,0.716 0,0.268 0.11,0.528 0.292,0.716 0.19,0.19 0.45,0.3 0.714,0.3 v -1.01 l -0.446,0.906 c 0.155,0.075 0.32,0.102 0.445,0.1 v -1.01 l -0.44,0.906 0.444,-0.91 -0.8,0.618 c 0.082,0.108 0.207,0.22 0.355,0.29 l 0.443,-0.906 -0.8,0.618 0.8,-0.616 -0.995,0.17 c 0.014,0.09 0.04,0.24 0.19,0.44 l 0.8,-0.615 -0.994,0.17 0.998,-0.17 -1.01,-0.06 c 0,0.03 -0.01,0.07 0.015,0.23 l 0.994,-0.17 -1.01,-0.06 1.01,0.06 -1.003,-0.09 v 0.03 l 1.006,0.06 -1.005,-0.085 -0.002,0.09 0.008,0.123 0.016,0.095 c 0.025,0.144 0.11,0.548 0.343,1.576 0.23,1.025 0.6,2.654 1.185,5.19 3.137,13.572 4.738,26.434 5.147,37.36 0.02,0.56 0.49,0.992 1.05,0.972 0.556,-0.02 0.99,-0.49 0.97,-1.05 -0.416,-11.063 -2.033,-24.04 -5.197,-37.74 -0.63,-2.745 -1.013,-4.425 -1.24,-5.42 -0.11,-0.497 -0.18,-0.824 -0.222,-1.025 -0.022,-0.1 -0.037,-0.17 -0.044,-0.21 l -0.006,-0.038 -0.46,0.08 0.46,-0.07 v -0.01 l -0.46,0.08 0.463,-0.07 -0.88,0.14 0.886,-0.11 -0.006,-0.03 -0.88,0.14 0.89,-0.11 -0.984,0.12 h 0.98 l -0.003,-0.124 -0.986,0.125 h 1 -1 l 1.004,0.07 v -0.07 h -1.01 l 1,0.07 -0.992,-0.07 0.99,0.09 v -0.02 l -0.998,-0.07 0.99,0.09 c 0,-0.007 0.006,-0.014 0,-0.157 -0.012,-0.074 -0.003,-0.2 -0.137,-0.446 -0.07,-0.12 -0.197,-0.268 -0.37,-0.365 -0.17,-0.1 -0.365,-0.133 -0.505,-0.13 -0.264,0 -0.524,0.11 -0.712,0.3 -0.187,0.19 -0.295,0.45 -0.295,0.712 0,0.27 0.11,0.53 0.296,0.717 0.19,0.186 0.45,0.295 0.714,0.295 v -1.01 l -0.634,0.785 c 0.1,0.075 0.294,0.215 0.637,0.223 v -1.01 l -0.635,0.78 0.635,-0.784 -0.88,0.49 c 0.035,0.052 0.05,0.12 0.245,0.292 l 0.632,-0.783 -0.88,0.49 0.873,-0.49 -0.943,0.343 c 0.01,0.027 0.017,0.05 0.07,0.147 l 0.876,-0.49 -0.944,0.348 0.835,-0.306 -0.86,0.228 0.025,0.08 0.834,-0.306 -0.86,0.226 c 0.01,0.034 0.04,0.17 0.06,0.282 l 0.03,0.15 v 0.03 l 0.585,-0.07 h -0.59 l 0.006,0.07 0.584,-0.07 h -0.59 0.946 l -0.92,-0.22 c -0.03,0.14 -0.022,0.183 -0.025,0.218 h 0.947 l -0.92,-0.217 0.97,0.23 -0.804,-0.586 c -0.12,0.177 -0.142,0.283 -0.162,0.356 l 0.97,0.23 -0.802,-0.587 0.813,0.59 -0.51,-0.867 c -0.144,0.08 -0.24,0.19 -0.302,0.27 l 0.813,0.59 -0.51,-0.864 0.51,0.87 v -1.006 c -0.17,-0.004 -0.366,0.05 -0.51,0.14 l 0.51,0.867 v -1.004 1.005 l 0.446,-0.903 c -0.103,-0.05 -0.253,-0.1 -0.445,-0.1 v 1.005 l 0.445,-0.903 -0.44,0.89 0.76,-0.646 c -0.05,-0.055 -0.115,-0.144 -0.32,-0.25 l -0.44,0.895 0.76,-0.645 -0.7,0.596 0.82,-0.42 c -0.02,-0.03 -0.03,-0.07 -0.12,-0.18 l -0.702,0.597 0.82,-0.42 -0.513,0.26 0.53,-0.225 -0.02,-0.04 -0.516,0.264 0.532,-0.23 -0.003,-0.006 c -0.022,-0.06 -0.1,-0.3 -0.224,-0.718 -0.13,-0.428 -0.3,-1.045 -0.54,-1.918 -2.167,-7.894 -4.85,-16.003 -8.127,-24.167 -1.262,-3.16 -2.16,-4.85 -2.736,-5.85 -0.29,-0.5 -0.49,-0.83 -0.585,-1.015 -0.097,-0.2 -0.077,-0.177 -0.08,-0.23 -0.01,-0.064 0.046,-0.362 0.21,-0.94 0.044,-0.166 0.156,-0.36 0.37,-0.563 0.317,-0.31 0.86,-0.617 1.497,-0.825 0.635,-0.21 1.36,-0.33 2.025,-0.328 0.594,-0.003 1.135,0.092 1.516,0.25 0.39,0.16 0.59,0.35 0.68,0.54 11.207,22.785 19.31,48.797 19.315,82.21 0,1.972 -0.025,3.973 -0.083,6 -0.01,0.246 -0.082,0.432 -0.263,0.656 -0.263,0.33 -0.82,0.68 -1.533,0.91 -0.706,0.232 -1.55,0.36 -2.33,0.356 -0.553,0 -1.08,-0.066 -1.486,-0.176 -0.41,-0.11 -0.696,-0.27 -0.79,-0.373 -0.4,-0.39 -1.04,-0.38 -1.43,0.016 -0.39,0.4 -0.38,1.04 0.02,1.43"
       id="path134"
       inkscape:connector-curvature="0"
       style="fill:#000000" />
    <path
       d="m 331.646,219.337 h 9.376 l 0.032,0.03 v 2.91 l -0.032,0.032 h -9.376 l -0.028,-0.04 v -2.91 l 0.028,-0.03"
       id="path136"
       inkscape:connector-curvature="0"
       style="fill:#000000" />
    <path
       d="m 326.186,192.867 c -0.183,0.002 -0.357,0.035 -0.53,0.09 -1.417,0.442 -1.902,2.52 -1.067,4.618 0.83,2.1 2.66,3.433 4.08,2.99 1.41,-0.442 1.9,-2.52 1.06,-4.618 l -0.06,-0.09 c -0.75,-1.794 -2.21,-3.008 -3.5,-2.99 z m -0.236,0.652 c 0.92,-0.02 1.95,0.9 2.486,2.3 l 0.03,0.09 c 0.597,1.64 0.272,3.26 -0.74,3.61 -1.012,0.34 -2.335,-0.73 -2.93,-2.37 -0.598,-1.64 -0.242,-3.24 0.77,-3.59 0.125,-0.04 0.254,-0.06 0.384,-0.06 z"
       id="path138"
       inkscape:connector-curvature="0"
       style="fill:#000000" />
    <path
       d="m 329.294,200.27 c -0.183,0.002 -0.358,0.034 -0.532,0.088 -1.415,0.442 -1.9,2.52 -1.066,4.62 0.833,2.1 2.67,3.434 4.085,2.99 1.42,-0.442 1.9,-2.52 1.07,-4.62 l -0.06,-0.087 c -0.75,-1.79 -2.21,-3 -3.49,-2.99 z m -0.237,0.8 c 0.92,-0.014 1.98,0.905 2.517,2.31 l 0.03,0.087 c 0.595,1.643 0.242,3.267 -0.77,3.613 -1.013,0.346 -2.305,-0.726 -2.9,-2.37 -0.596,-1.64 -0.273,-3.236 0.74,-3.582 0.124,-0.043 0.254,-0.057 0.384,-0.06 z"
       id="path140"
       inkscape:connector-curvature="0"
       style="fill:#000000" />
    <path
       d="m 339.41,191.677 8.97,21.536 1.865,-0.777 -8.97,-21.536"
       id="path142"
       inkscape:connector-curvature="0"
       style="fill:#000000" />
    <path
       d="m 173.852,356.436 c 0.353,2.195 -1.062,3.974 -3.157,3.974 -2.096,0 -4.08,-1.78 -4.43,-3.974 -0.354,-2.195 1.062,-3.974 3.156,-3.974 2.1,0 4.08,1.78 4.44,3.974"
       id="path144"
       inkscape:connector-curvature="0"
       style="fill:#ffffff" />
    <path
       d="m 173.852,356.436 -0.997,0.16 c 0.027,0.175 0.04,0.344 0.04,0.505 0,0.71 -0.242,1.27 -0.62,1.66 -0.38,0.4 -0.897,0.64 -1.58,0.64 -0.758,0.01 -1.554,-0.33 -2.195,-0.9 -0.64,-0.57 -1.105,-1.37 -1.238,-2.21 -0.03,-0.17 -0.042,-0.34 -0.042,-0.5 0.002,-0.7 0.243,-1.263 0.62,-1.66 0.382,-0.39 0.9,-0.635 1.58,-0.64 0.76,0 1.557,0.33 2.198,0.908 0.64,0.574 1.104,1.37 1.237,2.218 l 0.997,-0.16 0.996,-0.16 c -0.217,-1.35 -0.92,-2.536 -1.882,-3.4 -0.962,-0.86 -2.206,-1.42 -3.545,-1.42 -1.19,-0.004 -2.28,0.47 -3.03,1.26 -0.76,0.79 -1.18,1.88 -1.18,3.06 0,0.27 0.02,0.547 0.07,0.825 0.22,1.35 0.92,2.537 1.89,3.4 0.965,0.864 2.21,1.42 3.546,1.425 1.197,0.003 2.286,-0.47 3.04,-1.26 0.758,-0.79 1.183,-1.88 1.18,-3.06 0,-0.27 -0.02,-0.547 -0.066,-0.825 l -0.996,0.16"
       id="path146"
       inkscape:connector-curvature="0"
       style="fill:#000000" />
    <path
       d="m 172.044,358.714 c 0.353,2.196 -1.062,3.974 -3.156,3.974 -2.097,0 -4.08,-1.778 -4.43,-3.974 -0.355,-2.192 1.06,-3.972 3.156,-3.972 2.096,0 4.08,1.78 4.43,3.972"
       id="path148"
       inkscape:connector-curvature="0"
       style="fill:#ffffff" />
    <path
       d="m 172.044,358.714 -0.996,0.16 c 0.027,0.174 0.04,0.343 0.04,0.504 -0.002,0.7 -0.243,1.265 -0.62,1.66 -0.38,0.394 -0.898,0.636 -1.58,0.64 -0.76,0.003 -1.555,-0.33 -2.197,-0.906 -0.64,-0.573 -1.1,-1.37 -1.23,-2.217 -0.03,-0.176 -0.04,-0.345 -0.04,-0.506 0,-0.7 0.24,-1.27 0.62,-1.66 0.38,-0.39 0.9,-0.64 1.58,-0.64 0.76,-0.01 1.56,0.33 2.2,0.9 0.64,0.57 1.11,1.37 1.24,2.21 l 1,-0.16 1,-0.16 c -0.215,-1.35 -0.92,-2.54 -1.88,-3.4 -0.96,-0.86 -2.206,-1.42 -3.543,-1.42 -1.194,-0.01 -2.283,0.47 -3.04,1.26 -0.755,0.79 -1.18,1.88 -1.18,3.05 0,0.27 0.02,0.547 0.07,0.826 0.217,1.35 0.92,2.536 1.882,3.4 0.96,0.863 2.205,1.42 3.543,1.423 1.194,0.002 2.28,-0.47 3.04,-1.264 0.754,-0.79 1.18,-1.88 1.18,-3.057 0,-0.27 -0.024,-0.548 -0.07,-0.826 l -0.995,0.16"
       id="path150"
       inkscape:connector-curvature="0"
       style="fill:#000000" />
    <path
       d="m 238.09,344.37 c 0,3.735 -3.027,6.76 -6.757,6.76 -3.732,0 -6.757,-3.025 -6.757,-6.76 0,-3.734 3.025,-6.76 6.757,-6.76 3.73,0 6.757,3.026 6.757,6.76"
       id="path152"
       inkscape:connector-curvature="0"
       style="fill:#ffffff" />
    <path
       d="m 238.09,344.37 h -1.01 c 0,1.593 -0.64,3.023 -1.684,4.066 -1.043,1.042 -2.473,1.683 -4.063,1.683 -1.59,0 -3.02,-0.65 -4.064,-1.69 -1.05,-1.05 -1.69,-2.48 -1.69,-4.07 0,-1.59 0.64,-3.02 1.68,-4.07 1.04,-1.04 2.47,-1.69 4.06,-1.69 1.59,0 3.02,0.642 4.06,1.684 1.04,1.044 1.68,2.474 1.68,4.066 h 2.02 c 0,-4.29 -3.48,-7.77 -7.768,-7.77 -4.29,0 -7.764,3.48 -7.765,7.77 0,4.298 3.475,7.77 7.765,7.77 4.29,0 7.767,-3.472 7.768,-7.77 h -1.01"
       id="path154"
       inkscape:connector-curvature="0"
       style="fill:#000000" />
    <path
       d="m 236.86,345.688 h -1.01 c 0,1.25 -0.504,2.374 -1.322,3.195 -0.82,0.82 -1.946,1.324 -3.196,1.324 -1.25,0 -2.373,-0.504 -3.195,-1.324 -0.82,-0.82 -1.323,-1.944 -1.323,-3.195 0,-1.252 0.504,-2.375 1.323,-3.197 0.822,-0.81 1.945,-1.32 3.195,-1.32 1.25,0 2.375,0.51 3.196,1.33 0.818,0.83 1.323,1.95 1.323,3.2 h 2.02 c 0,-3.61 -2.92,-6.54 -6.53,-6.54 -3.61,0 -6.53,2.93 -6.53,6.54 0,3.61 2.93,6.54 6.54,6.54 3.61,0 6.54,-2.92 6.54,-6.54 h -1.01"
       id="path156"
       inkscape:connector-curvature="0"
       style="fill:#000000" />
    <path
       d="m 235.538,347.01 h -1.01 c -0.004,1.764 -1.432,3.194 -3.195,3.197 -1.765,-0.003 -3.194,-1.433 -3.196,-3.197 0.002,-1.766 1.43,-3.194 3.196,-3.197 1.763,0.003 3.19,1.43 3.195,3.197 h 2.02 c -0.002,-2.882 -2.335,-5.216 -5.215,-5.217 -2.88,0 -5.215,2.335 -5.216,5.217 0,2.882 2.335,5.217 5.216,5.218 2.88,0 5.213,-2.337 5.214,-5.218 h -1.01"
       id="path158"
       inkscape:connector-curvature="0"
       style="fill:#000000" />
    <path
       d="m 324.222,186.815 c -1.484,0.39 -2.613,1.01 -3.37,1.903 -0.76,0.892 -1.064,2.01 -1.058,3.123 0.01,1.89 0.75,3.9 1.638,6.07 l 0.008,0.02 7.702,16.85 c 1.002,2.19 1.557,4.05 1.553,5.59 -0.003,1.01 -0.22,1.87 -0.705,2.71 -0.486,0.84 -1.265,1.66 -2.445,2.47 l 1.138,1.67 c 1.363,-0.93 2.38,-1.96 3.053,-3.11 0.673,-1.15 0.98,-2.42 0.978,-3.727 -0.005,-2.012 -0.682,-4.112 -1.736,-6.424 l -7.695,-16.837 -0.92,0.42 0.934,-0.387 c -0.875,-2.1 -1.495,-3.973 -1.484,-5.295 0.006,-0.79 0.183,-1.34 0.58,-1.82 0.4,-0.474 1.11,-0.93 2.343,-1.253 l -0.514,-1.952"
       id="path160"
       inkscape:connector-curvature="0"
       style="fill:#000000" />
    <path
       d="m 369.89,327.212 -6.368,-15.52 m -8.634,1.962 5.53,13.05 c 0.357,0.84 0.722,1.672 1.1,2.5"
       id="path162"
       inkscape:connector-curvature="0"
       style="fill:#ff00ff" />
    <path
       d="m 370.824,326.828 -6.368,-15.52 -1.868,0.766 6.37,15.522 z m -16.865,-12.78 5.53,13.05 c 0.35,0.847 0.72,1.69 1.11,2.526 l 1.83,-0.84 c -0.38,-0.818 -0.74,-1.644 -1.09,-2.473 l -5.53,-13.05 -1.86,0.79 z"
       id="path164"
       inkscape:connector-curvature="0"
       style="fill:#000000" />
    <path
       d="m 387.48,328.04 2.446,-0.51 1.254,8.12 -1.685,0.305 -2.016,-7.915"
       id="path166"
       inkscape:connector-curvature="0"
       style="fill:#7f8180" />
    <path
       d="m 376.093,295.064 2.002,-0.316 2.732,8.046 -1.545,0.252 -3.484,-7.395 0.295,-0.58"
       id="path168"
       inkscape:connector-curvature="0"
       style="fill:#7f8180" />
    <path
       d="m 235.104,346.067 c 0,1.842 -1.71,3.336 -3.815,3.336 -2.105,0 -3.82,-1.494 -3.82,-3.336 0,-1.843 1.7,-3.338 3.81,-3.338 2.11,0 3.81,1.49 3.81,3.33"
       id="path170"
       inkscape:connector-curvature="0"
       style="fill:#000000" />
    <path
       d="m 166.013,355.477 c -1.67,2.61 4.566,6.012 5.66,4.53 0.318,-2.876 -1.904,-6.003 -5.66,-4.53"
       id="path172"
       inkscape:connector-curvature="0"
       style="fill:#000000" />
    <path
       d="m 207.143,325.012 v 5.922 l -3.765,-0.592 3.765,-5.33"
       id="path174"
       inkscape:connector-curvature="0"
       style="fill:#000000" />
    <path
       d="m 292.026,312.487 c -2.193,1.016 -3.642,2.554 -3.587,5.144 l -2.28,-5.5 5.86,0.36"
       id="path176"
       inkscape:connector-curvature="0"
       style="fill:#000000" />
    <path
       d="m 308.218,345.76 c -2.195,1.016 -4.108,3.02 -4.053,5.61 l -2.274,-5.503 6.33,-0.107"
       id="path178"
       inkscape:connector-curvature="0"
       style="fill:#000000" />
  </g>
</svg>
