<?xml version="1.0" encoding="UTF-8" standalone="no"?>
<svg
   xmlns:dc="http://purl.org/dc/elements/1.1/"
   xmlns:cc="http://creativecommons.org/ns#"
   xmlns:rdf="http://www.w3.org/1999/02/22-rdf-syntax-ns#"
   xmlns:svg="http://www.w3.org/2000/svg"
   xmlns="http://www.w3.org/2000/svg"
   xmlns:sodipodi="http://sodipodi.sourceforge.net/DTD/sodipodi-0.dtd"
   xmlns:inkscape="http://www.inkscape.org/namespaces/inkscape"
   width="512"
   height="512"
   viewBox="0 0 512 512"
   version="1.1"
   id="svg12"
   sodipodi:docname="dallas-cowboys.svg"
   inkscape:version="0.92.5 (2060ec1f9f, 2020-04-08)">
  <metadata
     id="metadata18">
    <rdf:RDF>
      <cc:Work
         rdf:about="">
        <dc:format>image/svg+xml</dc:format>
        <dc:type
           rdf:resource="http://purl.org/dc/dcmitype/StillImage" />
      </cc:Work>
    </rdf:RDF>
  </metadata>
  <defs
     id="defs16" />
  <sodipodi:namedview
     pagecolor="#ffffff"
     bordercolor="#666666"
     borderopacity="1"
     objecttolerance="10"
     gridtolerance="10"
     guidetolerance="10"
     inkscape:pageopacity="0"
     inkscape:pageshadow="2"
     inkscape:window-width="640"
     inkscape:window-height="480"
     id="namedview14"
     showgrid="false"
     inkscape:zoom="0.4609375"
     inkscape:cx="256"
     inkscape:cy="256"
     inkscape:window-x="0"
     inkscape:window-y="0"
     inkscape:window-maximized="0"
     inkscape:current-layer="svg12" />
  <title
     id="title2">dallas-cowboys</title>
  <g
     id="g10"
     transform="translate(-18,-10)"
     style="fill:none;fill-rule:evenodd">
    <path
       d="M 326.337,297.564 439.532,215.35 H 299.617 L 256.337,82.392 213.057,215.35 h -140 l 113.278,82.214 -43.28,133.044 113.28,-82.214 113.28,82.214 -43.278,-133.044"
       id="path4"
       inkscape:connector-curvature="0"
       style="fill:#002244" />
    <path
       d="m 314.642,293.813 94.33,-68.484 H 292.362 L 256.336,114.539 220.31,225.329 H 103.7 l 94.33,68.48 -36.024,110.78 94.33,-68.49 94.33,68.48 -36.024,-110.78"
       id="path6"
       inkscape:connector-curvature="0"
       style="fill:#ffffff" />
    <path
       d="m 305.592,290.913 79.646,-57.822 h -98.512 l -30.39,-93.55 -30.39,93.56 h -98.512 l 79.647,57.83 -30.39,93.47 79.65,-57.732 79.65,57.737 -30.39,-93.47"
       id="path8"
       inkscape:connector-curvature="0"
       style="fill:#002244" />
  </g>
</svg>
