<?xml version="1.0" encoding="UTF-8" standalone="no"?>
<svg
   xmlns:dc="http://purl.org/dc/elements/1.1/"
   xmlns:cc="http://creativecommons.org/ns#"
   xmlns:rdf="http://www.w3.org/1999/02/22-rdf-syntax-ns#"
   xmlns:svg="http://www.w3.org/2000/svg"
   xmlns="http://www.w3.org/2000/svg"
   xmlns:sodipodi="http://sodipodi.sourceforge.net/DTD/sodipodi-0.dtd"
   xmlns:inkscape="http://www.inkscape.org/namespaces/inkscape"
   width="512"
   height="512"
   viewBox="0 0 512 512"
   version="1.1"
   id="svg18"
   sodipodi:docname="denver-broncos.svg"
   inkscape:version="0.92.5 (2060ec1f9f, 2020-04-08)">
  <metadata
     id="metadata24">
    <rdf:RDF>
      <cc:Work
         rdf:about="">
        <dc:format>image/svg+xml</dc:format>
        <dc:type
           rdf:resource="http://purl.org/dc/dcmitype/StillImage" />
      </cc:Work>
    </rdf:RDF>
  </metadata>
  <defs
     id="defs22" />
  <sodipodi:namedview
     pagecolor="#ffffff"
     bordercolor="#666666"
     borderopacity="1"
     objecttolerance="10"
     gridtolerance="10"
     guidetolerance="10"
     inkscape:pageopacity="0"
     inkscape:pageshadow="2"
     inkscape:window-width="640"
     inkscape:window-height="480"
     id="namedview20"
     showgrid="false"
     inkscape:zoom="0.4609375"
     inkscape:cx="256"
     inkscape:cy="256"
     inkscape:window-x="0"
     inkscape:window-y="0"
     inkscape:window-maximized="0"
     inkscape:current-layer="svg18" />
  <title
     id="title2">denver-broncos</title>
  <g
     id="g16"
     transform="translate(0,24)"
     style="fill:none;fill-rule:evenodd">
    <path
       d="m 42.794,198.275 c 0,0 -2.227,41.564 46.295,67.99 0,0 19.53,10.41 65.51,18.87 40.39,7.437 62.07,23.156 70.68,33.034 11,12.63 21.8,35.51 26.65,55.58 0,0 0,5.21 3.74,4.98 0,0 3.27,0.23 3.04,-4.45 0,0 -1.17,-31.57 7.942,-46.76 6.98,-12.49 19.504,-23.28 40.22,-30.87 0,0 13.796,10.52 33.44,10.52 14.26,0 26.89,-6.087 26.89,-6.087 0,0 25.015,8.652 27.825,22.21 0,0 0.235,3.28 -0.7,5.614 l 31.33,1.64 17.07,-15.435 c 0,0 -31.8,-2.34 -32.5,-11.46 0,0 -0.496,-4.23 8.09,-4.23 0,0 19.785,-0.33 38.21,27.22 l 10.55,-27.715 c 0,0 -8.094,-4.044 -7.93,-11.474 0,0 -0.164,-4.54 3.392,-13.614 l -13.12,-5.96 c 0,0 -7.11,-6.67 -49.69,-33.23 l 5.52,-3.55 -47.118,-20.393 c 0,0 -15.085,-23.778 -57.17,-23.94 0,0 -32.852,-53.897 -85.274,-53.897 0,0 -19.35,-1.15 -41.486,10.5 0,0 -8.858,4.046 -17.437,8.913 0,0 -17.98,12.46 -38.53,-14.71 0,0 -7.488,32.087 15.033,45.81 0,0 -21.534,4.537 -29.13,-13.935 0,0 -6.946,-14.106 -5.03,-37.72 0,0 -16.506,14.922 -16.506,43.563 0,0 -0.165,18.257 11.97,30.72 0,0 -6.12,-0.93 -15.855,5.195 -0.006,0 -17.005,12.3 -35.935,-12.945"
       id="path4"
       inkscape:connector-curvature="0"
       style="fill:#002244" />
    <path
       d="m 123.1,151.807 c 0,0 3.16,28.298 27.247,28.298 0,0 9.467,0 18.116,-3.278 8.653,-3.278 21.28,-9.715 38.114,-9.715 0,0 21.975,-2.095 34.252,22.228 0,0 28.06,-1.532 54.36,3.39 0,0 -29.93,-52.734 -81.95,-51.918 0,0 -15.21,-0.816 -35.44,9.35 l -8.19,3.857 c -5.958,2.81 -8.3,4.2 -8.3,4.2 0,0 -8.42,5.04 -16.477,4.79 0,0 -10.525,0.83 -21.756,-11.22 z m -29.79,0.945 c 0,0 -13.938,38.438 16.574,55.62 5.682,3.697 14.75,7.123 24.992,7.384 0,0 41.7,-19.87 87.084,-25.122 0,0 -5.248,-11.193 -25.772,-11.193 0,0 -12.54,-0.73 -35.276,5.56 0,0 -6.16,1.56 -13.39,4.04 -10.328,2.53 -27.558,5.08 -38.68,-1.95 0,0 -15.143,-7.51 -15.532,-34.32 z m -39.186,64.696 c 0,0 3.777,20.52 27.34,20.52 0,0 16.487,0.393 39.742,-13.797 0,0 -8.027,-3.12 -12.102,-5.77 0,0 -8.55,-6.46 -17.617,-3.94 0,0 -1.564,0.3 -9.85,3.82 0,0 -5.814,3.78 -14.102,3.78 -0.002,0 -8.42,-0.13 -13.41,-4.6 z"
       id="path6"
       inkscape:connector-curvature="0"
       style="fill:#fb4f14" />
    <path
       d="m 181.464,283.744 c 0,0 46.94,-49.65 114.713,-32.387 0,0 3.35,38.87 45.23,41.235 0,0 14.26,0.857 27.74,-8.636 l 26.33,9.84 L 367.86,276.4 c 0,0 -8.843,8.63 -24.822,8.63 -15.977,0 -35.383,-16.194 -33.67,-39.174 0,0 -29.032,-14.555 -61.417,-22.115 l 9.71,15.34 c 0,0 -62.92,-3.99 -114.5,36.03 0,0 -49.22,-10.91 -55.14,-20.4 0,0 101.32,-82.36 231.01,-48.95 0,0 1.52,-2.22 -2.25,-5.33 0,0 -4.86,-3.65 -12.09,-5.81 0,0 31.73,-1.69 48.28,22.36 l 36.47,15.33 -3.827,2.7 c 0,0 55.747,34.66 59.478,39.51 l 7.78,3.25 c 0,0 -5.53,16.2 5.815,24.93 l -4.21,11.15 c 0,0 -18.645,-20.08 -37.245,-20.88 0,0 -13.746,-0.32 -13.746,10.71 0,0 -1.647,11.78 25.733,15.187 l -5.66,5.22 -20.88,-1.327 c 0,0 0.48,-16.997 -35.96,-30.264 0,0 -29.91,17.79 -58.243,-4.16 0,0 -51.63,12.404 -56.296,59.934 0,0 -5.677,-17.96 -18.3,-33.285 0,0 6.8,-24.243 43.555,-36.42 0,0 -33,-1.69 -56.187,24.69 0,-0.002 -15.37,-12.516 -39.776,-19.5"
       id="path8"
       inkscape:connector-curvature="0"
       style="fill:#ffffff" />
    <path
       d="m 350.16,227.532 c 0,0 25.726,3.836 69.952,39.956 l -41.806,-22.836 c 0,0 -2.7,1.383 -4.397,2.888 0,0.002 -9.46,-10.927 -23.75,-20.008"
       id="path10"
       inkscape:connector-curvature="0"
       style="fill:#002244" />
    <path
       d="m 371.128,235.187 c 0,0 -2.15,1.778 -1.285,4.883 0,0 1.055,2.928 4.372,2.994 0,0 3.75,0.05 4.407,-4.045 l -1.775,-0.96 -4.62,3.45 1.296,-5.17 -2.395,-1.17"
       id="path12"
       inkscape:connector-curvature="0"
       style="fill:#fb4f14" />
    <path
       d="m 445.427,278.887 c 0,0 -3.547,1.318 -3.547,4.5 0,0 -0.857,3.31 6.278,10.443 0,0 -10.6,-7.754 -12.587,-12.422 0,0 -1.82,-3.423 3.34,-3.423 0,0 3.14,0 6.52,0.902 z M 325,208.183 c 0,0 6.537,0.094 7.292,-1.506 0,0 1.6,-1.667 -7.198,-5.78 0,0 13.57,2.77 19.727,13.73 0,0 -8.79,-4.022 -19.82,-6.444 z"
       id="path14"
       inkscape:connector-curvature="0"
       style="fill:#002244" />
  </g>
</svg>
