<?xml version="1.0" encoding="UTF-8" standalone="no"?>
<svg
   xmlns:dc="http://purl.org/dc/elements/1.1/"
   xmlns:cc="http://creativecommons.org/ns#"
   xmlns:rdf="http://www.w3.org/1999/02/22-rdf-syntax-ns#"
   xmlns:svg="http://www.w3.org/2000/svg"
   xmlns="http://www.w3.org/2000/svg"
   xmlns:sodipodi="http://sodipodi.sourceforge.net/DTD/sodipodi-0.dtd"
   xmlns:inkscape="http://www.inkscape.org/namespaces/inkscape"
   width="512"
   height="512"
   viewBox="0 0 512 512"
   version="1.1"
   id="svg22"
   sodipodi:docname="indianapolis-colts.svg"
   inkscape:version="0.92.5 (2060ec1f9f, 2020-04-08)">
  <metadata
     id="metadata28">
    <rdf:RDF>
      <cc:Work
         rdf:about="">
        <dc:format>image/svg+xml</dc:format>
        <dc:type
           rdf:resource="http://purl.org/dc/dcmitype/StillImage" />
      </cc:Work>
    </rdf:RDF>
  </metadata>
  <defs
     id="defs26" />
  <sodipodi:namedview
     pagecolor="#ffffff"
     bordercolor="#666666"
     borderopacity="1"
     objecttolerance="10"
     gridtolerance="10"
     guidetolerance="10"
     inkscape:pageopacity="0"
     inkscape:pageshadow="2"
     inkscape:window-width="640"
     inkscape:window-height="480"
     id="namedview24"
     showgrid="false"
     inkscape:zoom="0.4609375"
     inkscape:cx="256"
     inkscape:cy="256"
     inkscape:window-x="642"
     inkscape:window-y="107"
     inkscape:window-maximized="0"
     inkscape:current-layer="svg22" />
  <title
     id="title2">indianapolis-colts</title>
  <g
     id="g20"
     transform="translate(-49.220339,8)"
     style="fill:none;fill-rule:evenodd">
    <path
       d="m 345.36,155.277 c -4.98,-6.975 -2.996,-10.675 0.476,-11.166 2.408,-0.34 5.287,0.02 6.784,0.02 2.644,0 7.698,0.33 7.273,-4.84 -0.488,-5.81 -1.695,-11.39 -3.154,-18.17 -1.45,-6.78 -1.94,-6.3 -11.15,-6.3 0,0 -1.69,-0.24 -15.75,0.73 -14.05,0.97 -25.19,2.91 -25.68,21.81 -0.48,18.908 3.88,25.21 11.63,37.32 7.74,12.12 31.002,49.438 31.002,83.36 0,62.36 -54.75,89.18 -91.568,89.18 -36.826,0 -91.577,-26.82 -91.577,-89.174 0,-33.93 23.254,-71.244 31.01,-83.363 7.752,-12.114 12.11,-18.415 11.632,-37.32 -0.49,-18.9 -11.636,-20.834 -25.68,-21.804 -14.057,-0.97 -15.75,-0.73 -15.75,-0.73 -9.21,0 -9.69,-0.48 -11.15,6.3 -1.45,6.784 -2.66,12.36 -3.145,18.173 -0.43,5.17 4.633,4.846 7.27,4.846 1.5,0 4.38,-0.36 6.785,-0.02 3.47,0.493 5.455,4.19 0.476,11.166 -20.02,28.044 -41.173,62.746 -41.173,104.196 0,68.335 58.626,136.183 131.3,136.183 72.68,0 131.294,-67.85 131.294,-136.19 0,-41.45 -21.15,-76.15 -41.17,-104.195 z m -19.627,4.912 c -2.178,0 -3.942,-1.77 -3.942,-3.95 0,-2.18 1.77,-3.94 3.95,-3.94 2.17,0 3.94,1.76 3.94,3.94 0,2.18 -1.77,3.94 -3.94,3.94 z m -140.99,-7.89 c 2.175,0 3.94,1.76 3.94,3.94 0,2.17 -1.765,3.94 -3.94,3.94 -2.17,0 -3.938,-1.77 -3.938,-3.95 0,-2.18 1.767,-3.94 3.94,-3.94 z M 145.5,252.75 c -2.168,0 -3.938,-1.76 -3.938,-3.94 0,-2.18 1.77,-3.94 3.938,-3.94 2.183,0 3.94,1.765 3.94,3.943 0,2.174 -1.757,3.94 -3.94,3.94 z m 19.383,78.03 c -2.172,0 -3.94,-1.77 -3.94,-3.942 0,-2.172 1.765,-3.94 3.94,-3.94 2.178,0 3.938,1.768 3.938,3.94 0,2.175 -1.76,3.944 -3.93,3.944 z m 90.36,44.587 c -2.177,0 -3.938,-1.77 -3.938,-3.95 0,-2.173 1.76,-3.94 3.937,-3.94 2.173,0 3.934,1.763 3.934,3.94 0.002,2.178 -1.76,3.943 -3.935,3.943 z m 90.354,-44.59 c -2.177,0 -3.938,-1.77 -3.938,-3.946 0,-2.176 1.76,-3.94 3.93,-3.94 2.17,0 3.94,1.77 3.94,3.94 0,2.18 -1.77,3.95 -3.94,3.95 z m 19.386,-78.03 c -2.18,0 -3.946,-1.765 -3.946,-3.94 0,-2.18 1.765,-3.944 3.946,-3.944 2.166,0 3.94,1.765 3.94,3.943 0,2.174 -1.774,3.94 -3.94,3.94 z"
       id="path4"
       inkscape:connector-curvature="0"
       style="fill:#002c5f" />
    <path
       d="m 325.734,152.306 c 2.175,0 3.94,1.763 3.94,3.94 0,2.177 -1.765,3.94 -3.94,3.94 -2.176,0 -3.94,-1.763 -3.94,-3.94 0,-2.177 1.764,-3.94 3.94,-3.94"
       id="path6"
       inkscape:connector-curvature="0"
       style="fill:#ffffff" />
    <path
       d="m 184.744,152.304 c 2.178,0 3.94,1.765 3.94,3.942 0,2.177 -1.762,3.943 -3.94,3.943 -2.176,0 -3.94,-1.77 -3.94,-3.95 0,-2.18 1.764,-3.94 3.94,-3.94"
       id="path8"
       inkscape:connector-curvature="0"
       style="fill:#ffffff" />
    <path
       d="m 141.56,248.812 c 0,-2.174 1.77,-3.94 3.938,-3.94 2.183,0 3.94,1.766 3.94,3.94 0,2.18 -1.757,3.944 -3.94,3.944 -2.168,0 -3.938,-1.767 -3.938,-3.944"
       id="path10"
       inkscape:connector-curvature="0"
       style="fill:#ffffff" />
    <path
       d="m 164.88,322.903 c 2.178,0 3.94,1.764 3.94,3.94 0,2.176 -1.762,3.94 -3.94,3.94 -2.175,0 -3.936,-1.764 -3.936,-3.94 0,-2.176 1.76,-3.94 3.937,-3.94"
       id="path12"
       inkscape:connector-curvature="0"
       style="fill:#ffffff" />
    <path
       d="m 255.24,367.49 c 2.176,0 3.94,1.763 3.94,3.94 0,2.176 -1.764,3.94 -3.94,3.94 -2.175,0 -3.94,-1.764 -3.94,-3.94 0,-2.177 1.765,-3.94 3.94,-3.94"
       id="path14"
       inkscape:connector-curvature="0"
       style="fill:#ffffff" />
    <path
       d="m 345.594,322.9 c 2.177,0 3.94,1.764 3.94,3.94 0,2.175 -1.763,3.938 -3.94,3.938 -2.175,0 -3.938,-1.763 -3.938,-3.938 0,-2.176 1.763,-3.94 3.938,-3.94"
       id="path16"
       inkscape:connector-curvature="0"
       style="fill:#ffffff" />
    <path
       d="m 361.035,248.812 c 0,-2.174 1.765,-3.94 3.947,-3.94 2.17,0 3.938,1.766 3.938,3.94 0,2.18 -1.767,3.944 -3.938,3.944 -2.182,0 -3.947,-1.767 -3.947,-3.944"
       id="path18"
       inkscape:connector-curvature="0"
       style="fill:#ffffff" />
  </g>
</svg>
