<?xml version="1.0" encoding="UTF-8" standalone="no"?>
<svg
   xmlns:dc="http://purl.org/dc/elements/1.1/"
   xmlns:cc="http://creativecommons.org/ns#"
   xmlns:rdf="http://www.w3.org/1999/02/22-rdf-syntax-ns#"
   xmlns:svg="http://www.w3.org/2000/svg"
   xmlns="http://www.w3.org/2000/svg"
   xmlns:sodipodi="http://sodipodi.sourceforge.net/DTD/sodipodi-0.dtd"
   xmlns:inkscape="http://www.inkscape.org/namespaces/inkscape"
   width="512"
   height="512"
   viewBox="0 0 512 512"
   version="1.1"
   id="svg40"
   sodipodi:docname="jacksonville-jaguars.svg"
   inkscape:version="0.92.5 (2060ec1f9f, 2020-04-08)">
  <metadata
     id="metadata46">
    <rdf:RDF>
      <cc:Work
         rdf:about="">
        <dc:format>image/svg+xml</dc:format>
        <dc:type
           rdf:resource="http://purl.org/dc/dcmitype/StillImage" />
      </cc:Work>
    </rdf:RDF>
  </metadata>
  <defs
     id="defs44" />
  <sodipodi:namedview
     pagecolor="#ffffff"
     bordercolor="#666666"
     borderopacity="1"
     objecttolerance="10"
     gridtolerance="10"
     guidetolerance="10"
     inkscape:pageopacity="0"
     inkscape:pageshadow="2"
     inkscape:window-width="640"
     inkscape:window-height="480"
     id="namedview42"
     showgrid="false"
     inkscape:zoom="0.4609375"
     inkscape:cx="256"
     inkscape:cy="256"
     inkscape:window-x="0"
     inkscape:window-y="0"
     inkscape:window-maximized="0"
     inkscape:current-layer="svg40" />
  <title
     id="title2">jacksonville-jaguars</title>
  <g
     id="g38"
     transform="translate(-6,12)"
     style="fill:none;fill-rule:evenodd">
    <path
       d="m 427.336,247.657 -0.278,0.04 c -1.062,0.168 -3.138,-0.152 -2.857,-1.66 0.17,-0.93 1.44,-1.696 2.25,-2.033 2.3,-0.926 4.54,-1.8 6.59,-3.176 0.74,-0.495 1.45,-1.035 2.08,-1.66 0.18,-0.163 1.11,-0.915 1.08,-1.195 -0.28,-2.3 -0.88,-4.327 -1.63,-6.04 -0.24,0.582 -0.65,1.345 -1.21,2.203 -1.26,2.137 -2.82,3.126 -3.38,3.43 -0.82,0.466 -2.43,0.95 -3.16,-0.473 -0.74,-1.406 1.3,-2.622 1.3,-2.622 3.02,-2.16 4.245,-4.36 4.737,-5.8 -1.62,-2.51 -3.177,-3.82 -3.177,-3.82 0,0 -4.34,10.8 -15.7,16.29 -8.15,3.95 -15.628,8.54 -20.42,14 -0.676,0.79 -1.305,1.59 -1.878,2.41 l 0.09,0.01 c 11.52,1.28 17.17,6.13 19.03,8.49 l 0.33,0.45 0.04,-0.01 c 0.717,-0.12 12.27,-2.2 19.43,-10.06 h -0.78 c -1.767,-0.07 -8.514,0.11 -6.81,-3.275 0.57,-1.133 2.59,-0.82 3.6,-0.76 1.74,0.104 3.464,0.288 5.197,0.194 2.39,-0.13 2.832,-2.294 3.43,-4.27 0.56,-1.91 0.903,-3.71 1.06,-5.41 -2.648,3.355 -7.39,4.49 -8.95,4.77 m -25.49,18.646 c -2.55,-0.593 -5.69,1.07 -7.44,2.197 -0.335,-0.69 -0.96,-1.3 -2.15,-1.71 -3.58,-1.2 -8,2.195 -8,2.195 0.37,-2.59 -3.193,-1.85 -3.334,-1.83 -1.056,0.084 -5.477,1.475 -8.093,2.94 -3.874,1.344 -8.98,2.98 -14.628,4.35 1.06,6 0.74,10.22 0.74,10.22 5.99,-3.096 10.96,-9.47 13.98,-14.056 0.65,3.08 3.263,7.264 3.263,7.264 4.2,-2.604 7.93,-6.373 7.93,-6.373 1.29,2.328 1.073,7.215 1.073,7.215 2.95,-0.96 5.597,-2.867 7.3,-4.29 -1.883,9.97 -7.935,19.64 -7.935,19.64 7.08,-2.65 20.6,-17 21.47,-20.91 0.867,-3.9 -0.423,-6.01 -4.18,-6.858 m -64.65,10.88 c 1.19,12.214 -9.68,23.25 -9.68,23.25 17.64,-4.948 26.894,-19.08 29.744,-24.16 0.3,-0.753 0.525,-1.37 0.657,-1.777 -6.565,1.57 -13.832,2.76 -20.715,2.684 m 16.55,38.597 c 0,0 -10.856,17.34 -15.75,20.92 -0.004,0 -1.177,-2.84 -2.615,-4.24 0,0 -5.95,4.01 -7.14,6.21 0.12,-0.23 -1.07,-1.87 -1.2,-2.095 -0.67,-1.098 -1.36,-2.177 -2.18,-3.16 -2.38,1.393 -5.13,3.43 -6.38,5.93 1,-2.01 1.755,-4.06 2.31,-6.235 0.33,-1.335 0.56,-2.704 0.704,-4.075 0.484,-4.71 -0.126,-9.51 -1.655,-13.99 0,0 -5.635,13.77 -12.12,20.513 -6.504,6.72 -10.058,8.445 -10.47,9.403 -0.41,0.93 -0.497,4.348 7.12,3.383 7.624,-0.99 13,-6.648 13,-6.648 0,0 10.43,-1.93 19.604,-0.69 0,0 2.543,2.76 6.163,2.508 3.62,-0.252 11.156,-14.396 10.594,-27.744 m -52.23,-42.69 c -4.587,-14.35 -21.598,-17.13 -21.598,-17.13 0,0 13.93,5.67 14.302,45.8 0.13,13.5 4.26,19.207 4.26,19.207 -7.025,-3.733 -8.87,-17.514 -9.505,-28.18 -0.32,-5.42 -2.525,-31.85 -22.796,-38.374 -12.306,-3.965 -18.23,-0.59 -18.23,-0.59 0,0 9.5,2.26 14.854,11.994 8.09,14.64 2.333,40.53 8.37,54.36 7.46,17.1 21.11,21.716 21.11,21.716 17.912,-9.597 21.75,-24.507 21.75,-24.507 -15.32,-7.92 -7.957,-29.93 -12.523,-44.3 m 23.38,49.43 0.63,6.91 4.816,3.13 c 1.388,-5.59 -5.443,-10.04 -5.443,-10.04 m 50.954,-95.17 c -4.172,-0.38 -7.48,1.5 -7.48,1.5 0,0 12.274,0 16.75,3.867 4.498,3.883 3.297,6.862 3.297,6.862 0,0 4.48,7.162 5.687,10.14 0,0 8.368,-7.75 8.976,-13.12 -0.005,-0.005 -16.26,-8.254 -27.225,-9.254 m 37.07,-17.34 c 0,0 -5.252,6.457 -7.85,4.478 -2.614,-1.99 1.36,-4.647 0.52,-9.82 -0.82,-5.163 -17.817,-22.573 -39.282,-35.414 0,0 9.92,4.09 19.52,9.17 l 0.23,0.11 c 2.12,1.08 4.353,2.35 6.45,3.646 2.875,1.75 5.47,3.517 7.4,5.22 0,0 3.9,-4.746 1.57,-10.283 -0.127,-0.306 -0.29,-0.625 -0.465,-0.945 l -0.08,-0.123 c -0.36,-0.63 -0.79,-1.264 -1.29,-1.916 -0.433,-0.282 -1.05,-0.65 -1.745,-0.91 -1.354,-0.52 -2.63,-0.736 -3.53,-1.18 0,0 -2.063,-2.084 -2.756,-3.084 0,0 -0.22,0.92 0.35,2 0,0 -1.59,-1.392 -3.048,-1.7 -1.453,-0.3 -3.206,-0.884 -3.66,-1.225 -0.45,-0.337 -1.34,-1.12 -1.34,-1.12 0,0 0.04,0.71 0.255,1.233 0,0 -1.495,-0.114 -1.75,-1.68 -0.267,-1.56 0.96,-2.2 0.96,-2.2 0,0 -0.114,-0.44 0,-0.996 0,0 1.34,1.48 1.983,1.86 0,0 0.29,-0.946 -0.26,-2.57 l -0.49,-0.28 c -0.5,-0.266 -0.98,-0.51 -1.438,-0.72 -0.383,-0.18 -22.495,-12.68 -32.98,-17.926 -0.78,-0.07 -1.84,-0.24 -2.97,-0.61 0,0 -1.753,-0.815 -2.045,-1.65 0,0 -0.12,0.43 0.13,0.905 0.44,0.8 1.38,1.654 1.66,2.763 0,0 -1.74,-1.03 -3.18,-1.77 -1.253,-0.65 -3.9,-1.395 -5.39,-2.51 -0.315,-0.225 -0.556,-0.46 -0.718,-0.687 l -0.165,-0.205 c -0.15,-0.227 -0.24,-0.45 -0.308,-0.647 l -0.07,-0.26 -0.02,-0.115 -0.02,-0.277 0.01,-0.19 0.09,0.06 0.07,0.06 0.103,0.08 c 0.63,0.535 1.3,1.134 2.084,1.347 l 0.194,0.05 -0.07,-0.095 -0.083,-0.09 -0.194,-0.227 c -0.407,-0.446 -0.96,-1.15 -1.42,-2.06 -8.57,-4.23 -18.81,-8.72 -32.654,-11.44 -19.93,-3.922 -33.308,-0.614 -33.308,-0.614 0,0 3.93,0.234 12.13,3.093 0.51,-0.16 1.204,-0.44 1.81,-0.874 1.18,-0.84 1.944,-1.01 2.448,-1.01 0.504,0 2.687,2.594 2.687,2.594 0,0 -0.24,-2.004 -0.662,-3.69 0,0 2.15,-0.185 2.966,0 1.196,0.274 2.19,0.68 2.616,0.68 0.42,0 0.592,-0.5 0.592,-0.5 0,0 0.755,0.49 0.755,1.09 0,0 1.69,1.17 1.69,2.27 0,1.09 -0.257,2.52 0,3.203 0,0 -0.42,0.244 -1.108,-0.848 0,0 -1.09,0.925 -2.187,0.925 -0.512,0 -0.975,0.13 -1.335,0.27 3.774,1.69 8.046,3.76 12.856,6.32 l 0.95,0.68 c 0,0 0.39,-1.596 0.647,-1.843 0,0 0.5,0.445 0.6,0.7 0,0 0.093,-0.7 -0.05,-1.494 0,0 1.34,-1.09 2.386,-1.192 1.045,-0.1 1.45,-0.1 1.79,-0.3 0,0 0.236,-0.83 -0.113,-1.73 0,0 1.754,1.03 2.105,2.33 0,0 0.154,-0.79 0.1,-1.59 0,0 1.838,-0.296 3.19,0.056 1.34,0.34 2.25,0.808 2.556,1.3 0.29,0.498 1.124,2.16 0.666,2.523 -0.48,0.36 -1.32,0.5 -1.58,0.903 -0.25,0.4 -0.343,0.74 -0.69,0.99 -0.335,0.246 -0.802,0.31 -0.802,0.31 0,0 -0.094,1.377 0.266,2.073 0,0 -0.72,-0.09 -1.067,-0.934 0,0 0.165,0.784 -0.34,1.337 -0.493,0.545 -0.836,0.884 -1.33,1.033 0,0 -1.23,-1.163 -1.33,-1.62 0,0 0.137,2.75 -0.34,2.238 0,0 -2.586,-2.28 -3.108,-2.562 0,0 -1.115,0.168 -1.558,0.12 -0.457,-0.044 -1.99,-0.64 -2.29,-1.146 0,0 -0.05,0.6 0.796,1.2 0,0 -0.77,-0.12 -1.05,-0.254 0,0 -0.444,0.505 -1.24,0.708 0,0 0.796,0.896 1.14,1.235 0,0 -1.56,-0.275 -2.272,-1.032 0,0 -0.9,0.048 -1.904,-0.25 -0.996,-0.298 -1.604,-0.195 -2.5,-0.055 -0.9,0.15 -1.045,0.057 -1.7,-0.1 -0.644,-0.14 -2.43,-1.14 -2.43,-1.14 0,0 0.3,0.796 0.6,1.054 0,0 -0.152,0.646 -1.602,0.242 -1.446,-0.4 -1.496,-0.84 -2.24,-1.298 -0.75,-0.435 -1.248,-1.09 -1.095,-1.634 0.144,-0.545 0.596,-0.95 0.596,-0.95 0,0 0.44,0.4 1.236,0.76 0,0 -1.34,-1.69 -1.495,-2.292 l 1.056,0.2 c 0,0 0.244,-0.947 2.335,-1.39 0.704,-0.152 1.295,-0.246 1.766,-0.32 -5.762,-1.8 -13.823,-4.043 -23.13,-5.902 l -0.395,0.533 -0.36,0.675 c -0.343,0.7 -0.598,1.412 -1.144,1.873 0,0 -4.33,-1.35 -5.715,-2.04 0,0 2.19,1.786 3.715,2.606 0,0 -1.316,2.17 -5.89,1.667 0,0 -2.12,0.92 -3.787,0.75 -1.643,-0.18 -4.16,-1.27 -4.68,-2.114 -0.515,-0.863 -0.456,-2.63 1.323,-3.663 0,0 2.42,1.472 3.62,2.145 0,0 -2.134,-2.65 -1.963,-3.506 0,0 0.755,-0.628 1.665,-1.17 -1.062,-0.15 -2.14,-0.28 -3.22,-0.39 -9.793,-1.107 -18.455,-1.27 -26.31,-0.827 0.62,0.892 0.495,1.73 0.996,2.616 0.597,1.093 -0.28,1.594 -0.28,1.594 -0.66,-0.537 -3.39,-1.69 -3.39,-1.69 1.04,0.976 1.92,2.334 1.92,2.334 -0.655,0.38 -2.39,0.72 -4.26,0.812 -1.865,0.08 -4.52,1.623 -4.52,1.623 -1.112,-0.327 -2.06,-1.456 -3,-2.326 l -0.47,-0.4 -0.122,-0.1 -0.07,-0.06 -0.09,-0.064 0.11,0.307 0.016,0.03 0.01,0.03 0.185,0.478 0.447,0.93 c 0.474,0.905 1.04,1.76 1.61,2.6 l 0.03,0.05 0.635,1.02 0.22,0.33 0.04,0.073 0.07,0.116 0.082,0.12 0.032,0.074 0.057,0.073 c -0.236,-0.298 -0.98,-0.44 -1.34,-0.57 l -0.06,-0.016 c -0.62,-0.248 -1.2,-0.57 -1.767,-0.924 l -0.03,-0.024 c -0.26,-0.19 -1.014,-0.87 -1.32,-0.75 l -0.195,0.054 -0.124,0.03 -0.23,0.07 -0.3,0.07 -0.31,0.07 -0.44,0.087 -0.795,0.095 h -0.044 l -1.075,0.01 c -1.91,-0.113 -4.26,-1.74 -5.89,-3.386 -0.59,-0.57 -0.773,-1.21 -0.78,-1.794 -1.705,0.4 -3.38,0.82 -5.01,1.26 -2.43,0.57 -15.68,3.52 -29.22,6.557 0.08,0.94 -0.312,1.945 -0.312,2.47 0,0.94 0.76,1.645 0.76,1.645 -1.55,0.123 -4.29,-0.905 -4.29,-0.905 0.773,1.1 3.01,2.37 3.01,2.37 0,0 -0.33,1.224 -1.35,1.644 -1.02,0.424 -1.796,0.26 -3.067,0.16 -1.275,-0.073 -2.38,0.517 -4,0.598 -1.62,0.09 -3.603,-0.91 -3.603,-0.91 1.786,0.16 3.115,-1.04 3.115,-1.04 -2.29,-0.26 -3.004,-1.104 -3.26,-1.603 -0.182,-0.37 -0.753,-0.878 -1.28,-1.25 -9.934,2.214 -17.63,3.933 -17.63,3.933 -6.3,0.845 -11.39,1.48 -11.39,1.48 -1.87,0.137 -3.742,0.246 -5.61,0.354 -10.29,0.545 -20.59,0.305 -30.86,0.935 -1.53,0.09 -3.033,0.133 -4.56,0.133 h -0.05 c 0.83,0.188 1.665,0.414 2.492,0.64 1.123,0.3 2.235,0.617 3.35,0.956 3.755,1.128 7.485,2.39 11.154,3.81 1.82,0.7 3.625,1.44 5.41,2.216 1.906,0.833 3.786,1.703 5.63,2.63 0.503,-0.772 2.785,-0.772 2.785,-0.772 l -0.29,-0.594 c -0.002,0 0.64,0.406 1.433,0.35 l 0.155,-0.025 0.58,-0.217 c 0.26,-0.164 0.478,-0.39 0.98,-0.55 0.847,-0.3 2.026,-0.18 2.026,-0.18 0.32,-0.575 1.736,-1.13 1.736,-1.13 l -0.62,-0.534 c 0.57,-0.1 1.87,0.172 2.415,0.23 0.37,-0.03 0.672,-0.06 0.78,-0.127 l 0.05,-0.023 c 0.155,-0.124 0.26,-0.39 0.115,-0.605 -0.27,-0.244 -0.867,-0.435 -1.28,-0.616 -0.475,-0.217 -0.53,-0.52 -0.537,-0.617 l -0.02,-0.045 c -0.5,0.103 -1.63,-0.38 -1.63,-0.38 0,0 0.95,-0.05 1.192,-0.217 l 0.63,-0.28 c 0.35,-0.163 0.79,-0.305 1.202,-0.36 0.756,-0.092 1.656,0.597 1.656,0.597 0,0 0.79,0.14 1.585,-0.153 0.816,-0.278 2.48,-0.247 2.398,-0.228 -0.515,0.09 -1.035,0.44 -1.527,0.44 0.406,0 0.95,0.276 1.27,0.504 1.477,0.99 -0.395,2.293 -1.35,2.753 -1.46,-0.16 -2.37,0.41 -2.37,0.41 0,0 1.88,0 1.79,0.55 -0.105,0.54 -0.95,0.89 -1.85,1.087 -0.896,0.194 -1.6,1.09 -1.6,1.09 0.41,0.044 0.756,0.44 0.756,0.44 0,0 -0.95,0.1 -1.09,0.203 -0.16,0.09 -0.65,1.196 -1.055,1.686 -0.39,0.49 -1.782,0.84 -1.782,0.84 0.64,0.35 2.685,0.59 2.685,0.59 -1.13,0.405 -2.446,0.475 -2.9,0.497 l 3.55,2.245 0.02,0.006 c 0.164,0.115 2.707,1.7 3.58,2.21 3.7,2.17 7.507,4.15 11.53,5.64 1.22,0.4 2.42,0.866 3.65,1.247 1.366,0.42 2.746,0.78 4.13,1.102 1.27,0.28 2.56,0.51 3.84,0.703 2.29,0.337 4.62,0.472 6.936,0.41 2.33,-0.054 4.652,-0.375 6.95,-0.795 2.67,-0.5 5.31,-1.07 7.91,-1.826 l 1.28,-0.366 c 3.595,-1.1 7.075,-2.69 10.425,-4.394 0.88,-0.434 1.752,-0.878 2.61,-1.34 l 0.063,-0.043 0.06,-0.02 c -0.05,0.06 -6.24,5.18 -9.27,7.03 -0.66,0.404 -1.33,0.806 -2.01,1.193 -1.105,0.63 -2.244,1.224 -3.38,1.802 -0.97,0.5 -1.94,0.96 -2.92,1.393 l -1.56,0.655 -0.08,0.04 c -6.44,2.55 -13.003,3.42 -19.94,3.914 -5.964,0.426 -14.65,0.66 -23.54,-0.44 -14.61,-1.82 -22.33,-6.716 -22.33,-6.716 13.344,2.33 20.405,1.92 23.615,1.39 -4.876,-3.095 -9.067,-6.98 -14.515,-10.39 -13.02,-8.102 -25.33,-13.183 -38.642,-11.963 0,0 4.367,1.07 7.443,5.175 -0.966,4.035 4.28,12.988 12.183,19.84 1.373,1.196 2.86,2.48 4.482,3.76 l -5.96,-0.13 c 4.184,2.71 15.29,6.35 15.29,6.35 -2.435,0.813 -6.63,1.48 -6.63,1.48 0.27,0.31 8.287,4.454 23.23,5.073 8.196,0.33 16.347,-1.1 23.906,-4.293 l 0.17,-0.087 0.24,-0.13 0.06,-0.017 -0.594,0.574 c -4.54,4.144 -10.34,6.653 -16.243,8.27 -3.177,0.862 -6.43,1.494 -9.703,1.89 l -1.516,0.167 c -0.205,0.07 -0.35,0.16 -0.403,0.28 -1.605,5.01 -1.657,10.424 -1.38,15.63 0.15,2.792 0.497,5.592 1,8.355 l 0.01,0.04 c 0.363,-0.364 0.795,-0.75 1.29,-1.153 0,0 1.5,-1.24 4.106,-1.618 l -0.11,-0.1 -0.12,-0.106 c -0.553,-0.47 -1.41,-0.71 -2.16,-0.827 l -0.58,-0.09 0.496,-0.084 c 1.63,-0.34 3.563,-0.64 5.14,-0.295 l 0.115,0.02 c 0.96,0.22 1.805,0.854 2.325,1.677 l 0.133,0.26 0.15,0.337 0.037,0.083 0.1,0.342 0.07,0.34 0.02,0.07 0.017,0.356 c 0,0.42 -0.085,0.844 -0.27,1.244 -0.614,1.37 -1.746,3.98 -1.746,4.968 0,0.454 -2.34,2.08 -2.97,2.715 l -0.1,0.116 0.19,-0.01 0.155,-0.02 2.065,-0.26 1.01,-0.06 h 0.028 c 0,0 1.62,2.983 2.868,3.98 1.246,0.992 2.367,3.1 2.747,4.712 l 0.044,0.015 c 0.15,0.01 0.33,-0.044 0.517,-0.12 l 0.06,-0.02 0.22,-0.09 0.46,-0.216 0.705,-0.3 0.67,-0.34 0.067,-0.03 c 0,0 -2.357,3.46 -5.104,5.086 0.18,0.025 2.37,0.345 3.45,-0.12 l 0.03,-0.01 c 0,0 0.186,4.125 -3.85,8.573 -0.28,0.31 3.004,4.19 5.02,6.46 l 0.225,0.27 0.174,0.204 0.422,0.464 0.262,0.31 c 0.14,-0.125 1.25,-1.07 1.82,-1.53 0.973,-0.79 2,-1.52 3.04,-2.218 0.983,-0.67 3.252,-1.873 3.252,-1.873 l 0.03,-0.017 v 0.023 c -0.03,0.32 -0.04,0.664 -0.01,1.052 0,0 1.14,-1.235 2.19,-1.81 0,0 -1.718,2.665 -1.91,4.662 0,0 -0.388,3.32 2.76,5.03 3.14,1.706 7.82,3.043 9.16,4.086 0,0 2.387,-1.71 3.71,-2.28 0,0 -3.15,3.04 -4.002,5.888 0,0 1.91,-1.8 2.963,-2.186 0,0 2.96,2.186 4.76,1.99 1.81,-0.183 4.39,-0.095 5.43,-2.47 1.05,-2.363 0.86,-2.744 1.34,-3.51 0,0 -1.72,1.05 -2.96,2.18 0,0 0.58,-2.36 2.96,-4.18 2.38,-1.79 3.53,-2.08 3.53,-2.08 0,0 5.63,-7.424 -0.95,-11.035 0,0 3.23,-1.61 5.05,-2.747 0,0 -5.253,1.33 -6.964,1.89 0,0 -3.9,-0.76 -5.996,-0.76 -2.1,0 -5.71,-0.28 -7.34,-0.76 -1.615,-0.476 -3.24,-1.04 -3.24,-1.04 0,0 0.953,-0.57 1.72,-0.77 0,0 -3.7,-0.27 -5.886,3.186 l -0.03,-0.01 c 0.005,-0.28 0.13,-1.618 1.142,-2.878 0,0 -1.94,0.882 -3.035,2.11 l -0.033,-0.01 c -0.72,-0.27 -1.453,-0.498 -2.19,-0.725 -1.16,-0.343 -2.35,-0.66 -3.533,-0.94 -0.785,-0.18 -1.586,-0.363 -2.387,-0.52 6.19,-4.08 13.045,-7.13 20.095,-9.51 2.354,-0.785 7.348,-2.205 7.348,-2.205 1.003,0.945 2.013,1.663 2.013,1.663 0,0 3.353,-0.805 4.964,-1.43 0,0 -3.366,2.355 -5.985,3.49 0,0 3.982,-0.135 5.36,-0.385 l -0.618,1.38 c 0,0 1.743,1.36 5.85,0.747 4.11,-0.62 6.73,-1.5 6.73,-3.614 0,-2.11 -0.505,-3.105 0.12,-5.214 0,0 -1.494,0.24 -2.62,0 0,0 2.37,-1.37 3.24,-2.86 0,0 -0.22,-1.335 -0.87,-2.66 v -0.014 c 3.284,-0.36 6.6,-0.64 9.89,-0.84 -0.413,-0.48 -0.857,-0.94 -1.33,-1.37 -3.31,-3.04 -7.948,-4.99 -12.108,-6.323 8.28,-1.104 16.65,-1.43 24.972,-1.714 4.766,-0.177 9.54,-0.295 14.3,-0.346 -1,-0.83 -2.395,-1.31 -3.584,-1.79 2.795,-0.315 5.716,-0.046 8.515,0.157 -2.388,-1.192 -5.09,-1.863 -7.64,-2.62 -1.793,-0.522 -3.6,-1.027 -5.41,-1.495 l 0.225,0.01 0.2,0.02 0.04,0.01 c 6.564,0.87 13.53,1.97 21.155,3.33 48.9,8.684 81.164,21.85 95.215,28.44 3.72,1.68 6.25,2.956 7.54,3.625 1.165,0.34 2.786,0.524 3.605,-0.664 0.15,-0.21 0.264,-0.44 0.35,-0.654 l 0.006,-0.02 0.34,0.02 c 3.06,-0.185 6.06,-0.483 9.03,-1.3 0.838,-0.222 1.66,-0.48 2.488,-0.76 1.683,-0.575 3.315,-1.25 4.92,-1.99 -0.084,0 -2.724,-3.413 -3.038,-3.755 -2.373,-2.65 -5.036,-5.07 -7.97,-7.13 l 1.244,-0.336 c 0.42,-0.103 0.87,-0.164 1.29,-0.155 -2.35,-2.325 -5.26,-4.18 -8.024,-5.908 -1.026,-0.657 -2.08,-1.278 -3.12,-1.88 l -0.9,-0.533 -0.64,-0.384 c -1.2,-0.687 -2.4,-1.37 -3.62,-2.017 l -0.04,-0.027 0.052,-0.01 h 0.15 c 4.395,0 8.843,-0.18 13.26,-0.07 0.5,0.01 4.864,0.205 5.1,0.224 1.28,0.09 2.55,0.173 3.816,0.29 2.755,0.25 5.51,0.56 8.25,0.95 l 2.04,0.3 c 3.477,0.52 6.95,1.2 10.38,1.963 l 0.107,0.03 c 1.89,0.63 3.97,0.91 5.906,1.403 1.085,0.284 2.16,0.566 3.244,0.866 2.382,0.644 4.747,1.34 7.092,2.092 1.496,0.486 2.99,0.98 4.48,1.514 0.393,0.14 2.244,1.08 2.517,0.887 0.74,-0.528 4.91,-3.42 8.173,-4.05 3.59,-0.69 6.95,-2.04 6.95,-6.073 -0.365,-4.18 -3.693,-8.542 -7.33,-11.45 M 220.78,280.06 c -2.17,-2.24 -4.284,-2.984 -5.554,-1.74 0,0 -0.64,-2.39 -2.103,-3.035 -1.477,-0.647 -2.475,-0.522 -2.475,-0.522 -0.002,0 -5.742,1.14 -8.1,2.592 0.462,-0.297 4.26,-2.747 5.61,-3.612 l -3.186,0.73 c 0,0 -3.357,0.012 -6.473,-0.233 -3.11,-0.234 -10.29,-0.978 -11.62,-0.72 0,0 0.89,-0.612 1.43,-0.936 -0.15,0 -2.5,0.02 -4.06,1.277 0,0 -4.78,0.5 -5.7,3.7 -0.93,3.22 1.44,5.51 2.14,6.01 0,0 0.96,-1.5 2.89,-2.45 0,0 -1.108,1.78 -1.067,3.27 0,0 4.076,2.15 12.21,3.28 8.142,1.127 7.55,0.52 10.413,2.3 0,0 3.02,-2.132 4.693,-2.635 0,0 -2.35,3.333 -2.57,4.578 0,0 3.78,3.216 6.895,3.45 3.124,0.25 5.8,-0.955 5.47,-4.162 l 1.123,-1.383 -1.99,0.15 0.58,-1.08 c 0,0 -0.098,-1.637 -1.006,-2.904 0.16,0.08 1.717,0.925 3.196,0.52 l -0.433,0.816 c 0,0 1.7,-0.195 2.96,-2.345 l -1.03,-0.28 c -0.004,0 -0.087,-2.368 -2.264,-4.61 m -21.16,-30.18 c 0,0 -2.86,0.01 -4.952,0.1 -2.07,0.1 -4.342,0.302 -4.643,2.266 -0.29,1.98 0.3,2.964 1.19,3.657 0.882,0.69 4.26,2.76 4.95,3.44 0,0 2.275,-1.48 4.06,-1.863 0,0 -3.86,2.754 -4.747,4.248 0,0 1.68,-0.883 2.87,-0.883 -0.002,0 3.064,1.87 5.036,1.87 1.98,0 5.733,-0.6 5.733,-0.6 0,0 2.18,-1.47 4.56,-1.675 0,0 -2.487,1.673 -3.077,2.47 0,0 1,-0.104 1.595,0.3 0.59,0.383 2.57,0.775 4.35,0.095 1.78,-0.694 3.55,-1.385 3.46,-3.553 -0.105,-2.17 -1.38,-4.736 -1.38,-4.736 0,0 2.33,-1.94 3.616,-2.55 -0.31,0.04 -2.84,0.424 -4.416,1.07 0,0 -1.968,-3.95 -4.057,-5.23 -2.086,-1.27 -4.16,-1.474 -6.437,-0.49 -2.274,0.994 -5.65,1.95 -5.65,1.95 0,0 -3.114,1.49 -3.53,2.084 0.065,-0.146 0.63,-1.31 1.467,-1.966 m 229.23,-33.02 c 0,0 -6.052,-13.24 -23.27,-24.516 4.32,-5.51 5.99,-12.14 4.003,-17.374 -2.067,-5.444 -16.555,-15.384 -22.02,-18.206 -5.455,-2.808 -12.994,-6.944 -12.994,-6.944 0,0 -19.36,-11.71 -34.57,-18.328 -18.35,-7.962 -51.377,-18.57 -87.31,-11.005 0,0 -21.56,-7.05 -60.538,4.956 -13.634,3.74 -36.787,9.87 -49.765,12.03 -19.237,3.206 -38.75,3.53 -53.875,5.124 -7.965,0.85 -13.27,-0.912 -15.86,3.566 -11.39,19.66 22.56,52.93 34.86,58.19 -3.64,20.45 0.982,44.64 22.51,68.81 23.405,26.3 55.792,31.28 74.78,45.27 21.314,15.69 25.73,35.51 43.53,54.052 16.383,17.053 48.395,31.6 77.074,17.67 31.11,-15.117 36.75,-40.348 37.874,-45.077 0.377,-2.42 -1.03,-4.87 -4.16,-6.37 -0.525,-0.25 -1.565,-0.76 -2.945,-1.483 1.24,-4.94 4.4,-19.794 1.29,-32.75 0,0 -8.794,12.82 -15.44,19.93 -1.86,-1.742 -10.394,-10.35 -8.976,-20.56 3.898,-1.54 8.425,-3.65 11.887,-6.24 2,-1.507 3.756,-2.997 5.358,-4.46 17.506,-5 21.437,-12.21 21.437,-12.21 0.646,1.77 2.855,4.034 2.855,4.034 2.58,-1.45 6.02,-4.03 6.02,-4.03 0.332,2.09 0.29,5.81 0.29,5.81 1.3,-0.484 2.564,-0.6 2.564,-0.6 -1.3,6.45 -8.877,17.39 -8.877,17.39 26.553,-7.58 37.735,-27.13 37.735,-27.13 l -0.01,-0.106 c 1.002,-0.208 1.707,-0.475 1.707,-0.475 0,0 17.815,-5.057 26.003,-22.47 8.18,-17.43 -6.615,-34.32 -11.174,-36.51 m -77.4,133.682 c -2.24,4.215 -4.983,8.15 -8.185,11.69 -5.45,6.03 -12.174,10.82 -19.54,14.267 -7.642,3.58 -16.357,6.185 -24.87,6.52 1.52,-1.617 3.04,-3.225 4.535,-4.828 -8.37,1.452 -17.05,1.686 -25.432,0.04 1.03,-0.75 2.41,-1.89 2.563,-3.235 -0.58,-0.044 -1.2,-0.324 -1.73,-0.51 -1.433,-0.51 -2.83,-1.116 -4.19,-1.78 -5.026,-2.45 -9.657,-5.7 -13.89,-9.34 -7.41,-6.38 -13.66,-14.06 -18.9,-22.29 -3.17,-4.97 -5.722,-10.314 -9.233,-15.054 -3.013,-4.062 -6.513,-7.753 -10.36,-11.032 -6.03,-5.14 -12.895,-9.23 -20.134,-12.39 -11.673,-5.11 -23.264,-10.62 -34.24,-17.138 -3.082,-1.827 -6.1,-3.77 -9.07,-5.8 -6.29,-4.365 -12.414,-9.248 -17.625,-14.854 l -0.35,-0.373 c 0.142,-0.124 1.25,-1.073 1.814,-1.53 0.98,-0.788 2,-1.52 3.042,-2.217 0.98,-0.67 3.25,-1.874 3.25,-1.874 l 0.03,-0.018 v 0.022 c -0.03,0.32 -0.036,0.67 -0.01,1.057 0,0 1.14,-1.235 2.19,-1.815 0,0 -1.71,2.67 -1.906,4.66 0,0 -0.39,3.324 2.76,5.034 3.14,1.707 7.82,3.045 9.16,4.087 0,0 2.385,-1.71 3.715,-2.277 0,0 -3.15,3.04 -4.005,5.89 0,0 1.91,-1.8 2.966,-2.187 0,0 2.95,2.184 4.757,1.99 1.8,-0.184 4.385,-0.097 5.428,-2.47 1.053,-2.365 0.855,-2.746 1.34,-3.51 0,0 -1.724,1.05 -2.96,2.18 0,0 0.58,-2.366 2.96,-4.182 2.372,-1.79 3.526,-2.08 3.526,-2.08 0,0 5.626,-7.42 -0.95,-11.032 0,0 3.23,-1.61 5.05,-2.75 0,0 -5.254,1.33 -6.97,1.9 0,0 -3.896,-0.765 -5.994,-0.765 -2.105,0 -5.717,-0.28 -7.338,-0.764 -1.62,-0.473 -3.242,-1.04 -3.242,-1.04 0,0 0.95,-0.567 1.713,-0.766 0,0 -3.698,-0.273 -5.88,3.186 l -0.036,-0.01 c 0.005,-0.278 0.13,-1.615 1.142,-2.875 0,0 -1.944,0.886 -3.04,2.11 l -0.03,-0.01 c -0.724,-0.27 -1.456,-0.5 -2.19,-0.72 -1.164,-0.35 -2.354,-0.66 -3.536,-0.94 -0.783,-0.18 -1.58,-0.37 -2.384,-0.52 6.19,-4.08 13.044,-7.135 20.09,-9.51 2.35,-0.79 7.35,-2.214 7.35,-2.214 1.003,0.95 2.013,1.67 2.013,1.67 -0.006,0 3.35,-0.8 4.96,-1.43 0,0 -3.36,2.36 -5.986,3.49 0,0 3.997,-0.13 5.368,-0.38 l -0.614,1.378 c 0,0 1.74,1.364 5.85,0.747 4.11,-0.62 6.73,-1.496 6.73,-3.612 0,-2.11 -0.505,-3.104 0.12,-5.22 0,0 -1.494,0.248 -2.62,0 0,0 2.376,-1.364 3.24,-2.85 0,0 -0.22,-1.336 -0.864,-2.662 l -0.006,-0.012 c 3.29,-0.356 6.603,-0.64 9.894,-0.835 -0.413,-0.484 -0.86,-0.94 -1.33,-1.37 -3.31,-3.043 -7.95,-4.994 -12.11,-6.324 8.28,-1.106 16.65,-1.43 24.975,-1.72 4.77,-0.173 9.54,-0.287 14.297,-0.34 -0.998,-0.833 -2.39,-1.31 -3.578,-1.79 2.79,-0.32 5.713,-0.05 8.51,0.156 -2.385,-1.2 -5.086,-1.87 -7.638,-2.627 -1.79,-0.527 -3.6,-1.03 -5.403,-1.5 l 0.22,0.01 0.203,0.02 0.044,0.01 c 6.56,0.863 13.53,1.962 21.155,3.324 48.9,8.69 81.163,21.853 95.216,28.44 3.72,1.68 6.245,2.956 7.538,3.63 1.165,0.336 2.79,0.52 3.605,-0.668 0.153,-0.21 0.265,-0.437 0.35,-0.656 l 0.005,-0.024 0.345,0.024 c 3.062,-0.188 6.06,-0.49 9.03,-1.3 0.84,-0.23 1.66,-0.48 2.49,-0.76 1.682,-0.58 3.314,-1.26 4.913,-2 -0.08,0 -2.72,-3.416 -3.03,-3.757 -2.37,-2.654 -5.035,-5.075 -7.964,-7.13 l 1.24,-0.335 c 0.414,-0.11 0.864,-0.17 1.29,-0.16 -2.35,-2.32 -5.26,-4.18 -8.03,-5.907 -1.02,-0.66 -2.08,-1.28 -3.12,-1.88 l -0.9,-0.532 -0.64,-0.385 c -1.2,-0.69 -2.4,-1.37 -3.614,-2.015 7.47,2.53 14.88,5.432 22.14,8.55 l 1.653,0.707 c 6.07,2.625 12.217,5.444 17.687,9.15 1.21,0.814 2.354,1.708 3.396,2.693 l 0.12,0.1 c 2.15,1.62 3.63,4.04 4.58,6.525 0.456,1.203 0.79,2.47 0.96,3.747 0.06,0.43 0.23,4.703 -0.063,4.69 l -1.17,-0.04 c -3.114,-0.043 -6.234,0.287 -9.29,0.884 -5.46,1.08 -10.55,3.14 -15.734,5.06 -3.766,1.404 -7.345,3.25 -11.16,4.528 -5.412,1.816 -11.12,2.688 -16.84,2.257 -5.903,-0.445 -11.67,-2.128 -16.64,-5.35 -3.773,-2.45 -7.01,-5.626 -9.76,-9.146 -1.962,-2.516 -3.68,-5.216 -5.133,-8.06 7.5,2.7 13.4,5.13 17.657,7.016 3.753,1.597 6.313,2.807 7.612,3.448 1.165,0.32 2.793,0.46 3.594,-0.73 1.647,-2.494 -1.37,-4.474 -1.37,-4.474 0,0 -37.15,-18.08 -105.23,-25.54 -8,-0.87 -15.41,-1.492 -22.242,-1.915 6.72,0.72 13.973,1.66 21.806,2.874 11.96,1.85 22.94,4 32.91,6.266 -1.09,0.145 -2.162,0.346 -3.23,0.63 -2.055,0.543 -4.01,1.38 -5.846,2.48 -3.397,2.054 -6.138,5.042 -8.22,8.38 -4.215,6.755 -6.2,15.103 -6.495,22.982 -0.35,9.814 2.13,19.55 5.34,28.75 3.79,10.906 8.7,21.413 14.78,31.237 3.03,4.89 6.33,9.615 10.05,13.975 3.96,4.61 8.474,9.1 13.93,11.905 5.8,2.96 12.22,2.94 18.512,2 4.43,-0.67 8.723,-2.43 12.935,-3.88 9.892,-3.37 20.254,-7.004 30.883,-5.86 3.51,0.38 7.24,1.1 10.4,2.747 0.48,0.24 0.415,0.26 0.154,0.776 M 220.77,280.07 c -2.168,-2.24 -4.283,-2.985 -5.553,-1.74 0,0 -0.64,-2.39 -2.103,-3.036 -1.477,-0.646 -2.475,-0.52 -2.475,-0.52 -0.01,0 -5.75,1.14 -8.11,2.59 0.46,-0.296 4.26,-2.746 5.61,-3.61 l -3.19,0.73 c 0,0 -3.36,0.01 -6.47,-0.234 -3.11,-0.233 -10.29,-0.977 -11.62,-0.72 0,0 0.9,-0.61 1.43,-0.935 -0.15,0 -2.5,0.02 -4.06,1.277 0,0 -4.78,0.494 -5.698,3.7 -0.93,3.22 1.44,5.505 2.136,6.01 0,0 0.96,-1.505 2.9,-2.454 0,0 -1.106,1.782 -1.065,3.265 0,0 4.075,2.15 12.21,3.273 8.14,1.124 7.55,0.523 10.412,2.297 0,0 3.02,-2.133 4.692,-2.636 0,0 -2.35,3.334 -2.57,4.58 0,0 3.78,3.213 6.896,3.447 3.127,0.25 5.8,-0.956 5.47,-4.163 l 1.126,-1.38 -1.99,0.15 0.58,-1.08 c 0,0 -0.095,-1.63 -1,-2.9 0.16,0.08 1.712,0.93 3.19,0.52 l -0.435,0.82 c 0,0 1.7,-0.19 2.96,-2.34 l -1.03,-0.28 c -0.006,0 -0.09,-2.366 -2.266,-4.61 m -29.563,-24.16 c 0.885,0.69 4.264,2.76 4.95,3.446 0,0 2.278,-1.48 4.06,-1.867 0,0 -3.86,2.755 -4.744,4.25 0,0 1.68,-0.886 2.87,-0.886 0,0 3.062,1.87 5.034,1.87 1.98,0 5.734,-0.593 5.734,-0.593 0,0 2.18,-1.47 4.565,-1.673 0,0 -2.488,1.676 -3.078,2.474 0,0 1,-0.105 1.595,0.3 0.585,0.38 2.57,0.774 4.35,0.094 1.78,-0.69 3.55,-1.38 3.46,-3.55 -0.107,-2.17 -1.38,-4.735 -1.38,-4.735 0,0 2.33,-1.94 3.614,-2.55 -0.31,0.04 -2.84,0.423 -4.416,1.07 0,0 -1.97,-3.95 -4.06,-5.23 -2.085,-1.27 -4.16,-1.475 -6.434,-0.49 -2.28,0.992 -5.65,1.95 -5.65,1.95 0,0 -3.116,1.49 -3.53,2.08 0.063,-0.14 0.63,-1.31 1.463,-1.96 0,0 -2.86,0.01 -4.957,0.1 -2.076,0.1 -4.347,0.3 -4.65,2.265 -0.286,1.98 0.3,2.963 1.2,3.654"
       id="path4"
       inkscape:connector-curvature="0"
       style="fill:#000000" />
    <path
       d="m 389.575,252.668 c -0.164,-1.277 -0.506,-2.548 -0.96,-3.747 -0.955,-2.48 -2.436,-4.9 -4.582,-6.52 l -0.118,-0.1 c -1.047,-0.98 -2.188,-1.88 -3.393,-2.69 -5.474,-3.7 -11.622,-6.52 -17.688,-9.15 l -1.655,-0.7 c -7.27,-3.11 -14.68,-6.02 -22.15,-8.55 1.21,0.65 2.42,1.33 3.62,2.02 l 0.63,0.385 0.9,0.53 c 1.04,0.61 2.09,1.227 3.11,1.88 2.77,1.73 5.68,3.586 8.034,5.91 -0.427,-0.007 -0.877,0.048 -1.296,0.153 l -1.24,0.34 c 2.932,2.057 5.596,4.478 7.967,7.134 0.314,0.334 2.96,3.75 3.04,3.75 -1.61,0.745 -3.244,1.418 -4.924,1.994 -0.82,0.284 -1.65,0.538 -2.49,0.765 -2.967,0.814 -5.967,1.116 -9.023,1.295 l -0.34,-0.02 -0.01,0.02 c -0.077,0.22 -0.196,0.45 -0.35,0.66 -0.818,1.185 -2.44,1.006 -3.604,0.66 -1.29,-0.67 -3.82,-1.944 -7.537,-3.62 -14.056,-6.59 -46.32,-19.757 -95.22,-28.45 -7.625,-1.36 -14.59,-2.46 -21.153,-3.32 l -0.045,-0.01 -0.2,-0.02 -0.22,-0.018 c 1.806,0.475 3.616,0.98 5.413,1.504 2.55,0.755 5.25,1.427 7.64,2.63 -2.8,-0.214 -5.72,-0.48 -8.52,-0.16 1.2,0.48 2.58,0.956 3.584,1.79 -4.76,0.054 -9.528,0.166 -14.296,0.34 -8.33,0.285 -16.7,0.616 -24.98,1.72 4.16,1.326 8.8,3.28 12.11,6.33 0.48,0.425 0.92,0.88 1.33,1.37 -3.29,0.19 -6.604,0.48 -9.895,0.83 l 0.01,0.01 c 0.65,1.33 0.87,2.665 0.87,2.665 -0.87,1.48 -3.24,2.85 -3.24,2.85 1.124,0.245 2.62,0 2.62,0 -0.63,2.11 -0.12,3.104 -0.12,5.215 0,2.12 -2.626,2.992 -6.73,3.61 -4.11,0.615 -5.85,-0.744 -5.85,-0.744 l 0.62,-1.38 c -1.375,0.247 -5.37,0.385 -5.37,0.385 2.62,-1.132 5.985,-3.49 5.985,-3.49 -1.607,0.63 -4.964,1.43 -4.964,1.43 0,0 -1.012,-0.72 -2.01,-1.67 0,0 -4.994,1.42 -7.353,2.216 -7.042,2.377 -13.89,5.422 -20.09,9.508 0.807,0.158 1.6,0.34 2.387,0.53 1.188,0.274 2.377,0.587 3.54,0.937 0.73,0.23 1.466,0.46 2.187,0.72 l 0.035,0.01 c 1.093,-1.23 3.033,-2.11 3.033,-2.11 -1.01,1.26 -1.137,2.6 -1.143,2.878 l 0.03,0.014 c 2.19,-3.462 5.883,-3.184 5.883,-3.184 -0.76,0.2 -1.702,0.77 -1.702,0.77 0,0 1.617,0.567 3.24,1.04 1.62,0.483 5.236,0.767 7.338,0.767 2.098,0 5.997,0.76 5.997,0.76 1.717,-0.563 6.97,-1.9 6.97,-1.9 -1.816,1.14 -5.05,2.75 -5.05,2.75 6.577,3.62 0.954,11.036 0.954,11.036 0,0 -1.153,0.29 -3.53,2.083 -2.383,1.81 -2.96,4.176 -2.96,4.176 1.24,-1.13 2.966,-2.18 2.966,-2.18 -0.49,0.766 -0.287,1.142 -1.34,3.51 -1.045,2.372 -3.62,2.283 -5.43,2.466 -1.806,0.2 -4.757,-1.984 -4.757,-1.984 -1.05,0.38 -2.967,2.18 -2.967,2.18 0.86,-2.85 4.007,-5.89 4.007,-5.89 -1.33,0.57 -3.72,2.28 -3.72,2.28 -1.33,-1.045 -6.01,-2.38 -9.15,-4.09 -3.15,-1.71 -2.764,-5.03 -2.764,-5.03 0.194,-1.994 1.903,-4.663 1.903,-4.663 -1.05,0.59 -2.188,1.82 -2.188,1.82 -0.024,-0.39 -0.02,-0.73 0.01,-1.054 v -0.03 l -0.03,0.02 c 0,0 -2.27,1.206 -3.243,1.876 -1.045,0.7 -2.06,1.43 -3.05,2.21 -0.56,0.465 -1.664,1.414 -1.81,1.54 l 0.35,0.377 c 5.21,5.6 11.34,10.49 17.63,14.85 2.964,2.033 5.985,3.97 9.07,5.802 10.97,6.51 22.56,12.025 34.24,17.13 7.235,3.166 14.11,7.255 20.13,12.4 3.846,3.27 7.343,6.962 10.36,11.036 3.51,4.735 6.07,10.077 9.24,15.05 5.237,8.233 11.486,15.91 18.89,22.29 4.233,3.64 8.865,6.89 13.892,9.34 1.365,0.665 2.758,1.274 4.197,1.777 0.53,0.184 1.15,0.467 1.73,0.513 -0.16,1.336 -1.54,2.48 -2.56,3.23 8.375,1.65 17.06,1.414 25.43,-0.04 -1.5,1.603 -3.018,3.21 -4.536,4.825 8.51,-0.33 17.226,-2.93 24.872,-6.512 7.355,-3.44 14.08,-8.23 19.535,-14.264 3.2,-3.54 5.94,-7.477 8.185,-11.69 0.264,-0.52 0.33,-0.534 -0.157,-0.762 -3.157,-1.645 -6.898,-2.37 -10.4,-2.75 -10.635,-1.14 -20.99,2.494 -30.89,5.867 -4.21,1.44 -8.5,3.2 -12.93,3.87 -6.29,0.945 -12.72,0.963 -18.517,-2.006 -5.45,-2.795 -9.97,-7.286 -13.923,-11.89 -3.73,-4.36 -7.03,-9.087 -10.054,-13.98 -6.09,-9.82 -10.99,-20.33 -14.787,-31.236 -3.204,-9.19 -5.69,-18.923 -5.34,-28.743 0.29,-7.88 2.28,-16.23 6.49,-22.974 2.086,-3.346 4.83,-6.33 8.23,-8.386 1.825,-1.097 3.786,-1.93 5.836,-2.477 1.07,-0.282 2.145,-0.483 3.238,-0.63 -9.97,-2.263 -20.95,-4.414 -32.913,-6.27 -7.833,-1.21 -15.087,-2.145 -21.81,-2.864 6.835,0.422 14.25,1.04 22.25,1.914 68.08,7.46 105.224,25.544 105.224,25.544 0,0 3.02,1.98 1.37,4.47 -0.794,1.193 -2.42,1.05 -3.59,0.73 -1.3,-0.64 -3.86,-1.85 -7.613,-3.44 -4.253,-1.89 -10.153,-4.316 -17.66,-7.015 1.455,2.84 3.178,5.54 5.14,8.06 2.75,3.518 5.99,6.69 9.757,9.14 4.973,3.23 10.74,4.91 16.64,5.35 5.72,0.43 11.433,-0.44 16.84,-2.255 3.82,-1.27 7.398,-3.13 11.158,-4.52 5.18,-1.924 10.274,-3.982 15.735,-5.06 3.054,-0.6 6.17,-0.93 9.285,-0.89 l 1.174,0.047 c 0.294,0.003 0.123,-4.274 0.07,-4.7 z m -165.22,32.275 c -1.258,2.15 -2.963,2.345 -2.963,2.345 l 0.432,-0.816 c -1.476,0.405 -3.032,-0.44 -3.186,-0.523 0.91,1.27 1,2.9 1,2.9 l -0.578,1.08 1.987,-0.15 -1.123,1.38 c 0.33,3.21 -2.34,4.41 -5.472,4.16 -3.118,-0.24 -6.894,-3.45 -6.894,-3.45 0.22,-1.25 2.574,-4.58 2.574,-4.58 -1.674,0.5 -4.698,2.634 -4.698,2.634 -2.86,-1.777 -2.27,-1.175 -10.415,-2.3 -8.14,-1.12 -12.21,-3.268 -12.21,-3.268 -0.04,-1.487 1.06,-3.268 1.06,-3.268 -1.94,0.95 -2.9,2.45 -2.9,2.45 -0.69,-0.5 -3.07,-2.784 -2.14,-6.004 0.91,-3.215 5.69,-3.7 5.69,-3.7 1.56,-1.26 3.91,-1.28 4.05,-1.28 -0.534,0.32 -1.436,0.933 -1.436,0.933 1.334,-0.254 8.52,0.486 11.63,0.72 3.113,0.25 6.466,0.24 6.466,0.24 l 3.19,-0.737 c -1.35,0.87 -5.15,3.32 -5.613,3.61 2.36,-1.445 8.1,-2.59 8.1,-2.59 0,0 1.004,-0.124 2.474,0.525 1.464,0.646 2.107,3.035 2.107,3.035 1.27,-1.24 3.386,-0.5 5.553,1.74 2.174,2.237 2.26,4.61 2.26,4.61 l 1.04,0.282 z m -16.73,-37.135 c 2.268,-0.98 4.345,-0.78 6.43,0.492 2.084,1.28 4.057,5.232 4.057,5.232 1.58,-0.65 4.107,-1.032 4.42,-1.067 -1.29,0.604 -3.62,2.548 -3.62,2.548 0,0 1.278,2.564 1.383,4.736 0.09,2.16 -1.687,2.86 -3.462,3.55 -1.782,0.68 -3.766,0.29 -4.35,-0.1 -0.596,-0.41 -1.594,-0.3 -1.594,-0.3 0.59,-0.79 3.07,-2.47 3.07,-2.47 -2.39,0.2 -4.57,1.68 -4.57,1.68 0,0 -3.75,0.59 -5.74,0.59 -1.97,0 -5.038,-1.87 -5.038,-1.87 -1.19,0 -2.874,0.89 -2.874,0.89 0.89,-1.5 4.75,-4.25 4.75,-4.25 -1.783,0.39 -4.06,1.87 -4.06,1.87 -0.687,-0.69 -4.06,-2.76 -4.95,-3.45 -0.884,-0.69 -1.477,-1.68 -1.185,-3.66 0.3,-1.96 2.566,-2.17 4.642,-2.27 2.092,-0.09 4.955,-0.1 4.955,-0.1 -0.84,0.65 -1.41,1.82 -1.47,1.96 0.413,-0.59 3.53,-2.082 3.53,-2.082 0,0 3.375,-0.954 5.653,-1.947 z"
       id="path6"
       inkscape:connector-curvature="0"
       style="fill:#ffffff" />
    <path
       d="m 413.204,210.008 c 0,0 -5.246,6.457 -7.85,4.478 -2.612,-1.99 1.366,-4.65 0.526,-9.816 -0.827,-5.167 -17.823,-22.575 -39.292,-35.415 0,0 9.932,4.086 19.527,9.165 11.734,1.923 14.477,-1.122 15.107,-2.382 -0.356,-0.623 -0.788,-1.26 -1.295,-1.912 -0.423,-0.286 -1.044,-0.65 -1.735,-0.914 -1.354,-0.516 -2.635,-0.735 -3.54,-1.18 0,0 -2.06,-2.075 -2.742,-3.08 0,0 -0.22,0.915 0.347,1.994 0,0 -1.587,-1.39 -3.044,-1.69 -1.452,-0.303 -3.212,-0.885 -3.664,-1.224 l -1.34,-1.124 c 0,0 0.03,0.71 0.25,1.233 0,0 -1.5,-0.11 -1.76,-1.67 -0.27,-1.56 0.96,-2.2 0.96,-2.2 0,0 -0.11,-0.45 0,-1 0,0 1.34,1.48 1.98,1.87 0,0 0.293,-0.94 -0.26,-2.57 l -0.497,-0.28 c -0.497,-0.26 -0.98,-0.507 -1.44,-0.714 -0.377,-0.18 -22.496,-12.675 -32.975,-17.923 -0.78,-0.074 -1.84,-0.24 -2.966,-0.614 0,0 -1.755,-0.82 -2.05,-1.658 0,0 -0.12,0.434 0.134,0.905 0.444,0.805 1.39,1.66 1.67,2.77 0,0 -1.755,-1.03 -3.18,-1.77 -1.26,-0.65 -3.9,-1.4 -5.4,-2.512 -0.317,-0.225 -0.54,-0.464 -0.718,-0.69 l -0.15,-0.204 c -0.16,-0.225 -0.246,-0.45 -0.314,-0.65 l -0.06,-0.255 -0.03,-0.112 -0.017,-0.28 0.01,-0.19 0.07,0.06 0.087,0.067 0.106,0.08 c 0.616,0.533 1.285,1.13 2.075,1.34 l 0.2,0.055 -0.07,-0.1 -0.08,-0.093 -0.2,-0.223 c -0.404,-0.448 -0.956,-1.156 -1.413,-2.066 -8.57,-4.22 -18.806,-8.71 -32.664,-11.434 -19.92,-3.926 -33.3,-0.616 -33.3,-0.616 0,0 3.93,0.23 12.13,3.092 0.52,-0.164 1.2,-0.444 1.81,-0.873 1.177,-0.845 1.94,-1.01 2.447,-1.01 0.506,0 2.684,2.593 2.684,2.593 0,0 -0.24,-2.007 -0.66,-3.695 0,0 2.15,-0.18 2.97,0 1.202,0.28 2.19,0.68 2.615,0.68 0.42,0 0.6,-0.5 0.6,-0.5 0,0 0.745,0.49 0.745,1.09 0,0 1.698,1.17 1.698,2.277 0,1.083 -0.258,2.52 0,3.2 0,0 -0.425,0.24 -1.105,-0.85 0,0 -1.094,0.93 -2.193,0.93 -0.51,0 -0.975,0.12 -1.34,0.26 3.78,1.68 8.053,3.75 12.856,6.31 l 0.956,0.684 c 0,0 0.386,-1.596 0.647,-1.843 0,0 0.5,0.44 0.594,0.7 0,0 0.1,-0.7 -0.045,-1.494 0,0 1.34,-1.09 2.39,-1.19 1.05,-0.106 1.46,-0.096 1.79,-0.3 0,0 0.24,-0.835 -0.11,-1.72 0,0 1.753,1.017 2.102,2.316 0,0 0.158,-0.79 0.1,-1.6 0,0 1.84,-0.3 3.195,0.054 1.344,0.35 2.24,0.807 2.542,1.295 0.3,0.5 1.135,2.163 0.67,2.522 -0.48,0.36 -1.325,0.5 -1.57,0.9 -0.245,0.39 -0.348,0.74 -0.703,0.99 -0.34,0.25 -0.79,0.31 -0.79,0.31 0,0 -0.093,1.38 0.258,2.076 0,0 -0.72,-0.092 -1.062,-0.934 0,0 0.16,0.79 -0.344,1.34 -0.493,0.55 -0.835,0.89 -1.33,1.038 0,0 -1.23,-1.166 -1.328,-1.62 0,0 0.134,2.75 -0.34,2.235 0,0 -2.59,-2.285 -3.108,-2.567 0,0 -1.12,0.165 -1.56,0.115 -0.453,-0.042 -1.986,-0.637 -2.29,-1.142 0,0 -0.05,0.598 0.796,1.195 0,0 -0.77,-0.12 -1.05,-0.257 0,0 -0.442,0.508 -1.234,0.71 0,0 0.79,0.9 1.147,1.24 0,0 -1.57,-0.28 -2.282,-1.03 0,0 -0.902,0.044 -1.9,-0.255 -1,-0.298 -1.602,-0.195 -2.5,-0.055 -0.9,0.15 -1.035,0.056 -1.69,-0.1 -0.65,-0.14 -2.44,-1.144 -2.44,-1.144 0,0 0.306,0.8 0.598,1.053 0,0 -0.144,0.65 -1.6,0.247 -1.44,-0.402 -1.495,-0.842 -2.24,-1.3 -0.743,-0.434 -1.243,-1.086 -1.09,-1.635 0.15,-0.546 0.6,-0.95 0.6,-0.95 0,0 0.44,0.406 1.236,0.756 0,0 -1.34,-1.69 -1.49,-2.29 l 1.054,0.198 c 0,0 0.24,-0.94 2.336,-1.385 0.705,-0.15 1.3,-0.25 1.77,-0.32 -5.77,-1.796 -13.825,-4.04 -23.14,-5.9 l -0.392,0.534 -0.365,0.673 c -0.337,0.705 -0.592,1.42 -1.142,1.877 0,0 -4.33,-1.346 -5.72,-2.033 0,0 2.19,1.786 3.716,2.6 0,0 -1.31,2.17 -5.883,1.656 0,0 -2.12,0.92 -3.786,0.745 -1.65,-0.175 -4.16,-1.254 -4.69,-2.11 -0.51,-0.86 -0.45,-2.622 1.327,-3.66 0,0 2.43,1.478 3.628,2.15 0,0 -2.134,-2.65 -1.963,-3.504 0,0 0.76,-0.63 1.67,-1.176 -1.06,-0.147 -2.14,-0.28 -3.22,-0.39 -9.79,-1.107 -18.46,-1.27 -26.32,-0.827 0.62,0.89 0.5,1.725 0.995,2.614 0.6,1.094 -0.28,1.593 -0.28,1.593 -0.645,-0.536 -3.372,-1.69 -3.372,-1.69 1.038,0.98 1.915,2.34 1.915,2.34 -0.65,0.376 -2.384,0.715 -4.253,0.81 -1.87,0.08 -4.524,1.625 -4.524,1.625 -1.114,-0.334 -2.06,-1.46 -3,-2.327 l -0.464,-0.404 -0.13,-0.103 -0.07,-0.06 -0.095,-0.06 0.11,0.3 0.01,0.025 0.015,0.032 0.19,0.48 c 0.13,0.306 0.274,0.627 0.443,0.925 0.475,0.906 1.04,1.76 1.61,2.6 l 0.028,0.046 0.64,1.02 0.217,0.33 0.046,0.073 0.08,0.11 0.075,0.12 0.045,0.07 0.05,0.08 c -0.235,-0.3 -0.976,-0.44 -1.336,-0.563 l -0.06,-0.02 c -0.62,-0.25 -1.205,-0.575 -1.77,-0.93 l -0.034,-0.02 c -0.26,-0.176 -1.016,-0.867 -1.32,-0.75 l -0.194,0.06 -0.12,0.04 -0.237,0.067 -0.304,0.074 -0.31,0.06 -0.44,0.087 -0.798,0.096 h -0.048 c -0.33,0.02 -0.705,0.03 -1.075,0.01 -1.91,-0.113 -4.258,-1.74 -5.89,-3.38 -0.59,-0.572 -0.78,-1.21 -0.78,-1.797 -1.71,0.402 -3.385,0.822 -5.015,1.27 -2.435,0.56 -15.685,3.513 -29.22,6.545 0.08,0.937 -0.313,1.94 -0.313,2.466 0,0.943 0.754,1.65 0.754,1.65 -1.55,0.123 -4.29,-0.905 -4.29,-0.905 0.773,1.103 3.01,2.373 3.01,2.373 0,0 -0.32,1.223 -1.35,1.643 -1.02,0.422 -1.795,0.26 -3.065,0.164 -1.282,-0.086 -2.385,0.51 -4.005,0.595 -1.62,0.084 -3.6,-0.916 -3.6,-0.916 1.78,0.162 3.11,-1.04 3.11,-1.04 -2.29,-0.26 -3.004,-1.108 -3.26,-1.61 -0.19,-0.366 -0.755,-0.874 -1.268,-1.248 -9.948,2.218 -17.64,3.94 -17.64,3.94 -6.3,0.84 -11.39,1.478 -11.39,1.478 -0.31,0.39 -0.725,1.016 -0.185,1.196 0,0 1.04,0.34 2.34,0.432 1.237,0.08 2.61,0 2.61,0 -0.005,0 -5.03,2.335 -5.64,2.504 -0.61,0.172 -1.4,0.953 -1.4,0.953 l -0.04,0.04 -0.09,0.076 -0.055,0.044 -0.09,0.09 c 0.354,-0.155 0.797,-0.3 1.207,-0.35 0.753,-0.107 1.653,0.593 1.653,0.593 0,0 0.79,0.15 1.585,-0.15 0.81,-0.29 2.48,-0.246 2.4,-0.226 -0.517,0.08 -1.037,0.437 -1.53,0.437 0.403,0 0.95,0.276 1.27,0.5 1.48,1 -0.397,2.3 -1.35,2.76 -1.465,-0.16 -2.376,0.416 -2.376,0.416 0,0 1.886,0 1.796,0.55 -0.104,0.544 -0.955,0.892 -1.853,1.09 -0.898,0.2 -1.6,1.095 -1.6,1.095 0.4,0.048 0.753,0.438 0.753,0.438 0,0 -0.953,0.104 -1.095,0.21 -0.15,0.09 -0.65,1.193 -1.052,1.685 -0.39,0.497 -1.78,0.847 -1.78,0.847 0.64,0.352 2.69,0.592 2.69,0.592 -1.13,0.403 -2.45,0.475 -2.91,0.495 0.32,0.2 3.44,2.174 3.554,2.25 l 0.02,0.01 1.983,0.46 c 7.5,1.715 15.18,3.472 22.87,3.91 4.65,0.264 9.35,-0.428 13.91,-1.235 2.8,-0.48 5.59,-1.05 8.335,-1.727 -1.25,1.36 -2.61,2.74 -4.182,3.717 l 0.228,-0.06 c 9.28,-2.275 18.56,-4.58 27.867,-6.765 5.827,-1.37 11.747,-1.925 17.676,-2.04 0.653,-0.417 1.486,-0.78 2.64,-0.822 2.142,-0.07 4.174,0.436 5.62,0.93 2.39,0.104 4.78,0.237 7.155,0.41 -0.89,-1.503 -2.232,-2.93 -3.85,-3.634 2.14,0 4.275,0.05 6.415,0.14 11.975,0.433 24.036,1.312 35.82,3.6 2.9,0.56 5.81,1.19 8.705,1.89 0.032,-0.02 0.216,-0.08 0.36,-0.37 0.143,-0.33 0.073,-1.05 0.74,-1.195 0.674,-0.15 1.874,0.442 2.172,0.6 0.3,0.14 1.995,1.2 2.528,1.46 0.318,0.143 0.447,0.66 0.5,1.1 1.595,0.45 3.17,0.9 4.75,1.38 l -0.02,-0.02 -0.09,-0.06 -0.13,-0.095 -0.11,-0.083 -0.277,-0.196 -0.02,-0.01 -0.36,-0.24 -0.096,-0.07 -0.29,-0.2 -0.137,-0.08 -0.278,-0.183 -0.136,-0.08 -0.4,-0.246 c 4.88,-3.525 11.74,-2.752 11.74,-2.752 0,0 1.576,0.208 2.72,0.6 0,0 1.58,-0.777 2.75,-0.647 1.163,0.12 3.27,1.21 3.47,1.88 0.183,0.67 -0.396,2.734 -0.778,3.57 -0.4,0.833 -2.49,2.11 -3.68,2.513 l -0.143,-0.257 -0.11,-0.166 c -0.24,-0.36 -0.67,-0.88 -1.256,-1.29 l 0.043,0.193 0.064,0.195 0.033,0.18 0.046,0.155 0.167,0.725 0.09,0.605 -0.605,0.382 c 7.025,2.933 13.34,7 19.38,11.613 3.526,2.69 7.13,5.57 11.107,7.555 l 0.727,0.34 c 0.668,0.278 1.348,0.51 2.007,0.744 3.97,1.35 8.102,0.88 11.97,-0.53 h 0.006 l 0.22,-0.19 c 0.26,-0.25 0.5,-0.5 0.71,-0.773 l 0.594,-0.81 v -0.01 l 0.29,-0.52 c 1.26,-2.345 1.34,-5.086 0.928,-7.608 l -0.052,-0.35 -0.18,-0.938 c -0.225,-0.93 -0.475,-1.8 -0.76,-2.61 -0.28,-0.803 -0.562,-1.524 -0.82,-2.12 l -0.24,-0.558 -0.138,-0.258 -0.206,-0.43 -0.11,-0.207 -0.08,-0.176 -0.104,-0.187 -0.07,-0.116 c 1.04,0.87 1.947,1.71 2.774,2.567 2.477,2.275 6.554,6.468 9.068,11.48 3.797,7.55 5.19,12.52 5.19,13.91 0,1.39 -3.19,1 -5.586,0.796 -2.383,-0.2 -14.55,0.997 -18.74,2.98 h 0.02 c 2.78,-0.65 5.58,-1.08 8.15,-1.11 7.443,-0.093 17.863,2.053 20.977,4.816 l 0.14,0.05 c 0,0 2.24,1.65 1.74,3.67 -0.43,1.673 -2.09,2.995 -4.96,3.174 0,0 -0.11,1.87 1.03,3.643 1.134,1.76 3.53,3.92 3.53,3.92 3.48,0.526 6.94,1.21 10.38,1.96 l 0.11,0.03 c 1.885,0.63 3.976,0.91 5.9,1.406 1.088,0.286 2.17,0.56 3.25,0.86 2.378,0.65 4.74,1.34 7.09,2.097 1.498,0.49 2.99,0.98 4.476,1.52 0.396,0.13 2.257,1.08 2.524,0.887 0.74,-0.527 4.895,-3.42 8.17,-4.05 3.593,-0.688 6.95,-2.044 6.95,-6.067 -0.348,-4.205 -3.68,-8.57 -7.316,-11.48 M 162.23,154.27 c 0,0 1.247,0.7 1.323,2.39 0.07,1.683 -0.345,2.42 0.07,3.58 0.4,1.15 -0.28,1.955 -1.898,2.9 0,0 -1.635,0.342 -3.263,0.21 0,0 1.222,0.604 1.76,0.676 0,0 -1.76,1.488 -4.274,0.878 0,0 -3.04,1.826 -5.356,1.493 -2.306,-0.334 -2.84,-1.284 -2.84,-1.284 0,0 2.746,-0.495 4.707,-0.768 0,0 -3.58,-0.823 -4.74,-1.49 0,0 0.36,-1.665 1.12,-2.41 0.74,-0.755 0.57,-0.935 0.57,-0.935 0,0 -2.95,-0.692 -4.03,-1.093 0,0 3.46,-0.524 4.54,-0.926 0,0 -0.42,-0.83 0.94,-1.91 1.36,-1.08 2.51,-2.16 3.05,-2.77 0.55,-0.61 3.19,-0.67 4.68,-0.27 1.493,0.415 1.485,0.415 2.3,0.415 0.82,0 4.29,-0.333 4.29,-0.333 0,0 -0.69,1.07 -2.96,1.67 m 48.992,-8.21 c -0.208,1.78 -2.497,3.36 -3.118,3.76 -0.61,0.41 -1.76,1.22 -2.095,2.37 -0.344,1.148 -1.566,1.89 -2.32,1.966 -0.74,0.06 -1.754,1.14 -1.754,1.14 1.067,0.26 2.56,-0.192 2.76,-0.255 -0.16,0.133 -1.45,1.17 -2.02,1.62 -0.604,0.47 -2.635,0.94 -3.38,0.865 l -3.8,-0.053 c -2.314,-0.08 -4.956,-0.285 -5.75,-1.735 -0.755,-1.375 -1.08,-1.42 -1.106,-1.42 -1.63,0.743 -5.02,0.71 -5.02,0.71 3.26,-1.35 6.055,-4.395 6.055,-4.395 -1.756,0.74 -3.75,1.04 -3.75,1.04 -0.28,-0.474 -0.327,-0.97 -0.268,-1.988 0.07,-1.01 1.023,-1.553 1.023,-1.553 0,0 0.06,-0.54 0.74,-1.42 0.68,-0.88 2.982,-2.09 4.27,-2.17 1.297,-0.07 2.912,-0.74 3.803,-1.344 0.877,-0.61 3.99,-1.894 5.55,-1.767 1.56,0.135 2.18,0.402 2.18,0.402 0.88,-0.06 2.84,-0.403 2.84,-0.403 -2.57,2.03 -4.202,2.77 -4.202,2.77 2.987,-0.34 5.57,-1.55 5.57,-1.55 3.05,0.202 4,1.622 3.79,3.4 m 38.79,-2.62 c -0.132,0.963 -0.82,3.446 -2.14,4.002 -1.316,0.544 -1.67,0.647 -1.67,0.647 v 2.87 c 0,0 -1.964,-1.747 -2.37,-2.31 0,0 -0.53,0.03 -1.91,-0.18 -1.39,-0.207 -3.053,2.14 -5.613,1.935 0,0 -4.21,-0.896 -4.9,-2.624 -0.69,-1.72 -0.42,-3.17 -0.136,-3.66 0,0 1.45,1.87 2.48,2.42 0,0 -0.96,-2.204 -0.96,-3.59 0,0 0.83,-0.61 0.96,-1.24 0.15,-0.62 1.74,-1.584 2.71,-1.79 0.97,-0.205 1.92,0.21 1.92,0.21 0,0 1.14,2.573 1.968,3.54 0,0 -0.35,-5.057 0.06,-6.85 0,0 1.056,2.327 1.61,3.086 0,0 1.158,-0.12 2.823,-0.4 1.66,-0.274 3.105,-0.132 4.077,0.826 0.974,0.97 1.25,2.14 1.105,3.11 m 37.23,2.98 c -1.112,0.92 -2.474,1.458 -2.474,1.458 0,0 0.164,1.14 0.82,1.8 0,0 -1.253,-0.118 -2.297,-0.71 0,0 -0.93,1.04 -1.035,1.472 -0.105,0.43 -1.472,2.17 -2.29,2.77 -0.82,0.592 -2.51,1.244 -2.51,1.244 0,0 1.507,2.156 2.76,3.033 -0.32,-0.136 -4.525,-1.966 -6.25,-3.74 0,0 -0.16,1.31 0.268,1.96 0,0 -2.06,0.93 -4.413,0.38 -2.21,-0.516 -4.414,-2.09 -4.667,-2.28 0.26,0.043 2.305,0.423 3.63,0.423 0,0 -3,-1.464 -3.544,-2.94 -0.55,-1.46 -0.38,-3.15 1.26,-3.91 1.63,-0.76 3.044,-0.645 3.044,-0.645 0,0 3.93,1.84 6.214,2.383 0,0 -2.986,-1.95 -3.756,-3.21 0,0 2.123,0.06 2.72,-0.32 0.597,-0.383 1.03,-1.352 2.18,-1.742 1.144,-0.376 2.344,-0.49 2.344,-0.49 0,0 -1.09,-0.6 -1.36,-0.925 0,0 2.237,0.593 2.95,0.593 0,0 1.964,0.11 2.826,0.22 0.88,0.108 2.512,-0.44 3.88,-0.01 1.364,0.45 0.82,2.25 -0.3,3.176 m 28.31,6.8 c 0,0 -1.375,-0.34 -1.91,-0.522 0.103,0.15 0.917,1.325 1.114,1.966 0,0 -1.25,0.82 -2.21,1.036 -0.954,0.223 -1.23,0.48 -1.753,1.07 -0.525,0.6 -1.854,1.323 -3.18,1.126 -1.266,-0.187 -3.8,-0.93 -4.01,-0.98 0.14,0.14 1.266,1.232 1.768,2.1 0,0 -1.45,0.72 -3.84,1.06 0,0 -2.173,0 -3.1,-0.266 -0.933,-0.267 -1.78,-0.737 -1.854,-1.32 -0.07,-0.594 0.464,-1.255 0.464,-1.255 0,0 1.91,0.73 3.04,0.923 0,0 -2.84,-2.635 -3.843,-3.37 0,0 1.99,0.33 3.18,0.735 0,0 -0.14,-0.734 -0.6,-1.52 -0.46,-0.783 0.405,-1.577 0.8,-1.78 0.393,-0.2 2.245,-0.92 2.712,-1.243 0,0 -1.19,-0.99 -2.525,-1.72 0,0 2.583,0.27 3.904,0.658 0,0 1.063,0.074 2.19,-0.39 1.122,-0.466 1.52,-0.466 2.442,-0.33 0.922,0.136 1.034,0.396 1.642,0.453 0.604,0.07 1.2,0.015 1.2,0.015 0,0 -0.4,-0.535 -1.39,-0.93 0,0 2.125,0.27 3.11,0.93 0,0 1.716,0.297 2.708,1.26 1,0.966 -0.06,2.296 -0.06,2.296 m 14.467,11.94 c 0,0 1.74,1.577 2.19,2.43 0,0 -0.895,0.73 -1.178,1.256 -0.28,0.514 -1.06,1.71 -1.922,2.04 0,0 -0.922,1.185 -1.91,1.26 -0.99,0.057 -1.67,-0.164 -2.325,-0.2 -0.66,-0.03 -3.31,0 -5.29,-1.977 0,0 2.83,0.395 3.57,0.395 0,0 -2.52,-1.85 -3.047,-2.64 0,0 0.73,-0.467 0.657,-1.127 -0.06,-0.66 -0.26,-1.26 0.41,-1.975 0,0 2.313,0.795 3.7,0.99 0,0 -1.52,-1.53 -3.04,-2.77 0,0 0.94,-0.097 2.055,0.343 0,0 0.46,-0.094 1.52,-0.945 1.05,-0.853 3.11,-0.63 4.296,0.155 1.19,0.77 2.32,2.358 2.32,2.358 0,0 1.39,0.725 2.31,2.236 0,0 -2.406,-1.566 -4.31,-1.83 m 11.063,-13.53 c -0.07,0.914 -0.73,1.65 -1.86,1.78 -1.125,0.12 -1.785,-0.334 -2.176,0.196 -0.393,0.525 -0.99,1.05 -1.59,1.176 0,0 -3.83,-2.36 -5.497,-3.22 0,0 1.4,1.77 1.73,2.502 0,0 -2.316,0.2 -3.91,-0.46 -1.585,-0.664 -2.656,-1.218 -3.764,-1.7 -1.13,-0.478 -2.315,-2.06 -2.315,-2.06 0,0 1.85,0.854 2.84,1.13 0,0 -1.66,-1.858 -1.72,-2.446 0,0 1.25,-0.33 1.847,-1.06 0.56,-0.68 2.2,-1.127 3.445,-1.186 h 0.262 c 1.26,0 4.37,1.645 5.883,2.765 0,0 -1.32,-1.84 -2.31,-2.767 0,0 2.376,0 2.975,-0.196 0.597,-0.207 1.98,-0.343 2.978,0.125 0.924,0.43 1.453,1.384 1.512,1.51 -0.13,-0.06 -1.108,-0.47 -1.848,-0.65 0,0 0,0.79 1.585,1.912 1.6,1.104 1.98,1.7 1.924,2.63 m 13.698,16.554 c 0,0 -1.59,-0.656 -2.98,-0.656 0,0 -0.625,0.94 -2.097,0.63 -1.48,-0.298 -2.925,-1.423 -2.925,-1.423 0,0 1.33,0.06 2.378,0.06 0,0 -0.463,-0.52 -1.716,-0.786 -1.257,-0.26 -2,-0.478 -2.89,-1.167 0,0 -0.22,0.7 0.374,1.168 0,0 -1.975,0.52 -2.31,-1.452 -0.33,-1.974 -1.46,-1.84 -0.66,-3.293 0.78,-1.424 2.425,-1.435 2.476,-1.435 0,0 -1.413,-0.87 -2.344,-1.4 0,0 3.24,0.86 5.75,2.37 0,0 -0.196,-0.984 -0.79,-1.51 0,0 1.726,-0.527 3.646,0.795 1.905,1.32 1.976,2.5 3.437,3.49 1.453,0.987 0.584,2.51 -0.077,2.9 0,0 0.46,1.19 0.734,1.72 m 10.73,-8.944 -2.913,-2.55 c 0,0 1.056,2.49 1.222,3.026 0,0 -2.04,0.07 -3.14,-0.78 -1.113,-0.853 -2.7,-1.866 -2.282,-1.866 l 0.91,0.093 c 0,0 -1.26,-1.518 -3.42,-1.64 0,0 -1.316,0.302 -2.82,-0.466 -1.51,-0.77 -2.14,-1.56 -2.14,-1.56 0,0 -0.83,-0.907 -0.98,-2.084 0,0 1.477,1.03 2.205,1.32 0,0 -1.31,-1.85 -1.31,-2.96 0,0 0.934,-0.186 2.095,0.256 1.184,0.448 1.51,0.096 1.51,0.096 0,0 -0.516,-0.66 -0.712,-1.324 0,0 1.49,1.23 2.12,1.51 0,0 1.834,-0.568 3.234,0.03 1.39,0.597 2.97,2.14 3.22,2.426 0.24,0.272 1.177,0.972 1.3,1.062 -0.1,-0.13 -0.83,-1.107 -1.03,-1.874 0.115,0.072 1.04,0.667 1.453,0.87 0.435,0.228 1.284,1.114 1.45,1.678 0.154,0.574 -0.77,1.488 -0.77,1.488 0,0 1.21,1.547 1.21,2.17 l -0.41,1.07 m 2.293,3.35 c 0.85,-0.22 1.27,-0.22 1.602,-0.185 0,0 0.04,-0.52 -0.375,-0.973 0,0 2.426,1.454 3.55,2.62 l -0.3,-1.05 c 0,0 1.94,0.487 2.84,1.35 0.9,0.856 1.34,1.82 1.6,2.265 0.26,0.454 0.975,1.948 0.68,2.39 -0.304,0.45 -0.745,0.45 -0.745,0.45 0,0 -2.7,-1.603 -3.41,-1.944 0,0 1.35,2.087 1.54,2.577 0,0 -2.32,-0.343 -2.923,-1.16 0,0 -2.61,-0.63 -3.554,-1.26 -0.926,-0.635 -1.685,-1.604 -1.685,-2.132 0,0 1.508,0.71 2.26,1.048 0,0 -2.028,-2.43 -2.658,-3.013 0.005,0 0.707,-0.75 1.58,-0.975"
       id="path8"
       inkscape:connector-curvature="0"
       style="fill:#d7a22a" />
    <path
       d="m 370.963,210.69 c -1.843,3.782 -11.596,-1.295 -22.07,-2.233 -10.46,-0.936 -24.546,3.115 -24.546,3.115 l 0.337,-0.276 c 1,-0.737 2.098,-1.336 3.21,-1.888 0.926,-0.463 1.868,-0.9 2.81,-1.314 3.332,-1.43 6.807,-2.573 10.338,-3.408 h 0.02 c 2.784,-0.648 5.58,-1.077 8.148,-1.112 7.45,-0.087 17.865,2.048 20.978,4.817 0.83,0.74 1.152,1.52 0.775,2.3"
       id="path10"
       inkscape:connector-curvature="0"
       style="fill:#000000" />
    <path
       d="m 367.11,215.288 c 0,0 -0.105,1.87 1.03,3.645 1.14,1.754 3.534,3.918 3.534,3.918 l -2.043,-0.29 c -2.74,-0.39 -5.5,-0.7 -8.25,-0.95 -1.27,-0.12 -2.54,-0.21 -3.82,-0.29 -0.24,-0.02 -4.59,-0.22 -5.09,-0.23 -4.41,-0.11 -8.87,0.08 -13.27,0.08 h -0.22 c -1.47,-1.98 -7.01,-9.87 -14.63,-9.59 0,0 14.09,-4.05 24.55,-3.12 10.47,0.95 20.23,6.02 22.07,2.24 0.39,-0.79 0.06,-1.56 -0.77,-2.3 l 0.14,0.05 c 0,0 2.24,1.65 1.74,3.67 -0.42,1.68 -2.083,3.01 -4.95,3.18"
       id="path12"
       inkscape:connector-curvature="0"
       style="fill:#9f792c" />
    <path
       d="m 363.814,243.293 c -1.61,0.74 -3.238,1.415 -4.923,1.993 -0.82,0.282 -1.64,0.533 -2.48,0.763 -2.97,0.8 -5.96,1.11 -9.02,1.29 l -0.34,-0.02 0.07,-0.23 0.07,-0.41 c 0.19,-1.83 -1.77,-3.19 -1.77,-3.19 l -0.063,-0.04 -0.17,-0.08 -0.077,-0.03 c -1.264,-0.595 -2.54,-1.175 -3.83,-1.75 -2.226,-1 -4.464,-1.954 -6.724,-2.87 l -1.3,-0.527 -0.96,-0.394 c -5.197,-2.05 -10.46,-3.913 -15.786,-5.617 -3.21,-1.036 -6.43,-2 -9.66,-2.917 l -1.55,-0.44 c -5.438,-1.56 -11.4,-3.14 -17.88,-4.694 -4.255,-3.98 -8.448,-7.973 -12.94,-11.633 29.9,7.933 50.362,16.694 60.763,21.7 3.7,1.72 6.225,3.01 7.5,3.706 1.158,0.35 2.78,0.542 3.61,-0.626 1.728,-2.43 -1.22,-4.51 -1.22,-4.51 0,0 -26.224,-13.824 -75.44,-23.917 -4.86,-3.435 -9.99,-6.31 -15.04,-9.42 -1.74,-1.062 -3.54,-2.19 -5.04,-3.595 -0.76,-0.706 -1.58,-1.605 -1.68,-2.694 v -0.63 l 0.01,-0.04 0.062,-0.403 0.03,-0.122 0.03,-0.094 0.117,-0.34 0.08,-0.195 c 0.44,-1.025 1.237,-1.966 2.037,-2.624 l 0.35,-0.31 0.24,-0.21 0.32,-0.266 0.34,-0.288 0.02,-0.01 0.127,-0.11 0.07,-0.06 0.018,-0.022 0.1,-0.08 0.05,-0.035 0.053,-0.007 h 0.006 l 0.013,-0.01 0.302,-0.077 0.45,-0.11 c 2.1,-0.52 4.33,-1.055 6.59,-1.42 0.76,-0.12 1.515,-0.215 2.27,-0.3 0.81,2.64 4.43,6.538 4.43,6.538 -1.716,0.125 -3.913,-0.485 -3.913,-0.485 3.18,4.26 11.987,9.62 18.83,10.96 6.853,1.334 13.078,1.09 13.078,1.09 -0.97,0.494 -2.565,1.106 -2.565,1.106 0,0 2.686,-0.126 6.35,0.6 0.476,0.1 0.99,0.225 1.547,0.373 2.44,0.623 5.44,1.627 7.2,2.244 l 0.57,0.2 0.03,0.007 0.02,0.01 c 0.556,0.36 1.08,0.71 1.598,1.07 3.056,2.03 5.968,4.285 8.74,6.67 0.81,0.688 1.598,1.39 2.38,2.097 1.256,1.156 2.39,2.403 3.63,3.56 -0.103,-0.087 -0.125,-0.564 -0.166,-0.704 l -0.28,-0.803 -0.67,-1.66 c -0.465,-1.1 -0.99,-2.18 -1.56,-3.23 -1.147,-2.11 -2.46,-4.13 -3.89,-6.06 -0.808,-1.085 -1.65,-2.157 -2.53,-3.196 -0.64,-0.74 -1.31,-1.46 -1.98,-2.19 -0.53,-0.588 -1.188,-1.645 -1.978,-1.905 l -0.025,-0.01 -0.047,-0.02 c 0.654,0.02 1.263,0.07 1.85,0.144 l 0.57,0.068 0.75,0.13 c 0.646,0.106 1.243,0.265 1.81,0.445 l 0.63,0.203 0.596,0.223 c 0.394,0.15 0.762,0.325 1.113,0.5 l 0.52,0.27 0.48,0.282 0.465,0.3 0.426,0.31 0.25,0.185 0.484,0.393 0.52,0.47 0.276,0.273 c 0.746,0.75 1.317,1.53 1.77,2.26 l 0.227,0.42 c 0.554,0.985 0.87,1.85 1.035,2.4 l 0.06,0.22 0.11,0.41 c 7.62,-0.285 13.15,7.6 14.63,9.583 h 0.063 l -0.054,0.012 0.04,0.02 c 1.224,0.646 2.426,1.324 3.62,2.016 l 0.64,0.387 0.9,0.53 c 1.04,0.61 2.093,1.227 3.118,1.885 2.77,1.73 5.678,3.585 8.04,5.906 -0.43,-0.01 -0.88,0.05 -1.296,0.153 l -1.245,0.34 c 2.93,2.06 5.6,4.48 7.97,7.13 0.3,0.35 2.947,3.77 3.028,3.77"
       id="path14"
       inkscape:connector-curvature="0"
       style="fill:#d7a22a" />
    <path
       d="m 330.628,332.558 -4.82,-3.124 -0.63,-6.914 c -0.004,0 6.83,4.453 5.45,10.038 m -16.3,-15.166 c 0,0 -3.84,14.906 -21.746,24.502 0,0 -13.65,-4.613 -21.118,-21.717 -6.032,-13.82 -0.28,-39.712 -8.364,-54.357 -5.356,-9.73 -14.85,-11.994 -14.85,-11.994 0,0 5.913,-3.373 18.222,0.592 20.263,6.53 22.472,32.95 22.797,38.376 0.63,10.66 2.47,24.44 9.51,28.177 0,0 -4.15,-5.71 -4.27,-19.2 -0.37,-40.13 -14.3,-45.8 -14.3,-45.8 0,0 17.01,2.79 21.58,17.13 4.56,14.37 -2.8,36.38 12.52,44.3 m 89.03,-80.8 c -0.6,5.37 -8.978,13.12 -8.978,13.12 -1.2,-2.97 -5.678,-10.12 -5.678,-10.12 0,0 1.2,-2.99 -3.298,-6.87 -4.48,-3.87 -16.75,-3.87 -16.75,-3.87 0,0 3.31,-1.873 7.48,-1.495 10.97,1 27.22,9.25 27.22,9.25"
       id="path16"
       inkscape:connector-curvature="0"
       style="fill:#006778" />
    <path
       d="m 128.97,153.927 c 0.144,0.225 0.043,0.48 -0.113,0.606 l -0.055,0.03 c -0.107,0.064 -0.41,0.097 -0.78,0.125 -0.547,-0.06 -1.85,-0.326 -2.416,-0.234 l 0.62,0.534 c -0.002,0 -1.417,0.555 -1.74,1.133 0,0 -1.173,-0.12 -2.02,0.18 -0.496,0.17 -0.713,0.39 -0.972,0.56 l -0.577,0.22 -0.156,0.02 c -0.79,0.05 -1.43,-0.35 -1.43,-0.35 l 0.29,0.6 c 0,0 -2.28,0 -2.79,0.774 -1.85,-0.93 -3.72,-1.796 -5.62,-2.632 -1.78,-0.77 -3.59,-1.51 -5.41,-2.213 -3.66,-1.41 -7.39,-2.674 -11.15,-3.8 -1.12,-0.337 -2.23,-0.66 -3.36,-0.96 -0.82,-0.22 -1.66,-0.447 -2.49,-0.633 h 0.06 c 1.53,0 3.04,-0.04 4.568,-0.13 10.277,-0.635 20.57,-0.394 30.856,-0.94 1.87,-0.102 3.747,-0.22 5.614,-0.353 -0.31,0.385 -0.72,1.015 -0.184,1.196 0,0 1.04,0.34 2.34,0.43 1.23,0.088 2.603,0 2.603,0 0,0 -5.03,2.34 -5.632,2.51 -0.61,0.17 -1.4,0.954 -1.4,0.954 l -0.04,0.03 -0.09,0.08 -0.05,0.042 -0.09,0.09 -0.63,0.29 c -0.247,0.152 -1.2,0.203 -1.2,0.203 0,0 1.142,0.482 1.634,0.39 l 0.02,0.044 c 0.014,0.084 0.062,0.395 0.534,0.605 0.414,0.18 1.013,0.37 1.28,0.614 m 43.502,25.727 -0.816,0.424 c -1.777,1.1 -3.598,2.13 -5.494,3.014 l -0.084,0.048 c -0.63,0.297 -1.264,0.588 -1.906,0.86 l -0.04,0.02 -0.05,0.025 c -1.725,0.76 -3.49,1.43 -5.247,2.06 -1.387,0.49 -2.79,0.94 -4.217,1.34 -10.087,2.934 -16.235,2.864 -16.235,2.864 0.682,0.31 1.6,0.585 2.44,0.77 3.034,0.68 10.3,1.316 10.64,1.43 l -0.234,0.124 -0.174,0.088 c -7.56,3.19 -15.71,4.62 -23.91,4.29 -14.945,-0.62 -22.963,-4.766 -23.24,-5.075 0,0 4.197,-0.67 6.63,-1.48 0,0 -11.1,-3.646 -15.293,-6.34 l 5.965,0.126 c -1.625,-1.28 -3.11,-2.565 -4.484,-3.762 -7.91,-6.86 -13.15,-15.81 -12.19,-19.84 -3.074,-4.107 -7.45,-5.18 -7.45,-5.18 13.313,-1.225 25.637,3.865 38.653,11.976 5.454,3.395 9.64,7.287 14.51,10.38 -3.21,0.53 -10.263,0.946 -23.614,-1.39 0,0 7.724,4.9 22.333,6.724 8.895,1.094 17.577,0.86 23.547,0.437 6.94,-0.492 13.495,-1.37 19.944,-3.922 m 264.09,63.22 c -0.155,1.697 -0.5,3.5 -1.063,5.41 -0.6,1.98 -1.044,4.146 -3.438,4.275 -1.73,0.095 -3.46,-0.09 -5.2,-0.193 -1.01,-0.064 -3.03,-0.372 -3.6,0.757 -1.71,3.39 5.05,3.21 6.807,3.27 h 0.776 c -7.15,7.86 -18.707,9.93 -19.425,10.06 l -0.043,0.01 -0.32,-0.446 c -1.85,-2.358 -7.514,-7.21 -19.04,-8.485 l -0.08,-0.016 c 0.565,-0.82 1.2,-1.625 1.87,-2.41 4.79,-5.47 12.27,-10.058 20.42,-14 11.37,-5.497 15.7,-16.297 15.7,-16.297 0,0 1.56,1.32 3.18,3.823 -0.496,1.44 -1.716,3.646 -4.733,5.818 0,0 -2.04,1.216 -1.3,2.62 0.733,1.43 2.343,0.946 3.17,0.477 0.55,-0.304 2.115,-1.3 3.375,-3.434 0.57,-0.854 0.974,-1.62 1.213,-2.2 0.75,1.71 1.35,3.74 1.636,6.04 0.03,0.28 -0.906,1.03 -1.08,1.2 -0.644,0.62 -1.347,1.16 -2.088,1.65 -2.056,1.38 -4.296,2.25 -6.58,3.18 -0.805,0.33 -2.08,1.11 -2.25,2.03 -0.278,1.506 1.796,1.825 2.862,1.664 l 0.27,-0.043 c 1.553,-0.28 6.304,-1.416 8.95,-4.77 m -93.14,100.64 c -3.623,0.26 -6.162,-2.502 -6.162,-2.502 -9.17,-1.242 -19.6,0.69 -19.6,0.69 0,0 -5.38,5.665 -13,6.645 -7.623,0.97 -7.537,-2.443 -7.12,-3.38 0.41,-0.957 3.97,-2.68 10.46,-9.41 6.492,-6.733 12.122,-20.507 12.122,-20.507 1.525,4.477 2.137,9.28 1.65,13.99 -0.136,1.37 -0.373,2.73 -0.702,4.067 -0.547,2.175 -1.304,4.235 -2.302,6.24 1.247,-2.5 3.994,-4.538 6.368,-5.938 0.82,0.983 1.51,2.07 2.18,3.163 0.12,0.22 1.32,1.866 1.195,2.096 1.183,-2.2 7.14,-6.208 7.14,-6.208 1.435,1.4 2.603,4.233 2.603,4.233 4.894,-3.587 15.76,-20.92 15.76,-20.92 0.563,13.354 -6.976,27.494 -10.6,27.744 m 62.875,-70.36 c -0.872,3.9 -14.39,18.25 -21.473,20.91 0,0 6.05,-9.675 7.94,-19.64 -1.708,1.43 -4.348,3.32 -7.3,4.28 0,0 0.21,-4.88 -1.08,-7.21 0,0 -3.74,3.774 -7.93,6.37 0,0 -2.61,-4.177 -3.26,-7.26 -3.024,4.59 -7.99,10.96 -13.994,14.05 0,0 0.33,-4.22 -0.73,-10.22 5.647,-1.36 10.76,-3 14.637,-4.35 2.606,-1.46 7.03,-2.86 8.087,-2.94 0.14,-0.02 3.703,-0.76 3.33,1.83 0,0 4.425,-3.4 8,-2.194 1.182,0.41 1.816,1.02 2.15,1.704 1.75,-1.12 4.89,-2.785 7.44,-2.2 3.754,0.847 5.04,2.967 4.184,6.87 m -48.12,1.35 c -0.137,0.4 -0.36,1.02 -0.66,1.77 -2.84,5.076 -12.106,19.22 -29.745,24.153 0,0 10.88,-11.03 9.672,-23.25 6.89,0.08 14.16,-1.11 20.725,-2.675"
       id="path18"
       inkscape:connector-curvature="0"
       style="fill:#ffffff" />
    <path
       d="m 365.508,159.236 -2.916,-2.55 c 0,0 1.056,2.493 1.222,3.025 0,0 -2.034,0.07 -3.137,-0.78 -1.108,-0.85 -2.7,-1.86 -2.282,-1.86 l 0.908,0.1 c 0,0 -1.26,-1.51 -3.42,-1.63 0,0 -1.315,0.3 -2.824,-0.46 -1.51,-0.773 -2.14,-1.56 -2.14,-1.56 0,0 -0.83,-0.91 -0.98,-2.086 0,0 1.47,1.035 2.2,1.32 0,0 -1.32,-1.855 -1.32,-2.96 0,0 0.932,-0.18 2.1,0.26 1.18,0.443 1.502,0.093 1.502,0.093 0,0 -0.516,-0.66 -0.71,-1.33 0,0 1.49,1.237 2.12,1.517 0,0 1.837,-0.57 3.234,0.03 1.393,0.6 2.967,2.14 3.22,2.43 0.234,0.27 1.173,0.97 1.296,1.055 -0.1,-0.124 -0.83,-1.1 -1.033,-1.868 0.12,0.07 1.04,0.663 1.46,0.87 0.433,0.23 1.29,1.11 1.45,1.68 0.152,0.57 -0.77,1.483 -0.77,1.483 0,0 1.21,1.542 1.21,2.17 0,0.623 -0.41,1.067 -0.41,1.067 m 11.9,9.76 c -0.3,0.453 -0.746,0.453 -0.746,0.453 0,0 -2.698,-1.604 -3.41,-1.94 0,0 1.355,2.084 1.54,2.574 0,0 -2.324,-0.346 -2.923,-1.15 0,0 -2.61,-0.644 -3.552,-1.274 -0.93,-0.634 -1.69,-1.603 -1.69,-2.13 l 2.253,1.05 c 0,0 -2.02,-2.433 -2.65,-3.015 0,0 0.694,-0.756 1.57,-0.983 0.853,-0.212 1.27,-0.212 1.6,-0.18 0,0 0.043,-0.52 -0.367,-0.97 0,0 2.423,1.45 3.544,2.613 l -0.3,-1.05 c 0,0 1.94,0.49 2.84,1.35 0.894,0.86 1.344,1.83 1.605,2.27 0.27,0.455 0.98,1.943 0.68,2.382 m -31.06,68.31 c -0.84,1.172 -2.466,0.975 -3.618,0.625 -1.278,-0.683 -3.8,-1.983 -7.496,-3.704 -10.408,-5.004 -30.877,-13.76 -60.77,-21.697 -10.288,-2.73 -21.667,-5.364 -34.147,-7.71 -7.8,-1.462 -15.02,-2.65 -21.71,-3.59 6.826,0.653 14.2,1.506 22.17,2.637 10.38,1.482 20,3.184 28.89,5.002 49.236,10.096 75.45,23.92 75.45,23.92 0,0 2.954,2.085 1.228,4.516 m -57.53,-59.18 c 0,0 -1.443,-0.924 -2.26,-1.15 0.168,0.165 1.818,1.86 0.895,2.07 0,0 -0.83,-0.96 -2.33,-1.63 -1.5,-0.67 -4.25,-2.02 -5.08,-2.76 -0.77,-0.7 -1.273,-2.184 -1.323,-2.366 0.09,0.12 0.547,0.726 0.962,0.8 0.41,0.07 1.624,0.86 1.782,0.96 -0.05,-0.13 -0.475,-1.145 -0.967,-1.554 -0.52,-0.46 -1.79,-1.05 -2.467,-1.87 l 0.744,-0.22 c 0,0 0.21,-1.46 -0.126,-2.905 l -0.03,-0.154 c -0.373,-1.493 -0.2,-2.355 0.174,-2.66 0,0 2.51,0.09 3.257,0.356 -0.27,-0.12 -1.394,-0.692 -2.14,-1.276 0.03,-0.015 0.22,-0.07 0.36,-0.365 0.15,-0.325 0.077,-1.047 0.746,-1.19 0.67,-0.154 1.875,0.443 2.17,0.596 0.304,0.14 1.995,1.205 2.53,1.46 0.314,0.15 0.446,0.66 0.494,1.1 1.596,0.45 3.173,0.9 4.753,1.38 l 0.09,0.07 0.015,0.01 0.06,0.04 c -0.94,-0.222 -2.88,-0.49 -3.79,-0.61 -0.27,0.265 -0.87,0.86 -1.12,1.17 0,0 -0.542,0.71 -0.862,2.53 -0.1,0.59 0.23,1.94 0.83,2.46 0.59,0.52 2.47,2.237 2.76,3.05 0.31,0.83 -0.234,2.104 -0.113,2.66 m -1.57,-31.71 c -1.118,0.914 -2.48,1.45 -2.48,1.45 0,0 0.162,1.142 0.814,1.804 0,0 -1.25,-0.11 -2.29,-0.71 0,0 -0.93,1.04 -1.038,1.47 -0.115,0.43 -1.48,2.178 -2.29,2.777 -0.82,0.598 -2.515,1.248 -2.515,1.248 0,0 1.5,2.156 2.76,3.037 -0.327,-0.13 -4.53,-1.97 -6.25,-3.74 0,0 -0.16,1.314 0.27,1.96 0,0 -2.068,0.93 -4.42,0.384 -2.204,-0.514 -4.415,-2.09 -4.668,-2.277 0.26,0.04 2.305,0.42 3.63,0.42 0,0 -3,-1.464 -3.54,-2.936 -0.55,-1.46 -0.385,-3.15 1.26,-3.91 1.63,-0.767 3.044,-0.65 3.044,-0.65 0,0 3.93,1.84 6.21,2.387 0,0 -2.982,-1.96 -3.754,-3.21 0,0 2.13,0.06 2.73,-0.32 0.59,-0.38 1.02,-1.357 2.174,-1.745 1.14,-0.378 2.34,-0.49 2.34,-0.49 0,0 -1.09,-0.597 -1.362,-0.927 0,0 2.243,0.593 2.95,0.593 0,0 1.966,0.114 2.83,0.227 0.876,0.106 2.515,-0.44 3.877,-0.014 1.37,0.45 0.82,2.25 -0.295,3.173 m 21.27,21.43 c -0.396,0.834 -2.49,2.11 -3.674,2.514 l -0.15,-0.26 -0.11,-0.165 c -0.236,-0.36 -0.66,-0.877 -1.26,-1.29 l 0.052,0.193 0.06,0.2 0.04,0.176 0.046,0.153 0.163,0.724 0.09,0.6 -0.606,0.384 c -0.492,0.34 -1.212,0.877 -1.87,1.53 -0.514,0.49 -0.992,1.05 -1.32,1.643 -1.04,1.914 -0.96,3.367 -0.96,3.367 0,0 -0.9,-0.378 -1.71,-1 0,0 0.41,1.722 1.88,2.46 0,0 0.836,1.1 0.48,1.93 0,0 -2.57,-0.208 -3.173,-0.69 -0.6,-0.497 -2.5,-1.18 -2.5,-1.18 0,0 0.64,-0.105 1.314,-0.06 0,0 -0.682,-1.68 -1.35,-2.24 -0.66,-0.56 -2,-1.58 -1.695,-2.87 0,0 1.57,0.11 2.32,0.41 0,0 -2.473,-2.146 -3.99,-2.485 l 2.07,-0.117 c 0,0 -0.29,-1.46 2.35,-2.74 2.65,-1.28 3.46,-2.09 4.02,-2.91 0.55,-0.83 0.774,-1.67 1.467,-2.16 0,0 1.295,0.73 2.31,1.5 0,0 -0.582,-1.74 -2.452,-3.02 0,0 1.575,0.206 2.72,0.6 0,0 1.575,-0.78 2.743,-0.65 1.17,0.114 3.275,1.21 3.477,1.88 0.18,0.662 -0.4,2.73 -0.783,3.57 m 7.034,-14.63 c 0,0 -1.37,-0.34 -1.906,-0.526 0.106,0.15 0.924,1.33 1.117,1.968 0,0 -1.253,0.824 -2.216,1.04 -0.96,0.222 -1.23,0.484 -1.752,1.066 -0.525,0.604 -1.86,1.32 -3.18,1.13 -1.27,-0.185 -3.8,-0.93 -4.01,-0.98 0.138,0.134 1.266,1.233 1.768,2.1 0,0 -1.446,0.72 -3.84,1.06 0,0 -2.17,0 -3.1,-0.27 -0.93,-0.264 -1.783,-0.73 -1.855,-1.318 -0.065,-0.598 0.464,-1.26 0.464,-1.26 0,0 1.913,0.73 3.043,0.926 0,0 -2.845,-2.637 -3.845,-3.37 0,0 1.99,0.33 3.18,0.733 0,0 -0.137,-0.738 -0.595,-1.52 -0.466,-0.787 0.4,-1.58 0.794,-1.787 0.4,-0.196 2.25,-0.916 2.713,-1.24 0,0 -1.19,-0.99 -2.527,-1.72 0,0 2.58,0.265 3.904,0.655 0,0 1.067,0.077 2.19,-0.39 1.13,-0.46 1.52,-0.46 2.45,-0.33 0.918,0.137 1.03,0.397 1.638,0.45 0.61,0.074 1.206,0.015 1.206,0.015 0,0 -0.4,-0.538 -1.39,-0.93 0,0 2.125,0.27 3.11,0.925 0,0 1.715,0.3 2.71,1.27 1,0.96 -0.064,2.29 -0.064,2.29 m 38.5,13.243 c 0,0 0.46,1.19 0.734,1.72 0,0 -1.59,-0.656 -2.984,-0.656 0,0 -0.62,0.94 -2.096,0.627 -1.48,-0.294 -2.924,-1.417 -2.924,-1.417 0,0 1.323,0.057 2.372,0.057 0,0 -0.466,-0.52 -1.72,-0.784 -1.254,-0.26 -2,-0.477 -2.886,-1.166 0,0 -0.22,0.697 0.372,1.165 0,0 -1.984,0.514 -2.315,-1.46 -0.33,-1.977 -1.46,-1.84 -0.66,-3.298 0.78,-1.424 2.423,-1.435 2.474,-1.435 0,0 -1.415,-0.87 -2.346,-1.397 0,0 3.24,0.86 5.75,2.37 0,0 -0.197,-0.99 -0.79,-1.51 0,0 1.725,-0.53 3.64,0.79 1.91,1.32 1.984,2.5 3.445,3.49 1.45,0.986 0.58,2.513 -0.08,2.9 m -21.84,1.125 c 0,0 -0.887,0.734 -1.18,1.26 -0.28,0.51 -1.05,1.703 -1.92,2.033 0,0 -0.923,1.19 -1.908,1.26 -0.998,0.058 -1.667,-0.16 -2.328,-0.2 -0.657,-0.03 -3.307,0 -5.29,-1.98 0,0 2.838,0.4 3.57,0.4 0,0 -2.52,-1.846 -3.044,-2.634 0,0 0.73,-0.46 0.66,-1.126 -0.06,-0.66 -0.27,-1.255 0.404,-1.974 0,0 2.312,0.79 3.7,0.983 0,0 -1.516,-1.525 -3.045,-2.77 0,0 0.946,-0.09 2.06,0.35 0,0 0.455,-0.09 1.516,-0.94 1.05,-0.857 3.115,-0.634 4.295,0.15 1.194,0.773 2.32,2.36 2.32,2.36 0,0 1.4,0.72 2.32,2.23 0,0 -2.41,-1.568 -4.317,-1.835 0,0.003 1.74,1.575 2.19,2.43 m 8.875,-15.96 c -0.07,0.916 -0.737,1.65 -1.86,1.783 -1.126,0.12 -1.784,-0.333 -2.177,0.2 -0.4,0.52 -0.99,1.047 -1.597,1.17 0,0 -3.83,-2.36 -5.492,-3.22 0,0 1.398,1.778 1.727,2.51 0,0 -2.31,0.2 -3.902,-0.455 -1.59,-0.663 -2.655,-1.22 -3.77,-1.702 -1.125,-0.475 -2.31,-2.06 -2.31,-2.06 0,0 1.85,0.857 2.84,1.13 0,0 -1.66,-1.857 -1.712,-2.443 0,0 1.243,-0.33 1.844,-1.06 0.56,-0.68 2.2,-1.125 3.44,-1.18 h 0.27 c 1.26,0 4.37,1.644 5.885,2.764 0,0 -1.315,-1.84 -2.306,-2.765 0,0 2.376,0 2.97,-0.2 0.595,-0.21 1.982,-0.345 2.98,0.123 0.922,0.43 1.45,1.388 1.506,1.515 -0.122,-0.06 -1.1,-0.47 -1.845,-0.654 0,0 0,0.793 1.59,1.917 1.595,1.103 1.988,1.7 1.928,2.63 M 218.91,255.01 c 0,0 1.275,2.565 1.38,4.737 0.09,2.168 -1.682,2.86 -3.46,3.55 -1.78,0.683 -3.765,0.296 -4.353,-0.09 -0.594,-0.406 -1.59,-0.3 -1.59,-0.3 0.592,-0.8 3.076,-2.473 3.076,-2.473 -2.388,0.203 -4.566,1.673 -4.566,1.673 0,0 -3.752,0.6 -5.73,0.6 -1.976,0 -5.037,-1.873 -5.037,-1.873 -1.19,0 -2.872,0.886 -2.872,0.886 0.886,-1.494 4.746,-4.248 4.746,-4.248 -1.782,0.392 -4.06,1.868 -4.06,1.868 -0.686,-0.687 -4.065,-2.754 -4.947,-3.443 -0.89,-0.69 -1.483,-1.682 -1.19,-3.655 0.3,-1.964 2.568,-2.168 4.64,-2.266 2.097,-0.092 4.958,-0.1 4.958,-0.1 -0.838,0.653 -1.402,1.82 -1.464,1.963 0.42,-0.6 3.53,-2.09 3.53,-2.09 0,0 3.38,-0.96 5.66,-1.95 2.27,-0.98 4.35,-0.78 6.43,0.49 2.09,1.28 4.06,5.23 4.06,5.23 1.58,-0.66 4.11,-1.03 4.42,-1.08 -1.29,0.61 -3.62,2.55 -3.62,2.55 m -48.44,-50.98 c -0.8,0.524 -0.87,1.08 -1.5,1.872 -0.63,0.805 -4.45,0.974 -4.45,0.974 -2.31,-0.79 -5.33,-0.79 -5.33,-0.79 1.516,0.436 3.56,1.06 3.56,1.06 0,0 -2.14,0.354 -3.913,0.18 -1.78,-0.18 -2.76,-2.134 -3.724,-3.46 -0.983,-1.326 0.175,-3.365 0.175,-3.365 -0.54,-0.363 -1.16,-0.534 -1.16,-0.534 1.954,-0.17 5.6,0.09 5.6,0.09 -1.683,-0.53 -3.59,-0.9 -3.59,-0.9 0,0 0.216,-0.96 0.655,-1.94 0.44,-0.965 2.58,-0.704 3.47,-0.615 0.885,0.09 2.042,-0.977 2.682,-1.184 0.64,-0.217 2.65,0.48 3.72,0.833 1.06,0.35 1.154,1.152 1.154,1.152 -0.98,-0.097 -2.41,0.172 -2.41,0.172 l 3.47,0.97 c 0,0 2.32,1.15 2.664,2.307 0.36,1.154 -0.25,2.665 -1.07,3.18 m 20.87,31.07 c -0.622,2.114 -0.12,3.107 -0.12,5.218 0,2.124 -2.62,3 -6.724,3.61 -4.11,0.616 -5.855,-0.74 -5.855,-0.74 l 0.615,-1.38 c -1.373,0.25 -5.362,0.39 -5.362,0.39 2.62,-1.14 5.99,-3.498 5.99,-3.498 -1.61,0.63 -4.964,1.43 -4.964,1.43 0,0 -1.012,-0.715 -2.014,-1.67 -0.7,-0.642 -1.396,-1.403 -1.745,-2.114 -0.88,-1.74 0.615,-4.35 1.24,-5.34 0.63,-1 -0.5,-1.61 -0.5,-1.61 1,-0.76 1.74,-1.99 1.74,-1.99 l -0.05,0.01 c -2.222,0.49 -4.302,0.61 -4.302,0.61 l -0.01,-0.01 c -1.24,-0.99 -1.738,-3.1 -1.49,-4.22 0.25,-1.11 0.742,-2.868 0.742,-2.868 h -0.05 c -0.41,0.046 -0.86,0.013 -1.286,-0.048 -0.726,-0.09 -1.35,-0.27 -1.52,-0.31 l -0.007,-0.01 c 4.72,-0.62 7.09,-2.355 7.09,-2.355 l -0.06,0.006 c -1.256,0.236 -3.42,0.36 -3.42,0.36 v -0.01 c 0.02,-0.13 0.172,-1.386 1.11,-2.012 0.35,-0.233 1.084,-0.233 1.966,-0.11 0.49,0.07 1.03,0.17 1.576,0.31 l 0.776,0.197 c 0.95,0.25 1.86,0.53 2.506,0.746 l 0.04,0.017 c 1.862,0.627 2.75,3.106 2.75,3.106 0.5,1.606 1.29,2.772 2.23,3.64 l 0.033,0.025 c 0.436,0.38 0.9,0.7 1.38,0.985 l 0.59,0.305 0.6,0.275 c 0.595,0.25 1.21,0.44 1.798,0.6 l 1.122,0.26 0.545,0.13 c 0.33,0.07 0.63,0.194 0.91,0.354 0.836,0.48 1.45,1.34 1.86,2.193 l 0.007,0.01 c 0.65,1.33 0.87,2.666 0.87,2.666 -0.87,1.48 -3.24,2.846 -3.24,2.846 1.128,0.256 2.62,0 2.62,0 m -29.1,-80.84 c 0,0 1.247,0.7 1.32,2.39 0.074,1.687 -0.34,2.42 0.074,3.58 0.402,1.157 -0.28,1.955 -1.9,2.9 0,0 -1.633,0.34 -3.267,0.207 0,0 1.23,0.606 1.76,0.683 0,0 -1.765,1.483 -4.27,0.875 0,0 -3.046,1.82 -5.36,1.49 -2.3,-0.337 -2.84,-1.287 -2.84,-1.287 0,0 2.747,-0.495 4.71,-0.77 0,0 -3.587,-0.82 -4.74,-1.49 0,0 0.36,-1.66 1.114,-2.41 0.74,-0.75 0.57,-0.93 0.57,-0.93 0,0 -2.94,-0.69 -4.027,-1.094 0,0 3.46,-0.522 4.55,-0.925 0,0 -0.416,-0.834 0.95,-1.917 1.353,-1.08 2.51,-2.164 3.044,-2.778 0.55,-0.61 3.196,-0.67 4.68,-0.28 1.5,0.42 1.494,0.42 2.31,0.42 0.814,0 4.28,-0.34 4.28,-0.34 0,0 -0.69,1.073 -2.955,1.67 m 184.942,92.44 -0.074,0.4 -0.064,0.23 -0.01,0.02 c -0.09,0.22 -0.2,0.442 -0.357,0.66 -0.816,1.184 -2.44,1 -3.605,0.66 -1.287,-0.67 -3.814,-1.948 -7.536,-3.628 -14.05,-6.59 -46.317,-19.756 -95.215,-28.447 -7.63,-1.36 -14.596,-2.46 -21.158,-3.327 l -0.044,-0.012 -0.208,-0.014 -0.093,-0.02 c 1.216,0.1 2.47,0.213 3.717,0.34 l 0.597,0.044 c 7.13,0.75 14.24,1.552 21.33,2.53 8.95,1.23 17.845,2.74 26.7,4.484 8.06,1.59 16.1,3.57 24.07,5.562 3.36,0.846 6.71,1.73 10.045,2.666 l 1.55,0.44 c 3.23,0.92 6.45,1.89 9.66,2.92 5.32,1.707 10.588,3.57 15.78,5.62 l 0.962,0.39 1.3,0.523 c 2.26,0.917 4.5,1.87 6.73,2.87 1.28,0.58 2.564,1.156 3.827,1.755 l 0.07,0.03 0.17,0.08 0.07,0.037 c 0,0 1.962,1.355 1.78,3.18 M 213.16,214.16 c -0.867,1.32 -4.37,1.775 -6.25,1.545 0,0 -3.51,1.574 -5.513,1.31 -1.995,-0.267 -5.63,-1.626 -5.63,-1.626 0,0 1.12,-0.58 2.213,-0.75 0,0 -0.676,-1.35 -2.308,-2.87 -1.628,-1.55 -3.724,-3.45 -4.086,-4.72 0,0 2.15,-0.9 3.695,-1.26 0,0 -2.59,0.07 -4.04,-0.56 0,0 -0.1,-2.71 0.45,-3.8 0.55,-1.08 0.91,-1.99 0.91,-2.54 0,-0.55 -0.1,-0.5 0.71,-0.77 0.82,-0.278 4.75,-0.956 4.75,-0.956 0,0 -0.362,-0.895 -2.82,-1.26 0,0 2.18,-0.817 4.64,-0.46 2.44,0.36 4.074,3.26 4.894,4.803 0.82,1.53 2.36,3.247 3.363,3.98 1,0.72 4.756,-0.186 4.756,-0.186 0,0 -2.37,2.346 -3.88,2.24 0,0 0.75,2.74 2.02,3.843 1.274,1.07 3.008,2.704 2.14,4.023 m -56.85,17.016 c -1.11,0.87 -3.983,3.235 -5.48,4.97 -1.505,1.74 -3.11,3.6 -6.474,2.725 -3.367,-0.856 -3.876,-5.7 -3.876,-5.7 0.873,-1.24 4.86,-3.1 4.86,-3.1 -2.114,0 -4.802,0.472 -4.802,0.472 0.053,-1.015 0.2,-3.95 0.2,-6.324 0,-2.36 -1.254,-4.59 -1.254,-4.59 0.87,-0.876 3,-1.987 3,-1.987 -4.12,0.62 -6.24,0.125 -6.24,0.125 1.13,0 2.746,-0.877 2.746,-0.877 -0.244,-1.233 0.252,-2.97 0.87,-3.6 0.62,-0.62 2.5,-2.98 3.364,-3.61 0.87,-0.613 3.12,-0.243 5.36,0.13 2.24,0.372 2.613,1.74 2.613,1.74 1.126,0.244 2.25,0.13 2.25,0.13 -1.37,0.99 -4.865,2.1 -4.865,2.1 1.624,0.26 2.996,0.26 2.996,0.26 0,0 0.99,3.606 1.495,5.467 0.225,0.805 0.635,1.474 1.16,2.11 -0.97,0.58 -2.63,1.495 -4.025,1.987 0,0 2.402,-0.07 4.98,-0.955 l 1.626,1.57 c 1.75,1.74 0.627,6.095 -0.503,6.96 m 100.31,-63.607 c 0,0 0.985,1.08 0.805,2.194 -0.17,1.11 -0.558,1.33 -0.878,2.06 -0.304,0.73 -1.25,1.358 -2.23,1.808 0,0 1.27,0.55 2.595,1.323 l -3.502,-0.44 c 0,0 -1.398,0.832 -2.034,1.77 -0.63,0.95 -1.75,1.78 -3.36,1.85 0,0 -2.02,-0.594 -2.825,-0.775 0,0 1.054,0.91 1.47,1.366 0,0 -1.147,0.45 -2.277,0.216 -1.113,-0.25 -3.665,-1.3 -4.44,-1.537 0,0 1.86,0.13 2.423,0.202 0,0 -3.71,-2.966 -4.27,-3.62 0,0 1.6,0.26 2.313,0.44 -0.256,-0.16 -2.35,-1.432 -2.42,-3.094 -0.04,-1.017 0.66,-1.78 1.5,-2.23 0.847,-0.46 1.786,-0.5 2.137,-1.128 0.35,-0.63 0.413,-1.39 0.413,-1.39 0,0 2.75,0.52 3.975,0.805 0,0 -1.084,-1.61 -1.788,-1.89 0,0 0.227,-0.624 1.14,-1.047 0.906,-0.41 2.477,-0.835 3.425,-1.57 0.94,-0.73 1.994,-0.523 2.696,-0.38 0.696,0.135 2.06,0.975 3.67,1.467 0,0 -0.84,-0.707 -1.12,-1.295 0,0 1.75,0.102 2.63,0.485 0.867,0.38 1.315,1.284 0.9,1.956 -0.42,0.66 -0.945,0.73 -0.974,1.184 -0.044,0.45 1.19,1.25 1.71,1.71 -0.003,0 -0.773,-0.26 -1.684,-0.46"
       id="path20"
       inkscape:connector-curvature="0"
       style="fill:#000000" />
    <path
       d="m 287.402,224.16 c -4.25,-3.98 -8.443,-7.973 -12.94,-11.632 -10.287,-2.726 -21.66,-5.364 -34.146,-7.716 -7.796,-1.465 -15.02,-2.644 -21.708,-3.58 6.823,0.645 14.202,1.502 22.17,2.63 10.382,1.484 19.998,3.19 28.9,5.01 -4.856,-3.436 -9.994,-6.304 -15.04,-9.415 -1.747,-1.065 -3.538,-2.19 -5.036,-3.602 -0.764,-0.703 -1.582,-1.602 -1.683,-2.695 v -0.628 l 0.01,-0.035 0.06,-0.403 0.02,-0.124 0.03,-0.097 0.11,-0.334 0.08,-0.2 c 0.44,-1.03 1.24,-1.97 2.034,-2.63 l 0.356,-0.31 0.243,-0.21 0.32,-0.27 0.34,-0.29 0.02,-0.01 0.125,-0.107 0.07,-0.065 0.017,-0.027 0.1,-0.08 0.27,-0.56 c 6.868,-12.28 24.045,-15.42 24.045,-15.42 -1.78,-2.48 -3.88,-3.83 -3.88,-3.83 2.32,-0.807 5.218,-0.306 6.33,-0.06 l -0.033,-0.15 c -0.368,-1.492 -0.195,-2.354 0.18,-2.656 0,0 2.51,0.085 3.25,0.35 -0.27,-0.125 -1.394,-0.69 -2.14,-1.274 -2.885,-0.69 -5.8,-1.33 -8.7,-1.886 -11.784,-2.28 -23.85,-3.16 -35.82,-3.6 -2.135,-0.08 -4.275,-0.132 -6.418,-0.132 1.624,0.693 2.96,2.128 3.855,3.63 -2.383,-0.174 -4.78,-0.31 -7.166,-0.41 1.105,0.38 1.87,0.75 2.066,0.844 0,0 -1.98,-0.3 -3.325,-0.33 0,0 0.67,0.37 1.046,0.782 0,0 0.07,0.783 -0.04,1.225 -0.104,0.454 -0.334,1.12 -0.073,1.864 0.26,0.75 1.016,2.417 1.13,3.016 0,0 -2.293,-0.19 -3.632,-0.22 0,0 3.704,1.79 4.834,2.47 0,0 -0.76,-0.04 -1.24,0 0,0 -1.27,0.745 -1.526,1.224 -0.274,0.49 0,2.69 -1.244,3.656 -1.228,0.963 -2.878,0.744 -3.39,1.34 -0.53,0.593 0.3,1.415 0.3,1.415 0,0 -2.686,-0.602 -3.51,-0.676 0,0 1.276,1.283 2.093,1.88 0,0 -1.057,-0.234 -2.14,-0.09 -1.087,0.15 -4.448,0.41 -6.256,-1 -1.793,-1.423 -0.856,-2.54 -0.443,-2.983 0.415,-0.44 0.52,-1.004 -0.67,-2.384 -1.195,-1.385 -1.012,-1.385 -0.784,-2.126 0,0 4.187,0.01 5.68,0.424 0,0 -4.08,-2.296 -5.68,-2.633 0,0 0.08,-0.515 0.975,-1.193 0.897,-0.676 2.097,-1.205 2.5,-2.88 0,0 3.01,0.574 4.73,0.832 -1.87,-0.71 -2.736,-1.764 -5.8,-2.61 0,0 2.134,-0.107 2.935,-0.177 0,0 1.467,-0.26 2.147,-0.896 0.284,-0.26 0.635,-0.59 1.076,-0.88 -5.93,0.112 -11.845,0.67 -17.68,2.04 -9.31,2.18 -18.577,4.484 -27.865,6.755 l -0.225,0.063 c 1.57,-0.98 2.93,-2.36 4.18,-3.71 -2.75,0.675 -5.532,1.24 -8.334,1.725 -4.56,0.805 -9.254,1.505 -13.912,1.238 -7.68,-0.447 -15.374,-2.197 -22.863,-3.916 l -1.984,-0.465 c 0.167,0.117 2.708,1.7 3.586,2.217 3.696,2.165 7.5,4.144 11.526,5.632 1.22,0.4 2.42,0.866 3.65,1.247 1.366,0.42 2.75,0.78 4.13,1.1 1.27,0.29 2.56,0.518 3.84,0.71 2.29,0.34 4.624,0.478 6.94,0.414 2.33,-0.057 4.65,-0.378 6.95,-0.798 2.663,-0.5 5.31,-1.07 7.91,-1.82 l 1.28,-0.37 c 3.592,-1.1 7.07,-2.69 10.42,-4.397 0.88,-0.435 1.754,-0.88 2.61,-1.34 l 0.064,-0.045 0.064,-0.02 c -0.055,0.06 -6.236,5.18 -9.275,7.03 -0.66,0.405 -1.33,0.807 -2.013,1.196 -1.1,0.63 -2.234,1.224 -3.37,1.8 -0.97,0.505 -1.94,0.964 -2.92,1.397 l -1.56,0.65 -0.08,0.045 -0.817,0.424 c -1.77,1.096 -3.59,2.126 -5.49,3.01 l -0.08,0.044 c -0.63,0.3 -1.26,0.59 -1.9,0.862 l -0.04,0.025 -0.05,0.024 c -1.722,0.746 -3.495,1.426 -5.244,2.05 -1.39,0.49 -2.797,0.95 -4.22,1.34 -10.08,2.94 -16.23,2.87 -16.23,2.87 0.68,0.31 1.596,0.586 2.44,0.77 3.038,0.68 10.303,1.32 10.643,1.424 l 0.06,-0.02 -0.6,0.575 c -4.534,4.143 -10.34,6.657 -16.24,8.27 -3.17,0.86 -6.43,1.495 -9.696,1.89 l -1.517,0.165 c -0.21,0.076 -0.35,0.165 -0.407,0.28 -1.61,5.01 -1.66,10.43 -1.38,15.63 0.15,2.796 0.49,5.59 0.993,8.36 l 0.01,0.04 c 0.365,-0.36 0.795,-0.75 1.29,-1.15 0,0 1.5,-1.238 4.11,-1.62 l -0.113,-0.098 -0.113,-0.104 c -0.556,-0.47 -1.41,-0.71 -2.166,-0.824 l -0.577,-0.09 0.5,-0.08 c 1.628,-0.343 3.56,-0.64 5.14,-0.297 l 0.113,0.014 c 0.96,0.22 1.807,0.856 2.323,1.68 l 0.13,0.26 0.158,0.34 0.03,0.085 0.105,0.343 0.07,0.34 0.017,0.07 0.02,0.35 c 0,0.416 -0.085,0.843 -0.27,1.245 -0.61,1.37 -1.74,3.98 -1.74,4.97 0,0.45 -2.34,2.076 -2.97,2.713 l -0.1,0.115 0.19,-0.01 0.157,-0.02 2.065,-0.255 1.01,-0.06 h 0.026 c 0,0 1.616,2.98 2.864,3.98 1.243,0.99 2.364,3.096 2.74,4.71 l 0.05,0.01 c 0.146,0.02 0.324,-0.04 0.51,-0.11 l 0.056,-0.02 0.225,-0.094 0.464,-0.22 0.704,-0.3 0.668,-0.34 0.068,-0.03 c 0,0 -2.353,3.456 -5.1,5.08 0.18,0.03 2.36,0.35 3.45,-0.116 l 0.03,-0.01 c 0,0 0.187,4.13 -3.85,8.578 -0.276,0.303 3.006,4.184 5.018,6.454 l 0.23,0.276 0.175,0.2 0.42,0.47 0.27,0.31 c 0.14,-0.13 1.25,-1.077 1.813,-1.54 0.98,-0.785 2.002,-1.516 3.045,-2.214 0.98,-0.67 3.25,-1.875 3.25,-1.875 l 0.03,-0.018 c 0.11,-1.02 0.456,-1.605 0.74,-1.966 0.39,-0.47 0.96,-0.574 1.44,-0.85 0.197,-0.114 0.41,-0.234 0.62,-0.46 l 0.22,-0.26 0.118,-0.193 0.15,-0.276 0.106,-0.25 c 0.11,-0.257 0.216,-0.565 0.31,-0.935 0.16,-0.635 0.687,-1.217 0.687,-1.217 l -0.03,-0.01 c -0.72,-0.27 -1.453,-0.5 -2.185,-0.722 -1.16,-0.35 -2.35,-0.66 -3.536,-0.94 -0.783,-0.18 -1.58,-0.37 -2.386,-0.523 6.19,-4.08 13.045,-7.13 20.09,-9.51 2.36,-0.79 7.353,-2.21 7.353,-2.21 -0.7,-0.64 -1.4,-1.41 -1.744,-2.124 -0.874,-1.737 0.618,-4.35 1.24,-5.34 0.63,-0.995 -0.497,-1.605 -0.497,-1.605 1,-0.757 1.742,-1.995 1.742,-1.995 l -0.05,0.017 c -2.22,0.484 -4.303,0.61 -4.303,0.61 l -0.01,-0.02 c -1.24,-0.98 -1.734,-3.096 -1.49,-4.21 0.25,-1.11 0.743,-2.866 0.743,-2.866 h -0.04 c -0.416,0.046 -0.866,0.013 -1.29,-0.05 -0.724,-0.09 -1.35,-0.263 -1.52,-0.307 l -0.007,-0.01 c 4.72,-0.62 7.09,-2.36 7.09,-2.36 l -0.06,0.01 c -1.25,0.236 -3.42,0.36 -3.42,0.36 v -0.01 c 0.02,-0.134 0.18,-1.39 1.115,-2.017 0.35,-0.235 1.084,-0.235 1.962,-0.11 0.49,0.065 1.03,0.17 1.58,0.306 l 0.77,0.196 c 0.95,0.25 1.852,0.536 2.51,0.75 l 0.04,0.01 c 1.863,0.63 2.745,3.11 2.745,3.11 0.503,1.607 1.3,2.77 2.236,3.643 l 0.033,0.024 c 0.44,0.38 0.9,0.7 1.39,0.99 l 0.59,0.303 0.6,0.276 c 0.6,0.244 1.205,0.44 1.795,0.59 l 1.12,0.27 0.55,0.124 c 0.33,0.074 0.63,0.2 0.908,0.356 0.84,0.48 1.448,1.34 1.86,2.195 3.29,-0.355 6.608,-0.64 9.895,-0.834 -0.41,-0.48 -0.856,-0.94 -1.33,-1.37 -3.31,-3.04 -7.94,-4.992 -12.105,-6.322 8.277,-1.107 16.645,-1.437 24.976,-1.72 4.765,-0.18 9.537,-0.29 14.296,-0.34 -1,-0.834 -2.386,-1.31 -3.584,-1.792 2.796,-0.32 5.72,-0.05 8.516,0.16 -2.386,-1.2 -5.087,-1.87 -7.636,-2.627 -1.795,-0.524 -3.603,-1.027 -5.41,-1.5 l 0.22,0.01 -0.094,-0.02 c 1.22,0.1 2.466,0.22 3.712,0.34 l 0.6,0.05 c 7.132,0.747 14.24,1.555 21.33,2.53 8.95,1.234 17.845,2.74 26.7,4.487 8.06,1.593 16.1,3.57 24.07,5.57 3.36,0.84 6.705,1.724 10.045,2.663 -5.44,-1.553 -11.4,-3.13 -17.885,-4.685 m -47.906,-55.04 c 0.843,-0.464 1.78,-0.505 2.133,-1.133 0.347,-0.628 0.412,-1.39 0.412,-1.39 0,0 2.757,0.523 3.973,0.8 0,0 -1.08,-1.6 -1.785,-1.88 0,0 0.227,-0.627 1.14,-1.05 0.9,-0.41 2.475,-0.83 3.425,-1.563 0.945,-0.73 1.996,-0.523 2.704,-0.38 0.684,0.135 2.053,0.975 3.655,1.46 0,0 -0.838,-0.698 -1.11,-1.285 0,0 1.744,0.104 2.62,0.483 0.87,0.383 1.32,1.286 0.904,1.955 -0.42,0.66 -0.95,0.736 -0.978,1.185 -0.045,0.455 1.19,1.257 1.71,1.71 0,0 -0.77,-0.25 -1.68,-0.453 0,0 0.98,1.08 0.8,2.2 -0.17,1.115 -0.555,1.32 -0.875,2.06 -0.306,0.732 -1.245,1.362 -2.23,1.81 0,0 1.272,0.55 2.59,1.32 l -3.5,-0.444 c 0,0 -1.402,0.837 -2.036,1.77 -0.626,0.95 -1.743,1.78 -3.364,1.85 0,0 -2.02,-0.595 -2.823,-0.774 0,0 1.053,0.904 1.47,1.36 0,0 -1.15,0.456 -2.277,0.213 -1.11,-0.247 -3.66,-1.297 -4.43,-1.53 0,0 1.86,0.133 2.42,0.21 0,0 -3.7,-2.97 -4.267,-3.63 0,0 1.594,0.266 2.31,0.445 -0.26,-0.16 -2.356,-1.43 -2.42,-3.098 -0.05,-1.025 0.66,-1.786 1.493,-2.228 m -17.5,21.41 c 0.21,-0.45 0.454,-0.786 1.106,-0.786 0.638,0 1.988,0.184 2.433,-0.156 0.45,-0.34 0.55,-1.24 1.35,-1.73 0.79,-0.5 2.24,-0.11 3.54,0.24 1.3,0.36 2.89,0.95 2.89,0.95 -1.5,0.105 -3.05,0.105 -3.05,0.105 1.85,0.45 3.64,1.344 5.33,2.383 1.73,1.07 1.05,2.09 2.5,2.637 1.44,0.545 0.88,1.044 0.88,1.044 -1.69,-0.35 -4.63,-0.594 -4.63,-0.594 l 3.837,1.48 c 0,0 -0.3,0.26 -0.69,0.3 -0.405,0.05 -1.11,-0.39 -1.7,-0.3 -0.59,0.108 -1.05,1.108 -1.7,1.65 -0.64,0.547 -1.484,0.387 -1.484,0.387 0,0 -0.206,0.805 -0.847,1.3 -0.65,0.496 -1.71,0.25 -3.057,0.05 -1.344,-0.203 -1.8,-3.036 -1.8,-3.036 -1.39,-1.233 -3.526,-2.377 -3.526,-2.377 0.9,0.047 2.043,0.248 2.043,0.248 -0.45,-0.75 -3.09,-1.982 -3.09,-1.982 -0.446,-0.202 -1.793,-0.944 -1.793,-0.944 1.35,0.1 5.48,1.04 5.48,1.04 -1.346,-0.85 -4.038,-1.89 -4.038,-1.89 m -65.69,40.684 c -1.115,0.874 -3.983,3.235 -5.484,4.97 -1.5,1.74 -3.11,3.6 -6.467,2.727 -3.37,-0.867 -3.887,-5.71 -3.887,-5.71 0.88,-1.24 4.866,-3.1 4.866,-3.1 -2.115,0 -4.807,0.47 -4.807,0.47 0.047,-1.01 0.194,-3.95 0.194,-6.33 0,-2.35 -1.246,-4.59 -1.246,-4.59 0.87,-0.87 3.007,-1.982 3.007,-1.982 -4.123,0.62 -6.25,0.13 -6.25,0.13 1.13,0 2.75,-0.876 2.75,-0.876 -0.243,-1.23 0.25,-2.97 0.87,-3.596 0.62,-0.615 2.51,-2.98 3.378,-3.604 0.868,-0.613 3.117,-0.244 5.355,0.13 2.24,0.37 2.615,1.736 2.615,1.736 1.13,0.25 2.254,0.13 2.254,0.13 -1.375,1 -4.866,2.1 -4.866,2.1 1.623,0.264 2.994,0.264 2.994,0.264 l 1.493,5.467 c 0.218,0.805 0.63,1.47 1.16,2.11 -0.97,0.576 -2.633,1.49 -4.024,1.98 0,0 2.403,-0.07 4.97,-0.953 l 1.633,1.57 c 1.744,1.75 0.62,6.104 -0.505,6.964 m 14.153,-27.152 c -0.805,0.527 -0.875,1.08 -1.5,1.88 -0.63,0.808 -4.45,0.97 -4.45,0.97 -2.314,-0.8 -5.33,-0.8 -5.33,-0.8 l 3.55,1.076 c 0,0 -2.14,0.353 -3.92,0.18 -1.776,-0.18 -2.76,-2.14 -3.724,-3.47 -0.98,-1.327 0.17,-3.36 0.17,-3.36 -0.53,-0.366 -1.15,-0.54 -1.15,-0.54 1.95,-0.176 5.605,0.093 5.605,0.093 -1.68,-0.54 -3.603,-0.9 -3.603,-0.9 0,0 0.22,-0.968 0.66,-1.94 0.455,-0.97 2.583,-0.71 3.48,-0.62 0.89,0.09 2.04,-0.98 2.684,-1.19 0.64,-0.21 2.65,0.484 3.71,0.84 1.07,0.346 1.166,1.15 1.166,1.15 -0.986,-0.095 -2.41,0.174 -2.41,0.174 l 3.47,0.97 c 0,0 2.307,1.15 2.66,2.3 0.362,1.16 -0.257,2.67 -1.07,3.18 m 20,-14.89 c -1.2,1.39 -3.986,0.928 -3.986,0.928 0,0 -2.8,2.064 -5.86,1.61 -3.065,-0.454 -5.514,-1.61 -5.514,-1.61 0,0 -2.79,-0.633 -4.322,-1.454 0,0 3.79,0.376 6.77,0.196 0,0 -3.2,-0.97 -4.13,-2.12 0,0 1.08,-0.68 0.885,-1.665 -0.21,-1 -0.5,-2.39 -0.05,-3.18 0,0 2.793,1.34 4.184,1.69 0,0 -1.79,-1.493 -2.44,-2.828 0,0 1.21,0 2.3,-0.894 1.09,-0.894 2.264,-2.5 4.296,-2.47 0,0 0.942,-0.96 1.89,-1.16 0.94,-0.2 1.73,-0.2 1.73,-0.2 0,0 1.103,0.495 2.992,0.85 -0.003,0 -2.54,-1.69 -3.143,-2.428 0,0 1.146,0.39 2.1,0.33 0,0 1.043,-0.29 2.74,0.157 1.69,0.44 2.83,1.742 2.83,2.825 0,1.1 -1.54,2.537 -0.99,3.484 0.502,0.86 4.02,1.745 4.53,1.87 -0.39,-0.035 -2.678,-0.22 -4.04,-0.04 0,0 -0.843,0.84 -1.795,0.89 -0.95,0.05 -1.14,0.75 -0.95,1.3 0.21,0.54 1.16,2.54 -0.035,3.926 m 22.696,25.026 c -0.864,1.32 -4.364,1.778 -6.244,1.548 0,0 -3.507,1.573 -5.51,1.304 -1.993,-0.262 -5.622,-1.62 -5.622,-1.62 0,0 1.112,-0.58 2.21,-0.753 0,0 -0.676,-1.335 -2.318,-2.87 -1.63,-1.543 -3.72,-3.44 -4.08,-4.715 -0.004,0 2.144,-0.903 3.69,-1.264 0,0 -2.59,0.07 -4.05,-0.56 0,0 -0.1,-2.704 0.45,-3.79 0.547,-1.084 0.91,-1.99 0.91,-2.54 0,-0.542 -0.11,-0.5 0.705,-0.763 0.82,-0.274 4.75,-0.95 4.75,-0.95 0,0 -0.36,-0.898 -2.823,-1.264 0,0 2.188,-0.81 4.648,-0.45 2.44,0.356 4.07,3.252 4.89,4.792 0.823,1.534 2.36,3.25 3.364,3.98 0.96,0.69 4.425,-0.103 4.73,-0.175 -0.24,0.253 -2.43,2.325 -3.855,2.233 0,0 0.75,2.747 2.02,3.84 1.277,1.08 3.01,2.71 2.144,4.028"
       id="path22"
       inkscape:connector-curvature="0"
       style="fill:#9f792c" />
    <path
       d="m 179.13,265.188 c 0,0 -1.155,0.293 -3.527,2.082 -2.387,1.816 -2.964,4.185 -2.964,4.185 1.23,-1.136 2.96,-2.186 2.96,-2.186 -0.49,0.76 -0.29,1.14 -1.34,3.51 -1.05,2.37 -3.62,2.28 -5.43,2.47 -1.81,0.19 -4.76,-1.99 -4.76,-1.99 -1.05,0.38 -2.97,2.18 -2.97,2.18 0.86,-2.86 4,-5.9 4,-5.9 -1.33,0.57 -3.72,2.272 -3.72,2.272 -1.33,-1.043 -6.016,-2.38 -9.15,-4.084 -3.15,-1.71 -2.768,-5.034 -2.768,-5.034 0.195,-1.995 1.904,-4.664 1.904,-4.664 -1.05,0.58 -2.185,1.815 -2.185,1.815 -0.03,-0.39 -0.02,-0.73 0.01,-1.054 v -0.022 c 0.115,-1.023 0.457,-1.61 0.75,-1.97 0.376,-0.47 0.956,-0.57 1.427,-0.85 0.2,-0.112 0.414,-0.233 0.625,-0.465 l 0.218,-0.26 0.123,-0.192 0.144,-0.275 0.105,-0.244 c 0.11,-0.26 0.22,-0.57 0.31,-0.937 0.165,-0.63 0.69,-1.215 0.69,-1.215 1.097,-1.228 3.03,-2.11 3.03,-2.11 -1.01,1.262 -1.13,2.596 -1.14,2.874 l 0.034,0.014 c 2.19,-3.46 5.88,-3.19 5.88,-3.19 -0.76,0.2 -1.71,0.77 -1.71,0.77 0,0 1.62,0.564 3.24,1.036 1.62,0.487 5.237,0.767 7.34,0.767 2.095,0 5.997,0.76 5.997,0.76 1.71,-0.56 6.964,-1.896 6.964,-1.896 -1.814,1.14 -5.044,2.75 -5.044,2.75 6.57,3.613 0.945,11.03 0.945,11.03 z m 45.226,19.755 c -1.26,2.15 -2.964,2.343 -2.964,2.343 l 0.43,-0.814 c -1.474,0.402 -3.03,-0.44 -3.184,-0.523 0.904,1.27 0.996,2.9 0.996,2.9 l -0.574,1.08 1.99,-0.15 -1.126,1.38 c 0.33,3.21 -2.34,4.41 -5.47,4.16 -3.12,-0.24 -6.896,-3.45 -6.896,-3.45 0.22,-1.25 2.57,-4.58 2.57,-4.58 -1.67,0.5 -4.694,2.63 -4.694,2.63 -2.86,-1.77 -2.27,-1.17 -10.413,-2.29 -8.13,-1.12 -12.2,-3.27 -12.2,-3.27 -0.04,-1.487 1.06,-3.27 1.06,-3.27 -1.94,0.95 -2.9,2.452 -2.9,2.452 -0.69,-0.5 -3.06,-2.785 -2.13,-6.005 0.92,-3.21 5.7,-3.704 5.7,-3.704 1.56,-1.254 3.91,-1.28 4.06,-1.28 -0.535,0.325 -1.435,0.94 -1.435,0.94 1.33,-0.256 8.52,0.484 11.627,0.72 3.117,0.245 6.47,0.236 6.47,0.236 l 3.187,-0.733 -5.61,3.61 c 2.36,-1.45 8.1,-2.59 8.1,-2.59 0,0 1.005,-0.126 2.475,0.52 1.462,0.65 2.103,3.04 2.103,3.04 1.27,-1.244 3.386,-0.5 5.556,1.74 2.17,2.24 2.255,4.607 2.255,4.607 l 1.04,0.284 z m -1.538,-116.388 c 0,0 3.704,1.776 4.834,2.46 0,0 -0.757,-0.043 -1.24,0 0,0 -1.266,0.738 -1.527,1.226 -0.272,0.49 0,2.69 -1.242,3.66 -1.226,0.97 -2.88,0.74 -3.392,1.34 -0.52,0.6 0.3,1.42 0.3,1.42 0,0 -2.68,-0.6 -3.51,-0.68 0,0 1.28,1.29 2.1,1.89 0,0 -1.06,-0.24 -2.14,-0.09 -1.08,0.15 -4.45,0.41 -6.24,-1 -1.79,-1.42 -0.86,-2.54 -0.44,-2.98 0.41,-0.44 0.52,-1 -0.67,-2.384 -1.2,-1.377 -1.01,-1.377 -0.786,-2.125 0,0 4.18,0.01 5.67,0.43 0,0 -4.07,-2.295 -5.67,-2.63 0,0 0.08,-0.514 0.97,-1.2 0.9,-0.662 2.085,-1.2 2.49,-2.87 0,0 3.015,0.565 4.73,0.83 -1.865,-0.713 -2.736,-1.765 -5.79,-2.614 0,0 2.124,-0.104 2.936,-0.172 0,0 1.46,-0.256 2.142,-0.893 0.28,-0.266 0.63,-0.59 1.07,-0.887 0.655,-0.417 1.49,-0.776 2.65,-0.82 2.14,-0.07 4.17,0.436 5.616,0.93 1.1,0.38 1.865,0.75 2.063,0.844 0,0 -1.98,-0.3 -3.324,-0.33 0,0 0.667,0.374 1.04,0.78 0,0 0.07,0.78 -0.04,1.23 -0.103,0.45 -0.333,1.125 -0.072,1.866 0.26,0.747 1.016,2.416 1.128,3.016 0,0 -2.292,-0.19 -3.63,-0.22 z M 239,195.168 c -1.694,-0.352 -4.625,-0.593 -4.625,-0.593 l 3.83,1.474 c 0,0 -0.298,0.26 -0.69,0.3 -0.4,0.04 -1.107,-0.4 -1.692,-0.31 -0.597,0.1 -1.058,1.11 -1.71,1.65 -0.638,0.54 -1.48,0.39 -1.48,0.39 0,0 -0.21,0.8 -0.848,1.29 -0.656,0.493 -1.702,0.244 -3.05,0.05 -1.338,-0.21 -1.794,-3.04 -1.794,-3.04 -1.39,-1.235 -3.53,-2.384 -3.53,-2.384 0.91,0.05 2.05,0.252 2.05,0.252 -0.46,-0.76 -3.1,-1.99 -3.1,-1.99 -0.44,-0.206 -1.8,-0.95 -1.8,-0.95 1.36,0.1 5.49,1.043 5.49,1.043 -1.34,-0.85 -4.04,-1.886 -4.04,-1.886 0.21,-0.453 0.46,-0.788 1.11,-0.788 0.64,0 1.99,0.19 2.44,-0.16 0.46,-0.345 0.55,-1.245 1.35,-1.737 0.79,-0.5 2.24,-0.1 3.54,0.245 1.3,0.354 2.89,0.946 2.89,0.946 -1.5,0.1 -3.04,0.1 -3.04,0.1 1.84,0.446 3.64,1.345 5.33,2.38 1.74,1.07 1.058,2.09 2.5,2.64 1.44,0.54 0.89,1.048 0.89,1.048 z m -27.767,-49.12 c -0.21,1.78 -2.5,3.357 -3.12,3.758 -0.61,0.41 -1.757,1.225 -2.093,2.37 -0.342,1.147 -1.562,1.89 -2.32,1.963 -0.74,0.06 -1.75,1.14 -1.75,1.14 1.062,0.26 2.558,-0.2 2.758,-0.26 -0.158,0.13 -1.453,1.17 -2.014,1.61 -0.613,0.47 -2.644,0.94 -3.388,0.87 l -3.8,-0.06 c -2.315,-0.08 -4.957,-0.287 -5.75,-1.737 -0.76,-1.376 -1.078,-1.418 -1.105,-1.418 -1.63,0.74 -5.02,0.71 -5.02,0.71 3.27,-1.35 6.06,-4.398 6.06,-4.398 -1.75,0.74 -3.75,1.04 -3.75,1.04 -0.28,-0.473 -0.33,-0.97 -0.27,-1.985 0.08,-1.01 1.03,-1.55 1.03,-1.55 0,0 0.06,-0.54 0.75,-1.42 0.687,-0.88 2.984,-2.095 4.274,-2.17 1.295,-0.07 2.91,-0.736 3.803,-1.345 0.877,-0.61 3.993,-1.89 5.553,-1.76 1.56,0.136 2.18,0.4 2.18,0.4 0.88,-0.06 2.84,-0.4 2.84,-0.4 -2.567,2.028 -4.204,2.77 -4.204,2.77 2.98,-0.34 5.564,-1.553 5.564,-1.553 3.043,0.205 3.993,1.625 3.79,3.404 z m 38.78,-2.612 c -0.133,0.967 -0.822,3.452 -2.136,4.003 -1.32,0.54 -1.676,0.64 -1.676,0.64 v 2.87 c 0,0 -1.96,-1.75 -2.37,-2.31 0,0 -0.52,0.02 -1.91,-0.19 -1.38,-0.21 -3.05,2.14 -5.6,1.94 0,0 -4.21,-0.9 -4.9,-2.63 -0.69,-1.723 -0.42,-3.173 -0.13,-3.658 0,0 1.45,1.86 2.48,2.41 0,0 -0.96,-2.205 -0.96,-3.58 0,0 0.83,-0.62 0.96,-1.25 0.145,-0.62 1.738,-1.588 2.708,-1.793 0.97,-0.2 1.92,0.21 1.92,0.21 0,0 1.14,2.576 1.966,3.54 0,0 -0.35,-5.054 0.063,-6.844 0,0 1.055,2.33 1.61,3.086 0,0 1.157,-0.125 2.82,-0.403 1.66,-0.28 3.106,-0.13 4.078,0.823 0.975,0.97 1.25,2.144 1.106,3.11 z m -52.732,39.626 c -0.39,-0.035 -2.66,-0.22 -4.02,-0.046 0,0 -0.84,0.847 -1.8,0.895 -0.95,0.06 -1.14,0.76 -0.95,1.31 0.21,0.54 1.16,2.53 -0.04,3.92 -1.19,1.39 -3.98,0.92 -3.98,0.92 0,0 -2.8,2.07 -5.86,1.62 -3.062,-0.45 -5.51,-1.61 -5.51,-1.61 0,0 -2.78,-0.63 -4.32,-1.44 0,0 3.796,0.36 6.767,0.185 0,0 -3.19,-0.972 -4.12,-2.11 0,0 1.084,-0.68 0.89,-1.665 -0.21,-1.008 -0.51,-2.39 -0.052,-3.19 0,0 2.79,1.34 4.184,1.69 0,0 -1.79,-1.495 -2.44,-2.83 -0.005,0 1.2,0 2.29,-0.9 1.09,-0.896 2.262,-2.5 4.296,-2.47 0,0 0.94,-0.96 1.89,-1.17 0.94,-0.19 1.733,-0.19 1.733,-0.19 0,0 1.1,0.493 2.99,0.843 -0.003,0 -2.54,-1.686 -3.145,-2.43 0,0 1.15,0.4 2.094,0.34 0,0 1.046,-0.294 2.74,0.154 1.694,0.445 2.84,1.745 2.84,2.83 0,1.09 -1.54,2.537 -0.993,3.487 0.514,0.86 4.02,1.75 4.53,1.876 z"
       id="path24"
       inkscape:connector-curvature="0"
       style="fill:#000000" />
    <path
       d="m 365.37,200.91 c 0,1.39 -3.188,1 -5.586,0.796 -2.383,-0.2 -14.55,0.996 -18.74,2.982 -3.528,0.833 -7.008,1.973 -10.34,3.406 -0.942,0.413 -1.884,0.85 -2.805,1.314 -1.12,0.554 -2.22,1.15 -3.21,1.888 l -0.34,0.276 c 0,0 -0.56,-3.008 -3.2,-5.705 l -0.47,-0.46 c -0.32,-0.297 -0.68,-0.58 -1.06,-0.86 -1.13,-0.833 -2.53,-1.58 -4.25,-2.097 -0.57,-0.18 -1.18,-0.324 -1.82,-0.446 -0.975,-0.184 -2.02,-0.298 -3.167,-0.34 h -0.018 l -0.15,-0.023 c 5.35,-2.53 11.91,-5.04 17.47,-5.36 11.64,-0.65 26.99,2.53 26.99,2.53 0,0 8.6,-10.71 -3.583,-23.28 2.475,2.27 6.558,6.47 9.07,11.48 3.798,7.55 5.187,12.53 5.187,13.91 m 34.83,-13.52 c -1.933,-1.7 -4.52,-3.47 -7.4,-5.22 -2.09,-1.29 -4.334,-2.57 -6.447,-3.64 l -0.228,-0.11 c 11.73,1.92 14.48,-1.12 15.105,-2.38 l 0.074,0.126 c 0.172,0.32 0.336,0.644 0.466,0.95 2.33,5.54 -1.57,10.288 -1.57,10.288"
       id="path26"
       inkscape:connector-curvature="0"
       style="fill:#9f792c" />
    <path
       d="m 317.41,194.013 c 0,0 -10.612,6.66 -18.3,4.685 -7.697,-1.975 -20.884,-12.374 -20.884,-12.374 0,0 5.053,-0.652 13.393,0.73 l 0.21,0.046 c 1.51,0.335 3.14,1.564 4.36,2.415 0.74,0.528 1.41,1.147 2.13,1.704 0.14,0.11 1.99,1.24 2.08,1.24 l -0.03,0.41 c 0,1.95 1.59,3.53 3.55,3.53 1.96,0 3.54,-1.59 3.54,-3.53 0,-0.77 -0.25,-1.49 -0.67,-2.06 7,1.98 10.61,3.19 10.61,3.19"
       id="path28"
       inkscape:connector-curvature="0"
       style="fill:#006778" />
    <path
       d="m 302.855,190.972 c -0.06,1.022 -0.737,1.636 -1.65,1.636 -0.26,0 -0.54,-0.056 -0.8,-0.148 -0.082,0 -1.938,-1.13 -2.08,-1.243 -0.716,-0.558 -1.38,-1.174 -2.125,-1.706 -1.222,-0.84 -2.832,-2.06 -4.353,-2.41 0.933,0.18 4.568,0.89 6.7,1.46 1.08,0.28 2.077,0.55 3.064,0.82 0,0 1.31,0.58 1.25,1.6"
       id="path30"
       inkscape:connector-curvature="0"
       style="fill:#ffffff" />
    <path
       d="m 341.908,194.06 c 2.238,-0.557 4.678,-1.662 6.422,-3.22 h -0.004 l 0.03,-0.038 c -3.867,1.417 -8.003,1.885 -11.968,0.527 -0.66,-0.23 -1.34,-0.47 -2.006,-0.75 l -0.732,-0.34 c -3.974,-1.99 -7.577,-4.87 -11.1,-7.56 -6.043,-4.61 -12.362,-8.68 -19.383,-11.61 -0.487,0.34 -1.21,0.87 -1.868,1.52 v 0.15 c 0,1.89 1.37,5.86 4.29,8.23 3.79,3.087 10.84,6.176 10.84,6.176 -0.35,-1.19 -0.18,-2.74 -0.18,-2.74 1.03,1.712 3.27,4.286 6.71,6.18 l 0.7,0.35 c 1.06,0.502 2.46,1.1 3.85,1.646 1.012,0.4 2.16,0.755 3.043,0.995 3.7,0.77 7.63,1.385 11.334,0.462"
       id="path32"
       inkscape:connector-curvature="0"
       style="fill:#9f792c" />
    <path
       d="m 298.004,202.577 c -3.454,-1.818 -7.008,-3.52 -10.655,-4.96 -2.28,-1.154 -4.51,-2.37 -6.71,-3.637 -2.98,-1.715 -5.93,-3.528 -8.74,-5.515 -1.33,-0.938 -2.89,-1.72 -4.04,-2.87 l -0.24,-0.164 c -0.727,-0.11 -1.45,-0.17 -2.13,-0.19 -0.92,-0.02 -1.85,0 -2.77,0.07 l -1.125,0.11 c 0.81,2.64 4.43,6.53 4.43,6.53 -1.72,0.13 -3.917,-0.48 -3.917,-0.48 3.18,4.26 11.976,9.63 18.824,10.97 6.842,1.34 13.074,1.09 13.074,1.09 -0.97,0.498 -2.567,1.108 -2.567,1.108 0,0 2.685,-0.127 6.35,0.6 0.475,0.09 0.993,0.22 1.545,0.37 2.434,0.62 5.435,1.62 7.2,2.238 l 0.57,0.194 c -0.85,-0.57 -1.7,-1.124 -2.583,-1.65 -1.79,-1.115 -4.264,-2.605 -6.55,-3.8 m -33.676,-21.67 c 2.73,-0.81 5.92,-1.45 8.757,-1.72 9.576,-0.9 19.06,0.69 27.95,3.697 8.65,2.923 16.61,7.406 25.476,9.773 1.132,0.3 2.266,0.57 3.416,0.82 l 0.64,0.12 c -0.876,-0.24 -2.02,-0.6 -3.033,-0.994 -1.396,-0.55 -2.79,-1.144 -3.857,-1.647 l -0.7,-0.35 c -3.43,-1.89 -5.676,-4.468 -6.71,-6.178 0,0 -0.16,1.546 0.177,2.738 0,0 -7.058,-3.083 -10.845,-6.17 -2.924,-2.373 -4.29,-6.34 -4.29,-8.24 v -0.15 c -0.517,0.49 -1,1.05 -1.324,1.645 -1.04,1.915 -0.96,3.37 -0.96,3.37 0,0 -0.906,-0.38 -1.715,-1.01 0,0 0.41,1.727 1.876,2.46 0,0 0.837,1.1 0.477,1.937 0,0 -2.568,-0.203 -3.17,-0.69 -0.6,-0.5 -2.51,-1.18 -2.51,-1.18 0,0 0.643,-0.1 1.32,-0.06 0,0 -0.686,-1.68 -1.348,-2.24 -0.66,-0.56 -2,-1.58 -1.696,-2.87 0,0 1.56,0.11 2.32,0.41 0,0 -2.478,-2.14 -4,-2.49 l 2.077,-0.11 c 0,0 -0.28,-1.46 2.354,-2.737 2.644,-1.28 3.46,-2.093 4.02,-2.915 0.548,-0.83 0.77,-1.67 1.465,-2.16 0,0 1.29,0.73 2.305,1.5 0,0 -0.58,-1.74 -2.453,-3.013 0,0 -6.86,-0.773 -11.74,2.75 l 0.4,0.25 0.135,0.08 0.28,0.18 0.135,0.084 0.29,0.2 0.09,0.06 0.367,0.246 0.017,0.01 0.28,0.2 0.11,0.087 0.13,0.094 0.094,0.055 0.02,0.02 0.096,0.07 0.02,0.01 0.053,0.04 c -0.94,-0.22 -2.888,-0.492 -3.79,-0.612 -0.27,0.262 -0.87,0.86 -1.117,1.17 0,0 -0.557,0.71 -0.875,2.53 -0.1,0.586 0.23,1.938 0.825,2.463 0.602,0.52 2.472,2.237 2.774,3.046 0.3,0.83 -0.248,2.11 -0.127,2.66 0,0 -1.45,-0.92 -2.265,-1.15 0.17,0.16 1.816,1.86 0.892,2.07 0,0 -0.83,-0.953 -2.33,-1.63 -1.494,-0.66 -4.25,-2.01 -5.075,-2.76 -0.775,-0.69 -1.28,-2.18 -1.33,-2.36 0.093,0.12 0.55,0.725 0.96,0.8 0.415,0.07 1.63,0.86 1.786,0.96 -0.05,-0.125 -0.474,-1.145 -0.97,-1.55 -0.52,-0.46 -1.79,-1.058 -2.463,-1.87 l 0.746,-0.226 c 0,0 0.21,-1.46 -0.13,-2.9 -1.11,-0.245 -4.01,-0.75 -6.325,0.06 0,0 2.1,1.35 3.877,3.82 0,0 -17.174,3.14 -24.04,15.416 l -0.28,0.57 -0.09,0.083 0.145,-0.118 0.05,-0.007 h 0.005 l 0.015,-0.01 c 0.27,-0.227 2.975,-2.54 4.63,-3.46 2.4,-1.34 5.087,-2.163 7.706,-2.96"
       id="path34"
       inkscape:connector-curvature="0"
       style="fill:#ffffff" />
    <path
       d="m 351.113,175.522 c -0.823,-0.858 -1.736,-1.695 -2.774,-2.568 l 0.07,0.118 0.1,0.186 0.08,0.177 0.11,0.206 0.21,0.44 0.12,0.26 0.24,0.56 c 0.25,0.6 0.55,1.32 0.82,2.13 0.28,0.8 0.54,1.68 0.754,2.6 l 0.183,0.94 0.053,0.35 c 0.22,2.484 0.36,4.807 -0.7,7.15 -0.43,0.957 -1.06,1.84 -1.82,2.57 l -0.253,0.22 c -1.74,1.56 -4.18,2.666 -6.415,3.218 -3.707,0.925 -7.637,0.31 -11.336,-0.46 l -0.02,-0.002 -0.63,-0.12 c -1.15,-0.244 -2.285,-0.517 -3.42,-0.82 -8.868,-2.366 -16.83,-6.85 -25.48,-9.766 -8.885,-3.01 -18.373,-4.6 -27.954,-3.7 -2.83,0.27 -6.02,0.91 -8.746,1.72 -2.62,0.793 -5.31,1.615 -7.71,2.956 -1.655,0.916 -4.356,3.236 -4.632,3.46 l 0.315,-0.07 0.45,-0.12 c 2.106,-0.52 4.34,-1.06 6.6,-1.42 0.76,-0.12 1.51,-0.213 2.273,-0.3 l 1.12,-0.11 c 0.92,-0.07 1.855,-0.09 2.768,-0.07 0.685,0.03 1.41,0.08 2.133,0.2 l 0.232,0.16 c 1.153,1.153 2.7,1.94 4.036,2.875 2.81,1.985 5.76,3.798 8.734,5.515 2.2,1.266 4.423,2.482 6.7,3.637 3.65,1.44 7.2,3.14 10.652,4.966 2.29,1.19 4.755,2.68 6.55,3.792 0.87,0.53 1.73,1.084 2.58,1.65 l 1.643,1.094 c 3.052,2.03 5.962,4.28 8.74,6.675 0.807,0.686 1.593,1.39 2.38,2.1 1.25,1.15 2.392,2.4 3.62,3.56 -0.105,-0.088 -0.127,-0.567 -0.16,-0.707 l -0.287,-0.805 c -0.213,-0.55 -0.43,-1.12 -0.67,-1.67 -0.46,-1.1 -0.99,-2.18 -1.56,-3.235 -1.14,-2.11 -2.444,-4.127 -3.88,-6.06 -0.806,-1.088 -1.65,-2.148 -2.533,-3.188 -0.64,-0.736 -1.31,-1.455 -1.985,-2.19 -0.526,-0.584 -1.18,-1.645 -1.974,-1.904 l -0.082,-0.03 -0.15,-0.02 c 5.35,-2.53 11.91,-5.042 17.47,-5.362 11.64,-0.65 26.99,2.523 26.99,2.523 0,0 8.597,-10.72 -3.586,-23.284 m -51.99,23.17 c -7.69,-1.972 -20.88,-12.37 -20.88,-12.37 0,0 5.05,-0.654 13.39,0.73 0.095,0.014 4.484,0.843 6.926,1.492 1.078,0.28 2.078,0.56 3.066,0.827 0,0 1.314,0.574 1.246,1.603 -0.06,1.02 -0.737,1.63 -1.65,1.63 -0.26,0 -0.54,-0.06 -0.795,-0.15 l -0.03,0.416 c 0,1.946 1.59,3.53 3.557,3.53 1.954,0 3.534,-1.586 3.534,-3.53 0,-0.77 -0.248,-1.49 -0.67,-2.062 6.994,1.995 10.605,3.205 10.605,3.205 0,0 -10.605,6.658 -18.293,4.684"
       id="path36"
       inkscape:connector-curvature="0"
       style="fill:#000000" />
  </g>
</svg>
