<?xml version="1.0" encoding="UTF-8" standalone="no"?>
<svg
   xmlns:dc="http://purl.org/dc/elements/1.1/"
   xmlns:cc="http://creativecommons.org/ns#"
   xmlns:rdf="http://www.w3.org/1999/02/22-rdf-syntax-ns#"
   xmlns:svg="http://www.w3.org/2000/svg"
   xmlns="http://www.w3.org/2000/svg"
   xmlns:sodipodi="http://sodipodi.sourceforge.net/DTD/sodipodi-0.dtd"
   xmlns:inkscape="http://www.inkscape.org/namespaces/inkscape"
   width="512"
   height="512"
   viewBox="0 0 512 512"
   version="1.1"
   id="svg12"
   sodipodi:docname="kansas-city-chiefs.svg"
   inkscape:version="0.92.5 (2060ec1f9f, 2020-04-08)">
  <metadata
     id="metadata18">
    <rdf:RDF>
      <cc:Work
         rdf:about="">
        <dc:format>image/svg+xml</dc:format>
        <dc:type
           rdf:resource="http://purl.org/dc/dcmitype/StillImage" />
      </cc:Work>
    </rdf:RDF>
  </metadata>
  <defs
     id="defs16" />
  <sodipodi:namedview
     pagecolor="#ffffff"
     bordercolor="#666666"
     borderopacity="1"
     objecttolerance="10"
     gridtolerance="10"
     guidetolerance="10"
     inkscape:pageopacity="0"
     inkscape:pageshadow="2"
     inkscape:window-width="640"
     inkscape:window-height="480"
     id="namedview14"
     showgrid="false"
     inkscape:zoom="0.4609375"
     inkscape:cx="256"
     inkscape:cy="256"
     inkscape:window-x="0"
     inkscape:window-y="0"
     inkscape:window-maximized="0"
     inkscape:current-layer="svg12" />
  <title
     id="title2">kansas-city-chiefs</title>
  <g
     id="g10"
     transform="translate(0,28)"
     style="fill:none;fill-rule:evenodd">
    <path
       d="m 430.92,248.148 c -6.9,-5.9 -15.77,-6.294 -20.96,-16.566 -3.942,-7.825 -12.67,-10.792 -20.705,-12.048 -6.275,-1.506 -9.915,-7.53 -14.18,-12.048 -5.525,-9.538 -16.693,-9.664 -26.48,-10.793 -10.668,0.38 -17.313,-12.495 -28.38,-15.435 -4.093,-1.087 -15.116,-0.28 -22.25,-5.494 -6.497,-4.75 -14.646,-9.535 -31.07,-7.432 -12.3,-2.007 -21.086,-12.55 -33.636,-14.184 -8.54,-2.635 -16.19,1.256 -24.6,0.88 -5.9,-1.632 -10.8,-5.773 -16.82,-7.03 -9.04,-1.588 -11.34,1.957 -34.25,-2.943 -10.78,-2.32 -24.26,-5.77 -17.34,16.69 3.04,9.845 10.12,34.334 -12.93,36.708 -8.31,0.816 -15.94,-6.778 -23.47,-0.63 -2.55,1.842 -7.4,-2.332 -10.54,-1.38 -10.04,2.887 -6.03,14.557 -6.9,22.593 -0.25,9.033 -6.4,15.685 -9.417,23.595 -7.156,14.43 -4.14,34.13 0.88,48.57 1.38,7.53 -0.758,15.31 0.75,22.72 0.423,1.3 2.01,3.02 4.015,2.01 15.23,-7.42 19.076,1.79 24.253,-0.33 14.285,-6.26 24.15,-3.45 27.2,3.85 5.27,15.19 -6.024,28.37 -3.013,43.3 2.87,10.046 21.844,1.27 30.75,0.89 12.425,-0.93 24.47,2.627 36.265,0.367 10.252,-5.22 21.714,-8.152 34.142,-7.902 8.274,0.13 14.68,-4.142 21.33,-8.03 12.175,-8.537 30.623,-2.258 42.416,-11.8 6.404,-5.02 15.817,-3.01 22.717,-6.907 10.55,-9.407 23.098,-14.427 36.78,-16.434 7.148,-2.76 12.67,-10.17 19.45,-13.685 6.02,-3.764 13.18,-4.514 18.95,-8.79 9.158,-12.04 21.336,-21.955 35.89,-24.47 13.91,-5.43 8.907,-13.28 1.13,-17.82 z m -89.238,53.63 c -11.114,10.4 -32.09,17.867 -51.95,19.917 -23.873,2.446 -47.565,-1.008 -66.517,-13.432 -11.292,-8.285 -18.444,-21.085 -17.067,-35.39 0.754,-13.934 9.444,-25.884 20.615,-34.17 -0.862,-0.94 -1.567,-1.724 -2.607,-2.87 L 196.89,252.48 c -0.013,1.44 -0.026,3.37 -0.026,4.75 2.84,-0.015 3.542,-0.015 6.874,-0.05 v 15.317 l -5.115,5.776 -50.28,-0.042 -0.048,-11.88 6.225,-9.11 c 1.02,-0.01 1.494,-0.01 1.933,-0.05 v -52.54 l -8.158,0.03 0.03,-10.65 6.796,-7.54 h 48.55 l 0.05,11.31 -6.83,8.07 -0.01,20.362 c 26.28,-14.81 47,-26.49 47,-26.49 v -9.004 l 4.21,-4.25 h 49.93 c -0.014,5.176 -0.014,6.51 0,11.497 l -6.2,6.7 -14.75,0.014 c -8.56,5.32 -9.97,6.102 -18.69,11.34 0.95,1.274 1.735,2.14 3.89,4.4 23.463,-5.65 51.956,-5.15 73.163,4.89 l 7.4,-5.65 13.95,-0.035 c -0.03,11.236 -0.03,17.12 -0.017,35.05 l -6.52,7.53 -12.6,0.046 c -11.044,-18.575 -31.825,-27.282 -53.54,-23.77 -1.373,0.38 -2.757,0.505 -4.013,1.134 7.792,8.5 8.81,9.527 16.41,17.634 1.5,-0.035 1.97,-0.035 3.25,-0.035 l -0.038,14.526 -5.036,6.51 h -50.8 v -12.32 l 3.273,-5.68 c -0.44,-0.527 -0.76,-0.76 -1.45,-1.44 -4.514,3.392 -6.52,8.91 -5.52,14.433 2.39,12.55 14.94,19.21 25.98,21.84 18.323,4.02 39.53,2.38 55.72,-4.9 14.486,-8.42 15.5,-16.03 16.07,-16.69 h 19.22 c -0.415,9.21 -5.985,19.41 -15.466,28.28 z"
       id="path4"
       inkscape:connector-curvature="0"
       style="fill:#ffffff" />
    <path
       d="m 416.236,223.926 c -9.008,-5.796 -6.783,-17.343 -27.86,-20.053 -10.997,-1.572 -11.265,-17.536 -36.02,-22.242 -11.702,-2.22 -19.452,-13.8 -31.627,-14.8 -11.05,0.25 -22.21,-0.12 -30.5,-6.9 -8.29,-7.9 -21.09,-3.64 -31.76,-6.02 -8.68,-3.05 -13.03,-8.88 -22.07,-11.52 -10.006,-3.16 -18.1,0.48 -26.007,-1.66 -10.16,-1.12 -17.94,-8.65 -29.115,-6.9 -10.92,3.01 -22.965,0.25 -33.88,-0.63 -6.53,-0.75 -25.89,-4.97 -22.47,13.93 2.136,8.92 4.144,17.83 6.403,26.61 4.25,14.07 -0.28,15.12 -6.91,15.69 -6.4,0.508 -7.902,-7.9 -13.68,-8.53 -4.662,-0.74 -11.602,4.28 -17.19,6.15 -5.65,1.76 -8.03,-4.14 -12.927,-4.514 -10.39,-0.1 -10.92,13.68 -9.036,15.938 3.516,6.9 4.27,16.32 1.632,23.97 -3.763,6.65 -7.155,13.43 -9.163,20.96 -4.014,18.828 -2.76,40.54 4.02,57.73 2.255,9.54 -6.028,20.587 2.51,27.865 7.78,5.144 13.912,-2.35 21.21,-4.02 5.35,-1.224 14.254,2.51 18.684,0.036 10.307,-5.105 16.28,-0.763 15.076,6.11 -2.76,11.425 -5.27,22.97 -8.917,34.007 -2.177,8.11 7.723,15.39 12.81,14.56 6.896,-1.25 13.8,-2.51 20.58,-3.762 15.813,-2.382 30.37,5.9 45.304,0.38 10.04,-4.895 20.07,-9.864 32.882,-8.16 8.66,1.13 15.31,-2.887 21.832,-6.904 8.035,-4.766 23.066,-6.76 27.91,-6.645 8.914,0.37 14.51,-6.03 22.29,-8.405 5.93,-1.976 16.27,-2.06 18.446,-3.643 5.4,-4.39 12.24,-10.94 17.13,-11.68 14.31,-2.76 26.424,-9.144 37.716,-19.31 1.54,-1.556 13.508,-3.906 17.073,-5.267 7.4,-2.896 12.42,-10.17 16.31,-16.7 3.896,-5.27 9.54,-8.655 15.44,-10.41 10.164,-1.634 20.33,-10.355 24.72,-19.452 4.01,-8.277 2.342,-9.695 1.263,-11.042 -9.793,-9.415 -20.964,-17.823 -32.134,-24.726 z m 13.555,42.04 c -14.55,2.514 -26.73,12.426 -35.89,24.47 -5.77,4.275 -12.93,5.025 -18.95,8.788 -6.78,3.514 -12.3,10.927 -19.44,13.686 -13.68,2.007 -26.23,7.027 -36.78,16.433 -6.9,3.896 -16.31,1.888 -22.71,6.905 -11.79,9.542 -30.24,3.264 -42.42,11.802 -6.64,3.89 -13.05,8.162 -21.33,8.035 -12.42,-0.25 -23.89,2.682 -34.14,7.902 -11.79,2.26 -23.84,-1.297 -36.26,-0.364 -8.91,0.38 -27.88,9.153 -30.75,-0.89 -3.01,-14.933 8.287,-28.113 3.016,-43.297 -3.05,-7.303 -12.917,-10.112 -27.2,-3.848 -5.18,2.122 -9.027,-7.095 -24.26,0.33 -2.01,1.01 -3.592,-0.712 -4.02,-2.005 -1.504,-7.407 0.63,-15.19 -0.75,-22.717 -5.02,-14.434 -8.032,-34.136 -0.88,-48.566 3.01,-7.91 9.165,-14.562 9.41,-23.595 0.88,-8.036 -3.14,-19.707 6.9,-22.59 3.148,-0.955 7.99,3.22 10.54,1.378 7.53,-6.148 15.17,1.446 23.47,0.63 23.056,-2.374 15.97,-26.863 12.93,-36.71 -6.923,-22.46 6.558,-19.008 17.338,-16.688 22.91,4.898 25.208,1.354 34.25,2.94 6.02,1.26 10.92,5.4 16.817,7.033 8.408,0.375 16.064,-3.516 24.598,-0.88 12.55,1.633 21.335,12.176 33.635,14.182 16.424,-2.102 24.573,2.683 31.07,7.433 7.134,5.215 18.157,4.406 22.25,5.494 11.066,2.94 17.71,15.814 28.38,15.435 9.786,1.13 20.954,1.255 26.48,10.793 4.264,4.518 7.904,10.542 14.18,12.048 8.033,1.256 16.762,4.223 20.705,12.048 5.19,10.28 14.06,10.67 20.96,16.57 7.775,4.54 12.78,12.39 -1.13,17.82 z m -107.93,24.222 c -16.19,7.275 -37.4,8.915 -55.72,4.897 -11.04,-2.634 -23.59,-9.294 -25.97,-21.838 -1,-5.524 1.01,-11.042 5.52,-14.433 0.7,0.68 1.01,0.914 1.46,1.436 l -3.27,5.687 v 12.315 h 50.8 l 5.04,-6.513 0.033,-14.53 c -1.276,0 -1.746,0 -3.25,0.03 -7.6,-8.11 -8.615,-9.14 -16.41,-17.63 1.255,-0.63 2.64,-0.76 4.01,-1.14 21.714,-3.52 42.495,5.19 53.54,23.77 l 12.6,-0.05 6.524,-7.53 c -0.012,-17.93 -0.012,-23.81 0.02,-35.05 -5.913,0.02 -7.72,0.02 -13.947,0.03 l -7.406,5.646 c -21.206,-10.04 -49.7,-10.54 -73.163,-4.89 -2.154,-2.26 -2.94,-3.12 -3.89,-4.393 8.72,-5.24 10.13,-6.024 18.695,-11.344 l 14.75,-0.013 6.19,-6.7 c -0.017,-4.983 -0.017,-6.32 0,-11.493 h -49.92 l -4.206,4.25 v 9.007 c 0,0 -20.72,11.69 -47,26.5 l 0.013,-20.366 6.83,-8.063 -0.05,-11.31 h -48.55 l -6.794,7.548 -0.03,10.65 8.154,-0.03 v 52.534 c -0.44,0.036 -0.912,0.036 -1.932,0.05 l -6.223,9.11 0.05,11.89 50.28,0.046 5.113,-5.774 v -15.32 c -3.33,0.033 -4.03,0.033 -6.87,0.05 0,-1.383 0.013,-3.313 0.025,-4.75 l 27.266,-16.647 c 1.04,1.15 1.747,1.93 2.61,2.87 -11.17,8.29 -19.86,20.24 -20.61,34.17 -1.377,14.305 5.775,27.105 17.07,35.39 18.95,12.424 42.64,15.88 66.515,13.432 19.86,-2.05 40.836,-9.517 51.95,-19.918 9.48,-8.87 15.05,-19.07 15.465,-28.28 h -19.22 c -0.566,0.65 -1.583,8.26 -16.07,16.682 z m 3.65,-65.636 c 0,0 7.86,2.7 10.45,4.157 l 7.37,-5.92 c 4.32,-0.02 6.2,-0.02 10.17,-0.02 v 31.15 c -4.05,-0.02 -5.15,-0.02 -10.29,-0.02 -15.81,-19.707 -42.39,-23.61 -66.78,-18.21 l -11.56,-12.44 c 18.86,-5.74 42.83,-5.37 60.654,1.28 z m -132.06,26.514 -0.03,10.01 7.17,-0.028 -0.05,9.09 c -20.28,0.013 -22.16,0.013 -43.23,0.05 l -0.02,-9.13 h 7.96 v -64.24 h -7.95 v -7.375 c 20.14,0 24.69,0 43.25,-0.012 0.034,3.24 0.034,3.7 0.054,7.42 -2.764,-0.03 -2.764,-0.03 -7.19,-0.05 l 0.05,35.1 62.875,-35.08 c 0,0 -4.616,0 -6.84,-0.03 0.026,-3.03 0.026,-3.89 0.015,-7.32 l 45.197,-0.04 0.017,7.407 h -11 c -12.47,7.53 -30.84,18.655 -30.84,18.655 l 42.494,45.59 1.15,-0.01 c 0,3.38 -0.02,5.504 0,9.14 l -45.415,-0.037 -0.02,-9.103 6.603,-0.02 c -18.29,-20.057 -28.82,-31.477 -28.82,-31.477 -11.545,6.903 -14.883,8.912 -35.42,21.51 z m 160.05,26.212 c -6.4,24.255 -32.68,35 -55.35,38.137 -21.22,2.938 -42.91,0.253 -61.11,-7.53 -12.68,-4.893 -23.79,-17.204 -24.85,-31.124 -1.09,-14.37 5.46,-27.41 17.26,-35.2 l 13.62,14.37 c -4.396,5.02 -7.03,11.05 -5.775,17.95 2.13,13.3 16.44,22.47 28.49,24.98 21.71,3.51 45.933,2.13 64.006,-8.66 8.924,-6.38 12.53,-12.92 12.53,-12.92 4.87,0.03 6.43,0.03 11.19,0.02 z"
       id="path6"
       inkscape:connector-curvature="0"
       style="fill:#000000" />
    <path
       d="m 257.683,261.03 -6.603,0.018 0.017,9.103 45.415,0.04 c -0.02,-3.63 0,-5.75 0,-9.14 l -1.15,0.01 -42.493,-45.59 c 0,0 18.36,-11.12 30.83,-18.65 h 11 l -0.02,-7.4 -45.2,0.05 c 0.01,3.44 0.01,4.3 -0.02,7.33 2.225,0.03 6.84,0.03 6.84,0.03 l -62.88,35.08 -0.044,-35.09 c 4.425,0.02 4.425,0.02 7.186,0.05 -0.015,-3.72 -0.015,-4.19 -0.05,-7.42 -18.56,0.016 -23.11,0.016 -43.246,0.016 v 7.373 h 7.958 v 64.24 h -7.952 l 0.016,9.13 c 21.07,-0.038 22.95,-0.038 43.23,-0.05 l 0.054,-9.09 -7.17,0.027 c 0.018,-4.64 0.018,-6.052 0.03,-10.01 20.537,-12.594 23.878,-14.603 35.423,-21.505 0,0 10.53,11.42 28.82,31.47 z m 85.514,-7.112 c 5.142,0 6.24,0 10.292,0.016 V 222.78 c -3.97,0 -5.86,0 -10.17,0.018 l -7.38,5.912 c -2.59,-1.46 -10.45,-4.156 -10.45,-4.156 -17.83,-6.65 -41.8,-7.025 -60.65,-1.287 l 11.56,12.443 c 24.39,-5.4 50.97,-1.5 66.78,18.2 z m -13.428,36.27 c -18.08,10.796 -42.3,12.178 -64.01,8.664 -12.05,-2.51 -26.36,-11.675 -28.49,-24.976 -1.26,-6.905 1.38,-12.93 5.77,-17.95 l -13.61,-14.366 c -11.8,7.783 -18.36,20.827 -17.26,35.198 1.06,13.92 12.17,26.23 24.85,31.126 18.2,7.78 39.9,10.467 61.11,7.53 22.67,-3.137 48.942,-13.88 55.35,-38.138 -4.767,0.02 -6.32,0.02 -11.19,-0.012 0,0 -3.61,6.54 -12.53,12.924 z"
       id="path8"
       inkscape:connector-curvature="0"
       style="fill:#e31837" />
  </g>
</svg>
