<?xml version="1.0" encoding="UTF-8" standalone="no"?>
<svg
   xmlns:dc="http://purl.org/dc/elements/1.1/"
   xmlns:cc="http://creativecommons.org/ns#"
   xmlns:rdf="http://www.w3.org/1999/02/22-rdf-syntax-ns#"
   xmlns:svg="http://www.w3.org/2000/svg"
   xmlns="http://www.w3.org/2000/svg"
   xmlns:sodipodi="http://sodipodi.sourceforge.net/DTD/sodipodi-0.dtd"
   xmlns:inkscape="http://www.inkscape.org/namespaces/inkscape"
   width="512"
   height="512"
   viewBox="0 0 512 512"
   version="1.1"
   id="svg12"
   sodipodi:docname="los-angeles-chargers.svg"
   inkscape:version="0.92.5 (2060ec1f9f, 2020-04-08)">
  <metadata
     id="metadata18">
    <rdf:RDF>
      <cc:Work
         rdf:about="">
        <dc:format>image/svg+xml</dc:format>
        <dc:type
           rdf:resource="http://purl.org/dc/dcmitype/StillImage" />
      </cc:Work>
    </rdf:RDF>
  </metadata>
  <defs
     id="defs16" />
  <sodipodi:namedview
     pagecolor="#ffffff"
     bordercolor="#666666"
     borderopacity="1"
     objecttolerance="10"
     gridtolerance="10"
     guidetolerance="10"
     inkscape:pageopacity="0"
     inkscape:pageshadow="2"
     inkscape:window-width="640"
     inkscape:window-height="480"
     id="namedview14"
     showgrid="false"
     inkscape:zoom="0.4609375"
     inkscape:cx="256"
     inkscape:cy="256"
     inkscape:window-x="895"
     inkscape:window-y="178"
     inkscape:window-maximized="0"
     inkscape:current-layer="svg12" />
  <title
     id="title2">san-diego-chargers</title>
  <g
     id="g10"
     transform="translate(1.8305085,44.203391)"
     style="fill:none;fill-rule:evenodd">
    <path
       d="m 237.423,141.556 c 4.61,4.708 13.537,16.933 13.537,16.933 -116.618,-5.3 -177.758,73.74 -177.758,73.74 l 18.374,1.67 C 31.81,313.33 47.843,370.07 47.843,370.07 91.917,310.144 120.815,273.31 196.368,244.8 c 0,0 -7.293,-11.337 -11.78,-16.386 107.692,-9.786 209.006,55.15 209.006,55.15 0,0 -9.84,-23.582 -12.27,-28.882 48.372,41.167 87.59,115.708 87.59,115.708 4.357,-67.658 -30.49,-221.583 -231.49,-228.834"
       id="path4"
       inkscape:connector-curvature="0"
       style="fill:#002244" />
    <path
       d="m 461.13,342.364 c -9.204,-101.973 -77.965,-181.97 -207.285,-192.6 l 12.545,16.824 c -122.266,-8.994 -175.835,59.67 -175.835,59.67 0,0 8.268,0.842 15.404,1.4 -55.94,66 -52.46,121.486 -52.46,121.486 42.26,-56.064 73.78,-83.274 131.39,-107.93 0,0 -6.8,-10.136 -16.1,-18.45 108.22,-15.997 209.75,44.31 209.75,44.31 0,0 -10.099,-24.224 -18.959,-37.074 57.332,33.605 101.547,112.364 101.547,112.364"
       id="path6"
       inkscape:connector-curvature="0"
       style="fill:#0073cf" />
    <path
       d="m 278.672,173.35 c -32.247,-2.837 -114.694,-8.048 -174.69,48.29 0,0 13.9,1.258 13.826,1.358 -20.675,21.965 -50.87,68.275 -57.298,107.958 45.684,-61.032 88.682,-80.306 115.324,-92.095 -5.14,-6.81 -13.797,-14.89 -20.426,-19.47 65.81,-14.7 151.2,2.95 210.79,34.56 -6.04,-13.3 -15.6,-26.88 -22.81,-38.68 58.318,24.88 96.925,84.21 109.123,103.016 -6.53,-32.815 -36.58,-144.07 -185.95,-161.19 3.34,4.477 6.8,9.07 12.12,16.273 z"
       id="path8"
       inkscape:connector-curvature="0"
       style="fill:#ffb612" />
  </g>
</svg>
