<?xml version="1.0" encoding="UTF-8" standalone="no"?>
<svg
   xmlns:dc="http://purl.org/dc/elements/1.1/"
   xmlns:cc="http://creativecommons.org/ns#"
   xmlns:rdf="http://www.w3.org/1999/02/22-rdf-syntax-ns#"
   xmlns:svg="http://www.w3.org/2000/svg"
   xmlns="http://www.w3.org/2000/svg"
   xmlns:sodipodi="http://sodipodi.sourceforge.net/DTD/sodipodi-0.dtd"
   xmlns:inkscape="http://www.inkscape.org/namespaces/inkscape"
   width="512"
   height="512"
   viewBox="0 0 512 512"
   version="1.1"
   id="svg16"
   sodipodi:docname="minnesota-vikings.svg"
   inkscape:version="0.92.5 (2060ec1f9f, 2020-04-08)">
  <metadata
     id="metadata22">
    <rdf:RDF>
      <cc:Work
         rdf:about="">
        <dc:format>image/svg+xml</dc:format>
        <dc:type
           rdf:resource="http://purl.org/dc/dcmitype/StillImage" />
      </cc:Work>
    </rdf:RDF>
  </metadata>
  <defs
     id="defs20" />
  <sodipodi:namedview
     pagecolor="#ffffff"
     bordercolor="#666666"
     borderopacity="1"
     objecttolerance="10"
     gridtolerance="10"
     guidetolerance="10"
     inkscape:pageopacity="0"
     inkscape:pageshadow="2"
     inkscape:window-width="640"
     inkscape:window-height="480"
     id="namedview18"
     showgrid="false"
     inkscape:zoom="0.4609375"
     inkscape:cx="256"
     inkscape:cy="256"
     inkscape:window-x="603"
     inkscape:window-y="26"
     inkscape:window-maximized="0"
     inkscape:current-layer="svg16" />
  <title
     id="title2">minnesota-vikings</title>
  <g
     id="g14"
     transform="translate(-40,-28)"
     style="fill:none;fill-rule:evenodd">
    <path
       d="m 382.438,281.36 c 0.757,-4.102 3.033,-8.662 1.06,-13.068 2.176,-1.203 4.62,-2.443 6.975,-3.645 0.176,-2.76 -0.772,-10.88 -9.853,-16.703 0,0 4.022,-1.398 2.12,-9.57 -11.068,0.91 -8.188,-11.544 -11.22,-17.77 9.317,-5.332 11.605,-16.18 8.795,-23.087 -2.787,4.916 -6.52,9.112 -11.673,9.874 -25.365,-65.88 -90.037,-82.42 -128.422,-80.31 0,0 -1.198,9.54 -3.32,13.34 -27.888,-7.29 -27.132,-37.81 -40.32,-56.95 -3.115,-4.35 -11.454,-14.94 -20.975,-16.71 -1.863,-0.26 -2.523,1.06 -2.375,1.82 19.71,13.37 21.758,36.02 23.65,57.87 1.594,18.4 13.148,28.83 25.124,37.81 -0.657,0.62 -1.68,2.63 -2.232,3.81 -15.462,4.41 -34.087,1.85 -46.97,-6.81 -26.076,-17.12 -19.636,-49.75 -26.86,-75.5 -2.135,-6.696 -5.553,-15.85 -12.402,-19.43 -2.164,-1.185 -4.23,0.084 -3.208,1.506 5,7.14 8.64,15.04 9.09,24 0.15,23.1 -5.473,47.607 3.4,69.294 13.175,29.43 37.512,50.664 67.096,56.91 -0.96,10.413 0.057,19.36 1.82,29.16 -31.753,17.225 -56.358,35.288 -97.106,98.44 -1.254,2.553 -0.042,4.98 3.38,1.794 39.95,-37.195 105.816,-55.61 147.168,6.334 19.883,31.41 18.154,53.526 16.9,74.16 -0.01,7.167 -4.35,17.15 2.107,19.905 6.92,2.99 13.825,-14.575 13.838,-17.02 1.512,-1.52 2.24,-4.65 2.346,-6.93 1.44,-1.085 2.2,-6.083 1.87,-8.772 4.16,-4.93 7.85,-17.25 3.25,-24.43 1.55,-4.14 1.73,-14.864 -0.83,-20.635 1.43,-6.28 2.9,-20.503 -2.25,-27.01 7.46,-8.414 17.19,-15.267 26.938,-19.425 2.42,18.37 6.047,41.795 -10.024,54.4 -1.07,0.72 -0.896,1.96 1.078,1.414 25.85,-8.678 31.33,-57.987 33.12,-64.13 8.6,-4.486 33.094,-11.11 40.436,-13.81 7.69,-2.927 2.37,-13.32 -0.634,-17.004 -1.503,-1.916 -5.844,-2.86 -10.862,-3.1 z m -3.997,-41.12 0.37,2.842 c -5.31,1.3 -13.23,6.475 -14.96,2.983 -1.53,-3.076 5.41,-3.59 6.62,-5.108 0.66,-0.856 0.08,-2.278 -1.52,-2.58 -3.79,0.053 -5.89,0.136 -7.42,0.592 -3.22,2.69 -2.97,9.32 -1.54,11.47 -6.99,3.19 -13.91,10.25 -17.86,14.51 -1.81,-9.12 4.85,-15.64 11.53,-20.35 1.514,-1.45 0.608,-10.63 -0.61,-15.34 -1.252,-0.54 -3.39,0.01 -3.57,-1.06 -0.02,-1.03 8.32,-1.23 11.79,-1.38 -0.9,-5.76 6.004,-6.73 8.1,-3.4 2.57,5.61 0.756,15.9 9.09,16.81 z m -0.39,-34.67 c -0.45,4.404 -3.33,8.353 -7.27,10.63 -11.07,4.858 -25.77,-2.278 -35.93,4.708 0.15,-3.797 2.09,-9.084 7.85,-9.477 14.53,-0.61 24.88,4.14 35.36,-5.86 z m -15.31,1.822 c -19.86,-1.063 -41.6,1.96 -59.64,7.427 -2.73,27.96 -35.67,38.46 -54.96,17.02 0,0 -7.302,1.61 -29.41,11.69 -2.73,-3.65 -5.04,-12.56 -0.83,-14.55 5.73,-3.12 10.09,-5.71 16.03,-7.11 4.97,-1.14 12.94,1.4 16.82,2.47 21.92,13.21 44.29,13.55 49.9,-25.59 0,0 28.327,-7 55.197,-5.2 0,0 4.19,5.803 6.905,13.822 z m -146.59,16.86 v -4.863 l 8.34,1.21 c -2.57,0.77 -5.46,2.22 -8.332,3.64 z m 27.74,-93.405 c 84.71,2.166 109.16,58.32 109.16,58.32 -16.237,-1.367 -37.102,1.64 -53.513,5.162 -8.77,-22.3 -22.04,-31.46 -72.77,-27.04 6.96,-12.72 15.38,-21.07 17.13,-36.45 z m -35.32,13.515 c -4.32,-8.093 -7.25,-18.296 -8.37,-28.322 0.067,-0.383 0.315,-0.412 0.484,-0.265 1.007,5.426 1.93,9.847 4.254,13.707 0.45,0.446 1.24,0.268 1.06,-0.54 -1.75,-5.025 -3.57,-10.894 -4.484,-17.424 0.205,-0.285 0.415,-0.652 0.623,-0.117 1.596,4.12 4.104,11.16 5.985,13.22 0.27,0.36 1.21,0.27 1.124,-0.45 -0.752,-2.19 -2.4,-6.48 -2.93,-8.63 -0.31,-0.71 0.29,-0.44 0.525,-0.24 4.67,12.87 11.743,19.66 20.688,25.13 3.228,2.21 2.145,11.23 -5.152,12.76 -6.212,1.066 -10.92,-4.096 -13.793,-8.808 z m 9,59.44 c -1.79,-2.306 -9.77,3.96 -10.81,2.83 -0.647,-0.518 3.594,-2.136 2.575,-2.884 -2.73,-1.823 -7.375,1.822 -8.035,1.064 -0.47,-0.73 1.722,-1.064 1.06,-2.126 -1.926,-1.965 -8.81,1.9 -9.4,0.76 -0.423,-0.825 5.047,-1.836 3.944,-3.343 -1.807,-1.748 -7.427,1.995 -15.63,-1.746 -30.455,-16.055 -38.53,-48.086 -39.46,-61.415 0.09,-0.45 0.117,-0.57 0.39,-0.21 2.4,11.69 7.005,27.892 17.555,36.036 0.54,0.357 1.115,-0.404 0.76,-0.76 -11.22,-8.844 -15.464,-28.804 -16.02,-46.018 -0.04,-0.66 0.17,-0.72 0.403,-0.154 0.76,13.054 4.4,28.705 14.854,38.574 0.45,0.362 1.21,-0.22 0.76,-0.758 -10.127,-12.164 -13.06,-27.61 -13.006,-42.505 0.09,-0.595 0.48,-0.394 0.45,-0.206 0.608,17.77 8.61,32.84 23.166,44.23 27.138,20.44 72.44,-1.16 98.18,7.53 38.44,11.31 26.44,45.19 14.918,51.1 -2.626,-2.75 -4.38,1.06 -5.457,0.46 -1.164,-0.73 1.33,-1.88 -0.19,-2.8 -1.43,-0.6 -3.2,1.58 -4.51,0.98 -0.76,-0.33 1.32,-1.84 0.28,-2.52 -2.28,-1.51 -5.025,3.25 -6.19,2.52 -0.923,-0.6 3.895,-2.96 1.977,-4.58 -2.51,-1.89 -5.904,3.16 -6.987,2.3 -1.66,-1.19 6.94,-4.99 3.64,-6.53 -1.814,-0.92 -7.55,5.07 -8.79,3.95 -0.978,-0.9 7.03,-4.2 4.753,-5.83 -1.89,-1.06 -11.65,5.897 -13.093,4.778 -1.08,-0.837 8.62,-5.56 6.35,-7.356 -2.82,-1.922 -12.16,8.018 -13.93,6.296 -1.357,-1.116 7.96,-4.788 5.694,-7.054 -2.17,-2.11 -11.626,7.385 -14.19,5.535 -1.19,-0.786 9.528,-5.05 6.68,-7.194 -2.8,-1.615 -14,7.556 -15.015,6.13 -0.89,-1.185 9.443,-5.02 8.03,-6.84 -2.864,-2.753 -13.24,6.33 -14.55,5.01 -1.245,-1.23 8.167,-4.39 6.443,-5.73 -2.87,-2.034 -12.46,5.465 -13.414,3.91 -0.888,-1.405 7.973,-2.576 5.81,-5.42 z m -70.26,116.786 c -8.13,5.51 -14.5,10.14 -22.43,18.025 -0.71,0.538 -1.052,-0.36 -0.34,-1.262 48.25,-72.13 105.778,-95.27 119.77,-98.83 2.74,-0.53 2.47,0.98 1.37,1.69 -26.414,10.2 -70.326,36.44 -89.105,68.2 -2.856,4.83 -5.152,9.407 -9.253,12.198 z m 36.38,-10.945 c -10.11,2.904 -18.58,5.127 -27.362,8.267 -0.79,0.337 -2.106,0.17 -1.62,-0.857 20.663,-37.368 58.673,-59.79 95.208,-75.736 1.077,-0.54 1.86,0.705 0.97,1.064 -27.073,13.19 -46.647,39.49 -62.933,64.17 -0.406,0.62 -2.776,2.67 -4.254,3.1 z m 9.76,-0.894 c -1.43,-0.55 -1.31,-2.05 -0.95,-2.95 17.434,-21.41 31.05,-48.61 57.58,-59.55 2.097,-0.6 4.874,-2.1 7.1,-1.19 5.16,2.15 13.877,5.41 24.71,2.51 21.44,-6.67 24.16,-27.44 24.16,-27.44 5.31,-1.368 10.62,-3.034 16.38,-3.644 -6.216,35.996 -56.245,50.88 -58.214,88.545 -14.853,2.923 -33.38,-8.727 -36.203,-26.126 -3.723,7.39 -8.64,16.14 -17.31,23.692 -4.95,3.92 -12.213,7.73 -17.24,6.13 z m 97.285,44.9 c -3.25,-2.66 -6.213,-5.78 -10.157,-6.99 -0.45,-13.98 9.14,-29.84 12.323,-34.71 1.225,-1.94 2.51,-0.67 3.21,1.88 6.987,21.28 -3.65,30.18 -5.375,39.81 z m 9.1,-8.05 c 3.44,2.16 1.65,19.68 -2.124,28.7 -2.66,-3.84 -5.84,-7.06 -7.53,-8.8 2.333,-5.74 8.04,-20.63 9.65,-19.91 z m -5.76,-69.71 c -0.555,0.26 -2.114,-1.8 -2.94,-1.37 -0.954,0.58 2.484,5.47 2.484,5.47 0.12,29.04 -15.27,35.11 -15.16,52.84 -3.1,-2.46 -7.15,-6 -11.1,-7.53 -6.98,-27.428 26.77,-63.717 28.66,-62.13 0.81,0.87 -1.25,12.092 -1.94,12.7 z m -85.01,32.36 c 8.033,-5.01 14.075,-13.72 17.243,-20.22 l 3.17,7 c -4.093,5.02 -10.086,11.92 -16.116,14.15 -2.195,0.38 -5.72,0.45 -4.297,-0.94 z m 39.746,19.24 c -9.4,-8.05 -19.47,-13.19 -30.84,-16.53 4.394,-3.2 10.306,-8.64 13.794,-13.21 0.57,0.54 1.416,1.47 1.87,1.93 -0.453,11.54 5.377,20.52 15.53,25.84 1.616,0.71 0.54,2.853 -0.353,1.96 z m -11.135,-24.28 c 8.09,5.46 16.676,7.91 25.77,7.3 v 13.2 c -25.294,-2.98 -25.77,-20.51 -25.77,-20.51 z m 26.17,39.39 c -2.686,-1.62 -13.44,-11.7 -9.5,-14.93 4.218,-4.38 22.896,8.05 22.896,8.05 -0.15,3.04 -0.91,5.92 -0.607,9.11 0,0 -9.925,-0.26 -12.787,-2.24 z m 7.936,13.93 c -1.366,-2.58 -4.052,-5.7 -2.52,-7.69 2.483,-2.25 13.835,1.62 19.65,7.99 -0.616,2.85 -1.43,4.85 -2.12,7.74 -5.765,-0.917 -11.98,-1.98 -15.01,-8.056 z m 9.853,19.59 c -1.195,-2.17 -2.988,-7.06 -1.06,-8.66 2.374,-1.31 12.375,3.56 15.712,9.632 0.54,1.44 -2.2,6.63 -3.28,6.81 -1,0.51 -9.672,-3.834 -11.37,-7.787 z m 15.614,20.81 c 0,2.12 -1.75,4.89 -2.6,4.8 -1.062,0.31 -9.25,-4.45 -9.857,-9.17 -0.456,-2.43 -0.73,-6.85 0.483,-7.33 2.26,-0.63 10.16,6.683 11.98,11.7 z m -12.277,48.14 c -2.51,-1.45 -1.036,-7.09 0.76,-10.18 1.51,1.06 2.752,2.87 4.17,4.36 -0.55,1.43 -2.47,6.81 -4.935,5.81 z m 6.38,-8.77 c -2.12,-2.24 -2.89,-4.15 -5.62,-5.81 -0.9,-0.9 -0.115,-3.07 0.6,-2.89 2.146,1 5.383,4.47 6.21,7.53 0.21,0.76 -0.416,1.694 -1.196,1.163 z m 2.302,-5.47 c -1.994,-2.595 -4.68,-5.302 -7.19,-7.43 -1.176,-0.69 0.11,-2.86 1.405,-2.55 3.047,1.06 5.495,5.308 6.862,8.65 0.18,1.08 -0.72,1.685 -1.077,1.33 z m 2.04,-5.83 c -1.034,-2.525 -6.354,-7.834 -9.315,-10.452 -1.613,-1.257 1.155,-3.946 2.232,-3.053 4.544,3.492 10.02,11.133 7.083,13.5 z m 1.78,-6.295 c -2.12,-5.01 -5.83,-9.638 -10.375,-12.68 -1.613,-0.894 -1.437,-4.765 0,-4.4 5.303,1.82 10.637,8.335 11.847,13.65 0.54,1.97 -0.576,5.04 -1.472,3.425 z m 6.176,-23.56 c 1.75,1.282 0.394,10.73 -2.758,14.98 l -3.942,-5.46 c 2.124,-3.35 5.473,-10.284 6.7,-9.524 z m -4.578,-0.81 c -0.72,-3.165 -2.632,-4.87 -3.55,-7.793 0.71,-1.068 5.81,-12.167 6.885,-11.81 1.86,0.95 -0.07,14.363 -3.33,19.603 z m 3.03,-56.048 c 2.88,-12 -1.817,-22.634 -6.21,-32.5 1.57,-7.79 1.897,-14.287 2.875,-22.093 0.59,-1.66 2.64,-1.99 3.34,-0.846 2.11,17.377 9.23,23.474 24.72,22.634 l 1.06,11.69 c -9.85,4.107 -18.19,12.61 -25.77,21.116 z m 24.93,-38.188 c -14.326,4.3 -22.546,-4.498 -21.29,-24.23 -1.712,-2.75 -6.37,3.49 -6.975,1.51 -0.13,-20.78 8.95,-21.8 12.39,-26.807 3.37,0.445 7.11,1.696 8.92,4.14 5.56,8.686 4.17,19.18 7.5,28.9 0.817,1.735 2.43,0 2.43,0 -3.64,-13.367 0.304,-32.35 -15.92,-37.97 6.52,-8.96 9.07,-18.72 11.8,-29.203 1.058,-1.21 3.365,-1.472 4.575,-1.015 -0.454,4.1 -2.12,7.746 -1.518,12.45 0.36,2.807 5.696,-3.38 8.797,-4.86 4.35,-2.246 11.41,-1.693 17.474,-0.78 1.25,0.18 1.07,1.42 -0.183,1.6 -5.91,0.61 -14.992,1.78 -15.475,4.35 -0.03,1.908 6.82,3.798 10.912,3.95 0.59,2.198 1.2,4.985 0.84,7.57 -7.58,3.644 -17.21,13.273 -11.8,29.147 -5.91,8.957 -9.81,20.23 -12.474,31.26 z m 26.01,4.926 c -6.55,19.887 -9.52,46.323 -17.94,57.81 -0.16,0.222 -0.613,0.21 -0.423,-0.26 9.942,-19.86 8.12,-37.678 13.965,-56.788 0.316,-0.72 -0.49,-1.66 -1.116,-0.585 -6.646,8.776 -7.8,43.63 -13.4,54.372 -0.188,0.41 -0.81,0.496 -0.608,-0.327 6.66,-25.22 1.42,-49.462 11.786,-68.8 0.396,-0.692 -0.793,-1.79 -1.82,-0.604 -4.546,8.2 -9.864,24.993 -8.39,44.916 0.084,1.1 -0.816,1.27 -0.967,0.04 -2.876,-23.24 -5.163,-46.45 11.18,-66.527 6.885,-8.45 17.203,-16.286 24.09,-18.085 16.246,-3.44 18.508,11.86 18.508,11.86 -19.103,5.47 -29.323,26.14 -34.868,42.98 z m 5.36,1.642 c -0.963,-0.58 -0.87,-2.54 0.054,-2.89 5.64,-1.55 21.67,-5.23 22.48,-3.464 0.3,0.49 -21.36,6.975 -22.53,6.354 z m 34.965,-9.995 c -11.98,-0.61 -23.494,0.636 -33.81,2.883 1.962,-11.8 17.65,-29.705 20.773,-27.98 2.96,1.64 -3.46,10.02 0.165,12.567 2.75,1.61 5.97,0.537 8.27,1.39 5.08,2.33 6.29,10.63 4.6,11.14 z"
       id="path4"
       inkscape:connector-curvature="0"
       style="fill:#000000" />
    <path
       d="m 300.63,198.763 c -5.608,39.135 -27.977,38.803 -49.898,25.586 -3.877,-1.07 -11.846,-3.61 -16.816,-2.48 -5.943,1.4 -10.304,3.99 -16.03,7.11 -4.215,1.99 -1.904,10.91 0.828,14.55 22.103,-10.08 29.41,-11.69 29.41,-11.69 19.295,21.43 52.234,10.94 54.962,-17.03 18.04,-5.47 39.784,-8.49 59.645,-7.43 -2.71,-8.02 -6.9,-13.83 -6.9,-13.83 -26.87,-1.806 -55.19,5.192 -55.19,5.192"
       id="path6"
       inkscape:connector-curvature="0"
       style="fill:#4f2683" />
    <path
       d="m 396.63,281.74 c -1.604,-2.05 -4.524,-3.424 -8.822,-4.156 0.537,-2.153 0.97,-4.547 0.69,-7.074 1.247,-0.652 3.925,-2.02 3.925,-2.02 1.353,-0.69 2.247,-2.047 2.342,-3.565 0.312,-4.91 -1.738,-12.052 -8.09,-17.753 0.9,-2.207 1.286,-5.353 0.256,-9.773 -0.48,-2.08 -2.41,-3.5 -4.53,-3.32 -3.14,0.25 -3.85,-0.31 -4.95,-7.38 -0.23,-1.46 -0.46,-2.93 -0.8,-4.37 8.81,-6.89 10.87,-17.5 7.66,-26.45 -1.38,-3.85 -6.19,-3.01 -7.71,-0.5 -1.844,3.03 -3.593,5.26 -5.515,6.52 -11.89,-28.24 -32.5,-50.328 -59.825,-64.03 -21.72,-10.9 -47.69,-16.407 -71.244,-15.11 -2.074,0.11 -3.77,1.7 -4.03,3.76 -0.3,2.39 -0.92,5.842 -1.642,8.52 -13.743,-5.33 -18.617,-18.24 -23.744,-31.85 -2.87,-7.614 -5.837,-15.487 -10.46,-22.193 -4.38,-6.11 -13.214,-16.54 -23.73,-18.49 -8.42,-0.72 -8.61,7.826 -5.567,9.62 18.11,12.28 19.974,33.83 21.78,54.673 1.58,18.283 12.1,29.285 22.903,37.86 -13.68,2.93 -29.5,0.255 -40.31,-7.007 l -0.03,-0.02 -0.007,-0.002 c -16.668,-10.942 -19.14,-28.64 -20.925,-48.266 -1.155,-12.747 -4.182,-24.902 -4.2,-24.95 -2.71,-8.508 -6.55,-17.76 -14.473,-21.918 -3,-1.63 -6.47,-1.2 -8.45,1.04 -1.694,1.913 -1.82,4.65 -0.27,6.777 8.416,11.525 8.94,21.84 8.21,33.25 -3.57,31.195 -1.867,47.03 5.74,63.92 17.753,34.267 44.555,48.953 64.59,53.87 -0.44,8.71 0.423,16.417 1.6,23.503 -28.72,15.81 -54.617,34.34 -95.958,98.406 -3.404,4.49 0.78,14.65 9.916,7.285 25.27,-23.516 56.566,-35.657 83.716,-32.48 22.695,2.66 41.85,15.45 56.928,38.02 18.77,29.67 17.848,53.33 15.535,77.756 -0.588,6.23 -2.298,14.643 5.393,17.93 2.723,1.167 5.75,0.82 8.51,-0.98 5.62,-3.686 9.886,-13.455 11.014,-18.11 1.66,-2.33 2.28,-5.29 2.514,-7.184 1.66,-2.66 2.04,-6.58 2.047,-9.04 4.43,-6.37 7.39,-18.04 3.51,-26.317 1.286,-5.494 1.15,-14.5 -0.98,-20.524 0.797,-4.21 2.76,-17.25 -1.38,-26.05 5.22,-5.376 11.45,-10.04 18.097,-13.56 1.334,16.407 4.413,32.86 -9.18,44.58 -3.405,2.684 -3.15,11.05 5.093,8.894 25.025,-8.104 33,-50.13 35.48,-65.23 6.15,-2.755 35.677,-11.83 38.18,-12.75 4.23,-1.613 5.815,-4.61 6.413,-6.84 1.68,-6.287 -2.66,-13.83 -5.193,-16.93 z m -2.695,19.728 c -7.342,2.697 -31.838,9.324 -40.437,13.81 -1.79,6.143 -7.266,55.452 -33.12,64.13 -1.97,0.543 -2.148,-0.698 -1.08,-1.416 16.076,-12.604 12.45,-36.03 10.028,-54.403 -9.75,4.15 -19.478,11 -26.936,19.42 5.153,6.51 3.688,20.73 2.257,27.01 2.568,5.77 2.385,16.49 0.84,20.63 4.598,7.18 0.908,19.5 -3.252,24.43 0.33,2.68 -0.424,7.68 -1.868,8.77 -0.104,2.28 -0.833,5.41 -2.343,6.93 -0.017,2.44 -6.916,20.004 -13.837,17.016 -6.46,-2.756 -2.123,-12.74 -2.11,-19.906 1.256,-20.636 2.983,-42.75 -16.897,-74.16 -41.355,-61.947 -107.22,-43.53 -147.17,-6.337 -3.42,3.185 -4.632,0.76 -3.38,-1.798 40.748,-63.15 65.353,-81.216 97.105,-98.44 -1.763,-9.8 -2.778,-18.748 -1.82,-29.16 -29.585,-6.248 -53.922,-27.488 -67.1,-56.915 -8.872,-21.686 -3.246,-46.194 -3.394,-69.293 -0.45,-8.96 -4.09,-16.858 -9.09,-24 -1.02,-1.42 1.05,-2.69 3.21,-1.504 6.85,3.58 10.27,12.733 12.41,19.43 7.22,25.755 0.78,58.382 26.86,75.505 12.89,8.66 31.51,11.215 46.97,6.81 0.56,-1.187 1.58,-3.19 2.24,-3.81 -11.98,-8.974 -23.53,-19.41 -25.12,-37.804 -1.89,-21.85 -3.942,-44.5 -23.65,-57.864 -0.15,-0.76 0.51,-2.084 2.374,-1.82 9.52,1.764 17.86,12.355 20.97,16.705 13.19,19.137 12.434,49.66 40.32,56.952 2.126,-3.8 3.327,-13.34 3.327,-13.34 38.38,-2.11 103.05,14.43 128.416,80.313 5.154,-0.76 8.888,-4.96 11.676,-9.875 2.81,6.91 0.52,17.757 -8.796,23.09 3.03,6.225 0.155,18.68 11.22,17.77 1.9,8.17 -2.12,9.57 -2.12,9.57 9.08,5.82 10.03,13.94 9.86,16.7 -2.36,1.204 -4.8,2.442 -6.978,3.643 1.977,4.407 -0.303,8.968 -1.06,13.07 5.02,0.247 9.36,1.188 10.864,3.106 3,3.68 8.32,14.072 0.632,17 z M 227.507,140.416 c -8.943,-5.47 -16.016,-12.255 -20.69,-25.123 -0.233,-0.196 -0.834,-0.466 -0.525,0.246 0.53,2.15 2.18,6.43 2.935,8.63 0.087,0.72 -0.856,0.8 -1.126,0.45 -1.87,-2.06 -4.38,-9.11 -5.98,-13.22 -0.2,-0.54 -0.41,-0.17 -0.62,0.11 0.92,6.53 2.74,12.39 4.49,17.42 0.18,0.81 -0.61,0.98 -1.06,0.54 -2.32,-3.86 -3.24,-8.28 -4.25,-13.71 -0.17,-0.15 -0.42,-0.12 -0.48,0.26 1.127,10.022 4.06,20.23 8.378,28.32 2.88,4.713 7.58,9.875 13.796,8.81 7.296,-1.53 8.378,-10.548 5.154,-12.756 z m -2.354,64.89 c 1.72,1.34 -7.686,4.5 -6.44,5.73 1.315,1.317 11.685,-7.765 14.55,-5.013 1.418,1.818 -8.923,5.657 -8.03,6.836 1.017,1.42 12.217,-7.75 15.014,-6.13 2.845,2.14 -7.87,6.4 -6.68,7.19 2.56,1.85 12.017,-7.65 14.188,-5.54 2.264,2.26 -7.048,5.94 -5.7,7.05 1.78,1.72 11.116,-8.22 13.938,-6.29 2.273,1.79 -7.43,6.52 -6.353,7.35 1.445,1.12 11.2,-5.83 13.09,-4.78 2.272,1.634 -5.733,4.94 -4.756,5.835 1.244,1.122 6.98,-4.874 8.793,-3.95 3.297,1.54 -5.3,5.34 -3.64,6.53 1.08,0.853 4.472,-4.187 6.984,-2.297 1.92,1.612 -2.9,3.97 -1.97,4.58 1.17,0.73 3.92,-4.036 6.19,-2.52 1.05,0.672 -1.03,2.18 -0.28,2.52 1.32,0.596 3.09,-1.578 4.52,-0.98 1.52,0.91 -0.97,2.06 0.19,2.8 1.078,0.597 2.83,-3.207 5.45,-0.457 11.53,-5.904 23.53,-39.79 -14.91,-51.095 -25.74,-8.694 -71.05,12.91 -98.18,-7.53 -14.55,-11.39 -22.56,-26.46 -23.162,-44.23 0.034,-0.19 -0.36,-0.386 -0.45,0.21 -0.053,14.896 2.877,30.34 13.006,42.504 0.45,0.54 -0.31,1.12 -0.76,0.76 -10.46,-9.87 -14.1,-25.523 -14.854,-38.576 -0.23,-0.567 -0.444,-0.505 -0.405,0.153 0.56,17.214 4.8,37.174 16.02,46.016 0.36,0.36 -0.22,1.12 -0.76,0.76 -10.55,-8.14 -15.16,-24.34 -17.554,-36.035 -0.27,-0.36 -0.3,-0.24 -0.385,0.21 0.93,13.33 9,45.36 39.46,61.42 8.196,3.74 13.82,0 15.624,1.745 1.106,1.502 -4.364,2.512 -3.94,3.34 0.59,1.14 7.47,-2.726 9.4,-0.764 0.66,1.06 -1.53,1.395 -1.06,2.124 0.654,0.76 5.302,-2.887 8.032,-1.064 1.02,0.75 -3.22,2.365 -2.574,2.887 1.04,1.13 9.02,-5.137 10.816,-2.835 2.165,2.843 -6.696,4.016 -5.813,5.414 0.96,1.56 10.555,-5.937 13.42,-3.905 z"
       id="path8"
       inkscape:connector-curvature="0"
       style="fill:#ffffff" />
    <path
       d="m 351.292,239.716 c 0.36,-2.584 -0.247,-5.372 -0.84,-7.57 -4.097,-0.15 -10.944,-2.04 -10.912,-3.948 0.482,-2.567 9.562,-3.744 15.47,-4.352 1.257,-0.177 1.435,-1.42 0.185,-1.598 -6.067,-0.915 -13.122,-1.465 -17.48,0.784 -3.097,1.478 -8.433,7.662 -8.792,4.86 -0.603,-4.708 1.062,-8.355 1.52,-12.454 -1.215,-0.454 -3.518,-0.19 -4.578,1.02 -2.73,10.483 -5.28,20.245 -11.797,29.205 16.222,5.618 12.275,24.6 15.92,37.968 0,0 -1.614,1.74 -2.428,0 -3.332,-9.71 -1.944,-20.21 -7.5,-28.89 -1.8,-2.44 -5.55,-3.7 -8.912,-4.14 -3.444,5.01 -12.526,6.03 -12.393,26.81 0.608,1.98 5.263,-4.26 6.975,-1.51 -1.255,19.74 6.964,28.53 21.295,24.23 2.658,-11.02 6.558,-22.3 12.472,-31.25 -5.413,-15.87 4.213,-25.5 11.795,-29.144 z m 9.957,-12.893 c -3.48,0.152 -11.81,0.346 -11.8,1.377 0.18,1.076 2.32,0.526 3.57,1.06 1.21,4.71 2.12,13.888 0.61,15.342 -6.68,4.712 -13.34,11.24 -11.53,20.352 3.94,-4.255 10.87,-11.315 17.86,-14.512 -1.43,-2.152 -1.68,-8.78 1.54,-11.473 1.54,-0.46 3.64,-0.54 7.43,-0.6 1.6,0.3 2.172,1.72 1.52,2.58 -1.22,1.52 -8.15,2.03 -6.62,5.11 1.72,3.49 9.65,-1.69 14.96,-2.99 l -0.37,-2.84 c -8.338,-0.91 -6.52,-11.2 -9.096,-16.82 -2.09,-3.33 -8.996,-2.36 -8.094,3.4 z m 27.5,58.73 c -2.3,-0.855 -5.52,0.215 -8.27,-1.394 -3.63,-2.55 2.79,-10.92 -0.17,-12.57 -3.12,-1.73 -18.81,16.17 -20.77,27.98 10.31,-2.25 21.83,-3.49 33.81,-2.88 1.69,-0.51 0.47,-8.81 -4.61,-11.14 z m -86.67,-2.684 c -0.7,-1.15 -2.76,-0.82 -3.34,0.84 -0.98,7.8 -1.31,14.3 -2.88,22.09 4.39,9.87 9.09,20.5 6.21,32.5 7.582,-8.5 15.92,-17.01 25.77,-21.11 l -1.06,-11.7 c -15.49,0.84 -22.603,-5.26 -24.714,-22.64 z m 56.35,20.93 c -0.93,0.34 -1.02,2.31 -0.06,2.89 1.173,0.62 22.83,-5.87 22.533,-6.36 -0.818,-1.77 -16.847,1.91 -22.48,3.46 z"
       id="path10"
       inkscape:connector-curvature="0"
       style="fill:#e9bf9b" />
    <path
       d="m 216.136,219.39 v 4.862 c 2.878,-1.423 5.76,-2.875 8.338,-3.647 l -8.338,-1.216 z m 83.38,-25.06 c 16.413,-3.52 37.276,-6.53 53.513,-5.164 0,0 -24.45,-56.154 -109.16,-58.32 -1.75,15.383 -10.17,23.736 -17.13,36.45 50.73,-4.418 64,4.74 72.77,27.033 z m 43.166,17.104 c -5.754,0.39 -7.694,5.68 -7.846,9.476 10.158,-6.987 24.862,0.15 35.93,-4.708 3.942,-2.28 6.824,-6.226 7.278,-10.63 -10.482,9.993 -20.83,5.25 -35.362,5.862 z m -114.695,67.49 c 2.827,17.397 21.352,29.047 36.205,26.124 1.97,-37.664 52,-52.55 58.213,-88.543 -5.757,0.61 -11.066,2.277 -16.372,3.644 0,0 -2.72,20.76 -24.16,27.43 -10.83,2.9 -19.545,-0.37 -24.704,-2.51 -2.24,-0.91 -5.01,0.59 -7.11,1.19 -26.53,10.93 -40.15,38.14 -57.58,59.54 -0.36,0.89 -0.49,2.39 0.95,2.94 5.03,1.6 12.29,-2.21 17.24,-6.13 8.67,-7.56 13.59,-16.31 17.31,-23.7 z M 245.665,240.2 c 1.1,-0.707 1.37,-2.224 -1.367,-1.687 -13.995,3.57 -71.522,26.7 -119.77,98.838 -0.715,0.91 -0.372,1.8 0.343,1.27 7.94,-7.88 14.3,-12.51 22.44,-18.02 4.1,-2.79 6.4,-7.37 9.26,-12.19 18.78,-31.76 62.69,-57.99 89.11,-68.19 z m 5.2,2.18 c 0.893,-0.358 0.11,-1.603 -0.966,-1.063 -36.54,15.946 -74.55,38.368 -95.21,75.736 -0.49,1.028 0.83,1.196 1.62,0.857 8.78,-3.14 17.25,-5.36 27.36,-8.267 1.48,-0.433 3.85,-2.48 4.25,-3.096 16.28,-24.684 35.86,-50.98 62.93,-64.166 z m 137.03,19.686 c 0,0 -2.264,-15.297 -18.506,-11.86 -6.89,1.798 -17.21,9.634 -24.1,18.086 -16.34,20.077 -14.06,43.285 -11.18,66.53 0.15,1.225 1.05,1.056 0.96,-0.044 -1.47,-19.92 3.85,-36.718 8.39,-44.92 1.02,-1.184 2.212,-0.086 1.82,0.61 -10.37,19.338 -5.13,43.58 -11.79,68.798 -0.2,0.825 0.42,0.737 0.61,0.33 5.593,-10.747 6.75,-45.6 13.4,-54.375 0.623,-1.07 1.43,-0.13 1.11,0.59 -5.84,19.11 -4.025,36.93 -13.967,56.79 -0.19,0.48 0.265,0.49 0.426,0.27 8.42,-11.49 11.384,-37.92 17.937,-57.81 5.543,-16.83 15.763,-37.51 34.864,-42.98 z m -91.892,1.12 c -1.896,-1.586 -35.64,34.705 -28.655,62.13 3.94,1.518 7.99,5.067 11.097,7.522 -0.11,-17.726 15.283,-23.805 15.16,-52.848 0,0 -3.436,-4.893 -2.482,-5.47 0.826,-0.426 2.383,1.63 2.938,1.37 0.69,-0.607 2.76,-11.834 1.95,-12.703 z m -66.543,31.854 -3.167,-7.003 c -3.168,6.495 -9.21,15.205 -17.242,20.214 -1.42,1.4 2.11,1.33 4.3,0.95 6.03,-2.22 12.03,-9.12 16.12,-14.15 z m 19.696,30.497 c -10.158,-5.32 -15.988,-14.304 -15.533,-25.845 -0.453,-0.46 -1.295,-1.397 -1.874,-1.934 -3.49,4.562 -9.4,10.007 -13.8,13.21 11.37,3.34 21.44,8.483 30.84,16.527 0.89,0.9 1.96,-1.245 0.35,-1.958 z m 14.278,-15.018 c -9.098,0.6 -17.683,-1.85 -25.77,-7.31 0,0 0.474,17.53 25.77,20.5 v -13.2 z m 29.45,1.43 c -3.183,4.87 -12.773,20.73 -12.32,34.71 3.943,1.21 6.907,4.33 10.157,6.98 1.73,-9.63 12.37,-18.53 5.38,-39.82 -0.7,-2.55 -1.98,-3.82 -3.21,-1.88 z m -15.654,23.77 c 0,0 -18.673,-12.43 -22.89,-8.05 -3.94,3.22 6.813,13.31 9.5,14.92 2.863,1.98 12.787,2.23 12.787,2.23 -0.3,-3.19 0.456,-6.076 0.608,-9.11 z m 20.47,38.58 c 3.775,-9.02 5.566,-26.54 2.123,-28.71 -1.61,-0.72 -7.317,14.16 -9.65,19.9 1.69,1.74 4.867,4.96 7.527,8.8 z m -8.794,-17.46 c -5.815,-6.37 -17.17,-10.25 -19.652,-8 -1.53,1.99 1.158,5.11 2.52,7.69 3.034,6.07 9.246,7.14 15.01,8.05 0.692,-2.89 1.503,-4.9 2.123,-7.75 z M 293,383.91 c 1.073,-0.18 3.816,-5.37 3.28,-6.81 -3.337,-6.07 -13.338,-10.94 -15.715,-9.63 -1.927,1.6 -0.134,6.49 1.06,8.657 1.698,3.95 10.37,8.292 11.374,7.785 z m 2.51,2.65 c 0.922,2.92 2.837,4.63 3.553,7.794 3.265,-5.24 5.194,-18.654 3.335,-19.603 -1.075,-0.35 -6.173,10.74 -6.888,11.81 z m -10.24,-1.323 c -1.216,0.482 -0.94,4.898 -0.487,7.325 0.61,4.727 8.796,9.484 9.857,9.173 0.85,0.095 2.6,-2.678 2.6,-4.8 -1.818,-5.013 -9.715,-12.33 -11.97,-11.698 z m 11.67,19.447 3.943,5.46 c 3.153,-4.25 4.508,-13.698 2.758,-14.984 -1.22,-0.76 -4.57,6.173 -6.7,9.525 z m -9.85,-3.04 c -1.437,-0.365 -1.616,3.506 0,4.4 4.545,3.042 8.25,7.664 10.373,12.674 0.897,1.614 2.013,-1.456 1.473,-3.426 -1.21,-5.314 -6.542,-11.834 -11.847,-13.65 z m 1.512,9.864 c -1.076,-0.896 -3.844,1.794 -2.232,3.052 2.96,2.618 8.28,7.927 9.318,10.452 2.934,-2.366 -2.54,-10.007 -7.085,-13.505 z m -0.743,9.356 c -1.3,-0.31 -2.58,1.858 -1.41,2.548 2.51,2.128 5.19,4.835 7.19,7.43 0.35,0.357 1.25,-0.25 1.07,-1.328 -1.37,-3.344 -3.82,-7.594 -6.87,-8.65 z m -1.53,6.75 c -0.72,-0.19 -1.51,1.987 -0.61,2.884 2.73,1.665 3.5,3.572 5.62,5.81 0.78,0.532 1.41,-0.403 1.19,-1.163 -0.83,-3.065 -4.07,-6.532 -6.21,-7.53 z m -0.61,7.283 c -1.8,3.092 -3.27,8.726 -0.76,10.176 2.47,0.993 4.38,-4.378 4.93,-5.815 -1.42,-1.49 -2.66,-3.296 -4.17,-4.36 z"
       id="path12"
       inkscape:connector-curvature="0"
       style="fill:#ffc62f" />
  </g>
</svg>
