<?xml version="1.0" encoding="UTF-8" standalone="no"?>
<svg
   xmlns:dc="http://purl.org/dc/elements/1.1/"
   xmlns:cc="http://creativecommons.org/ns#"
   xmlns:rdf="http://www.w3.org/1999/02/22-rdf-syntax-ns#"
   xmlns:svg="http://www.w3.org/2000/svg"
   xmlns="http://www.w3.org/2000/svg"
   xmlns:sodipodi="http://sodipodi.sourceforge.net/DTD/sodipodi-0.dtd"
   xmlns:inkscape="http://www.inkscape.org/namespaces/inkscape"
   width="512"
   height="512"
   viewBox="0 0 512 512"
   version="1.1"
   id="svg14"
   sodipodi:docname="new-orleans-saints.svg"
   inkscape:version="0.92.4 (5da689c313, 2019-01-14)">
  <metadata
     id="metadata20">
    <rdf:RDF>
      <cc:Work
         rdf:about="">
        <dc:format>image/svg+xml</dc:format>
        <dc:type
           rdf:resource="http://purl.org/dc/dcmitype/StillImage" />
      </cc:Work>
    </rdf:RDF>
  </metadata>
  <defs
     id="defs18" />
  <sodipodi:namedview
     pagecolor="#ffffff"
     bordercolor="#666666"
     borderopacity="1"
     objecttolerance="10"
     gridtolerance="10"
     guidetolerance="10"
     inkscape:pageopacity="0"
     inkscape:pageshadow="2"
     inkscape:window-width="640"
     inkscape:window-height="480"
     id="namedview16"
     showgrid="false"
     inkscape:zoom="0.4609375"
     inkscape:cx="256"
     inkscape:cy="256"
     inkscape:window-x="0"
     inkscape:window-y="0"
     inkscape:window-maximized="0"
     inkscape:current-layer="svg14" />
  <title
     id="title2">new-orleans-saints</title>
  <g
     id="g12"
     transform="translate(-36.881356)"
     style="fill:none;fill-rule:evenodd">
    <path
       d="m 370.36,218.755 c -25.97,-15.108 -51.51,-11.592 -70.888,-2.957 -0.864,-6.38 -2.52,-13.376 -5.294,-21.56 -4.108,-12.186 -8.61,-23.83 -12.574,-34.106 -5.222,-13.5 -9.194,-25.057 -11.372,-32.79 l -14.128,-48.438 -14.66,48.474 c -2.25,7.695 -6.106,19.324 -11.3,32.844 -3.945,10.257 -8.412,21.92 -12.492,34.107 -2.746,8.2 -4.403,15.19 -5.25,21.57 -19.387,-8.6 -44.945,-12.03 -70.88,3.12 -21.17,12.42 -32.525,33.96 -29.614,56.26 2.674,20.26 16.523,36.23 36.163,41.64 l 14.63,4 3.59,-14.75 c 0.52,-1.98 5.79,-20.44 22.41,-20.12 11.51,0.212 21.1,10.42 25.87,17.014 -1.55,4.65 -2.372,10.24 -1.58,16.26 l -6.49,-8.686 -11.78,8.796 c -10.59,7.895 -25.99,27.4 -16.47,50.44 4.15,10.06 13.06,16.91 25.096,19.29 7.36,1.48 15.735,1.153 23.48,-0.58 3.04,9.81 8.616,21.67 18.72,32.27 L 256.2,432 266.835,420.824 c 10.1,-10.6 15.615,-22.466 18.674,-32.305 7.74,1.69 16.1,2.02 23.46,0.54 12.015,-2.42 20.91,-9.3 25.05,-19.36 9.456,-23.08 -5.997,-42.54 -16.586,-50.44 l -11.796,-8.72 -6.484,8.69 c 0.775,-6.03 -0.07,-11.62 -1.62,-16.27 4.754,-6.634 14.3,-16.836 25.827,-17.09 16.64,-0.36 21.94,18.064 22.496,20.19 l 3.582,14.747 c 0,-0.11 14.59,-4.18 14.59,-4.18 19.668,-5.41 33.46,-21.42 36.093,-41.718 2.84,-22.28 -8.54,-43.82 -29.756,-56.17"
       id="path4"
       inkscape:connector-curvature="0"
       style="fill:#000000" />
    <path
       d="m 251.242,129.45 c -1.792,8.435 -6.403,20.46 -11.753,34.36 -3.91,10.182 -8.36,21.72 -12.36,33.69 -3.84,11.5 -5.41,20.08 -5.41,28.067 0,2.56 0.28,5.048 0.56,7.59 -14.788,-10.167 -43.93,-24.084 -75.724,-5.463 -17.65,10.312 -27.125,28.047 -24.745,46.292 2.13,16.19 13.2,28.95 28.895,33.276 l 4.65,1.262 1.163,-4.688 c 0.3,-1.154 7.286,-28.3 32.346,-27.797 20.168,0.43 33.35,20.04 36.91,26.06 -1.7,3.13 -3.1,7.46 -3.1,12.4 0,5.33 1.81,11.39 6.42,17.45 -1.83,2.48 -4.845,5.55 -8.376,5.84 -5.015,0.43 -10.085,-4.87 -13.46,-9.38 l -2.82,-3.79 -3.766,2.85 c -7.707,5.73 -20.395,21.197 -13.217,38.574 2.873,6.96 9.032,11.573 17.81,13.306 9.08,1.8 20.534,0.18 28.665,-3.535 1.57,9.2 6.027,24.738 18.83,38.11 l 3.4,3.57 3.403,-3.6 c 12.77,-13.378 17.19,-28.95 18.74,-38.147 8.16,3.713 19.61,5.3 28.69,3.462 8.77,-1.766 14.913,-6.344 17.76,-13.304 7.13,-17.416 -5.585,-32.88 -13.31,-38.58 l -3.767,-2.81 -2.81,3.75 c -3.345,4.54 -8.424,9.84 -13.45,9.443 -3.512,-0.29 -6.54,-3.355 -8.394,-5.844 4.575,-6.053 6.394,-12.074 6.394,-17.374 0,-4.976 -1.438,-9.34 -3.133,-12.475 3.55,-6.06 16.68,-25.707 36.847,-26.14 25.05,-0.58 32.11,26.534 32.38,27.69 l 1.19,4.72 4.65,-1.297 c 15.702,-4.363 26.725,-17.124 28.814,-33.37 2.343,-18.223 -7.17,-35.925 -24.85,-46.234 -31.864,-18.53 -60.984,-4.548 -75.735,5.672 0.27,-2.43 0.56,-4.882 0.56,-7.37 0,-8.075 -1.58,-16.8 -5.44,-28.283 -4.03,-11.956 -8.5,-23.47 -12.414,-33.64 -5.394,-13.9 -10.04,-25.906 -11.844,-34.343 l -4.63,-21.63 -4.572,21.63"
       id="path6"
       inkscape:connector-curvature="0"
       style="fill:#ffffff" />
    <path
       d="m 256.204,410.664 c 18.036,-18.964 18.235,-42.868 18.235,-42.868 7.99,7.968 39,13.304 45.96,-3.677 7.62,-18.64 -11.74,-32.99 -11.74,-32.99 -18.79,25.16 -31.38,0.5 -31.38,0.5 14.3,-15.47 3.56,-29.39 3.56,-29.39 0.94,-2.82 16.78,-30.54 42.18,-31.1 29.25,-0.65 37.06,31.31 37.06,31.31 30.69,-8.51 36.63,-51.32 2.84,-70.97 -42.827,-24.95 -80.162,13.05 -80.162,13.05 3.474,-14.227 4.447,-24.86 -2.54,-45.61 -9.51,-28.16 -21.145,-53.307 -24.387,-68.52 -3.23,15.212 -14.81,40.412 -24.25,68.57 -6.95,20.783 -5.922,31.4 -2.44,45.623 0,0 -37.414,-37.91 -80.2,-12.87 -33.71,19.74 -27.69,62.536 3,70.974 0,0 7.757,-31.98 37.02,-31.406 25.398,0.52 41.31,28.193 42.25,30.97 0,0 -10.693,13.99 3.63,29.42 0,0 -12.54,24.695 -31.37,-0.47 0,0 -19.34,14.46 -11.67,33.06 7.007,16.946 37.992,11.537 45.963,3.533 0,0 0.27,23.94 18.34,42.83"
       id="path8"
       inkscape:connector-curvature="0"
       style="fill:#000000" />
    <path
       d="m 332.936,230.164 c -34.85,0.036 -63.46,39.66 -63.46,39.66 1.235,-6.473 16.166,-35.658 2.673,-70.537 -13.5,-34.88 -16.27,-48.926 -16.27,-48.926 l -0.06,0.42 v -0.4 c 0,0 -2.73,14.04 -16.14,48.96 -13.41,34.9 1.563,64.05 2.815,70.54 0,0 -28.68,-39.57 -63.55,-39.53 -34.857,0.04 -63.89,39.75 -31.67,63.22 0,0 9.43,-29.31 41.92,-29.38 23.91,-0.03 47.84,25.64 48.85,38.36 0,0 -10.93,15.47 4.287,28.38 0,0 -16.43,34.61 -39.226,9.7 0,0 -17.52,21.92 5.386,27.22 18.18,4.22 36.087,-14.24 36.087,-14.24 0,0 -1.954,29.17 11.51,45.106 v -0.145 l 0.08,0.145 c 13.426,-15.97 11.41,-45.14 11.41,-45.14 0,0 17.937,18.423 36.11,14.17 22.91,-5.374 5.33,-27.257 5.33,-27.257 -22.71,24.946 -39.226,-9.593 -39.226,-9.593 15.16,-12.94 4.186,-28.41 4.186,-28.41 0.98,-12.69 24.866,-38.43 48.78,-38.43 32.494,0 42,29.274 42,29.274 32.168,-23.54 3.028,-63.2 -31.84,-63.146"
       id="path10"
       inkscape:connector-curvature="0"
       style="fill:#9f8958" />
  </g>
</svg>
