<?xml version="1.0" encoding="UTF-8" standalone="no"?>
<svg
   xmlns:dc="http://purl.org/dc/elements/1.1/"
   xmlns:cc="http://creativecommons.org/ns#"
   xmlns:rdf="http://www.w3.org/1999/02/22-rdf-syntax-ns#"
   xmlns:svg="http://www.w3.org/2000/svg"
   xmlns="http://www.w3.org/2000/svg"
   xmlns:sodipodi="http://sodipodi.sourceforge.net/DTD/sodipodi-0.dtd"
   xmlns:inkscape="http://www.inkscape.org/namespaces/inkscape"
   width="512"
   height="512"
   viewBox="0 0 512 512"
   version="1.1"
   id="svg10"
   sodipodi:docname="new-york-giants.svg"
   inkscape:version="0.92.4 (fd57863, 2020-04-02)">
  <metadata
     id="metadata16">
    <rdf:RDF>
      <cc:Work
         rdf:about="">
        <dc:format>image/svg+xml</dc:format>
        <dc:type
           rdf:resource="http://purl.org/dc/dcmitype/StillImage" />
      </cc:Work>
    </rdf:RDF>
  </metadata>
  <defs
     id="defs14" />
  <sodipodi:namedview
     pagecolor="#ffffff"
     bordercolor="#666666"
     borderopacity="1"
     objecttolerance="10"
     gridtolerance="10"
     guidetolerance="10"
     inkscape:pageopacity="0"
     inkscape:pageshadow="2"
     inkscape:window-width="640"
     inkscape:window-height="480"
     id="namedview12"
     showgrid="false"
     inkscape:zoom="0.4609375"
     inkscape:cx="256"
     inkscape:cy="256"
     inkscape:window-x="67"
     inkscape:window-y="27"
     inkscape:window-maximized="0"
     inkscape:current-layer="svg10" />
  <title
     id="title2">new-york-giants</title>
  <g
     id="g8"
     transform="translate(-43.559323,13.694916)"
     style="fill:none;fill-rule:evenodd">
    <path
       d="M 402.014,138.286 H 355.96 l 0.085,109.053 c -0.026,2.61 -0.72,15.89 -11.686,15.9 -4.06,0 -5.91,-1.4 -6.95,-2.46 -3.44,-3.5 -4.1,-10.24 -4.06,-12.53 l -0.08,-109.97 h -74.71 l 0.02,44.44 8.48,-0.01 c 7.75,0 10.3,1.98 11.04,2.84 0.72,0.84 0.84,1.92 0.84,2.56 0,0.31 -0.03,0.52 -0.03,0.54 l -0.11,0.58 -0.03,0.99 0.04,73.183 c 0.01,14.222 4.7,26.425 13.57,35.294 9.23,9.23 22.51,14.306 37.393,14.29 10.965,-0.006 19.76,-2.67 26.39,-5.82 0.006,1.057 0.02,2.14 0.02,3.165 0,7.477 -0.228,13.865 -1.38,15.257 -0.297,0.234 -1.95,1.14 -9.72,1.15 H 123.93 v 51.15 h 237.91 c 17.42,-0.01 30.595,-5.075 39.15,-14.865 8.54,-9.775 9.614,-21.61 9.614,-27.73 0,-1.55 0.063,-2.68 0,-3.374 -0.004,-0.78 0,-193.65 0,-193.65 h -8.59 z m -278.084,171.568 52.918,-0.04 -0.08,-113.688 -0.066,-0.585 c -0.005,-0.04 -0.47,-4.6 2.093,-7.47 2.364,-2.64 6.935,-3.2 10.355,-3.2 3.694,0 6.33,0.85 8.058,2.6 2.472,2.51 2.97,6.76 2.95,8.19 v 0.22 l 0.072,85.74 0.006,-0.3 c -0.046,1.317 -0.224,13.084 7.66,21.26 4.556,4.728 10.855,7.226 18.213,7.225 l 45.36,-0.04 -0.03,-44.84 -9.69,1.268 c -1.115,0.148 -4.718,0.195 -6.58,-1.445 -1.517,-1.332 -2,-4.083 -2,-6.156 v -80.86 0.346 c 0.03,-0.726 0.67,-17.97 -11.37,-30.515 -7.94,-8.27 -19.117,-12.45 -33.217,-12.44 -14.533,0.015 -25.054,4.056 -32.56,9.04 l -0.003,-5.85 h -74.01 l 0.026,46.54 10.307,-2.19 c 2.066,-0.44 7.075,-0.67 9.385,1.413 1.68,1.51 2.195,4.53 2.195,7.207 v 118.59 z"
       id="path4"
       inkscape:connector-curvature="0"
       style="fill:#a71930" />
    <path
       d="m 283.503,263.423 c 0.01,12.953 4.215,24.013 12.185,31.986 8.35,8.34 20.46,12.94 34.1,12.92 14.528,-0.01 24.873,-4.96 31.004,-9.08 l 0.022,3.43 c 0.027,2.9 0.053,5.57 0.053,8.02 0,9.76 -0.41,15.83 -2.724,18.18 -1.72,1.74 -5.5,2.45 -13.04,2.46 l -216.506,0.15 v 41.81 l 233.24,-0.18 c 16.02,-0.012 28.012,-4.446 35.64,-13.176 7.547,-8.64 8.662,-19.1 8.662,-24.51 0,-1.667 -0.11,-2.82 -0.16,-3.33 l -0.15,-189.16 h -45.2 l 0.08,104.37 c -0.01,0.83 -0.27,20.572 -16.35,20.582 -4.38,0.006 -7.75,-1.266 -10.31,-3.886 -5.54,-5.68 -5.37,-15.773 -5.37,-15.874 0.003,-0.1 -0.077,-105.196 -0.077,-105.196 h -65.39 l 0.027,35.09 h 3.815 c 7.127,-0.006 12.205,1.584 14.682,4.59 2.47,3 1.78,6.67 1.75,6.828 v 73.96 z m -154.903,41.754 43.578,-0.033 -0.075,-108.792 -0.034,-0.26 c -0.01,-0.065 -0.78,-6.558 3.18,-11.07 2.81,-3.2 7.48,-4.826 13.89,-4.83 4.97,-0.005 8.82,1.357 11.43,4.045 4.37,4.488 4.24,11.44 4.24,11.51 l 0.07,85.854 c -0.018,0.31 -0.307,10.81 6.352,17.72 3.71,3.85 8.707,5.8 14.856,5.8 l 40.7,-0.03 -0.02,-34.91 -4.38,0.64 c -0.066,0.01 -6.33,0.87 -10.255,-2.53 -2.3,-1.99 -3.47,-5.26 -3.47,-9.7 l -0.057,-80.853 c 0.022,-0.493 0.505,-15.81 -10.175,-26.936 -7.023,-7.312 -17.065,-11.02 -29.85,-11.01 -19.144,0.02 -30.69,7.457 -37.22,14.173 l -0.006,-10.98 h -64.69 l 0.023,36.14 4.652,-1.035 c 0.082,-0.02 8.61,-1.858 13.46,2.473 2.45,2.19 3.772,5.77 3.772,10.67 v 113.96 z"
       id="path6"
       inkscape:connector-curvature="0"
       style="fill:#0b2265" />
  </g>
</svg>
