<?xml version="1.0" encoding="UTF-8" standalone="no"?>
<svg
   xmlns:dc="http://purl.org/dc/elements/1.1/"
   xmlns:cc="http://creativecommons.org/ns#"
   xmlns:rdf="http://www.w3.org/1999/02/22-rdf-syntax-ns#"
   xmlns:svg="http://www.w3.org/2000/svg"
   xmlns="http://www.w3.org/2000/svg"
   xmlns:sodipodi="http://sodipodi.sourceforge.net/DTD/sodipodi-0.dtd"
   xmlns:inkscape="http://www.inkscape.org/namespaces/inkscape"
   width="512"
   height="512"
   viewBox="0 0 512 512"
   version="1.1"
   id="svg32"
   sodipodi:docname="new-york-jets.svg"
   inkscape:version="0.92.5 (2060ec1f9f, 2020-04-08)">
  <metadata
     id="metadata38">
    <rdf:RDF>
      <cc:Work
         rdf:about="">
        <dc:format>image/svg+xml</dc:format>
        <dc:type
           rdf:resource="http://purl.org/dc/dcmitype/StillImage" />
      </cc:Work>
    </rdf:RDF>
  </metadata>
  <defs
     id="defs36" />
  <sodipodi:namedview
     pagecolor="#ffffff"
     bordercolor="#666666"
     borderopacity="1"
     objecttolerance="10"
     gridtolerance="10"
     guidetolerance="10"
     inkscape:pageopacity="0"
     inkscape:pageshadow="2"
     inkscape:window-width="640"
     inkscape:window-height="480"
     id="namedview34"
     showgrid="false"
     inkscape:zoom="0.4609375"
     inkscape:cx="256"
     inkscape:cy="256"
     inkscape:window-x="0"
     inkscape:window-y="0"
     inkscape:window-maximized="0"
     inkscape:current-layer="svg32" />
  <title
     id="title2">new-york-jets</title>
  <g
     id="g30"
     transform="translate(0,8)"
     style="fill:none;fill-rule:evenodd">
    <path
       d="m 461.932,255.07 c 0,-56.075 -91.92,-116.163 -207.015,-116.163 -110.19,0 -207.016,60.455 -207.016,116.162 0,55.7 96.83,116.16 207.02,116.16 115.1,0 207.02,-60.09 207.02,-116.17"
       id="path4"
       inkscape:connector-curvature="0"
       style="fill:#203731" />
    <path
       d="m 334.983,194.635 v 12.204 h 19.443 l 0.125,-0.01 c 1.05,-0.07 2.75,0.2 3.14,0.83 0.34,0.58 0.23,2.69 -2.45,6.88 -0.03,0.06 -18.72,31.18 -25.66,42.74 l -27.37,-43.79 c -2.27,-3.49 -2,-4.878 -1.73,-5.38 0.5,-0.93 1.26,-1.18 2.84,-1.28 h 14.15 v -12.21 l -105.42,-0.018 v 12.15 h 13.33 c 2.71,0 4.59,0.55 5.7,1.67 1.87,1.86 2.25,5.8 2.25,11.14 v 44.773 l -53.38,-69.69 h -52.66 v 12.765 h 17.293 c 1.833,0 3.13,0.35 3.808,1.04 1.34,1.325 1.34,4.71 1.34,7.976 v 70.306 c 0,11.64 -1.24,14.83 -5.81,14.87 h -16.78 v 11.26 H 183.6 V 301.48 h -15.94 c -2.68,0.025 -4.6,-0.102 -5.29,-0.78 -1.484,-1.477 -1.612,-7.976 -1.612,-13.96 v -61.87 l 72.738,88.108 H 244.9 c 0,0 0.08,-98.076 0,-99.82 -0.13,-2.663 0.6,-5.71 5.36,-6.32 h 11.328 c 5.245,-0.024 8.674,6.32 12.2,12.313 0,0 27.24,46.31 30.866,52.44 v 22.34 c 0,7.586 -3.366,7.586 -4.795,7.586 h -12.78 v 11.39 l 67.01,0.004 V 301.4 h -12.23 c -4.74,-0.254 -6.39,-1.617 -6.2,-8.655 v -23.07 l 32.703,-54.853 c 4.677,-7.26 5.173,-8.013 11.59,-7.93 H 391 V 194.63 h -56.017"
       id="path6"
       inkscape:connector-curvature="0"
       style="fill:#ffffff" />
    <path
       d="m 338.03,197.683 v 6.11 h 16.267 c 0,0 12.044,-1.003 3.51,12.39 l -28.197,46.937 -30.004,-48 c -7.788,-12.367 3.826,-11.327 3.826,-11.327 h 10.973 v -6.11 l -99.32,-0.015 v 6.06 h 10.277 c 9.862,0 10.99,6.355 10.99,15.85 v 53.76 L 178.415,197.71 h -48.102 v 6.675 h 14.247 c 9.09,-0.017 8.098,7.143 8.197,14.112 v 68.25 c 0,9.492 -0.392,17.85 -8.832,17.913 h -13.75 v 5.164 h 50.36 v -5.298 H 167.64 c -8.623,0.07 -9.948,-1.24 -9.948,-17.78 v -71.09 l 77.232,94.28 h 6.307 v -91.028 c 0,-9.488 0.19,-14.756 9.01,-15.115 h 12.54 c 6.7,0.484 10.26,8.228 14.99,16.346 l 29.9,50.61 v 23.17 c 0,7.2 -2.82,10.63 -7.83,10.63 h -9.73 v 5.29 h 60.91 v -5.415 h -9.28 c -7.43,-0.38 -9.35,-4.21 -9.15,-11.788 v -23.81 l 30.81,-52.04 c 6.886,-10.33 7.267,-13.076 16.57,-12.95 h 8.007 v -6.172 h -49.93"
       id="path8"
       inkscape:connector-curvature="0"
       style="fill:#203731" />
    <path
       d="m 301.79,311.368 c 0,-13.78 -20.817,-28.545 -46.873,-28.545 -24.948,0 -46.88,14.857 -46.88,28.545 0,13.683 21.928,28.536 46.88,28.536 26.052,0.002 46.873,-14.76 46.873,-28.536"
       id="path10"
       inkscape:connector-curvature="0"
       style="fill:#203731" />
    <path
       d="m 298.645,309.83 c -1.524,-11.792 -20.37,-23.85 -43.728,-23.85 -22.36,0 -42.112,12.122 -43.73,23.85 h 87.458"
       id="path12"
       inkscape:connector-curvature="0"
       style="fill:#ffffff" />
    <path
       d="m 211.186,312.876 c 1.59,11.736 21.36,23.878 43.73,23.878 23.37,0 42.234,-12.077 43.748,-23.878 h -87.478"
       id="path14"
       inkscape:connector-curvature="0"
       style="fill:#ffffff" />
    <path
       d="m 239.103,321.555 c -5.923,0 -10.738,-4.563 -10.738,-10.184 0,-5.63 4.815,-10.19 10.738,-10.19 h 31.628 c 5.93,0 10.72,4.56 10.72,10.19 0,5.63 -4.79,10.19 -10.72,10.19 h -31.62"
       id="path16"
       inkscape:connector-curvature="0"
       style="fill:#203731" />
    <path
       d="m 272.38,306.827 -0.226,-0.902 h -2.99 c 0.116,0.317 0.196,0.64 0.28,0.967 0.24,0.957 0.41,1.944 0.494,2.955 h -5.347 c -0.07,-0.94 -0.22,-1.865 -0.43,-2.72 l -2.89,0.038 c 0.27,0.86 0.45,1.755 0.56,2.68 h -5.41 v -2.55 h -2.99 v 2.55 H 248 c 0.114,-0.926 0.28,-1.824 0.553,-2.68 l -2.88,-0.037 c -0.21,0.854 -0.35,1.776 -0.438,2.72 h -5.36 c 0.098,-1.012 0.253,-2 0.512,-2.956 l 0.265,-0.967 h -2.988 l -0.214,0.902 c -0.338,1.486 -0.508,3.032 -0.508,4.626 0,1.853 0.238,3.65 0.676,5.368 l 3.01,0.04 c -0.397,-1.27 -0.655,-2.59 -0.767,-3.96 h 5.37 c 0.07,0.95 0.23,1.9 0.45,2.8 l 2.84,-0.03 c -0.26,-0.89 -0.44,-1.82 -0.52,-2.76 h 5.44 v 2.64 h 2.99 v -2.64 h 5.43 c -0.085,0.94 -0.266,1.87 -0.53,2.76 l 2.844,0.038 c 0.228,-0.904 0.38,-1.85 0.45,-2.796 h 5.363 c -0.115,1.36 -0.37,2.69 -0.764,3.96 l 2.99,-0.04 c 0.45,-1.72 0.698,-3.515 0.698,-5.37 0,-1.593 -0.183,-3.14 -0.51,-4.625"
       id="path18"
       inkscape:connector-curvature="0"
       style="fill:#ffffff" />
    <path
       d="m 391.326,234.81 c -3.1,-5.86 -11.296,-9.203 -23.685,-9.673 -9.11,-0.3 -16.25,0.173 -21.91,1.627 l -149.07,0.065 c 4.33,-8.11 7.62,-14.24 7.62,-14.24 h -36.77 l -25.24,47.51 c -2.05,3 -2.33,3.17 -4.43,2.95 -0.6,-0.06 -1.01,-0.15 -1.28,-0.23 0.38,-1.31 1.88,-3.83 2.43,-4.75 -0.013,0.03 8.79,-14.46 8.79,-14.46 h -34.29 l -1.027,1.42 c -9.41,12.96 -12.202,23.41 -8.265,31.06 3.765,7.34 13.02,11.02 27.505,10.93 14.62,-0.09 23.82,-0.78 31.14,-5.558 h 74.37 l 19.17,-35.79 h 16.52 l -19.077,35.73 h 37.96 l 11.934,-22.385 h 16.07 l -0.83,2.035 c -2.935,7.21 -1.355,11.99 0.476,14.727 3.6,5.36 11.33,8.083 22.968,8.11 19.61,-0.04 32.12,-1.84 38.116,-10.96 4.96,-7.54 5.7,-14.4 2.08,-19.34 -0.99,-1.4 -2.566,-2.61 -4.43,-3.657 h 10.805 l 1.015,-1.625 c 3.798,-6.11 2.82,-10.715 1.34,-13.51"
       id="path20"
       inkscape:connector-curvature="0"
       style="fill:#203731" />
    <path
       d="m 141.654,247.05 h -26.42 c -17.766,24.44 -9.044,36.713 16.447,36.555 23.21,-0.14 31.36,-1.626 41.04,-19.312 l 25.84,-48.277 h -28.97 l -24.39,45.866 c -2.28,3.356 -3.56,5.022 -7.71,4.583 -6.57,-0.69 -4.78,-4.532 -1.45,-10.14 l 5.63,-9.275"
       id="path22"
       inkscape:connector-curvature="0"
       style="fill:#ffffff" />
    <path
       d="m 259.544,277.984 h 30.174 l 19.02,-35.43 h 13.905 l 6.66,-12.36 H 268.22 l -6.51,12.066 h 16.89 l -19.057,35.724"
       id="path24"
       inkscape:connector-curvature="0"
       style="fill:#ffffff" />
    <path
       d="m 322.12,262.36 c -4.612,11.335 2.37,18.07 20.283,18.11 19.387,-0.037 30.246,-1.825 35.24,-9.42 3.404,-5.162 5.346,-11.138 2.17,-15.443 -2.17,-3.106 -9.983,-5.81 -17.375,-7.248 -4.712,-0.92 -6.365,-2.05 -6.04,-4.83 0.297,-2.53 3.444,-3.11 5.802,-2.42 1.9,0.56 2.733,2.93 2.425,5.4 h 22.446 c 6.08,-9.79 -0.96,-17.25 -19.57,-17.95 -23.02,-0.76 -31.79,3.48 -36.43,15.2 -2.31,5.43 -1.93,9.61 1.44,11.83 4.21,2.75 15.84,4.502 19.31,5.79 2.11,0.78 2.4,3.36 1.22,4.882 -1.38,1.75 -4.68,2.583 -6.77,0.96 -1.43,-1.114 -1.19,-2.498 -1.68,-4.883 h -22.46"
       id="path26"
       inkscape:connector-curvature="0"
       style="fill:#ffffff" />
    <path
       d="m 177.387,278.054 h 57.75 l 6.477,-12.073 h -31.6 l 3.032,-5.79 h 28.1 l 6.606,-12.31 h -26.424 l 2.653,-5.55 h 28.57 l 6.43,-12.07 h -56 l -25.59,47.8"
       id="path28"
       inkscape:connector-curvature="0"
       style="fill:#ffffff" />
  </g>
</svg>
