<?xml version="1.0" encoding="UTF-8" standalone="no"?>
<svg
   xmlns:dc="http://purl.org/dc/elements/1.1/"
   xmlns:cc="http://creativecommons.org/ns#"
   xmlns:rdf="http://www.w3.org/1999/02/22-rdf-syntax-ns#"
   xmlns:svg="http://www.w3.org/2000/svg"
   xmlns="http://www.w3.org/2000/svg"
   xmlns:sodipodi="http://sodipodi.sourceforge.net/DTD/sodipodi-0.dtd"
   xmlns:inkscape="http://www.inkscape.org/namespaces/inkscape"
   width="512"
   height="512"
   viewBox="0 0 512 512"
   version="1.1"
   id="svg24"
   sodipodi:docname="pittsburgh-steelers.svg"
   inkscape:version="0.92.5 (2060ec1f9f, 2020-04-08)">
  <metadata
     id="metadata30">
    <rdf:RDF>
      <cc:Work
         rdf:about="">
        <dc:format>image/svg+xml</dc:format>
        <dc:type
           rdf:resource="http://purl.org/dc/dcmitype/StillImage" />
      </cc:Work>
    </rdf:RDF>
  </metadata>
  <defs
     id="defs28" />
  <sodipodi:namedview
     pagecolor="#ffffff"
     bordercolor="#666666"
     borderopacity="1"
     objecttolerance="10"
     gridtolerance="10"
     guidetolerance="10"
     inkscape:pageopacity="0"
     inkscape:pageshadow="2"
     inkscape:window-width="640"
     inkscape:window-height="480"
     id="namedview26"
     showgrid="false"
     inkscape:zoom="0.4609375"
     inkscape:cx="256"
     inkscape:cy="256"
     inkscape:window-x="0"
     inkscape:window-y="0"
     inkscape:window-maximized="0"
     inkscape:current-layer="svg24" />
  <title
     id="title2">pittsburgh-steelers</title>
  <g
     id="g22"
     transform="translate(-38,-2)"
     style="fill:none;fill-rule:evenodd">
    <path
       d="m 255.02,105.06 c -82.82,0 -149.96,67.136 -149.96,149.953 0,82.82 67.14,149.96 149.96,149.96 82.814,0 149.95,-67.14 149.95,-149.96 0,-82.817 -67.14,-149.954 -149.95,-149.954 z m 0.045,276.978 c -70.186,0 -127.087,-56.894 -127.087,-127.077 0,-70.18 56.9,-127.08 127.087,-127.08 70.182,0 127.08,56.9 127.08,127.08 0,70.18 -56.897,127.08 -127.08,127.08 z"
       id="path4"
       inkscape:connector-curvature="0"
       style="fill:#a5acaf" />
    <path
       d="m 255.02,105.06 c -82.82,0 -149.96,67.136 -149.96,149.953 0,82.82 67.14,149.96 149.96,149.96 82.814,0 149.95,-67.14 149.95,-149.96 0,-82.817 -67.14,-149.954 -149.95,-149.954 z m 0.045,276.978 c -70.186,0 -127.087,-56.894 -127.087,-127.077 0,-70.18 56.9,-127.08 127.087,-127.08 70.182,0 127.08,56.9 127.08,127.08 0,70.18 -56.897,127.08 -127.08,127.08 z"
       id="path6"
       inkscape:connector-curvature="0"
       style="stroke:#000000;stroke-width:3" />
    <path
       d="m 189.565,252.088 c -0.025,-1.972 -0.468,-2.59 -1.99,-2.59 -1.908,0 -1.815,1.724 -1.815,3.487 v 0.793 h 3.805 z m -16.65,-2.59 c -1.9,0 -1.816,1.724 -1.816,3.487 v 0.793 h 3.81 v -1.69 c -0.03,-1.972 -0.48,-2.59 -2,-2.59 z m 39.456,2.59 c -0.03,-1.972 -0.46,-2.59 -1.99,-2.59 -1.91,0 -1.82,1.724 -1.82,3.487 v 0.793 h 3.82 v -1.69 z m 42.7,-124.208 c -70.18,0 -127.08,56.9 -127.08,127.08 0,70.18 56.9,127.08 127.09,127.08 70.19,0 127.08,-56.893 127.08,-127.076 0,-70.184 -56.89,-127.08 -127.08,-127.08 z M 149.45,266.65 c -4.927,0 -6.684,-3.245 -6.684,-7.866 v -1.898 h 4.1 v 1.515 c -0.082,2.53 0.56,4.36 2.588,4.36 1.73,0 2.547,-1.07 2.547,-3.04 0,-1.52 -0.59,-2.55 -1.64,-3.41 -2.14,-1.97 -4.8,-3.38 -6.48,-5.97 -0.67,-1.17 -1.05,-2.59 -1.05,-3.97 0,-4.412 2.12,-6.83 6.45,-6.83 6.54,0 6.37,5.94 6.4,8.49 h -3.96 c 0.033,-2.313 -0.145,-4.59 -2.405,-4.59 -1.376,0 -2.253,0.66 -2.253,2.417 0,1.966 1.06,2.73 2.348,3.69 1.35,1 3.84,2.936 4.98,4.248 1.41,1.62 1.853,3.17 1.853,5.42 0,4.9 -2.764,7.456 -6.774,7.456 z m 15.563,-16.8 h -1.617 v 12.07 c 0.087,0.833 1.147,0.73 1.616,0.66 v 3.514 c -2.257,0.315 -5.424,0.558 -5.424,-3.062 v -13.18 h -1.555 v -3.278 h 1.52 v -1.597 l 3.844,-3.75 v 5.348 h 1.617 v 3.278 h -0.002 z m 13.71,7.38 H 171.1 v 2.828 c 0.027,2.556 0.847,3.042 1.993,3.042 1.405,0 1.82,-1.21 1.755,-3.665 h 3.816 c 0.144,4.353 -1.383,7.11 -5.276,7.11 -4.396,0 -6.187,-2.45 -6.1,-8.174 v -5.11 c -0.176,-4.58 1.816,-7.2 5.567,-7.2 5.31,0 5.866,3.24 5.866,8.56 v 2.627 h 0.01 z m 3.223,1.143 v -5.114 c -0.178,-4.59 1.818,-7.21 5.574,-7.21 5.304,0 5.86,3.24 5.86,8.55 v 2.62 h -7.622 v 2.83 c 0.027,2.55 0.85,3.04 1.99,3.04 1.408,0 1.82,-1.216 1.76,-3.666 h 3.81 c 0.15,4.354 -1.376,7.11 -5.273,7.11 -4.393,0 -6.183,-2.45 -6.1,-8.174 z M 253.69,381.81 c -6.74,-35.853 -19.23,-55.785 -64.196,-63.426 44.966,-7.636 57.456,-27.565 64.197,-63.415 -6.74,-35.86 -19.23,-55.79 -64.19,-63.43 44.97,-7.64 57.46,-27.57 64.2,-63.43 6.74,35.85 19.23,55.78 64.21,63.42 -44.97,7.634 -57.46,27.564 -64.2,63.42 6.748,35.85 19.235,55.78 64.206,63.412 -44.97,7.64 -57.462,27.572 -64.202,63.425 z M 197.248,240.15 h 3.81 v 25.88 h -3.81 z m 13.306,22.95 c 1.402,0 1.817,-1.21 1.758,-3.664 h 3.81 c 0.146,4.353 -1.375,7.11 -5.278,7.11 -4.397,0 -6.183,-2.45 -6.093,-8.174 v -5.114 c -0.17,-4.587 1.81,-7.206 5.57,-7.206 5.31,0 5.87,3.24 5.87,8.553 v 2.625 h -7.62 v 2.83 c 0.03,2.553 0.85,3.04 2,3.04 z m 12.804,-13.082 c 0.473,-1.413 0.942,-2.208 1.5,-2.76 1.082,-1.073 1.816,-1 2.375,-1.036 v 5.31 c -2.114,-0.236 -3.724,0.382 -3.788,3.248 v 11.25 h -3.807 v -19.464 h 3.663 v 3.45 h 0.06 v 0.002 z m 10.666,13.08 c 1.082,0 1.85,-0.932 1.586,-2.174 -0.057,-1.104 -1.14,-1.722 -1.875,-2.31 l -2.084,-1.7 c -1.9,-1.546 -3.13,-3.343 -3.13,-6.138 0,-3.002 2.02,-4.724 5.68,-4.724 3.7,0 5.4,2.276 5.31,6.453 h -3.81 c 0.09,-2.175 -0.44,-3.005 -1.76,-3.005 -0.91,0 -1.61,0.48 -1.61,1.588 0,1.14 0.71,1.654 1.44,2.245 l 3.11,2.485 c 0.97,0.655 2.498,2.517 2.618,3.828 0.324,3.385 -0.38,6.9 -5.66,6.9 -2.02,0 -5.804,-0.998 -5.365,-6.936 h 3.81 c -0.29,3.59 0.886,3.49 1.76,3.49 z m 83.91,55.13 c -6.74,-35.85 -19.232,-55.784 -64.204,-63.423 44.972,-7.64 57.46,-27.568 64.204,-63.428 6.74,35.86 19.23,55.787 64.203,63.428 -44.972,7.64 -57.46,27.57 -64.203,63.422 z"
       id="path8"
       inkscape:connector-curvature="0"
       style="fill:#ffffff" />
    <path
       d="m 149.386,249.532 c -1.29,-0.962 -2.345,-1.724 -2.345,-3.69 0,-1.76 0.88,-2.415 2.26,-2.415 2.26,0 2.44,2.274 2.41,4.587 h 3.96 c -0.03,-2.55 0.15,-8.486 -6.39,-8.486 -4.33,0 -6.45,2.413 -6.45,6.833 0,1.38 0.39,2.8 1.06,3.97 1.68,2.59 4.34,4 6.48,5.97 1.056,0.86 1.646,1.9 1.646,3.42 0,1.97 -0.82,3.04 -2.545,3.04 -2.025,0 -2.67,-1.83 -2.585,-4.35 v -1.51 h -4.1 v 1.9 c 0,4.62 1.756,7.87 6.682,7.87 4.01,0 6.775,-2.55 6.775,-7.45 0,-2.25 -0.443,-3.8 -1.85,-5.42 -1.14,-1.31 -3.63,-3.25 -4.98,-4.25 z m 14.007,-8.316 -3.84,3.752 v 1.596 h -1.524 v 3.28 h 1.55 v 13.18 c 0,3.62 3.16,3.378 5.42,3.067 v -3.51 c -0.47,0.08 -1.53,0.18 -1.62,-0.65 v -12.08 H 165 v -3.27 h -1.62 v -5.35 h 0.004 z m 9.463,4.834 c -3.75,0 -5.743,2.62 -5.566,7.206 v 5.114 c -0.09,5.726 1.7,8.173 6.1,8.173 3.893,0 5.42,-2.756 5.277,-7.11 h -3.815 c 0.06,2.454 -0.352,3.664 -1.758,3.664 -1.146,0 -1.966,-0.484 -1.99,-3.042 v -2.828 h 7.62 v -2.625 c -0.004,-5.312 -0.56,-8.552 -5.868,-8.552 z m 2.057,7.728 H 171.1 v -0.793 c 0,-1.763 -0.084,-3.487 1.816,-3.487 1.524,0 1.967,0.62 1.993,2.592 v 1.688 z m 18.405,5.656 h -3.81 c 0.057,2.453 -0.35,3.663 -1.76,3.663 -1.14,0 -1.963,-0.484 -1.988,-3.042 v -2.828 h 7.62 v -2.625 c 0,-5.314 -0.557,-8.555 -5.863,-8.555 -3.753,0 -5.747,2.62 -5.574,7.207 v 5.113 c -0.086,5.726 1.706,8.172 6.103,8.172 3.898,0 5.42,-2.76 5.272,-7.11 z m -7.558,-6.452 c 0,-1.76 -0.093,-3.486 1.816,-3.486 1.52,0 1.96,0.62 1.99,2.592 v 1.69 h -3.806 z"
       id="path10"
       inkscape:connector-curvature="0"
       style="fill:#000000" />
    <path
       d="m 197.248,240.147 h 3.81 v 25.882 h -3.81 v -25.89 z"
       id="path12"
       inkscape:connector-curvature="0"
       style="fill:#231f1f" />
    <path
       d="m 216.176,257.227 v -2.625 c 0,-5.314 -0.555,-8.555 -5.863,-8.555 -3.752,0 -5.742,2.62 -5.567,7.207 v 5.113 c -0.09,5.726 1.7,8.172 6.094,8.172 3.902,0 5.426,-2.76 5.282,-7.11 h -3.815 c 0.062,2.45 -0.35,3.66 -1.757,3.66 -1.14,0 -1.965,-0.49 -1.996,-3.04 v -2.83 h 7.622 z m -7.62,-4.245 c 0,-1.76 -0.088,-3.486 1.82,-3.486 1.528,0 1.963,0.62 1.995,2.592 v 1.69 h -3.81 v -0.796 z m 11.082,-6.415 v 19.464 h 3.81 v -11.25 c 0.06,-2.86 1.67,-3.48 3.785,-3.24 v -5.31 c -0.56,0.04 -1.293,-0.03 -2.373,1.04 -0.558,0.56 -1.027,1.35 -1.498,2.76 h -0.06 v -3.45 h -3.664 z m 8.815,13.04 c -0.44,5.938 3.345,6.936 5.368,6.936 5.28,0 5.99,-3.515 5.66,-6.9 -0.12,-1.31 -1.64,-3.173 -2.61,-3.828 l -3.1,-2.484 c -0.73,-0.59 -1.43,-1.1 -1.43,-2.24 0,-1.11 0.708,-1.59 1.62,-1.59 1.32,0 1.85,0.83 1.76,3.01 h 3.81 c 0.09,-4.17 -1.61,-6.45 -5.31,-6.45 -3.664,0 -5.684,1.73 -5.684,4.73 0,2.8 1.23,4.59 3.14,6.14 l 2.084,1.7 c 0.735,0.59 1.815,1.21 1.875,2.31 0.26,1.246 -0.508,2.18 -1.59,2.18 -0.88,0 -2.05,0.1 -1.76,-3.49 h -3.816 z"
       id="path14"
       inkscape:connector-curvature="0"
       style="fill:#000000" />
    <path
       d="m 253.69,254.967 c 6.745,-35.855 19.232,-55.785 64.203,-63.422 -44.968,-7.64 -57.458,-27.57 -64.202,-63.427 -6.74,35.857 -19.23,55.787 -64.19,63.427 44.97,7.637 57.46,27.567 64.2,63.422 v -0.006 0.01"
       id="path16"
       inkscape:connector-curvature="0"
       style="fill:#ffb612" />
    <path
       d="m 253.69,254.967 v -0.006 0.01 c -6.74,35.86 -19.23,55.79 -64.196,63.42 44.966,7.64 57.456,27.57 64.197,63.43 6.74,-35.85 19.24,-55.78 64.21,-63.42 -44.97,-7.634 -57.46,-27.563 -64.2,-63.413"
       id="path18"
       inkscape:connector-curvature="0"
       style="fill:#00539b" />
    <path
       d="m 317.934,191.375 c -6.74,35.86 -19.232,55.787 -64.204,63.43 44.972,7.637 57.46,27.572 64.204,63.42 6.74,-35.848 19.23,-55.783 64.203,-63.42 -44.972,-7.643 -57.46,-27.572 -64.203,-63.43"
       id="path20"
       inkscape:connector-curvature="0"
       style="fill:#c60c30" />
  </g>
</svg>
