<?xml version="1.0" encoding="UTF-8" standalone="no"?>
<svg
   xmlns:dc="http://purl.org/dc/elements/1.1/"
   xmlns:cc="http://creativecommons.org/ns#"
   xmlns:rdf="http://www.w3.org/1999/02/22-rdf-syntax-ns#"
   xmlns:svg="http://www.w3.org/2000/svg"
   xmlns="http://www.w3.org/2000/svg"
   xmlns:sodipodi="http://sodipodi.sourceforge.net/DTD/sodipodi-0.dtd"
   xmlns:inkscape="http://www.inkscape.org/namespaces/inkscape"
   width="512"
   height="512"
   viewBox="0 0 512 512"
   version="1.1"
   id="svg18"
   sodipodi:docname="san-francisco-49ers.svg"
   inkscape:version="0.92.5 (2060ec1f9f, 2020-04-08)">
  <metadata
     id="metadata24">
    <rdf:RDF>
      <cc:Work
         rdf:about="">
        <dc:format>image/svg+xml</dc:format>
        <dc:type
           rdf:resource="http://purl.org/dc/dcmitype/StillImage" />
      </cc:Work>
    </rdf:RDF>
  </metadata>
  <defs
     id="defs22" />
  <sodipodi:namedview
     pagecolor="#ffffff"
     bordercolor="#666666"
     borderopacity="1"
     objecttolerance="10"
     gridtolerance="10"
     guidetolerance="10"
     inkscape:pageopacity="0"
     inkscape:pageshadow="2"
     inkscape:window-width="640"
     inkscape:window-height="480"
     id="namedview20"
     showgrid="false"
     inkscape:zoom="0.4609375"
     inkscape:cx="256"
     inkscape:cy="256"
     inkscape:window-x="995"
     inkscape:window-y="102"
     inkscape:window-maximized="0"
     inkscape:current-layer="svg18" />
  <title
     id="title2">san-francisco-49ers</title>
  <g
     id="g16"
     transform="translate(0,26)"
     style="fill:none;fill-rule:evenodd">
    <path
       d="m 256.574,133.74 c 113.533,0 205.57,54.325 205.57,121.337 0,67.012 -92.038,121.333 -205.57,121.333 -113.53,0 -205.57,-54.32 -205.57,-121.333 0,-67.012 92.038,-121.336 205.57,-121.336"
       id="path4"
       inkscape:connector-curvature="0"
       style="fill:#ffffff" />
    <path
       d="m 256.128,139.987 c 110.077,0 199.312,51.927 199.312,115.982 0,64.05 -89.235,115.98 -199.312,115.98 -110.077,0 -199.313,-51.93 -199.313,-115.98 0,-64.06 89.236,-115.99 199.313,-115.99"
       id="path6"
       inkscape:connector-curvature="0"
       style="fill:#090908" />
    <path
       d="m 257.022,150.248 c 96.008,0 173.84,47.932 173.84,107.06 0,59.127 -77.832,107.06 -173.84,107.06 -96.01,0 -173.84,-47.933 -173.84,-107.06 0,-59.128 77.83,-107.06 173.84,-107.06"
       id="path8"
       inkscape:connector-curvature="0"
       style="fill:#c6a463" />
    <path
       d="m 257.468,155.6 c 88.358,0 159.986,44.737 159.986,99.923 0,55.185 -71.628,99.922 -159.986,99.922 -88.358,0 -159.986,-44.737 -159.986,-99.922 0,-55.186 71.628,-99.923 159.986,-99.923"
       id="path10"
       inkscape:connector-curvature="0"
       style="fill:#c81d3c" />
    <path
       d="m 382.46,242.478 h -0.438 v -3.634 h -63.46 c -1.36,-7.13 -5.47,-13.74 -11.33,-18.9 -5.77,-6.627 -14.16,-11.61 -23.703,-13.5 l -3.97,-0.813 c -9.16,-1.92 -16.39,-3.44 -45.5,-3.29 0,0 -5.6,-0.19 -11.03,-0.91 -1.38,-0.34 -2.59,-0.76 -3.62,-1.21 0.4,-2.42 4.83,-5.75 9.83,-6.39 0.52,-0.09 32.02,-5.88 64.44,15.08 l 0.79,0.52 h 21.31 v -32.55 h -3.647 v -3.633 H 282.9 l -4.926,3.76 c -8.417,-2.105 -49.657,-11.11 -85.26,4.446 -14.965,6.17 -24.25,17.824 -23.594,29.654 0.335,5.965 3.197,11.165 8.14,15.203 3.64,4.53 9.358,8.07 16.807,10.21 10.545,3.03 19.47,4.28 28.125,4.773 v 14.84 h 3.65 v 3.637 h 11.112 c 4.604,0 5.79,2.55 6.07,3.498 -14.188,-0.925 -35.77,-4.96 -51.653,-19.634 l -0.59,-0.64 h -0.11 c -0.873,-0.837 -1.74,-1.7 -2.58,-2.607 l -0.95,-1.03 h -15.99 v 46.336 h 3.65 v 3.63 h 13.04 c 1.915,0.133 7.976,-0.543 12.16,-12.734 6.78,2.353 23.5,7.38 44.09,7.94 v 28.82 c -0.72,9.677 -22.08,12.71 -29.527,13.002 l -3.074,0.12 v 14.33 h 3.64 v 3.63 h 93.78 v -13.71 l -2.393,-0.636 c -0.43,-0.11 -0.834,-0.22 -1.25,-0.333 v -3.132 l -2.93,-0.25 c -5.27,-0.47 -9.33,-1.38 -12.476,-2.494 -5.89,-3.305 -6.9,-5.98 -7.024,-6.413 v -15.37 h 27.485 c 2.9,0.44 5.386,1.71 7.496,3.36 3.96,4.865 5.76,10.43 5.79,10.52 l 0.706,2.25 2.36,0.013 h 0.074 c 0.33,0.82 0.506,1.348 0.51,1.376 l 0.7,2.255 h 14.77 V 266.1 h -3.64 v -3.64 h -14.71 l -0.53,2.552 c -3.857,18.523 -25.313,18.25 -44.395,15.474 3.738,-1.015 7.498,-2.242 11.247,-3.73 10.216,-4.053 17.88,-9.566 22.66,-16.02 h 41.19 c 2.88,0.09 5.32,0.804 7.37,2.146 4.32,6.33 3.89,15.634 3.89,15.745 l -0.18,3.37 h 3.83 l -0.006,0.262 -0.185,3.37 h 16.42 v -43.16 h -3.21"
       id="path12"
       inkscape:connector-curvature="0"
       style="fill:#090908" />
    <path
       d="M 316.762,253.893 H 350.9 c 19.498,0.62 18.088,24.904 18.088,24.904 h 9.832 V 242.042 H 319.9 c 0,0 -0.14,8.225 -3.138,11.85 m -69.484,31.395 v 28.224 c -1.014,14.8 -32.593,16.03 -32.593,16.03 v 8.06 h 87.37 v -8.05 c -25.964,-2.24 -26.08,-15.45 -26.08,-15.45 v -18.85 h 31.035 c 14.196,2.02 19.652,19.78 19.652,19.78 h 9.2 v -49.36 h -8.89 c -6.178,29.73 -51.82,16.357 -55.196,17.1 0,0 -11.242,2.805 -24.498,2.53 m 27.26,-48.56 c 11.86,3.47 12.962,12.504 6.018,20.96 -8.885,8.37 -22.456,8.718 -22.456,8.718 0,0 -45.694,4.93 -72.36,-23.865 h -11.386 v 39.94 h 9.978 c 0,0 6.082,0.93 9.982,-13.7 0,0 46.92,19.06 91.55,1.37 43.225,-17.14 26.774,-54.674 -2.968,-60.56 -11.44,-2.26 -15.987,-4.212 -48.81,-4.043 0,0 -5.927,-0.19 -11.697,-0.97 -18.1,-4.51 -7.81,-16.186 2.8,-17.556 0,0 32.59,-6.414 66.59,15.57 h 17.15 v -26.16 h -24.96 l -5.3,4.046 c 0,0 -46.267,-12.897 -84.687,3.89 -25.82,10.657 -30.884,37.314 -2.68,45.43 24.837,7.145 40.67,4.15 65.84,5.11 7.033,0.27 13.146,0.545 17.375,1.826 m -37.28,16.19 H 225.4 v -10.6 c 9.19,0 27.93,0.08 41.19,0 13.345,0 15.122,7.7 9.5,12.91 -5.3,4.91 -16.4,8.41 -29.542,6.02 0,0 -1.083,-8.322 -9.29,-8.322"
       id="path14"
       inkscape:connector-curvature="0"
       style="fill:#ffffff" />
  </g>
</svg>
