<?xml version="1.0" encoding="UTF-8" standalone="no"?>
<svg
   xmlns:dc="http://purl.org/dc/elements/1.1/"
   xmlns:cc="http://creativecommons.org/ns#"
   xmlns:rdf="http://www.w3.org/1999/02/22-rdf-syntax-ns#"
   xmlns:svg="http://www.w3.org/2000/svg"
   xmlns="http://www.w3.org/2000/svg"
   xmlns:sodipodi="http://sodipodi.sourceforge.net/DTD/sodipodi-0.dtd"
   xmlns:inkscape="http://www.inkscape.org/namespaces/inkscape"
   width="512"
   height="512"
   viewBox="0 0 512 512"
   version="1.1"
   id="svg20"
   sodipodi:docname="seattle-seahawks.svg"
   inkscape:version="0.92.5 (2060ec1f9f, 2020-04-08)">
  <metadata
     id="metadata26">
    <rdf:RDF>
      <cc:Work
         rdf:about="">
        <dc:format>image/svg+xml</dc:format>
        <dc:type
           rdf:resource="http://purl.org/dc/dcmitype/StillImage" />
      </cc:Work>
    </rdf:RDF>
  </metadata>
  <defs
     id="defs24" />
  <sodipodi:namedview
     pagecolor="#ffffff"
     bordercolor="#666666"
     borderopacity="1"
     objecttolerance="10"
     gridtolerance="10"
     guidetolerance="10"
     inkscape:pageopacity="0"
     inkscape:pageshadow="2"
     inkscape:window-width="640"
     inkscape:window-height="480"
     id="namedview22"
     showgrid="false"
     inkscape:zoom="0.4609375"
     inkscape:cx="256"
     inkscape:cy="256"
     inkscape:window-x="651"
     inkscape:window-y="69"
     inkscape:window-maximized="0"
     inkscape:current-layer="svg20" />
  <title
     id="title2">seattle-seahawks</title>
  <g
     id="g18"
     transform="translate(22,44)"
     style="fill:none;fill-rule:evenodd">
    <path
       d="m 407.37,317.65 c -20.24,-4.04 -46.815,-5.11 -58.036,-5.11 l -267.072,0.053 c -16.616,0 -33.8,0 -42.62,-13.544 -8.943,-13.75 -4.08,-27.28 11.002,-54.34 1.123,-2.01 46.87,-87.79 46.87,-87.79 0,0 4.672,5.79 9.38,9.47 4.653,3.63 9.435,5.57 22.18,5.57 22.634,0 168.66,-0.32 170.15,-0.33 29.64,0 59.58,3.056 78.98,24.28 10.074,1.07 42.586,5.356 69.373,18.14 15.683,7.47 26.028,18.633 29.937,32.264 1.182,4.126 1.77,8.46 1.77,12.955 0,12.937 -4.86,27.27 -14.382,42.167 -20.12,31.48 -38.682,42.48 -39.513,43.07 -11.44,8.02 -22.51,8.4 -22.51,8.4 0,0 9.97,-11.315 13.33,-22.63 3.36,-11.31 -8.86,-12.65 -8.86,-12.65"
       id="path4"
       inkscape:connector-curvature="0"
       style="fill:#ffffff" />
    <path
       d="m 444.283,220.97 c -30.544,-14.568 -69.78,-17.716 -69.78,-17.716 -17.116,-20.865 -46.043,-23.958 -75.277,-23.958 0,0 -147.246,0.323 -170.15,0.323 -26.662,0 -29.34,-10.55 -29.34,-10.55 l -35.74,66.75 h 92.814 c 29.21,0 30.676,-2.92 50.048,-17.13 20.58,-15.11 37.005,-20.56 56.45,-20.56 19.436,0 32.302,4.37 53.934,13.93 21.643,9.55 33.14,14.2 46.016,8.74 0,0 -10.134,13.65 -40.804,0.81 -30.668,-12.84 -38.877,-15.57 -57.507,-15.57 -18.375,0 -39.417,8.79 -65.767,35.02 l 31.4,25.2 c 0,0 -7.263,11.192 -12.047,18.34 -4.767,7.15 -4.32,11.92 -1.78,15.41 2.55,3.495 5.762,5.08 17.386,5.08 11.62,0 104.77,-0.21 115.19,-0.21 9.06,0 37.4,0.84 59.53,5.25 29.38,5.86 10.43,30.574 10.43,30.574 0,0 19.67,-12.915 39.15,-43.37 21.72,-33.98 16.37,-61.815 -14.16,-76.38"
       id="path6"
       inkscape:connector-curvature="0"
       style="fill:#002244" />
    <path
       d="m 390.32,226.444 c -13.89,-3.315 -2.015,-11.343 -2.015,-11.343 -19.99,4.04 -27.43,20.3 -29.145,24.85 -0.318,0.62 -0.652,1.25 -0.986,1.92 -11.06,22.2 -21.022,21.01 -39.904,21.01 h -32.34 c -26.197,0 -38.398,12.95 -50.954,35.01 h 14.795 c 13.53,-20.08 23.73,-25.5 50.48,-27 61.12,0.037 109.84,17.528 135.58,30.89 36.62,-61.33 -17.72,-71.48 -45.5,-75.314 h 0.01"
       id="path8"
       inkscape:connector-curvature="0"
       style="fill:#ffffff" />
    <path
       d="m 276.577,297.635 c 6.83,-10.3 20.73,-13.804 43.134,-12.518 55.3,3.195 87.09,13.935 111.79,23.117 -30.46,-17.786 -84.73,-30.604 -122.46,-30.484 -18.44,0.056 -34.54,3.27 -43.99,19.885 h 11.54"
       id="path10"
       inkscape:connector-curvature="0"
       style="fill:#ffffff" />
    <path
       d="m 335.918,236.794 c -7.205,10.027 -16.697,13.453 -43.615,11.618 -31.318,-2.123 -23.238,-15.284 -19.59,-21.765 l -0.106,-0.008 c 0.994,-1.84 2.704,-4.95 4.432,-8.08 -24,-1.48 -41.53,16.94 -41.53,16.94 17.89,17.66 29.82,19.5 46.01,19.5 h 30.25 c 28.13,0 34.93,-12.63 37.5,-18.24 -4.85,0.6 -9.228,0.55 -13.367,0.03"
       id="path12"
       inkscape:connector-curvature="0"
       style="fill:#ffffff" />
    <path
       d="m 322.262,233.807 -1.756,-0.712 c -2.76,2.896 -7.516,4.58 -12.127,3.987 -6.07,-0.775 -9.57,-5.173 -7.84,-9.813 0.24,-0.68 0.6,-1.32 1.03,-1.94 -3.11,-1.22 -6.24,-2.39 -9.28,-3.44 -6.23,10.05 -9.89,16.72 11.74,18.54 13.47,1.15 17.12,-1.16 19.95,-5.99 -0.58,-0.22 -1.145,-0.41 -1.74,-0.65"
       id="path14"
       inkscape:connector-curvature="0"
       style="fill:#69be28" />
    <path
       d="m 213.63,272.018 c -11.157,19.317 -15.588,23.76 -7.75,32.926 H 82.263 c -18.236,0 -30.086,-0.69 -36.187,-10.064 -5.928,-9.103 -4.708,-17.79 11.27,-46.45 h 105.108 c 18.096,0 22.75,1.027 32.568,8.63 9.822,7.607 18.608,14.957 18.608,14.957"
       id="path16"
       inkscape:connector-curvature="0"
       style="fill:#a5acaf" />
  </g>
</svg>
