<?xml version="1.0" encoding="UTF-8" standalone="no"?>
<svg
   xmlns:dc="http://purl.org/dc/elements/1.1/"
   xmlns:cc="http://creativecommons.org/ns#"
   xmlns:rdf="http://www.w3.org/1999/02/22-rdf-syntax-ns#"
   xmlns:svg="http://www.w3.org/2000/svg"
   xmlns="http://www.w3.org/2000/svg"
   xmlns:sodipodi="http://sodipodi.sourceforge.net/DTD/sodipodi-0.dtd"
   xmlns:inkscape="http://www.inkscape.org/namespaces/inkscape"
   width="512"
   height="512"
   viewBox="0 0 512 512"
   version="1.1"
   id="svg99"
   sodipodi:docname="tampa-bay-buccaneers.svg"
   inkscape:version="0.92.5 (2060ec1f9f, 2020-04-08)">
  <metadata
     id="metadata105">
    <rdf:RDF>
      <cc:Work
         rdf:about="">
        <dc:format>image/svg+xml</dc:format>
        <dc:type
           rdf:resource="http://purl.org/dc/dcmitype/StillImage" />
      </cc:Work>
    </rdf:RDF>
  </metadata>
  <defs
     id="defs103" />
  <sodipodi:namedview
     pagecolor="#ffffff"
     bordercolor="#666666"
     borderopacity="1"
     objecttolerance="10"
     gridtolerance="10"
     guidetolerance="10"
     inkscape:pageopacity="0"
     inkscape:pageshadow="2"
     inkscape:window-width="640"
     inkscape:window-height="480"
     id="namedview101"
     showgrid="false"
     inkscape:zoom="0.4609375"
     inkscape:cx="256"
     inkscape:cy="256"
     inkscape:window-x="0"
     inkscape:window-y="0"
     inkscape:window-maximized="0"
     inkscape:current-layer="svg99" />
  <title
     id="title2">tampa-bay-buccaneers</title>
  <g
     id="g97"
     transform="translate(-8)"
     style="fill:none;fill-rule:evenodd">
    <path
       d="m 316.024,196.363 c -1.15,2.78 -3.354,5.557 -4.312,7.09 -1.15,-1.245 -2.683,-3.066 -3.833,-5.174 0.67,-0.96 1.82,-2.21 3.25,-4.12 0.96,-1.35 2.68,-4.99 2.68,-9.49 0,-5.08 -2.3,-11.21 -10.54,-16.29 0,0 -0.1,0 -0.1,-0.1 -0.1,-0.1 -0.19,-0.1 -0.29,-0.2 -1.06,-0.67 -2.11,-1.248 -3.07,-1.727 l 0.86,0.383 c 21.272,10.252 16.58,26.444 15.33,29.606"
       id="Shape"
       inkscape:connector-curvature="0"
       style="fill:#b1babf" />
    <path
       d="m 359.432,303.577 c -4.695,7.378 -30.088,45.703 -36.125,54.326 l -0.096,-0.096 c -0.86,-0.767 -2.01,-1.725 -3.25,-2.78 2.01,-2.97 25.59,-37.845 32.49,-48.67 2.4,-0.864 4.7,-1.822 7,-2.78"
       id="path5"
       inkscape:connector-curvature="0"
       style="fill:#b1babf" />
    <path
       d="m 293.41,371.987 c -0.863,2.108 -1.63,5.75 -1.342,8.432 0.096,0.57 0.192,1.05 0.288,1.62 -2.013,9.2 -5.94,9.39 -6.9,9.2 -0.19,0 -0.287,-0.1 -0.287,-0.1 3.83,-3.36 3.73,-9.59 7.66,-18.11 0.19,-0.29 0.38,-0.67 0.57,-1.06"
       id="path7"
       inkscape:connector-curvature="0"
       style="fill:#ffffff" />
    <path
       d="m 316.12,378.598 c 0.096,1.725 -1.917,4.216 -3.737,4.887 -1.342,0.574 -3.067,0.766 -4.696,0.766 -0.574,0 -1.054,0 -1.533,-0.09 0.48,-0.76 1.054,-1.72 1.63,-2.78 1.437,-2.3 3.257,-5.08 4.695,-7.09 1.05,0.48 2.58,1.54 3.25,3.07 0.28,0.48 0.38,0.77 0.38,1.25"
       id="path9"
       inkscape:connector-curvature="0"
       style="fill:#b1babf" />
    <path
       d="m 305.58,366.238 c -1.342,-1.15 -2.11,-2.49 -2.684,-3.736 0,0 -4.983,6.515 -9.39,16.192 0.095,0.48 0.287,0.958 0.48,1.34 1.34,2.876 2.586,3.738 4.982,3.546 0,0 5.653,-9.58 9.582,-14.66 -0.767,-0.765 -1.725,-1.628 -2.97,-2.682"
       id="path11"
       inkscape:connector-curvature="0"
       style="fill:#b1babf" />
    <path
       d="m 302.992,362.502 c -0.862,-2.683 -0.766,-5.366 -0.67,-5.845 -0.096,0.096 -0.192,0.192 -0.192,0.288 -1.533,2.3 -2.97,4.694 -4.408,7.09 -1.342,2.3 -4.025,7.473 -4.12,7.665 0,0.095 -0.67,3.928 0,6.898 0,-0.096 0.095,-0.192 0,0 4.407,-9.58 9.39,-16.096 9.39,-16.096"
       id="path13"
       inkscape:connector-curvature="0"
       style="fill:#ffffff" />
    <path
       d="m 327.715,373.616 c -1.15,-5.174 -7.858,-10.252 -9.39,-11.402 -3.26,-2.874 -11.692,-9.485 -12.554,-10.922 -0.86,-1.533 -4.79,-6.9 -10.15,-7.953 0,0 -0.86,-0.1 -1.05,0.57 -0.09,0.38 0.1,0.86 0.77,0.96 0.67,0.19 2.59,0.38 4.79,2.39 2.21,2.11 2.97,4.79 2.97,7.18 -0.09,2.3 0.77,5.56 3.55,7.66 2.878,2.11 6.136,5.652 9.107,6.515 0.19,0.095 0.38,0.095 0.573,0.095 1.915,0.19 3.736,-1.533 3.45,-2.586 0.67,2.11 0.094,3.64 -0.864,4.79 3.256,3.162 4.79,6.803 3.83,10.156 -1.247,4.217 -6.04,9.87 -14.66,9.774 -6.135,-0.097 -9.776,-1.82 -11.31,-2.78 0,0 0.575,-1.15 0.575,-1.245 -3.643,0.86 -4.89,-4.506 -4.984,-4.698 -2.015,9.2 -5.94,9.39 -6.9,9.2 -0.19,0 -0.29,-0.098 -0.29,-0.098 0,0 0.77,2.97 3.74,4.504 -1.34,-0.386 -2.876,0.093 -3.74,1.34 -1.053,1.532 -0.574,3.64 0.96,4.6 1.53,1.052 3.64,0.573 4.6,-0.96 1.052,-1.53 0.573,-3.64 -0.96,-4.6 -0.096,-0.1 -0.19,-0.1 -0.19,-0.1 0.38,0.193 0.86,0.29 1.34,0.384 4.024,0.67 5.365,-1.243 5.365,-1.243 0,0 -0.284,-0.576 -0.48,-1.343 0,0 -3.924,2.78 -8.33,-1.63 0.19,0.095 1.626,0.574 4.12,0.095 3.734,-0.578 4.213,-1.727 4.5,-1.92 v -0.097 c 3.256,1.723 6.705,2.585 11.784,2.68 5.658,0.098 11.12,-1.63 14.28,-4.405 3.16,-2.876 6.9,-8.72 5.56,-14.95"
       id="path15"
       inkscape:connector-curvature="0"
       style="fill:#b1babf" />
    <path
       d="m 414.914,104.096 c 0,0 0.767,14.755 -2.012,28.36 -2.683,13.127 -4.217,18.11 -4.217,18.11 -5.75,3.352 -14.948,7.472 -28.46,9.772 -25.2,4.215 -48.198,-2.587 -73.208,-12.36 -25.01,-9.773 -58.453,-20.408 -89.595,-16.863 -30.09,3.45 -51.65,15.617 -63.148,23.57 -11.5,7.952 -13.607,10.06 -23.38,12.84 0,0 7.76,3.065 11.69,3.065 0,0 -1.917,7.76 -1.15,10.25 0,0 16.386,-7.472 18.206,-3.927 1.917,3.545 -5.845,5.845 -11.21,7.282 -5.367,1.437 -19.453,1.15 -19.453,1.15 0,0 6.61,5.078 8.91,8.623 0,0 -12.36,5.365 -26.254,3.545 0,0 -0.48,5.078 10.923,13.51 -2.395,0.862 -5.46,2.3 -7.378,4.31 0,0 11.882,-2.49 19.356,5.845 2.013,2.492 2.588,4.695 2.396,7.474 -0.383,5.078 -2.3,6.994 -7.09,10.156 -2.684,1.15 -5.655,2.49 -8.433,4.216 -13.128,8.048 -22.806,20.408 -29.514,34.396 -2.875,6.036 -5.27,13.127 -6.9,19.546 -1.628,6.42 -2.3,12.168 -2.682,15.713 -0.38,3.54 -0.95,14.85 -0.95,14.85 0,0 5.85,-8.24 8.63,-12.27 2.78,-3.93 20.22,-25.87 45.61,-32.2 8.15,-2.11 16.2,-2.97 23.96,-2.97 18.59,0 35.17,5.08 45.04,9.87 14.28,6.89 37.66,23.18 68.42,28.26 7.186,1.15 15.044,1.82 23.093,1.82 7.76,0 15.81,-0.578 23.76,-1.63 -4.504,6.8 -8.912,13.123 -13.032,18.97 -4.215,-4.026 -9.87,-4.41 -9.87,-4.41 -6.9,-0.67 -10.35,3.544 -10.35,3.544 -1.435,1.534 -2.393,3.45 -2.872,5.75 -0.48,2.11 0.095,4.6 0.48,5.846 1.34,4.217 4.886,6.037 6.227,6.708 -10.06,13.413 -13.03,28.84 -13.03,28.84 l -4.6,4.023 1.63,6.708 c -2.59,8.24 1.437,14.47 6.707,16.96 5.27,2.585 10.25,1.052 10.25,1.052 3.067,-0.866 5.94,-2.88 7.858,-5.657 0.287,-0.48 0.575,-0.863 0.767,-1.34 1.055,-0.577 2.013,-1.248 2.78,-1.92 1.44,0.19 5.18,0.287 5.18,0.287 7.57,-0.095 15.043,-2.203 20.793,-7.09 4.502,-4.023 9.39,-10.826 9.58,-20.12 0,-1.725 0.29,-8.815 -5.46,-14.947 36.795,-54.04 60.655,-88.82 75.987,-124.17 40.63,-93.997 6.23,-133.09 6.035,-133.37 M 349.38,330.11 c -7.855,11.88 -15.33,22.9 -21.462,31.71 7.09,5.846 6.61,13.223 6.61,14.564 -0.096,7.857 -4.31,13.606 -8.145,17.055 -4.694,4.02 -11.21,6.03 -18.014,6.03 -0.19,0 -5.08,-0.19 -6.81,-0.58 -0.77,1.05 -2.11,2.3 -4.41,3.26 -0.29,0.67 -0.58,1.43 -1.06,2.102 -1.82,2.78 -4.983,4.41 -8.145,4.41 0,0 -3.165,-0.096 -5.37,-1.63 -2.874,-1.82 -4.407,-4.98 -4.407,-8.14 v -0.096 c 0,-1.53 0.38,-3.065 1.05,-4.407 -0.29,-0.766 -1.437,-5.46 -1.437,-5.46 l 2.97,-2.684 c 0.29,-0.096 0.96,-1.245 1.82,-4.12 0.864,-2.778 1.918,-6.898 4.12,-11.785 2.877,-6.13 6.71,-12.454 9.584,-16.86 -0.287,-1.44 -1.724,-2.11 -2.78,-2.3 -1.15,-0.29 -2.68,-1.055 -3.83,-2.397 -1.246,-1.436 -2.204,-3.45 -1.63,-6.035 0.48,-2.59 2.11,-4.41 4.025,-5.27 2.11,-1.15 4.79,-0.577 4.79,-0.577 6.23,0.576 10.925,6.42 10.925,6.42 6.23,-8.72 20.798,-30.277 21.08,-30.756 -19.063,3.64 -38.71,4.12 -55,1.44 -29.703,-4.89 -52.51,-20.7 -67.27,-27.98 -14.752,-7.185 -42.83,-14.562 -71.863,-7.185 -28.94,7.38 -48.1,34.11 -48.1,34.11 8.622,-60.937 46.376,-71.285 50.02,-72.243 5.46,-5.173 12.742,-20.886 -4.41,-31.52 -5.846,-3.64 -10.733,-8.24 -10.733,-8.24 3.55,0.384 11.98,-0.67 16.676,-2.49 5.555,-2.204 10.73,-2.97 10.73,-2.97 -4.41,-4.216 -11.21,-6.324 -11.21,-6.324 6.704,-0.384 17.245,-2.78 23.76,-5.654 6.52,-2.97 10.066,-8.24 9.01,-10.54 -1.05,-2.3 -6.9,-1.054 -6.9,-1.054 2.11,-3.16 7.19,-4.403 7.19,-4.403 -14.564,-0.862 -25.105,7.09 -25.105,7.09 1.63,-3.45 6.9,-9.676 6.9,-9.676 -2.01,0.67 -7.57,2.396 -7.952,2.49 22.71,-17.532 48.1,-32.96 83.75,-33.245 35.644,-0.288 70.236,15.713 93.33,23.09 23.093,7.377 35.36,11.114 60.273,7.473 11.98,-1.82 22.42,-6.706 30.09,-11.305 0,0 5.364,-13.606 5.75,-33.152 0,0 6.42,11.5 6.42,29.415 0.094,61.61 -29.803,106.545 -39.29,122.93 -9.007,16 -20.985,35.353 -35.55,57.486"
       id="path17"
       inkscape:connector-curvature="0"
       style="fill:#b1babf" />
    <path
       d="m 293.6,378.598 c 0,0.096 0,0.096 0,0 0,0.096 0,0 0,0 M 417.884,120.192 c -0.383,19.546 -5.75,33.15 -5.75,33.15 -7.665,4.6 -18.11,9.487 -30.088,11.21 -24.914,3.738 -37.18,0 -60.272,-7.472 -23.094,-7.378 -57.782,-23.378 -93.333,-23.09 -35.55,0.19 -60.94,15.712 -83.74,33.246 0.39,-0.096 5.94,-1.82 7.96,-2.49 0,0 -5.27,6.227 -6.9,9.676 0,0 10.54,-7.952 25.11,-7.09 0,0 -5.08,1.246 -7.185,4.407 0,0 5.843,-1.25 6.9,1.05 1.05,2.3 -2.494,7.57 -9.01,10.54 -6.517,2.97 -17.06,5.27 -23.766,5.65 0,0 6.707,2.1 11.115,6.32 0,0 -5.177,0.76 -10.734,2.97 -4.695,1.82 -13.03,2.97 -16.673,2.49 0,0 4.888,4.6 10.734,8.24 17.054,10.63 9.87,26.35 4.406,31.52 -3.644,1.05 -41.398,11.3 -50.02,72.24 0,0 19.162,-26.74 48.1,-34.11 29.034,-7.38 57.11,0 71.867,7.18 14.758,7.185 37.563,22.994 67.27,27.976 16.29,2.68 35.933,2.202 55,-1.44 -0.286,0.48 -14.85,22.036 -21.08,30.755 0,0 -4.6,-5.845 -10.924,-6.42 0,0 -2.585,-0.575 -4.79,0.575 -1.915,0.86 -3.45,2.68 -4.023,5.27 -0.575,2.585 0.383,4.6 1.63,6.034 1.15,1.34 2.68,2.106 3.83,2.393 1.055,0.287 2.588,0.86 2.875,2.3 -2.873,4.406 -6.802,10.73 -9.58,16.957 -2.205,4.79 -3.26,9.01 -4.12,11.79 -0.864,2.874 -1.535,4.023 -1.82,4.12 l -2.973,2.68 c 0,0 1.15,4.697 1.436,5.46 -0.77,1.345 -1.057,2.878 -1.15,4.41 v 0.097 c 0,3.16 1.53,6.23 4.405,8.144 2.204,1.53 5.366,1.628 5.366,1.628 3.16,0 6.23,-1.53 8.15,-4.31 0.48,-0.67 0.764,-1.435 1.052,-2.11 2.3,-0.954 3.64,-2.2 4.407,-3.254 1.722,0.38 6.61,0.572 6.8,0.572 6.8,-0.097 13.32,-2.01 18.012,-6.037 3.833,-3.45 7.953,-9.2 8.145,-17.056 0,-1.438 0.38,-8.72 -6.616,-14.564 6.135,-8.815 13.61,-19.83 21.467,-31.71 14.665,-22.23 26.64,-41.49 35.746,-57.587 9.58,-16.385 39.382,-61.32 39.286,-122.833 -0.094,-18.01 -6.515,-29.51 -6.515,-29.51 m -80.69,190.6 c 3.26,-0.766 6.516,-1.628 9.774,-2.68 0.096,0 0.192,-0.098 0.288,-0.098 -3.258,4.983 -28.94,41.775 -30.76,44.17 -0.19,-0.096 -4.6,-3.928 -4.695,-4.024 6.516,-9.1 25.01,-36.79 25.393,-37.366 m -39.474,53.367 c 1.437,-2.4 2.875,-4.79 4.408,-7.09 0.097,-0.1 0.097,-0.19 0.19,-0.29 -0.093,0.48 -0.19,3.16 0.673,5.84 0.48,1.24 1.342,2.58 2.683,3.73 1.15,1.053 2.107,1.915 2.97,2.586 -3.93,5.08 -9.583,14.66 -9.583,14.66 -2.395,0.195 -3.64,-0.67 -4.982,-3.54 -0.19,-0.385 -0.383,-0.864 -0.48,-1.34 -0.67,-2.97 -0.094,-6.806 -0.094,-6.9 0.1,-0.29 2.78,-5.367 4.22,-7.667 m 14.85,10.255 c 1.06,0.48 2.59,1.532 3.26,3.065 0.19,0.387 0.29,0.77 0.29,1.15 0.1,1.728 -1.91,4.22 -3.73,4.89 -1.34,0.57 -3.063,0.765 -4.692,0.765 -0.48,0 -1.054,0 -1.533,-0.095 0.48,-0.764 1.053,-1.72 1.724,-2.776 1.436,-2.3 3.16,-4.985 4.694,-6.997 m 9.58,14.083 c -3.16,2.777 -8.623,4.6 -14.277,4.406 -5.08,-0.097 -8.623,-0.96 -11.785,-2.684 v 0.098 c -0.29,0.19 -0.766,1.34 -4.503,1.915 -2.49,0.383 -3.93,-0.096 -4.12,-0.096 4.41,4.41 8.34,1.63 8.34,1.63 0.19,0.763 0.48,1.34 0.48,1.34 0,0 -1.344,1.914 -5.27,1.243 -0.48,-0.094 -0.865,-0.19 -1.344,-0.382 0.1,0 0.19,0.095 0.19,0.095 1.54,1.05 1.92,3.064 0.96,4.6 -1.05,1.53 -3.062,1.913 -4.6,0.955 -1.53,-1.056 -1.91,-3.07 -0.953,-4.6 0.863,-1.246 2.3,-1.726 3.738,-1.34 -2.97,-1.44 -3.736,-4.505 -3.736,-4.505 3.83,-3.45 3.736,-9.58 7.665,-18.11 0.19,-0.38 0.384,-0.767 0.576,-1.246 -0.86,2.11 -1.63,5.75 -1.34,8.43 0.096,0.576 0.19,1.15 0.288,1.63 0.097,0.19 1.34,5.56 4.984,4.695 0,0.1 -0.577,1.25 -0.577,1.25 1.535,0.956 5.176,2.68 11.31,2.78 8.624,0.092 13.32,-5.56 14.66,-9.776 1.055,-3.257 -0.574,-6.9 -3.83,-10.155 0.956,-1.053 1.53,-2.682 0.86,-4.79 0.29,0.958 -1.53,2.68 -3.45,2.587 -0.19,0 -0.38,0 -0.575,-0.095 -2.97,-0.863 -6.226,-4.41 -9.1,-6.516 -2.78,-2.105 -3.643,-5.363 -3.547,-7.662 0.093,-2.3 -0.77,-5.08 -2.97,-7.09 -2.208,-2.11 -4.22,-2.3 -4.795,-2.49 -0.67,-0.194 -0.86,-0.577 -0.766,-0.96 0.095,-0.67 1.05,-0.575 1.05,-0.575 5.37,1.053 9.297,6.42 10.16,7.95 0.768,1.433 9.297,8.044 12.555,10.92 1.534,1.15 8.146,6.23 9.39,11.4 1.247,6.516 -2.49,12.456 -5.652,15.14 m 1.246,-30.565 c 0,0 -0.094,-0.096 -0.19,-0.096 -0.862,-0.77 -2.01,-1.73 -3.257,-2.78 2.01,-2.877 25.583,-37.85 32.482,-48.67 2.395,-0.868 4.79,-1.82 7.09,-2.78 -4.695,7.38 -30.184,45.603 -36.125,54.322 M 367.097,294 c -16.196,7.57 -53.567,20.026 -90.747,13.127 -12.94,-2.395 -30,-6.42 -52.51,-20.12 -14.76,-8.91 -30.76,-17.534 -67.94,-17.342 -30.86,0.19 -50.6,14.084 -56.92,19.354 16.77,-54.62 66.22,-46.57 66.22,-46.57 -9.01,-4.32 -19.84,-2.69 -19.84,-2.69 15.52,-24.34 -9.49,-35.84 -9.49,-35.84 2.11,0 11.59,-2.78 16.38,-4.41 4.888,-1.73 13.704,-2.878 13.704,-2.878 -3.067,-2.874 -12.65,-5.173 -12.65,-5.173 9.104,0 17.25,-4.408 23,-10.348 2.012,-2.11 7.38,-12.46 1.245,-16.387 -5.65,-3.64 -16.96,0.38 -16.96,0.38 0,0 33.73,-36.314 103.2,-20.79 32.97,7.376 70.146,26.634 104.45,26.825 11.5,0.095 36.99,-3.64 52.13,-18.97 -0.864,29.126 -6.23,69.846 -53.28,141.8 m -73.5,84.6 c 0,0.1 0,0.1 0,0 0,0.1 0,0 0,0"
       id="path19"
       inkscape:connector-curvature="0"
       style="fill:#000000" />
    <path
       d="m 368.152,171.26 c -34.305,-0.19 -71.484,-19.545 -104.448,-26.923 -69.472,-15.522 -103.2,20.79 -103.2,20.79 0,0 11.306,-4.12 16.96,-0.382 6.132,4.024 0.766,14.372 -1.246,16.384 -5.75,5.94 -13.895,10.34 -22.998,10.34 0,0 9.582,2.3 12.65,5.17 0,0 -8.913,1.15 -13.704,2.87 -4.887,1.72 -14.278,4.402 -16.386,4.402 0,0 25.01,11.402 9.487,35.834 0,0 10.828,-1.63 19.835,2.683 0,0 -49.445,-7.955 -66.214,46.563 6.324,-5.17 26.064,-19.16 56.92,-19.35 37.18,-0.19 53.18,8.43 67.938,17.34 22.52,13.7 39.575,17.727 52.51,20.12 37.18,6.9 74.552,-5.555 90.746,-13.124 47.05,-72.05 52.416,-112.677 53.182,-141.71 -15.044,15.33 -40.437,19.065 -52.032,18.97 m -25.49,83.164 c -16.672,11.786 -42.736,15.33 -42.736,15.33 -0.288,1.15 -2.013,2.3 -2.013,2.3 0,0 2.684,0.96 9.2,5.94 6.516,4.89 4.79,4.696 6.9,6.133 2.107,1.438 3.257,0.96 3.257,0.96 0.67,1.245 0.67,3.16 0.67,3.16 0.863,0.86 5.175,4.887 1.15,9.1 -3.928,4.217 -8.528,0.29 -8.528,0.29 -1.63,0.382 -3.162,-0.19 -3.162,-0.19 0,0 -8.528,5.363 -16.96,-0.48 -6.9,-4.697 -6.42,-10.35 -6.038,-12.266 -2.3,1.34 -4.79,2.394 -7.378,3.16 -6.9,2.11 -15.715,3.067 -24.435,0.19 -5.75,-1.914 -10.45,-5.267 -14.19,-9.004 -3.74,-3.74 -6.52,-7.86 -8.34,-11.5 -0.29,-0.577 -0.58,-1.15 -0.77,-1.63 -0.58,1.44 -3.45,6.9 -12.36,6.42 -10.26,-0.48 -13.8,-9.87 -13.8,-9.87 0,0 -1.54,-0.576 -2.69,-1.726 0,0 -6.036,0.386 -6.61,-5.363 -0.576,-5.747 5.27,-6.42 6.42,-6.514 0,0 1.15,-1.44 2.49,-2.11 0,0 0.672,1.054 3.26,1.15 2.586,0.096 0.957,-0.766 9.102,-0.766 8.24,0 10.922,0.86 10.922,0.86 0,0 -0.67,-2.01 -0.194,-3.06 0,0 -18.59,-18.59 -24.817,-38.04 -6.133,-19.45 -4.31,-26.636 3.26,-47.14 0,0 5.56,34.875 22.613,56.816 9.68,12.55 20.7,22.23 28.27,28.36 h 0.48 c -1.63,-1.82 -2.877,-3.93 -3.45,-6.324 -1.536,-6.034 -4.027,-11.59 -5.177,-16 -1.15,-4.406 1.44,-13.316 1.44,-13.316 -3.45,-5.463 -1.73,-14.47 -1.73,-14.47 0,0 1.82,-0.863 3.26,-2.59 1.438,-1.722 0.96,-6.8 2.013,-14.18 1.15,-7.47 6.034,-15.136 16.77,-19.544 10.633,-4.31 26.73,1.345 26.83,1.44 0.19,0 16.383,5.174 22.324,15.043 5.94,9.967 5.08,19.07 1.53,25.68 -3.547,6.61 -6.996,10.348 -6.9,12.55 0.095,2.206 1.054,4.026 1.054,4.026 0,0 -4.12,8.24 -10.16,10.54 0,0 -3.352,8.623 -6.897,11.5 -3.64,2.874 -8.913,5.845 -13.8,9.68 -1.916,1.53 -4.12,2.49 -6.42,2.97 0.192,0.094 0.29,0.19 0.48,0.38 9.773,-0.29 24.243,-1.44 39.48,-5.56 26.83,-7.18 52.32,-31.71 52.32,-31.71 -6.518,20.696 -9.297,27.594 -25.97,39.38"
       id="path21"
       inkscape:connector-curvature="0"
       style="fill:#d50a0a" />
    <path
       d="m 281.432,216.675 0.383,-1.15 c 0.383,-1.245 -0.48,-1.724 -0.575,-3.736 -0.096,-1.06 -0.19,-2.02 0.288,-3.17 0.287,-0.96 -0.192,-2.01 -1.15,-2.4 -0.096,0 -0.096,-0.1 -0.192,-0.1 -0.096,0 -0.096,0 -0.192,-0.1 -1.054,-0.29 -2.108,0.286 -2.395,1.244 -0.39,1.15 -1.06,1.914 -1.73,2.68 -1.25,1.533 -2.3,1.44 -2.69,2.587 l -0.39,1.15 c -0.19,0.67 0,1.438 0.48,1.917 0.284,0.29 0.572,0.48 0.86,0.575 1.15,0.382 2.3,-0.19 2.59,-1.15 0.093,-0.19 0.29,-0.288 0.38,-0.19 0.19,0.094 0.287,0.285 0.19,0.38 -0.382,0.96 0.29,2.11 1.44,2.49 0.38,0.098 0.67,0.098 1.053,0.098 0.86,-0.095 1.435,-0.48 1.63,-1.15"
       id="path23"
       inkscape:connector-curvature="0"
       style="fill:#000000" />
    <path
       d="m 286.415,204.7 c 0,1.34 0.48,6.418 2.683,7.76 h 0.096 c 2.203,1.533 6.9,2.203 9.103,2.012 0.287,0 0.862,-0.192 0.862,-0.192 0.95,-0.575 1.82,-0.958 2.68,-1.82 1.05,-1.15 1.91,-2.492 2.49,-3.833 0.28,-0.575 0.48,-1.246 0.67,-1.916 0,0 0.48,-2.2 1.34,-2.49 h 0.38 c 0,0 -2.88,-0.67 -6.04,-0.38 -0.29,0 -0.58,0.1 -0.96,0.1 -3.64,0.67 -7,1.25 -9.3,0.39 -0.77,-0.29 -1.44,-0.67 -2.016,-1.15 -0.19,-0.09 -0.288,-0.29 -0.383,-0.38 -0.765,-0.764 -1.244,-1.44 -1.34,-1.63 l -0.096,-0.092 c 0,0.19 -0.19,2.396 -0.19,3.64"
       id="path25"
       inkscape:connector-curvature="0"
       style="fill:#000000" />
    <path
       d="m 260.35,188.794 c 0.576,0.766 -0.383,2.778 -0.383,2.778 -0.19,0.575 -0.383,1.15 -0.575,1.82 -0.575,2.11 -0.766,4.696 0.096,6.708 0,0.096 0.575,1.054 0.575,1.054 -0.096,0 -0.096,0.096 -0.19,0.096 0.094,0 0.094,-0.096 0.19,-0.096 0,0 0.383,0.48 0.575,0.67 1.63,1.533 5.75,3.833 8.433,3.93 h 0.1 c 2.59,0.286 6.04,-3.546 6.81,-4.6 0.77,-1.054 2.02,-2.97 2.02,-2.97 0,0 -0.96,0.287 -2.11,0.48 h -0.57 c -0.673,0 -1.535,0 -2.3,-0.29 -2.3,-0.765 -4.697,-3.256 -7.188,-5.94 -0.192,-0.19 -0.48,-0.478 -0.67,-0.67 -2.3,-2.204 -4.89,-3.353 -5.08,-3.353 0.19,0.2 0.19,0.29 0.288,0.39"
       id="path27"
       inkscape:connector-curvature="0"
       style="fill:#000000" />
    <path
       d="m 266.58,246.57 c 1.437,0.478 2.778,0.86 4.215,0.957 1.438,0.19 2.875,0.096 4.6,-0.192 3.45,-0.575 7.378,-4.12 8.816,-5.174 1.44,-1.05 7.1,-4.69 8.34,-5.65 1.25,-0.86 2.3,-1.63 3.64,-3.83 1.34,-2.2 3.55,-7.28 3.55,-7.28 0,0 -2.11,-0.38 -2.78,-0.48 v 0.1 c -0.28,0.58 -2.78,4.99 -3.73,5.94 h -0.09 c 0.576,0.29 2.11,1.35 2.397,2.49 0,0 -2.685,2.49 -5.94,3.93 -3.357,1.44 -8.34,4.6 -10.256,5.94 -0.77,0.48 -1.727,0.96 -3.07,1.15 -0.765,-1.44 -3.544,-3.16 -7.185,-4.41 -3.734,-1.24 -7.183,-1.53 -8.525,-0.76 -1.056,-1.05 -1.63,-2.11 -1.918,-2.97 -0.77,-2.2 -2.877,-7.76 -4.6,-10.92 -1.727,-3.16 -2.397,-6.702 -2.397,-6.702 1.15,-0.96 3.64,-0.48 3.64,-0.48 v -0.67 c 0,-1.82 0.574,-5.75 0.574,-6.325 v -0.096 c -0.58,-0.383 -2.59,-1.34 -2.59,-1.34 v 0.095 c -0.194,0.574 -1.344,5.46 -1.63,7.856 -0.29,2.49 0.095,3.736 0.574,5.27 0.48,1.436 2.687,7.76 3.26,9.484 0.097,0.19 0.19,0.48 0.19,0.766 0.578,2.21 1.63,6.42 3.645,8.628 2.204,2.684 4.503,3.738 7.28,4.696"
       id="path29"
       inkscape:connector-curvature="0"
       style="fill:#b1babf" />
    <path
       d="m 274.15,190.52 c 2.49,2.873 6.42,6.514 8.815,7.28 2.396,0.863 7.666,0.288 11.403,-0.48 3.737,-0.574 9.39,0 9.39,-0.095 -2.3,-2.874 -10.157,-2.012 -14.564,-1.82 -3.833,0.287 -4.983,-0.287 -5.27,-0.383 -0.288,-0.096 -1.534,-0.288 -4.41,-2.875 -3.448,-2.874 -9.198,-8.24 -12.743,-7.377 0,0.096 4.8,2.97 7.38,5.75"
       id="path31"
       inkscape:connector-curvature="0"
       style="fill:#b1babf" />
    <path
       d="m 259.488,204.124 c -0.096,-0.096 -1.245,-1.82 0.192,-2.683 0.096,0 0.096,-0.09 0.192,-0.09 0.095,0 0.095,-0.09 0.19,-0.09 0,0 -0.478,-0.96 -0.574,-1.05 -0.862,-2.11 -0.67,-4.69 -0.096,-6.7 0.192,-0.576 0.384,-1.247 0.575,-1.822 0,0 0.96,-2.01 0.384,-2.776 -0.09,-0.096 -0.09,-0.192 -0.19,-0.192 0,0 -2.87,5.368 -3.16,8.146 -0.29,2.588 -0.48,5.175 2.49,7.28"
       id="path33"
       inkscape:connector-curvature="0"
       style="fill:#b1babf" />
    <path
       d="m 269.166,205.753 c 0,0 0.096,0.862 -1.82,2.108 0,0 2.97,0.96 5.174,-0.28 2.204,-1.24 5.175,-6.8 9.008,-5.65 3.737,1.35 2.683,7.57 3.737,9.87 1.054,2.3 3.833,3.26 4.024,3.36 -0.67,-2.11 -0.2,-2.78 -0.2,-2.78 -2.21,-1.34 -2.69,-6.42 -2.69,-7.76 0,-1.34 0.19,-3.542 0.19,-3.542 -1.73,0.86 -7.86,-1.246 -8.628,-2.874 0,0 -1.246,1.915 -2.01,2.97 -0.77,1.15 -4.218,4.885 -6.806,4.6"
       id="path35"
       inkscape:connector-curvature="0"
       style="fill:#b1babf" />
    <path
       d="m 306.442,204.22 c -0.958,0.287 -1.438,2.49 -1.438,2.49 -0.19,0.67 -0.383,1.246 -0.67,1.917 -0.575,1.437 -1.438,2.78 -2.492,3.833 -0.766,0.862 -1.725,1.245 -2.683,1.82 0,0.096 0.09,0.287 0.09,0.383 0.67,1.63 -1.44,2.3 -1.44,2.3 3.64,0.19 5.08,-2.012 6.51,-4.408 1.43,-2.395 2.39,-8.43 2.39,-8.43 h -0.098 c -0.096,0.095 -0.096,0.095 -0.19,0.095"
       id="path37"
       inkscape:connector-curvature="0"
       style="fill:#b1babf" />
    <path
       d="m 255.943,209.01 c 1.437,0.67 2.874,1.342 4.216,2.108 2.01,1.15 4.21,2.49 5.07,4.887 v 0.095 c 0.19,0.575 0.28,1.342 0.09,1.917 0,-0.096 0,-0.192 -0.1,-0.288 -0.19,-0.39 -0.48,-0.67 -0.67,-0.96 -0.48,-0.48 -0.96,-0.96 -1.536,-1.44 0,0 -0.48,1.53 -1.15,2.68 -0.383,0.67 -0.767,1.34 -1.246,2.39 -0.86,2.2 0.1,4.6 0.385,4.6 0.29,0 0.862,-0.29 2.012,-3.36 0,-0.098 0.094,-0.19 0.094,-0.386 0,-0.19 0,-0.384 -0.097,-0.67 0.1,-0.48 0.77,-0.48 1.248,-0.385 0.19,0 0.287,0 0.38,0.094 0.29,-0.67 0.578,-1.438 0.67,-2.205 0.48,-1.72 0.387,-4.213 -1.63,-6.513 -2.01,-2.3 -7.28,-4.024 -9.195,-5.078 -2.013,-0.96 -3.738,-5.75 -3.45,-9.005 0,0 -0.19,1.82 -0.19,3.64 0,0.77 0,1.44 0.094,2.11 0,0.288 0.096,0.575 0.19,0.86 0.48,1.82 0.577,3.07 4.79,4.89"
       id="path39"
       inkscape:connector-curvature="0"
       style="fill:#b1babf" />
    <path
       d="m 285.073,227.694 c 0.192,0.096 0.383,0.19 0.48,0.287 0.19,0.29 0.287,0.39 0.287,0.39 -0.192,0 -0.384,0.1 -0.67,0.1 -0.097,0 -0.672,0.2 -0.672,0.29 -0.958,3.16 -0.67,3.74 -0.48,3.93 0.193,0.1 2.397,-1.15 3.067,-3.45 0,0 0.384,-1.91 0.48,-2.68 0.095,-1.24 0.67,-2.68 0.67,-2.78 -2.3,-0.09 -3.545,0.77 -3.545,0.77 0,0 -0.67,1.15 -0.863,2.59 0.192,0.096 1.054,0.48 1.246,0.575"
       id="path41"
       inkscape:connector-curvature="0"
       style="fill:#b1babf" />
    <path
       d="m 300.597,221.85 c -2.204,-0.384 -7.38,-2.205 -10.445,-1.534 -2.492,0.48 -4.025,1.916 -4.79,3.354 1.628,-1.917 4.694,-1.82 6.994,-1.533 1.82,0.19 3.545,0.574 5.366,1.054 4.504,1.06 5.27,0.1 6.9,-1.05 1.34,-1.05 2.49,-2.68 3.353,-4.12 0,0 0,-0.09 0.096,-0.09 -2.01,2.21 -5.55,4.31 -7.47,3.93"
       id="path43"
       inkscape:connector-curvature="0"
       style="fill:#b1babf" />
    <path
       d="m 282.294,212.65 c -0.096,-1.053 -0.19,-1.82 0.192,-2.682 0.48,-1.437 -0.383,-3.066 -2.012,-3.736 0.958,0.48 1.533,1.437 1.15,2.395 -0.384,1.15 -0.288,2.108 -0.288,3.162 0.096,1.91 0.958,2.49 0.575,3.73 l -0.38,1.15 c -0.19,0.67 -0.86,1.15 -1.63,1.24 -0.38,1.15 -1.53,1.43 -1.53,1.43 1.73,0.573 3.55,-0.19 4.12,-1.727 l 0.39,-1.15 c 0.29,-0.863 0.1,-1.63 -0.09,-2.108 -0.284,-0.577 -0.48,-0.96 -0.48,-1.727"
       id="path45"
       inkscape:connector-curvature="0"
       style="fill:#b1babf" />
    <path
       d="m 272.808,213.705 0.383,-1.15 c 0.39,-1.245 1.44,-1.054 2.69,-2.587 0.67,-0.766 1.34,-1.437 1.73,-2.682 0.29,-0.958 1.34,-1.438 2.4,-1.15 -1.72,-0.48 -3.35,0.287 -3.93,1.725 -0.29,0.96 -0.86,1.44 -1.53,2.21 -0.48,0.58 -0.86,0.87 -1.34,1.15 -0.48,0.29 -1.15,0.77 -1.434,1.63 l -0.385,1.15 c -0.48,1.53 0.48,3.26 2.205,3.83 0,0 -0.77,-0.95 -0.388,-2.1 v -0.09 c -0.382,-0.48 -0.67,-1.243 -0.382,-1.914"
       id="path47"
       inkscape:connector-curvature="0"
       style="fill:#b1babf" />
    <path
       d="m 251.343,218.687 c 0,0 0.67,3.545 2.396,6.707 1.72,3.162 3.83,8.72 4.59,10.923 0.29,0.958 0.96,1.916 1.91,2.97 1.432,-0.767 4.79,-0.575 8.53,0.766 3.54,1.15 6.32,2.97 7.18,4.408 1.246,-0.19 2.3,-0.67 3.066,-1.15 2.013,-1.34 6.995,-4.5 10.253,-5.94 3.352,-1.43 5.94,-3.92 5.94,-3.92 -0.288,-1.15 -1.82,-2.2 -2.396,-2.49 -0.288,0.1 -1.63,0.29 -2.3,0.77 -0.767,0.58 -3.45,4.6 -6.995,6.13 0.383,-2.01 -0.958,-3.06 -1.246,-2.97 -0.283,0 -0.57,0.87 -0.67,1.06 -0.092,0.19 -0.763,1.537 -0.96,2.207 l -0.19,0.67 c -0.57,0 -1.15,-0.095 -1.72,-0.095 0.574,-1.053 1.053,-2.01 1.532,-3.065 0.284,-0.86 -0.578,-1.055 -0.578,-1.055 -0.48,-0.098 -1.056,-0.19 -1.53,-0.29 h -0.097 c -0.67,-0.096 -1.052,0.287 -1.052,0.575 -0.095,0.19 -0.095,0.29 -0.19,0.48 -0.19,0.578 -0.48,1.15 -0.767,1.727 v 0.096 c -0.29,0.67 0,1.34 0,1.34 -0.194,0 -0.67,0 -1.44,-0.19 -0.384,-0.097 -0.863,-0.29 -0.863,-0.29 0.286,-0.19 0.48,-0.67 0.48,-0.67 0.48,-1.245 1.244,-3.16 1.244,-3.16 0,0 0.29,-0.863 -0.19,-0.96 -0.77,-0.19 -1.44,-0.38 -2.206,-0.574 -0.574,-0.096 -0.765,0.383 -0.86,0.48 -0.094,0.286 -0.286,0.766 -0.38,0.96 -0.29,0.764 -0.575,1.53 -0.86,2.392 -0.195,0.48 0,0.96 0,0.96 0,0 -0.67,-0.098 -1.057,-0.194 -0.382,-0.096 -0.957,-0.48 -0.957,-0.48 0.095,-0.095 0.19,-0.382 0.286,-0.48 0.38,-1.15 0.67,-2.68 0.955,-3.83 0,-0.19 0,-0.67 -0.48,-0.863 -0.576,-0.19 -1.246,-0.48 -1.82,-0.67 -0.576,-0.19 -0.77,0.287 -0.864,0.574 -0.285,1.15 -0.573,2.397 -0.67,3.45 -0.094,0.67 0.19,1.15 0.19,1.15 -0.284,-0.096 -0.86,-0.29 -1.34,-0.48 -0.286,-0.095 -0.96,-0.574 -0.96,-0.574 0.387,0 0.578,-0.764 0.578,-0.764 0.384,-0.766 0.67,-1.436 0.96,-2.203 v -0.19 c 0.286,-0.77 -0.29,-1.248 -0.385,-1.248 l -1.728,-0.86 c -0.48,-0.29 -0.763,0.093 -0.86,0.38 -0.286,0.86 -0.86,1.726 -0.96,2.685 -0.093,0.576 0,0.96 0,0.96 -1.05,-0.48 -1.435,-1.342 -1.435,-1.342 0.29,-0.284 0.576,-1.434 0.576,-2.392 0,-1.053 0.097,-2.01 -0.38,-2.3 -0.48,-0.382 -1.248,0.48 -1.727,1.15 -0.385,0.576 -0.48,0.96 -0.48,0.96 v 0.09 c -1.917,-3.353 -1.63,-8.24 -1.917,-9.1 -0.29,-0.86 -1.44,-2.108 -1.44,-2.108 0,0 -2.588,-0.96 -3.738,-0.1"
       id="path49"
       inkscape:connector-curvature="0"
       style="fill:#ffffff" />
    <path
       id="path51"
       d="m 280.186,206.136 c 0.096,0 0.096,0.1 0.192,0.1 -0.096,-0.1 -0.096,-0.1 -0.192,-0.1"
       inkscape:connector-curvature="0"
       style="fill:#ffffff" />
    <path
       d="m 332.793,249.443 -0.096,0.096 c 0,0 -18.302,10.92 -46.187,12.93 0.863,1.34 1.725,2.58 2.3,3.93 8.624,-0.48 17.44,-1.73 25.68,-4.03 5.27,-1.44 10.542,-3.36 15.43,-5.66 4.98,-2.4 9.868,-5.178 14.276,-8.627 2.78,-2.3 5.462,-4.694 7.858,-7.377 3.354,-3.734 6.42,-8.14 8.05,-12.84 l 0.095,-0.38 c -0.1,0.29 -5.37,12.46 -27.41,21.94"
       id="path53"
       inkscape:connector-curvature="0"
       style="fill:#b1babf" />
    <path
       d="m 281.72,256.533 c 1.15,1.15 2.107,2.3 3.066,3.545 0,0 2.97,-0.19 3.353,-0.287 5.07,-0.38 10.25,-1.05 15.23,-1.91 12.45,-2.2 21.94,-5.46 26.35,-7.09 1.05,-0.38 2.01,-0.86 3.06,-1.24 22.04,-9.58 27.31,-21.75 27.5,-22.03 0,0.098 -0.87,0.77 -2.3,1.918 -0.58,0.48 -1.25,1.054 -2.018,1.63 -8.24,6.514 -25.583,18.3 -53.66,23.377 -6.9,1.15 -13.893,1.82 -20.6,2.108"
       id="path55"
       inkscape:connector-curvature="0"
       style="fill:#ffffff" />
    <path
       d="m 285.84,277.612 c -5.654,3.545 -18.398,6.898 -30.664,2.778 -11.978,-4.024 -20.027,-14.276 -22.518,-20.503 -0.288,-0.67 -0.384,-2.396 1.34,-3.258 0,0 -1.15,0.19 -2.107,0.95 0,0 -0.09,0.09 -0.19,0.38 -1.34,4.02 6.81,21.08 22.14,26.25 15.33,5.17 32.01,-3.07 33.54,-7.57 0.1,-0.29 0.1,-0.58 0.1,-0.58 -0.38,-1.058 -1.05,-1.82 -1.05,-1.82 0.96,1.72 0.1,2.97 -0.57,3.35"
       id="path57"
       inkscape:connector-curvature="0"
       style="fill:#da2429" />
    <path
       d="m 265.238,250.497 c -14.182,-4.79 -29.514,2.3 -32.868,6.515 -0.096,0.192 -0.287,0.384 -0.383,0.575 v 0.096 c 0.958,-0.862 2.108,-0.958 2.108,-0.958 -1.725,0.766 -1.725,2.587 -1.342,3.257 2.588,6.228 10.54,16.48 22.52,20.6 12.264,4.12 24.913,0.767 30.663,-2.778 0.67,-0.48 1.533,-1.63 0.67,-3.258 0,0 0.67,0.67 1.054,1.82 0.192,-1.054 -0.095,-2.587 -0.67,-4.31 -2.396,-6.995 -10.062,-17.63 -21.752,-21.56 m 8.91,16.193 v 0.57 c -0.478,-0.29 -1.053,-0.48 -1.532,-0.77 -0.192,1.15 -0.48,2.3 -0.862,3.45 -0.767,-0.48 -1.534,-0.87 -2.3,-1.25 0.383,-1.06 0.575,-2.21 0.862,-3.26 l -2.587,-1.15 c -0.2,1.05 -0.48,2.11 -0.87,3.16 -0.77,-0.388 -1.63,-0.77 -2.49,-1.06 0.29,-1.054 0.57,-2.01 0.86,-3.066 -0.87,-0.288 -1.73,-0.67 -2.59,-0.958 -0.29,0.957 -0.58,1.915 -0.96,2.97 -0.86,-0.288 -1.73,-0.576 -2.49,-0.863 0.38,-0.955 0.67,-1.914 1.05,-2.872 -0.868,-0.285 -1.82,-0.573 -2.688,-0.764 -0.384,0.96 -0.767,1.918 -1.15,2.97 -0.863,-0.19 -1.725,-0.48 -2.587,-0.67 0.386,-1.053 0.77,-2.01 1.25,-2.97 -0.96,-0.19 -1.82,-0.48 -2.78,-0.67 -0.48,0.96 -0.96,2.013 -1.34,3.067 -0.864,-0.194 -1.727,-0.29 -2.685,-0.386 0.384,-1.15 0.863,-2.2 1.34,-3.254 l -1.722,-0.29 c 0.095,-0.19 0.29,-0.385 0.383,-0.577 -5.27,-0.96 -9.965,-1.34 -13.8,-1.34 3.164,-0.676 8.626,-1.06 14.95,-0.29 l 0.19,-0.19 c 0.48,0.092 0.96,0.092 1.44,0.19 0.48,-0.67 0.958,-1.248 1.437,-1.82 0.86,0.093 1.63,0.19 2.395,0.38 -0.48,0.574 -0.862,1.245 -1.245,1.915 0.863,0.195 1.726,0.387 2.684,0.578 l 1.15,-2.01 c 0.77,0.19 1.535,0.382 2.206,0.477 -0.385,0.67 -0.67,1.345 -0.96,2.015 0.86,0.19 1.722,0.48 2.49,0.765 0.29,-0.67 0.574,-1.438 0.766,-2.11 0.67,0.19 1.44,0.477 2.11,0.67 -0.19,0.67 -0.383,1.436 -0.67,2.107 0.86,0.29 1.63,0.576 2.49,0.96 0.193,-0.766 0.29,-1.436 0.48,-2.203 0.67,0.287 1.438,0.575 2.11,0.96 -0.096,0.765 -0.19,1.53 -0.29,2.202 0.865,0.38 1.63,0.763 2.494,1.15 0.095,-0.77 0.095,-1.536 0.095,-2.3 0.67,0.38 1.434,0.764 2.11,1.15 v 2.3 c 0.474,0.19 0.86,0.48 1.24,0.763 v 0.38 c 5.365,3.16 9.39,6.61 11.5,9.005 -2.97,-2.3 -6.9,-4.79 -11.5,-7.09"
       id="path59"
       inkscape:connector-curvature="0"
       style="fill:#ff7900" />
    <path
       d="m 234.478,256.63 c 3.833,0 8.53,0.382 13.8,1.34 0.382,-0.574 0.765,-1.15 1.245,-1.628 -6.42,-0.767 -11.883,-0.48 -15.045,0.287"
       id="path61"
       inkscape:connector-curvature="0"
       style="fill:#010101" />
    <path
       d="m 274.245,264.677 v 2.012 c 4.6,2.3 8.528,4.79 11.5,6.99 -2.11,-2.4 -6.134,-5.85 -11.5,-9.01"
       id="path63"
       inkscape:connector-curvature="0"
       style="fill:#010101" />
    <path
       d="m 274.245,264.677 v -0.383 c -0.383,-0.287 -0.862,-0.48 -1.246,-0.766 v -2.3 c -0.77,-0.383 -1.44,-0.766 -2.11,-1.15 0,0.767 -0.1,1.533 -0.1,2.3 -0.77,-0.383 -1.63,-0.767 -2.49,-1.15 0.09,-0.766 0.19,-1.533 0.28,-2.204 -0.67,-0.287 -1.44,-0.67 -2.11,-0.958 -0.1,0.767 -0.29,1.437 -0.48,2.204 -0.77,-0.288 -1.63,-0.67 -2.49,-0.958 0.19,-0.767 0.38,-1.437 0.57,-2.108 -0.67,-0.288 -1.44,-0.48 -2.11,-0.67 -0.29,0.67 -0.578,1.34 -0.77,2.107 -0.86,-0.28 -1.726,-0.47 -2.49,-0.76 0.285,-0.67 0.67,-1.34 0.956,-2.01 -0.766,-0.19 -1.436,-0.38 -2.203,-0.48 l -1.15,2.02 c -0.86,-0.19 -1.82,-0.38 -2.683,-0.57 0.384,-0.67 0.863,-1.244 1.343,-1.915 -0.77,-0.095 -1.63,-0.287 -2.398,-0.383 -0.48,0.576 -0.96,1.247 -1.44,1.82 -0.48,-0.095 -0.96,-0.095 -1.44,-0.19 l -0.19,0.19 c -0.386,0.48 -0.865,1.054 -1.248,1.628 -0.095,0.193 -0.287,0.385 -0.38,0.576 l 1.723,0.288 c -0.576,1.057 -1.055,2.11 -1.34,3.26 0.86,0.096 1.82,0.288 2.68,0.384 0.383,-1.05 0.767,-2.11 1.34,-3.066 0.864,0.19 1.82,0.383 2.78,0.67 -0.48,0.96 -0.862,2.012 -1.245,2.97 0.86,0.192 1.72,0.384 2.583,0.67 0.382,-0.957 0.765,-2.01 1.15,-2.97 0.86,0.29 1.82,0.48 2.682,0.767 -0.383,0.96 -0.67,1.92 -1.054,2.97 0.863,0.29 1.726,0.58 2.49,0.865 0.288,-0.956 0.67,-2.01 0.958,-2.97 0.86,0.29 1.82,0.67 2.586,0.96 -0.288,0.958 -0.575,2.01 -0.863,3.066 0.864,0.29 1.63,0.67 2.493,1.056 l 0.863,-3.163 2.583,1.15 c -0.19,1.15 -0.48,2.2 -0.86,3.255 0.766,0.385 1.533,0.864 2.3,1.247 0.383,-1.15 0.67,-2.3 0.86,-3.45 0.48,0.29 1.056,0.48 1.535,0.77 v -0.572 c 0.095,-0.67 0.095,-1.34 0.095,-2.01"
       id="path65"
       inkscape:connector-curvature="0"
       style="fill:#ffffff" />
    <path
       d="m 212.15,209.298 0.768,1.437 c 0.48,0.862 1.15,2.012 2.012,3.353 4.025,6.42 9.295,13.318 16.482,20.504 0,0 8.912,8.72 12.65,12.073 1.436,-0.384 2.97,-0.767 4.598,-0.96 -5.27,-4.31 -10.445,-9.1 -15.14,-14.275 -23.956,-25.965 -28.46,-50.014 -30.088,-56.53 0,-0.095 -2.3,14.18 8.72,34.398"
       id="path67"
       inkscape:connector-curvature="0"
       style="fill:#ffffff" />
    <path
       d="m 234.478,246.952 c 0.288,0.192 2.3,2.3 2.588,2.204 1.34,-0.575 2.683,-1.15 4.216,-1.725 -21.08,-18.39 -29.13,-38.22 -29.13,-38.22 l 0.095,0.1 c -11.02,-20.21 -8.72,-34.39 -8.72,-34.39 l -0.095,0.385 c -0.96,2.683 -1.246,5.653 -1.438,8.528 -0.287,4.79 0.192,9.68 1.246,14.47 1.054,4.984 2.78,9.87 4.983,14.565 2.204,4.79 4.887,9.29 7.857,13.604 3.737,5.27 7.954,10.25 12.457,14.85 1.82,1.916 3.833,3.737 5.94,5.653"
       id="path69"
       inkscape:connector-curvature="0"
       style="fill:#b1babf" />
    <path
       d="m 212.918,210.64 -0.767,-1.438 c 0.29,0.48 0.58,0.958 0.77,1.437"
       id="path71"
       inkscape:connector-curvature="0"
       style="fill:#b1babf" />
    <path
       d="m 209.852,254.81 c -0.192,0.382 -0.288,0.765 -0.288,0.957 0,0.383 0.192,0.766 0.384,1.054 0,0 6.516,0.39 10.636,1.44 0.192,-0.57 0.383,-1.34 0.67,-2.2 0.192,-0.57 0.384,-1.05 0.67,-1.43 -1.723,-0.09 -8.527,-0.19 -12.072,0.19"
       id="path73"
       inkscape:connector-curvature="0"
       style="fill:#b1babf" />
    <path
       d="m 209.852,254.81 c 3.545,-0.385 10.35,-0.29 12.073,0 0.96,-1.534 2.492,-2.205 3.546,-2.588 -1.72,-0.288 -3.83,-0.48 -5.65,-0.67 -0.86,-0.097 -1.82,-0.193 -2.68,-0.193 -0.57,0 -1.15,0 -1.72,-0.1 -1.15,0.19 -2.49,0.67 -3.45,1.24 -1.05,0.67 -1.72,1.63 -2.1,2.3"
       id="path75"
       inkscape:connector-curvature="0"
       style="fill:#ffffff" />
    <path
       d="m 208.32,255 c 0,0 0.19,-0.287 0.19,-0.383 0.383,-0.767 1.246,-1.533 2.012,-1.916 1.342,-0.76 3.354,-1.24 4.696,-1.34 h -0.67 c -1.63,0 -3.26,0.19 -4.888,0.39 -1.437,0.19 -2.78,0.48 -4.12,0.48 -0.384,0 -0.863,0 -1.246,-0.09 -0.383,-0.09 -0.767,-0.19 -1.054,-0.29 0.096,-0.19 0.862,3.16 5.08,3.16"
       id="path77"
       inkscape:connector-curvature="0"
       style="fill:#ffffff" />
    <path
       d="m 230.262,245.132 c -0.192,0.095 -0.383,0.287 -0.287,0.67 0.095,0.383 0.48,1.437 -0.096,3.066 -0.58,1.63 -1.83,2.683 -2.98,3.258 -1.25,0.575 -2.69,1.724 -3.16,3.737 -0.39,2.012 -1.44,4.6 -1.15,6.323 0.09,0.67 0.76,1.533 2.2,1.533 -1.06,0.86 -2.02,0.76 -2.78,0.38 -1.25,2.3 -3.07,3.26 -6.52,2.58 -3.45,-0.67 -7.86,-4.03 -8.72,-9.58 0,-0.1 1.63,-0.1 1.82,-0.1 -0.19,-0.29 -0.38,-0.67 -0.48,-1.06 0,-0.19 0.092,-0.578 0.29,-0.86 -4.31,0 -5.08,-3.26 -5.08,-3.357 0,0 -1.34,1.055 -1.44,2.97 -0.19,-0.766 -0.77,-1.436 -1.63,-1.53 -1.056,-0.19 -2.01,0.574 -2.206,1.63 -0.19,1.052 0.576,2.01 1.63,2.2 1.054,0.193 2.013,-0.574 2.204,-1.63 v -0.093 c 0,0.19 0.095,0.48 0.095,0.67 0.193,0.67 0.384,1.15 0.67,1.53 0.58,0.864 1.25,0.96 1.25,0.96 l 0.094,-0.096 c 0,-0.096 0.385,-0.48 0.48,-0.384 -0.48,-0.287 -2.3,-1.724 -1.15,-4.79 0,0 -0.095,2.778 2.205,4.216 0.286,1.15 2.01,8.05 8.814,10.156 7.38,2.3 10.157,-1.15 10.827,-2.49 0.29,-0.575 1.056,-2.492 1.056,-2.492 0.67,-1.82 2.2,-8.91 2.87,-9.775 0.575,-0.866 2.396,-4.12 1.725,-7.19 -0.098,-0.097 -0.194,-0.576 -0.577,-0.48"
       id="path79"
       inkscape:connector-curvature="0"
       style="fill:#b1babf" />
    <path
       d="m 295.997,275.887 c 0.67,0.958 1.437,2.396 1.246,4.216 1.533,0.767 6.995,4.79 9.582,7.282 0.192,-0.863 0.096,-1.916 -0.287,-3.162 -0.384,-1.054 -1.15,-2.204 -2.013,-3.066 -0.096,-0.096 -0.19,-0.192 -0.287,-0.192 -0.863,-0.575 -1.63,-1.15 -2.492,-1.724 -1.15,-0.76 -2.395,-1.53 -3.64,-2.2 -0.576,-0.28 -1.15,-0.67 -1.726,-0.96 -0.096,-0.09 -0.287,-0.19 -0.383,-0.19"
       id="path81"
       inkscape:connector-curvature="0"
       style="fill:#ffffff" />
    <path
       d="m 307.592,285.18 c 0.287,0.768 0.48,1.726 0.48,2.588 0,0.192 -0.097,0.48 -0.097,0.67 0.192,0.097 0.287,0.192 0.48,0.288 0.19,0.192 0.478,0.288 0.766,0.48 0.39,0.19 0.87,0.382 1.25,0.478 0.29,0.096 0.67,0.096 0.96,0.096 0.96,0 1.82,-0.383 2.59,-0.958 -0.38,-0.096 -0.67,-0.192 -1.05,-0.383 -0.38,-0.2 -0.67,-0.39 -1.05,-0.68 -0.48,-0.39 -1.82,-1.63 -2.11,-1.92 l -1.34,-1.34 c -0.57,-0.58 -1.72,-1.63 -2.3,-2.02 -0.092,-0.097 -1.53,-1.247 -1.53,-1.247 0.098,0 2.494,2.49 2.97,3.93"
       id="path83"
       inkscape:connector-curvature="0"
       style="fill:#ffffff" />
    <path
       d="m 310.466,289.588 c -0.48,-0.095 -0.862,-0.287 -1.245,-0.48 -0.28,-0.094 -0.47,-0.286 -0.76,-0.478 -0.19,-0.095 -0.28,-0.19 -0.48,-0.287 -0.09,0.383 -0.19,0.67 -0.28,0.862 -0.28,0.288 -0.67,0.48 -0.96,0.575 0.48,0.383 0.96,0.767 1.34,1.15 -4.12,3.928 -9.58,3.928 -12.74,2.395 -3.06,-1.533 -4.02,-3.353 -3.64,-5.94 -0.86,-0.192 -1.63,-0.67 -1.912,-2.012 0,0 0.094,0 0.094,0.096 0.67,0.57 1.917,0.76 2.588,0.09 0.67,-0.58 1.15,-1.63 1.63,-2.68 0.384,-0.96 0.767,-2.01 1.246,-2.97 0.19,-0.39 0.29,-0.87 0.386,-1.25 0.19,-1.25 -0.097,-2.49 -0.67,-3.64 -0.67,-1.15 -0.96,-2.78 -0.48,-4.41 0.574,-1.63 1.532,-2.3 1.82,-2.49 0.29,-0.29 0.29,-0.48 0.095,-0.67 -0.287,-0.29 -0.67,0 -0.67,0 -2.396,2.01 -2.97,5.75 -2.97,6.8 0,1.05 -2.972,7.66 -3.642,9.48 0,0.09 -0.574,1.63 -0.67,2.582 -0.192,1.437 -0.096,5.94 7.09,8.527 6.613,2.395 12.17,-2.01 13.13,-2.778 1.915,0.093 3.257,-0.865 3.927,-1.535 l 0.48,-0.48 c -0.762,2.395 -2.2,2.97 -3.16,3.066 h -0.67 c 0,0.095 0,0.095 0.097,0.19 0.095,0.384 0.095,0.67 0.095,0.67 0,0 0.19,0.098 0.575,0.098 0.48,0 1.34,-0.095 2.49,-0.957 0.19,-0.19 0.29,-0.286 0.48,-0.48 -0.384,0.865 -0.096,2.015 0.766,2.398 0.96,0.48 2.016,0.19 2.59,-0.766 0.576,-0.96 0.19,-2.013 -0.765,-2.588 -0.67,-0.385 -1.44,-0.29 -2.01,0.19 0.57,-0.958 0.57,-1.82 0.57,-2.395 0,-0.1 -0.094,-0.576 -0.094,-0.576 -0.766,0.573 -1.63,0.956 -2.59,0.956 -0.38,-0.09 -0.763,-0.19 -1.05,-0.283"
       id="path85"
       inkscape:connector-curvature="0"
       style="fill:#b1babf" />
    <path
       d="m 296.955,281.636 c -0.287,0.862 -0.575,1.533 -0.766,2.108 3.64,1.63 7.09,3.64 9.39,5.27 0.28,-0.096 0.67,-0.288 0.95,-0.575 0.19,-0.2 0.28,-0.58 0.38,-0.96 -2.59,-2.49 -8.05,-6.52 -9.58,-7.28 -0.1,-0.1 -0.2,0.86 -0.39,1.43"
       id="path87"
       inkscape:connector-curvature="0"
       style="fill:#b1babf" />
    <path
       d="m 286.51,162.254 c -20.314,-3.45 -24.243,11.785 -24.34,15.52 -0.095,2.684 0.097,4.505 0,5.654 -2.97,1.246 -6.13,1.725 -6.13,1.725 0.19,-1.725 0.19,-5.46 0.86,-8.527 0.672,-2.78 5.367,-15.043 21.85,-15.14 1.724,0 3.544,0.097 5.46,0.385 0.67,0.1 1.438,0.29 2.013,0.39 0.192,-0.09 0.287,0 0.287,0"
       id="path89"
       inkscape:connector-curvature="0"
       style="fill:#b1babf" />
    <path
       d="m 347.263,307.984 c -3.258,4.983 -28.94,41.775 -30.76,44.17 -0.19,-0.096 -4.6,-3.928 -4.695,-4.024 6.516,-9.102 25.106,-36.792 25.49,-37.367 3.257,-0.767 6.515,-1.63 9.773,-2.683 0,0 0.1,0 0.2,-0.096"
       id="path91"
       inkscape:connector-curvature="0"
       style="fill:#ffffff" />
    <path
       d="m 316.216,246.57 c -15.236,4.12 -29.8,5.268 -39.48,5.556 -0.19,-0.096 -0.287,-0.192 -0.48,-0.383 2.3,-0.48 4.505,-1.438 6.422,-2.97 4.79,-3.833 10.157,-6.803 13.798,-9.678 3.64,-2.874 6.9,-11.497 6.9,-11.497 6.036,-2.3 10.157,-10.54 10.157,-10.54 0,0 -0.96,-1.82 -1.054,-4.024 -0.1,-2.203 3.35,-5.94 6.89,-12.55 3.54,-6.612 4.41,-15.714 -1.54,-25.68 -5.85,-9.867 -22.14,-15.04 -22.33,-15.04 -0.098,-0.097 -16.196,-5.75 -26.83,-1.438 -10.735,4.407 -15.62,12.072 -16.676,19.545 -1.15,7.48 -0.67,12.56 -2.108,14.19 -1.44,1.73 -3.26,2.59 -3.26,2.59 0,0 -1.63,9.01 1.724,14.47 0,0 -2.587,8.91 -1.437,13.32 1.15,4.41 3.64,10.06 5.174,16 0.575,2.4 1.82,4.6 3.45,6.33 h -0.48 c -7.57,-6.04 -18.59,-15.81 -28.27,-28.36 -17.054,-21.94 -22.612,-56.82 -22.612,-56.82 -7.474,20.505 -9.39,27.69 -3.162,47.14 6.132,19.45 24.82,38.04 24.82,38.04 -0.48,1.052 0.193,3.064 0.193,3.064 0,0 -2.68,-0.86 -10.924,-0.86 -8.143,0 -6.61,0.86 -9.1,0.765 -2.49,-0.1 -3.26,-1.15 -3.26,-1.15 -1.244,0.67 -2.49,2.11 -2.49,2.11 -1.15,0.09 -7.09,0.76 -6.42,6.51 0.67,5.75 6.61,5.366 6.61,5.366 1.056,1.246 2.685,1.725 2.685,1.725 0,0 3.548,9.39 13.8,9.87 8.91,0.384 11.787,-5.08 12.36,-6.515 0.19,0.575 0.48,1.054 0.768,1.63 1.82,3.736 4.6,7.76 8.336,11.497 3.736,3.737 8.526,7.09 14.18,9.01 8.72,2.874 17.534,2.01 24.43,-0.192 2.59,-0.767 5.08,-1.82 7.38,-3.16 -0.38,1.914 -0.763,7.567 6.04,12.262 8.433,5.842 16.96,0.48 16.96,0.48 0,0 1.63,0.572 3.163,0.19 0,0 4.6,3.93 8.528,-0.29 3.93,-4.216 -0.282,-8.336 -1.15,-9.102 0,0 -0.09,-1.915 -0.67,-3.16 0,0 -1.15,0.38 -3.26,-0.96 -2.11,-1.435 -0.29,-1.15 -6.9,-6.13 -6.51,-4.89 -9.2,-5.94 -9.2,-5.94 0,0 1.73,-1.15 2.02,-2.3 0,0 26.064,-3.64 42.737,-15.33 16.67,-11.785 19.45,-18.683 25.87,-39.57 0,0.38 -25.49,24.815 -52.32,32 z M 250.96,203.166 c -0.096,-0.575 -0.096,-1.342 -0.096,-2.108 0,-1.82 0.192,-3.64 0.192,-3.64 0,0 2.49,-1.63 3.737,-3.93 1.246,-2.3 2.3,-6.898 2.3,-6.898 4.79,-0.575 9.2,-5.557 9.486,-5.94 -1.15,1.15 -2.69,2.012 -4.32,2.683 -2.97,1.245 -6.14,1.724 -6.14,1.724 0.19,-1.724 0.19,-5.46 0.86,-8.527 0.67,-2.78 5.363,-15.043 21.85,-15.138 1.72,0 3.54,0.095 5.46,0.383 0.67,0.096 1.34,0.287 2.01,0.383 h 0.095 c 3.74,0.767 6.803,1.725 7.57,1.916 0.096,0 0.19,0.096 0.19,0.096 0.385,0.096 0.96,0.288 1.535,0.575 0.19,0.096 0.386,0.096 0.577,0.192 0.29,0.095 0.577,0.19 0.865,0.287 0.384,0.192 0.767,0.288 1.247,0.48 0.384,0.19 0.863,0.382 1.34,0.574 l 0.865,0.383 c 21.273,10.26 16.58,26.45 15.43,29.51 -1.15,2.78 -3.355,5.56 -4.31,7.1 -1.15,-1.24 -2.685,-3.06 -3.835,-5.17 -0.765,-1.34 -1.34,-2.78 -1.532,-4.21 0,0 0.382,7.09 4.024,10.445 0,0 -1.918,4.31 -2.3,6.9 -0.385,2.586 0.574,5.364 0.574,5.364 0,0 -0.286,0.383 -0.67,0.96 0,0 0,0.093 -0.095,0.093 -0.86,1.535 -2.01,3.068 -3.352,4.12 -1.63,1.248 -2.395,2.11 -6.9,1.056 -1.724,-0.38 -3.544,-0.765 -5.365,-1.053 -2.3,-0.286 -5.366,-0.382 -6.995,1.534 l -0.574,0.864 c 0,0 1.25,-0.867 3.548,-0.77 -0.096,0.19 -0.575,1.53 -0.67,2.78 -0.096,0.764 -0.48,2.68 -0.48,2.68 -0.67,2.3 -2.874,3.546 -3.066,3.45 -0.19,-0.19 -0.575,-0.67 0.48,-3.93 0,-0.19 0.48,-0.383 0.67,-0.287 0.192,0 0.383,-0.098 0.575,-0.098 0,0 -0.094,-0.096 -0.286,-0.383 -0.097,-0.19 -0.29,-0.29 -0.48,-0.38 -0.19,-0.098 -1.055,-0.48 -1.055,-0.48 -0.48,-0.19 -0.865,-0.385 -0.865,-0.385 v 0.29 c 0,0.19 -0.095,0.573 -0.095,0.67 v 0.19 c -0.094,0.19 -0.094,0.383 -0.19,0.575 -0.19,0.766 -0.383,1.34 -0.575,2.01 v 0.096 c -0.19,0.67 -0.96,0.48 -0.96,0.48 h -0.098 c -0.48,-0.29 -1.054,-0.48 -1.63,-0.77 0,0 -0.67,-0.382 -0.574,-0.96 v -0.19 c 0,-0.097 0,-0.097 0.093,-0.193 0.192,-0.67 0.575,-2.01 0.575,-2.3 0.1,-0.382 0.29,-1.052 0.48,-1.34 -0.09,-0.096 -0.38,-0.383 -0.57,-0.48 -0.19,-0.095 -0.384,-0.095 -0.67,-0.095 -0.097,0.093 -0.29,0.38 -0.29,0.48 0,0.092 -0.193,0.763 -0.48,1.625 -0.287,0.768 -0.575,1.63 -0.67,2.11 -0.097,0.383 -0.48,0.48 -0.67,0.48 -0.193,0 -0.385,-0.097 -0.385,-0.097 -0.48,-0.193 -1.15,-0.48 -1.72,-0.67 h -0.097 c -0.67,-0.29 -0.575,-0.77 -0.575,-1.056 0.286,-0.862 0.67,-1.916 0.86,-2.682 0.097,-0.194 0.097,-0.385 0.193,-0.577 0,-0.092 0.286,-0.67 0.67,-0.86 -0.288,-0.19 -0.767,-0.382 -1.055,-0.48 -0.48,-0.19 -1.245,-0.285 -1.245,-0.285 0.097,0.287 0.19,0.766 0.097,0.957 -0.096,0.29 -0.96,3.356 -0.96,3.45 0,0.097 -0.19,0.48 -0.382,0.576 -0.193,0.095 -0.863,-0.096 -0.863,-0.096 h -0.097 c -0.573,-0.194 -1.34,-0.29 -1.82,-0.386 0,0 -0.86,-0.29 -0.574,-1.054 0,0 0.575,-2.01 0.863,-2.97 v -0.096 c 0,-0.096 0.19,-0.48 0.19,-1.054 0,-0.574 -0.38,-0.766 -0.67,-0.766 -0.286,0 -0.574,0.48 -0.67,0.86 l -0.287,0.86 v 0.1 c 0,0 0,0.097 -0.094,0.097 -0.29,0.77 -0.48,1.44 -0.768,2.206 -0.29,0.766 -1.15,0.575 -1.15,0.575 -0.576,-0.096 -1.247,-0.29 -1.726,-0.383 h -0.094 c 0,0 -0.67,-0.19 -0.48,-0.96 v -0.09 c 0.29,-0.67 0.48,-1.25 0.77,-2.015 0.095,-0.193 0.382,-0.864 0.574,-1.15 0.19,-0.29 0.38,-0.384 0.38,-0.384 0,-0.19 -0.19,-0.48 -0.67,-0.57 h -0.19 c -0.096,0 -0.29,-0.096 -0.384,-0.096 -0.384,-0.098 -1.055,-0.098 -1.246,0.38 0.09,0.193 0.09,0.48 0.09,0.67 0,0.193 -0.095,0.29 -0.095,0.385 -1.15,3.16 -1.727,3.45 -2.015,3.35 -0.19,0 -1.243,-2.392 -0.38,-4.6 0.48,-0.954 0.86,-1.72 1.244,-2.39 0.67,-1.15 1.15,-2.685 1.15,-2.685 0.57,0.383 1.05,0.86 1.53,1.44 0.19,0.38 0.57,0.57 0.67,0.955 0.09,0.096 0.09,0.19 0.09,0.287 0.19,-0.573 0.098,-1.34 -0.094,-1.914 v -0.097 c -0.86,-2.3 -3.066,-3.737 -5.08,-4.886 -1.34,-0.762 -2.78,-1.432 -4.214,-2.103 -4.214,-1.82 -4.31,-3.062 -4.79,-4.98 -0.19,0 -0.286,-0.284 -0.286,-0.57 z m 4.6,30.18 c -0.096,-0.287 -0.192,-0.574 -0.192,-0.766 -0.575,-1.724 -2.78,-8.048 -3.258,-9.485 -0.383,-1.246 -0.767,-2.396 -0.67,-4.312 0,-0.287 0,-0.575 0.095,-0.862 0.287,-2.39 1.437,-7.28 1.63,-7.85 v -0.09 c 0,0 1.915,0.96 2.586,1.25 v 0.1 c -0.09,0.577 -0.57,4.41 -0.57,6.23 v 0.67 c 0,0 1.15,1.15 1.44,2.108 0.29,0.863 0,5.75 1.92,9.103 v -0.1 c 0,0 0.1,-0.385 0.48,-0.96 0.39,-0.574 1.25,-1.44 1.73,-1.15 0.48,0.384 0.388,1.34 0.388,2.3 0,1.054 -0.382,2.108 -0.574,2.395 0,0 0.384,0.86 1.438,1.34 v -0.957 c 0.19,-0.96 0.67,-1.82 0.96,-2.685 0.097,-0.285 0.384,-0.67 0.86,-0.38 0,0 0.866,0.48 1.728,0.86 0.095,0.097 0.67,0.48 0.38,1.247 v 0.19 c -0.29,0.765 -0.575,1.435 -0.96,2.202 0,0 -0.19,0.765 -0.573,0.765 0,0 0.67,0.48 0.96,0.574 0.48,0.19 1.056,0.48 1.34,0.48 0,0 -0.284,-0.48 -0.19,-1.15 0.19,-0.96 0.48,-2.3 0.67,-3.45 0.098,-0.285 0.29,-0.67 0.865,-0.573 0.57,0.286 1.24,0.48 1.82,0.67 0.48,0.19 0.48,0.766 0.48,0.86 -0.29,1.245 -0.58,2.68 -0.96,3.83 -0.1,0.194 -0.19,0.48 -0.29,0.48 0,0 0.576,0.384 0.96,0.48 0.38,0.096 1.053,0.288 1.053,0.288 0,0 -0.1,-0.48 0,-0.96 0.285,-0.766 0.573,-1.533 0.86,-2.395 0.094,-0.19 0.286,-0.67 0.38,-0.956 0.096,-0.19 0.288,-0.573 0.86,-0.48 0.674,0.195 1.44,0.386 2.207,0.578 0.574,0.19 0.19,0.96 0.19,0.96 0,0 -0.766,1.915 -1.245,3.16 0,0 -0.19,0.48 -0.48,0.67 0,0 0.48,0.19 0.864,0.29 0.765,0.19 1.244,0.095 1.436,0.19 0,0 -0.29,-0.574 0,-1.34 v -0.1 c 0.19,-0.57 0.48,-1.15 0.766,-1.72 0.096,-0.194 0.096,-0.29 0.19,-0.48 0.098,-0.29 0.48,-0.67 1.056,-0.576 h 0.098 c 0.48,0.097 1.057,0.19 1.536,0.29 0,0 0.86,0.19 0.575,1.05 -0.48,1.053 -0.96,2.01 -1.532,3.065 0.575,0 1.15,0.095 1.724,0.095 0,0 -0.093,-0.1 0.19,-0.676 0.196,-0.67 0.96,-2.014 0.96,-2.205 0.1,-0.192 0.29,-0.96 0.67,-1.054 0.386,0 1.63,0.96 1.25,2.97 3.545,-1.536 6.23,-5.56 6.995,-6.13 0.672,-0.48 1.917,-0.77 2.3,-0.77 h 0.096 c 0.96,-0.96 3.45,-5.367 3.74,-5.94 v -0.1 c 0.67,0.1 2.776,0.48 2.776,0.48 0,0 -2.203,5.08 -3.45,7.28 -1.34,2.21 -2.395,2.97 -3.64,3.837 -1.246,0.862 -6.804,4.6 -8.337,5.652 -1.44,1.052 -5.368,4.5 -8.818,5.172 -1.72,0.29 -3.16,0.39 -4.6,0.198 -1.433,-0.19 -2.68,-0.48 -4.12,-0.956 -2.78,-0.96 -5.08,-2.11 -7.38,-4.6 -2.102,-1.724 -3.06,-5.94 -3.64,-8.143 z m -39.67,-6.994 c -2.972,-4.31 -5.655,-8.814 -7.86,-13.605 -2.107,-4.695 -3.832,-9.485 -4.982,-14.563 -1.054,-4.695 -1.437,-9.582 -1.245,-14.468 0.19,-2.875 0.48,-5.845 1.437,-8.527 l 0.192,-0.39 c 1.533,6.51 6.132,30.56 29.992,56.53 4.696,5.17 9.966,9.87 15.14,14.27 -1.63,0.28 -3.162,0.57 -4.6,0.96 -3.736,-3.36 -12.648,-12.08 -12.648,-12.08 -7.09,-7.19 -12.457,-14.088 -16.48,-20.507 -0.864,-1.343 -1.44,-2.493 -2.014,-3.355 -0.287,-0.48 -0.575,-0.96 -0.766,-1.44 l -0.096,-0.096 c 0.287,0.576 8.336,20.12 29.13,38.23 -1.533,0.575 -2.875,1.054 -4.216,1.725 -0.192,0.094 -2.3,-2.014 -2.587,-2.206 -2.108,-1.82 -4.12,-3.736 -6.037,-5.75 -4.408,-4.5 -8.624,-9.387 -12.36,-14.753 z m 1.244,24.912 c 0.863,0 1.82,0.095 2.683,0.19 1.82,0.193 3.833,0.384 5.654,0.672 -1.05,0.383 -2.49,1.054 -3.54,2.587 -0.28,0.383 -0.48,0.862 -0.67,1.437 -0.29,0.862 -0.48,1.63 -0.67,2.204 -4.12,-1.15 -10.63,-1.438 -10.63,-1.438 -0.19,-0.287 -0.38,-0.67 -0.38,-1.053 0,-0.288 0.1,-0.67 0.29,-1.054 0.386,-0.77 1.057,-1.63 2.207,-2.3 0.96,-0.68 2.3,-1.06 3.45,-1.25 h 1.63 z m 11.978,1.437 c -0.575,0.87 -2.204,7.96 -2.875,9.78 0,0 -0.766,1.92 -1.054,2.49 -0.67,1.34 -3.45,4.79 -10.828,2.49 -6.707,-2.11 -8.528,-9 -8.815,-10.15 -2.3,-1.43 -2.204,-4.21 -2.204,-4.21 -1.15,3.07 0.766,4.507 1.15,4.79 -0.096,0 -0.48,0.388 -0.48,0.388 l -0.095,0.096 c 0,0 -0.67,-0.1 -1.24,-0.96 -0.29,-0.384 -0.48,-0.863 -0.67,-1.533 -0.09,-0.192 -0.09,-0.48 -0.09,-0.67 v 0.095 c -0.19,1.055 -1.15,1.725 -2.2,1.63 -1.05,-0.19 -1.72,-1.15 -1.63,-2.206 0.197,-1.057 1.15,-1.728 2.21,-1.63 0.766,0.094 1.437,0.764 1.533,1.53 0.095,-1.92 1.437,-2.97 1.437,-2.97 0.383,0.19 0.766,0.286 1.054,0.286 0.384,0.096 0.768,0.096 1.247,0.096 1.34,0 2.686,-0.19 4.12,-0.48 1.63,-0.19 3.26,-0.38 4.89,-0.38 h 0.67 c -1.34,0.097 -3.353,0.576 -4.695,1.34 -0.767,0.48 -1.534,1.15 -2.013,1.918 0,0.096 -0.19,0.288 -0.19,0.384 -0.19,0.287 -0.29,0.574 -0.29,0.86 0,0.385 0.198,0.77 0.48,1.056 -0.19,0 -1.82,0 -1.82,0.094 0.867,5.655 5.27,8.91 8.72,9.583 3.358,0.67 5.27,-0.29 6.52,-2.588 0.767,0.38 1.725,0.38 2.78,-0.386 -1.534,0.095 -2.11,-0.864 -2.205,-1.534 -0.285,-1.73 0.77,-4.314 1.15,-6.326 0.386,-2.01 1.92,-3.16 3.164,-3.736 1.247,-0.576 2.493,-1.63 2.97,-3.26 0.577,-1.626 0.194,-2.68 0.098,-3.063 -0.1,-0.38 0.096,-0.573 0.287,-0.67 0.386,-0.095 0.577,0.38 0.577,0.38 0.767,3.358 -1.054,6.61 -1.63,7.478 z m 58.453,23.48 c 0,0 0,0.29 -0.096,0.58 -1.54,4.51 -18.12,12.75 -33.54,7.57 -15.33,-5.17 -23.48,-22.23 -22.14,-26.25 0.09,-0.28 0.19,-0.38 0.19,-0.38 v -0.092 c 0.09,-0.19 0.19,-0.382 0.38,-0.574 3.35,-4.31 18.78,-11.31 32.86,-6.517 11.69,3.93 19.353,14.565 21.653,21.367 0.575,1.724 0.766,3.26 0.67,4.31 z m 18.685,6.33 c 0.575,0.39 1.725,1.54 2.3,2.01 l 1.34,1.35 c 0.29,0.29 1.63,1.63 2.11,1.918 0.383,0.285 0.67,0.48 1.054,0.67 0.287,0.19 0.67,0.286 1.054,0.38 0,0 0.095,0.48 0.095,0.577 0,0.575 0,1.533 -0.574,2.395 0.57,-0.38 1.34,-0.48 2.01,-0.19 0.96,0.48 1.24,1.63 0.76,2.586 -0.48,0.96 -1.63,1.245 -2.59,0.766 -0.87,-0.48 -1.25,-1.53 -0.77,-2.393 l -0.48,0.476 c -1.06,0.86 -1.92,0.956 -2.49,0.956 -0.39,0 -0.58,-0.095 -0.58,-0.095 0,0 0,-0.195 -0.1,-0.67 v -0.195 h 0.67 c 0.96,-0.098 2.397,-0.67 3.163,-3.068 0,0.093 -0.19,0.284 -0.48,0.48 -0.67,0.67 -2.01,1.63 -3.93,1.53 -0.863,0.765 -6.42,5.173 -13.13,2.78 -7.282,-2.59 -7.282,-7.09 -7.09,-8.53 0.095,-0.956 0.67,-2.49 0.67,-2.585 0.575,-1.82 3.546,-8.43 3.64,-9.485 0,-1.054 0.577,-4.79 2.97,-6.707 0,0 0.385,-0.29 0.67,0 0.195,0.19 0.195,0.48 -0.093,0.67 -0.284,0.286 -1.243,0.86 -1.82,2.49 -0.572,1.63 -0.19,3.257 0.48,4.407 0.577,1.055 0.86,2.396 0.67,3.64 -0.093,0.48 -0.19,0.864 -0.38,1.247 -0.48,0.96 -0.86,2.01 -1.246,2.97 -0.48,1.057 -0.958,2.11 -1.63,2.685 -0.67,0.67 -1.915,0.48 -2.586,-0.097 0,0 -0.097,0 -0.097,-0.098 0.29,1.243 1.15,1.82 1.92,2.01 -0.38,2.587 0.48,4.407 3.643,5.94 3.16,1.533 8.623,1.533 12.744,-2.395 -0.386,-0.48 -0.865,-0.77 -1.344,-1.15 0.29,-0.096 0.77,-0.29 0.96,-0.575 0.097,-0.19 0.29,-0.48 0.29,-0.862 0.097,-0.19 0.097,-0.382 0.097,-0.67 0.096,-0.862 -0.095,-1.82 -0.48,-2.587 -0.48,-1.34 -2.586,-3.64 -2.873,-3.93 0.094,0.29 1.34,1.248 1.435,1.34 z m -8.145,-5.46 c 1.246,0.67 2.396,1.44 3.64,2.21 0.864,0.577 1.726,1.056 2.493,1.726 0.096,0.097 0.19,0.193 0.287,0.193 0.767,0.86 1.63,2.01 2.013,3.064 0.48,1.248 0.48,2.3 0.287,3.16 -0.096,0.386 -0.192,0.77 -0.383,0.96 -0.288,0.288 -0.67,0.48 -0.958,0.576 -2.3,-1.536 -5.75,-3.64 -9.39,-5.27 0.19,-0.578 0.478,-1.248 0.765,-2.11 0.19,-0.576 0.38,-1.534 0.38,-1.534 0.19,-1.82 -0.58,-3.354 -1.25,-4.217 0.09,0.1 0.19,0.1 0.38,0.193 0.57,0.38 1.15,0.67 1.72,1.053 z m 61.998,-49.15 c -1.63,4.7 -4.695,9.108 -8.05,12.84 -2.395,2.68 -5.078,5.178 -7.857,7.38 -4.312,3.45 -9.2,6.325 -14.182,8.625 -4.982,2.393 -10.157,4.214 -15.523,5.65 -8.24,2.3 -17.05,3.544 -25.68,4.023 -0.67,-1.246 -1.43,-2.587 -2.3,-3.93 27.79,-2.01 46.19,-12.933 46.19,-12.933 l 0.1,-0.1 c -0.96,0.383 -2.01,0.862 -3.06,1.246 -4.5,1.723 -13.89,4.885 -26.35,7.09 -5.072,0.957 -10.15,1.53 -15.23,1.915 -0.382,0 -3.352,0.288 -3.352,0.288 -0.96,-1.15 -1.916,-2.394 -3.066,-3.544 6.803,-0.285 13.7,-0.956 20.506,-2.2 28.17,-5.08 45.42,-16.768 53.66,-23.38 0.766,-0.574 1.437,-1.15 2.012,-1.63 1.434,-1.15 2.3,-1.915 2.3,-1.915 l -0.1,0.573 z"
       id="path93"
       inkscape:connector-curvature="0"
       style="fill:#000000" />
    <path
       d="m 311.137,194.16 c 0.958,-1.342 2.683,-4.983 2.683,-9.486 0,-5.078 -2.3,-11.21 -10.54,-16.288 0,0 -0.096,0 -0.096,-0.096 -0.096,-0.096 -0.192,-0.096 -0.288,-0.192 -1.054,-0.67 -2.108,-1.245 -3.066,-1.724 -0.48,-0.192 -0.862,-0.383 -1.342,-0.575 -0.383,-0.2 -0.862,-0.39 -1.245,-0.48 l -0.863,-0.29 c -0.19,-0.1 -0.383,-0.19 -0.575,-0.19 -0.67,-0.2 -1.15,-0.39 -1.533,-0.58 -0.096,0 -0.19,-0.1 -0.19,-0.1 -0.768,-0.29 -3.834,-1.15 -7.572,-1.92 -20.314,-3.45 -24.243,11.78 -24.34,15.52 -0.095,2.68 0.097,4.5 0,5.65 1.63,-0.67 3.163,-1.536 4.313,-2.68 -0.287,0.282 -4.695,5.36 -9.486,5.94 0,0 -1.054,4.6 -2.3,6.9 -1.246,2.293 -3.737,3.922 -3.737,3.922 -0.192,3.256 1.533,8.047 3.545,9.005 1.917,0.96 7.187,2.684 9.2,5.08 2.012,2.3 2.108,4.79 1.628,6.513 -0.19,0.767 -0.48,1.533 -0.766,2.204 h 0.192 c 0.38,0.193 0.67,0.48 0.67,0.576 0,0 -0.2,0.097 -0.39,0.384 -0.19,0.288 -0.48,0.958 -0.58,1.15 -0.29,0.67 -0.48,1.246 -0.77,2.01 v 0.098 c -0.19,0.67 0.48,0.96 0.48,0.96 h 0.09 c 0.572,0.097 1.15,0.19 1.722,0.384 0,0 0.862,0.19 1.053,-0.578 0.29,-0.77 0.48,-1.44 0.767,-2.207 0,0 0,-0.094 0.1,-0.094 v -0.097 l 0.29,-0.86 c 0.095,-0.29 0.382,-0.865 0.67,-0.865 0.287,0 0.67,0.19 0.67,0.763 0,0.573 -0.19,1.055 -0.19,1.055 v 0.092 c -0.288,0.96 -0.863,2.97 -0.863,2.97 -0.287,0.763 0.576,1.05 0.576,1.05 0.48,0.19 1.248,0.285 1.82,0.477 h 0.1 c 0,0 0.67,0.19 0.863,0.095 0.19,-0.097 0.382,-0.48 0.382,-0.576 0,-0.1 0.86,-3.07 0.956,-3.45 0.1,-0.29 0,-0.77 -0.09,-1.057 0,0 0.86,0.19 1.242,0.287 0.384,0.09 0.863,0.282 1.055,0.48 -0.387,0.19 -0.58,0.76 -0.67,0.86 -0.1,0.19 -0.1,0.38 -0.196,0.57 -0.288,0.863 -0.67,1.917 -0.863,2.683 0,0.19 -0.096,0.768 0.575,1.055 h 0.097 c 0.576,0.19 1.247,0.48 1.726,0.67 0,0 0.19,0.097 0.38,0.097 0.29,0 0.58,-0.093 0.67,-0.48 0.1,-0.38 0.39,-1.242 0.67,-2.01 0.29,-0.764 0.48,-1.53 0.48,-1.626 0,-0.197 0.19,-0.39 0.29,-0.48 0.29,0 0.48,0 0.67,0.09 0.19,0.097 0.48,0.385 0.58,0.48 -0.193,0.288 -0.384,0.96 -0.48,1.34 -0.096,0.29 -0.384,1.726 -0.575,2.3 0,0.097 0,0.097 -0.095,0.19 v 0.195 c -0.1,0.67 0.57,0.96 0.57,0.96 0.575,0.287 1.15,0.575 1.63,0.766 h 0.095 c 0,0 0.67,0.19 0.96,-0.48 v -0.096 c 0.194,-0.67 0.385,-1.34 0.577,-2.014 0.1,-0.19 0.1,-0.38 0.196,-0.572 v -0.19 c 0,-0.1 0.095,-0.388 0.095,-0.67 v -0.29 c 0,0 0.384,0.19 0.863,0.38 0.19,-1.534 0.865,-2.588 0.865,-2.588 0.194,-0.384 0.385,-0.67 0.577,-0.863 0.864,-1.438 2.3,-2.78 4.79,-3.354 3.07,-0.67 8.243,1.15 10.447,1.535 1.914,0.385 5.46,-1.722 7.47,-4.12 0.385,-0.573 0.67,-0.96 0.67,-0.96 0,0 -1.052,-2.774 -0.573,-5.36 0.38,-2.587 2.3,-6.9 2.3,-6.9 -3.547,-3.35 -4.026,-10.44 -4.026,-10.44 0.195,1.435 0.77,2.87 1.536,4.213 0.86,-0.96 2.11,-2.3 3.45,-4.12 m -31.63,-2 c 2.873,2.59 4.12,2.78 4.406,2.878 0.288,0.097 1.438,0.67 5.27,0.384 4.408,-0.19 12.266,-1.053 14.566,1.82 0,0.097 -5.56,-0.573 -9.393,0.097 -3.735,0.766 -9.1,1.34 -11.4,0.48 -2.397,-0.768 -6.325,-4.41 -8.817,-7.28 -2.59,-2.78 -7.38,-5.56 -7.38,-5.656 3.546,-0.96 9.296,4.41 12.745,7.28 m 3.26,24.34 -0.38,1.15 c -0.48,1.53 -2.3,2.3 -4.12,1.73 0,0 1.15,-0.29 1.536,-1.44 -0.385,0 -0.67,0 -1.056,-0.098 -1.15,-0.38 -1.725,-1.53 -1.342,-2.49 0.093,-0.19 0,-0.38 -0.19,-0.38 -0.196,-0.096 -0.388,0 -0.388,0.19 -0.383,1.054 -1.533,1.533 -2.59,1.15 -0.38,-0.096 -0.67,-0.383 -0.86,-0.575 -0.383,1.15 0.384,2.11 0.384,2.11 -1.726,-0.577 -2.78,-2.3 -2.205,-3.83 l 0.38,-1.15 c 0.29,-0.867 0.96,-1.346 1.44,-1.63 0.48,-0.29 0.864,-0.58 1.34,-1.15 0.674,-0.77 1.15,-1.25 1.44,-2.206 0.48,-1.44 2.204,-2.206 3.93,-1.727 0.095,0 0.095,0 0.19,0.09 0.096,0 0.096,0.1 0.19,0.1 1.63,0.67 2.49,2.3 2.014,3.734 -0.29,0.96 -0.195,1.63 -0.195,2.684 0,0.766 0.192,1.246 0.384,1.725 0.19,0.383 0.384,1.245 0.096,2.01 m 23.96,-12.36 c 0,0 -0.863,6.04 -2.396,8.43 -1.436,2.4 -2.873,4.6 -6.514,4.315 0,0 2.107,-0.574 1.436,-2.3 -0.095,-0.094 -0.095,-0.286 -0.095,-0.382 0,0 -0.572,0.193 -0.86,0.193 -2.202,0.287 -6.9,-0.48 -9.1,-2.01 h -0.096 c 0,0 -0.573,0.67 0.19,2.78 -0.19,-0.097 -2.97,-1.055 -4.02,-3.354 -1.054,-2.3 0,-8.624 -3.737,-9.87 -3.733,-1.245 -6.704,4.408 -9.004,5.653 -2.204,1.243 -5.174,0.285 -5.174,0.285 1.82,-1.246 1.82,-2.11 1.82,-2.11 h -0.098 c -2.685,-0.094 -6.9,-2.394 -8.435,-3.93 -0.19,-0.19 -0.574,-0.67 -0.574,-0.67 -0.098,0 -0.098,0.1 -0.19,0.1 -0.1,0 -0.1,0.097 -0.195,0.097 -1.534,0.863 -0.29,2.587 -0.193,2.683 -3.064,-2.01 -2.87,-4.6 -2.585,-7.376 0.285,-2.78 3.16,-8.146 3.16,-8.146 0.19,0.09 2.78,1.24 5.08,3.35 l 0.67,0.67 c 2.49,2.683 4.887,5.174 7.186,5.94 0.765,0.29 1.532,0.29 2.3,0.29 h 0.573 c 1.15,-0.096 2.11,-0.48 2.11,-0.48 0.77,1.725 6.9,3.74 8.626,2.875 l 0.095,0.097 c 0.1,0.19 0.58,0.864 1.346,1.63 l 0.383,0.388 c 0.575,0.48 1.246,0.86 2.012,1.15 2.3,0.766 5.655,0.19 9.296,-0.48 0.288,-0.096 0.67,-0.096 0.958,-0.096 3.164,-0.38 6.04,0.29 6.04,0.29"
       id="path95"
       inkscape:connector-curvature="0"
       style="fill:#ffffff" />
  </g>
</svg>
