<?xml version="1.0" encoding="UTF-8" standalone="no"?>
<svg
   xmlns:dc="http://purl.org/dc/elements/1.1/"
   xmlns:cc="http://creativecommons.org/ns#"
   xmlns:rdf="http://www.w3.org/1999/02/22-rdf-syntax-ns#"
   xmlns:svg="http://www.w3.org/2000/svg"
   xmlns="http://www.w3.org/2000/svg"
   xmlns:sodipodi="http://sodipodi.sourceforge.net/DTD/sodipodi-0.dtd"
   xmlns:inkscape="http://www.inkscape.org/namespaces/inkscape"
   width="512"
   height="512"
   viewBox="0 0 512 512"
   version="1.1"
   id="svg100"
   sodipodi:docname="washington-redskins.svg"
   inkscape:version="0.92.5 (2060ec1f9f, 2020-04-08)">
  <metadata
     id="metadata106">
    <rdf:RDF>
      <cc:Work
         rdf:about="">
        <dc:format>image/svg+xml</dc:format>
        <dc:type
           rdf:resource="http://purl.org/dc/dcmitype/StillImage" />
      </cc:Work>
    </rdf:RDF>
  </metadata>
  <defs
     id="defs104" />
  <sodipodi:namedview
     pagecolor="#ffffff"
     bordercolor="#666666"
     borderopacity="1"
     objecttolerance="10"
     gridtolerance="10"
     guidetolerance="10"
     inkscape:pageopacity="0"
     inkscape:pageshadow="2"
     inkscape:window-width="640"
     inkscape:window-height="480"
     id="namedview102"
     showgrid="false"
     inkscape:zoom="0.4609375"
     inkscape:cx="256"
     inkscape:cy="256"
     inkscape:window-x="0"
     inkscape:window-y="0"
     inkscape:window-maximized="0"
     inkscape:current-layer="svg100" />
  <title
     id="title2">washington-redskins</title>
  <g
     id="g98"
     transform="translate(-18,12)"
     style="fill:none">
    <path
       d="m 193.096,338.65 c -1.136,0.344 -3.467,-0.235 -3.467,-0.235 0.78,5.67 1.64,7.61 1.64,7.61 l -1.36,1.53 1.63,1.16 c -1.76,11.223 3.41,18.947 5.8,26.47 -1.89,0.58 -4.04,0.48 -5.66,-0.33 0.64,6.37 0.05,18.627 -5.53,23.95 -1.06,-0.63 -1.84,-0.808 -2.25,-1.39 -0.83,1.79 -1.47,2.49 -3.156,7.06 -0.94,3.06 -1.76,7.346 -2.2,11.97 -4.59,-2.174 -9.596,-4.452 -14.11,-11.467 -1.003,-1.663 -1.71,-3 -4.16,-5.222 -0.567,1.05 -0.66,1.36 -1.794,2.338 -1.197,1.04 -4.3,2.312 -4.323,2.21 -0.63,-2.825 -1.38,-5.44 -3.2,-8.62 -1.74,-3.525 -7.72,-8.214 -12.608,-19.666 -2.007,-4.394 -3.01,-8.312 -3.845,-12.833 -0.374,0.168 -0.633,0.28 -0.88,0.335 -1.816,0.47 -3.12,0.35 -3.747,-0.914 -1.536,3.814 -3.45,5.947 -5.08,6.98 -0.748,2.2 -0.63,2.782 -2.26,4.573 -1.493,2.07 -2.003,2.6 -3.046,6.53 -1.69,3.99 -4.22,5.96 -4.6,6.99 -0.63,-1.27 -0.878,-1.03 -1.505,-1.97 -6.145,7.52 -6.9,9.48 -20.82,12.15 3.51,-6.374 5.893,-17.01 5.644,-19.205 -1.76,-14.93 -3.39,-18.05 -4.273,-29.62 -0.52,-5.786 -1.997,-20.014 -0.615,-38.977 1.5,-22.9 8.524,-42.69 14.55,-57.618 7.777,-20.817 25.58,-54.364 38.576,-74.86 l 0.054,-18.602 h 5.02 l 5.27,-11.103 2.378,1.623 9.03,-22.216 6.396,16.773 10.94,-6.365 c 4.37,-3.695 35.475,-45.11 101.34,-45.024 63.836,-0.083 129.566,45.96 129.566,119.53 0,66.857 -59.214,118.45 -127.547,118.45 -52.957,0 -87.06,-24.87 -105.15,-47.66 1.152,11.455 -1.257,34.247 9.35,55.646"
       id="path4"
       inkscape:connector-curvature="0"
       style="fill:#ffffff" />
    <path
       d="m 193.054,338.65 -1.022,0.11 -1.14,-0.097 -0.925,-0.163 -0.38,-0.08 0.585,3.58 0.526,2.354 0.38,1.283 0.147,0.393 -1.358,1.532 1.627,1.16 -0.172,7.812 1.52,6.81 2.293,6.117 2.162,5.74 -2.928,0.36 -2.73,-0.683 0.19,5.68 -0.63,6.686 -1.79,6.494 -3.3,5.09 -1.37,-0.71 -0.88,-0.68 -0.61,1.215 -0.644,1.27 -0.81,1.79 -1.085,2.78 -1.29,5.394 -0.906,6.573 -3.506,-1.725 -3.576,-2.2 -3.564,-3.1 -3.46,-4.445 -0.73,-1.2 -0.806,-1.2 -1.075,-1.3 -1.54,-1.52 -0.69,1.197 -1.108,1.14 -1.18,0.8 -1.43,0.735 -1.206,0.52 -0.517,0.155 -1.152,-4.18 -2.04,-4.44 -2.02,-2.952 -3.105,-3.91 -3.698,-5.39 -3.786,-7.41 -2.36,-6.372 -1.48,-6.463 -0.88,0.333 -2.32,0.194 -1.427,-1.11 -2.51,4.538 -2.576,2.45 -0.44,1.393 -0.36,1.047 -0.52,0.976 -0.938,1.16 -0.964,1.344 -0.73,1.224 -0.647,1.577 -0.707,2.39 -1.38,2.63 -1.41,1.98 -1.17,1.42 -0.64,0.967 -0.752,-1.11 -0.75,-0.852 -2.09,2.57 -1.793,2.123 -1.73,1.75 -1.875,1.45 -2.24,1.226 -2.82,1.07 -3.62,0.985 -4.637,0.983 2.39,-5.38 1.833,-5.79 1.12,-5.005 0.285,-3.03 -1.29,-9.304 -1.18,-6.77 -1.02,-6.14 -0.79,-7.41 -0.513,-5.865 -0.51,-8.68 -0.154,-11.15 0.56,-13.274 2.06,-16.57 3.515,-15.233 4.36,-13.736 4.61,-12.076 3.35,-8.35 4.126,-9.245 4.71,-9.83 5.14,-10.125 5.373,-10.1 5.45,-9.79 5.346,-9.167 5.063,-8.246 0.05,-18.6 h 5.016 l 5.27,-11.108 2.373,1.63 9.03,-22.216 6.392,16.776 10.936,-6.366 1.136,-1.12 1.77,-1.884 2.42,-2.537 3.086,-3.072 3.752,-3.49 4.44,-3.79 5.14,-3.983 5.85,-4.05 6.57,-4.01 7.293,-3.854 8.054,-3.58 8.8,-3.18 9.566,-2.675 10.346,-2.05 11.136,-1.306 11.94,-0.444 11.97,0.516 11.917,1.575 11.757,2.6 11.51,3.604 11.156,4.57 10.704,5.52 10.16,6.43 9.506,7.32 8.76,8.19 7.91,9.02 6.966,9.837 5.92,10.613 4.786,11.37 3.535,12.096 2.193,12.79 0.753,13.47 -0.685,12.35 -1.997,11.935 -3.21,11.461 -4.405,10.956 -5.497,10.382 -6.518,9.76 -7.467,9.09 -8.336,8.355 -9.136,7.566 -9.86,6.73 -10.52,5.844 -11.1,4.9 -11.61,3.9 -12.04,2.858 -12.4,1.754 -12.69,0.6 -18.973,-1.117 -17.24,-3.13 -15.54,-4.83 -13.875,-6.214 -12.24,-7.28 -10.64,-8.036 -9.065,-8.474 -7.537,-8.59 0.297,4.8 0.16,5.712 0.216,6.48 0.464,7.095 0.908,7.56 1.54,7.878 2.37,8.05 3.408,8.07"
       id="path6"
       inkscape:connector-curvature="0"
       style="stroke:#ffffff;stroke-width:2.58400011" />
    <path
       d="m 287.03,325.127 c 67.956,0 123.046,-50.8 123.046,-113.475 0,-62.673 -55.09,-113.48 -123.045,-113.48 -67.955,0 -123.031,50.805 -123.031,113.48 0,62.676 55.084,113.475 123.04,113.475"
       id="path8"
       inkscape:connector-curvature="0"
       style="fill:#ffb612" />
    <path
       d="m 287.03,309.29 c 58.462,0 105.868,-43.713 105.868,-97.638 0,-53.925 -47.406,-97.636 -105.867,-97.636 -58.46,0 -105.86,43.715 -105.86,97.636 0,53.925 47.4,97.638 105.86,97.638"
       id="path10"
       inkscape:connector-curvature="0"
       style="fill:#ffffff" />
    <path
       d="m 220.382,202.398 c 0,0 -8.65,19.323 -8.277,34.59 0,0 2.692,-5.718 3.643,-4.74 0,0 -7.778,24.06 -1.885,37.83 0,0 1.255,-3.82 3.384,-6.138 0,0 3.26,-4.742 4.525,-8.56 0,0 0.62,1.62 0.99,4.512 0,0 2.89,-3.353 3.51,-5.67 0.488,-1.81 1.758,-3.81 2.638,-6.13 l 0.998,0.47 c 0,0 5.9,-6.598 8.154,-12.618 0,0 1.754,-0.224 0.882,4.518 0,0 4.89,-4.397 5.017,-11.225 l 1,1.048 c 4.14,4.742 4.14,12.03 4.02,16.54 -1,14.457 -9.04,22.207 -19.07,30.652 l 0.89,0.695 c 14.92,-2.54 24.75,-4.03 39.89,0 5.76,1.54 19.69,7.405 26.46,11.342 0,0 15.05,6.012 25.59,6.012 0,0 0.503,0.227 0.503,-0.29 0,0 -1.13,-3.584 -0.126,-17.062 0,0 1.13,-6.24 2.01,-10.525 0,0 1.13,-2.89 1.258,-8.79 0.015,-0.49 -0.51,-4.06 2.13,-3.71 5.71,0.74 8.904,-0.46 13.297,-1.16 0,0 4.65,-1.27 6.537,-1.39 0,0 4.4,0.65 5.76,0.23 1.5,-0.46 3.13,-1.63 5.143,-3.36 0,0 2.25,-2.2 0.75,-7.177 0,0 -1.5,-4.515 -0.63,-5.903 0,0 1.33,-3.066 3.264,-4.863 0,0 1.38,-2.07 -0.5,-3.11 0,0 -1,-1.047 0.686,-1.45 0,0 1.26,0.112 2.067,-0.29 0,0 0.438,-0.17 0.504,-1.038 0.08,-0.937 0.51,-5.44 -2.752,-9.38 0,0 0.94,0.235 1.633,0.47 0,0 4.01,0.34 6.088,-0.585 1.82,-0.928 4.45,-2.08 4.08,-7.64 -1.023,-4.62 -3.02,-7.404 -5.03,-12.606 -2.38,-5.55 -2.75,-8.33 -7.763,-12.137 -3.013,-1.275 -4.395,-3.355 -2.14,-5.44 1.756,-2.436 1.127,-6.823 -1.995,-9.834 -3.015,-2.78 -5.27,-7.06 -6.41,-9.26 -1.5,-2.31 -3.133,-4.86 -4.63,-6.364 -1.52,-1.733 -3.766,-2.77 -7.77,-7.17 0,0 -2.4,-1.964 -2.77,-4.04 -3.39,-4.86 -12.8,-11.69 -23.584,-12.38 -3.14,-0.35 -3.14,-0.35 -5.4,-0.585 -3.75,-1.27 -15.54,-1.62 -23.57,0.467 -2.593,0.51 -7.776,1.387 -7.776,1.387 -2.754,0.81 -6.64,1.51 -10.906,3.934 -3.137,1.5 -7.77,5.09 -11.29,7.4 -3.77,3.476 -12.17,8.57 -16.81,11.46 -9.03,6.124 -16.81,14.23 -21.322,19.32 0,0 -11.404,13.182 -17.05,35.973 -0.375,3.47 -1.373,6.824 -0.76,10.64 0,0 5.03,-10.06 9.67,-13.192 0,0 -0.64,1.86 -1.01,4.86 0,0 2.38,-4.043 3.377,-4.74 0,0 1.756,-1.735 4.27,-4.505 0,0 5.273,-6.365 6.772,-7.06 -1.94,3.356 -2.38,5.553 -2.57,9.02 0.818,-0.69 1.32,-1.217 1.57,-1.62 0,0 0.49,-0.926 1,-0.697 0.258,0.6 -0.125,1.053 -0.125,1.053 h -0.002"
       id="path12"
       inkscape:connector-curvature="0"
       style="fill:#000000" />
    <path
       d="m 370.877,204.482 c -1.132,-1.735 -1.88,-3.7 -2.76,-6.126 -0.373,-0.987 -1.125,-3.01 -1.998,-4.74 -0.06,-0.7 -1.64,-3.934 -2.64,-5.212 -2.52,-3.353 -4.58,-3.644 -5.96,-5.033 l -0.52,-0.01 c -1.46,0.9 -1.48,2.88 -2.73,4.38 -0.13,0.17 -0.55,0.37 -0.83,0.25 -0.4,-0.18 -0.56,-0.5 -1.01,-1.09 -0.41,-0.56 -0.74,-0.16 -1.19,0.31 -0.29,0 -0.5,0.21 -0.73,0.42 -0.39,0.38 -0.09,0.576 0.22,0.998 0.31,0.437 0,0.437 0.2,0.66 -0.06,0.18 -0.118,0.25 -0.18,0.33 -0.165,0.23 -0.57,0.175 -0.864,0.125 -0.83,-0.125 -0.64,-0.07 -1.38,-0.396 -0.916,-0.4 -1.35,-1.5 -2.056,-1.84 -0.207,-0.114 -0.922,-0.235 -1.467,0.098 -0.404,0.25 -0.58,0.8 -0.24,1.09 0.59,0.5 1.052,1.08 1.68,1.52 0.856,0.59 1.79,1.026 1.903,1.85 0.15,1.055 -1.535,1.437 -2.33,0.88 -0.41,-0.283 -0.898,-0.604 -1.34,-1.036 -0.07,-0.06 -0.14,-0.414 -0.236,-0.478 -0.353,-0.25 -0.77,-0.547 -0.97,-0.807 -0.354,-0.497 -0.825,-1.02 -1.47,-1.25 -0.15,-0.053 -0.27,-0.25 -0.384,-0.426 -0.295,-0.475 0.023,-1.03 -0.19,-1.47 -0.18,-0.36 -0.264,-0.948 -0.815,-0.72 -0.51,0.465 -0.44,0.465 -1.02,0.42 -0.73,-0.06 -0.15,-1.31 -0.15,-1.14 0.01,0.07 -0.03,-0.027 0.22,-0.438 -0.5,-0.15 -1.257,-0.52 -0.68,-1.207 0.496,-0.58 0.982,0.27 1.17,-0.08 0.066,-0.132 0.494,-0.86 0.655,-0.96 0.562,-0.303 0.725,0.11 0.804,0.22 -0.24,0.63 0.477,1.05 1.17,0.71 l 0.114,-0.64 c 0.64,-1.03 1.63,-1.57 2.64,-2.275 l 0.41,-0.194 c 0.305,-0.56 0.654,-1.366 0.012,-1.62 -0.537,-0.21 -1.64,-0.02 -1.41,-0.895 0.104,-0.41 0.684,-0.57 1.013,-0.703 1.19,-0.515 2.424,-1.026 3.663,-1.473 0.297,-0.11 0.806,-0.53 1.18,-0.557 1.566,-0.117 1.2,-0.084 3.11,0.224 0.34,0.055 0.99,0.385 1.325,0.49 1.013,0.33 2.462,0.224 3.13,-0.79 0.663,-0.99 0.476,-2.67 -0.198,-3.83 -0.795,-1.412 -2.016,-2.63 -3.07,-3.6 -1.347,-1.242 -3.097,-1.88 -3.445,-3.59 -0.43,-2.09 -2.19,-4.86 -3.185,-6.52 -1.05,-1.71 -1.97,-2.85 -3.294,-4.433 -0.31,-0.367 -2.248,-2.187 -2.58,-2.487 -2.21,-1.988 -3.16,-2.647 -5.517,-3.43 -1.21,-0.398 -5.91,-0.14 -8.36,-0.43 -0.77,-0.094 -3.13,-0.146 -3.777,-1.3 -0.58,-1.05 -1.31,-2.55 -2.53,-3.26 -0.44,-0.25 -1.11,-0.518 -1.57,-0.736 -2.206,-1.023 -4.486,-2.735 -6.87,-2.65 -0.877,0.03 -0.037,0.905 0.19,1 1.08,0.527 1.568,1.114 2.16,1.748 0.616,0.668 1.957,0.693 3.108,1.13 1.096,0.417 2.004,1.064 3.024,1.56 0.964,0.467 2.256,2.01 1.19,2.643 -0.967,0.57 -1.986,-0.122 -3.266,0.176 -0.26,0.066 -0.646,0.22 -2.13,0.22 -1.978,0.25 -2.665,-0.624 -4.187,-1.62 -1.52,-1.005 -2.48,-2.54 -3.945,-3.496 -1.8,-1.174 -3.625,-2.15 -5.688,-2.818 -0.457,-0.15 -1.057,0.086 -1.46,-0.11 -0.71,-0.368 -1.256,-1.154 -2.15,-1.22 -1.53,-0.097 -1.53,-0.213 -3.05,0 -0.215,0.042 -0.776,0.63 -0.96,0.627 -0.9,-0.035 -1.946,-0.264 -2.4,0.193 -0.696,0.73 0.16,0.65 1.052,1.05 0.5,0.21 1.56,0.74 2.16,0.728 2.54,-0.043 4.164,-0.06 6.152,0.93 0.212,0.115 1.103,0.923 1.153,1.226 -1.884,-0.03 -4.863,-0.72 -7.044,-0.55 3.667,-0.27 -3.74,0.094 -5.356,0.04 -0.485,-0.017 -0.485,0.9 0.27,1.405 0.2,0.13 1.32,-0.06 1.47,0.27 0.66,-0.32 2.54,-0.166 3.08,0.027 0.946,0.31 0.41,0.178 1.24,0.577 0.5,0.25 0.982,0.58 1.572,0.52 0.764,-0.08 0.81,-1.13 1.58,-0.79 0.265,0.113 0.853,0.45 0.98,0.44 4.35,-0.08 4.45,1.18 6.48,1.15 0.522,0 1.302,-0.194 1.673,0.04 0.814,0.525 1.58,0.59 2.835,0.122 0,0 2.895,7.17 2.14,20.243 -0.75,5.553 -1.127,6.6 -2.51,11.11 0,0 -2,7.168 -1.26,12.14 0.765,16.776 -4.766,30.66 -10.775,39.914 -2.26,2.543 -3.52,3.93 -1.255,5.773 4.77,4.054 8.66,4.978 15.42,6.372 2.397,0.69 3.895,0.92 6.146,0.92 3.51,0 9.045,1.384 11.546,3.125 2.378,1.16 8.78,3.36 12.665,2.78 3.385,0.232 4.394,0.464 6.035,1.042 1.12,0.457 2.26,0.457 3.513,0.115 l 1.937,-1.33 c 0.25,-0.57 2.07,-1.325 1.696,-3.645 -0.125,-1.73 -0.88,-3.53 -1.244,-5.14 -1.083,-1.43 -1.014,-2.49 -0.64,-3.99 1.13,-2.09 2.45,-3.127 3.146,-4.168 1.498,-1.564 0.63,-2.655 -1.448,-3.186 -1,-0.4 -2.94,-0.23 -4.953,-0.4 -1.065,0 -1.945,-0.403 -3.447,-0.12 0,0 -1.016,0.64 -1.567,1.11 l -0.767,-0.41 c 0,0 0.7,-1.85 2.126,-2.95 1.446,0.23 3.558,0.385 4.65,0.12 1.3,-0.546 2.794,-0.77 3.888,-1.165 1.89,-0.17 2.766,-0.056 5.02,0.064 0,0 1.13,-4.51 -2.82,-7.927 -0.94,-0.8 -1.707,-1.85 -3.065,-1.906 -4.79,0.52 -7.41,-1.27 -8.17,-1.74 -1.18,-0.06 -1.55,0.41 -2.19,1.106 -1.64,2.534 -3.575,3.404 -3.575,3.404 l -1.01,-0.114 c 0,0 0.88,-1.383 2.877,-3.7 0.896,-1.854 2.14,-4.162 3.266,-5.323 0.684,-1.098 0.88,-3.584 2.57,-4.277 0.82,0 0.952,-0.175 1.56,0.176 -1.24,1.096 -4.756,5.03 -1.112,7.456 1.498,1.16 3.764,1.16 4.317,-0.056 0.274,-0.666 0.88,-1.096 1.193,-1.332 1.883,-0.345 3.454,0.523 4.073,0.99 1.504,1.62 2.385,2.37 3.13,2.713 0.822,0.586 2.334,0.465 3.08,0.465 2.445,-0.39 3.76,-1.672 4.2,-2.48 1.31,-2.545 1.063,-5.034 -0.818,-8.04 z"
       id="path14"
       inkscape:connector-curvature="0"
       style="fill:#5b2b2f" />
    <path
       d="m 345.474,185.383 c 0.758,0.353 1.066,0.244 2.605,0.445 0,0 1.34,0.2 2.56,-0.782 0.19,-0.16 1.22,-0.634 1.18,-1.015 -0.13,-1.76 0.16,1.15 -0.22,-1.5 -0.09,-0.56 -0.06,-1.07 -0.3,-1.67 -0.12,-0.31 -0.65,-0.84 -1.43,-0.6 -0.146,0.06 -1.387,0.99 -1.41,1.03 -0.684,1.22 -1.75,1.36 -2.227,2.18 l -0.885,1.34 c -0.084,0.21 -0.198,0.43 0.104,0.58"
       id="path16"
       inkscape:connector-curvature="0"
       style="fill:#5b2b2f" />
    <path
       d="m 357.017,202.808 c 2.152,-0.65 3.196,0.274 5.57,1.77 0.416,0.26 0.76,0.936 0.158,1.306 -0.196,0.124 -0.646,0.102 -0.782,-0.018 -2.085,-1.84 -2.758,-1.855 -5.036,-2.23 -0.113,-0.008 -0.468,-0.66 0.09,-0.827 v -0.01"
       id="path18"
       inkscape:connector-curvature="0"
       style="fill:#0c130f" />
    <path
       d="m 344.22,223.15 c -0.327,0.905 -0.654,1.71 -1.073,2.573 -0.428,0.9 -0.225,2.01 -0.89,2.818 -0.29,0.36 -1.095,0.22 -1.216,-0.2 -0.42,-1.58 -0.21,-3.24 0.61,-4.69 0.44,-0.74 1.52,-1.12 2.46,-0.83 l 0.13,0.47 v -0.124"
       id="path20"
       inkscape:connector-curvature="0"
       style="fill:#0c130f" />
    <path
       d="m 322.65,212.513 c -0.713,-0.217 -1.098,-0.83 -1,-1.503 0.242,0.062 0.04,-0.256 0.252,-0.237 1.496,0.086 2.895,0.643 4.392,0.675 1.705,0.03 3.416,-0.265 4.976,-0.946 1.936,-0.853 3.61,-1.763 5.47,-2.905 0.83,-0.508 2.025,-0.81 3.055,-1.014 1.626,-0.34 1.52,-1.183 2.73,-1.846 1.772,-0.95 1.64,-1.654 2.63,-1.29 0.28,0.103 -0.288,0.68 -0.59,0.94 -0.67,0.55 -1.55,1.103 -2.154,2.083 -0.13,0.197 -1.06,1.114 -1.24,1.25 -2.03,1.384 -2.48,2.59 -4,4.29 -0.85,0.97 -1.13,2.234 -1.7,3.356 -0.34,0.663 -0.55,1.35 -0.99,1.96 -0.18,0.252 -0.86,0.128 -1.1,0.344 -1.25,1.106 -2.45,2.168 -3.37,3.61 -0.15,0.235 -0.68,0.225 -0.75,0.098 -0.8,-1.423 -1.92,-2.497 -3.83,-2.55 -0.34,-0.01 -0.7,-0.715 -0.68,-1.338 0.01,-0.138 -0.15,-0.396 -0.33,-0.433 -0.296,-0.045 -0.43,-0.3 -0.74,-0.315 -0.325,-0.016 -0.583,-0.48 -0.64,-0.675 -0.387,-1.123 -0.246,-2.372 -0.496,-3.552 h 0.13 v -0.003"
       id="path22"
       inkscape:connector-curvature="0"
       style="fill:#000000" />
    <path
       d="m 294.85,244.62 c -0.317,-1.157 -2.34,-1.054 -3.788,-0.92 -2.202,0.22 -4.208,0.567 -6.343,1.603 1.4,-1.96 3.13,-2.08 6.42,-3.245 0.74,-0.264 0.56,-1.477 0.08,-2.185 -0.55,-0.813 -1.27,-0.855 -1.55,-0.905 -2.71,-0.486 -3.58,0.09 -5.02,0.432 -4.97,1.18 -9.85,4.64 -12.58,7.953 -0.79,0.968 -0.53,1.987 -0.367,2.2 0.51,0.627 1.296,2.376 1.51,2.164 2.015,-2.01 4.46,-3.862 7.097,-3.28 -1.126,0.335 -5.082,2.185 -6.34,4.863 -0.076,0.17 0.51,1.146 1.257,1.665 1.01,1.562 1.38,2.195 1.95,2.486 0.35,-0.03 1.09,-0.7 1.294,-0.99 2.77,-3.4 5.536,-5.48 13.185,-6.4 2.196,-0.34 3.45,-0.92 3.64,-2.77 0,0 0.435,-0.92 -0.44,-2.772"
       id="path24"
       inkscape:connector-curvature="0"
       style="fill:#ffffff" />
    <path
       d="m 285.713,255.367 c 0.13,1.74 -0.144,2.52 0.38,3.653 0.52,1.07 1.586,1.996 1.986,3.104 0.31,0.842 1.39,1.917 1.39,2.502 0.51,0.455 0.57,0.867 0.57,0.867 0.66,0.81 2.65,1.782 1.95,2.253 -0.83,0.586 -3.27,0.174 -4.74,-0.053 -1.9,-0.287 -0.8,1.3 -0.4,1.46 1.92,0.732 5.96,0.98 7.28,1.652 0.8,0.406 1.85,1.022 2.18,1.747 0.25,0.543 0.7,1.014 1.095,1.484 1.27,1.577 1.725,2.26 3.04,3.255 0.654,0.5 1.41,1.35 1.18,2.11 -0.274,0.89 -0.886,1.08 -1.805,0.96 -0.29,-0.04 -1.21,-0.29 -2.087,-0.64 -1.753,-0.5 -2.127,-1.1 -3.387,-0.5 -0.673,0.32 0.32,1.387 1.088,1.77 3.15,1.54 6.95,1.58 10.01,3.21 2.613,1.4 4.207,3.11 4.066,6.72 0,0.066 0.943,0.54 1,0.463 0.897,-1.296 3.16,0.313 4.26,0 0.105,-0.032 0.13,-0.577 -0.02,-0.8 l -2.12,-1.47 c -0.508,-0.746 0.22,-1.55 -0.03,-2.206 -0.26,-0.66 -1.48,0.49 -1.936,0.05 -2.01,-1.92 -3.32,-4.204 -6.023,-5.316 1.13,-2.884 1.627,-6.123 1.37,-7.63 -0.742,-0.574 -1.054,0.35 -1.24,0.465 -0.62,0.548 -0.375,1.738 -1.096,2.64 -0.126,0.15 -1.097,-0.03 -1.37,-0.25 -1.846,-1.45 -3.57,-3.18 -4.433,-5.24 -0.03,-0.073 -0.4,-0.5 -0.48,-0.6 -1.35,-1.75 -1.27,-4.2 0.3,-5.96 0.17,-0.19 0.43,-1.27 0.27,-1.392 -0.285,-0.202 -0.914,0.21 -1.17,0.45 -0.86,0.81 -1.6,2.43 -3.047,2.287 -1.64,-0.16 -2.262,-1.69 -3.263,-2.688 -0.32,-0.984 -0.91,-1.61 -0.76,-1.74 -1.38,-1.85 -1.5,-3.356 -2.78,-5.664 -0.28,-0.52 -0.68,-0.77 -1.235,-0.93 h -0.005"
       id="path26"
       inkscape:connector-curvature="0"
       style="fill:#ffffff" />
    <path
       d="m 295.25,286.605 c 1.638,0.77 -0.247,-0.987 -0.247,-0.987 -0.63,-0.403 -2.102,-2.504 -2.39,-3 -0.703,-1.127 -1.208,-1.997 -1.63,-2.893 -0.616,-1.394 -1.843,-2.378 -3.866,-4.18 -1.013,-0.904 -2.58,-2.503 -3.217,-3.67 -0.99,-1.812 -1.555,-5.06 -3.937,-6.58 -1.836,-1.18 -1.396,-2.52 -2.978,-4.804 -0.61,-0.86 -1.85,-0.97 -2.764,-1.83 -2.29,-2.13 -0.84,-2.95 -2.84,-4.91 -0.89,-0.85 -1.27,-1.03 -2.03,-2.34 -1,-1.68 -0.24,-3.89 -1.94,-4.66 -1.5,-0.69 -2.67,-0.94 -3.68,-1.25 -1.58,-0.48 -4.1,-1.67 -5.52,-2.69 -1.49,-1.07 -4.56,-3.43 -7.83,-6.05 2.003,14.23 -0.765,26.38 -16.06,39.1 28.346,-4.86 40.758,1.27 60.95,10.76"
       id="path28"
       inkscape:connector-curvature="0"
       style="fill:#5b2b2f" />
    <path
       d="m 305.96,268.446 c 0.086,1.164 0.52,0.954 1.22,2.552 0.35,0.802 1.333,2.206 1.846,2.604 2.903,2.246 4.907,5.713 4.704,9.287 0.14,1.74 0.24,1.63 2.09,2.84 0.316,0.21 0.505,0.23 1.495,1.09 l 3.457,3.24 c -0.066,-1.05 0.113,-2.81 0.087,-3.36 -0.17,-5.46 0.97,-11.1 -1.04,-15.87 -1.5,-3.57 -4.89,-7.596 -6.22,-11.33 l -0.67,-2.04 c -0.7,-2.9 -0.77,-5.927 -0.77,-5.927 l -4.2,-1.846 c -3.303,-1.22 -7.02,-2.336 -10.346,-3.47 0,1.62 0.242,2.77 -1.067,4.394 0.88,1.97 1.62,6.31 2.626,7.353 2.193,1.9 3.95,3.403 5.396,7.975 0.325,1.09 1.31,1.68 1.37,2.49"
       id="path30"
       inkscape:connector-curvature="0"
       style="fill:#5b2b2f" />
    <path
       d="m 254.997,145.254 c 0,0 -2.502,-0.227 -8.404,3.933 -6.513,3.7 -15.168,9.024 -21.448,16.08 -4.57,4.218 -11.034,10.64 -13.414,15.155 0,0 -3.89,5.668 -6.4,14.92 0,0 0.89,3.01 3.39,-0.925 4.38,-6.876 21.07,-30.025 44.9,-46.905 l 1.14,-0.06 c -11.8,9.363 -27.09,21.98 -41.96,43.44 -0.55,0.796 -1.27,2.213 -1.33,2.32 -0.663,1.147 1.04,1.324 0.17,1.13 1.36,0.305 1.86,-1.433 2.73,-1.778 0.538,-0.217 0.77,1.268 1.62,0.887 3.04,-1.35 5.288,-4.24 6.53,-5.98 0.07,0.5 0.77,1.97 0.77,1.97 1.37,0.35 5.645,-5.08 7.897,-8.79 0.634,0.69 -0.15,2.39 0.68,1.66 2.577,-2.24 4.878,-4.65 6.247,-6.84 1.6,-2.56 3.36,-3.72 3.99,-8.23 1,0.58 0.98,0.83 1.253,1.04 0.63,-0.69 0.67,-1.42 1.67,-2.45 1.08,-1.13 1.3,-2.01 2.622,-2.804 0.47,-0.29 1.51,-2.1 1.72,-3.04 0.198,-0.9 2.355,-3.805 2.51,-4.77 1.75,-3.01 4.77,-4.627 6.896,-6.94 2.01,-1.612 0.5,-4.507 -3.76,-3.003"
       id="path32"
       inkscape:connector-curvature="0"
       style="fill:#ffffff" />
    <path
       d="m 232.924,235.597 c 0.88,0.927 1.625,-0.29 1.625,-0.29 1.45,-2.022 1.76,-2.546 2.76,-5.262 0.63,-1.794 1.38,-2.43 2,-9.943 1.76,2.426 2,7.05 2,7.05 l 0.503,-0.113 c 0,0 1.633,-4.29 4.39,-5.67 0,0 0.25,-2.89 3.005,-5.78 -0.37,-1.74 -0.63,-3.13 -0.995,-5.91 -1.13,-4.63 -1.76,-12.38 -0.63,-17.7 2.25,11.1 3.575,12.72 3.575,12.72 l 0.5,0.17 c 0.945,-1.33 1.2,-3.64 1.46,-5.725 1.11,-4.395 3.122,-3.93 3.122,-4.86 -0.63,-3.585 -1.626,-9.253 -1.005,-14.114 1.26,5.32 1.882,4.978 2.75,6.95 1.13,2.42 1.257,-0.59 1.257,-0.59 -0.246,-3.12 2.14,-6.245 -0.128,-13.534 -0.875,-4.97 -3.386,-15.616 -2.38,-18.05 0.63,-3 -0.504,-1.965 -0.504,-1.965 0,0 -3.267,0.7 -8.15,13.428 -7.146,21.17 -13.295,43.723 -19.946,62.003 2,-9.602 12.66,-43.496 15.805,-55.752 0,0 -0.44,-0.872 -1.125,0.11 -0.824,0.87 -1.635,1.965 -2.077,2.716 0.06,-0.044 -0.378,0.063 -0.87,0.3 l -1.58,2.193 c 0,0 -3.127,4.043 -11.72,12.26 -1.45,2.09 -2.07,3.043 -3.64,6.363 -0.567,1.217 0.31,1.39 1.253,0.7 2.31,-2.083 2.44,-2.083 5.64,-4.342 0.14,-0.1 2.72,-0.956 2.72,-0.997 -0.41,0.475 -0.955,0.79 -1.15,0.975 -0.89,0.773 -3.06,3.025 -3.65,3.982 -1.467,2.322 -3.05,5.21 -5.15,8.714 -2.63,4.387 -4.63,9.475 -4.63,9.475 -1.38,3.587 -1.004,3.933 -1.004,3.933 1.877,0.694 0.854,1.57 0.854,1.57 -0.853,1.44 -1.232,2.59 0.216,2.074 0.943,-0.176 1.443,-0.616 1.83,-1.064 0.743,-0.843 1.365,-1.424 1.88,-2.008 0.84,-0.97 0.676,-1.264 1.584,-2.217 1.17,-1.25 1.91,-2.29 3.11,-2.8 -2.08,2.6 -2.2,4.45 -2.2,4.45 l 0.508,0.572 0.363,0.235 c 0,0 -2.122,2.425 -3.12,7.933 -0.482,2.615 -0.383,2.94 -0.82,4.392 0.21,-0.184 1.45,0 2.55,-1.033 -0.473,1.61 -0.57,2.42 -0.57,2.42 -0.21,1.32 -0.21,1.092 -0.21,2.6 0,1.39 0,0.8 0.5,2.422 2.25,-0.926 2.75,-0.81 4.88,-3.12 1.006,-0.87 1.78,-2.983 2.085,-2.84 0.56,0.238 0.086,1.414 -0.17,1.93 -0.34,0.73 -0.644,1.27 -0.77,1.795 -0.07,0.27 -0.354,0.66 0.1,1.025 0.2,0.164 0.06,0.14 0.707,0.124 0.38,-0.01 0.738,-0.55 0.738,-0.55 0,0 0.2,-0.046 0.4,-0.448 0.14,-0.34 0.43,-0.53 0.68,-0.695 0,-0.007 0.38,-0.35 0.82,-0.24"
       id="path34"
       inkscape:connector-curvature="0"
       style="fill:#ffffff" />
    <path
       d="m 174.86,164.343 h -2.632 l 8.655,-18.164 -10.663,7.69 -2.45,-11.51 -5.574,15.68 -2.7,-1.91 -4.07,8.43 h -3.018 v 9.132 h 18.438 l 4.013,-9.368"
       id="path36"
       inkscape:connector-curvature="0"
       style="fill:#0c130f" />
    <path
       d="m 159.188,173.246 9.778,6.012 1.002,-2.664 -5.77,-3.463 -5.01,0.12"
       id="path38"
       inkscape:connector-curvature="0"
       style="fill:#0c130f" />
    <path
       d="m 161.95,171.975 5.262,4.974 c 0,0 -4.135,16.07 -3.385,24.87 7.657,6.82 13.3,13.42 12.42,28.22 0,0 0.5,0.34 -2.757,-0.58 1.632,1.62 2.127,2.89 3.508,5.66 0.626,4.51 1.012,8.56 0.626,12.72 0,0 0.387,10.29 0.757,13.53 1.51,0.46 0.63,4.167 0.76,9.028 0,0 -0.13,3.006 -0.64,5.322 -3.12,-2.318 -2.88,-2.197 -3.75,-1.967 0.75,2.303 1.25,2.303 2.77,4.16 0,13.77 0.5,27.996 1.5,34.245 0.5,4.51 1.38,9.71 1.76,11.336 0.75,2.08 0.75,3.923 3.01,8.325 -0.75,0 -2.85,0.06 -4.264,-1.61 2.01,3.464 2.01,2.774 3.266,3.93 l 1.75,12.03 -2,2.08 2.764,1.62 c 0,0 -0.63,5.44 0.12,10.41 0.37,2.312 1.125,4.63 2.89,7.864 -3.646,0.122 -4.27,-2.655 -4.27,-2.655 -1,-1.05 -2.76,-3.37 -3.264,-3.37 -0.25,3.367 1.755,4.64 2.63,6.605 2.56,5.65 2.896,11.107 0.63,21.625 -2.507,-2.192 -2.63,-4.166 -4.517,-5.2 -0.242,6.006 -0.494,7.86 -1.75,10.513 -2.63,4.747 -3.39,7.19 -3.51,11.817 -4.39,-3.364 -5.52,-7.987 -8.53,-10.646 -2.135,-1.964 -6.393,-5.67 -7.9,-8.1 -0.254,2.89 0,3.94 -1.257,6.71 -1.002,-3.21 -1.122,-4.16 -3.51,-6.816 -3.132,-4.055 -10.16,-13.074 -11.786,-22.676 -0.38,-1.623 -1.38,-6.364 -2.506,-12.846 -0.885,2.207 -2.38,3.938 -3.89,4.286 -0.76,0.35 -0.76,-0.575 -0.76,-0.575 0.63,-2.09 0.88,-4.4 0.63,-6.134 -0.373,-2.55 -1.127,-8.21 -2.51,-9.6 h -0.633 c 0.13,3.813 -1.503,5.55 -2.504,6.82 -0.127,-3.01 0,-5.315 -0.75,-6.82 -0.38,-1.05 -1.257,-1.966 -1.51,-0.93 -0.626,3.01 -0.877,3.59 -0.877,6.36 -0.248,4.17 -0.248,5.56 -0.758,9.03 -0.246,2.545 -1.126,5.664 -3.63,8.783 -0.5,-2.766 -2.383,-4.968 -2.383,-4.968 0,3.352 0.755,8.324 -1.5,10.99 -2.768,3.467 -3.146,5.202 -4.02,7.75 -0.38,-3.012 -1.38,-2.084 -1.877,-3.706 -2.013,7.86 -8.29,13.877 -10.543,15.26 1.507,-3.226 2.765,-6.935 3.015,-9.25 0,0 -0.38,-8.56 -1.767,-13.41 -3.43,-15.148 -5.09,-50.12 -2.5,-63.4 6.265,-47.658 33.11,-91.39 55.685,-130.718 l 6.27,-0.91 v -0.002"
       id="path40"
       inkscape:connector-curvature="0"
       style="fill:#0c130f" />
    <path
       d="m 164.58,176.714 c 0,0 -3.892,15.385 -3.135,26.147 5.272,4.17 10.913,9.84 11.165,21.52 -0.44,0.18 -0.5,0.06 -0.883,-0.23 -1.497,-1.78 -5.513,-2.37 -8.523,-6.87 0.44,2.84 9.29,14.177 9.912,16.37 0.12,7.06 1.25,17.297 0.618,19.317 l -3.01,-1.85 c 1.634,3.874 3.01,7.29 4.957,10.123 0,0 0.2,10 -0.19,8.61 h -0.5 c -1.75,-1.162 -3.51,-2.546 -4.82,-3.7 -0.82,-0.404 -0.94,-1.384 -2.45,-2.726 -2.25,-1.905 -3.51,-3.525 -4.45,-3.874 -2.39,-1.558 -4.01,-2.08 -5.39,-2.48 -0.43,0 -1.31,-0.12 -1.31,-0.12 0,0 4.52,3.53 7.4,7.52 3.456,3.816 4.896,6.07 6.08,8.375 1.32,2.324 3.205,4.63 4.708,6.596 0,3.19 -0.25,13.768 -0.062,15.56 l -0.94,-0.64 c -2.25,-1.27 -4.7,-4.11 -6.773,-7.81 -1.125,5.33 5.018,11.57 7.84,13.65 0.94,9.89 0.94,14.51 2.703,24.92 l -0.13,0.81 c -2.516,-1.61 -5.143,-4.17 -8.28,-8.32 -0.25,4.048 4.14,9.37 8.78,14.458 0.61,0.68 0.45,1.57 0.78,2.346 0.55,1.277 1.1,2.865 1.79,3.73 0.564,2.25 0.814,5.264 0.69,6.536 l -1.882,3.355 2.507,2.78 c 0.25,3.003 -0.373,3.81 0,7.165 0,0 -2.88,-0.23 -4.14,-3.245 -2.253,5.793 0.256,12.272 2.26,15.624 1.505,3.93 2.38,6.355 2.13,10.635 l -0.505,1.267 c -1.5,-2.77 -3.63,-5.08 -5.77,-6.584 l -0.87,-0.223 c 2.11,12.17 1.38,16.186 -2.63,23.95 l -0.633,-0.585 c -2.254,-4.057 -6.515,-7.18 -9.52,-10.064 -0.51,-0.116 -5.77,-6.25 -6.156,-11.228 l -0.62,0.12 c -0.25,1.738 -1.01,5.44 -0.5,6.13 l -0.507,-0.23 c -3.007,-1.276 -8.466,-11.1 -9.4,-16.766 0,0 -0.2,-1.106 -0.633,-3.36 -0.19,-2.195 -1.44,-8.907 -1.692,-9.835 -0.44,-2.485 -1.584,-5.627 -2.062,-7.283 0.065,-0.58 -0.374,-0.755 -0.69,-0.29 -0.693,0.91 -1.25,1.786 -1.633,1.21 -0.313,-0.577 -0.06,-1.5 0.19,-2.774 -0.5,0.344 -1.625,0.49 -1.755,-0.346 -1.385,-5.668 -2.13,-12.725 -2.13,-18.51 0.63,-1.5 2.38,-4.27 3.762,-7.29 l -0.127,-0.688 c -1.51,0.686 -4.02,3.004 -4.52,4.27 l -0.63,-0.804 c -0.5,-2.32 -1,-6.83 -1,-11.57 -0.25,-0.87 0.12,-1.383 0.506,-2.085 0.996,-2.192 2.134,-4.65 3.005,-7.056 0.76,-2.44 4.96,-9.946 6.22,-11.69 l -0.826,0.69 c -2.31,0.76 -8.27,7.408 -9.02,7.87 l -0.566,0.05 c 0.31,-6.65 2.32,-21.452 3.697,-30.54 1.384,-3.41 12.17,-13.82 9.656,-11.97 -4.882,1.62 -6.512,3.24 -7.523,3.7 l -1.502,0.468 c 1.5,-6.46 4.616,-29.8 7.907,-36.092 2.38,-3.82 4.768,-4.86 6.52,-9.027 l -1.26,0.576 c -0.872,0.815 -4.766,3.475 -7.143,6.485 l -0.763,0.11 c 1.13,-3.005 1.51,-6.24 3.766,-10.41 0.62,-1.74 1.63,-2.43 2.39,-3.932 1.874,-2.204 2.63,-3.013 4.387,-3.82 0.87,-0.34 2.507,-0.92 2.507,-0.92 -5.004,18.942 -6.77,34.343 -8.28,55.403 -1.505,33.55 1.547,74.147 13.806,99.256 -9.79,-29.38 -13.553,-61.304 -12.298,-93.695 1,-27.77 5.51,-49.98 15.305,-87.455 l 2.13,1.27 0.004,0.004"
       id="path42"
       inkscape:connector-curvature="0"
       style="fill:#ffffff" />
    <path
       d="m 157.934,173.822 c -3.133,3.937 -24.71,41.416 -26.84,48.245 -19.054,35.278 -30.353,70.442 -29.598,105.037 0,15.15 1.763,25.565 3.76,36.666 0.882,4.276 2.133,10.06 1.882,13.76 l 0.634,-0.345 c 0.874,-1.505 3.255,-6.242 4.015,-10.174 0.253,-1.5 1.128,0 1.128,0 0.368,1.04 1.126,1.51 1.252,2.54 0,0.93 0.493,0.82 0.75,0.12 1.378,-2.54 1.756,-4.05 1.25,-6.7 -0.5,-2.19 -0.87,-11.33 0.253,-14.69 0,-0.93 0.876,0 0.876,0 0.633,1.39 1.635,3.94 3.885,6.02 0,0 0.95,0.58 1.01,0 -0.24,-2.43 -0.49,-18.28 3.52,-20.02 1.5,0.35 1.63,1.28 2.76,2.32 1.26,-1.27 1.77,-6.71 1.39,-10.872 0.13,-6.475 -0.88,-12.96 -1.503,-17 -0.526,-1.275 0,-1.51 0.75,-1.744 0.186,-0.125 3.01,-3.353 3.01,-5.083 -2.373,1.503 -3.01,1.85 -5.27,3.245 -0.25,-4.98 -2.63,-12.843 -5.26,-18.983 2.76,2.327 4.508,4.98 5.39,7.18 1,-5.09 1.38,-8.104 1.506,-10.533 -1.375,-4.51 -4.01,-14.336 -3.76,-21.63 1.63,5.32 3.13,11.107 4.767,14.58 0.752,-2.553 1.377,-7.063 2.38,-10.88 1.374,-0.926 3.01,-1.85 3.51,-2.654 -0.504,-0.817 -2.64,0.694 -3.01,0.8 0.25,-3.586 0.873,-10.525 -1.756,-21.86 l 0.37,-0.35 c 1.13,0.467 2.51,2.547 3.01,4.75 2.26,-2.43 3.77,-14.46 4.39,-19.2 -2.38,0 -3.504,2.425 -5.14,2.19 0.25,-1.506 0.377,-0.804 1,-2.19 0.63,-1.626 2.14,-3.25 2.765,-5.443 1.38,-1.85 1.38,-4.05 1.51,-6.13 0,-1.967 -0.25,-4.857 1.5,-7.404 0.382,1.032 0.13,1.736 1,3.93 0,0 3.52,-7.056 5.4,-8.67 2.5,-10.066 8.522,-21.404 14.172,-28.81"
       id="path44"
       inkscape:connector-curvature="0"
       style="fill:#ffffff" />
    <path
       d="m 159.06,180.183 c -4.14,5.445 -7.152,14 -8.66,20.132 1.882,-0.927 2.008,-0.816 3.765,-1.388 0.63,-2.896 5.575,-19.634 4.895,-18.744"
       id="path46"
       inkscape:connector-curvature="0"
       style="fill:#ffffff" />
    <path
       d="m 117.576,312.273 c 0.075,0.336 0.658,0.127 0.35,0.462 0.752,0 1.536,0.135 2.232,-0.062 0.353,-0.094 0.593,-0.603 0.655,-0.88 0.205,-0.968 0.722,-2.202 -0.22,-2.88 -0.83,-0.62 -0.685,-1.6 -1.27,-2.075 -0.27,-0.218 -0.845,-0.366 -1.235,-0.727 -0.29,-0.27 -0.817,0.34 -0.815,0.62 0.015,0.76 0.56,1.53 0.546,2.34 -0.02,1.24 -0.65,1.59 -0.25,3.22"
       id="path48"
       inkscape:connector-curvature="0"
       style="fill:#ffb612" />
    <path
       d="m 108.522,301.642 c -0.085,-1.34 -0.564,-3.23 1.6,-2.7 0.68,0.16 0.837,1.092 0.853,1.542 0.036,1.213 0.335,2.18 0.893,3.242 0.32,0.6 -0.22,1.123 -0.547,1.552 -0.83,1.145 -2.56,1.792 -3.55,0.664 -0.6,-0.685 -1.33,-1.712 -0.79,-2.65 0.43,-0.735 0.77,-1.135 1.42,-1.777"
       id="path50"
       inkscape:connector-curvature="0"
       style="fill:#ffb612" />
    <path
       d="m 110.694,315.412 c -1.138,-1.51 -0.605,-2.916 0.727,-3.812 0.85,-0.564 1.87,-0.185 2.11,0.48 l 1.52,3.937 c 0.48,1.41 -1.46,2.774 -2.82,2.16 -0.97,-0.457 -0.9,-1.937 -1.52,-2.765"
       id="path52"
       inkscape:connector-curvature="0"
       style="fill:#ffb612" />
    <path
       d="m 111.86,320.894 c -0.544,-0.157 -0.596,0.276 -0.865,0.5 -0.566,0.446 -0.568,1.384 -1.06,2 -0.92,1.14 -0.643,2.755 -0.28,3.844 0.242,0.747 1.453,1.836 2.483,1.753 1.628,-0.12 2.832,-2.91 1.59,-3.58 -1.615,-0.88 -1.047,-3.1 -1.642,-4.31 -0.044,-0.08 -0.43,-0.03 -0.684,-0.03"
       id="path54"
       inkscape:connector-curvature="0"
       style="fill:#ffb612" />
    <path
       d="m 122.21,318.04 c -0.417,-0.512 -0.435,-1.2 0.043,-1.53 0.44,-0.295 1.2,-0.152 1.644,0.2 l 0.72,0.475 c 1.348,0.987 2.173,2.31 1.444,3.823 -0.19,0.425 -1,0.828 -1.56,0.44 -0.43,-0.3 -1.03,-0.32 -1.34,-0.832 -0.48,-0.836 -0.28,-1.78 -0.95,-2.576"
       id="path56"
       inkscape:connector-curvature="0"
       style="fill:#ffb612" />
    <path
       d="m 107.385,308.69 c -0.242,-0.738 -0.92,-0.376 -1.296,0.16 -0.89,1.27 -1.34,2.5 -1.46,4.35 0.25,1.037 1.86,1.236 2.65,0.774 1.79,-1.038 0.51,-5.02 0.42,-4.47 0.05,-0.357 -0.33,-0.892 -0.33,-0.812 v -0.002"
       id="path58"
       inkscape:connector-curvature="0"
       style="fill:#ffb612" />
    <path
       d="m 142.265,320.14 c -0.366,-0.257 -0.972,0 -1.006,0.414 -0.14,1.187 -0.16,3.438 1.79,3.072 0.69,-0.125 1.15,-0.786 0.99,-1.457 -0.24,-0.97 -1.01,-1.5 -1.79,-2.04"
       id="path60"
       inkscape:connector-curvature="0"
       style="fill:#ffb612" />
    <path
       d="m 146.953,324.357 c -0.476,-0.437 -1.317,-0.367 -1.67,-0.12 -0.715,0.512 -0.982,1.593 -0.727,2.41 0.28,0.89 0.608,1.84 1.322,2.528 0.46,0.442 1.413,0.954 1.666,0.635 0.586,-0.766 1.132,-1.787 0.872,-2.89 -0.24,-0.98 -0.726,-1.856 -1.463,-2.562"
       id="path62"
       inkscape:connector-curvature="0"
       style="fill:#ffb612" />
    <path
       d="m 164.89,322.97 c -0.35,0.03 -0.792,0.074 -0.935,0.272 -0.7,1.014 0.068,2.194 0.998,2.618 0.975,0.462 2.205,-1.056 1.482,-1.893 -0.46,-0.546 -1.187,-1.014 -2.043,-0.996"
       id="path64"
       inkscape:connector-curvature="0"
       style="fill:#ffb612" />
    <path
       d="m 156.282,333.613 c -0.362,-0.17 -0.93,-1.24 -0.652,-1.958 0.256,-0.642 1.048,-0.9 1.723,-0.792 0.777,0.135 1.274,0.64 1.713,1.17 1.15,1.363 1.473,3.49 -0.017,4.63 -0.61,0.475 -1.7,0.363 -2.13,-0.305 -0.55,-0.834 -0.14,-1.503 -0.56,-2.396 l -0.09,-0.348"
       id="path66"
       inkscape:connector-curvature="0"
       style="fill:#ffb612" />
    <path
       d="m 166.7,334.36 c -1.024,-0.738 -0.6,-2.22 -1.728,-2.885 -0.63,-0.38 -1.465,-0.472 -2.05,-0.022 -0.613,0.493 -0.61,1.2 -0.768,1.94 -0.085,0.41 0.202,0.772 0.397,1.127 0.83,1.555 2.83,1.606 4.39,2.484 0.21,0.117 0.62,-0.28 0.77,-0.53 0.49,-0.777 -0.29,-1.6 -1.01,-2.114"
       id="path68"
       inkscape:connector-curvature="0"
       style="fill:#ffb612" />
    <path
       d="m 150.103,332.903 c -0.53,-0.59 -1.44,-0.396 -1.985,-0.055 -0.187,0.115 -0.372,0.42 -0.372,0.65 -0.012,1.504 -0.555,3.063 0.04,4.486 0.36,0.86 1.188,1.9 2.26,1.46 0.77,-0.314 1.246,-1.172 0.988,-1.997 -0.476,-1.528 0.23,-3.252 -0.933,-4.544 h 0.01"
       id="path70"
       inkscape:connector-curvature="0"
       style="fill:#ffb612" />
    <path
       d="m 178.49,333.362 c -0.328,-1.054 -2.383,0.016 -3.12,-0.66 -0.648,-0.592 -1.427,-1.123 -1.544,-2.057 -0.523,1.1 -0.107,2.238 0.447,3.21 0.315,0.554 1.044,0.852 1.513,1.343 0.536,0.53 0.724,1.265 1.026,1.936 0.383,0.875 -0.547,1.38 -1.13,1.485 -1.837,0.31 -1.89,-2.12 -2.468,-3.3 -0.406,-0.84 -1.576,-1.18 -2.197,-1.95 -0.15,-0.18 -0.42,-0.37 -0.562,-0.59 -0.518,-0.86 -1.572,-1.46 -2.03,-2.37 -0.083,0.39 0.06,0.783 0.188,1.133 0.874,2.556 2.282,4.81 3.492,7.22 0.34,0.67 0.716,1.33 0.923,2.06 0.186,0.625 0.085,1.373 -0.308,1.76 -0.387,0.4 -1.31,-0.463 -1.498,-0.174 -0.666,1.08 0.373,2.372 0.967,3.43 0.42,0.75 1.17,1.5 0.82,2.36 -0.07,0.167 -0.32,0.395 -0.58,0.46 -0.89,0.22 -1.67,-0.31 -2.14,-0.77 -1.85,-1.784 -3.47,-3.58 -4.93,-5.724 -0.57,-0.82 -0.26,-1.89 -0.88,-2.7 -0.36,-0.464 -1.05,-1.215 -1.67,-0.703 -0.2,0.178 -0.45,0.41 -0.49,0.67 -0.2,1.056 -0.43,2.04 -1.12,2.82 -0.2,0.22 -0.59,0.58 -0.66,0.716 -0.95,1.61 -1.16,3.47 -1.47,5.36 -0.08,0.45 -0.2,1.01 -0.7,1.24 -0.53,0.26 -0.887,-0.26 -1.17,-0.596 -0.767,-0.865 -1.07,-1.897 -1.6,-2.886 -0.318,-0.62 -0.33,-1.376 -0.75,-2.026 l -0.23,-0.015 c 0.07,0.175 -0.1,0.333 -0.18,0.444 -0.504,0.8 -1.326,1.163 -2.225,1.48 -0.493,0.173 -1.05,-0.16 -1.16,-0.55 -0.605,-2.25 -2.28,-3.84 -2.96,-5.997 -1.04,0 -2.06,0.22 -2.74,-0.716 -1.498,-2.04 -1.198,-4.333 -1.395,-6.574 -0.333,0.266 -0.74,0.453 -0.983,0.817 -2.38,3.535 -3.293,7.21 -4.31,11.21 -0.2,0.8 -0.33,1.1 -0.6,1.85 -0.567,1.57 0.31,1.794 1.19,0.752 1.54,-1.83 1.22,-0.32 1.377,0.117 0.38,2.673 1.88,5.323 2.5,9.835 0.51,4.39 1.51,8.79 2.01,10.985 1.332,7.22 6.52,14.578 9.66,16.4 -0.377,-3.005 0.75,-4.14 0.5,-6.46 l 0.634,-0.114 c 0.115,4.053 3.38,9.26 7.14,12.153 3.01,3.233 4.642,3.925 7.18,7.28 0.75,1.157 1.35,1.69 1.98,2.614 1.375,-2.617 3.886,-7.24 3.886,-12.33 0,-3.91 -0.13,-8.33 -1.253,-11.81 2.26,0.935 4.77,4.285 6.65,7.185 1.13,-2.21 0.5,-8.33 -1.25,-11.34 -1.756,-3.7 -4.64,-8.79 -2.635,-16.31 1.25,2.655 2.13,2.54 4.14,3.003 0.38,-2.78 -0.13,-6.71 0,-7.17 -0.76,-1.266 -2.506,-2.788 -2.506,-2.788 l 1.877,-3.348 c 0.88,-3.355 -0.87,-6.02 -0.685,-6.536 -0.95,-1.91 -1.592,-3.543 -1.99,-4.81 v 0.003"
       id="path72"
       inkscape:connector-curvature="0"
       style="fill:#ffb612" />
    <path
       d="m 156.797,314.778 c -0.273,-0.716 -1.037,-1.246 -0.63,-1.958 0.112,-0.2 0.527,-0.15 0.83,-0.215 0.893,-0.22 1.95,-0.09 2.54,0.493 0.464,0.46 0.78,1.005 1.166,1.577 0.39,0.59 0.496,1.297 0.75,1.95 0.288,0.72 -0.028,1.517 -0.638,1.858 -0.708,0.395 -1.01,0.734 -2.048,0.305 -0.39,-0.16 -0.63,-0.934 -0.815,-1.233 -0.24,-0.4 -0.222,-1.533 -0.54,-1.905 -0.29,-0.32 -0.448,-0.432 -0.616,-0.87 h 0.002"
       id="path74"
       inkscape:connector-curvature="0"
       style="fill:#ffb612" />
    <path
       d="m 156.12,318.685 c -0.304,-0.27 -0.706,-0.255 -1.024,-0.277 -0.152,-0.007 -0.594,0.024 -0.577,0.282 0.1,1.402 -1.66,2.06 -2.2,3.165 -0.54,1.146 0.56,2.23 1.47,3.003 0.73,0.618 1.88,0.2 2.76,-0.05 1.452,-0.404 1.64,-2.286 1.3,-3.554 -0.264,-0.958 -0.92,-1.815 -1.75,-2.57"
       id="path76"
       inkscape:connector-curvature="0"
       style="fill:#ffb612" />
    <path
       d="m 172.787,167.237 h -17.242 v 3.7 h 15.74 l 1.502,-3.7"
       id="path78"
       inkscape:connector-curvature="0"
       style="fill:#ffffff" />
    <path
       d="m 170.843,156.884 0.63,2.72 3.264,-5.85 -3.893,3.13"
       id="path80"
       inkscape:connector-curvature="0"
       style="fill:#ffffff" />
    <path
       d="m 158.933,164.396 1.752,-3.988 5.024,3.988 h -6.78"
       id="path82"
       inkscape:connector-curvature="0"
       style="fill:#ffffff" />
    <path
       d="m 164.7,160.002 2.323,-7.634 1.622,10.755 -3.945,-3.12"
       id="path84"
       inkscape:connector-curvature="0"
       style="fill:#ffffff" />
    <path
       d="m 101.87,313.37 c 0.128,1.038 0.11,0.405 0.654,1.272 0.503,0.778 0.222,1.827 0.607,2.72 0.33,-0.385 0.94,-0.562 1,-1.15 0.48,1.79 -0.93,3.515 -0.24,5.315 0.77,-0.635 1.9,-0.78 2.51,-1.626 -0.05,0.72 -0.26,1.41 -0.37,2.11 -0.193,1.21 0.335,2.42 0.49,3.68 0.185,1.59 2.323,2.78 1.714,4.35 -0.99,2.54 -1.516,5.23 -0.62,7.63 0.19,0.508 0.466,1.35 1.098,1.62 0.48,0.2 1.207,0.21 1.677,0 0.257,-0.12 0.474,-0.5 0.522,-0.86 0.195,-1.113 -0.34,-2.16 -0.125,-3.22 0.27,-1.386 0.536,-2.77 1.49,-3.88 0.195,-0.225 0.927,-0.152 1.094,0.195 0.63,1.304 0.375,2.86 1.21,4.057 0.285,0.407 1.274,0.695 1.8,0.247 1.17,-1.007 0.74,-2.58 0.894,-3.89 0.25,-2.17 -0.854,-3.33 -1.17,-5.54 -0.29,-2.07 0.13,-2.38 0.844,-3.23 0.753,1.94 0.76,4.05 2.278,5.77 0.327,0.362 0.92,0.374 1.174,0.182 1.1,-0.875 0.88,-2.777 0.08,-4.01 -1.216,-1.88 -2.21,-4.85 -0.01,-6.57 -0.14,0.95 -0.128,2.022 0.402,2.73 0.73,0.97 2.08,2.97 2.27,4.893 0.077,0.682 1.138,0.957 1.79,0.42 0.114,-0.1 -0.03,-0.556 0.315,-0.594 1.05,-0.136 1.55,1.01 1.496,1.8 0.418,0 0.974,0.134 1.187,-0.064 1.013,-0.956 0.767,-3.233 0.83,-4.555 0.11,-2.44 0.744,-1.51 1.178,-1.75 0,0 0.19,1.167 -0.06,4.516 0.378,4.17 -0.12,9.61 -1.382,10.874 -1.125,-1.036 -1.25,-1.966 -2.752,-2.317 -4.01,1.74 -3.76,17.594 -3.515,20.016 -0.06,0.58 -1.006,0 -1.006,0 -2.25,-2.08 -3.253,-4.63 -3.884,-6.01 0,0 -0.875,-0.93 -0.875,0 -1.124,3.35 -0.75,12.49 -0.25,14.69 0.5,2.653 0.125,4.156 -1.253,6.7 -0.25,0.7 -0.746,0.816 -0.746,-0.114 -0.13,-1.037 -0.89,-1.498 -1.255,-2.55 0,0 -0.873,-1.494 -1.125,0 -0.76,3.93 -3.14,8.68 -4.017,10.183 l -0.634,0.346 c 0.25,-3.697 -1,-9.48 -1.88,-13.765 -2,-11.11 -4.015,-21.514 -4.015,-36.67 0,-6.83 0.404,-14.165 0.404,-14.165 l 0.22,0.22 h -0.002"
       id="path86"
       inkscape:connector-curvature="0"
       style="fill:#ffb612" />
    <path
       d="m 153.89,341.643 c 1.782,5.214 4.036,12.268 5.55,14.93 -0.382,-3.008 -4.77,-14.93 -4.646,-15.73 0.125,-0.814 -0.903,0.8 -0.903,0.8"
       id="path88"
       inkscape:connector-curvature="0"
       style="fill:#ffb612" />
    <path
       d="m 292.155,145.792 c -0.375,-0.387 -1.727,-0.185 -1.964,-0.716 -0.16,-0.36 -0.36,-0.776 -0.6,-0.956 -0.41,-0.306 -0.99,0.114 -1.56,0.2 -0.77,0.11 -1.6,-0.042 -2.38,-0.28 -1.34,1.428 -4.93,0.48 -6.62,0.596 -0.21,0.008 1.07,0.677 1.3,0.858 1.188,0.937 3.148,0.854 4.595,0.9 0.24,0.01 0.71,-0.226 0.893,-0.246 1.557,-0.194 3.105,0.302 4.747,0.56 0.512,0.08 2.126,-0.414 1.61,-0.913 v -0.003"
       id="path90"
       inkscape:connector-curvature="0"
       style="fill:#ffffff" />
    <path
       d="m 316.535,147.796 -3.72,-1.964 c -0.227,-0.337 -0.515,-0.747 -0.872,-1.053 -0.837,-0.71 -1.278,-1.55 -2.244,-2.11 -1.28,-0.76 -2.34,-1.73 -3.74,-2.21 l -0.49,-0.03 c -0.11,-0.02 -0.17,-0.11 -0.15,-0.227 -0.12,0 -0.28,0.044 -0.36,-0.016 -0.19,-0.2 -0.487,-0.313 -0.67,-0.37 -0.727,-0.22 -1.56,0.18 -2.203,-0.34 -0.364,-0.3 -0.79,-0.48 -1.2,-0.715 -1.11,-0.66 -2.38,-0.26 -3.57,-0.087 -0.24,0.032 -0.59,0.322 -0.84,0.524 -0.454,0.362 -1.195,-0.287 -1.794,-0.1 -0.525,0.16 -1.106,0.722 -0.604,1.18 0.543,0.5 1.245,0.844 1.984,1.01 2.154,0.5 4.42,0.01 6.453,0.84 0.588,0.236 1.31,0.51 1.55,1.204 -0.205,0.035 -0.43,0.21 -0.61,0.085 -0.5,-0.33 -1.04,-0.323 -1.53,-0.36 -3.43,-0.26 -6.85,-0.52 -10.28,-0.08 0,0.81 0.345,1.66 1.144,1.76 1.066,0.13 2.21,-0.175 3.23,-0.1 1.12,0.074 2.313,0.74 3.43,1.32 0.15,0.08 0.415,0.075 0.59,0 0.504,-0.186 0.94,-0.85 1.498,-0.615 0.34,0.154 0.696,0.29 1.053,0.35 0.79,0.12 1.35,-0.01 2.1,0.09 1.58,0.215 2.94,1.193 4.5,0.983 1.18,-0.16 1.72,0.2 2.3,0.69 -0.34,-0.275 2.16,1.37 2.37,0.962 0.09,-0.154 2.627,-0.29 2.65,-0.646 h 0.004"
       id="path92"
       inkscape:connector-curvature="0"
       style="fill:#ffffff" />
    <path
       d="m 325.61,147.088 c -1.01,-0.587 -1.124,-1.747 -1.665,-2.606 -0.412,-0.656 -0.966,-1.186 -1.625,-1.5 -2.948,-1.41 -6.386,-3.86 -8.58,-3.674 -0.69,0.062 -0.97,0.75 -0.576,1.106 0.755,0.673 2.085,0.903 2.2,2.008 2.936,1.353 8.098,2.26 7.855,5.214 -0.02,0.286 1.89,-0.61 2.39,-0.55 v 0.002"
       id="path94"
       inkscape:connector-curvature="0"
       style="fill:#ffffff" />
    <path
       d="m 155.546,167.237 18.495,-0.028 c -1.01,1.84 -1.61,3.74 -1.61,3.74 l -16.88,-0.02 v -3.7"
       id="path96"
       inkscape:connector-curvature="0"
       style="fill:#ffb612" />
  </g>
  <g
     style="fill:none"
     transform="translate(-18,12)"
     id="g149">
    <path
       style="fill:#ffffff"
       inkscape:connector-curvature="0"
       id="path55"
       d="m 193.096,338.65 c -1.136,0.344 -3.467,-0.235 -3.467,-0.235 0.78,5.67 1.64,7.61 1.64,7.61 l -1.36,1.53 1.63,1.16 c -1.76,11.223 3.41,18.947 5.8,26.47 -1.89,0.58 -4.04,0.48 -5.66,-0.33 0.64,6.37 0.05,18.627 -5.53,23.95 -1.06,-0.63 -1.84,-0.808 -2.25,-1.39 -0.83,1.79 -1.47,2.49 -3.156,7.06 -0.94,3.06 -1.76,7.346 -2.2,11.97 -4.59,-2.174 -9.596,-4.452 -14.11,-11.467 -1.003,-1.663 -1.71,-3 -4.16,-5.222 -0.567,1.05 -0.66,1.36 -1.794,2.338 -1.197,1.04 -4.3,2.312 -4.323,2.21 -0.63,-2.825 -1.38,-5.44 -3.2,-8.62 -1.74,-3.525 -7.72,-8.214 -12.608,-19.666 -2.007,-4.394 -3.01,-8.312 -3.845,-12.833 -0.374,0.168 -0.633,0.28 -0.88,0.335 -1.816,0.47 -3.12,0.35 -3.747,-0.914 -1.536,3.814 -3.45,5.947 -5.08,6.98 -0.748,2.2 -0.63,2.782 -2.26,4.573 -1.493,2.07 -2.003,2.6 -3.046,6.53 -1.69,3.99 -4.22,5.96 -4.6,6.99 -0.63,-1.27 -0.878,-1.03 -1.505,-1.97 -6.145,7.52 -6.9,9.48 -20.82,12.15 3.51,-6.374 5.893,-17.01 5.644,-19.205 -1.76,-14.93 -3.39,-18.05 -4.273,-29.62 -0.52,-5.786 -1.997,-20.014 -0.615,-38.977 1.5,-22.9 8.524,-42.69 14.55,-57.618 7.777,-20.817 25.58,-54.364 38.576,-74.86 l 0.054,-18.602 h 5.02 l 5.27,-11.103 2.378,1.623 9.03,-22.216 6.396,16.773 10.94,-6.365 c 4.37,-3.695 35.475,-45.11 101.34,-45.024 63.836,-0.083 129.566,45.96 129.566,119.53 0,66.857 -59.214,118.45 -127.547,118.45 -52.957,0 -87.06,-24.87 -105.15,-47.66 1.152,11.455 -1.257,34.247 9.35,55.646" />
    <path
       style="stroke:#ffffff;stroke-width:2.58400011"
       inkscape:connector-curvature="0"
       id="path57"
       d="m 193.054,338.65 -1.022,0.11 -1.14,-0.097 -0.925,-0.163 -0.38,-0.08 0.585,3.58 0.526,2.354 0.38,1.283 0.147,0.393 -1.358,1.532 1.627,1.16 -0.172,7.812 1.52,6.81 2.293,6.117 2.162,5.74 -2.928,0.36 -2.73,-0.683 0.19,5.68 -0.63,6.686 -1.79,6.494 -3.3,5.09 -1.37,-0.71 -0.88,-0.68 -0.61,1.215 -0.644,1.27 -0.81,1.79 -1.085,2.78 -1.29,5.394 -0.906,6.573 -3.506,-1.725 -3.576,-2.2 -3.564,-3.1 -3.46,-4.445 -0.73,-1.2 -0.806,-1.2 -1.075,-1.3 -1.54,-1.52 -0.69,1.197 -1.108,1.14 -1.18,0.8 -1.43,0.735 -1.206,0.52 -0.517,0.155 -1.152,-4.18 -2.04,-4.44 -2.02,-2.952 -3.105,-3.91 -3.698,-5.39 -3.786,-7.41 -2.36,-6.372 -1.48,-6.463 -0.88,0.333 -2.32,0.194 -1.427,-1.11 -2.51,4.538 -2.576,2.45 -0.44,1.393 -0.36,1.047 -0.52,0.976 -0.938,1.16 -0.964,1.344 -0.73,1.224 -0.647,1.577 -0.707,2.39 -1.38,2.63 -1.41,1.98 -1.17,1.42 -0.64,0.967 -0.752,-1.11 -0.75,-0.852 -2.09,2.57 -1.793,2.123 -1.73,1.75 -1.875,1.45 -2.24,1.226 -2.82,1.07 -3.62,0.985 -4.637,0.983 2.39,-5.38 1.833,-5.79 1.12,-5.005 0.285,-3.03 -1.29,-9.304 -1.18,-6.77 -1.02,-6.14 -0.79,-7.41 -0.513,-5.865 -0.51,-8.68 -0.154,-11.15 0.56,-13.274 2.06,-16.57 3.515,-15.233 4.36,-13.736 4.61,-12.076 3.35,-8.35 4.126,-9.245 4.71,-9.83 5.14,-10.125 5.373,-10.1 5.45,-9.79 5.346,-9.167 5.063,-8.246 0.05,-18.6 h 5.016 l 5.27,-11.108 2.373,1.63 9.03,-22.216 6.392,16.776 10.936,-6.366 1.136,-1.12 1.77,-1.884 2.42,-2.537 3.086,-3.072 3.752,-3.49 4.44,-3.79 5.14,-3.983 5.85,-4.05 6.57,-4.01 7.293,-3.854 8.054,-3.58 8.8,-3.18 9.566,-2.675 10.346,-2.05 11.136,-1.306 11.94,-0.444 11.97,0.516 11.917,1.575 11.757,2.6 11.51,3.604 11.156,4.57 10.704,5.52 10.16,6.43 9.506,7.32 8.76,8.19 7.91,9.02 6.966,9.837 5.92,10.613 4.786,11.37 3.535,12.096 2.193,12.79 0.753,13.47 -0.685,12.35 -1.997,11.935 -3.21,11.461 -4.405,10.956 -5.497,10.382 -6.518,9.76 -7.467,9.09 -8.336,8.355 -9.136,7.566 -9.86,6.73 -10.52,5.844 -11.1,4.9 -11.61,3.9 -12.04,2.858 -12.4,1.754 -12.69,0.6 -18.973,-1.117 -17.24,-3.13 -15.54,-4.83 -13.875,-6.214 -12.24,-7.28 -10.64,-8.036 -9.065,-8.474 -7.537,-8.59 0.297,4.8 0.16,5.712 0.216,6.48 0.464,7.095 0.908,7.56 1.54,7.878 2.37,8.05 3.408,8.07" />
    <path
       style="fill:#ffb612"
       inkscape:connector-curvature="0"
       id="path59"
       d="m 287.03,325.127 c 67.956,0 123.046,-50.8 123.046,-113.475 0,-62.673 -55.09,-113.48 -123.045,-113.48 -67.955,0 -123.031,50.805 -123.031,113.48 0,62.676 55.084,113.475 123.04,113.475" />
    <path
       style="fill:#ffffff"
       inkscape:connector-curvature="0"
       id="path61"
       d="m 287.03,309.29 c 58.462,0 105.868,-43.713 105.868,-97.638 0,-53.925 -47.406,-97.636 -105.867,-97.636 -58.46,0 -105.86,43.715 -105.86,97.636 0,53.925 47.4,97.638 105.86,97.638" />
    <path
       style="fill:#000000"
       inkscape:connector-curvature="0"
       id="path63"
       d="m 220.382,202.398 c 0,0 -8.65,19.323 -8.277,34.59 0,0 2.692,-5.718 3.643,-4.74 0,0 -7.778,24.06 -1.885,37.83 0,0 1.255,-3.82 3.384,-6.138 0,0 3.26,-4.742 4.525,-8.56 0,0 0.62,1.62 0.99,4.512 0,0 2.89,-3.353 3.51,-5.67 0.488,-1.81 1.758,-3.81 2.638,-6.13 l 0.998,0.47 c 0,0 5.9,-6.598 8.154,-12.618 0,0 1.754,-0.224 0.882,4.518 0,0 4.89,-4.397 5.017,-11.225 l 1,1.048 c 4.14,4.742 4.14,12.03 4.02,16.54 -1,14.457 -9.04,22.207 -19.07,30.652 l 0.89,0.695 c 14.92,-2.54 24.75,-4.03 39.89,0 5.76,1.54 19.69,7.405 26.46,11.342 0,0 15.05,6.012 25.59,6.012 0,0 0.503,0.227 0.503,-0.29 0,0 -1.13,-3.584 -0.126,-17.062 0,0 1.13,-6.24 2.01,-10.525 0,0 1.13,-2.89 1.258,-8.79 0.015,-0.49 -0.51,-4.06 2.13,-3.71 5.71,0.74 8.904,-0.46 13.297,-1.16 0,0 4.65,-1.27 6.537,-1.39 0,0 4.4,0.65 5.76,0.23 1.5,-0.46 3.13,-1.63 5.143,-3.36 0,0 2.25,-2.2 0.75,-7.177 0,0 -1.5,-4.515 -0.63,-5.903 0,0 1.33,-3.066 3.264,-4.863 0,0 1.38,-2.07 -0.5,-3.11 0,0 -1,-1.047 0.686,-1.45 0,0 1.26,0.112 2.067,-0.29 0,0 0.438,-0.17 0.504,-1.038 0.08,-0.937 0.51,-5.44 -2.752,-9.38 0,0 0.94,0.235 1.633,0.47 0,0 4.01,0.34 6.088,-0.585 1.82,-0.928 4.45,-2.08 4.08,-7.64 -1.023,-4.62 -3.02,-7.404 -5.03,-12.606 -2.38,-5.55 -2.75,-8.33 -7.763,-12.137 -3.013,-1.275 -4.395,-3.355 -2.14,-5.44 1.756,-2.436 1.127,-6.823 -1.995,-9.834 -3.015,-2.78 -5.27,-7.06 -6.41,-9.26 -1.5,-2.31 -3.133,-4.86 -4.63,-6.364 -1.52,-1.733 -3.766,-2.77 -7.77,-7.17 0,0 -2.4,-1.964 -2.77,-4.04 -3.39,-4.86 -12.8,-11.69 -23.584,-12.38 -3.14,-0.35 -3.14,-0.35 -5.4,-0.585 -3.75,-1.27 -15.54,-1.62 -23.57,0.467 -2.593,0.51 -7.776,1.387 -7.776,1.387 -2.754,0.81 -6.64,1.51 -10.906,3.934 -3.137,1.5 -7.77,5.09 -11.29,7.4 -3.77,3.476 -12.17,8.57 -16.81,11.46 -9.03,6.124 -16.81,14.23 -21.322,19.32 0,0 -11.404,13.182 -17.05,35.973 -0.375,3.47 -1.373,6.824 -0.76,10.64 0,0 5.03,-10.06 9.67,-13.192 0,0 -0.64,1.86 -1.01,4.86 0,0 2.38,-4.043 3.377,-4.74 0,0 1.756,-1.735 4.27,-4.505 0,0 5.273,-6.365 6.772,-7.06 -1.94,3.356 -2.38,5.553 -2.57,9.02 0.818,-0.69 1.32,-1.217 1.57,-1.62 0,0 0.49,-0.926 1,-0.697 0.258,0.6 -0.125,1.053 -0.125,1.053 h -0.002" />
    <path
       style="fill:#5b2b2f"
       inkscape:connector-curvature="0"
       id="path65"
       d="m 370.877,204.482 c -1.132,-1.735 -1.88,-3.7 -2.76,-6.126 -0.373,-0.987 -1.125,-3.01 -1.998,-4.74 -0.06,-0.7 -1.64,-3.934 -2.64,-5.212 -2.52,-3.353 -4.58,-3.644 -5.96,-5.033 l -0.52,-0.01 c -1.46,0.9 -1.48,2.88 -2.73,4.38 -0.13,0.17 -0.55,0.37 -0.83,0.25 -0.4,-0.18 -0.56,-0.5 -1.01,-1.09 -0.41,-0.56 -0.74,-0.16 -1.19,0.31 -0.29,0 -0.5,0.21 -0.73,0.42 -0.39,0.38 -0.09,0.576 0.22,0.998 0.31,0.437 0,0.437 0.2,0.66 -0.06,0.18 -0.118,0.25 -0.18,0.33 -0.165,0.23 -0.57,0.175 -0.864,0.125 -0.83,-0.125 -0.64,-0.07 -1.38,-0.396 -0.916,-0.4 -1.35,-1.5 -2.056,-1.84 -0.207,-0.114 -0.922,-0.235 -1.467,0.098 -0.404,0.25 -0.58,0.8 -0.24,1.09 0.59,0.5 1.052,1.08 1.68,1.52 0.856,0.59 1.79,1.026 1.903,1.85 0.15,1.055 -1.535,1.437 -2.33,0.88 -0.41,-0.283 -0.898,-0.604 -1.34,-1.036 -0.07,-0.06 -0.14,-0.414 -0.236,-0.478 -0.353,-0.25 -0.77,-0.547 -0.97,-0.807 -0.354,-0.497 -0.825,-1.02 -1.47,-1.25 -0.15,-0.053 -0.27,-0.25 -0.384,-0.426 -0.295,-0.475 0.023,-1.03 -0.19,-1.47 -0.18,-0.36 -0.264,-0.948 -0.815,-0.72 -0.51,0.465 -0.44,0.465 -1.02,0.42 -0.73,-0.06 -0.15,-1.31 -0.15,-1.14 0.01,0.07 -0.03,-0.027 0.22,-0.438 -0.5,-0.15 -1.257,-0.52 -0.68,-1.207 0.496,-0.58 0.982,0.27 1.17,-0.08 0.066,-0.132 0.494,-0.86 0.655,-0.96 0.562,-0.303 0.725,0.11 0.804,0.22 -0.24,0.63 0.477,1.05 1.17,0.71 l 0.114,-0.64 c 0.64,-1.03 1.63,-1.57 2.64,-2.275 l 0.41,-0.194 c 0.305,-0.56 0.654,-1.366 0.012,-1.62 -0.537,-0.21 -1.64,-0.02 -1.41,-0.895 0.104,-0.41 0.684,-0.57 1.013,-0.703 1.19,-0.515 2.424,-1.026 3.663,-1.473 0.297,-0.11 0.806,-0.53 1.18,-0.557 1.566,-0.117 1.2,-0.084 3.11,0.224 0.34,0.055 0.99,0.385 1.325,0.49 1.013,0.33 2.462,0.224 3.13,-0.79 0.663,-0.99 0.476,-2.67 -0.198,-3.83 -0.795,-1.412 -2.016,-2.63 -3.07,-3.6 -1.347,-1.242 -3.097,-1.88 -3.445,-3.59 -0.43,-2.09 -2.19,-4.86 -3.185,-6.52 -1.05,-1.71 -1.97,-2.85 -3.294,-4.433 -0.31,-0.367 -2.248,-2.187 -2.58,-2.487 -2.21,-1.988 -3.16,-2.647 -5.517,-3.43 -1.21,-0.398 -5.91,-0.14 -8.36,-0.43 -0.77,-0.094 -3.13,-0.146 -3.777,-1.3 -0.58,-1.05 -1.31,-2.55 -2.53,-3.26 -0.44,-0.25 -1.11,-0.518 -1.57,-0.736 -2.206,-1.023 -4.486,-2.735 -6.87,-2.65 -0.877,0.03 -0.037,0.905 0.19,1 1.08,0.527 1.568,1.114 2.16,1.748 0.616,0.668 1.957,0.693 3.108,1.13 1.096,0.417 2.004,1.064 3.024,1.56 0.964,0.467 2.256,2.01 1.19,2.643 -0.967,0.57 -1.986,-0.122 -3.266,0.176 -0.26,0.066 -0.646,0.22 -2.13,0.22 -1.978,0.25 -2.665,-0.624 -4.187,-1.62 -1.52,-1.005 -2.48,-2.54 -3.945,-3.496 -1.8,-1.174 -3.625,-2.15 -5.688,-2.818 -0.457,-0.15 -1.057,0.086 -1.46,-0.11 -0.71,-0.368 -1.256,-1.154 -2.15,-1.22 -1.53,-0.097 -1.53,-0.213 -3.05,0 -0.215,0.042 -0.776,0.63 -0.96,0.627 -0.9,-0.035 -1.946,-0.264 -2.4,0.193 -0.696,0.73 0.16,0.65 1.052,1.05 0.5,0.21 1.56,0.74 2.16,0.728 2.54,-0.043 4.164,-0.06 6.152,0.93 0.212,0.115 1.103,0.923 1.153,1.226 -1.884,-0.03 -4.863,-0.72 -7.044,-0.55 3.667,-0.27 -3.74,0.094 -5.356,0.04 -0.485,-0.017 -0.485,0.9 0.27,1.405 0.2,0.13 1.32,-0.06 1.47,0.27 0.66,-0.32 2.54,-0.166 3.08,0.027 0.946,0.31 0.41,0.178 1.24,0.577 0.5,0.25 0.982,0.58 1.572,0.52 0.764,-0.08 0.81,-1.13 1.58,-0.79 0.265,0.113 0.853,0.45 0.98,0.44 4.35,-0.08 4.45,1.18 6.48,1.15 0.522,0 1.302,-0.194 1.673,0.04 0.814,0.525 1.58,0.59 2.835,0.122 0,0 2.895,7.17 2.14,20.243 -0.75,5.553 -1.127,6.6 -2.51,11.11 0,0 -2,7.168 -1.26,12.14 0.765,16.776 -4.766,30.66 -10.775,39.914 -2.26,2.543 -3.52,3.93 -1.255,5.773 4.77,4.054 8.66,4.978 15.42,6.372 2.397,0.69 3.895,0.92 6.146,0.92 3.51,0 9.045,1.384 11.546,3.125 2.378,1.16 8.78,3.36 12.665,2.78 3.385,0.232 4.394,0.464 6.035,1.042 1.12,0.457 2.26,0.457 3.513,0.115 l 1.937,-1.33 c 0.25,-0.57 2.07,-1.325 1.696,-3.645 -0.125,-1.73 -0.88,-3.53 -1.244,-5.14 -1.083,-1.43 -1.014,-2.49 -0.64,-3.99 1.13,-2.09 2.45,-3.127 3.146,-4.168 1.498,-1.564 0.63,-2.655 -1.448,-3.186 -1,-0.4 -2.94,-0.23 -4.953,-0.4 -1.065,0 -1.945,-0.403 -3.447,-0.12 0,0 -1.016,0.64 -1.567,1.11 l -0.767,-0.41 c 0,0 0.7,-1.85 2.126,-2.95 1.446,0.23 3.558,0.385 4.65,0.12 1.3,-0.546 2.794,-0.77 3.888,-1.165 1.89,-0.17 2.766,-0.056 5.02,0.064 0,0 1.13,-4.51 -2.82,-7.927 -0.94,-0.8 -1.707,-1.85 -3.065,-1.906 -4.79,0.52 -7.41,-1.27 -8.17,-1.74 -1.18,-0.06 -1.55,0.41 -2.19,1.106 -1.64,2.534 -3.575,3.404 -3.575,3.404 l -1.01,-0.114 c 0,0 0.88,-1.383 2.877,-3.7 0.896,-1.854 2.14,-4.162 3.266,-5.323 0.684,-1.098 0.88,-3.584 2.57,-4.277 0.82,0 0.952,-0.175 1.56,0.176 -1.24,1.096 -4.756,5.03 -1.112,7.456 1.498,1.16 3.764,1.16 4.317,-0.056 0.274,-0.666 0.88,-1.096 1.193,-1.332 1.883,-0.345 3.454,0.523 4.073,0.99 1.504,1.62 2.385,2.37 3.13,2.713 0.822,0.586 2.334,0.465 3.08,0.465 2.445,-0.39 3.76,-1.672 4.2,-2.48 1.31,-2.545 1.063,-5.034 -0.818,-8.04 z" />
    <path
       style="fill:#5b2b2f"
       inkscape:connector-curvature="0"
       id="path67"
       d="m 345.474,185.383 c 0.758,0.353 1.066,0.244 2.605,0.445 0,0 1.34,0.2 2.56,-0.782 0.19,-0.16 1.22,-0.634 1.18,-1.015 -0.13,-1.76 0.16,1.15 -0.22,-1.5 -0.09,-0.56 -0.06,-1.07 -0.3,-1.67 -0.12,-0.31 -0.65,-0.84 -1.43,-0.6 -0.146,0.06 -1.387,0.99 -1.41,1.03 -0.684,1.22 -1.75,1.36 -2.227,2.18 l -0.885,1.34 c -0.084,0.21 -0.198,0.43 0.104,0.58" />
    <path
       style="fill:#0c130f"
       inkscape:connector-curvature="0"
       id="path69"
       d="m 357.017,202.808 c 2.152,-0.65 3.196,0.274 5.57,1.77 0.416,0.26 0.76,0.936 0.158,1.306 -0.196,0.124 -0.646,0.102 -0.782,-0.018 -2.085,-1.84 -2.758,-1.855 -5.036,-2.23 -0.113,-0.008 -0.468,-0.66 0.09,-0.827 v -0.01" />
    <path
       style="fill:#0c130f"
       inkscape:connector-curvature="0"
       id="path71"
       d="m 344.22,223.15 c -0.327,0.905 -0.654,1.71 -1.073,2.573 -0.428,0.9 -0.225,2.01 -0.89,2.818 -0.29,0.36 -1.095,0.22 -1.216,-0.2 -0.42,-1.58 -0.21,-3.24 0.61,-4.69 0.44,-0.74 1.52,-1.12 2.46,-0.83 l 0.13,0.47 v -0.124" />
    <path
       style="fill:#000000"
       inkscape:connector-curvature="0"
       id="path73"
       d="m 322.65,212.513 c -0.713,-0.217 -1.098,-0.83 -1,-1.503 0.242,0.062 0.04,-0.256 0.252,-0.237 1.496,0.086 2.895,0.643 4.392,0.675 1.705,0.03 3.416,-0.265 4.976,-0.946 1.936,-0.853 3.61,-1.763 5.47,-2.905 0.83,-0.508 2.025,-0.81 3.055,-1.014 1.626,-0.34 1.52,-1.183 2.73,-1.846 1.772,-0.95 1.64,-1.654 2.63,-1.29 0.28,0.103 -0.288,0.68 -0.59,0.94 -0.67,0.55 -1.55,1.103 -2.154,2.083 -0.13,0.197 -1.06,1.114 -1.24,1.25 -2.03,1.384 -2.48,2.59 -4,4.29 -0.85,0.97 -1.13,2.234 -1.7,3.356 -0.34,0.663 -0.55,1.35 -0.99,1.96 -0.18,0.252 -0.86,0.128 -1.1,0.344 -1.25,1.106 -2.45,2.168 -3.37,3.61 -0.15,0.235 -0.68,0.225 -0.75,0.098 -0.8,-1.423 -1.92,-2.497 -3.83,-2.55 -0.34,-0.01 -0.7,-0.715 -0.68,-1.338 0.01,-0.138 -0.15,-0.396 -0.33,-0.433 -0.296,-0.045 -0.43,-0.3 -0.74,-0.315 -0.325,-0.016 -0.583,-0.48 -0.64,-0.675 -0.387,-1.123 -0.246,-2.372 -0.496,-3.552 h 0.13 v -0.003" />
    <path
       style="fill:#ffffff"
       inkscape:connector-curvature="0"
       id="path75"
       d="m 294.85,244.62 c -0.317,-1.157 -2.34,-1.054 -3.788,-0.92 -2.202,0.22 -4.208,0.567 -6.343,1.603 1.4,-1.96 3.13,-2.08 6.42,-3.245 0.74,-0.264 0.56,-1.477 0.08,-2.185 -0.55,-0.813 -1.27,-0.855 -1.55,-0.905 -2.71,-0.486 -3.58,0.09 -5.02,0.432 -4.97,1.18 -9.85,4.64 -12.58,7.953 -0.79,0.968 -0.53,1.987 -0.367,2.2 0.51,0.627 1.296,2.376 1.51,2.164 2.015,-2.01 4.46,-3.862 7.097,-3.28 -1.126,0.335 -5.082,2.185 -6.34,4.863 -0.076,0.17 0.51,1.146 1.257,1.665 1.01,1.562 1.38,2.195 1.95,2.486 0.35,-0.03 1.09,-0.7 1.294,-0.99 2.77,-3.4 5.536,-5.48 13.185,-6.4 2.196,-0.34 3.45,-0.92 3.64,-2.77 0,0 0.435,-0.92 -0.44,-2.772" />
    <path
       style="fill:#ffffff"
       inkscape:connector-curvature="0"
       id="path77"
       d="m 285.713,255.367 c 0.13,1.74 -0.144,2.52 0.38,3.653 0.52,1.07 1.586,1.996 1.986,3.104 0.31,0.842 1.39,1.917 1.39,2.502 0.51,0.455 0.57,0.867 0.57,0.867 0.66,0.81 2.65,1.782 1.95,2.253 -0.83,0.586 -3.27,0.174 -4.74,-0.053 -1.9,-0.287 -0.8,1.3 -0.4,1.46 1.92,0.732 5.96,0.98 7.28,1.652 0.8,0.406 1.85,1.022 2.18,1.747 0.25,0.543 0.7,1.014 1.095,1.484 1.27,1.577 1.725,2.26 3.04,3.255 0.654,0.5 1.41,1.35 1.18,2.11 -0.274,0.89 -0.886,1.08 -1.805,0.96 -0.29,-0.04 -1.21,-0.29 -2.087,-0.64 -1.753,-0.5 -2.127,-1.1 -3.387,-0.5 -0.673,0.32 0.32,1.387 1.088,1.77 3.15,1.54 6.95,1.58 10.01,3.21 2.613,1.4 4.207,3.11 4.066,6.72 0,0.066 0.943,0.54 1,0.463 0.897,-1.296 3.16,0.313 4.26,0 0.105,-0.032 0.13,-0.577 -0.02,-0.8 l -2.12,-1.47 c -0.508,-0.746 0.22,-1.55 -0.03,-2.206 -0.26,-0.66 -1.48,0.49 -1.936,0.05 -2.01,-1.92 -3.32,-4.204 -6.023,-5.316 1.13,-2.884 1.627,-6.123 1.37,-7.63 -0.742,-0.574 -1.054,0.35 -1.24,0.465 -0.62,0.548 -0.375,1.738 -1.096,2.64 -0.126,0.15 -1.097,-0.03 -1.37,-0.25 -1.846,-1.45 -3.57,-3.18 -4.433,-5.24 -0.03,-0.073 -0.4,-0.5 -0.48,-0.6 -1.35,-1.75 -1.27,-4.2 0.3,-5.96 0.17,-0.19 0.43,-1.27 0.27,-1.392 -0.285,-0.202 -0.914,0.21 -1.17,0.45 -0.86,0.81 -1.6,2.43 -3.047,2.287 -1.64,-0.16 -2.262,-1.69 -3.263,-2.688 -0.32,-0.984 -0.91,-1.61 -0.76,-1.74 -1.38,-1.85 -1.5,-3.356 -2.78,-5.664 -0.28,-0.52 -0.68,-0.77 -1.235,-0.93 h -0.005" />
    <path
       style="fill:#5b2b2f"
       inkscape:connector-curvature="0"
       id="path79"
       d="m 295.25,286.605 c 1.638,0.77 -0.247,-0.987 -0.247,-0.987 -0.63,-0.403 -2.102,-2.504 -2.39,-3 -0.703,-1.127 -1.208,-1.997 -1.63,-2.893 -0.616,-1.394 -1.843,-2.378 -3.866,-4.18 -1.013,-0.904 -2.58,-2.503 -3.217,-3.67 -0.99,-1.812 -1.555,-5.06 -3.937,-6.58 -1.836,-1.18 -1.396,-2.52 -2.978,-4.804 -0.61,-0.86 -1.85,-0.97 -2.764,-1.83 -2.29,-2.13 -0.84,-2.95 -2.84,-4.91 -0.89,-0.85 -1.27,-1.03 -2.03,-2.34 -1,-1.68 -0.24,-3.89 -1.94,-4.66 -1.5,-0.69 -2.67,-0.94 -3.68,-1.25 -1.58,-0.48 -4.1,-1.67 -5.52,-2.69 -1.49,-1.07 -4.56,-3.43 -7.83,-6.05 2.003,14.23 -0.765,26.38 -16.06,39.1 28.346,-4.86 40.758,1.27 60.95,10.76" />
    <path
       style="fill:#5b2b2f"
       inkscape:connector-curvature="0"
       id="path81"
       d="m 305.96,268.446 c 0.086,1.164 0.52,0.954 1.22,2.552 0.35,0.802 1.333,2.206 1.846,2.604 2.903,2.246 4.907,5.713 4.704,9.287 0.14,1.74 0.24,1.63 2.09,2.84 0.316,0.21 0.505,0.23 1.495,1.09 l 3.457,3.24 c -0.066,-1.05 0.113,-2.81 0.087,-3.36 -0.17,-5.46 0.97,-11.1 -1.04,-15.87 -1.5,-3.57 -4.89,-7.596 -6.22,-11.33 l -0.67,-2.04 c -0.7,-2.9 -0.77,-5.927 -0.77,-5.927 l -4.2,-1.846 c -3.303,-1.22 -7.02,-2.336 -10.346,-3.47 0,1.62 0.242,2.77 -1.067,4.394 0.88,1.97 1.62,6.31 2.626,7.353 2.193,1.9 3.95,3.403 5.396,7.975 0.325,1.09 1.31,1.68 1.37,2.49" />
    <path
       style="fill:#ffffff"
       inkscape:connector-curvature="0"
       id="path83"
       d="m 254.997,145.254 c 0,0 -2.502,-0.227 -8.404,3.933 -6.513,3.7 -15.168,9.024 -21.448,16.08 -4.57,4.218 -11.034,10.64 -13.414,15.155 0,0 -3.89,5.668 -6.4,14.92 0,0 0.89,3.01 3.39,-0.925 4.38,-6.876 21.07,-30.025 44.9,-46.905 l 1.14,-0.06 c -11.8,9.363 -27.09,21.98 -41.96,43.44 -0.55,0.796 -1.27,2.213 -1.33,2.32 -0.663,1.147 1.04,1.324 0.17,1.13 1.36,0.305 1.86,-1.433 2.73,-1.778 0.538,-0.217 0.77,1.268 1.62,0.887 3.04,-1.35 5.288,-4.24 6.53,-5.98 0.07,0.5 0.77,1.97 0.77,1.97 1.37,0.35 5.645,-5.08 7.897,-8.79 0.634,0.69 -0.15,2.39 0.68,1.66 2.577,-2.24 4.878,-4.65 6.247,-6.84 1.6,-2.56 3.36,-3.72 3.99,-8.23 1,0.58 0.98,0.83 1.253,1.04 0.63,-0.69 0.67,-1.42 1.67,-2.45 1.08,-1.13 1.3,-2.01 2.622,-2.804 0.47,-0.29 1.51,-2.1 1.72,-3.04 0.198,-0.9 2.355,-3.805 2.51,-4.77 1.75,-3.01 4.77,-4.627 6.896,-6.94 2.01,-1.612 0.5,-4.507 -3.76,-3.003" />
    <path
       style="fill:#ffffff"
       inkscape:connector-curvature="0"
       id="path85"
       d="m 232.924,235.597 c 0.88,0.927 1.625,-0.29 1.625,-0.29 1.45,-2.022 1.76,-2.546 2.76,-5.262 0.63,-1.794 1.38,-2.43 2,-9.943 1.76,2.426 2,7.05 2,7.05 l 0.503,-0.113 c 0,0 1.633,-4.29 4.39,-5.67 0,0 0.25,-2.89 3.005,-5.78 -0.37,-1.74 -0.63,-3.13 -0.995,-5.91 -1.13,-4.63 -1.76,-12.38 -0.63,-17.7 2.25,11.1 3.575,12.72 3.575,12.72 l 0.5,0.17 c 0.945,-1.33 1.2,-3.64 1.46,-5.725 1.11,-4.395 3.122,-3.93 3.122,-4.86 -0.63,-3.585 -1.626,-9.253 -1.005,-14.114 1.26,5.32 1.882,4.978 2.75,6.95 1.13,2.42 1.257,-0.59 1.257,-0.59 -0.246,-3.12 2.14,-6.245 -0.128,-13.534 -0.875,-4.97 -3.386,-15.616 -2.38,-18.05 0.63,-3 -0.504,-1.965 -0.504,-1.965 0,0 -3.267,0.7 -8.15,13.428 -7.146,21.17 -13.295,43.723 -19.946,62.003 2,-9.602 12.66,-43.496 15.805,-55.752 0,0 -0.44,-0.872 -1.125,0.11 -0.824,0.87 -1.635,1.965 -2.077,2.716 0.06,-0.044 -0.378,0.063 -0.87,0.3 l -1.58,2.193 c 0,0 -3.127,4.043 -11.72,12.26 -1.45,2.09 -2.07,3.043 -3.64,6.363 -0.567,1.217 0.31,1.39 1.253,0.7 2.31,-2.083 2.44,-2.083 5.64,-4.342 0.14,-0.1 2.72,-0.956 2.72,-0.997 -0.41,0.475 -0.955,0.79 -1.15,0.975 -0.89,0.773 -3.06,3.025 -3.65,3.982 -1.467,2.322 -3.05,5.21 -5.15,8.714 -2.63,4.387 -4.63,9.475 -4.63,9.475 -1.38,3.587 -1.004,3.933 -1.004,3.933 1.877,0.694 0.854,1.57 0.854,1.57 -0.853,1.44 -1.232,2.59 0.216,2.074 0.943,-0.176 1.443,-0.616 1.83,-1.064 0.743,-0.843 1.365,-1.424 1.88,-2.008 0.84,-0.97 0.676,-1.264 1.584,-2.217 1.17,-1.25 1.91,-2.29 3.11,-2.8 -2.08,2.6 -2.2,4.45 -2.2,4.45 l 0.508,0.572 0.363,0.235 c 0,0 -2.122,2.425 -3.12,7.933 -0.482,2.615 -0.383,2.94 -0.82,4.392 0.21,-0.184 1.45,0 2.55,-1.033 -0.473,1.61 -0.57,2.42 -0.57,2.42 -0.21,1.32 -0.21,1.092 -0.21,2.6 0,1.39 0,0.8 0.5,2.422 2.25,-0.926 2.75,-0.81 4.88,-3.12 1.006,-0.87 1.78,-2.983 2.085,-2.84 0.56,0.238 0.086,1.414 -0.17,1.93 -0.34,0.73 -0.644,1.27 -0.77,1.795 -0.07,0.27 -0.354,0.66 0.1,1.025 0.2,0.164 0.06,0.14 0.707,0.124 0.38,-0.01 0.738,-0.55 0.738,-0.55 0,0 0.2,-0.046 0.4,-0.448 0.14,-0.34 0.43,-0.53 0.68,-0.695 0,-0.007 0.38,-0.35 0.82,-0.24" />
    <path
       style="fill:#0c130f"
       inkscape:connector-curvature="0"
       id="path87"
       d="m 174.86,164.343 h -2.632 l 8.655,-18.164 -10.663,7.69 -2.45,-11.51 -5.574,15.68 -2.7,-1.91 -4.07,8.43 h -3.018 v 9.132 h 18.438 l 4.013,-9.368" />
    <path
       style="fill:#0c130f"
       inkscape:connector-curvature="0"
       id="path89"
       d="m 159.188,173.246 9.778,6.012 1.002,-2.664 -5.77,-3.463 -5.01,0.12" />
    <path
       style="fill:#0c130f"
       inkscape:connector-curvature="0"
       id="path91"
       d="m 161.95,171.975 5.262,4.974 c 0,0 -4.135,16.07 -3.385,24.87 7.657,6.82 13.3,13.42 12.42,28.22 0,0 0.5,0.34 -2.757,-0.58 1.632,1.62 2.127,2.89 3.508,5.66 0.626,4.51 1.012,8.56 0.626,12.72 0,0 0.387,10.29 0.757,13.53 1.51,0.46 0.63,4.167 0.76,9.028 0,0 -0.13,3.006 -0.64,5.322 -3.12,-2.318 -2.88,-2.197 -3.75,-1.967 0.75,2.303 1.25,2.303 2.77,4.16 0,13.77 0.5,27.996 1.5,34.245 0.5,4.51 1.38,9.71 1.76,11.336 0.75,2.08 0.75,3.923 3.01,8.325 -0.75,0 -2.85,0.06 -4.264,-1.61 2.01,3.464 2.01,2.774 3.266,3.93 l 1.75,12.03 -2,2.08 2.764,1.62 c 0,0 -0.63,5.44 0.12,10.41 0.37,2.312 1.125,4.63 2.89,7.864 -3.646,0.122 -4.27,-2.655 -4.27,-2.655 -1,-1.05 -2.76,-3.37 -3.264,-3.37 -0.25,3.367 1.755,4.64 2.63,6.605 2.56,5.65 2.896,11.107 0.63,21.625 -2.507,-2.192 -2.63,-4.166 -4.517,-5.2 -0.242,6.006 -0.494,7.86 -1.75,10.513 -2.63,4.747 -3.39,7.19 -3.51,11.817 -4.39,-3.364 -5.52,-7.987 -8.53,-10.646 -2.135,-1.964 -6.393,-5.67 -7.9,-8.1 -0.254,2.89 0,3.94 -1.257,6.71 -1.002,-3.21 -1.122,-4.16 -3.51,-6.816 -3.132,-4.055 -10.16,-13.074 -11.786,-22.676 -0.38,-1.623 -1.38,-6.364 -2.506,-12.846 -0.885,2.207 -2.38,3.938 -3.89,4.286 -0.76,0.35 -0.76,-0.575 -0.76,-0.575 0.63,-2.09 0.88,-4.4 0.63,-6.134 -0.373,-2.55 -1.127,-8.21 -2.51,-9.6 h -0.633 c 0.13,3.813 -1.503,5.55 -2.504,6.82 -0.127,-3.01 0,-5.315 -0.75,-6.82 -0.38,-1.05 -1.257,-1.966 -1.51,-0.93 -0.626,3.01 -0.877,3.59 -0.877,6.36 -0.248,4.17 -0.248,5.56 -0.758,9.03 -0.246,2.545 -1.126,5.664 -3.63,8.783 -0.5,-2.766 -2.383,-4.968 -2.383,-4.968 0,3.352 0.755,8.324 -1.5,10.99 -2.768,3.467 -3.146,5.202 -4.02,7.75 -0.38,-3.012 -1.38,-2.084 -1.877,-3.706 -2.013,7.86 -8.29,13.877 -10.543,15.26 1.507,-3.226 2.765,-6.935 3.015,-9.25 0,0 -0.38,-8.56 -1.767,-13.41 -3.43,-15.148 -5.09,-50.12 -2.5,-63.4 6.265,-47.658 33.11,-91.39 55.685,-130.718 l 6.27,-0.91 v -0.002" />
    <path
       style="fill:#ffffff"
       inkscape:connector-curvature="0"
       id="path93"
       d="m 164.58,176.714 c 0,0 -3.892,15.385 -3.135,26.147 5.272,4.17 10.913,9.84 11.165,21.52 -0.44,0.18 -0.5,0.06 -0.883,-0.23 -1.497,-1.78 -5.513,-2.37 -8.523,-6.87 0.44,2.84 9.29,14.177 9.912,16.37 0.12,7.06 1.25,17.297 0.618,19.317 l -3.01,-1.85 c 1.634,3.874 3.01,7.29 4.957,10.123 0,0 0.2,10 -0.19,8.61 h -0.5 c -1.75,-1.162 -3.51,-2.546 -4.82,-3.7 -0.82,-0.404 -0.94,-1.384 -2.45,-2.726 -2.25,-1.905 -3.51,-3.525 -4.45,-3.874 -2.39,-1.558 -4.01,-2.08 -5.39,-2.48 -0.43,0 -1.31,-0.12 -1.31,-0.12 0,0 4.52,3.53 7.4,7.52 3.456,3.816 4.896,6.07 6.08,8.375 1.32,2.324 3.205,4.63 4.708,6.596 0,3.19 -0.25,13.768 -0.062,15.56 l -0.94,-0.64 c -2.25,-1.27 -4.7,-4.11 -6.773,-7.81 -1.125,5.33 5.018,11.57 7.84,13.65 0.94,9.89 0.94,14.51 2.703,24.92 l -0.13,0.81 c -2.516,-1.61 -5.143,-4.17 -8.28,-8.32 -0.25,4.048 4.14,9.37 8.78,14.458 0.61,0.68 0.45,1.57 0.78,2.346 0.55,1.277 1.1,2.865 1.79,3.73 0.564,2.25 0.814,5.264 0.69,6.536 l -1.882,3.355 2.507,2.78 c 0.25,3.003 -0.373,3.81 0,7.165 0,0 -2.88,-0.23 -4.14,-3.245 -2.253,5.793 0.256,12.272 2.26,15.624 1.505,3.93 2.38,6.355 2.13,10.635 l -0.505,1.267 c -1.5,-2.77 -3.63,-5.08 -5.77,-6.584 l -0.87,-0.223 c 2.11,12.17 1.38,16.186 -2.63,23.95 l -0.633,-0.585 c -2.254,-4.057 -6.515,-7.18 -9.52,-10.064 -0.51,-0.116 -5.77,-6.25 -6.156,-11.228 l -0.62,0.12 c -0.25,1.738 -1.01,5.44 -0.5,6.13 l -0.507,-0.23 c -3.007,-1.276 -8.466,-11.1 -9.4,-16.766 0,0 -0.2,-1.106 -0.633,-3.36 -0.19,-2.195 -1.44,-8.907 -1.692,-9.835 -0.44,-2.485 -1.584,-5.627 -2.062,-7.283 0.065,-0.58 -0.374,-0.755 -0.69,-0.29 -0.693,0.91 -1.25,1.786 -1.633,1.21 -0.313,-0.577 -0.06,-1.5 0.19,-2.774 -0.5,0.344 -1.625,0.49 -1.755,-0.346 -1.385,-5.668 -2.13,-12.725 -2.13,-18.51 0.63,-1.5 2.38,-4.27 3.762,-7.29 l -0.127,-0.688 c -1.51,0.686 -4.02,3.004 -4.52,4.27 l -0.63,-0.804 c -0.5,-2.32 -1,-6.83 -1,-11.57 -0.25,-0.87 0.12,-1.383 0.506,-2.085 0.996,-2.192 2.134,-4.65 3.005,-7.056 0.76,-2.44 4.96,-9.946 6.22,-11.69 l -0.826,0.69 c -2.31,0.76 -8.27,7.408 -9.02,7.87 l -0.566,0.05 c 0.31,-6.65 2.32,-21.452 3.697,-30.54 1.384,-3.41 12.17,-13.82 9.656,-11.97 -4.882,1.62 -6.512,3.24 -7.523,3.7 l -1.502,0.468 c 1.5,-6.46 4.616,-29.8 7.907,-36.092 2.38,-3.82 4.768,-4.86 6.52,-9.027 l -1.26,0.576 c -0.872,0.815 -4.766,3.475 -7.143,6.485 l -0.763,0.11 c 1.13,-3.005 1.51,-6.24 3.766,-10.41 0.62,-1.74 1.63,-2.43 2.39,-3.932 1.874,-2.204 2.63,-3.013 4.387,-3.82 0.87,-0.34 2.507,-0.92 2.507,-0.92 -5.004,18.942 -6.77,34.343 -8.28,55.403 -1.505,33.55 1.547,74.147 13.806,99.256 -9.79,-29.38 -13.553,-61.304 -12.298,-93.695 1,-27.77 5.51,-49.98 15.305,-87.455 l 2.13,1.27 0.004,0.004" />
    <path
       style="fill:#ffffff"
       inkscape:connector-curvature="0"
       id="path95"
       d="m 157.934,173.822 c -3.133,3.937 -24.71,41.416 -26.84,48.245 -19.054,35.278 -30.353,70.442 -29.598,105.037 0,15.15 1.763,25.565 3.76,36.666 0.882,4.276 2.133,10.06 1.882,13.76 l 0.634,-0.345 c 0.874,-1.505 3.255,-6.242 4.015,-10.174 0.253,-1.5 1.128,0 1.128,0 0.368,1.04 1.126,1.51 1.252,2.54 0,0.93 0.493,0.82 0.75,0.12 1.378,-2.54 1.756,-4.05 1.25,-6.7 -0.5,-2.19 -0.87,-11.33 0.253,-14.69 0,-0.93 0.876,0 0.876,0 0.633,1.39 1.635,3.94 3.885,6.02 0,0 0.95,0.58 1.01,0 -0.24,-2.43 -0.49,-18.28 3.52,-20.02 1.5,0.35 1.63,1.28 2.76,2.32 1.26,-1.27 1.77,-6.71 1.39,-10.872 0.13,-6.475 -0.88,-12.96 -1.503,-17 -0.526,-1.275 0,-1.51 0.75,-1.744 0.186,-0.125 3.01,-3.353 3.01,-5.083 -2.373,1.503 -3.01,1.85 -5.27,3.245 -0.25,-4.98 -2.63,-12.843 -5.26,-18.983 2.76,2.327 4.508,4.98 5.39,7.18 1,-5.09 1.38,-8.104 1.506,-10.533 -1.375,-4.51 -4.01,-14.336 -3.76,-21.63 1.63,5.32 3.13,11.107 4.767,14.58 0.752,-2.553 1.377,-7.063 2.38,-10.88 1.374,-0.926 3.01,-1.85 3.51,-2.654 -0.504,-0.817 -2.64,0.694 -3.01,0.8 0.25,-3.586 0.873,-10.525 -1.756,-21.86 l 0.37,-0.35 c 1.13,0.467 2.51,2.547 3.01,4.75 2.26,-2.43 3.77,-14.46 4.39,-19.2 -2.38,0 -3.504,2.425 -5.14,2.19 0.25,-1.506 0.377,-0.804 1,-2.19 0.63,-1.626 2.14,-3.25 2.765,-5.443 1.38,-1.85 1.38,-4.05 1.51,-6.13 0,-1.967 -0.25,-4.857 1.5,-7.404 0.382,1.032 0.13,1.736 1,3.93 0,0 3.52,-7.056 5.4,-8.67 2.5,-10.066 8.522,-21.404 14.172,-28.81" />
    <path
       style="fill:#ffffff"
       inkscape:connector-curvature="0"
       id="path97"
       d="m 159.06,180.183 c -4.14,5.445 -7.152,14 -8.66,20.132 1.882,-0.927 2.008,-0.816 3.765,-1.388 0.63,-2.896 5.575,-19.634 4.895,-18.744" />
    <path
       style="fill:#ffb612"
       inkscape:connector-curvature="0"
       id="path99"
       d="m 117.576,312.273 c 0.075,0.336 0.658,0.127 0.35,0.462 0.752,0 1.536,0.135 2.232,-0.062 0.353,-0.094 0.593,-0.603 0.655,-0.88 0.205,-0.968 0.722,-2.202 -0.22,-2.88 -0.83,-0.62 -0.685,-1.6 -1.27,-2.075 -0.27,-0.218 -0.845,-0.366 -1.235,-0.727 -0.29,-0.27 -0.817,0.34 -0.815,0.62 0.015,0.76 0.56,1.53 0.546,2.34 -0.02,1.24 -0.65,1.59 -0.25,3.22" />
    <path
       style="fill:#ffb612"
       inkscape:connector-curvature="0"
       id="path101"
       d="m 108.522,301.642 c -0.085,-1.34 -0.564,-3.23 1.6,-2.7 0.68,0.16 0.837,1.092 0.853,1.542 0.036,1.213 0.335,2.18 0.893,3.242 0.32,0.6 -0.22,1.123 -0.547,1.552 -0.83,1.145 -2.56,1.792 -3.55,0.664 -0.6,-0.685 -1.33,-1.712 -0.79,-2.65 0.43,-0.735 0.77,-1.135 1.42,-1.777" />
    <path
       style="fill:#ffb612"
       inkscape:connector-curvature="0"
       id="path103"
       d="m 110.694,315.412 c -1.138,-1.51 -0.605,-2.916 0.727,-3.812 0.85,-0.564 1.87,-0.185 2.11,0.48 l 1.52,3.937 c 0.48,1.41 -1.46,2.774 -2.82,2.16 -0.97,-0.457 -0.9,-1.937 -1.52,-2.765" />
    <path
       style="fill:#ffb612"
       inkscape:connector-curvature="0"
       id="path105"
       d="m 111.86,320.894 c -0.544,-0.157 -0.596,0.276 -0.865,0.5 -0.566,0.446 -0.568,1.384 -1.06,2 -0.92,1.14 -0.643,2.755 -0.28,3.844 0.242,0.747 1.453,1.836 2.483,1.753 1.628,-0.12 2.832,-2.91 1.59,-3.58 -1.615,-0.88 -1.047,-3.1 -1.642,-4.31 -0.044,-0.08 -0.43,-0.03 -0.684,-0.03" />
    <path
       style="fill:#ffb612"
       inkscape:connector-curvature="0"
       id="path107"
       d="m 122.21,318.04 c -0.417,-0.512 -0.435,-1.2 0.043,-1.53 0.44,-0.295 1.2,-0.152 1.644,0.2 l 0.72,0.475 c 1.348,0.987 2.173,2.31 1.444,3.823 -0.19,0.425 -1,0.828 -1.56,0.44 -0.43,-0.3 -1.03,-0.32 -1.34,-0.832 -0.48,-0.836 -0.28,-1.78 -0.95,-2.576" />
    <path
       style="fill:#ffb612"
       inkscape:connector-curvature="0"
       id="path109"
       d="m 107.385,308.69 c -0.242,-0.738 -0.92,-0.376 -1.296,0.16 -0.89,1.27 -1.34,2.5 -1.46,4.35 0.25,1.037 1.86,1.236 2.65,0.774 1.79,-1.038 0.51,-5.02 0.42,-4.47 0.05,-0.357 -0.33,-0.892 -0.33,-0.812 v -0.002" />
    <path
       style="fill:#ffb612"
       inkscape:connector-curvature="0"
       id="path111"
       d="m 142.265,320.14 c -0.366,-0.257 -0.972,0 -1.006,0.414 -0.14,1.187 -0.16,3.438 1.79,3.072 0.69,-0.125 1.15,-0.786 0.99,-1.457 -0.24,-0.97 -1.01,-1.5 -1.79,-2.04" />
    <path
       style="fill:#ffb612"
       inkscape:connector-curvature="0"
       id="path113"
       d="m 146.953,324.357 c -0.476,-0.437 -1.317,-0.367 -1.67,-0.12 -0.715,0.512 -0.982,1.593 -0.727,2.41 0.28,0.89 0.608,1.84 1.322,2.528 0.46,0.442 1.413,0.954 1.666,0.635 0.586,-0.766 1.132,-1.787 0.872,-2.89 -0.24,-0.98 -0.726,-1.856 -1.463,-2.562" />
    <path
       style="fill:#ffb612"
       inkscape:connector-curvature="0"
       id="path115"
       d="m 164.89,322.97 c -0.35,0.03 -0.792,0.074 -0.935,0.272 -0.7,1.014 0.068,2.194 0.998,2.618 0.975,0.462 2.205,-1.056 1.482,-1.893 -0.46,-0.546 -1.187,-1.014 -2.043,-0.996" />
    <path
       style="fill:#ffb612"
       inkscape:connector-curvature="0"
       id="path117"
       d="m 156.282,333.613 c -0.362,-0.17 -0.93,-1.24 -0.652,-1.958 0.256,-0.642 1.048,-0.9 1.723,-0.792 0.777,0.135 1.274,0.64 1.713,1.17 1.15,1.363 1.473,3.49 -0.017,4.63 -0.61,0.475 -1.7,0.363 -2.13,-0.305 -0.55,-0.834 -0.14,-1.503 -0.56,-2.396 l -0.09,-0.348" />
    <path
       style="fill:#ffb612"
       inkscape:connector-curvature="0"
       id="path119"
       d="m 166.7,334.36 c -1.024,-0.738 -0.6,-2.22 -1.728,-2.885 -0.63,-0.38 -1.465,-0.472 -2.05,-0.022 -0.613,0.493 -0.61,1.2 -0.768,1.94 -0.085,0.41 0.202,0.772 0.397,1.127 0.83,1.555 2.83,1.606 4.39,2.484 0.21,0.117 0.62,-0.28 0.77,-0.53 0.49,-0.777 -0.29,-1.6 -1.01,-2.114" />
    <path
       style="fill:#ffb612"
       inkscape:connector-curvature="0"
       id="path121"
       d="m 150.103,332.903 c -0.53,-0.59 -1.44,-0.396 -1.985,-0.055 -0.187,0.115 -0.372,0.42 -0.372,0.65 -0.012,1.504 -0.555,3.063 0.04,4.486 0.36,0.86 1.188,1.9 2.26,1.46 0.77,-0.314 1.246,-1.172 0.988,-1.997 -0.476,-1.528 0.23,-3.252 -0.933,-4.544 h 0.01" />
    <path
       style="fill:#ffb612"
       inkscape:connector-curvature="0"
       id="path123"
       d="m 178.49,333.362 c -0.328,-1.054 -2.383,0.016 -3.12,-0.66 -0.648,-0.592 -1.427,-1.123 -1.544,-2.057 -0.523,1.1 -0.107,2.238 0.447,3.21 0.315,0.554 1.044,0.852 1.513,1.343 0.536,0.53 0.724,1.265 1.026,1.936 0.383,0.875 -0.547,1.38 -1.13,1.485 -1.837,0.31 -1.89,-2.12 -2.468,-3.3 -0.406,-0.84 -1.576,-1.18 -2.197,-1.95 -0.15,-0.18 -0.42,-0.37 -0.562,-0.59 -0.518,-0.86 -1.572,-1.46 -2.03,-2.37 -0.083,0.39 0.06,0.783 0.188,1.133 0.874,2.556 2.282,4.81 3.492,7.22 0.34,0.67 0.716,1.33 0.923,2.06 0.186,0.625 0.085,1.373 -0.308,1.76 -0.387,0.4 -1.31,-0.463 -1.498,-0.174 -0.666,1.08 0.373,2.372 0.967,3.43 0.42,0.75 1.17,1.5 0.82,2.36 -0.07,0.167 -0.32,0.395 -0.58,0.46 -0.89,0.22 -1.67,-0.31 -2.14,-0.77 -1.85,-1.784 -3.47,-3.58 -4.93,-5.724 -0.57,-0.82 -0.26,-1.89 -0.88,-2.7 -0.36,-0.464 -1.05,-1.215 -1.67,-0.703 -0.2,0.178 -0.45,0.41 -0.49,0.67 -0.2,1.056 -0.43,2.04 -1.12,2.82 -0.2,0.22 -0.59,0.58 -0.66,0.716 -0.95,1.61 -1.16,3.47 -1.47,5.36 -0.08,0.45 -0.2,1.01 -0.7,1.24 -0.53,0.26 -0.887,-0.26 -1.17,-0.596 -0.767,-0.865 -1.07,-1.897 -1.6,-2.886 -0.318,-0.62 -0.33,-1.376 -0.75,-2.026 l -0.23,-0.015 c 0.07,0.175 -0.1,0.333 -0.18,0.444 -0.504,0.8 -1.326,1.163 -2.225,1.48 -0.493,0.173 -1.05,-0.16 -1.16,-0.55 -0.605,-2.25 -2.28,-3.84 -2.96,-5.997 -1.04,0 -2.06,0.22 -2.74,-0.716 -1.498,-2.04 -1.198,-4.333 -1.395,-6.574 -0.333,0.266 -0.74,0.453 -0.983,0.817 -2.38,3.535 -3.293,7.21 -4.31,11.21 -0.2,0.8 -0.33,1.1 -0.6,1.85 -0.567,1.57 0.31,1.794 1.19,0.752 1.54,-1.83 1.22,-0.32 1.377,0.117 0.38,2.673 1.88,5.323 2.5,9.835 0.51,4.39 1.51,8.79 2.01,10.985 1.332,7.22 6.52,14.578 9.66,16.4 -0.377,-3.005 0.75,-4.14 0.5,-6.46 l 0.634,-0.114 c 0.115,4.053 3.38,9.26 7.14,12.153 3.01,3.233 4.642,3.925 7.18,7.28 0.75,1.157 1.35,1.69 1.98,2.614 1.375,-2.617 3.886,-7.24 3.886,-12.33 0,-3.91 -0.13,-8.33 -1.253,-11.81 2.26,0.935 4.77,4.285 6.65,7.185 1.13,-2.21 0.5,-8.33 -1.25,-11.34 -1.756,-3.7 -4.64,-8.79 -2.635,-16.31 1.25,2.655 2.13,2.54 4.14,3.003 0.38,-2.78 -0.13,-6.71 0,-7.17 -0.76,-1.266 -2.506,-2.788 -2.506,-2.788 l 1.877,-3.348 c 0.88,-3.355 -0.87,-6.02 -0.685,-6.536 -0.95,-1.91 -1.592,-3.543 -1.99,-4.81 v 0.003" />
    <path
       style="fill:#ffb612"
       inkscape:connector-curvature="0"
       id="path125"
       d="m 156.797,314.778 c -0.273,-0.716 -1.037,-1.246 -0.63,-1.958 0.112,-0.2 0.527,-0.15 0.83,-0.215 0.893,-0.22 1.95,-0.09 2.54,0.493 0.464,0.46 0.78,1.005 1.166,1.577 0.39,0.59 0.496,1.297 0.75,1.95 0.288,0.72 -0.028,1.517 -0.638,1.858 -0.708,0.395 -1.01,0.734 -2.048,0.305 -0.39,-0.16 -0.63,-0.934 -0.815,-1.233 -0.24,-0.4 -0.222,-1.533 -0.54,-1.905 -0.29,-0.32 -0.448,-0.432 -0.616,-0.87 h 0.002" />
    <path
       style="fill:#ffb612"
       inkscape:connector-curvature="0"
       id="path127"
       d="m 156.12,318.685 c -0.304,-0.27 -0.706,-0.255 -1.024,-0.277 -0.152,-0.007 -0.594,0.024 -0.577,0.282 0.1,1.402 -1.66,2.06 -2.2,3.165 -0.54,1.146 0.56,2.23 1.47,3.003 0.73,0.618 1.88,0.2 2.76,-0.05 1.452,-0.404 1.64,-2.286 1.3,-3.554 -0.264,-0.958 -0.92,-1.815 -1.75,-2.57" />
    <path
       style="fill:#ffffff"
       inkscape:connector-curvature="0"
       id="path129"
       d="m 172.787,167.237 h -17.242 v 3.7 h 15.74 l 1.502,-3.7" />
    <path
       style="fill:#ffffff"
       inkscape:connector-curvature="0"
       id="path131"
       d="m 170.843,156.884 0.63,2.72 3.264,-5.85 -3.893,3.13" />
    <path
       style="fill:#ffffff"
       inkscape:connector-curvature="0"
       id="path133"
       d="m 158.933,164.396 1.752,-3.988 5.024,3.988 h -6.78" />
    <path
       style="fill:#ffffff"
       inkscape:connector-curvature="0"
       id="path135"
       d="m 164.7,160.002 2.323,-7.634 1.622,10.755 -3.945,-3.12" />
    <path
       style="fill:#ffb612"
       inkscape:connector-curvature="0"
       id="path137"
       d="m 101.87,313.37 c 0.128,1.038 0.11,0.405 0.654,1.272 0.503,0.778 0.222,1.827 0.607,2.72 0.33,-0.385 0.94,-0.562 1,-1.15 0.48,1.79 -0.93,3.515 -0.24,5.315 0.77,-0.635 1.9,-0.78 2.51,-1.626 -0.05,0.72 -0.26,1.41 -0.37,2.11 -0.193,1.21 0.335,2.42 0.49,3.68 0.185,1.59 2.323,2.78 1.714,4.35 -0.99,2.54 -1.516,5.23 -0.62,7.63 0.19,0.508 0.466,1.35 1.098,1.62 0.48,0.2 1.207,0.21 1.677,0 0.257,-0.12 0.474,-0.5 0.522,-0.86 0.195,-1.113 -0.34,-2.16 -0.125,-3.22 0.27,-1.386 0.536,-2.77 1.49,-3.88 0.195,-0.225 0.927,-0.152 1.094,0.195 0.63,1.304 0.375,2.86 1.21,4.057 0.285,0.407 1.274,0.695 1.8,0.247 1.17,-1.007 0.74,-2.58 0.894,-3.89 0.25,-2.17 -0.854,-3.33 -1.17,-5.54 -0.29,-2.07 0.13,-2.38 0.844,-3.23 0.753,1.94 0.76,4.05 2.278,5.77 0.327,0.362 0.92,0.374 1.174,0.182 1.1,-0.875 0.88,-2.777 0.08,-4.01 -1.216,-1.88 -2.21,-4.85 -0.01,-6.57 -0.14,0.95 -0.128,2.022 0.402,2.73 0.73,0.97 2.08,2.97 2.27,4.893 0.077,0.682 1.138,0.957 1.79,0.42 0.114,-0.1 -0.03,-0.556 0.315,-0.594 1.05,-0.136 1.55,1.01 1.496,1.8 0.418,0 0.974,0.134 1.187,-0.064 1.013,-0.956 0.767,-3.233 0.83,-4.555 0.11,-2.44 0.744,-1.51 1.178,-1.75 0,0 0.19,1.167 -0.06,4.516 0.378,4.17 -0.12,9.61 -1.382,10.874 -1.125,-1.036 -1.25,-1.966 -2.752,-2.317 -4.01,1.74 -3.76,17.594 -3.515,20.016 -0.06,0.58 -1.006,0 -1.006,0 -2.25,-2.08 -3.253,-4.63 -3.884,-6.01 0,0 -0.875,-0.93 -0.875,0 -1.124,3.35 -0.75,12.49 -0.25,14.69 0.5,2.653 0.125,4.156 -1.253,6.7 -0.25,0.7 -0.746,0.816 -0.746,-0.114 -0.13,-1.037 -0.89,-1.498 -1.255,-2.55 0,0 -0.873,-1.494 -1.125,0 -0.76,3.93 -3.14,8.68 -4.017,10.183 l -0.634,0.346 c 0.25,-3.697 -1,-9.48 -1.88,-13.765 -2,-11.11 -4.015,-21.514 -4.015,-36.67 0,-6.83 0.404,-14.165 0.404,-14.165 l 0.22,0.22 h -0.002" />
    <path
       style="fill:#ffb612"
       inkscape:connector-curvature="0"
       id="path139"
       d="m 153.89,341.643 c 1.782,5.214 4.036,12.268 5.55,14.93 -0.382,-3.008 -4.77,-14.93 -4.646,-15.73 0.125,-0.814 -0.903,0.8 -0.903,0.8" />
    <path
       style="fill:#ffffff"
       inkscape:connector-curvature="0"
       id="path141"
       d="m 292.155,145.792 c -0.375,-0.387 -1.727,-0.185 -1.964,-0.716 -0.16,-0.36 -0.36,-0.776 -0.6,-0.956 -0.41,-0.306 -0.99,0.114 -1.56,0.2 -0.77,0.11 -1.6,-0.042 -2.38,-0.28 -1.34,1.428 -4.93,0.48 -6.62,0.596 -0.21,0.008 1.07,0.677 1.3,0.858 1.188,0.937 3.148,0.854 4.595,0.9 0.24,0.01 0.71,-0.226 0.893,-0.246 1.557,-0.194 3.105,0.302 4.747,0.56 0.512,0.08 2.126,-0.414 1.61,-0.913 v -0.003" />
    <path
       style="fill:#ffffff"
       inkscape:connector-curvature="0"
       id="path143"
       d="m 316.535,147.796 -3.72,-1.964 c -0.227,-0.337 -0.515,-0.747 -0.872,-1.053 -0.837,-0.71 -1.278,-1.55 -2.244,-2.11 -1.28,-0.76 -2.34,-1.73 -3.74,-2.21 l -0.49,-0.03 c -0.11,-0.02 -0.17,-0.11 -0.15,-0.227 -0.12,0 -0.28,0.044 -0.36,-0.016 -0.19,-0.2 -0.487,-0.313 -0.67,-0.37 -0.727,-0.22 -1.56,0.18 -2.203,-0.34 -0.364,-0.3 -0.79,-0.48 -1.2,-0.715 -1.11,-0.66 -2.38,-0.26 -3.57,-0.087 -0.24,0.032 -0.59,0.322 -0.84,0.524 -0.454,0.362 -1.195,-0.287 -1.794,-0.1 -0.525,0.16 -1.106,0.722 -0.604,1.18 0.543,0.5 1.245,0.844 1.984,1.01 2.154,0.5 4.42,0.01 6.453,0.84 0.588,0.236 1.31,0.51 1.55,1.204 -0.205,0.035 -0.43,0.21 -0.61,0.085 -0.5,-0.33 -1.04,-0.323 -1.53,-0.36 -3.43,-0.26 -6.85,-0.52 -10.28,-0.08 0,0.81 0.345,1.66 1.144,1.76 1.066,0.13 2.21,-0.175 3.23,-0.1 1.12,0.074 2.313,0.74 3.43,1.32 0.15,0.08 0.415,0.075 0.59,0 0.504,-0.186 0.94,-0.85 1.498,-0.615 0.34,0.154 0.696,0.29 1.053,0.35 0.79,0.12 1.35,-0.01 2.1,0.09 1.58,0.215 2.94,1.193 4.5,0.983 1.18,-0.16 1.72,0.2 2.3,0.69 -0.34,-0.275 2.16,1.37 2.37,0.962 0.09,-0.154 2.627,-0.29 2.65,-0.646 h 0.004" />
    <path
       style="fill:#ffffff"
       inkscape:connector-curvature="0"
       id="path145"
       d="m 325.61,147.088 c -1.01,-0.587 -1.124,-1.747 -1.665,-2.606 -0.412,-0.656 -0.966,-1.186 -1.625,-1.5 -2.948,-1.41 -6.386,-3.86 -8.58,-3.674 -0.69,0.062 -0.97,0.75 -0.576,1.106 0.755,0.673 2.085,0.903 2.2,2.008 2.936,1.353 8.098,2.26 7.855,5.214 -0.02,0.286 1.89,-0.61 2.39,-0.55 v 0.002" />
    <path
       style="fill:#ffb612"
       inkscape:connector-curvature="0"
       id="path147"
       d="m 155.546,167.237 18.495,-0.028 c -1.01,1.84 -1.61,3.74 -1.61,3.74 l -16.88,-0.02 v -3.7" />
  </g>
</svg>
