<?xml version="1.0" encoding="UTF-8" standalone="no"?>
<svg
   xmlns:dc="http://purl.org/dc/elements/1.1/"
   xmlns:cc="http://creativecommons.org/ns#"
   xmlns:rdf="http://www.w3.org/1999/02/22-rdf-syntax-ns#"
   xmlns:svg="http://www.w3.org/2000/svg"
   xmlns="http://www.w3.org/2000/svg"
   xmlns:sodipodi="http://sodipodi.sourceforge.net/DTD/sodipodi-0.dtd"
   xmlns:inkscape="http://www.inkscape.org/namespaces/inkscape"
   width="500px"
   height="500px"
   viewBox="0 0 500 500"
   version="1.1"
   id="svg57"
   sodipodi:docname="washington-football-team.svg"
   inkscape:version="0.92.5 (2060ec1f9f, 2020-04-08)">
  <metadata
     id="metadata63">
    <rdf:RDF>
      <cc:Work
         rdf:about="">
        <dc:format>image/svg+xml</dc:format>
        <dc:type
           rdf:resource="http://purl.org/dc/dcmitype/StillImage" />
      </cc:Work>
    </rdf:RDF>
  </metadata>
  <defs
     id="defs61" />
  <sodipodi:namedview
     pagecolor="#ffffff"
     bordercolor="#666666"
     borderopacity="1"
     objecttolerance="10"
     gridtolerance="10"
     guidetolerance="10"
     inkscape:pageopacity="0"
     inkscape:pageshadow="2"
     inkscape:window-width="640"
     inkscape:window-height="480"
     id="namedview59"
     showgrid="false"
     inkscape:zoom="0.472"
     inkscape:cx="250"
     inkscape:cy="250"
     inkscape:window-x="0"
     inkscape:window-y="0"
     inkscape:window-maximized="0"
     inkscape:current-layer="svg57" />
  <title
     id="title2">Team Logos / NFL / Duotone / WAS@1x</title>
  <g
     id="Team-Logos-/-NFL-/-Duotone-/-WAS"
     transform="matrix(0.63559322,0,0,0.66101695,53.203393,79.338993)"
     style="fill:none;fill-rule:evenodd;stroke:none;stroke-width:1">
    <g
       id="WAS">
      <circle
         id="Oval"
         cx="250.27658"
         cy="250.30495"
         r="243.66817"
         style="fill:#5d0024;fill-rule:nonzero" />
      <path
         d="m 250.00365,12.097565 c 96.23207,-0.02446 183.00098,57.928751 219.8387,146.830915 36.83773,88.90217 16.48796,191.24134 -51.55839,259.2877 C 350.2376,486.26254 247.89844,506.6123 158.99627,469.77458 70.094108,432.93685 12.140903,346.16794 12.16536,249.93586 12.198758,118.59524 118.66303,12.130963 250.00365,12.097565 M 250.00365,0 C 148.88406,0 57.7225,60.916205 19.031364,154.34086 -19.659773,247.76552 1.7399416,355.29816 73.250936,426.79185 144.76193,498.28555 252.29973,519.65924 345.71502,480.94549 439.13031,442.23175 500.02445,351.05545 500,249.93586 499.83327,111.9456 387.99394,0.13332 250.00365,0 Z"
         id="Shape"
         inkscape:connector-curvature="0"
         style="fill:#ffffff;fill-rule:nonzero" />
      <polygon
         id="Path"
         points="77.255576,305.01393 89.13649,333.64643 83.012308,336.11268 74.193485,315.05937 67.701851,317.70607 76.336949,338.75938 70.212766,341.22563 61.577669,320.23247 49.145578,325.16496 45.961003,317.58576 "
         style="fill:#ffc20e;fill-rule:nonzero" />
      <path
         d="m 71.697834,369.45507 c -7.189048,-11.02097 -6.476085,-18.00092 2.79244,-24.49105 l 2.079477,-1.46946 c 9.268526,-6.4289 15.922852,-4.46962 23.052487,6.49013 l 1.425922,2.14296 c 7.12964,11.02097 6.41668,18.00092 -2.792436,24.49105 l -2.13889,1.46946 c -9.268526,6.12276 -15.863438,4.46962 -23.052487,-6.49013 z m 20.438287,1.22455 1.188272,-0.91841 c 5.40664,-3.73489 6.832567,-6.79627 1.96065,-14.38849 l -0.712963,-1.22456 c -4.871918,-7.59222 -8.377321,-7.22485 -13.60572,-3.42874 l -1.247687,0.91841 c -5.228399,3.73489 -6.832566,6.79627 -1.901236,14.38849 l 0.65355,1.22455 c 4.931331,7.40854 8.258494,7.22486 13.665134,3.42875"
         id="path7"
         inkscape:connector-curvature="0"
         style="fill:#ffc20e;fill-rule:nonzero" />
      <path
         d="m 102.49878,406.46051 c -9.449692,-8.78935 -10.28174,-15.66537 -2.615008,-23.9166 l 1.723528,-1.91333 c 7.72617,-8.25122 14.50142,-7.95226 23.77281,0.83709 l 1.90183,1.79374 c 9.44969,8.78935 10.34117,15.60558 2.61501,23.91659 l -1.72353,1.91333 c -7.66673,8.25123 -14.50142,7.89248 -23.77281,-0.89687 z m 20.08803,-3.34833 1.06977,-1.07624 c 4.33854,-4.72353 5.23002,-8.07185 -1.24807,-14.051 l -1.06977,-0.89688 c -6.41866,-5.97914 -9.74686,-4.9029 -14.14483,0 l -1.01034,1.01646 c -4.39797,4.78332 -5.23002,8.07185 1.18864,14.051 l 1.06977,0.89687 c 6.4781,5.97915 9.80629,4.9029 14.14483,0"
         id="path9"
         inkscape:connector-curvature="0"
         style="fill:#ffc20e;fill-rule:nonzero" />
      <polygon
         id="polygon11"
         points="167.49095,419.14362 156.28257,412.54501 142.36447,434.54039 135.09749,430.14131 149.01559,408.14593 137.80721,401.48787 141.62545,395.54318 171.30919,413.19893 "
         style="fill:#ffc20e;fill-rule:nonzero" />
      <path
         d="m 181.73201,453.59342 -21.56488,-8.17324 11.29303,-31.77116 20.84404,7.74307 c 8.64998,3.25701 10.93261,6.51401 9.0104,12.29058 v 0.55308 c -1.5618,4.36316 -4.02465,6.14529 -7.92915,5.03914 v 0.36872 c 1.79276,0.51758 3.24935,1.85675 3.9432,3.6253 0.69384,1.76855 0.54641,3.76634 -0.39911,5.40827 l -0.36042,0.9218 c -1.92221,6.14529 -6.00693,7.25144 -14.4767,4.1788 m -9.01039,-18.43588 -2.46284,7.06709 12.01386,4.48606 c 4.56526,1.59778 6.00693,1.41342 7.0281,-1.29051 v 0 c 1.08125,-2.88829 0,-3.93299 -4.56526,-5.59222 z m 1.92222,-5.77657 12.37427,4.48606 c 3.7243,1.47487 5.10589,1.29051 6.00693,-1.22906 v 0 c 0.90104,-2.51957 0,-3.62572 -4.08471,-5.22349 l -12.01386,-4.54752 z"
         id="path13"
         inkscape:connector-curvature="0"
         style="fill:#ffc20e;fill-rule:nonzero" />
      <path
         d="m 234.61776,463.9262 -2.4586,-7.70843 -18.34958,-2.68899 -4.37752,6.87186 -8.87496,-0.89633 19.7288,-30.53495 12.35299,1.61339 11.0937,34.59831 z m -16.91039,-16.37295 11.99319,1.55364 -3.89779,-13.5047 h -0.3598 z"
         id="path15"
         inkscape:connector-curvature="0"
         style="fill:#ffc20e;fill-rule:nonzero" />
      <polygon
         id="polygon17"
         points="259.02329,457.76631 279.41089,456.39099 279.94429,463.20778 251.55574,465.18106 249.30362,432.29304 257.30457,431.75488 "
         style="fill:#ffc20e;fill-rule:nonzero" />
      <polygon
         id="polygon19"
         points="294.19848,453.55264 314.51827,448.51709 316.15599,455.3335 287.9509,462.39554 279.94429,429.54169 287.9509,427.5766 "
         style="fill:#ffc20e;fill-rule:nonzero" />
      <polygon
         id="polygon21"
         points="351.83429,408.69604 340.51443,414.70486 352.36769,437.8388 345.25573,441.50418 333.40248,418.43033 322.08262,424.37905 318.9415,418.25006 348.69318,402.50696 "
         style="fill:#ffc20e;fill-rule:nonzero" />
      <polygon
         id="polygon23"
         points="373.76619,418.72171 391.48609,404.30137 395.54318,409.51724 371.32001,428.96936 350.97493,402.46048 375.01911,383.00836 379.01653,388.22422 361.35629,402.64457 365.5327,408.04452 383.2526,393.62418 387.25002,398.84005 369.58978,413.32175 "
         style="fill:#ffc20e;fill-rule:nonzero" />
      <path
         d="m 422.93344,377.18071 -8.04789,-2.24682 -12.19377,14.45255 3.59716,7.5299 -6.09689,6.98338 -15.79094,-33.58093 8.53565,-9.59456 36.0326,9.29093 z m -23.1072,5.70815 8.04789,-9.65527 -14.14478,-3.76495 v 0 z"
         id="path25"
         inkscape:connector-curvature="0"
         style="fill:#ffc20e;fill-rule:nonzero" />
      <polygon
         id="polygon27"
         points="413.50975,343.12093 413.33068,343.48276 437.02746,354.63918 433.68484,362.11699 403.89972,348.12624 409.86868,335.16067 434.58018,335.34159 434.75925,334.97976 418.58337,315.86308 424.25388,303.62117 454.039,317.61192 450.69638,324.90882 427.05929,313.6921 426.88022,314.05393 445.44369,336.24616 442.10107,343.30184 "
         style="fill:#ffc20e;fill-rule:nonzero" />
      <polygon
         id="polygon29"
         points="252.3454,237.36133 280.92349,321.72702 333.66911,321.72702 366.29526,200.73841 307.87028,200.73841 322.79372,213.18778 306.48065,285.4667 304.84934,285.4667 277.17753,200.73841 227.09033,200.73841 201.53318,285.4667 199.90187,285.4667 180.20534,200.73841 123.95543,200.5571 144.55824,217.84119 167.94032,321.72702 224.61316,321.72702 "
         style="fill:#ffc20e;fill-rule:nonzero" />
      <polygon
         id="polygon31"
         points="408.53547,161.00771 403.89972,151.08482 430.25029,139.11722 431.65321,133.70473 440.80272,153.30995 428.42039,180.7332 428.60338,181.15417 445.31647,173.51656 447.14637,166.78102 454.039,181.57514 424.4556,194.98607 417.136,179.35001 429.45733,151.92676 429.27434,151.56593 "
         style="fill:#ffc20e;fill-rule:nonzero" />
      <path
         d="m 415.01384,138.5141 c -8.57803,8.17174 -15.41646,6.09831 -26.27396,-5.42749 l -3.41922,-3.65898 c -10.8575,-11.70875 -12.29717,-18.72181 -3.71914,-26.95452 l 1.43967,-1.40261 c 8.57803,-8.232718 15.41645,-6.098311 26.27396,5.36651 l 3.35923,3.65898 c 10.91749,11.70875 12.35716,18.78279 3.77913,27.0155 z m -25.13422,-27.74729 c -4.25903,4.08586 -4.67893,6.70813 2.39944,14.392 l 1.07976,1.0977 c 7.07837,7.68386 9.71776,7.43993 13.97678,3.35407 l 0.77982,-0.7318 c 4.31901,-4.20783 4.73891,-6.83011 -2.39944,-14.51397 l -1.01977,-1.0977 c -7.13836,-7.68387 -9.71777,-7.37895 -14.03677,-3.2321 z"
         id="path33"
         inkscape:connector-curvature="0"
         style="fill:#ffc20e" />
      <path
         d="m 341.02679,74.241288 c -3.64281,10.641541 -11.41413,11.249629 -25.31751,6.445733 l -4.67494,-1.641837 C 295.85598,73.815626 291.30247,68.282024 295.18813,57.093203 l 0.97142,-2.189117 c 3.82495,-11.128012 10.86771,-12.709041 25.98535,-7.418675 l 4.73565,1.641838 c 12.93197,4.439043 17.36405,8.878086 17.1212,16.783232 l -12.14269,-4.195808 c -1.03213,-2.189117 -2.6714,-3.222867 -9.53201,-5.594411 l -1.88212,-0.608088 c -9.4713,-3.283675 -11.65698,-1.885073 -13.59981,3.709338 l -0.36428,1.276985 c -1.94283,5.59441 -1.09285,8.026763 8.43916,11.310438 l 1.63927,0.54728 c 7.77132,2.736396 11.2927,3.04044 12.81054,0 l -10.19986,-3.526911 -6.07135,-9.972645 29.8103,10.337498 z"
         id="path35"
         inkscape:connector-curvature="0"
         style="fill:#ffc20e;fill-rule:nonzero" />
      <path
         d="m 226.23289,37.668861 c 1.41812,-0.226859 2.86522,0.1512 4.00253,1.045676 1.13732,0.894476 1.865,2.226838 2.0127,3.685184 l 3.12792,27.279245 -11.36879,1.351675 -3.54898,-30.228353 -3.18808,-2.088952 z"
         id="path37"
         inkscape:connector-curvature="0"
         style="fill:#ffc20e;fill-rule:nonzero" />
      <polygon
         id="polygon39"
         points="59.061828,155.23115 82.684652,157.92945 82.865901,157.56968 67.218046,145.57725 62.505565,147.79585 69.090955,133.70473 94.707521,155.05127 88.726294,167.76325 65.103471,165.24484 82.442986,181.3147 76.038845,194.98607 48.247288,189.10978 41.78273,192.16785 48.126455,178.6164 70.843032,183.29345 71.024281,182.93368 53.382684,167.28355 "
         style="fill:#ffc20e;fill-rule:nonzero" />
      <path
         d="m 98.2142,100.27855 36.88329,7.74138 -8.87143,9.67673 -7.29159,-1.57247 -15.06929,16.5714 2.24824,6.95515 -8.567616,9.37433 -10.025936,-31.99368 -5.347166,0.72575 z m 12.15265,13.97078 -12.942572,-2.84254 v 0.3024 l 4.071142,12.64022 z"
         id="path41"
         inkscape:connector-curvature="0"
         style="fill:#ffc20e" />
      <path
         d="m 166.67457,75.887008 c 4.65499,7.462305 0.48364,12.758134 -12.09086,20.581518 l -2.7809,1.745216 c -9.18906,5.656908 -17.4713,9.207518 -23.27492,2.888638 l 10.4586,-6.49943 c 1.81363,1.203597 4.47362,0 11.00269,-3.911692 6.52907,-3.911692 8.58451,-6.017988 7.43588,-8.064104 v 0 c -0.78591,-1.263777 -1.87408,-1.384137 -4.65498,0 l -13.17905,7.462305 c -9.55178,5.416189 -13.54176,5.05511 -16.74584,0 V 89.6682 c -4.29226,-6.860506 -0.36273,-12.035976 12.09086,-19.739 l 1.99499,-1.263777 c 9.06815,-5.536549 17.22949,-8.966802 23.33537,-2.407195 l -10.82132,6.559606 c -1.87408,-1.384137 -4.59453,-0.481439 -10.39814,3.129354 -6.77089,4.092231 -7.79861,5.717088 -6.71043,7.462304 v 0 c 0.7859,1.263778 1.75317,1.444317 4.65498,0 l 12.87677,-7.402124 c 9.67269,-5.416189 13.42086,-5.11529 16.56449,0 z"
         id="path43"
         inkscape:connector-curvature="0"
         style="fill:#ffc20e;fill-rule:nonzero" />
      <polygon
         id="polygon45"
         points="185.2194,80.086377 174.21343,83.56546 165.45729,56.452611 160.16713,54.353164 175.36875,49.55443 179.01714,60.771471 201.39392,53.693338 199.20488,46.855142 192.33375,44.155854 208.7515,38.997214 218.66295,69.529162 207.65698,73.008244 204.00859,61.671234 181.57101,68.749367 "
         style="fill:#ffc20e;fill-rule:nonzero" />
      <polygon
         id="polygon47"
         points="250.01505,68.296536 239.117,67.567441 241.16415,39.071993 236.7688,34.818942 258.62511,36.398646 276.8086,60.580284 277.23008,60.580284 278.49449,42.595951 273.13578,37.431531 289.69359,38.646688 287.4056,71.030641 270.18548,69.754725 252.00199,45.633845 251.58052,45.633845 "
         style="fill:#ffc20e;fill-rule:nonzero" />
      <polygon
         id="polygon49"
         points="361.87578,78.403349 348.18941,97.837177 357.6178,104.45682 371.30416,85.022997 383.59147,93.646758 388.57939,86.541264 354.51556,62.674095 349.58846,69.779588 "
         style="fill:#ffc20e;fill-rule:nonzero" />
      <path
         d="m 54.954927,240.94707 c 4.235468,-0.0237 8.066075,2.51249 9.697961,6.42104 1.631885,3.90854 0.741968,8.41562 -2.253008,11.4106 -2.994976,2.99498 -7.502061,3.88489 -11.410604,2.25301 -3.908543,-1.63189 -6.444726,-5.4625 -6.421031,-9.69796 0,-5.73632 4.650368,-10.38669 10.386682,-10.38669"
         id="path51"
         inkscape:connector-curvature="0"
         style="fill:#ffc20e;fill-rule:nonzero" />
      <path
         d="m 446.02474,240.95311 c 4.25945,-0.14441 8.17948,2.31338 9.90504,6.21031 1.72556,3.89693 0.91057,8.45137 -2.05932,11.50808 -2.96988,3.05671 -7.49898,4.00259 -11.44403,2.39003 -3.94504,-1.61256 -6.51478,-5.46012 -6.49328,-9.72194 0,-5.73629 4.65034,-10.38648 10.38667,-10.38648"
         id="path53"
         inkscape:connector-curvature="0"
         style="fill:#ffc20e;fill-rule:nonzero" />
    </g>
  </g>
</svg>
