<?xml version="1.0" encoding="UTF-8" standalone="no"?>
<svg
   xmlns:dc="http://purl.org/dc/elements/1.1/"
   xmlns:cc="http://creativecommons.org/ns#"
   xmlns:rdf="http://www.w3.org/1999/02/22-rdf-syntax-ns#"
   xmlns:svg="http://www.w3.org/2000/svg"
   xmlns="http://www.w3.org/2000/svg"
   xmlns:sodipodi="http://sodipodi.sourceforge.net/DTD/sodipodi-0.dtd"
   xmlns:inkscape="http://www.inkscape.org/namespaces/inkscape"
   width="512"
   height="512"
   viewBox="0 0 512 512"
   version="1.1"
   id="svg16"
   sodipodi:docname="arizona-diamondbacks.svg"
   inkscape:version="0.92.5 (2060ec1f9f, 2020-04-08)">
  <metadata
     id="metadata22">
    <rdf:RDF>
      <cc:Work
         rdf:about="">
        <dc:format>image/svg+xml</dc:format>
        <dc:type
           rdf:resource="http://purl.org/dc/dcmitype/StillImage" />
      </cc:Work>
    </rdf:RDF>
  </metadata>
  <defs
     id="defs20" />
  <sodipodi:namedview
     pagecolor="#ffffff"
     bordercolor="#666666"
     borderopacity="1"
     objecttolerance="10"
     gridtolerance="10"
     guidetolerance="10"
     inkscape:pageopacity="0"
     inkscape:pageshadow="2"
     inkscape:window-width="640"
     inkscape:window-height="480"
     id="namedview18"
     showgrid="false"
     inkscape:zoom="0.4609375"
     inkscape:cx="256"
     inkscape:cy="256"
     inkscape:window-x="0"
     inkscape:window-y="0"
     inkscape:window-maximized="0"
     inkscape:current-layer="svg16" />
  <title
     id="title2">arizona-diamondbacks</title>
  <g
     id="g14"
     transform="translate(-32,16)"
     style="fill:none;fill-rule:evenodd">
    <path
       d="M 319.496,355.024 289.278,396.59 H 419.312 L 357.182,119 h -86.55 L 95,396.54 h 138.58 l -19.845,-41.713 42.797,-71.725 c 1.15,4.442 3.348,13.145 3.693,14.49 -2.183,3.802 -35.383,61.087 -35.383,61.087 0,0 48.94,-40.39 51.19,-42.27 0.802,0.993 36.224,43.89 36.224,43.89 0,0 -16.66,-55.5 -17.81,-59.27 0.854,-1.36 6.402,-10.16 9.933,-15.816 l 15.11,69.758 v 0.048 z m -61.438,-74.48 27.298,-45.715 h 8.076 l 9.93,45.71 h -45.304 z"
       id="path4"
       inkscape:connector-curvature="0"
       style="fill:#e3d4ad" />
    <path
       d="m 180.354,292.33 54.4,-34.065 -18.698,-33.462 52.622,-25.337 -16.972,-29.868 40.46,-17.996 -18.22,-26.692 -168.932,266.076 92.42,-58.073 z"
       id="path6"
       inkscape:connector-curvature="0"
       style="fill:#000000" />
    <path
       d="m 288.293,300.214 c 1.428,-2.228 8.85,-13.998 8.85,-13.998 h -33.995 c 0,0 2.594,10.015 3.168,12.26 -1.576,2.688 -20.813,35.863 -20.813,35.863 0,0 27.428,-22.64 31.27,-25.85 2.707,3.26 22.027,26.664 22.027,26.664 0,0 -9.57,-31.896 -10.522,-34.944"
       id="path8"
       inkscape:connector-curvature="0"
       style="fill:#a71930" />
    <path
       d="M 405.048,385.625 347.99,129.91 h -64.424 l 15.872,24.348 -39.985,17.944 17.22,29.814 -52.56,25.132 17.603,32.578 -54.45,34.227 16.793,41.058 -81.6,50.488 h 91.82 L 199.491,355.127 278.79,224.91 h 24.57 l 29.678,132.754 -20.682,27.962 h 92.692 z"
       id="path10"
       inkscape:connector-curvature="0"
       style="fill:#a71930" />
    <path
       d="M 412.236,391.083 352.784,124.258 h -72.912 l 3.694,5.678 h 64.425 l 57.06,255.704 h -92.69 l 20.698,-27.945 -29.694,-132.76 h -24.57 l -79.295,130.203 14.81,30.388 h -91.85 l -8.995,5.606 H 224.22 L 206.718,355.024 281.875,229.83 h 16.38 l 28.363,126.49 -25.49,34.812 h 111.106 v -0.05 h 0.002 z"
       id="path12"
       inkscape:connector-curvature="0"
       style="fill:#000000" />
  </g>
</svg>
