<?xml version="1.0" encoding="UTF-8" standalone="no"?>
<svg
   xmlns:dc="http://purl.org/dc/elements/1.1/"
   xmlns:cc="http://creativecommons.org/ns#"
   xmlns:rdf="http://www.w3.org/1999/02/22-rdf-syntax-ns#"
   xmlns:svg="http://www.w3.org/2000/svg"
   xmlns="http://www.w3.org/2000/svg"
   xmlns:sodipodi="http://sodipodi.sourceforge.net/DTD/sodipodi-0.dtd"
   xmlns:inkscape="http://www.inkscape.org/namespaces/inkscape"
   width="512"
   height="512"
   viewBox="0 0 512 512"
   version="1.1"
   id="svg26"
   sodipodi:docname="chicago-cubs.svg"
   inkscape:version="0.92.5 (2060ec1f9f, 2020-04-08)">
  <metadata
     id="metadata32">
    <rdf:RDF>
      <cc:Work
         rdf:about="">
        <dc:format>image/svg+xml</dc:format>
        <dc:type
           rdf:resource="http://purl.org/dc/dcmitype/StillImage" />
      </cc:Work>
    </rdf:RDF>
  </metadata>
  <defs
     id="defs30" />
  <sodipodi:namedview
     pagecolor="#ffffff"
     bordercolor="#666666"
     borderopacity="1"
     objecttolerance="10"
     gridtolerance="10"
     guidetolerance="10"
     inkscape:pageopacity="0"
     inkscape:pageshadow="2"
     inkscape:window-width="640"
     inkscape:window-height="480"
     id="namedview28"
     showgrid="false"
     inkscape:zoom="0.4609375"
     inkscape:cx="256"
     inkscape:cy="256"
     inkscape:window-x="0"
     inkscape:window-y="0"
     inkscape:window-maximized="0"
     inkscape:current-layer="svg26" />
  <title
     id="title2">chicago-cubs</title>
  <g
     id="g24"
     transform="translate(-12,20)"
     style="fill:none;fill-rule:evenodd">
    <g
       id="g8"
       style="fill:#ffffff">
      <path
         d="m 91.422,258.503 c 0,-92.277 74.804,-167.083 167.083,-167.083 92.27,0 167.08,74.806 167.08,167.083 0,92.277 -74.81,167.084 -167.08,167.084 -92.277,0 -167.083,-74.807 -167.083,-167.084 z"
         id="path4"
         inkscape:connector-curvature="0" />
      <path
         d="M 91,258.5 C 91,165.998 165.995,91 258.498,91 351.01,91 426,165.998 426,258.5 426,351.01 351.01,426 258.498,426 165.995,426 91,351.01 91,258.5 Z m 0.834,0 c 0,46.025 18.655,87.69 48.82,117.85 30.166,30.163 71.825,48.82 117.844,48.82 46.03,0 87.693,-18.656 117.863,-48.82 30.15,-30.16 48.816,-71.826 48.816,-117.85 0,-46.024 -18.66,-87.692 -48.81,-117.846 C 346.196,110.487 304.53,91.84 258.5,91.84 c -46.02,0 -87.68,18.647 -117.845,48.815 -30.165,30.154 -48.82,71.822 -48.82,117.846 z"
         id="path6"
         inkscape:connector-curvature="0" />
    </g>
    <path
       d="m 265.38,285.387 v -53.515 h 28.667 c 10.785,0 15.41,2.562 15.41,15.066 0,6.565 -1.248,10.005 -5,11.878 5,2.814 5,8.13 5,12.82 0,11.876 -5.253,13.75 -15.41,13.75 H 265.38 Z"
       id="path10"
       inkscape:connector-curvature="0"
       style="fill:#cc3433" />
    <path
       d="m 102.545,258.503 c 0,-86.13 69.824,-155.958 155.96,-155.958 86.13,0 155.956,69.826 155.956,155.958 0,86.132 -69.82,155.955 -155.95,155.955 -86.135,0.002 -155.96,-69.823 -155.96,-155.955 z m 155.96,115.195 c 63.62,0 115.196,-51.576 115.196,-115.195 0,-63.62 -51.574,-115.195 -115.19,-115.195 -63.623,0 -115.2,51.575 -115.2,115.195 0,63.62 51.574,115.195 115.2,115.195 z"
       id="path12"
       inkscape:connector-curvature="0"
       style="fill:#0e3386" />
    <path
       d="m 309.217,291.06 c -10.717,16.66 -29.432,27.7 -50.71,27.7 -33.277,0 -60.256,-26.98 -60.256,-60.257 0,-33.278 26.98,-60.256 60.26,-60.256 21.938,0 41.14,11.726 51.68,29.25 l 29.66,-28.906 c -18.403,-24.922 -47.98,-41.102 -81.34,-41.102 -55.793,0 -101.02,45.228 -101.02,101.018 0,55.788 45.227,101.018 101.02,101.018 32.998,0 62.306,-15.827 80.745,-40.305 l -30.035,-28.16 z"
       id="path14"
       inkscape:connector-curvature="0"
       style="fill:#cc3433" />
    <path
       d="m 240.688,268.508 v -36.636 h 18.127 v 37.07 c 0,13.32 -3.125,16.446 -13.69,16.446 h -18.88 c -8.69,0 -11.504,-5.625 -11.504,-17.38 V 231.87 h 18.13 v 36.638 c 0,5 7.82,5 7.82,-0.002"
       id="path16"
       inkscape:connector-curvature="0"
       style="fill:#cc3433" />
    <path
       d="m 292.177,246.476 c -0.07,-2.195 -2.127,-2.038 -7.725,-2.038 v 7.502 c 3.123,0 7.725,0.31 7.725,-2.5 z m -0.135,21.772 c -0.96,-2.555 -1.497,-2.242 -7.592,-2.242 v 7.504 c 3.908,0 7.592,0.308 7.592,-2.5 0,-0.706 0.188,-2.24 0,-2.762 z"
       id="path18"
       inkscape:connector-curvature="0"
       style="fill:#ffffff" />
    <path
       d="m 345.674,285.387 c 9.76,0 14.807,-2.657 14.807,-11.286 0,-1.06 -0.063,-10.903 -0.05,-12 0.055,-6.25 -4.45,-10.312 -10.756,-10.312 H 336.61 c -3.546,0 -2.758,-5.156 -2.758,-6.72 0,-2.5 7.38,-3.28 7.38,0.782 v 2.5 h 19.25 c 0,-12.505 -2.252,-16.474 -14.806,-16.474 -2.914,0.062 -13.607,0.062 -16.91,0.062 -8.052,0 -12.438,3.126 -12.743,12.505 -0.293,9.378 0,5.314 0,8.754 0,3.437 -0.536,11.096 9.993,11.096 H 339.3 c 3.756,0 3.004,4.376 3.004,4.376 v 2.812 c 0,3.126 -6.35,3.283 -7.773,0.687 -0.94,-1.72 -0.45,-4.44 -0.45,-4.44 h -18.06 c 0,3.75 -2.03,17.66 8.888,17.66 9.912,-0.003 20.77,-0.003 20.77,-0.003 z"
       id="path20"
       inkscape:connector-curvature="0"
       style="fill:#cc3433" />
    <path
       d="m 337.44,295.334 h -3.104 v 8.456 h -2.097 v -8.456 h -3.11 V 293.5 h 8.305 v 1.834 z m 14.078,8.456 h -2.1 v -8.183 h -0.052 l -2.98,8.183 h -2.028 l -2.885,-8.183 h -0.043 v 8.183 h -2.102 V 293.5 h 3.64 l 2.396,6.723 h 0.048 l 2.49,-6.722 h 3.618 v 10.29 h -0.002 z"
       id="path22"
       inkscape:connector-curvature="0"
       style="fill:#0e3386" />
  </g>
</svg>
