<?xml version="1.0" encoding="UTF-8" standalone="no"?>
<svg
   xmlns:dc="http://purl.org/dc/elements/1.1/"
   xmlns:cc="http://creativecommons.org/ns#"
   xmlns:rdf="http://www.w3.org/1999/02/22-rdf-syntax-ns#"
   xmlns:svg="http://www.w3.org/2000/svg"
   xmlns="http://www.w3.org/2000/svg"
   xmlns:sodipodi="http://sodipodi.sourceforge.net/DTD/sodipodi-0.dtd"
   xmlns:inkscape="http://www.inkscape.org/namespaces/inkscape"
   width="512"
   height="512"
   viewBox="0 0 512 512"
   version="1.1"
   id="svg26"
   sodipodi:docname="cincinnati-reds.svg"
   inkscape:version="0.92.5 (2060ec1f9f, 2020-04-08)">
  <metadata
     id="metadata32">
    <rdf:RDF>
      <cc:Work
         rdf:about="">
        <dc:format>image/svg+xml</dc:format>
        <dc:type
           rdf:resource="http://purl.org/dc/dcmitype/StillImage" />
      </cc:Work>
    </rdf:RDF>
  </metadata>
  <defs
     id="defs30" />
  <sodipodi:namedview
     pagecolor="#ffffff"
     bordercolor="#666666"
     borderopacity="1"
     objecttolerance="10"
     gridtolerance="10"
     guidetolerance="10"
     inkscape:pageopacity="0"
     inkscape:pageshadow="2"
     inkscape:window-width="640"
     inkscape:window-height="480"
     id="namedview28"
     showgrid="false"
     inkscape:zoom="0.4609375"
     inkscape:cx="256"
     inkscape:cy="256"
     inkscape:window-x="0"
     inkscape:window-y="0"
     inkscape:window-maximized="0"
     inkscape:current-layer="svg26" />
  <title
     id="title2">cincinnati-reds</title>
  <g
     id="g24"
     transform="translate(0,26)"
     style="fill:none;fill-rule:evenodd">
    <path
       d="M 280.842,386.41 C 387.772,386.41 449,316.89 449,253.795 449,178.24 364.253,125 273.76,125 v 0.005 c -72.648,0 -123.01,42.807 -150.392,75.217 C 85.772,244.734 65,250.406 65,250.406 c 29.118,25.402 42.82,38.325 56.334,52.89 38.135,41.087 69.716,83.113 159.508,83.113 z"
       id="path4"
       inkscape:connector-curvature="0"
       style="fill:#c6011f" />
    <path
       d="m 278.982,368.492 c -77.682,0 -108.226,-33.177 -144.197,-71.216 -14.75,-15.593 -23.98,-29.684 -47.865,-47.233 l 4.91,11.305 c 22.962,18.712 32.452,32.23 47.202,47.82 35.968,38.04 65.99,67.98 143.67,67.98 68.017,0 120.654,-33.452 145.413,-74.636 l -3.727,-8.662 c -24.753,41.18 -77.4,74.642 -145.406,74.642 z"
       id="path6"
       inkscape:connector-curvature="0"
       style="fill:#000000" />
    <path
       d="m 280.97,174.8 c -75.97,0 -105.8,50.29 -105.8,74.37 0,13.966 4.086,26.24 11.037,36.698 -4.555,-8.506 -5.623,-21.32 -5.623,-29.608 0,-24.093 28.68,-72.634 102.967,-72.634 44.677,0 78.39,20.54 89.71,38.36 h 56.258 c -1.03,-2.034 -3.545,-8.83 -3.545,-8.83 H 372.26 c -11.32,-17.82 -46.614,-38.355 -91.286,-38.355 z"
       id="path8"
       inkscape:connector-curvature="0"
       style="fill:#000000" />
    <path
       d="m 134.785,297.274 c 35.97,38.04 66.515,71.216 144.197,71.216 68.007,0 120.653,-33.462 145.406,-74.642 H 371.27 c -24.85,18.795 -55.298,33.958 -94,33.958 -35.726,0 -73.05,-14.837 -91.063,-41.938 -6.95,-10.46 -11.038,-22.734 -11.038,-36.698 0,-24.08 29.824,-74.37 105.8,-74.37 44.67,0 79.96,20.536 91.28,38.356 h 53.715 c -24.913,-48.987 -89.224,-78.512 -153.535,-78.512 -63.167,0 -111.43,36.28 -139.137,68.954 -36.71,43.305 -46.377,46.445 -46.377,46.445 23.886,17.55 33.115,31.64 47.865,47.23 z"
       id="path10"
       inkscape:connector-curvature="0"
       style="fill:#ffffff" />
    <path
       d="m 312.62,244.252 h -11.95 v -5.7 h -17.86 v 11.592 h 5.883 v -5.736 h 11.777 l 6.08,5.708 H 318.5 V 234.29 l -5.88,-5.857 v 15.82 z m -49.647,37.173 5.805,5.857 H 318.5 v -15.47 l -5.88,-5.858 v 15.47 h -49.647 z m 19.835,-21.345 v 11.582 h 5.883 v -5.722 h 14.7 V 256 l -5.88,-5.856 v 9.935 h -14.7 z m -19.835,-21.528 5.805,5.856 h 2.082 v -5.856 z m -68.316,0 5.874,5.856 h 2.09 v -5.856 h -7.96 z m 0,42.873 5.874,5.857 h 27.89 v -9.75 l -5.882,-5.858 v 9.75 H 194.66 Z m 42.78,-24.055 6.2,14.304 h 3.345 l -3.666,-8.446 8.852,-7.228 v -11.654 l -5.88,-5.852 v 11.65 l -8.85,7.226 z m -22.87,2.587 v 11.717 h 5.88 v -5.86 h 7.925 l -2.522,-5.857 h -11.284 z m 35.73,21.468 H 235.11 l 5.88,5.857 h 15.187 v -9.75 l -5.885,-5.858 v 9.75 z m -15.962,-37.017 v -3.346 l -3.02,-2.51 h -16.75 v 11.642 h 5.882 v -5.786 z"
       id="path12"
       inkscape:connector-curvature="0"
       style="fill:#000000" />
    <path
       d="m 282.808,238.552 h 17.86 v 5.7 h 11.953 v -15.82 H 262.9 v 10.12 h 7.966 v 33.11 h -7.887 v 0.012 h -0.08 v 9.75 h 49.723 v -15.47 h -11.95 v 5.708 h -17.86 V 260.08 h 14.7 v -9.936 h -14.7 v -11.592 z m -32.512,33.122 h -6.656 l -6.2,-14.304 8.85,-7.226 v -11.65 l -12.02,-10.062 h -39.613 v 10.118 h 7.964 v 33.124 h -7.96 v 9.75 h 27.88 v -9.75 h -7.97 v -11.717 h 11.283 l 2.525,5.857 6.738,15.61 H 250.3 v -9.75 z m -29.85,-21.48 h -5.882 v -11.642 h 16.75 l 3.02,2.51 v 6.733 l -2.88,2.4 h -11.007 z"
       id="path14"
       inkscape:connector-curvature="0"
       style="fill:#ffffff" />
    <path
       d="m 325.24,238.552 5.796,5.856 h 2.085 v -5.856 h -7.88 z m 37.69,5.856 v -3.346 l -3.013,-2.51 H 345.07 v 33.11 h 5.877 v -27.254 h 11.984 z"
       id="path16"
       inkscape:connector-curvature="0"
       style="fill:#000000" />
    <path
       d="m 374.877,271.612 -12.01,9.813 H 325.24 l 5.796,5.857 H 365 l 15.76,-12.86 v -30.076 l -5.883,-5.852 z M 414.17,260.08 H 399.1 l -11.952,-9.936 18.93,15.796 h 11.093 v -3.367 l -3,-2.494 z m 20.757,5.86 -5.877,-5.86 0.07,11.396 -12.008,10.062 H 402.16 l -3.132,-2.632 v 2.766 h -11.88 l 5.88,5.858 h 11.878 v -2.772 l 3.136,2.63 h 11.466 l 15.47,-12.632 -0.05,-8.816 z M 417.17,244.252 v -3.182 l -3.054,-2.543 -11.768,0.016 -3.07,2.55 v 6.57 l 2.986,2.48 h 2.896 v -3.196 l 3.065,-2.544 8.766,-0.014 6.066,5.722 h 11.875 V 234.29 l -5.877,-5.857 v 15.82 h -11.88 z m -15.23,27.326 3.193,0.023 -6.105,-5.752 v 3.323 l 2.912,2.41 z"
       id="path18"
       inkscape:connector-curvature="0"
       style="fill:#000000" />
    <path
       d="m 374.877,271.612 v -33.118 l -12.01,-10.062 h -37.712 v 10.118 h 7.968 v 33.112 h -7.883 v 0.014 h -0.085 v 9.75 h 37.712 z m -23.93,0.05 h -5.878 v -33.11 h 14.843 l 3.014,2.51 v 28.203 l -2.88,2.397 h -9.104 z m 48.08,7.244 3.13,2.632 h 14.955 l 12.01,-10.062 -0.072,-11.397 -11.95,-9.94 h -14.835 l -2.985,-2.48 v -6.57 l 3.068,-2.55 11.768,-0.017 3.055,2.543 v 3.18 h 11.88 v -15.82 h -11.88 v 2.58 l -3.073,-2.58 H 399.35 l -12.2,10.064 v 11.65 l 11.952,9.936 h 15.07 l 3,2.493 v 6.68 l -2.9,2.415 -9.137,-0.07 -3.193,-0.022 -2.912,-2.41 v -3.324 h -11.88 v 15.83 h 11.88 V 278.9 Z"
       id="path20"
       inkscape:connector-curvature="0"
       style="fill:#ffffff" />
    <path
       d="m 417.274,351.59 h -3.824 v 10.348 h -2.582 V 351.59 h -3.815 v -2.25 h 10.223 v 2.25 z m 17.292,10.338 h -2.583 v -10.022 h -0.06 l -3.663,10.022 h -2.48 l -3.54,-10.022 h -0.06 v 10.032 h -2.59 v -12.6 h 4.47 l 2.947,8.23 h 0.055 l 3.07,-8.23 h 4.436 v 12.59 z"
       id="path22"
       inkscape:connector-curvature="0"
       style="fill:#000000" />
  </g>
</svg>
