<?xml version="1.0" encoding="UTF-8" standalone="no"?>
<svg
   xmlns:dc="http://purl.org/dc/elements/1.1/"
   xmlns:cc="http://creativecommons.org/ns#"
   xmlns:rdf="http://www.w3.org/1999/02/22-rdf-syntax-ns#"
   xmlns:svg="http://www.w3.org/2000/svg"
   xmlns="http://www.w3.org/2000/svg"
   xmlns:sodipodi="http://sodipodi.sourceforge.net/DTD/sodipodi-0.dtd"
   xmlns:inkscape="http://www.inkscape.org/namespaces/inkscape"
   width="512"
   height="512"
   viewBox="0 0 512 512"
   version="1.1"
   id="svg64"
   sodipodi:docname="colorado-rockies.svg"
   inkscape:version="0.92.5 (2060ec1f9f, 2020-04-08)">
  <metadata
     id="metadata70">
    <rdf:RDF>
      <cc:Work
         rdf:about="">
        <dc:format>image/svg+xml</dc:format>
        <dc:type
           rdf:resource="http://purl.org/dc/dcmitype/StillImage" />
      </cc:Work>
    </rdf:RDF>
  </metadata>
  <defs
     id="defs68" />
  <sodipodi:namedview
     pagecolor="#ffffff"
     bordercolor="#666666"
     borderopacity="1"
     objecttolerance="10"
     gridtolerance="10"
     guidetolerance="10"
     inkscape:pageopacity="0"
     inkscape:pageshadow="2"
     inkscape:window-width="640"
     inkscape:window-height="480"
     id="namedview66"
     showgrid="false"
     inkscape:zoom="0.4609375"
     inkscape:cx="256"
     inkscape:cy="256"
     inkscape:window-x="0"
     inkscape:window-y="0"
     inkscape:window-maximized="0"
     inkscape:current-layer="svg64" />
  <title
     id="title2">colorado-rockies</title>
  <g
     id="g62"
     transform="translate(12,28)"
     style="fill:none;fill-rule:evenodd">
    <path
       d="m 147.738,264.232 -14.186,29.39 h 33.36 l 93.248,-70.853 -78.276,70.59 h 5.78 l 74.073,-53.01 -59.628,53.27 h 6.562 l 60.94,-40.677 -46.49,40.414 6.566,0.262 54.635,-32.28 -40.714,32.017 6.305,0.526 53.323,-28.604 -39.14,28.08 h 119.78 l -26.27,-34.903 -10.506,1.576 -10.242,-17.58 -52.536,-47.237 -29.155,-26.77 -35.46,45.135 -19.7,-6.035 -32.837,52.22 -8.932,-1.574 -3.937,6.823 -6.567,-0.79 z"
       id="path4"
       inkscape:connector-curvature="0"
       style="fill:#333366" />
    <path
       d="m 179.783,253.473 22.853,-37.527 19.7,5.25 32.572,-42.513 23.482,27.317 -1.05,2.887 -5.357,-3.437 -6.042,5.51 -3.15,-13.644 -7.614,9.185 -3.942,-5.77 -31.52,26.243 -6.304,-5.25 -16.55,20.208 -2.89,-2.624 -14.183,14.17 z m 159.18,6.56 -6.942,-12.906 -4.85,2.84 c 0,0 4.967,5.343 6.28,6.13 1.316,0.786 5.517,3.937 5.517,3.937 z"
       id="path6"
       inkscape:connector-curvature="0"
       style="fill:#ffffff" />
    <path
       d="m 374.57,281.027 h 76.82 v -5.772 c 0,0 -13.662,-0.262 -13.662,0 -1.864,-20.15 -18.098,-76.383 -71.306,-115.76 -27.23,-21.363 -63.41,-37.313 -110.463,-38.806 -60.157,2.094 -84.06,19.15 -109.01,35.16 -65.41,46.19 -73.816,118.88 -73.816,118.88 h -12.87 v 6.03 h 79.48 l 2.86,-5.77 H 125.67 c 0,0 14.45,-91.323 121.618,-102.607 -0.262,0.263 8.407,-9.445 8.407,-9.445 l 9.456,9.444 c 0,0 14.448,1.575 23.905,4.46 9.455,2.888 18.386,6.824 18.386,6.824 0,0 -31.24,2.906 -32.57,36.212 2.327,28.98 27.056,34.12 33.888,34.12 6.828,0 33.62,-0.79 37.034,-34.116 0,-7.612 -1.834,-12.335 -1.834,-12.335 0,0 13.396,9.71 25.48,29.39 12.084,19.68 14.973,37.79 14.973,37.79 h -14.53 l 4.693,6.294 z m -58.722,22.698 v -4.723 h 27.712 v 5.378 c 0,0 -4.99,-1.05 -6.435,2.365 -1.446,3.41 -1.05,22.698 -1.05,22.698 0,0 -0.396,18.763 0.264,20.338 0.65,1.578 1.174,5.12 4.063,5.51 2.89,0.398 3.284,0.92 3.284,0.92 v 4.2 h -27.71 v -4.59 c 0,0 4.2,-0.263 5.513,-2.492 1.316,-2.232 1.05,-4.462 1.05,-4.462 V 328.79 l -0.26,-19.156 c 0,0 0.395,-2.23 -0.917,-3.542 -1.313,-1.312 -3.154,-2.362 -5.518,-2.362 z m -152.088,-6.69 c 17.073,0 29.55,11.546 29.55,32.408 0,20.86 -12.477,31.754 -31.125,32.803 -18.39,-1.05 -28.633,-12.465 -28.633,-33.065 0,-20.6 13.66,-31.092 30.207,-32.14 z M 148,331.018 c 2.363,25.323 12.608,25.848 17.73,25.848 5.123,0 16.024,-7.61 12.74,-30.573 -3.283,-22.962 -12.74,-23.88 -17.468,-23.88 -3.81,0.527 -15.367,3.28 -13.002,28.605 z"
       id="path8"
       inkscape:connector-curvature="0"
       style="fill:#231f20" />
    <path
       d="m 104.002,354.897 v 5.25 H 70.116 v -5.117 c 0,0 6.96,-0.526 8.144,-3.543 1.182,-3.02 0.918,-3.938 0.918,-3.938 v -46.71 c 0,-2.76 -2.495,-4.33 -4.858,-4.99 -2.365,-0.656 -4.072,-0.656 -4.072,-0.656 v -5.513 c 0,0 3.808,0.263 8.144,0 4.334,-0.263 12.084,-1.05 19.7,-1.05 7.617,0 31.52,0.135 31.52,19.553 0.92,15.09 -13.92,18.763 -13.92,18.763 0,0 -0.395,1.704 1.05,2.492 1.444,0.786 1.84,1.574 1.84,1.574 0,0 5.383,9.708 6.17,11.154 0.79,1.44 4.203,9.05 6.174,10.495 1.97,1.443 6.96,2.364 6.96,2.364 v 5.245 H 117.398 L 99.8,331.283 c 0,0 -1.97,-0.79 -2.76,-0.79 -0.788,0 -2.1,0.39 -2.1,0.39 l -0.263,16.143 c 0,0 -0.394,4.328 1.707,6.036 2.1,1.706 7.618,1.835 7.618,1.835 z m -3.022,-30.57 c 2.1,-0.264 11.952,-2.624 11.033,-15.88 0,-13.775 -10.112,-14.562 -13.658,-14.562 -3.546,0 -3.678,0.525 -3.678,0.525 v 30.18 c 0,0 4.202,0 6.303,-0.263 z"
       id="path10"
       inkscape:connector-curvature="0"
       style="fill:#231f20" />
    <path
       d="m 167.964,265.545 -6.567,-1.313 -5.517,8.396 z m 178.354,2.097 7.618,-1.835 5.254,7.083 z M 311.12,188.656 c 0,0 11.558,0.524 17.6,5.773 14.183,10.754 11.558,20.47 11.558,20.47 l -1.84,0.26 c 0,0 -1.313,-3.94 -2.364,-3.94 -1.05,0 -1.18,0.786 -1.18,0.786 l 0.656,2.362 h -2.233 c 0,0 -0.79,-3.543 -2.234,-3.543 -1.444,0 -0.917,1.442 -0.917,1.442 l -0.134,2.362 -1.838,-0.133 c 0,0 -1.706,-4.197 -3.022,-3.015 -1.313,1.18 -0.393,1.705 -0.393,1.705 0,0 1.31,2.1 -0.136,2.1 -1.446,0 -2.758,-1.707 -2.758,-1.707 0,0 -0.79,-1.97 -1.576,-1.313 -0.787,0.658 -0.656,1.575 -0.656,1.575 l 1.05,2.1 -1.576,0.657 c 0,0 -2.89,-2.364 -3.546,-2.364 -0.658,0 -2.1,1.05 -1.182,1.575 0.917,0.525 1.84,1.05 1.84,1.706 0,0.658 -0.923,0.92 -0.923,0.92 l -1.31,0.394 c 0,0 -2.63,-2.755 -3.548,-1.705 -0.92,1.05 0.393,2.096 0.393,2.096 l 0.92,1.315 -1.05,0.788 c 0,0 -1.842,-0.264 -2.366,-0.656 -0.525,-0.396 -1.704,-1.052 -2.102,-0.264 -0.393,0.787 0.396,1.575 0.396,1.575 l 1.837,1.312 -2.1,1.31 c 0,0 -2.627,-1.572 -3.152,-1.05 -0.525,0.527 -0.79,1.97 -0.79,1.97 l 2.104,1.182 -0.396,1.05 -1.315,0.392 c 0,0 -1.97,-0.658 -2.628,-0.396 -0.658,0.262 -0.658,1.967 -0.658,1.967 0,0 0.92,1.05 1.446,1.05 0.525,0 1.97,0.133 1.05,0.92 -0.92,0.788 -1.31,0.788 -1.31,0.788 0,0 -3.285,-0.79 -3.81,0.654 -0.525,1.444 1.445,1.705 1.445,1.705 0,0 1.97,-0.13 1.84,0.525 -0.135,0.656 -0.66,1.31 -0.66,1.31 l -2.1,0.265 c 0,0 -1.84,0.263 -1.97,1.445 -0.132,1.18 1.444,1.31 1.444,1.31 0,0 2.232,-0.393 1.84,0.92 -0.396,1.312 -2.497,1.444 -2.497,1.444 0,0 -1.708,0 -1.708,1.048 0,1.05 0.786,1.574 0.786,1.574 0,0 3.02,-0.26 2.76,0.92 -0.262,1.18 -1.446,1.05 -1.446,1.05 0,0 -17.597,-7.087 -17.597,-25.324 -0.265,-3.15 -0.134,-6.693 -0.134,-6.693 0,0 0.393,-1.575 1.315,-0.262 0.92,1.31 1.05,1.444 1.84,1.444 0.79,0 0.525,-1.97 0.525,-1.97 l -0.265,-1.574 c 0,0 0.657,-0.524 1.316,-0.524 0.655,0 1.838,3.28 2.625,3.28 0.79,0 1.84,-0.788 1.84,-0.788 0,0 -0.13,-1.05 -0.39,-1.575 -0.266,-0.525 -0.79,-1.31 -0.79,-1.31 l 1.97,-0.79 c 0,0 1.05,1.313 1.574,1.837 0.524,0.525 1.446,1.05 1.972,0.787 0.524,-0.26 0.262,-1.31 0.262,-1.31 l -1.316,-2.23 1.97,-0.657 c 0,0 2.102,2.23 2.757,2.23 0.66,0 1.183,-0.788 1.183,-0.788 0,0 0.13,-0.787 -0.262,-1.443 -0.393,-0.66 -1.574,-1.053 -0.393,-1.97 1.184,-0.918 1.97,0 1.97,0 0,0 1.314,1.575 1.97,1.575 0.657,0 1.707,-1.18 1.05,-2.1 -0.655,-0.918 -1.577,-0.918 -1.577,-0.918 l 0.526,-1.445 c 0,0 1.183,-0.393 2.233,0.13 1.05,0.527 3.15,1.053 3.15,-0.13 0,-1.18 -0.918,-1.574 -0.918,-1.574 l -1.183,-0.524 c 0,0 0.13,-1.444 0.786,-1.444 0.657,0 1.312,-0.393 2.234,0 0.918,0.395 1.05,0.525 1.84,0.263 0.785,-0.262 0.523,-1.443 -0.527,-2.1 -1.05,-0.655 -1.838,-0.13 -1.706,-1.312 0.134,-1.18 1.97,-0.785 1.97,-0.785 l 2.627,0.13 0.92,-1.573 c 0,0 -0.525,-0.92 -1.05,-0.92 -0.527,0 -1.84,-0.26 -1.84,-1.18 0,-0.92 1.05,-0.92 1.97,-0.92 0.92,0 2.758,0 2.89,-0.526 0.132,-0.526 0.132,-1.707 0.132,-1.707 0,0 -1.84,0.13 -2.366,-0.133 -0.527,-0.26 -0.658,-1.18 -0.658,-1.18 z"
       id="path12"
       inkscape:connector-curvature="0"
       style="fill:#ffffff" />
    <path
       d="m 83.118,294.54 h 7.488 v 60.228 h -7.488 z m 28.24,0 c 0,0 13.395,1.574 13.395,14.303 0,12.727 -13.134,15.22 -13.134,15.22 0,0 4.07,-3.673 4.07,-15.35 0,-11.678 -4.337,-14.172 -4.337,-14.172 z m -7.883,36.478 c 0,0 4.204,-1.444 5.517,-1.444 h 3.416 c 0,0 3.808,3.806 4.728,5.772 0.918,1.97 11.03,19.027 11.03,19.027 h -11.03 l -13.66,-23.355 z m 45.705,-26.112 c 0,0 -5.776,8.53 -4.725,23.75 0,16.664 7.485,25.848 7.485,25.848 0,0 -15.235,0.13 -15.235,-24.143 0.262,-20.333 12.476,-25.45 12.476,-25.45 z m 25.48,-1.31 c 0,0 15.368,3.674 15.368,24.01 0,20.336 -11.558,26.374 -11.558,26.374 0,0 3.678,-4.856 3.678,-25.85 -1.71,-18.107 -7.487,-24.535 -7.487,-24.535 z"
       id="path14"
       inkscape:connector-curvature="0"
       style="fill:#c4ced4" />
    <path
       d="m 58.69,367.1 h 392.96 v 6.562 h -16.547 v 9.97 H 75.503 V 373.136 H 58.69 Z m 138.955,-36.74 c 0,-18.37 11.558,-32.933 32.966,-32.933 8.15,0 13.27,3.017 13.27,3.017 0,0 3.02,-1.965 3.81,-1.965 0.787,0 0.787,1.044 0.787,1.044 l 0.788,20.074 h -3.676 c 0,0 -3.153,-16.4 -15.893,-16.4 -12.74,0 -17.994,13.512 -17.994,26.9 0,13.38 7.356,26.24 18.387,26.24 11.033,0 17.337,-14.567 17.337,-14.567 0,0 0.393,-0.915 1.313,-0.915 0.92,0 2.103,0.39 2.103,0.39 l 0.13,1.312 -4.727,18.764 c 0,0 -4.728,-0.524 -6.83,-0.524 -2.102,0 -13.658,1.31 -15.5,1.31 -1.835,0 -26.265,-2.62 -26.265,-31.75 z"
       id="path16"
       inkscape:connector-curvature="0"
       style="fill:#231f20" />
    <path
       d="m 208.414,330.36 c 0,14.303 7.488,23.75 7.488,23.75 0,0 -15.235,-2.494 -15.235,-23.092 0,-20.6 13.396,-25.456 13.396,-25.456 0,0 0.788,0.264 0.262,1.313 -0.526,1.05 -5.91,9.185 -5.91,23.486 z M 326.16,304.053 h 6.958 v 50.91 h -6.96 v -50.91 z"
       id="path18"
       inkscape:connector-curvature="0"
       style="fill:#c4ced4" />
    <path
       d="m 252.15,303.725 0.263,-4.723 h 27.713 v 4.854 c 0,0 -6.173,-0.13 -6.566,3.28 -0.396,3.413 -0.527,19.552 -0.527,19.552 l 16.94,-19.156 c 0,0 0.79,-0.918 0.527,-1.84 0,-1.703 -2.89,-2.097 -2.89,-2.097 v -4.723 h 22.59 v 5.117 c 0,0 -6.696,-0.27 -9.325,1.963 -3.678,1.837 -15.762,16.533 -15.762,16.533 0,0 5.256,6.56 8.276,11.02 3.02,4.462 10.64,16.924 11.82,17.843 1.18,0.92 1.71,2.89 4.86,3.806 3.15,0.92 3.673,0.523 3.673,0.523 v 4.855 H 284.06 v -5.12 c 0,0 4.73,0.525 4.73,-1.705 0,-2.23 -1.84,-6.69 -5.122,-10.493 -3.284,-3.805 -8.01,-10.234 -10.246,-10.498 -0.13,2.36 0,18.106 0,18.106 0,0 0.262,2.625 2.234,3.938 1.966,1.31 4.595,0.916 4.595,0.916 v 4.857 h -27.97 v -4.723 c 0,0 5.91,0 6.436,-3.543 0.526,-3.543 0.526,-4.33 0.526,-4.33 v -39.1 c 0,0 0,-3.15 -2.495,-4.067 -2.495,-0.92 -4.596,-1.05 -4.596,-1.05 z m 95.875,0.393 v -4.985 h 45.97 l 0.917,14.828 h -4.332 c 0,0 1.18,-8.263 -4.73,-8.263 h -16.547 v 20.6 c 0,0 4.596,0.526 6.304,0.526 1.707,0 6.96,-0.657 7.223,-2.887 0.264,-2.23 1.182,-4.722 1.182,-4.722 h 3.15 v 20.86 h -3.413 c 0,0 -0.457,-6.083 -3.94,-6.69 -3.026,-0.524 -4.338,-0.657 -5.52,-0.657 -1.183,0 -4.86,0.787 -4.86,0.787 v 18.24 c 0,0 0.657,2.36 3.415,2.36 h 12.476 c 0.92,0 4.333,-0.787 5.255,-2.23 0.92,-1.446 3.282,-8.007 3.282,-8.007 h 3.807 l -1.443,16.666 h -48.99 v -5.12 c 0,0 4.993,0.395 6.7,-0.918 1.706,-1.31 2.1,-1.837 2.1,-1.837 l -0.26,-42.25 c 0,0 0.392,-4.067 -2.497,-5.51 -2.89,-1.443 -5.255,-0.79 -5.255,-0.79 z"
       id="path20"
       inkscape:connector-curvature="0"
       style="fill:#231f20" />
    <path
       d="m 359.256,303.79 h 6.96 v 51.698 h -6.96 z"
       id="path22"
       inkscape:connector-curvature="0"
       style="fill:#c4ced4" />
    <path
       d="m 418.16,288.636 c 9.063,0 14.58,2.232 14.58,2.232 0,0 0.916,0.395 1.442,0 0.527,-0.393 1.708,-1.575 1.708,-1.575 h 2.627 l 1.183,20.73 -4.596,-0.392 c 0,0 -2.103,-14.954 -15.5,-14.954 -10.638,1.31 -8.01,11.154 -4.596,12.86 7.223,7.61 27.58,14.562 27.58,33.327 0,18.76 -17.072,21.913 -20.883,21.913 -3.808,0 -14.185,-2.758 -15.628,-2.89 -1.446,-0.13 -2.627,1.97 -2.627,1.97 h -2.232 l -2.364,-22.176 3.808,-0.13 c 0,0 3.153,8.13 5.254,10.1 2.102,1.968 4.465,6.56 11.295,6.56 6.83,0 9.198,-5.642 9.198,-10.626 0,-4.985 -8.404,-11.81 -11.557,-13.777 -3.154,-1.97 -17.34,-8.003 -17.34,-23.618 0,-15.615 9.59,-19.55 18.65,-19.55 z"
       id="path24"
       inkscape:connector-curvature="0"
       style="fill:#231f20" />
    <path
       d="m 406.865,299.264 c 0,0 -0.262,5.25 3.94,9.71 6.566,8.922 27.712,14.302 27.712,30.574 -0.917,11.94 -6.697,14.694 -6.697,14.694 0,0 0.657,-2.493 0.657,-9.053 0,-8.927 -13.266,-16.277 -13.266,-16.277 0,0 -15.76,-8.92 -15.76,-19.68 0,-8.92 3.42,-9.973 3.42,-9.973 z"
       id="path26"
       inkscape:connector-curvature="0"
       style="fill:#c4ced4" />
    <path
       d="m 299.17,247.83 0.26,-0.918 c 0,0 2.76,1.312 3.02,0.788 0.265,-0.526 0.134,-1.97 0.134,-1.97 l -1.71,-1.048 c 0,0 -1.838,0 -1.574,-1.444 0.262,-1.443 1.446,-0.394 1.446,-0.394 l 1.705,0.788 v -2.755 c 0,0 -2.1,-0.787 -2.1,-1.837 0,-1.05 0.66,-1.05 0.66,-1.05 l 2.1,1.442 c 0,0 1.05,-0.262 1.05,-0.917 0,-0.656 -0.13,-1.182 -0.13,-1.182 l -2.1,-1.967 c 0,0 -0.263,-1.443 0.79,-1.443 1.05,0 1.84,1.705 1.84,1.705 0,0 1.18,-0.526 1.05,-1.443 -0.133,-0.918 -0.79,-1.705 -0.79,-1.705 0,0 -1.184,-1.182 -0.92,-1.97 0.26,-0.787 1.183,-0.655 1.183,-0.655 0,0 0.79,1.97 1.578,1.97 0.787,0 1.706,-1.182 1.313,-1.97 -0.396,-0.786 -1.446,-2.493 -1.446,-2.493 0,0 0.133,-1.05 0.786,-1.05 0.66,0 1.97,2.1 1.97,2.1 0,0 1.447,0.526 1.447,-0.656 0,-1.18 -0.397,-2.495 -0.397,-2.495 0,0 -0.92,-1.174 0.13,-1.7 1.053,-0.523 1.053,0.526 1.315,1.05 0.26,0.526 0.92,1.97 1.443,1.313 0.53,-0.66 0.925,-1.837 0.925,-1.837 0,0 -0.526,-0.92 -0.526,-1.837 0,-0.92 0.525,-1.314 0.525,-1.314 0,0 1.05,-1.312 1.18,-0.524 0.133,0.787 0.133,2.1 0.264,2.493 0.13,0.396 1.706,0.396 1.837,-0.26 0.13,-0.656 0.262,-1.05 0.262,-1.05 0,0 -0.527,-1.05 -0.13,-1.837 0.39,-0.787 -0.133,-1.18 0.655,-1.18 0.79,0 1.315,1.704 1.315,1.704 0,0 0,1.574 0.655,1.442 0.657,-0.13 1.446,-1.312 1.446,-2.362 0,-1.05 0.394,-2.23 1.31,-2.36 0.92,-0.132 0.13,2.492 0.13,2.492 0,0 0.66,1.182 1.187,0.918 0.525,-0.262 1.18,-0.918 1.18,-0.918 l 1.054,-3.018 h 1.445 c 0,0 -0.527,2.754 0.13,2.886 0.658,0.132 1.577,-0.26 1.577,-0.26 0,0 0.394,-1.71 0.79,-2.232 0.393,-0.526 1.705,-0.656 1.705,-0.656 0,0 0.395,0 0.262,0.788 -0.13,0.785 -1.05,2.1 0,2.36 1.05,0.262 1.97,0 1.97,0 0,0 0.657,-3.412 2.1,-3.28 1.446,0.132 -0.262,2.363 -0.262,2.363 0,0 0.134,1.18 1.05,1.445 0.922,0.262 2.1,-1.443 2.1,-1.443 0,0 0.66,-1.312 1.447,-1.05 0.788,0.263 -0.788,2.362 -0.788,2.362 0,0 1.576,2.1 1.576,2.754 0,0.655 -1.444,13.514 -13.657,21.78 -13.004,9.973 -28.763,3.542 -28.763,3.542 z m -17.337,-37.657 c -0.526,0.658 -1.314,0.526 -1.314,0.526 l -0.66,-0.4 c 0,0 4.2,-11.413 12.61,-16.27 8.4,-4.854 13.785,-5.116 13.785,-5.116 l -0.918,1.967 0.392,1.183 c 0,0 2.233,1.31 1.312,2.23 -0.918,0.92 -2.232,-0.525 -2.232,-0.525 0,0 0,-1.573 -1.05,-0.524 -1.05,1.05 -0.26,2.493 -0.26,2.493 0,0 1.97,1.705 1.05,2.624 -0.92,0.92 -1.708,-0.786 -1.708,-0.786 0,0 -0.657,-1.444 -1.445,-0.656 -0.79,0.79 -0.393,2.1 -0.393,2.1 0,0 1.838,2.886 0.393,3.018 -1.443,0.13 -2.1,-2.627 -2.1,-2.627 0,0 -1.443,1.443 -1.443,2.1 0,0.654 1.705,2.36 0.262,3.28 -1.448,0.92 -1.71,-1.444 -1.71,-1.444 0,0 -0.788,-1.837 -1.576,-0.918 -0.79,0.917 -0.26,2.36 -0.26,2.36 0,0 0.523,2.493 -0.66,2.493 -1.18,0 -1.44,-0.917 -1.44,-0.917 0,0 0.127,-2.758 -0.79,-2.233 -0.92,0.524 -1.053,1.97 -1.053,1.97 0,0 0.79,3.148 -0.918,3.148 -1.71,0 -0.92,-2.1 -0.92,-2.1 0,0 -0.265,-2.1 -1.184,-1.706 -0.92,0.392 -0.92,1.574 -0.92,1.574 l -0.392,2.757 -1.837,0.393 c 0,0 0.393,-1.705 0.13,-2.36 -0.263,-0.656 -0.656,-0.92 -1.313,-0.92 -0.655,0 -1.315,1.18 -1.315,1.18 0,0 0.394,1.445 -0.13,2.1 z"
       id="path28"
       inkscape:connector-curvature="0"
       style="fill:#ffffff" />
    <path
       d="m 307.31,188.524 c 0,0 2.365,1.182 1.71,1.967 -0.658,0.79 -1.446,-0.13 -1.446,-0.13 l -0.788,-1.044 0.524,-0.788 z"
       id="path30"
       inkscape:connector-curvature="0"
       style="fill:#231f20" />
    <path
       d="m 411.462,225.787 c 4.203,7.48 7.223,17.977 -2.89,24.667 -10.114,6.693 -20.75,-0.787 -23.772,-6.954 -3.02,-6.167 -6.962,-15.614 4.072,-23.748 8.536,-4.593 18.386,-1.443 22.59,6.035 z"
       id="path32"
       inkscape:connector-curvature="0"
       style="fill:#c4ced4" />
    <path
       d="m 410.018,227.756 c 1.182,1.967 4.86,8.266 -5.253,15.744 -10.115,7.48 -17.602,1.443 -18.52,-1.18 -0.92,-2.624 -3.94,-10.366 6.698,-16.14 10.638,-5.772 15.892,-0.393 17.075,1.576 z"
       id="path34"
       inkscape:connector-curvature="0"
       style="fill:#231f20" />
    <path
       d="m 367.595,171.99 c 0,0 7.75,6.825 9.98,9.056 2.235,2.23 16.42,14.565 4.73,26.24 -11.69,11.68 -26.268,-3.805 -27.713,-5.38 -1.444,-1.574 -3.544,-3.935 -4.728,-5.116 -1.18,-1.18 -4.463,-4.068 -4.463,-4.068 l 1.05,-1.443 c 0,0 1.97,1.57 2.5,1.702 0.527,0.13 1.84,0 1.84,0 0,0 14.97,-13.515 15.89,-14.564 0.92,-1.05 0.657,-2.887 0.657,-3.543 0,-0.658 -1.05,-2.102 -1.05,-2.102 l 1.312,-0.787 z"
       id="path36"
       inkscape:connector-curvature="0"
       style="fill:#c4ced4" />
    <path
       d="m 356.037,197.184 15.89,-14.695 c 0,0 1.184,-1.97 2.632,-0.66 1.44,1.31 7.35,5.77 6.56,12.202 -0.79,6.428 -7.225,13.383 -14.58,12.333 -7.354,-1.05 -10.507,-6.038 -10.507,-6.038 0,0 -1.576,-1.05 0,-3.15 z"
       id="path38"
       inkscape:connector-curvature="0"
       style="fill:#231f20" />
    <path
       d="m 328.456,147.587 5.65,3.41 c 0,0 -2.628,27.818 -2.497,28.474 0.13,0.66 0.26,1.58 1.05,2.498 0.78,0.917 1.18,0.917 1.18,0.917 l -0.26,0.92 -13.926,-6.166 0.786,-1.706 2.497,1.31 c 0,0 2.23,0.657 2.493,-1.442 0.265,-2.1 0.396,-7.477 0.396,-7.477 l -9.06,-4.857 -5.388,4.856 c 0,0 -1.18,1.57 -0.39,2.49 0.785,0.92 2.886,1.968 2.886,1.968 l -0.524,1.576 -11.558,-5.248 1.05,-1.575 c 0,0 2.1,1.97 4.86,-0.392 2.757,-2.362 20.75,-19.55 20.75,-19.55 z"
       id="path40"
       inkscape:connector-curvature="0"
       style="fill:#c4ced4" />
    <path
       d="m 326.488,154.41 -0.395,10.364 -7.092,-3.41 7.49,-6.954 z"
       id="path42"
       inkscape:connector-curvature="0"
       style="fill:#231f20" />
    <path
       d="m 269.88,150.08 3.02,0.394 c 0,0 0.526,0.394 1.053,1.31 0.524,0.92 4.99,10.236 4.99,10.236 0,0 1.84,2.36 4.465,2.754 2.627,0.394 7.88,0.788 7.88,0.788 0,0 0.262,-0.917 -1.052,-1.705 -1.312,-0.788 -3.808,-2.493 -5.514,-7.216 -2.1,-3.8 -3.81,-6.69 -3.81,-6.69 0,0 7.356,-1.18 8.012,-6.69 0.657,-5.51 -3.06,-8.914 -9.325,-10.233 -6.81,-1.427 -11.038,-1.444 -11.038,-1.444 l -7.88,-0.655 -0.656,1.443 4.202,1.968 c 0,0 -2.235,23.224 -2.497,23.88 -0.26,0.658 -2.626,1.445 -3.415,1.445 -0.787,0 -1.835,-0.134 -1.835,-0.134 l -0.132,1.31 16.548,2.23 0.264,-1.443 -2.627,-0.788 c 0,0 -2.1,0 -1.838,-3.02 0.26,-3.015 1.18,-7.74 1.18,-7.74 z"
       id="path44"
       inkscape:connector-curvature="0"
       style="fill:#c4ced4" />
    <path
       d="m 270.275,147.717 1.708,-13.12 c 0,0 1.97,-0.263 3.94,0.263 1.97,0.524 6.827,2.493 5.91,6.954 -0.92,4.46 -2.63,6.955 -7.092,6.69 -4.46,-0.26 -4.46,-0.787 -4.46,-0.787 z"
       id="path46"
       inkscape:connector-curvature="0"
       style="fill:#231f20" />
    <path
       d="m 215.77,135.515 c 7.085,-3.657 20.62,-2.754 24.035,5.512 3.416,8.265 2.363,17.32 -8.538,22.304 -10.9,4.99 -22.196,-0.26 -24.56,-7.61 -2.365,-7.34 0.92,-16.003 9.063,-20.2 z"
       id="path48"
       inkscape:connector-curvature="0"
       style="fill:#c4ced4" />
    <path
       d="m 219.577,136.17 c 3.81,-1.048 10.772,0.527 13.793,8.793 3.02,8.265 1.18,15.35 -4.074,17.057 -5.252,1.705 -12.608,1.05 -16.02,-10.76 -2.497,-10.497 2.494,-14.04 6.3,-15.09 z"
       id="path50"
       inkscape:connector-curvature="0"
       style="fill:#231f20" />
    <path
       d="m 159.688,159.133 14.316,-7.61 0.527,1.182 c 0,0 -1.834,0.785 -2.36,1.837 -0.525,1.05 -0.92,1.573 -0.92,1.573 l 11.426,21.387 8.668,-4.854 c 0,0 2.104,-1.443 2.234,-2.492 0.132,-1.05 0.92,-5.643 0.92,-5.643 l 1.05,0.26 1.314,7.744 -22.984,12.99 -0.656,-1.706 c 0,0 3.414,-1.44 2.494,-3.93 -0.917,-2.494 -10.112,-18.634 -10.112,-18.634 0,0 -0.656,-1.705 -1.968,-1.705 -1.315,0 -2.628,0.786 -2.628,0.786 l -1.314,-1.18 z m -32.57,26.243 c 7.486,-8.662 16.55,-10.105 23.51,-4.724 6.96,5.38 9.192,15.09 2.23,23.616 -6.96,8.53 -15.76,9.71 -23.77,4.856 -6.043,-4.462 -8.67,-13.907 -1.97,-23.748 z"
       id="path52"
       inkscape:connector-curvature="0"
       style="fill:#c4ced4" />
    <path
       d="m 128.955,186.687 c 2.57,-4.018 8.93,-5.773 16.156,-1.18 7.228,4.59 10.77,12.726 5.78,17.844 -4.99,5.12 -11.82,4.07 -17.334,-0.39 -5.515,-4.46 -8.537,-10.102 -4.597,-16.27 z"
       id="path54"
       inkscape:connector-curvature="0"
       style="fill:#231f20" />
    <path
       d="m 104.396,250.98 c -7.527,-2.64 -11.033,-13.253 -6.83,-22.962 3.68,-6.823 5.253,-6.69 6.304,-7.872 0.132,-0.92 0,-1.443 0.264,-2.1 0.262,-0.657 7.747,3.15 7.747,3.15 l -0.65,0.917 c 0,0 -0.657,0.132 -1.84,0.132 -1.18,0 -5.516,-0.918 -9.456,6.43 -3.94,7.347 3.15,13.646 6.96,15.483 3.81,1.837 13.84,4.5 18.126,-5.38 2.437,-5.643 -0.263,-9.45 -0.263,-9.45 l -1.576,-2.227 0.92,-1.703 6.043,5.644 c 0,0 -1.313,2.098 -1.577,3.148 -0.26,1.05 -1.706,6.692 -2.362,7.874 -0.655,1.18 -7.354,14.17 -21.8,8.92 z"
       id="path56"
       inkscape:connector-curvature="0"
       style="fill:#c4ced4" />
    <path
       d="m 440.698,386.676 c 0,-3.672 2.994,-6.662 6.7,-6.662 3.695,0 6.67,2.99 6.67,6.662 0,3.707 -2.975,6.697 -6.67,6.697 a 6.69,6.69 0 0 1 -6.7,-6.697 z m 12.568,0 a 5.862,5.862 0 0 0 -5.867,-5.857 c -3.26,0 -5.88,2.62 -5.88,5.852 a 5.87,5.87 0 0 0 5.88,5.892 c 3.24,0 5.862,-2.622 5.862,-5.892 z m -2.538,3.74 h -1.086 l -2.137,-3.443 h -1.68 v 3.444 h -0.91 v -7.466 h 3.256 c 0.63,0 1.26,0.04 1.82,0.37 0.566,0.32 0.84,0.98 0.84,1.61 0,1.47 -1.03,2.01 -2.36,2.047 l 2.26,3.444 z m -3.502,-4.16 c 1.05,0 2.678,0.175 2.678,-1.348 0,-1.152 -1.017,-1.292 -1.943,-1.292 h -2.13 v 2.64 h 1.4 z"
       id="path58"
       inkscape:connector-curvature="0"
       style="fill:#231f20" />
    <path
       d="m 262.59,303.79 h 6.963 v 51.305 h -6.962 V 303.79 Z m 14.91,27.095 4.988,-5.247 c 0,0 4.86,4.462 9.59,11.81 4.728,7.346 11.03,17.32 11.03,17.32 h -10.245 c 0,0 0.395,-4.202 -4.464,-10.105 -4.34,-6.56 -10.9,-13.778 -10.9,-13.778 z"
       id="path60"
       inkscape:connector-curvature="0"
       style="fill:#c4ced4" />
  </g>
</svg>
