<?xml version="1.0" encoding="UTF-8" standalone="no"?>
<svg
   xmlns:dc="http://purl.org/dc/elements/1.1/"
   xmlns:cc="http://creativecommons.org/ns#"
   xmlns:rdf="http://www.w3.org/1999/02/22-rdf-syntax-ns#"
   xmlns:svg="http://www.w3.org/2000/svg"
   xmlns="http://www.w3.org/2000/svg"
   xmlns:sodipodi="http://sodipodi.sourceforge.net/DTD/sodipodi-0.dtd"
   xmlns:inkscape="http://www.inkscape.org/namespaces/inkscape"
   width="512"
   height="512"
   viewBox="0 0 512 512"
   version="1.1"
   id="svg30"
   sodipodi:docname="houston-astros.svg"
   inkscape:version="0.92.5 (2060ec1f9f, 2020-04-08)">
  <metadata
     id="metadata36">
    <rdf:RDF>
      <cc:Work
         rdf:about="">
        <dc:format>image/svg+xml</dc:format>
        <dc:type
           rdf:resource="http://purl.org/dc/dcmitype/StillImage" />
      </cc:Work>
    </rdf:RDF>
  </metadata>
  <defs
     id="defs34" />
  <sodipodi:namedview
     pagecolor="#ffffff"
     bordercolor="#666666"
     borderopacity="1"
     objecttolerance="10"
     gridtolerance="10"
     guidetolerance="10"
     inkscape:pageopacity="0"
     inkscape:pageshadow="2"
     inkscape:window-width="640"
     inkscape:window-height="480"
     id="namedview32"
     showgrid="false"
     inkscape:zoom="0.4609375"
     inkscape:cx="256"
     inkscape:cy="256"
     inkscape:window-x="0"
     inkscape:window-y="0"
     inkscape:window-maximized="0"
     inkscape:current-layer="svg30" />
  <title
     id="title2">houston-astros</title>
  <g
     id="g28"
     transform="translate(-12,6)"
     style="fill:none;fill-rule:evenodd">
    <path
       d="m 427.996,259.926 c 0,92.025 -74.71,166.627 -166.87,166.627 -92.16,0 -166.87,-74.602 -166.87,-166.627 0,-92.026 74.71,-166.627 166.87,-166.627 92.16,0 166.87,74.6 166.87,166.622 z"
       id="path4"
       inkscape:connector-curvature="0"
       style="fill:#002d62" />
    <path
       d="m 399.617,400.988 h -2.292 v -8.912 l -3.265,8.912 h -2.206 l -3.134,-8.912 v 8.912 h -2.307 v -11.202 h 3.975 l 2.627,7.318 2.728,-7.318 h 3.947 v 11.202 z m -15.352,-9.202 h -3.396 v 9.202 h -2.297 v -9.202 h -3.38 v -2 h 9.068 v 2 z"
       id="path6"
       inkscape:connector-curvature="0"
       style="fill:#0e2b58" />
    <g
       id="g12"
       style="fill:#eb6e1f">
      <path
         d="m 260.49,101.723 c -87.706,0 -158.87,71.08 -158.87,158.77 0,87.688 71.164,158.754 158.87,158.754 87.7,0 158.95,-71.066 158.95,-158.755 0,-87.688 -71.25,-158.77 -158.95,-158.77 z m 0,6.304 c 84.408,0 152.753,68.24 152.753,152.465 0,84.21 -68.345,152.466 -152.754,152.466 -84.42,0 -152.69,-68.255 -152.69,-152.466 0,-84.224 68.27,-152.465 152.685,-152.465 z"
         id="path8"
         inkscape:connector-curvature="0" />
      <path
         d="m 260.91,158.632 c -56.028,0 -101.543,45.4 -101.543,101.455 0,56.053 45.515,101.513 101.543,101.513 56.04,0 101.603,-45.46 101.603,-101.513 0,-56.054 -45.563,-101.455 -101.603,-101.455 z m 0,6.274 c 52.746,0 95.378,42.605 95.378,95.18 0,52.576 -42.632,95.196 -95.378,95.196 -52.74,0 -95.377,-42.62 -95.377,-95.195 0,-52.576 42.637,-95.18 95.377,-95.18 z"
         id="path10"
         inkscape:connector-curvature="0" />
    </g>
    <path
       d="m 261.1,160.066 -22.565,68.762 h -72.153 l 58.933,42.707 -22.735,68.835 58.52,-42.75 58.68,42.78 -22.492,-68.72 59.64,-42.852 H 283.14 Z"
       id="path14"
       inkscape:connector-curvature="0"
       style="fill:#f4911e" />
    <path
       d="m 341.08,233.973 h -59.463 l 1.523,-5.145 -22.04,-68.762 v 99.86 l -58.52,80.444 58.52,-42.75 58.68,42.78 -22.492,-68.72 59.64,-42.852 -15.847,5.145 z"
       id="path16"
       inkscape:connector-curvature="0"
       style="fill:#eb6e1f" />
    <path
       d="m 225.315,271.535 6.298,-2.043 -49.06,-35.04 -16.17,-5.624 z"
       id="path18"
       inkscape:connector-curvature="0"
       style="fill:#ec6e1c" />
    <path
       d="m 304.964,294.736 -2.99,-9.275 v 8.22 l 2.99,1.06 z m -87.694,1 2.98,-9.275 v 8.22 l -2.98,1.06 z"
       id="path20"
       inkscape:connector-curvature="0"
       style="fill:#002d62" />
    <path
       d="m 207.186,298.17 v 16.36 h 46.875 v -16.36 l -12.94,-4.622 V 273.694 H 281.1 v 19.854 l -12.943,4.622 v 16.36 h 46.9 v -16.345 l -12.93,-4.623 v -60.69 l 12.93,-4.623 v -16.39 h -46.9 v 16.39 l 12.944,4.62 v 19.85 h -39.99 v -19.85 l 12.912,-4.622 V 211.87 h -46.89 v 16.39 l 12.94,4.61 v 60.706 l -12.883,4.593 z"
       id="path22"
       inkscape:connector-curvature="0"
       style="fill:#ffffff" />
    <path
       d="m 315.078,228.234 v -16.378 l -4.164,4.18 v 9.257 l -12.93,4.622 v 66.574 l 4.165,-2.946 v -60.69 l 12.924,-4.623 z m 0,69.936 -4.164,2.928 v 9.26 h -38.54 l -4.194,4.173 h 46.898 v -16.36 z m -73.93,-24.476 h 39.975 l 4.18,-4.16 h -48.336 v 26.94 l 4.18,-2.912 v -19.87 z m 12.927,28.52 v -4.044 l -4.18,2.913 v 9.29 h -38.543 l -4.155,4.158 h 46.878 V 302.22 Z m -29.787,-72.27 -12.946,-4.622 -4.16,2.94 12.94,4.624 z m 48.072,-4.637 -4.18,2.942 12.943,4.62 4.18,-2.93 -12.944,-4.637 z m -18.255,2.927 v -16.37 l -4.18,4.17 v 9.26 l -12.93,4.62 v 26.956 l 4.18,-4.16 v -19.853 z"
       id="path24"
       inkscape:connector-curvature="0"
       style="fill:#c4ced4" />
    <path
       d="m 326.44,381.497 -5.89,2.985 -1.075,-0.377 -9.17,-18.1 0.362,-1.087 5.89,-2.97 1.075,0.362 9.17,18.114 z m -10.288,-25.13 -9.737,4.9 -1.683,5.144 11.072,21.96 5.15,1.68 9.738,-4.897 1.697,-5.145 -11.09,-21.955 -5.15,-1.683 z m -84.234,20.246 3.802,0.61 1.77,-3.523 3.134,0.493 -3.395,21.752 -2.298,0.666 -0.624,4 9.417,1.47 0.623,-4 -2,-1.32 3.396,-21.766 3.135,0.48 0.61,3.883 3.803,0.594 1.378,-8.796 -21.386,-3.332 -1.364,8.798 z m -30.622,-18.346 -4.96,9.87 1.71,5.143 7.628,3.826 0.367,1.072 -3.03,6.043 -1.085,0.367 -6.537,-3.275 0.296,-3.19 -3.486,-1.766 -3.656,7.318 12.98,6.51 5.15,-1.71 4.962,-9.884 -1.707,-5.13 -7.636,-3.84 -0.363,-1.073 3.033,-6.042 1.087,-0.36 6.537,3.274 -0.306,3.203 3.49,1.74 3.674,-7.29 -12.998,-6.506 -5.14,1.71 z m 151.292,-13.637 -6.094,6 h -1.132 l -4.76,-4.84 v -1.13 l 5.21,-5.116 2.916,1.318 2.8,-2.753 -5.745,-5.8 -10.346,10.172 v 5.434 l 7.763,7.853 h 5.427 l 6.08,-5.985 h 1.146 l 4.745,4.81 v 1.145 l -5.195,5.118 -2.93,-1.32 -2.787,2.754 5.732,5.813 10.346,-10.203 v -5.4 L 358,344.63 Z m -68.664,37.62 -7.11,1.116 -1.32,-8.26 7.124,-1.116 0.914,0.667 1.045,6.666 z m 7.226,12.043 -3.816,-7.942 2.684,-3.704 -1.712,-10.913 -4.382,-3.173 -16.5,2.593 0.625,4 2.302,0.653 3.468,21.853 -2,1.345 0.64,4 9.416,-1.493 -0.64,-4 -2.306,-0.653 -1.304,-8.377 4.644,-0.723 3.67,7.624 -1.67,1.114 0.625,4 9.417,-1.478 -0.638,-4 -2.525,-0.724 z m -123.314,-44.46 10.983,-8 1.513,1.48 -7.813,11.128 -4.687,-4.603 z m 11.48,-14.753 -22.283,16.26 -2.24,-0.797 -2.843,2.884 6.81,6.666 2.833,-2.9 -0.83,-2.2 2.834,-2.06 5.913,5.783 -2.02,2.898 -2.218,-0.797 -2.843,2.87 6.81,6.666 2.84,-2.884 -0.84,-2.22 15.86,-22.55 -7.787,-7.62 z m -16.248,-137.25 3.205,2.48 5.848,-7.507 -3.192,-2.493 -2.134,1.1 -6.7,-5.2 4.916,-6.32 6.704,5.203 -0.546,2.333 3.203,2.493 5.854,-7.51 -3.204,-2.51 -2.14,1.117 -17.49,-13.593 0.546,-2.32 -3.196,-2.49 -5.853,7.505 3.21,2.506 2.125,-1.117 6.69,5.202 -4.906,6.318 -6.71,-5.2 0.552,-2.334 -3.207,-2.494 -5.86,7.52 3.22,2.498 2.12,-1.1 17.5,13.58 -0.55,2.332 z m 173.036,-53.56 1.103,-0.188 5.44,3.74 0.19,1.115 -11.565,16.694 -1.103,0.208 -5.446,-3.753 -0.203,-1.115 11.58,-16.696 z m -7.14,27.027 5.34,-0.97 14.004,-20.202 -0.958,-5.333 -8.953,-6.202 -5.34,0.985 -14.003,20.2 0.972,5.334 8.94,6.183 z m -149.494,-23.404 5.43,-3.753 1.118,0.203 11.586,16.68 -0.2,1.115 -5.424,3.754 -1.124,-0.203 -11.587,-16.656 0.2,-1.145 z m 13.704,23.462 8.936,-6.202 0.966,-5.32 -14.036,-20.2 -5.33,-0.956 -8.95,6.188 -0.976,5.347 14.046,20.188 z m 17.7,-40.967 6.99,22.288 4.806,2.492 10.394,-3.246 2.51,-4.81 -6.98,-22.29 1.77,-1.593 -1.218,-3.87 -9.1,2.84 1.225,3.88 2.376,0.29 6.36,20.244 -0.537,1.014 -6.29,1.97 -1.017,-0.52 -6.35,-20.245 1.784,-1.61 -1.22,-3.868 -9.094,2.854 1.21,3.855 2.383,0.318 z m 80,17.81 -1.218,3.883 9.098,2.83 1.204,-3.87 -1.77,-1.61 6.56,-21.01 3.03,0.927 v 3.942 l 3.673,1.144 2.67,-8.505 -20.66,-6.435 -2.654,8.493 3.67,1.16 2.265,-3.218 3.03,0.956 -6.56,21.013 -2.38,0.303 h 0.046 z m -20.56,-3.58 v -11.042 l -3.83,-3.826 h -8.55 l -0.797,-0.812 v -6.753 l 0.798,-0.81 h 7.328 l 1.147,2.984 h 3.903 v -8.15 h -14.525 l -3.83,3.81 v 11.08 l 3.83,3.81 h 8.547 l 0.798,0.812 v 6.753 l -0.798,0.812 h -7.314 l -1.16,-2.985 h -3.9 v 8.144 h 14.526 l 3.83,-3.826 z m 105.42,28.534 -3.194,2.507 0.537,2.314 -11.913,9.26 11.115,-18.506 -5.05,-6.478 -3.21,2.507 0.55,2.305 -17.485,13.607 -2.12,-1.073 -3.22,2.48 5.86,7.507 3.208,-2.492 -0.537,-2.333 11.9,-9.275 -11.1,18.52 3.713,4.768 21.46,-16.723 2.134,1.117 3.207,-2.507 -5.86,-7.508 z"
       id="path26"
       inkscape:connector-curvature="0"
       style="fill:#ffffff" />
  </g>
</svg>
