<?xml version="1.0" encoding="UTF-8" standalone="no"?>
<svg
   xmlns:dc="http://purl.org/dc/elements/1.1/"
   xmlns:cc="http://creativecommons.org/ns#"
   xmlns:rdf="http://www.w3.org/1999/02/22-rdf-syntax-ns#"
   xmlns:svg="http://www.w3.org/2000/svg"
   xmlns="http://www.w3.org/2000/svg"
   xmlns:sodipodi="http://sodipodi.sourceforge.net/DTD/sodipodi-0.dtd"
   xmlns:inkscape="http://www.inkscape.org/namespaces/inkscape"
   width="512"
   height="512"
   viewBox="0 0 512 512"
   version="1.1"
   id="svg20"
   sodipodi:docname="kansas-city-royals.svg"
   inkscape:version="0.92.5 (2060ec1f9f, 2020-04-08)">
  <metadata
     id="metadata26">
    <rdf:RDF>
      <cc:Work
         rdf:about="">
        <dc:format>image/svg+xml</dc:format>
        <dc:type
           rdf:resource="http://purl.org/dc/dcmitype/StillImage" />
      </cc:Work>
    </rdf:RDF>
  </metadata>
  <defs
     id="defs24" />
  <sodipodi:namedview
     pagecolor="#ffffff"
     bordercolor="#666666"
     borderopacity="1"
     objecttolerance="10"
     gridtolerance="10"
     guidetolerance="10"
     inkscape:pageopacity="0"
     inkscape:pageshadow="2"
     inkscape:window-width="640"
     inkscape:window-height="480"
     id="namedview22"
     showgrid="false"
     inkscape:zoom="0.4609375"
     inkscape:cx="256"
     inkscape:cy="256"
     inkscape:window-x="0"
     inkscape:window-y="0"
     inkscape:window-maximized="0"
     inkscape:current-layer="svg20" />
  <title
     id="title2">kansas-city-royals</title>
  <g
     id="g18"
     transform="translate(-4)"
     style="fill:none;fill-rule:evenodd">
    <path
       d="m 182.957,406.57 c 6.488,-3.254 8.323,-7.954 9.24,-12.715 0.348,-1.797 -0.722,-1.893 -1.923,-0.55 -6.86,6.396 -20.31,7.768 -29.027,-9.343 -4.51,-8.855 -8.92,-15.878 -14.392,-20.24 13.982,-5.082 23.52,-17.022 22.78,-29.72 -0.917,-15.398 -16.606,-26.99 -36.955,-25.62 -42.163,2.78 -54.334,40.82 -40.633,44.117 10.424,2.51 15.696,-7.35 16.534,-14.45 -2.61,2.443 -8.464,4.254 -7.43,-4.135 0.988,-7.966 14.43,-18.216 31.51,-19.513 11.93,-0.847 21.615,9.483 22.19,21.277 0.49,10.384 -6.15,19.974 -15.83,23.992 -4.192,-1.145 -9.006,-1.065 -14.74,0.506 -0.304,-21.778 2.18,-33.936 8.728,-40.96 -3.792,1.29 -7.945,3.6 -11.454,7.693 -12.37,14.84 -8.13,57.903 -11.147,72.37 -1.36,7.81 -9.916,11.934 -13.9,5.02 -8.774,12.994 5.94,23.872 17.516,17.707 5.505,-2.923 13.467,-10.69 11.993,-29.47 -0.837,-10.523 -1.392,-19.635 -1.634,-27.603 3.533,-0.815 9.338,-0.622 13.58,7.284 4.795,8.98 16.684,48.492 45,34.345"
       id="path4"
       inkscape:connector-curvature="0"
       style="fill:#004687" />
    <path
       d="m 398.32,321.21 c 1.095,-4.678 0.91,-9.835 -0.475,-14.892 -4.757,-17.282 -1.19,-23.26 2.067,-26.203 -38.51,-5.04 -38.638,53.297 -56.45,59.387 -3.02,1.032 -5.94,-1.538 -6.232,-5.413 24.978,-29.87 20.68,-71.37 -1.214,-73.48 -5.426,-0.53 -10.906,4.624 -10.812,14.06 0,0 -0.025,49.282 0.01,54.07 0.024,4.78 0,6.49 0.136,7.54 0.09,0.69 0.24,1.303 0.378,1.93 -1.03,0.966 -2.07,1.934 -3.158,2.85 -7.765,6.54 -9.055,4.238 -9.754,-1.66 l 0.024,-36.94 -12.583,3.23 c 0,0 -0.073,1.17 -0.055,2.74 -1.66,-1.57 -4.893,-1.933 -7.365,-1.875 -14.852,0.376 -26.192,25.165 -22.16,44.117 -2.598,2.966 -6.278,6.357 -10.415,10.07 l 0.04,-43.797 -12.753,3.553 -0.126,33.13 c -0.015,0.59 -0.033,1.863 -0.056,3.62 -1.675,6.284 -6.714,9.71 -9.37,9.322 -2.696,-0.404 -3.478,-5.044 -3.413,-7.185 l 0.007,-35.4 -12.1,3.076 c 0.3,14.13 -5.304,20.23 -11.663,22.52 -2.045,-8.003 -6.826,-14.366 -14.417,-15.59 -3.743,-0.6 -6.93,0.404 -9.218,2.28 -16.728,5.43 -19.955,32.975 -12.864,44.423 4.195,6.976 9.61,8.5 12.58,8.783 17.454,1.69 25.92,-16.638 25.003,-32.735 4.387,-1.417 8.034,-3.97 10.19,-7.275 l -0.24,10.49 c 0.032,7.01 0.948,17.264 8.934,17.28 6.07,0.017 11.91,-4.416 16.78,-9.958 0,1.626 -0.007,3.343 -0.007,5.082 -8.346,8.04 -16.18,16.99 -19.406,26.35 a 37.4,37.4 0 0 0 -0.556,1.876 c -14.06,3.804 -25.895,6.872 -33.106,8.482 -43.807,9.837 -56.332,21.914 -58.352,36.923 15.286,-17.127 33.212,-10.473 38.283,-7.42 1.215,-2.65 7.566,-11.794 22.95,-17.707 9.32,-3.59 19.067,-7.102 28.993,-10.57 -0.04,12.706 5.716,25.856 17.798,23.793 9.305,-1.58 16.164,-7.8 16.043,-32.55 l 0.01,-1.395 c 52.01,-16.846 103.883,-31.225 139.89,-43.69 18.677,-6.457 14.75,-28.735 -1.8,-35.245 m -201.96,20.205 c 3.122,1.204 5.425,4.844 6.776,9.38 -4.54,-0.05 -8.38,-1.24 -9.467,-1.867 -6.585,-3.774 -2.23,-9.396 2.69,-7.513 M 194,377.97 c -11.985,0.032 -11.815,-20.505 -8.24,-27.538 1.06,1.404 2.502,2.722 4.442,3.833 4.644,2.675 9.586,3.795 14.216,3.724 0.684,9.694 -2.43,19.96 -10.417,19.98 m 185.18,-54.76 c 0.04,-0.01 0.09,-0.01 0.12,-0.01 0.64,-0.076 1.25,-0.12 1.85,-0.15 0.032,-0.006 0.063,-0.006 0.096,-0.006 a 18.013,18.013 0 0 1 1.796,0 c 0.025,0 0.048,0 0.074,0.006 0.613,0.028 1.23,0.09 1.883,0.188 0.022,0.006 0.04,0.016 0.07,0.016 0.074,0.01 0.154,0.033 0.24,0.048 -0.974,4.416 -3.444,7.726 -8.38,8.734 -10.93,2.24 -10.53,-7.204 -2.133,-8.283 1.67,-0.2 3.073,-0.412 4.385,-0.548 m 6.086,-34.7 c -4.682,4.535 -0.09,17.457 0.5,28.066 0.015,0.34 0.007,0.67 0.015,1 -3.71,-0.55 -7.67,-0.586 -13.015,0.067 -4.283,0.525 -7.365,1.993 -9.41,3.9 5.152,-12.89 13.073,-31.59 21.91,-33.03 m -38.218,-8.92 c 3.606,12.827 -0.05,29.674 -9.58,44.465 0.006,-14.267 0.047,-45.1 0,-48.84 -0.088,-6.69 6.733,-5.734 9.58,4.376 m -60.01,38.672 c 4.416,-8.54 12.66,-5.822 13.812,-0.956 0.047,8.84 -0.187,17.04 -0.168,19.76 0.046,7.223 -5.264,15.98 -11.014,15.64 -8.404,-0.485 -8.92,-22.333 -2.63,-34.443 m -39.485,62.24 c -0.007,4.97 -0.015,9.824 -0.025,13.8 a 2487.68,2487.68 0 0 1 -11.857,3.248 c 0.065,-0.162 0.113,-0.32 0.185,-0.492 2.512,-5.71 6.73,-11.242 11.697,-16.553 m -4.983,45.11 c -5.425,1.42 -8.75,-7.465 -8.83,-16.626 4.58,-1.565 9.17,-3.126 13.782,-4.648 -0.034,15.52 -0.67,20.146 -4.952,21.276 m 155.652,-74.46 c -26.144,7.82 -86.026,25.174 -137.986,39.63 l 0.016,-22.39 c 4.583,-4.043 9.17,-7.903 13.25,-11.552 1.52,4.308 17.257,12.795 27.23,-5.513 4.6,14.27 20.728,-2.784 24.473,-5.67 a 64.945,64.945 0 0 0 2.665,-2.183 c 5.256,7.68 16.798,5.633 23.406,-0.733 3.445,-3.32 6.867,-8.936 9.16,-14.053 0.555,5.47 6.667,10.653 17.662,9.455 8.94,-0.99 14.844,-5.262 18.04,-11.094 0.604,0.274 1.247,0.557 1.916,0.863 13.054,6.018 9.975,20.31 0.168,23.244 m 12.95,-63.873 h -2.907 v 7.9 h -1.964 v -7.9 h -2.9 v -1.728 h 7.767 v 1.727 h 0.005 z m 13.145,7.9 h -1.97 v -7.65 h -0.046 l -2.782,7.65 h -1.895 l -2.68,-7.65 h -0.063 v 7.65 h -1.95 v -9.628 h 3.407 l 2.223,6.295 h 0.048 l 2.326,-6.294 h 3.38 v 9.628 z"
       id="path6"
       inkscape:connector-curvature="0"
       style="fill:#004687" />
    <path
       d="m 411.175,287.277 h -2.908 v 7.9 h -1.964 v -7.9 h -2.9 v -1.727 h 7.767 v 1.727 z m 13.144,7.9 h -1.97 v -7.65 h -0.046 l -2.782,7.65 h -1.895 l -2.68,-7.65 h -0.063 v 7.65 h -1.95 v -9.627 h 3.407 l 2.223,6.295 h 0.048 l 2.326,-6.295 h 3.38 v 9.628 z"
       id="path8"
       inkscape:connector-curvature="0"
       style="fill:#004687" />
    <path
       d="m 411.175,287.277 h -2.908 v 7.9 h -1.964 v -7.9 h -2.9 v -1.727 h 7.767 v 1.727 z m 13.144,7.9 h -1.97 v -7.65 h -0.046 l -2.782,7.65 h -1.895 l -2.68,-7.65 h -0.063 v 7.65 h -1.95 v -9.627 h 3.407 l 2.223,6.295 h 0.048 l 2.326,-6.295 h 3.38 v 9.628 z M 173.14,132.687 v 130.547 l 68.88,40.342 68.88,-40.342 V 132.686 H 173.14 Z"
       id="path10"
       inkscape:connector-curvature="0"
       style="fill:#004687" />
    <path
       d="m 308.327,85.38 c 4.516,0 8.18,-3.674 8.18,-8.194 0,-4.52 -3.664,-8.186 -8.18,-8.186 -4.507,0 -8.178,3.665 -8.178,8.186 0,4.52 3.67,8.193 8.174,8.193 m -0.82,5.35 h -1.69 c 0,10.775 -8.717,19.534 -19.48,19.534 -10.76,0 -19.415,-8.765 -19.415,-19.544 h -5.193 c 0,10.78 -8.726,19.545 -19.48,19.545 -10.754,0 -19.416,-8.814 -19.416,-19.577 l -5.23,0.05 c 0,10.777 -8.72,19.526 -19.48,19.526 -10.76,0 -19.45,-8.8 -19.45,-19.563 l -5.633,-0.062 v 38.355 h 137.92 V 90.73 h -5.142 M 175.94,85.38 c 4.523,0 8.177,-3.674 8.177,-8.194 a 8.1785,8.1785 0 0 0 -16.357,0 c 0,4.52 3.663,8.193 8.18,8.193 m 44.488,0 c 4.524,0 8.186,-3.677 8.186,-8.197 A 8.184,8.184 0 0 0 220.428,69 c -4.516,0 -8.17,3.665 -8.17,8.186 0,4.52 3.654,8.193 8.17,8.193 m 43.992,0 c 4.516,0 8.18,-3.677 8.18,-8.197 a 8.184,8.184 0 0 0 -16.366,0 c 0,4.52 3.66,8.193 8.187,8.193"
       id="path12"
       inkscape:connector-curvature="0"
       style="fill:#c09a5b" />
    <path
       d="m 198.606,170.56 c 0,-7.475 -5.022,-9.87 -9.522,-9.82 l -1.48,-0.05 v -3.858 h 29.338 v 3.94 c -4.194,0.313 -8.5,2.883 -8.5,9.787 l -0.008,23.23 2.045,-1.135 c 4.22,-5.962 15.32,-21.787 17.62,-26.355 2.844,-5.597 -1.49,-5.597 -5.657,-5.597 v -3.9 h 26 v 3.9 H 246.6 c -2.816,0 -6.326,0 -11.003,5.768 -5.964,7.397 -17.837,25.3 -17.837,25.3 18.176,1.36 25.01,26.326 29.687,29.712 -2.674,-17.83 10.5,-40.073 29.84,-39.21 2.155,0.09 4.828,-0.177 10.994,1.515 6.18,1.706 6.74,-1.355 7.57,-4.747 h 4.607 v 29.374 h -3.98 c -0.336,-5.09 -2.86,-21.913 -19.138,-22.414 -16.56,-0.507 -19.656,18.668 -19.903,31.75 -0.82,48.4 32.852,46.85 39.024,31.246 0.884,-2.29 0.507,-2.917 -0.514,-3.408 -7.326,-3.554 1.174,-13.068 5.89,-4.746 2.15,3.81 -1.712,21.905 -21.883,21.905 -31.344,0 -40.52,-43.81 -52.167,-58.07 -9.095,-11.102 -16.517,-6.116 -19.303,-3.4 l -0.113,7.637 0.064,13.583 c 0,7.485 5.03,9.87 9.53,9.82 l 1.47,0.05 v 3.875 H 187.6 v -3.875 l 1.483,-0.05 c 4.5,0.05 9.523,-2.335 9.523,-9.82 v -51.94"
       id="path14"
       inkscape:connector-curvature="0"
       style="fill:#231f20" />
    <path
       d="m 195.853,167.805 c 0,-7.477 -5.014,-9.86 -9.515,-9.82 l -1.49,-0.04 v -3.877 h 29.347 v 3.948 c -4.21,0.314 -8.5,2.876 -8.5,9.788 l -0.008,23.25 2.036,-1.15 c 4.234,-5.97 15.327,-21.794 17.628,-26.345 2.847,-5.61 -1.484,-5.61 -5.653,-5.61 v -3.9 h 26 v 3.9 h -1.835 c -2.817,0 -6.327,0 -10.996,5.785 -5.98,7.378 -17.846,25.287 -17.846,25.287 18.176,1.354 25.01,26.32 29.67,29.714 -2.655,-17.83 10.513,-40.073 29.848,-39.22 2.166,0.09 4.83,-0.17 11.007,1.523 6.166,1.7 6.727,-1.36 7.556,-4.753 h 4.608 v 29.376 h -3.985 c -0.33,-5.093 -2.86,-21.906 -19.13,-22.415 -16.563,-0.507 -19.67,18.676 -19.895,31.752 -0.828,48.395 32.84,46.858 39.017,31.244 0.9,-2.28 0.498,-2.91 -0.5,-3.4 -7.33,-3.57 1.16,-13.077 5.878,-4.755 2.158,3.82 -1.714,21.915 -21.885,21.915 -31.345,0 -40.513,-43.82 -52.168,-58.072 -9.09,-11.118 -16.51,-6.115 -19.296,-3.41 l -0.122,7.648 0.073,13.59 c 0,7.46 5.024,9.854 9.523,9.807 l 1.482,0.047 v 3.875 h -31.85 v -3.876 l 1.49,-0.05 c 4.5,0.05 9.514,-2.344 9.514,-9.804 V 167.8"
       id="path16"
       inkscape:connector-curvature="0"
       style="fill:#ffffff" />
  </g>
</svg>
