<?xml version="1.0" encoding="UTF-8" standalone="no"?>
<svg
   xmlns:dc="http://purl.org/dc/elements/1.1/"
   xmlns:cc="http://creativecommons.org/ns#"
   xmlns:rdf="http://www.w3.org/1999/02/22-rdf-syntax-ns#"
   xmlns:svg="http://www.w3.org/2000/svg"
   xmlns="http://www.w3.org/2000/svg"
   xmlns:sodipodi="http://sodipodi.sourceforge.net/DTD/sodipodi-0.dtd"
   xmlns:inkscape="http://www.inkscape.org/namespaces/inkscape"
   width="512"
   height="512"
   viewBox="0 0 512 512"
   version="1.1"
   id="svg22"
   sodipodi:docname="los-angeles-angels.svg"
   inkscape:version="0.92.5 (2060ec1f9f, 2020-04-08)">
  <metadata
     id="metadata28">
    <rdf:RDF>
      <cc:Work
         rdf:about="">
        <dc:format>image/svg+xml</dc:format>
        <dc:type
           rdf:resource="http://purl.org/dc/dcmitype/StillImage" />
      </cc:Work>
    </rdf:RDF>
  </metadata>
  <defs
     id="defs26" />
  <sodipodi:namedview
     pagecolor="#ffffff"
     bordercolor="#666666"
     borderopacity="1"
     objecttolerance="10"
     gridtolerance="10"
     guidetolerance="10"
     inkscape:pageopacity="0"
     inkscape:pageshadow="2"
     inkscape:window-width="640"
     inkscape:window-height="480"
     id="namedview24"
     showgrid="false"
     inkscape:zoom="0.4609375"
     inkscape:cx="256"
     inkscape:cy="256"
     inkscape:window-x="554"
     inkscape:window-y="136"
     inkscape:window-maximized="0"
     inkscape:current-layer="svg22" />
  <title
     id="title2">los-angeles-angels-of-anaheim</title>
  <g
     id="g20"
     transform="translate(-53.728813,-10.847458)"
     style="fill:none;fill-rule:evenodd">
    <path
       d="M 271.244,438.735 H 374.03 c -9.49,-6.463 -17.88,-17.78 -21.622,-30.74 l -28.733,-98.813 c -3.106,-10.643 1.944,-21.28 10.02,-28.474 -11.466,-3.54 -21.635,-11.502 -24.827,-22.52 l -16.104,-55.316 c 22.884,-7.678 37.79,-21.262 37.79,-37.05 0,-20.614 -25.445,-37.496 -60.875,-42.326 L 256.22,77.24 h -15.06 l -13.443,46.265 c -35.448,4.83 -60.925,21.703 -60.925,42.316 0,15.79 14.94,29.378 37.84,37.056 l -16.087,55.316 c -3.174,11.018 -13.378,18.98 -24.844,22.52 8.06,7.195 13.15,17.83 10.04,28.474 L 144.995,408 c -3.806,12.96 -12.13,24.276 -21.587,30.74 H 226.19 c -8.41,-6.464 -12.996,-17.782 -9.224,-30.74 l 2.526,-8.595 h 58.463 L 280.45,408 c 3.752,12.96 -0.83,24.275 -9.21,30.74 z m -31.394,-109.332 8.875,-30.574 8.857,30.57 h -17.73 z"
       id="path4"
       inkscape:connector-curvature="0"
       style="fill:#ffffff" />
    <path
       d="m 356.744,431.73 c -4.917,-6.42 -8.807,-13.898 -11.1,-21.735 l -28.55,-98.165 c -4.505,-15.575 3.853,-26.65 4.95,-28.415 -9.92,-5.38 -17.183,-13.585 -19.942,-23.27 L 284.737,200.4 c 24.496,-6.538 41.197,-19.555 41.197,-34.58 0,-18.996 -26.84,-34.853 -62.386,-38.36 L 251,84.27 h -4.552 L 233.9,127.46 c -35.58,3.498 -62.434,19.355 -62.434,38.36 0,15.025 16.72,28.042 41.214,34.58 l -17.366,59.745 c -2.81,9.686 -10.04,17.89 -19.96,23.27 1.115,1.765 9.49,12.84 4.936,28.415 l -28.535,98.165 c -2.276,7.837 -6.182,15.315 -11.1,21.736 h 71.176 c -5.73,-12.71 -2.72,-21.97 -0.15,-30.684 l 2.53,-8.678 h 69 l 2.54,8.678 c 2.528,8.72 5.55,17.98 -0.18,30.69 h 71.177 z m -126.316,-95.3 18.297,-62.792 18.23,62.793 h -36.527 z"
       id="path6"
       inkscape:connector-curvature="0"
       style="fill:#003263" />
    <path
       d="m 267.62,181.193 h 0.016 l -9.157,-31.54 1.79,6.28 c -3.74,-0.207 -7.61,-0.35 -11.55,-0.35 v 20.463 l 54.822,188.367 12.597,43.208 21.672,13 c -1.514,-3.292 -2.875,-6.674 -3.906,-10.14 l -27.29,-93.605 c -4.288,-14.632 -1.927,-20.945 1.18,-29.774 -8.192,-6.305 -13.643,-14.51 -16.303,-23.752 l -20.701,-71.3 c -0.018,0 -0.034,0.01 -0.05,0.01 m -15.6,-53.914 -6.416,-22.054 v 21.913 c 2.16,0.002 4.304,0.06 6.415,0.143 m -74.205,270.617 17.517,11.858 c -0.947,-5.902 -0.05,-13.67 1.627,-19.186 l 5.817,-20.153 -12.033,-16.864"
       id="path8"
       inkscape:connector-curvature="0"
       style="fill:#ba0021" />
    <path
       d="m 215.67,347.526 33.055,-113.43 v -58.05 L 193.867,364.413 H 303.55 l -21.87,-16.887"
       id="path10"
       inkscape:connector-curvature="0"
       style="fill:#ba0021" />
    <path
       d="m 248.725,234.095 32.954,113.43 21.87,16.888 -54.83,-188.367"
       id="path12"
       inkscape:connector-curvature="0"
       style="fill:#862633" />
    <path
       d="m 337.816,420.62 -21.672,-13 -12.596,-43.207 h -109.68 l 54.857,-188.367 v -20.462 c 3.938,0 7.81,0.142 11.55,0.35 l -1.796,-6.28 a 41.24,41.24 0 0 0 -1.48,-0.066 157.05,157.05 0 0 0 -8.28,-0.224 c -3.34,0 -6.597,0.108 -9.77,0.29 l -9.173,31.54 -3.125,10.86 c -0.017,0 -0.033,0 -0.033,-0.01 l -20.725,71.3 c -2.66,9.242 -8.06,17.445 -16.303,23.75 3.09,8.828 5.467,15.142 1.196,29.775 l -27.32,93.603 a 67.168,67.168 0 0 1 -3.924,10.143 h 38.905 l -17.517,-11.86 12.93,-44.348 12.03,16.864 h 85.61 l 5.9,20.154 c 1.563,5.514 2.46,13.283 1.563,19.19 m -50.238,-304.525 -6.416,22.054 a 163.13,163.13 0 0 1 6.41,-0.142"
       id="path14"
       inkscape:connector-curvature="0"
       style="fill:#862633" />
    <path
       d="m 229.78,181.193 c -19.86,-2.38 -33.97,-8.386 -33.97,-15.374 0,-8.05 18.58,-14.746 43.143,-16.17 a 168.91,168.91 0 0 1 9.772,-0.29 c 2.825,0 5.582,0.082 8.275,0.224 0.5,0.017 0.998,0.033 1.48,0.066 24.544,1.426 43.14,8.105 43.14,16.166 0,6.987 -14.125,12.99 -33.984,15.373 h -0.017 l 3.12,10.86 c 0.016,0 0.033,-0.01 0.05,-0.01 25.575,-3.847 43.923,-14.1 43.923,-26.225 0,-14.433 -26.158,-26.318 -59.58,-27.676 a 163.045,163.045 0 0 0 -6.414,-0.14 c -2.16,0 -4.304,0.06 -6.415,0.14 -33.487,1.36 -59.594,13.244 -59.594,27.676 0,12.124 18.314,22.385 43.907,26.224 0,0.01 0.015,0.01 0.032,0.01"
       id="path16"
       inkscape:connector-curvature="0"
       style="fill:#c4ced4" />
    <path
       d="m 376.77,423.01 h -3.042 v 8.314 h -2.06 v -8.313 h -3.04 v -1.8 h 8.144 l -0.002,1.805 z m 13.793,8.313 h -2.06 v -8.054 h -0.05 l -2.925,8.05 h -1.994 l -2.807,-8.055 h -0.05 v 8.053 h -2.06 V 421.2 h 3.556 l 2.344,6.607 h 0.066 l 2.426,-6.606 h 3.55 v 10.12 z"
       id="path18"
       inkscape:connector-curvature="0"
       style="fill:#003263" />
  </g>
</svg>
