<?xml version="1.0" encoding="UTF-8" standalone="no"?>
<svg
   xmlns:dc="http://purl.org/dc/elements/1.1/"
   xmlns:cc="http://creativecommons.org/ns#"
   xmlns:rdf="http://www.w3.org/1999/02/22-rdf-syntax-ns#"
   xmlns:svg="http://www.w3.org/2000/svg"
   xmlns="http://www.w3.org/2000/svg"
   xmlns:sodipodi="http://sodipodi.sourceforge.net/DTD/sodipodi-0.dtd"
   xmlns:inkscape="http://www.inkscape.org/namespaces/inkscape"
   width="512"
   height="512"
   viewBox="0 0 512 512"
   version="1.1"
   id="svg30"
   sodipodi:docname="miami-marlins.svg"
   inkscape:version="0.92.5 (2060ec1f9f, 2020-04-08)">
  <metadata
     id="metadata36">
    <rdf:RDF>
      <cc:Work
         rdf:about="">
        <dc:format>image/svg+xml</dc:format>
        <dc:type
           rdf:resource="http://purl.org/dc/dcmitype/StillImage" />
      </cc:Work>
    </rdf:RDF>
  </metadata>
  <defs
     id="defs34" />
  <sodipodi:namedview
     pagecolor="#ffffff"
     bordercolor="#666666"
     borderopacity="1"
     objecttolerance="10"
     gridtolerance="10"
     guidetolerance="10"
     inkscape:pageopacity="0"
     inkscape:pageshadow="2"
     inkscape:window-width="640"
     inkscape:window-height="480"
     id="namedview32"
     showgrid="false"
     inkscape:zoom="0.4609375"
     inkscape:cx="256"
     inkscape:cy="256"
     inkscape:window-x="479"
     inkscape:window-y="46"
     inkscape:window-maximized="0"
     inkscape:current-layer="svg30" />
  <title
     id="title2">miami-marlins</title>
  <g
     id="g28"
     transform="translate(-20,-16)"
     style="fill:none;fill-rule:evenodd">
    <path
       d="m 309.076,281.988 30.768,78.904 h 60.228 l -83.748,-209.56 -53.552,98.436 -44.82,-83.182 -5.783,-10.74 -2.79,-5.196 -3.74,9.374 -5.82,14.557 c -6.69,5.05 -12.37,9.91 -17.43,14.757 -23,22.08 -25.08,38.49 -18.943,50.027 a 32.92,32.92 0 0 0 3.264,4.533 c 4.54,5.32 10.838,9.682 16.816,12.535 0.15,0.07 0.29,0.14 0.444,0.2 0.318,0.155 0.646,0.303 0.967,0.445 0.408,0.178 1.183,0.513 1.72,0.743 0.25,0.107 0.466,0.194 0.54,0.227 0.01,0 0.024,0 0.05,0.01 a 35.522,35.522 0 0 1 -1.995,-0.96 l -0.005,0.002 c -0.443,-0.224 -0.866,-0.47 -1.31,-0.71 -0.216,-0.123 -0.444,-0.25 -0.666,-0.375 a 0.77,0.77 0 0 0 -0.134,-0.074 l -1.155,-0.71 c -0.28,-0.18 -0.56,-0.36 -0.835,-0.543 a 9.07,9.07 0 0 1 -0.406,-0.272 c -0.175,-0.122 -0.37,-0.24 -0.54,-0.36 a 36.46,36.46 0 0 1 -3.72,-2.987 c -0.226,-0.202 -0.51,-0.482 -0.76,-0.724 l 29.296,-74.874 2.532,-6.47 1.822,-4.654 0.014,0.006 1.334,2.476 1.814,3.36 50.32,93.206 53.475,-99.046 74.32,190.036 h -46.303 l -34.267,-87.79 -47.227,87.5 -47.238,-87.5 -0.043,0.096 -0.41,1.054 v -0.016 l -33.86,86.655 h -46.284 l 37.986,-97.123 c 0.118,0.03 0.247,0.045 0.37,0.065 a 91.69,91.69 0 0 1 -4.98,-1.037 h -0.043 c 0.013,0 0.03,0.01 0.03,0.017 -0.053,-0.017 -0.46,-0.064 -1.124,-0.166 h -0.016 l -41.8,104.75 h 60.184 l 30.855,-78.907 46.27,84.89 46.32,-84.89 z M 171.384,245.812 a 44.363,44.363 0 0 1 -4.263,-6.257 c -1.212,-2.187 -1.742,-3.618 -1.742,-3.618 a 33.27,33.27 0 0 1 -1.07,-5.01 c -2.218,-16.185 12.882,-33.75 32.774,-49.46 l -25.694,64.345 z"
       id="path4"
       inkscape:connector-curvature="0"
       style="fill:#c4ced4" />
    <path
       d="M 254.807,126.187 C 298.653,105.385 328.437,90.002 328.444,90 l -10.967,4.197 c -1.08,0.502 -24.226,11.07 -28.29,12.854 -23.996,10.55 -56.195,24.82 -69.562,31.65 -2.67,1.36 -6.994,3.724 -11.785,6.524 -45.602,28.677 -79.037,60.79 -62.047,97.708 -19.47,-22.613 -2.4,-55.815 18.18,-78.76 13.746,-15.352 20.25,-21.7 27.26,-33.096 5.5,-8.925 9.03,-18.3 8.72,-27.73 0.36,0.166 -7.337,-3.723 -7.337,-3.723 0.932,3.03 -1.064,21.423 -12.91,37.627 -12.964,17.7 -57.687,56.82 -44.123,93.664 7.517,20.4 26.817,24.467 31.676,25.235 0.37,0.026 0.732,0.126 1.083,0.15 -42.09,-21.713 -31.07,-75.53 86.46,-130.103 z"
       id="path6"
       inkscape:connector-curvature="0"
       style="fill:#c4ced4" />
    <path
       d="m 217.954,166.586 c 21.058,-13.712 42.688,-24.633 53.403,-29.793 l -4.227,-1.996 c -18.658,9.358 -33.587,17.613 -45.87,25.22 a 348.264,348.264 0 0 0 -5.105,3.226 l 1.8,3.343 z"
       id="path8"
       inkscape:connector-curvature="0"
       style="fill:#c4ced4" />
    <path
       d="m 221.26,160.018 c 12.285,-7.608 27.212,-15.865 45.864,-25.22 l -6.41,-3.01 -3.032,-1.434 c -12.48,6.246 -30.033,15.835 -45.51,25.494 l 3.986,7.396 c 1.65,-1.067 3.35,-2.14 5.102,-3.226 z m -34.603,97.797 c -0.537,-0.23 -1.31,-0.566 -1.717,-0.742 a 29.08,29.08 0 0 1 -0.967,-0.446 c -0.155,-0.06 -0.294,-0.13 -0.443,-0.198 -5.978,-2.86 -12.274,-7.22 -16.815,-12.54 a 33.05,33.05 0 0 1 -3.264,-4.533 c -6.13,-11.535 -4.054,-27.947 18.948,-50.027 5.055,-4.847 10.738,-9.706 17.426,-14.75 l 5.82,-14.557 a 276.01,276.01 0 0 0 -6.005,4.02 c -58.485,40.27 -54.03,67.41 -37.48,81.313 2.9,2.48 6.22,4.78 9.566,6.398 4.603,2.227 8.968,4.3 13.624,5.753 0.535,0.16 1.064,0.29 1.594,0.473 a 1.4,1.4 0 0 1 0.275,0.08 l 0.005,-0.002 a 9.135,9.135 0 0 0 -0.563,-0.245 z"
       id="path10"
       inkscape:connector-curvature="0"
       style="fill:#0077c8" />
    <path
       d="m 163.973,164.166 c -20.58,22.946 -37.65,56.147 -18.18,78.76 -16.988,-36.915 16.445,-69.03 62.047,-97.706 4.79,-2.8 9.117,-5.164 11.785,-6.524 13.367,-6.83 45.566,-21.098 69.56,-31.645 4.066,-1.78 27.21,-12.35 28.292,-12.85 0.026,-0.01 0.05,-0.022 0.05,-0.022 0,0 -48.807,18.56 -58.518,22.363 -0.136,0.045 0,0 -0.048,0.014 -4.613,1.133 -11.133,2.295 -15.788,2.115 -3.698,-0.11 -9.97,-0.887 -17.09,-3.877 -2.134,-0.903 -14.588,-6.044 -25.077,-10.957 -0.35,-0.165 -0.7,-0.327 -1.057,-0.493 0.31,9.43 -3.22,18.804 -8.72,27.73 -7.012,11.397 -13.514,17.744 -27.26,33.096 z"
       id="path12"
       inkscape:connector-curvature="0"
       style="fill:#ff6600" />
    <path
       d="m 209.847,172.04 1.11,18.434 0.196,3.08 v -0.01 l 49.83,91.538 1.945,3.645 1.973,-3.645 49.52,-91.36 0.005,0.024 1.904,-29.392 -53.48,99.046 -50.323,-93.208 -1.813,-3.36 -1.335,-2.478 0.19,3.247 0.273,4.44 z"
       id="path14"
       inkscape:connector-curvature="0"
       style="fill:#ffd100" />
    <path
       d="m 153.41,341.247 -0.005,0.004 h 18.43 -18.425 z m 111.497,-20.607 -2.067,3.82 -2.053,-3.81 2.053,3.815 2.067,-3.824 z"
       id="path16"
       inkscape:connector-curvature="0"
       style="fill:#0077c8" />
    <path
       d="m 373.507,344.455 0.1,0.243 h -22.682 l -39.442,-100.958 -48.634,90.065 -48.64,-90.064 -39.49,101.05 h -22.69 l 0.467,-1.2 -0.47,1.2 -17.01,9.6 H 181.3 l 33.865,-86.653 0.407,-1.038 0.042,-0.098 47.24,87.5 47.222,-87.5 34.268,87.79 h 46.3 l -17.037,-9.69 -0.1,-0.243 z"
       id="path18"
       inkscape:connector-curvature="0"
       style="fill:#0077c8" />
    <path
       d="m 339.608,258.058 31.728,81.02 0.74,1.903 1.43,3.48 -33.898,-86.398 z"
       id="path20"
       inkscape:connector-curvature="0"
       style="fill:#0077c8" />
    <path
       d="m 174.724,344.79 39.49,-101.05 48.635,90.065 48.63,-90.064 39.441,100.959 h 22.683 l -0.1,-0.24 -1.43,-3.474 h -18.2 l -41.86,-107.526 -47.11,87.185 -2.066,3.825 -2.056,-3.817 -46.966,-86.95 -41.985,107.547 -18.43,0.004 -0.908,2.34 -0.466,1.2 h 22.694 z"
       id="path22"
       inkscape:connector-curvature="0"
       style="fill:#c4ced4" />
    <path
       d="m 210.958,190.474 -1.126,-18.428 -0.267,-4.44 -0.198,-3.26 -1.824,4.653 -2.53,6.464 -29.297,74.873 c 0.252,0.242 0.534,0.522 0.76,0.724 0.78,0.708 2.063,1.836 3.72,2.99 0.16,0.115 0.347,0.232 0.522,0.345 0.03,0.02 0.07,0.046 0.107,0.065 a 46.98,46.98 0 0 0 1.157,0.764 c 0.38,0.234 0.77,0.473 1.155,0.707 a 0.94,0.94 0 0 1 0.134,0.076 l 0.55,0.304 c 0.12,0.07 0.245,0.13 0.364,0.2 0.355,0.195 0.703,0.39 1.067,0.58 l 25.904,-63.54 -0.19,-3.08 z m -75.942,163.916 17.01,-9.6 0.47,-1.2 0.91,-2.34 0.004,-0.002 h -0.005 l 0.025,-0.033 31.348,-82.962 c 0.01,0 0.015,-0.01 0.015,-0.01 a 20.3,20.3 0 0 1 -0.854,0.03 c -0.23,0.007 -0.448,0.007 -0.67,0.007 -3.44,-0.017 -6.846,-0.47 -9.9,-0.954 -0.12,-0.02 -0.25,-0.034 -0.37,-0.063 L 135.01,354.39 Z m 204.592,-96.332 33.9,86.397 0.1,0.243 17.036,9.69 -74.32,-190.034 -1.903,29.392 25.19,64.312 z"
       id="path24"
       inkscape:connector-curvature="0"
       style="fill:#ff6600" />
    <path
       d="m 153.43,341.212 -0.025,0.035 h 18.432 l 41.986,-107.547 46.965,86.95 2.054,3.81 2.067,-3.82 47.1,-87.186 41.863,107.525 h 18.2 l -0.74,-1.908 -31.728,-81.018 -25.187,-64.312 -0.005,-0.025 -49.515,91.36 -1.972,3.646 -1.946,-3.645 -49.83,-91.537 v 0.01 l -25.904,63.54 0.004,-0.002 c 0.583,0.3 1.398,0.704 1.996,0.96 -0.027,-0.01 -0.042,-0.013 -0.05,-0.01 l -0.542,-0.226 c 0.28,0.116 0.503,0.214 0.565,0.244 h -0.01 c -0.16,0 -1.587,0.15 -2.42,0.183 0,0 -0.005,0.01 -0.014,0.01 l -31.35,82.96 z m 43.622,40.036 h 8.427 v 42.246 h -8.43 z m 141.3,21.732 -1.03,1.903 -1.042,-1.902 -12.064,-22.35 -16.92,43.2 h 8.982 l 8.234,-21.033 0.915,-2.35 1.205,2.22 10.69,19.797 10.69,-19.797 1.203,-2.22 0.92,2.35 8.206,21.034 h 8.97 l -16.892,-43.2 -12.062,22.354 z m -81.832,-21.732 -16.964,42.246 h 9 l 4.002,-9.85 h 16.657 l 4.02,9.85 h 8.988 l -16.958,-42.246 h -8.744 z m -0.56,23.945 5.148,-11.806 4.716,11.806 h -9.865 z m 143.57,-24.856 h 8.435 v 43.175 h -8.434 z m -264.495,22.643 -1.017,1.903 -1.04,-1.902 -12.072,-22.35 L 104,423.828 h 8.97 l 8.217,-21.033 0.93,-2.35 1.198,2.22 10.703,19.797 10.677,-19.8 1.2,-2.22 0.917,2.35 8.21,21.036 h 8.97 l -16.886,-43.198 -12.07,22.353 z"
       id="path26"
       inkscape:connector-curvature="0"
       style="fill:#000000" />
  </g>
</svg>
