<?xml version="1.0" encoding="UTF-8" standalone="no"?>
<svg
   xmlns:dc="http://purl.org/dc/elements/1.1/"
   xmlns:cc="http://creativecommons.org/ns#"
   xmlns:rdf="http://www.w3.org/1999/02/22-rdf-syntax-ns#"
   xmlns:svg="http://www.w3.org/2000/svg"
   xmlns="http://www.w3.org/2000/svg"
   xmlns:sodipodi="http://sodipodi.sourceforge.net/DTD/sodipodi-0.dtd"
   xmlns:inkscape="http://www.inkscape.org/namespaces/inkscape"
   width="512"
   height="512"
   viewBox="0 0 512 512"
   version="1.1"
   id="svg104"
   sodipodi:docname="milwaukee-brewers.svg"
   inkscape:version="0.92.5 (2060ec1f9f, 2020-04-08)">
  <metadata
     id="metadata110">
    <rdf:RDF>
      <cc:Work
         rdf:about="">
        <dc:format>image/svg+xml</dc:format>
        <dc:type
           rdf:resource="http://purl.org/dc/dcmitype/StillImage" />
      </cc:Work>
    </rdf:RDF>
  </metadata>
  <defs
     id="defs108" />
  <sodipodi:namedview
     pagecolor="#ffffff"
     bordercolor="#666666"
     borderopacity="1"
     objecttolerance="10"
     gridtolerance="10"
     guidetolerance="10"
     inkscape:pageopacity="0"
     inkscape:pageshadow="2"
     inkscape:window-width="640"
     inkscape:window-height="479"
     id="namedview106"
     showgrid="false"
     inkscape:zoom="0.4609375"
     inkscape:cx="256"
     inkscape:cy="256"
     inkscape:window-x="1266"
     inkscape:window-y="274"
     inkscape:window-maximized="0"
     inkscape:current-layer="svg104" />
  <title
     id="title2">milwaukee-brewers</title>
  <g
     id="g102"
     transform="matrix(0.93340737,0,0,1.0398144,39.783366,9.7307529)"
     style="fill:none;fill-rule:evenodd">
    <path
       d="m 118.92,256.22 c 0,-36.528 14.387,-70.67 40.083,-96.276 C 184.7,133.998 219.303,120 255.62,120 c 36.656,0 70.917,13.998 96.957,39.944 25.695,25.607 40.086,59.748 40.086,96.277 0,75.11 -61.326,136.23 -137.04,136.23 -36.317,0 -70.92,-14 -96.615,-39.95 -25.698,-25.6 -40.09,-59.74 -40.09,-96.276 z"
       id="path4"
       inkscape:connector-curvature="0"
       style="fill:#0a2351" />
    <path
       d="m 122.346,256.22 c 0,-35.505 13.703,-68.962 39.058,-93.886 25.352,-25.263 58.584,-38.92 94.215,-38.92 35.63,0 69.202,13.657 94.554,38.92 25.008,24.924 39.058,58.383 39.058,93.887 0,73.41 -59.957,132.81 -133.617,132.81 -35.632,0 -68.864,-13.65 -94.216,-38.92 -25.355,-24.92 -39.058,-58.38 -39.058,-93.89 z"
       id="path6"
       inkscape:connector-curvature="0"
       style="fill:#ffffff" />
    <path
       d="m 255.62,165.067 c -50.364,0 -91.477,40.97 -91.477,91.157 0,24.242 9.594,47.458 26.725,64.526 17.472,17.073 40.425,26.634 64.75,26.634 24.668,0 47.624,-9.56 64.752,-26.634 17.475,-17.068 26.725,-40.284 26.725,-64.526 0,-24.24 -9.25,-47.115 -26.725,-64.528 -17.128,-17.07 -40.084,-26.63 -64.75,-26.63 z"
       id="path8"
       inkscape:connector-curvature="0"
       style="fill:#7c2529" />
    <path
       d="m 255.62,168.48 c -48.65,0 -88.05,39.262 -88.05,87.74 0,48.48 39.4,87.743 88.05,87.743 48.648,0 88.39,-39.262 88.39,-87.742 0,-48.472 -39.742,-87.74 -88.39,-87.74 z"
       id="path10"
       inkscape:connector-curvature="0"
       style="fill:#ffffff" />
    <path
       d="m 200.118,188.283 2.396,2.73 -4.11,10.24 -2.054,-2.73 z"
       id="path12"
       inkscape:connector-curvature="0"
       style="fill:#7c2529" />
    <path
       d="m 187.952,200.073 10.11,-1.89 -2.4,-2.73 -4.327,0.81 a 85.987,85.987 0 0 0 -3.383,3.81 z m 19.018,-4.28 1.713,3.073 -4.797,9.9 -2.054,-3.072 5.138,-9.9 z"
       id="path14"
       inkscape:connector-curvature="0"
       style="fill:#7c2529" />
    <path
       d="m 190.524,203.987 2.058,2.732 10.96,-1.03 -2.054,-2.73 -10.964,1.023 z m 22.27,0.343 1.71,3.414 -5.82,9.218 -1.714,-3.072 5.825,-9.56 z"
       id="path16"
       inkscape:connector-curvature="0"
       style="fill:#7c2529" />
    <path
       d="m 195.665,210.474 2.055,3.073 10.963,0.343 -2.057,-3.076 -10.96,-0.34 z m 21.925,3.073 1.37,3.415 -6.852,8.536 -1.03,-3.415 z"
       id="path18"
       inkscape:connector-curvature="0"
       style="fill:#7c2529" />
    <path
       d="m 200.118,217.985 1.37,3.072 11.307,1.365 -1.716,-3.412 -10.966,-1.025 z"
       id="path20"
       inkscape:connector-curvature="0"
       style="fill:#7c2529" />
    <path
       d="m 221.702,223.105 1.026,3.415 -7.537,7.853 -1.024,-3.415 7.54,-7.853 z"
       id="path22"
       inkscape:connector-curvature="0"
       style="fill:#8f3326" />
    <path
       d="m 203.886,225.498 1.03,3.412 10.96,2.39 -1.37,-3.415 z"
       id="path24"
       inkscape:connector-curvature="0"
       style="fill:#7c2529" />
    <path
       d="m 224.785,233.005 0.685,3.416 -8.565,7.17 -0.685,-3.75 8.565,-6.83 z"
       id="path26"
       inkscape:connector-curvature="0"
       style="fill:#8f3326" />
    <path
       d="m 206.626,233.69 0.688,3.416 10.617,3.412 -0.68,-3.412 -10.62,-3.415 z m 20.214,9.22 v 3.754 l -8.91,6.145 -0.34,-3.76 9.25,-6.146 z"
       id="path28"
       inkscape:connector-curvature="0"
       style="fill:#8f3326" />
    <path
       d="m 208.683,241.883 0.34,3.416 9.936,4.432 -0.346,-3.415 -9.935,-4.438 z m 18.842,11.267 v 3.757 l -9.935,5.117 0.34,-3.41 9.595,-5.465 z"
       id="path30"
       inkscape:connector-curvature="0"
       style="fill:#8f3326" />
    <path
       d="m 209.71,250.076 v 3.755 l 9.593,5.468 v -3.412 l -9.594,-5.806 z m 17.815,13.66 -0.685,3.414 -10.276,4.092 0.685,-3.412 10.27,-4.095 z"
       id="path32"
       inkscape:connector-curvature="0"
       style="fill:#8f3326" />
    <path
       d="m 210.053,258.614 -0.344,3.753 8.904,6.488 0.34,-3.756 -8.905,-6.49 z m 16.102,15.364 -1.026,3.412 -10.628,3.076 1.03,-3.42 10.62,-3.068 z"
       id="path34"
       inkscape:connector-curvature="0"
       style="fill:#8f3326" />
    <path
       d="m 209.365,267.15 -0.682,3.412 8.222,7.508 0.685,-3.41 z m 14.39,16.725 -1.027,3.418 -10.96,2.045 1.37,-3.412 10.618,-2.05 z"
       id="path36"
       inkscape:connector-curvature="0"
       style="fill:#8f3326" />
    <path
       d="m 207.655,275.682 -1.03,3.416 7.537,8.195 1.03,-3.418 z"
       id="path38"
       inkscape:connector-curvature="0"
       style="fill:#8f3326" />
    <path
       d="m 220.673,293.778 -1.714,3.073 -10.966,1.03 1.367,-3.42 11.31,-0.68 z"
       id="path40"
       inkscape:connector-curvature="0"
       style="fill:#7c2529" />
    <path
       d="m 205.597,283.533 -1.71,3.418 6.507,8.877 1.373,-3.067 -6.17,-9.224 z m 10.623,19.46 -2.058,3.076 -10.96,-0.348 2.054,-3.075 10.964,0.343 z"
       id="path42"
       inkscape:connector-curvature="0"
       style="fill:#7c2529" />
    <path
       d="m 202.173,291.388 -1.714,3.413 5.48,9.56 1.71,-3.41 -5.48,-9.56 z m 8.565,20.486 -2.055,2.73 -10.963,-1.365 2.054,-2.73 10.964,1.36 z"
       id="path44"
       inkscape:connector-curvature="0"
       style="fill:#7c2529" />
    <path
       d="m 198.063,298.9 -2.057,3.07 4.453,9.904 2.05,-2.732 -4.45,-10.243 z m 6.507,21.167 -2.394,2.73 -5.547,-1.426 a 88.126,88.126 0 0 1 -3.28,-3.1 l 0.6,-0.594 10.62,2.395 z"
       id="path46"
       inkscape:connector-curvature="0"
       style="fill:#7c2529" />
    <path
       d="m 193.266,306.07 -2.398,2.73 3.335,10.298 c 0.06,0.058 0.12,0.125 0.182,0.178 l 2.306,-2.627 -3.42,-10.58 z m 118.034,18.248 -2.235,-2.546 3.77,-10.583 2.397,2.73 -3.61,10.132 c -0.105,0.087 -0.217,0.173 -0.323,0.262 z"
       id="path48"
       inkscape:connector-curvature="0"
       style="fill:#7c2529" />
    <path
       d="m 323.465,312.4 -9.95,1.862 2.4,2.73 4.136,-0.772 a 83.312,83.312 0 0 0 3.42,-3.82 z m -18.855,4.252 -2.055,-3.075 4.797,-9.895 2.054,3.067 -4.797,9.9 z"
       id="path50"
       inkscape:connector-curvature="0"
       style="fill:#7c2529" />
    <path
       d="m 321.055,308.8 -2.396,-3.074 -10.968,1.023 2.054,3.07 11.304,-1.025 z"
       id="path52"
       inkscape:connector-curvature="0"
       style="fill:#7c2529" />
    <path
       d="m 298.786,308.114 -1.713,-3.067 5.826,-9.56 1.71,3.412 -5.828,9.21 z"
       id="path54"
       inkscape:connector-curvature="0"
       style="fill:#8f3326" />
    <path
       d="m 315.917,301.97 -2.055,-3.07 -10.963,-0.344 1.71,3.415 h 11.303 z m -22.27,-3.07 -1.37,-3.077 6.85,-8.872 1.373,3.41 -6.852,8.54 z"
       id="path56"
       inkscape:connector-curvature="0"
       style="fill:#8f3326" />
    <path
       d="m 311.46,294.8 -1.71,-3.412 -10.964,-1.365 1.714,3.413 10.96,1.365 z m -21.58,-5.12 -1.026,-3.754 7.534,-7.856 1.03,3.418 -7.538,8.193 z"
       id="path58"
       inkscape:connector-curvature="0"
       style="fill:#8f3326" />
    <path
       d="m 307.696,286.95 -1.03,-3.417 -10.96,-2.388 1.026,3.416 10.964,2.39 z m -20.9,-7.173 -0.684,-3.752 8.565,-7.17 0.34,3.758 -8.22,7.164 z"
       id="path60"
       inkscape:connector-curvature="0"
       style="fill:#8f3326" />
    <path
       d="m 304.953,279.098 -1.028,-3.758 -10.277,-3.413 0.682,3.755 z m -20.213,-9.558 -0.342,-3.76 9.25,-6.143 0.34,3.755 -9.25,6.148 z"
       id="path62"
       inkscape:connector-curvature="0"
       style="fill:#8f3326" />
    <path
       d="m 302.9,270.905 -0.345,-3.755 -10.28,-4.44 0.345,3.412 z m -19.187,-11.61 0.344,-3.756 9.59,-5.12 v 3.75 l -9.934,5.12 z"
       id="path64"
       inkscape:connector-curvature="0"
       style="fill:#8f3326" />
    <path
       d="m 301.87,262.367 -0.34,-3.753 -9.254,-5.465 v 3.753 l 9.594,5.46 z m -17.813,-13.313 0.682,-3.755 9.933,-4.1 -0.347,3.41 -10.274,4.44 z"
       id="path66"
       inkscape:connector-curvature="0"
       style="fill:#8f3326" />
    <path
       d="m 301.53,253.83 0.34,-3.754 -8.906,-6.485 -0.344,3.76 8.91,6.485 z m -16.106,-15.02 0.688,-3.754 10.62,-3.073 -0.685,3.755 -10.623,3.073 z"
       id="path68"
       inkscape:connector-curvature="0"
       style="fill:#8f3326" />
    <path
       d="m 302.214,245.3 0.685,-3.417 -8.227,-7.51 -0.688,3.413 8.224,7.513 z m -14.734,-16.732 1.374,-3.413 10.958,-2.05 -1.367,3.415 -10.966,2.048 z"
       id="path70"
       inkscape:connector-curvature="0"
       style="fill:#8f3326" />
    <path
       d="m 303.583,237.106 1.026,-3.415 -7.197,-8.19 -1.03,3.41 7.196,8.2 z m -12.673,-18.096 1.71,-3.415 10.963,-0.683 -1.713,3.073 z"
       id="path72"
       inkscape:connector-curvature="0"
       style="fill:#8f3326" />
    <path
       d="m 305.98,228.91 1.372,-3.412 -6.508,-8.878 -1.373,3.415 6.51,8.875 z"
       id="path74"
       inkscape:connector-curvature="0"
       style="fill:#8f3326" />
    <path
       d="m 295.362,209.45 2.055,-3.073 10.963,0.342 -2.054,3.07 -10.964,-0.34 z"
       id="path76"
       inkscape:connector-curvature="0"
       style="fill:#7c2529" />
    <path
       d="m 309.406,221.057 1.714,-3.072 -5.482,-9.558 -1.713,3.07 5.48,9.56 z m -8.906,-20.483 2.4,-2.733 10.962,1.37 -2.4,2.733 -10.962,-1.365 z"
       id="path78"
       inkscape:connector-curvature="0"
       style="fill:#7c2529" />
    <path
       d="m 313.177,213.547 2.055,-3.073 -4.456,-9.9 -2.055,2.73 4.46,10.243 z m -6.51,-21.17 2.74,-2.73 5.273,1.353 a 86.575,86.575 0 0 1 3.463,3.254 l -0.514,0.513 -10.96,-2.393 z"
       id="path80"
       inkscape:connector-curvature="0"
       style="fill:#7c2529" />
    <path
       d="m 317.974,206.377 2.396,-2.73 -3.427,-10.243 -2.396,2.732 3.427,10.24 z"
       id="path82"
       inkscape:connector-curvature="0"
       style="fill:#7c2529" />
    <path
       d="m 125.773,256.22 c 0,-71.355 58.243,-129.392 129.846,-129.392 71.942,0 130.19,58.037 130.19,129.393 0,71.7 -58.248,129.74 -130.19,129.74 -71.608,0.002 -129.85,-58.036 -129.85,-129.735 z m 129.846,-94.568 c -52.42,0 -94.9,42.335 -94.9,94.57 0,52.234 42.48,94.57 94.9,94.57 52.413,0 94.9,-42.336 94.9,-94.57 0,-52.236 -42.487,-94.57 -94.9,-94.57 z"
       id="path84"
       inkscape:connector-curvature="0"
       style="fill:#0a2351" />
    <path
       d="m 172.368,315.972 c -9.594,-13.318 -16.787,-28.342 -19.186,-44.387 2.74,17.073 8.566,33.462 18.845,47.117 l 0.34,-2.73 z m -11.993,11.948 c -11.65,-15.71 -20.558,-34.142 -23.64,-53.603 3.082,19.12 9.934,37.557 21.242,53.26 z m -2.055,-16.73 1.714,1.022 c -9.25,-15.704 -15.76,-33.8 -16.446,-52.233 0.685,18.77 5.482,37.204 15.076,53.592 l -0.344,-2.387 z m 1.714,2.73 1.71,14 9.25,1.022 -10.96,-15.023 z m 10.96,15.022 1.03,-9.217 -11.99,-5.806 10.96,15.02 z m 20.9,30.044 c 3.427,2.388 7.195,4.098 10.62,6.15 l 10.964,-4.442 c -3.428,-1.365 -6.852,-2.73 -9.938,-4.44 z m 23.982,2.734 -10.96,4.44 c 3.767,1.702 7.536,3.075 11.304,4.44 l 10.28,-5.463 c -0.686,0 -1.03,-0.342 -1.37,-0.342 -3.087,-1.026 -6.17,-1.71 -9.254,-3.076 z M 168.94,340.553 c 2.74,3.07 5.823,5.8 8.91,8.533 l 11.304,-1.702 c -2.74,-2.05 -5.48,-4.44 -8.22,-6.828 H 168.94 Z m 10.964,9.897 c 3.084,2.73 6.51,5.127 9.935,7.17 l 10.96,-2.73 c -3.087,-1.706 -6.17,-3.754 -9.25,-5.804 l -11.65,1.364 z m 38.714,21.17 c 4.11,1.022 7.878,2.044 11.99,3.075 l 9.25,-6.833 a 52.96,52.96 0 0 1 -10.62,-2.045 z m -59.272,-41.992 c 0.685,0.68 1.03,1.365 1.714,2.045 2.055,2.73 4.112,4.783 6.167,7.17 h 11.648 c -2.74,-2.73 -5.48,-5.12 -7.88,-7.85 l -11.65,-1.365 z m 73.66,45.404 c 4.113,1.028 7.88,1.365 11.993,1.708 l 8.56,-7.508 c -3.768,0 -7.19,-0.342 -10.963,-1.028 l -9.594,6.828 z M 210.053,348.06 c -3.083,-1.707 -5.823,-3.075 -8.565,-4.777 l 3.083,11.263 c 3.09,1.708 6.516,3.418 9.94,4.783 l -4.453,-11.27 z m 17.13,15.367 -5.822,-10.583 c -2.74,-1.028 -5.82,-2.393 -8.904,-3.76 l 4.453,10.925 c 2.74,1.02 5.822,2.05 8.564,3.07 0.686,0 1.027,0.343 1.715,0.343 z m -38.03,-29.364 c -2.397,-2.045 -4.796,-4.098 -6.853,-6.486 v 11.61 c 2.74,2.39 5.482,4.78 8.565,6.83 l -1.713,-11.954 z m 9.937,7.513 c -2.74,-1.708 -5.14,-3.418 -7.88,-5.463 l 1.713,11.605 c 3.083,2.05 6.166,3.76 9.25,5.806 l -3.084,-11.948 z m 34.26,14.68 c -3.083,-0.68 -6.166,-1.365 -9.25,-2.387 l 5.823,10.24 c 3.425,0.68 6.852,1.703 10.62,2.05 l -7.193,-9.908 z M 180.245,325.53 c -1.713,-1.708 -3.083,-3.418 -4.453,-5.463 -0.685,-0.685 -1.37,-1.365 -1.714,-2.05 l -1.37,11.61 c 2.4,2.73 4.798,5.464 7.537,7.85 z m 65.44,32.777 c -3.084,-0.343 -6.168,-0.686 -9.595,-1.365 l 6.852,9.56 c 3.768,0.337 7.536,0.68 10.963,0.68 z m 93.53,-42.335 c 9.593,-13.318 16.445,-28.342 18.84,-44.387 -2.395,17.073 -8.22,33.462 -18.5,47.117 z m 11.648,11.948 c 11.99,-15.71 20.9,-34.142 23.638,-53.603 -2.734,19.12 -9.59,37.557 -20.893,53.26 l -2.74,0.343 z m 2.397,-16.73 -2.053,1.022 c 9.594,-15.704 15.76,-33.8 16.445,-52.233 -0.684,18.77 -5.138,37.204 -14.732,53.592 l 0.34,-2.387 z m -2.056,2.73 -1.37,14 -9.25,1.022 10.62,-15.023 z"
       id="path86"
       inkscape:connector-curvature="0"
       style="fill:#b6922e" />
    <path
       d="m 340.584,328.942 -1.03,-9.217 11.65,-5.806 -10.62,15.02 z m -21.24,30.044 c -3.427,2.388 -6.85,4.098 -10.623,6.15 l -10.614,-4.442 c 3.427,-1.365 6.85,-2.73 9.935,-4.44 l 11.307,2.732 z m -23.982,2.734 11.305,4.44 c -3.768,1.702 -7.537,3.075 -11.305,4.44 l -10.28,-5.463 c 0.342,0 1.03,-0.342 1.37,-0.342 3.084,-1.026 6.168,-1.71 8.91,-3.076 z m 46.936,-21.167 c -2.74,3.07 -5.823,5.8 -8.563,8.533 l -11.648,-1.702 c 3.083,-2.05 5.822,-4.44 8.562,-6.828 h 11.644 v -0.003 z m -10.62,9.897 c -3.427,2.73 -6.51,5.127 -9.938,7.17 l -11.305,-2.73 c 3.427,-1.706 6.508,-3.754 9.25,-5.804 l 11.993,1.365 z m -39.058,21.17 c -3.77,1.022 -7.537,2.044 -11.65,3.075 l -9.25,-6.833 c 3.425,-0.337 7.194,-1.023 10.62,-2.045 z m 59.613,-41.992 c -0.685,0.68 -1.37,1.365 -2.055,2.045 -1.714,2.73 -3.77,4.783 -5.826,7.17 h -11.648 c 2.74,-2.73 5.14,-5.12 7.536,-7.85 z m -73.658,45.404 c -4.112,1.028 -8.224,1.365 -12.336,1.708 l -8.226,-7.508 c 3.424,0 7.195,-0.342 10.62,-1.028 l 9.937,6.828 z M 301.53,348.06 c 2.738,-1.707 5.48,-3.075 8.22,-4.777 l -2.74,11.263 c -3.427,1.708 -6.51,3.418 -9.937,4.783 l 4.456,-11.27 z m -17.473,15.367 5.823,-10.583 c 3.086,-1.028 6.167,-2.393 8.91,-3.76 l -4.113,10.925 c -3.086,1.02 -5.823,2.05 -8.562,3.07 -0.69,0 -1.376,0.343 -2.058,0.343 z m 38.027,-29.364 c 2.74,-2.045 4.797,-4.098 7.192,-6.486 v 11.61 c -2.74,2.39 -5.822,4.78 -8.562,6.83 z m -9.934,7.513 c 2.738,-1.708 5.48,-3.418 7.88,-5.463 l -1.37,11.605 c -3.087,2.05 -6.167,3.76 -9.595,5.806 l 3.084,-11.948 z m -34.262,14.68 c 3.086,-0.68 6.17,-1.365 9.253,-2.387 l -5.48,10.24 c -3.43,0.68 -7.19,1.703 -10.62,2.05 l 6.85,-9.908 z m 53.446,-30.726 c 1.37,-1.708 3.086,-3.418 4.456,-5.463 0.685,-0.685 1.026,-1.365 1.71,-2.05 l 1.37,11.61 a 85.023,85.023 0 0 1 -7.877,7.85 l 0.34,-11.947 z m -65.777,32.777 c 3.427,-0.343 6.508,-0.686 9.59,-1.365 l -6.85,9.56 c -3.425,0.337 -7.193,0.68 -10.962,0.68 z"
       id="path88"
       inkscape:connector-curvature="0"
       style="fill:#b6922e" />
    <path
       d="m 228.553,289 c -5.822,2.728 -11.648,5.8 -17.13,9.556 l -2.396,1.365 3.427,8.198 6.508,6.827 2.055,-0.336 c 10.28,-2.73 21.243,-3.76 31.863,-3.76 16.445,0 31.177,2.73 39.058,5.124 l 3.77,1.023 2.74,-2.388 c 29.462,-25.267 88.73,-14.684 146.633,-1.366 22.617,5.12 48.99,8.875 54.136,-9.56 1.026,-4.1 0.34,-8.882 -2.054,-12.977 -1.03,-1.702 -2.4,-3.412 -4.113,-4.778 l -5.14,-5.126 c -2.74,-3.07 -6.51,-5.463 -10.965,-7.508 -0.684,-0.342 -1.37,-0.342 -1.71,-0.68 0,0 -0.344,0 -0.685,-0.342 -1.37,-3.76 -4.112,-8.536 -5.826,-11.948 2.056,-0.343 4.11,-1.37 5.827,-3.075 2.74,-2.39 4.11,-5.463 4.11,-8.536 0.34,-4.436 -1.37,-8.19 -4.455,-11.263 l -4.11,-4.097 c -3.084,-3.416 -8.222,-6.146 -14.39,-7.17 -1.37,0 -2.74,-0.344 -4.452,-0.344 -4.796,0 -9.937,1.364 -14.046,4.44 -0.34,-0.343 -0.34,-0.343 -0.34,-0.683 -0.344,-0.343 -4.456,-4.098 -5.14,-4.78 l -0.342,-0.34 c -0.343,-0.343 -0.684,-0.686 -1.03,-0.686 -5.82,-4.776 -15.756,-4.776 -21.24,-4.094 -0.686,-1.025 -1.027,-1.707 -1.71,-2.05 -2.056,-2.73 -5.483,-4.098 -8.91,-4.098 h -3.08 c -1.03,0.343 -1.715,0.343 -2.4,0.686 -0.34,0 -0.685,0 -0.685,0.34 -0.686,0 -1.027,0 -1.027,0.343 -2.74,1.025 -5.14,2.73 -6.85,5.12 -0.345,0.34 -0.686,0.34 -0.686,0.683 -3.086,-3.078 -8.222,-6.49 -17.13,-7.51 -7.537,-0.688 -16.105,1.705 -24.668,7.165 -0.346,0 -1.03,0.683 -1.03,0.683 -2.055,1.024 -4.113,2.73 -5.823,4.096 -1.028,-1.707 -2.054,-3.412 -3.086,-4.78 a 7730.755,7730.755 0 0 0 -5.14,-5.12 c -0.34,0 -0.34,-0.343 -0.683,-0.343 -1.712,-1.706 -3.77,-2.73 -5.824,-3.074 h -1.025 l -5.483,-0.343 c -22.954,0.687 -41.113,2.735 -66.124,5.12 l -2.053,0.345 -1.37,3.754 c -0.345,0.34 -0.345,1.025 -0.69,1.365 -2.74,-1.708 -6.166,-2.73 -9.59,-3.073 -14.047,-0.34 -26.725,8.538 -35.29,16.73 l -3.424,-3.754 c -0.344,-0.342 -0.685,-0.342 -0.685,-0.682 -0.343,0 -0.687,-0.343 -0.687,-0.343 -5.14,-3.413 -12.674,-2.39 -18.156,0 -2.055,0.682 -4.797,2.047 -7.537,3.415 -2.055,-1.708 -4.453,-2.39 -7.195,-2.39 -1.37,0 -3.084,0.342 -4.454,1.025 -1.37,-4.78 -4.452,-9.218 -8.564,-13.313 l -4.797,-4.78 c -5.483,-5.463 -12.678,-9.904 -21.244,-12.634 -1.028,-0.342 -1.713,-0.682 -1.713,-0.682 -5.138,-1.366 -10.964,-2.73 -17.13,-3.07 h -3.43 c -47.282,-2.043 -65.442,19.123 -66.81,37.56 v 5.12 c 0.683,5.462 2.74,10.242 5.82,13.997 0.345,0.684 1.03,1.026 1.37,1.71 l 4.798,4.783 c 1.03,1.022 2.055,1.702 3.427,2.73 -1.028,0 -1.713,0.337 -1.713,0.337 -0.686,0.344 -1.37,0.344 -1.715,0.344 -7.536,2.387 -14.047,5.805 -19.53,10.583 C 16.137,283.534 11,293.78 11,304.36 c 0,11.612 4.453,22.538 13.018,30.73 l 4.797,5.12 c 7.537,7.17 21.243,16.046 45.566,16.046 51.738,0 79.83,-26.97 80.858,-53.602 v -5.463 c 1.03,0.69 1.714,1.71 2.055,2.05 2.74,2.39 6.167,3.76 10.28,3.76 8.91,0.343 16.786,-5.462 22.267,-11.27 4.453,3.077 9.593,3.42 11.992,3.42 2.74,-0.004 13.704,-0.004 26.722,-6.146 z M 66.16,306.413 c -4.112,3.755 -6.51,9.218 -6.51,15.023 0,2.387 0.684,5.12 1.713,7.508 -1.37,-0.343 -2.4,-0.68 -3.427,-0.68 -3.084,-1.028 -5.823,-2.393 -7.88,-4.098 -2.74,-3.418 -4.113,-8.193 -4.113,-12.976 0,-12.29 9.935,-22.19 22.27,-22.19 4.452,0 8.564,1.023 11.99,3.07 1.03,2.05 1.37,3.756 1.37,5.806 v 2.045 c -5.82,0 -11.304,2.398 -15.413,6.496 z m 53.787,-73.747 c 0,4.44 -4.797,8.196 -11.648,10.244 l 5.474,-12.632 -5.138,-4.78 h 0.342 c 3.77,0.682 7.195,1.705 10.28,3.755 0,0 0,0.343 0.342,0.343 0.34,1.02 0.34,2.044 0.34,3.07 z m -3.424,64.186 c 0,1.366 0,2.73 -0.344,4.1 -2.06,-6.83 -5.828,-13.32 -10.966,-18.782 l -4.453,-4.435 a 353.94,353.94 0 0 0 -1.03,-1.023 c 4.455,1.36 8.224,3.413 11.65,6.143 3.425,4.098 5.14,9.218 5.14,13.998 z"
       id="path90"
       inkscape:connector-curvature="0"
       style="fill:#0a2351" />
    <path
       d="m 170.654,198.866 h -0.344 c 0.344,-1.025 0,-1.365 0,-1.365 l -11.65,-6.822 8.567,12.633 -15.417,-1.71 h -0.344 l 11.992,7.17 c 0,0 0.344,0 1.03,-0.684 l 0.343,0.343 -3.422,5.462 -0.344,-0.34 c 0.345,-0.683 0.345,-1.026 0,-1.026 l -14.73,-8.875 c -0.345,-0.343 -0.345,-0.343 -1.03,0.34 h -0.34 l 5.137,-8.193 0.344,0.342 c -0.343,0.34 -0.343,0.682 0,1.022 0.345,0 7.538,0.684 8.566,1.024 -2.4,-3.413 -4.455,-6.828 -4.8,-7.168 -0.344,-0.34 -0.685,0 -1.03,0.343 l -0.342,-0.344 5.137,-8.193 h 0.346 c -0.34,1.028 -0.34,1.028 0,1.367 l 14.736,8.88 c 0,0 0.343,0 1.028,-0.685 l 0.345,0.343 -3.77,6.14 z m 8.906,-11.266 -0.344,-0.342 c 0.685,-0.682 0.344,-1.025 0.344,-1.025 l -12.333,-11.95 c -0.344,-0.343 -0.344,-0.343 -1.03,0.342 l -0.343,-0.343 5.138,-5.462 0.344,0.342 c -0.685,0.683 -0.344,1.025 -0.344,1.025 l 12.334,11.95 c 0.344,0.344 0.344,0.344 1.03,-0.342 l 0.342,0.343 -5.138,5.463 z m 13.706,-18.095 10.277,-7.17 c 0.343,0 0.343,-0.343 0,-1.026 l 0.343,-0.34 3.77,5.46 h -0.345 c -0.68,-0.34 -0.68,-0.68 -1.024,-0.34 l -16.102,10.92 v -0.34 c 0.69,-0.683 0.69,-1.026 0.345,-1.368 l -9.595,-13.996 c -0.343,-0.343 -0.343,-0.343 -1.37,0 v -0.343 l 6.168,-4.098 0.345,0.342 c -0.684,0.34 -0.684,0.68 -0.684,1.024 l 7.88,11.27 z m 19.186,-6.488 v -0.683 c 0.343,0 0.343,-0.342 0.343,-0.682 0,-0.34 -10.62,-13.998 -10.963,-14.68 -0.344,-0.34 -0.344,-0.34 -0.685,-0.34 v -0.343 l 6.51,-2.05 v 0.34 c -0.343,0.343 -0.684,0.343 -0.684,0.682 0.343,0.343 5.48,7.17 7.192,9.56 0,-2.73 -0.344,-11.264 -0.344,-11.607 0,-0.344 -0.68,-0.344 -1.02,-0.344 v -0.34 l 8.22,-2.73 v 0.342 c 0,0 -0.344,0.343 -0.344,0.683 0,0 5.482,7.51 6.51,9.56 h 0.342 c -0.34,-1.708 -0.34,-11.266 -0.34,-11.61 0,-0.34 -0.69,-0.34 -1.03,-0.34 v -0.344 l 5.826,-2.05 v 0.343 c -0.343,0 -0.343,0.343 -0.343,0.683 v 18.097 c 0.344,0.682 0.685,0.343 1.03,0.343 v 0.342 l -7.197,2.73 v -0.684 c 0.344,0 0.688,-0.343 0.344,-0.683 -0.344,-1.024 -4.453,-6.827 -7.193,-10.924 h -0.343 c 0.345,4.436 0.345,12.632 0.686,13.314 0,0.343 0.344,0.343 0.688,0.343 l 0.34,0.343 -7.538,2.725 z m 34.602,-12.973 c -1.03,2.73 -1.03,3.073 -1.03,3.415 0,0.34 0,0.34 0.686,0.34 v 0.34 l -6.51,0.343 v -0.343 c 0.343,-0.34 0.684,-0.34 1.028,-1.024 0,-0.683 5.823,-17.072 5.823,-17.41 0,-0.34 -0.34,-0.344 -0.68,-0.344 v -0.343 l 9.59,-0.34 v 0.34 c -0.684,0 -0.684,0.343 -0.684,0.683 0,0.34 4.797,10.925 7.196,16.388 0.344,1.026 0.685,1.026 1.026,1.026 v 0.342 l -7.193,0.342 v -0.343 c 0.686,0 0.686,-0.344 0.686,-0.344 0,-0.343 -1.03,-3.073 -1.37,-3.416 l -8.562,0.34 z m 0.685,-3.073 h 6.85 l -3.77,-8.53 -3.085,8.535 z m 39.395,-7.17 c 0,-0.34 0,-0.68 -1.026,-0.68 l 0.34,-0.68 7.196,1.706 v 0.343 c -1.028,0 -1.028,0.342 -1.028,0.682 l -2.4,9.56 c -1.368,6.145 -6.165,7.17 -11.647,6.145 -5.483,-1.365 -9.593,-4.438 -7.88,-10.583 l 2.056,-9.56 c 0,-0.342 0,-0.68 -1.027,-1.024 l 0.34,-0.343 7.196,1.708 v 0.34 c -1.03,0 -1.03,0 -1.03,0.344 l -2.398,9.56 c -0.686,2.73 0.687,4.1 3.77,4.78 2.74,0.683 4.797,0 5.14,-2.73 l 2.394,-9.563 z m 21.242,28.68 0.34,-0.34 c 0.344,0 0.685,0.343 0.685,-0.342 0.344,-0.343 -0.685,-8.193 -0.685,-9.218 l -4.45,1.364 -2.4,3.755 c 0,0.34 0,0.34 0.686,1.023 v 0.343 l -6.85,-3.756 0.342,-0.343 c 0.685,0.342 1.026,0.342 1.026,0 l 8.225,-15.024 c 0.34,-0.342 0.34,-0.342 -0.344,-1.025 v -0.337 l 6.853,3.758 -0.344,0.343 c -1.026,-0.345 -1.026,-0.345 -1.37,0 l -3.083,5.8 h 0.34 c 3.772,-1.025 9.254,-2.047 9.595,-2.39 0,-0.342 0,-0.682 -0.34,-0.682 v -0.344 l 8.22,4.438 v 0.345 c -1.028,-0.343 -1.37,-0.343 -2.398,0 l -8.222,1.707 1.03,13.317 c 0.34,0.68 0.34,1.025 0.684,1.025 v 0.343 l -7.54,-3.758 z m 26.72,11.95 -0.343,-0.34 c 0,-0.342 0.344,-0.682 -0.34,-1.364 l -5.142,-4.78 -2.054,2.73 8.565,7.852 c 0.34,0.34 0.34,0.34 1.026,-0.342 l 0.344,0.342 -4.456,4.78 v -0.342 c 0.345,-0.682 0.345,-0.682 0,-1.025 l -13.36,-12.633 0.342,-0.34 c 0.685,0.682 1.03,0.682 1.03,0.34 l 11.648,-12.29 c 0.34,-0.343 0.34,-0.683 -0.342,-1.366 l 0.344,-0.343 13.36,12.633 c 0.344,0.34 0.685,0 1.37,-0.346 l 0.344,0.343 -4.456,4.436 -0.34,-0.342 c 0.34,-0.68 0.684,-0.68 0.34,-1.023 l -8.562,-8.194 -2.055,2.39 4.8,4.78 c 0.686,0.343 1.027,0.343 1.37,0 l 0.34,0.343 -3.764,4.1 z m 16.103,21.51 -0.34,-0.34 c 0.34,-0.34 0.685,-0.68 0.34,-1.37 l -3.767,-5.8 -3.086,2.05 6.51,9.902 c 0.34,0.34 0.34,0.34 1.37,0 v 0.34 l -5.14,3.417 -0.343,-0.343 c 0.34,-0.683 0.685,-0.683 0.34,-1.025 l -9.934,-15.366 0.34,-0.342 c 0.686,0.682 1.03,0.682 1.03,0.682 l 14.388,-9.218 c 0.34,-0.342 0.686,-0.682 0,-1.365 l 0.686,-0.34 9.594,15.364 c 0.343,0.343 0.687,0.343 1.37,0 l 0.343,0.343 -5.48,3.412 -0.34,-0.34 c 0.686,-0.345 0.686,-0.685 0.686,-1.028 l -6.51,-9.9 -2.397,1.708 3.426,5.804 c 0.684,0.685 1.026,0.685 1.37,0.343 l 0.34,0.34 -4.79,3.07 z"
       id="path92"
       inkscape:connector-curvature="0"
       style="fill:#b6922e" />
    <path
       d="m 494.07,292.413 c -0.684,-1.365 -1.71,-2.73 -3.426,-4.097 -0.685,-1.023 -4.112,-4.44 -5.138,-5.12 -2.74,-3.076 -6.852,-5.806 -13.362,-8.193 -1.71,-5.12 -5.482,-10.926 -7.537,-15.024 -0.685,-1.03 -1.37,-2.05 -2.054,-3.42 1.028,0.343 2.054,0.683 3.086,0.683 2.39,0 4.792,-0.683 6.85,-2.39 1.71,-1.708 2.74,-4.098 2.74,-6.488 0.34,-3.417 -1.03,-6.147 -3.43,-8.537 -0.686,-1.025 -4.11,-4.098 -4.798,-4.777 -3.086,-3.415 -8.91,-5.462 -15.76,-5.805 -5.483,-0.342 -10.965,2.05 -14.736,6.145 -0.686,-1.365 -1.37,-2.39 -2.397,-3.415 0,-0.342 -4.11,-4.098 -4.797,-4.78 l -1.028,-1.025 c -5.824,-4.438 -16.103,-2.73 -20.556,-2.048 -0.345,-0.342 -1.715,-0.682 -2.056,-1.025 -0.345,-1.026 0,-2.388 -0.686,-3.074 -1.714,-2.048 -4.11,-3.073 -6.51,-3.073 -5.14,-0.343 -9.595,2.047 -12.676,6.485 -0.69,1.023 -1.03,4.096 -1.37,5.12 -0.686,-0.345 -2.058,-1.367 -2.4,-1.71 -2.395,-3.07 -5.822,-9.218 -15.76,-10.243 -9.935,-1.024 -22.27,4.44 -32.89,14.34 0,0.342 -0.342,0.682 -0.686,0.682 v -0.684 c -0.34,-3.756 -1.37,-6.486 -3.085,-8.193 l -5.14,-5.123 c -2.054,-1.704 -4.112,-2.73 -6.507,-2.73 h -0.685 c -1.37,0 -2.4,0.343 -3.427,1.026 l 0.34,-1.026 c -22.61,1.025 -43.507,2.73 -66.12,5.12 l -0.684,2.047 c -2.4,5.465 1.03,7.515 2.74,8.538 l -0.685,1.366 c -0.684,-1.027 -4.453,-4.44 -5.48,-5.46 -2.4,-2.39 -5.823,-3.757 -10.276,-4.1 -12.678,-0.343 -25.355,7.853 -34.946,18.096 -0.34,-0.343 -0.34,-0.683 -0.684,-1.025 l -5.137,-5.12 c -0.346,-0.342 -0.687,-0.682 -1.03,-0.682 -3.77,-2.73 -10.28,-1.708 -14.73,0.342 -2.4,1.025 -6.17,2.73 -9.25,4.438 -1.717,-2.048 -4.115,-3.073 -6.855,-3.073 -2.055,0 -4.453,1.025 -6.852,2.73 -0.685,-5.463 -3.427,-11.266 -8.565,-16.046 -0.687,-1.025 -3.77,-4.095 -4.8,-4.78 -8.22,-8.536 -22.61,-15.024 -41.453,-15.703 -44.54,-1.366 -62.01,17.755 -63.04,34.823 -0.685,7.17 1.714,13.655 6.167,18.095 0.683,0.683 4.11,3.755 4.795,4.778 2.74,2.393 5.824,4.097 9.595,4.44 h 0.685 l -1.03,2.396 c -10.963,1.364 -21.242,5.462 -29.12,11.947 -8.565,7.17 -13.018,16.39 -13.018,26.29 0,10.927 4.112,20.83 11.993,28.34 0.685,1.026 3.768,4.095 4.797,5.123 6.85,6.83 20.214,15.025 43.167,15.025 49.676,0 76.742,-25.268 77.43,-50.53 0.34,-5.127 -0.347,-9.905 -1.37,-14.34 0.34,-0.68 1.026,-1.367 1.37,-2.047 0.34,1.365 0.682,2.387 1.025,3.413 0.344,1.025 1.03,1.707 1.714,2.387 1.03,0.685 4.113,4.44 5.14,5.126 1.713,1.365 4.11,2.73 7.88,2.73 8.91,0.337 17.13,-6.828 22.27,-12.634 3.766,4.44 9.25,4.778 12.332,4.778 3.423,0.345 20.897,0 40.083,-16.044 0.683,0.685 4.11,4.098 4.452,4.44 1.37,1.366 3.425,2.388 5.82,3.076 -4.11,1.366 -7.88,2.73 -11.65,4.1 -10.277,3.754 -19.524,8.874 -27.75,13.99 l 2.056,5.127 4.798,4.776 c 10.964,-2.388 22.27,-3.755 32.892,-3.755 17.13,0 32.206,2.73 40.086,5.12 l 1.71,0.687 1.37,-1.365 c 30.835,-26.29 91.133,-15.365 150.06,-1.707 31.18,7.17 46.596,4.778 50.023,-7.513 0.68,-3.075 -0.003,-6.836 -2.06,-10.246 z m -167.533,-19.12 c 0.344,0.342 3.427,2.044 3.77,2.73 -4.796,-0.343 -13.36,-1.023 -18.158,-1.023 1.37,-1.022 2.734,-2.05 4.11,-3.418 1.37,-1.368 2.4,-2.73 3.77,-4.435 1.365,2.736 3.763,4.438 6.503,6.145 z m -12.675,-40.288 c 0,1.365 -0.344,3.416 -1.37,5.803 -2.054,7.17 -5.825,13.316 -9.25,17.41 l 10.276,-23.558 c 0,0.345 0.344,0.345 0.344,0.345 z m 74.69,40.287 c 0.34,1.708 1.37,3.418 2.74,5.12 1.025,0.686 4.11,3.756 5.137,4.784 0,0.337 0.34,0.337 0.68,0.68 -8.91,-1.708 -18.5,-3.413 -28.436,-4.778 6.167,-2.388 12.675,-6.148 19.186,-11.27 0,1.712 0,3.757 0.688,5.464 z m 40.08,9.218 c -0.343,3.076 0.685,5.806 2.74,8.193 0.34,0.343 1.026,0.685 1.37,1.365 -5.482,-1.365 -11.993,-3.07 -19.185,-4.777 9.594,-2.05 18.5,-10.92 25.352,-20.482 0.34,0.343 0.34,0.68 0.68,1.023 1.025,1.02 2.054,2.387 2.74,3.41 -8.22,1.375 -13.014,5.47 -13.7,11.27 z m -325.815,2.05 c -1.03,-0.685 -4.11,-4.097 -4.797,-4.783 -2.055,-2.044 -4.453,-4.097 -6.852,-5.8 l 0.685,-2.05 c 8.91,0.686 16.446,4.098 21.925,8.536 4.112,4.777 6.166,10.583 6.166,16.388 0,4.44 -1.713,10.24 -5.822,16.05 v -1.71 c 0.002,-9.9 -4.11,-19.46 -11.305,-26.63 z m 20.557,-51.895 c 0,7.51 -9.594,14.34 -20.557,14.34 l 6.85,-16.047 -4.796,-4.78 -37.68,3.755 c 7.88,-6.828 23.98,-8.878 36.66,-8.536 7.195,0.343 13.362,2.39 17.815,5.463 1.03,1.708 2.056,3.755 1.714,5.805 z M 42.52,311.19 c 0,-14 11.647,-25.604 25.695,-25.604 5.48,0 10.62,1.707 14.388,4.097 1.37,2.388 2.398,5.12 2.398,8.193 a 13.01,13.01 0 0 1 -1.364,5.806 c -0.688,-0.343 -1.714,-0.343 -2.4,-0.343 -4.796,0 -9.593,2.04 -12.676,5.46 -3.43,3.073 -5.483,7.85 -5.483,12.63 0,4.436 1.713,8.534 4.453,11.606 -8.223,0 -15.077,-2.388 -20.215,-6.486 -3.08,-4.097 -4.794,-9.56 -4.794,-15.365 z m 103.808,-51.896 c -2.4,4.098 -5.138,8.536 -7.196,11.268 -0.684,-0.68 -1.713,-1.707 -2.398,-2.387 -0.344,-0.685 -1.03,-1.365 -1.37,-2.393 4.453,-2.045 7.88,-4.435 10.964,-7.165 z"
       id="path94"
       inkscape:connector-curvature="0"
       style="fill:#b6922e" />
    <path
       d="m 248.083,220.035 -0.685,2.047 c -2.4,5.463 1.028,7.514 2.74,8.536 l -2.4,5.463 v -2.043 c -0.684,-6.485 -6.166,-11.265 -14.044,-11.608 -15.076,-0.344 -30.15,11.607 -40.084,23.9 1.03,-2.39 1.37,-4.1 1.37,-6.49 0.344,-2.73 -1.03,-4.778 -3.083,-6.145 -3.77,-2.73 -10.28,-1.707 -14.732,0.343 -2.4,1.025 -6.167,2.73 -9.25,4.438 -1.714,-2.047 -4.113,-3.072 -6.852,-3.072 -2.74,0 -6.167,1.71 -8.91,4.44 -4.11,4.097 -6.51,9.56 -6.51,14.68 0,1.707 0.344,3.415 0.685,4.777 -2.4,4.098 -5.138,7.856 -7.537,10.59 -2.393,-3.42 -5.48,-6.15 -8.56,-8.537 11.65,-5.463 18.5,-14.68 19.185,-25.95 0.345,-15.362 -18.5,-32.433 -50.018,-33.798 -44.54,-1.37 -62.01,17.752 -63.04,34.82 -1.03,11.61 5.823,21.51 15.417,22.53 3.427,0.344 6.85,-0.678 9.25,-2.726 l -4.453,9.897 c -10.964,1.365 -21.243,5.463 -29.12,11.948 -8.566,7.17 -13.02,16.388 -13.02,26.29 0,10.927 4.113,20.83 11.994,28.338 6.85,7.17 20.215,15.366 43.168,15.366 49.68,0 76.4,-25.26 77.43,-50.53 0.344,-5.12 -0.343,-9.905 -1.37,-14.337 4.454,-6.148 9.25,-13.313 12.334,-19.46 1.028,0 2.398,-0.343 3.768,-1.023 a 705.267,705.267 0 0 0 -5.137,7.85 c -3.77,5.46 -6.51,13.31 -3.77,18.774 1.37,2.388 4.113,5.464 9.936,5.464 8.91,0.34 17.13,-7.17 21.928,-12.97 3.77,4.776 9.595,5.12 12.334,5.12 3.77,0 21.585,0 41.455,-17.07 0.686,1.702 1.37,3.07 2.4,4.435 2.74,3.076 6.85,4.783 12.677,5.126 7.537,0 14.388,-2.395 20.214,-7.858 2.74,2.73 6.166,4.44 10.28,5.463 -15.075,1.708 -29.807,5.12 -43.17,10.246 -10.28,3.755 -19.525,8.875 -27.75,13.99 l 2.055,5.128 c 10.965,-2.73 22.27,-3.76 32.89,-3.76 17.133,0 32.21,2.73 40.086,5.123 l 1.715,0.68 1.37,-1.364 c 30.833,-26.294 90.79,-15.368 149.72,-1.71 31.173,6.827 46.592,4.782 50.02,-7.508 1.025,-3.076 0.34,-6.828 -1.714,-10.246 -2.74,-4.435 -8.22,-10.24 -20.9,-13.993 -1.37,-5.805 -5.823,-13.313 -8.562,-18.438 -0.685,-1.026 -1.37,-2.39 -2.055,-3.416 1.03,0.34 2.056,0.68 3.087,0.68 2.395,0 4.796,-0.682 6.507,-2.39 2.055,-1.707 3.086,-4.097 3.086,-6.487 0.342,-8.194 -7.535,-13.997 -19.184,-14.34 -8.567,-0.342 -16.79,5.463 -19.53,13.316 -8.91,11.268 -14.045,16.05 -17.13,18.096 0.685,-1.365 2.05,-3.073 3.77,-5.803 a 2801.32,2801.32 0 0 1 4.11,-4.1 c 4.457,-4.78 10.28,-10.582 9.936,-17.07 -0.34,-3.072 -1.71,-5.462 -4.11,-7.51 -6.164,-4.78 -17.472,-3.412 -21.243,-3.073 -0.34,-1.023 -1.026,-2.385 -2.052,-3.41 -1.712,-1.71 -4.11,-2.73 -6.51,-2.73 -5.14,-0.343 -9.593,2.047 -12.674,6.485 -0.69,1.025 -1.37,2.39 -2.056,3.755 -1.372,-3.416 -5.482,-9.22 -17.474,-10.584 -9.935,-1.025 -22.27,4.438 -32.89,14.338 -2.397,2.73 -4.798,5.464 -6.853,8.194 1.03,-4.78 1.715,-9.218 1.37,-12.973 -0.684,-8.192 -5.822,-10.922 -9.934,-11.264 h -0.687 c -1.37,0 -2.398,0.34 -3.426,1.023 l 0.34,-1.026 c -22.62,1.02 -43.52,2.723 -66.13,5.116 z M 68.558,308.8 c -3.427,3.074 -5.48,7.85 -5.48,12.632 0,4.435 1.712,8.533 4.452,11.605 -9.25,-0.342 -16.787,-3.075 -21.928,-7.85 -5.138,-4.783 -7.88,-11.268 -7.88,-18.775 0,-14 11.305,-25.61 25.696,-25.61 11.992,0 21.583,7.514 21.583,17.074 0,2.045 -0.34,3.755 -1.37,5.806 -0.682,-0.343 -1.71,-0.343 -2.393,-0.343 -4.794,-0.008 -9.59,2.04 -12.675,5.46 z m 37.342,12.97 c 2.055,-4.777 3.427,-9.898 3.427,-15.36 0,-15.024 -9.25,-28.342 -23.982,-35.507 l 1.714,-3.755 c 20.55,1.702 32.883,16.045 32.883,29.7 0,6.486 -4.11,16.726 -14.047,24.922 z M 98.364,247 h -2.74 l 9.25,-20.825 -40.77,4.098 -0.684,1.705 c -1.028,2.39 -1.028,4.098 -0.685,5.803 -1.713,-1.704 -3.427,-2.73 -5.138,-3.412 0,-3.072 1.37,-5.802 3.428,-8.192 7.536,-7.853 24.667,-9.9 38.03,-9.56 13.702,0.342 24.666,7.852 24.325,16.045 -0.35,8.54 -11.654,15.026 -25.016,14.343 z M 228.21,235.393 c 0,1.365 -1.026,3.756 -3.084,6.828 -1.372,2.73 -5.14,7.51 -11.307,10.587 2.393,-3.755 4.792,-7.51 7.19,-10.583 3.43,-4.094 5.826,-6.144 7.196,-6.827 z m -20.896,36.875 h -0.344 c 0,-0.343 -0.344,-1.708 0.344,-5.12 9.25,-1.028 21.924,-6.148 30.49,-13.66 -16.446,16.73 -26.037,19.123 -30.49,18.78 z m 189.115,-22.876 c -5.487,7.17 -10.28,16.385 -7.88,23.898 0.682,3.418 3.422,7.508 11.302,9.218 13.36,3.076 26.037,-8.875 34.946,-21.508 1.37,2.387 3.083,4.44 4.797,6.827 1.025,1.022 2.054,2.387 2.74,3.412 -8.223,1.37 -13.02,5.464 -13.705,11.264 -0.344,3.076 0.685,5.806 2.74,8.193 0.34,0.342 1.026,0.684 1.37,1.364 -18.157,-4.44 -47.28,-11.604 -79.142,-15.022 12.68,-2.385 29.468,-10.238 42.828,-27.65 z m -16.11,-4.095 c 1.373,-1.71 2.743,-3.757 3.43,-5.804 0,0 0,0.343 0.34,0.343 0.345,1.024 0.686,1.706 1.37,2.73 -9.25,10.582 -27.064,22.19 -38.028,21.51 -2.74,0 -3.427,-0.343 -3.77,-0.343 -0.342,-0.342 -0.342,-1.022 -0.342,-1.365 0,-0.68 0.34,-2.044 1.027,-4.78 17.476,2.387 29.81,-4.783 35.973,-12.293 z m -14.73,-16.39 h 0.342 c 0.344,0.343 0.344,2.73 -1.367,5.803 -2.74,4.78 -7.88,9.56 -14.736,10.583 5.826,-10.24 12.334,-16.728 15.76,-16.386 z m -68.86,26.63 11.99,-27.995 c 1.03,2.388 2.74,4.438 5.14,5.46 0,1.365 -0.345,3.416 -1.37,5.803 -4.11,13.316 -12.334,22.534 -16.105,22.19 h -0.682 c -0.344,-0.34 -0.344,-3.07 1.026,-5.46 z m -34.947,8.88 c 0,-0.686 0.344,-3.076 2.398,-7.856 l 16.103,-36.87 c -1.71,4.78 1.714,7.17 3.086,7.855 l -8.91,20.14 c -6.85,14.002 -10.62,16.735 -12.675,16.735 z m 36.66,11.262 c 4.453,-1.706 8.906,-4.78 12.674,-8.88 a 47.588,47.588 0 0 0 7.19,-9.22 v 3.073 c 0.345,6.827 4.113,11.61 10.28,14.68 -10.62,-0.337 -20.555,-0.337 -30.147,0.342 z m 174.042,16.39 c 0,1.36 -0.344,2.382 -1.714,3.413 -1.71,1.02 -5.822,2.73 -15.416,1.364 3.768,-0.686 6.852,-2.73 9.25,-5.127 1.37,-1.364 2.74,-3.41 3.086,-5.456 2.74,1.36 5.137,3.41 4.796,5.8 z"
       id="path96"
       inkscape:connector-curvature="0"
       style="fill:#ffffff" />
    <path
       d="m 253.564,276.025 c 5.823,0 13.363,-1.365 20.902,-9.218 2.055,4.098 7.537,7.17 14.044,7.17 20.558,1.023 37.342,-30.046 35.972,-47.8 -0.34,-5.12 -3.083,-7.852 -6.508,-7.852 h -0.684 c -3.087,0.342 -5.482,2.73 -5.826,5.802 0,3.416 2.398,6.148 5.826,6.488 0.34,2.048 0,5.12 -1.37,9.218 -4.112,12.633 -13.362,24.92 -19.87,24.584 -5.482,0 -4.112,-6.83 -2.396,-10.586 l 15.417,-35.162 -25.35,1.368 c -2.393,5.803 5.14,3.755 2.74,8.533 l -8.91,20.485 c -5.48,11.27 -10.62,18.78 -16.1,18.78 -4.11,-0.343 -3.77,-4.778 -0.34,-12.634 l 15.074,-34.48 -25.695,2.386 c -2.4,6.145 5.137,3.755 3.082,8.196 l -9.25,20.14 c -6.17,6.83 -23.296,24.584 -37.343,24.24 -4.114,-0.342 -4.457,-5.12 -2.056,-11.604 13.36,-0.343 40.77,-13.316 39.4,-29.704 -0.345,-4.437 -4.113,-8.192 -10.62,-8.535 -20.215,-0.683 -41.46,23.9 -47.28,38.58 -2.055,2.73 -8.566,10.583 -11.993,10.583 -2.055,-0.343 -1.37,-3.076 1.03,-6.83 l 11.99,-17.756 c 3.77,-5.802 4.113,-7.853 4.113,-10.583 0.343,-5.8 -8.22,-5.12 -13.02,-2.73 -3.426,1.367 -9.593,4.44 -11.992,5.805 -0.683,-2.39 -2.74,-4.1 -5.48,-4.1 -4.113,0 -11.993,7.17 -11.993,15.707 0,2.05 0.344,3.756 1.37,4.78 -4.453,7.512 -9.935,13.997 -11.65,16.044 -4.11,-6.484 -9.934,-11.26 -15.76,-15.017 11.305,-3.42 22.27,-11.27 22.954,-24.927 0.345,-13.316 -17.815,-29.362 -46.59,-30.387 -71.265,-2.383 -67.153,48.487 -47.283,50.535 5.138,0.68 9.935,-3.073 10.28,-8.535 0.684,-5.12 -3.085,-9.56 -8.223,-10.245 -1.71,-18.774 24.67,-24.24 45.227,-23.555 15.074,0.683 27.75,8.876 27.408,19.46 -0.344,10.242 -12.678,18.434 -28.436,17.752 -2.394,0 -5.822,-0.343 -7.535,-0.343 l 8.566,-19.8 -32.89,3.07 c -3.084,7.512 6.167,4.437 3.427,10.582 l -10.967,25.6 c -23.298,1.703 -41.457,16.73 -41.457,34.823 0.344,21.17 17.816,40.29 52.077,40.29 48.65,0 73.317,-24.245 74,-47.118 0.345,-5.806 -0.342,-10.927 -1.712,-15.024 5.483,-7.17 10.965,-15.703 13.704,-21.85 3.77,-0.34 9.25,-2.39 16.45,-7.17 -3.77,5.124 -10.62,15.707 -12.68,18.78 -4.453,6.827 -7.88,18.775 3.428,19.118 9.935,0.338 19.53,-11.61 22.612,-15.365 2.053,6.828 7.535,7.507 11.99,7.507 4.797,0.343 23.98,-0.68 44.196,-21.166 -1.032,7.86 2.052,13.323 11.99,13.666 z M 229.58,231.3 c 6.51,0.34 -2.74,24.24 -22.27,26.972 5.827,-12.63 16.79,-26.972 22.27,-26.972 z M 85.344,307.434 c -1.37,-0.343 -2.74,-0.685 -4.112,-0.685 -8.22,0 -14.732,6.49 -14.732,14.68 0,7.51 5.824,13.654 13.02,14.334 -3.084,0.342 -6.51,0.685 -9.936,0.685 -23.297,0 -35.29,-13.656 -35.29,-30.044 0,-16.052 13.02,-29.023 29.12,-29.023 13.704,0 25.012,9.218 25.012,20.486 0.002,3.413 -1.026,6.49 -3.08,9.56 z m 6.167,25.606 c 8.57,-4.777 14.39,-15.023 14.39,-26.628 0,-15.024 -10.274,-28 -25.01,-33.8 l 4.11,-8.88 c 24.327,0.685 38.37,18.096 38.37,33.12 0.006,11.262 -9.59,29.015 -31.86,36.188 z"
       id="path98"
       inkscape:connector-curvature="0"
       style="fill:#0a2351" />
    <path
       d="m 465.292,281.488 c 6.167,2.045 10.964,6.142 10.623,10.925 -0.344,3.076 -2.055,12.97 -33.235,5.463 -35.287,-8.535 -152.115,-41.652 -224.746,4.44 30.15,-6.827 60.297,-1.027 71.26,2.388 31.86,-27.657 93.875,-16.388 152.8,-2.73 39.06,8.875 44.2,0.68 45.91,-5.12 1.37,-4.783 -2.74,-15.366 -22.612,-20.486 -1.026,-6.828 -4.797,-13.313 -7.536,-18.096 -2.74,-4.438 -5.138,-8.193 -5.482,-12.63 0,-1.026 1.028,-3.076 3.086,-3.756 v 1.023 c 0,3.41 2.396,6.14 5.482,6.14 3.427,0 6.167,-2.388 6.167,-5.463 0.34,-7.17 -7.54,-10.583 -15.766,-10.926 -7.196,-0.34 -14.388,4.78 -16.446,11.61 -16.79,21.848 -22.61,21.168 -23.98,20.826 -2.4,-0.68 -0.34,-5.12 4.795,-11.95 3.768,-5.12 13.703,-11.953 13.36,-19.463 -0.686,-8.878 -15.418,-8.193 -22.27,-7.168 -1.025,0.34 -1.71,0.34 -2.398,0.34 v -0.34 c 0,-3.416 -2.74,-6.15 -5.824,-6.49 -9.25,-0.34 -14.73,10.924 -11.306,18.437 0.686,1.708 1.712,2.73 3.085,3.415 -8.563,11.948 -29.12,26.29 -43.167,25.604 -6.508,-0.336 -6.852,-2.044 -7.193,-4.777 0,-1.71 0.686,-5.125 2.397,-8.537 37,6.15 54.473,-30.726 23.64,-34.14 -19.527,-2.045 -45.567,23.9 -44.197,40.626 0.687,12.975 15.76,13.997 19.87,14.34 9.94,0.337 36.318,-4.44 54.818,-31.752 3.426,0 7.535,-0.68 11.648,-2.046 -12.675,12.29 -26.38,33.802 -7.537,38.242 13.36,2.726 26.723,-12.977 34.6,-24.927 2.74,7.51 9.595,12.97 13.02,19.8 -9.594,0 -15.76,3.074 -16.1,8.534 -0.687,7.17 9.25,11.267 16.784,11.267 6.852,0.34 15.76,-2.73 16.446,-12.63 z m -99.697,-55.99 c 10.28,0.682 -1.71,25.603 -21.243,23.556 5.482,-11.268 14.735,-23.9 21.243,-23.556 z m 83.936,59.4 c -1.02,5.125 -10.62,3.075 -9.93,-1.365 0.34,-2.73 4.797,-4.093 9.935,-4.435 0.345,1.705 0.345,3.755 0,5.8 z m -54.47,30.39 h -2.394 v 6.827 h -2.054 v -6.828 h -2.4 v -1.708 h 6.85 v 1.703 z m 11.99,6.827 h -1.71 v -6.828 l -2.74,6.828 h -1.71 l -2.4,-6.828 v 6.828 h -1.71 v -8.536 h 3.085 l 2.054,5.8 2.054,-5.805 h 3.085 v 8.535 h -0.006 z"
       id="path100"
       inkscape:connector-curvature="0"
       style="fill:#0a2351" />
  </g>
</svg>
