<?xml version="1.0" encoding="UTF-8" standalone="no"?>
<svg
   xmlns:dc="http://purl.org/dc/elements/1.1/"
   xmlns:cc="http://creativecommons.org/ns#"
   xmlns:rdf="http://www.w3.org/1999/02/22-rdf-syntax-ns#"
   xmlns:svg="http://www.w3.org/2000/svg"
   xmlns="http://www.w3.org/2000/svg"
   xmlns:sodipodi="http://sodipodi.sourceforge.net/DTD/sodipodi-0.dtd"
   xmlns:inkscape="http://www.inkscape.org/namespaces/inkscape"
   width="512"
   height="512"
   viewBox="0 0 512 512"
   version="1.1"
   id="svg42"
   sodipodi:docname="minnesota-twins.svg"
   inkscape:version="0.92.5 (2060ec1f9f, 2020-04-08)">
  <metadata
     id="metadata48">
    <rdf:RDF>
      <cc:Work
         rdf:about="">
        <dc:format>image/svg+xml</dc:format>
        <dc:type
           rdf:resource="http://purl.org/dc/dcmitype/StillImage" />
      </cc:Work>
    </rdf:RDF>
  </metadata>
  <defs
     id="defs46" />
  <sodipodi:namedview
     pagecolor="#ffffff"
     bordercolor="#666666"
     borderopacity="1"
     objecttolerance="10"
     gridtolerance="10"
     guidetolerance="10"
     inkscape:pageopacity="0"
     inkscape:pageshadow="2"
     inkscape:window-width="640"
     inkscape:window-height="480"
     id="namedview44"
     showgrid="false"
     inkscape:zoom="0.4609375"
     inkscape:cx="256"
     inkscape:cy="256"
     inkscape:window-x="0"
     inkscape:window-y="0"
     inkscape:window-maximized="0"
     inkscape:current-layer="svg42" />
  <title
     id="title2">minnesota-twins</title>
  <g
     id="g40"
     transform="translate(-8,4)"
     style="fill:none;fill-rule:evenodd">
    <path
       d="m 254.333,89.766 c -92.55,0 -167.568,75.038 -167.568,167.586 0,92.55 75.02,167.56 167.568,167.56 92.548,0 167.568,-75.01 167.568,-167.56 0,-92.548 -75.02,-167.586 -167.563,-167.586 m 0,329.99 c -89.7,0 -162.405,-72.704 -162.415,-162.404 0.01,-89.7 72.715,-162.433 162.415,-162.433 89.7,0 162.404,72.73 162.404,162.43 0,89.7 -72.705,162.403 -162.404,162.403"
       id="path4"
       inkscape:connector-curvature="0"
       style="fill:#002b5c" />
    <path
       d="m 150.667,339.546 c 0.448,-0.353 0.64,-0.81 0.64,-1.363 0.008,-0.733 -0.373,-1.59 -0.945,-2.23 l -1.038,-1.142 -3.058,2.32 0.343,0.457 c 0.8,1.077 2.16,2.286 3.2,2.258 a 1.4,1.4 0 0 0 0.853,-0.294 m 12.852,19.145 1.553,-4.858 -4.743,1.896 3.19,2.964 m 52.472,29.998 -1.564,-0.362 -1.39,4.81 1.96,0.734 c 0.697,0.267 1.44,0.42 2.116,0.42 1.276,-0.02 2.25,-0.496 2.6,-1.677 0.067,-0.22 0.095,-0.42 0.095,-0.62 0.035,-1.507 -1.794,-2.83 -3.82,-3.307 M 316.51,145.83 c 1.45,0.78 2.86,1.143 4.153,1.143 2.296,0 4.192,-1.122 5.307,-3.16 a 7.085,7.085 0 0 0 0.84,-3.325 c 0,-2.39 -1.22,-4.83 -4.02,-6.354 -1.505,-0.81 -2.953,-1.18 -4.28,-1.18 -2.332,0.01 -4.246,1.123 -5.37,3.19 a 6.502,6.502 0 0 0 -0.772,3.087 c 0.01,2.45 1.296,5.05 4.144,6.605 m -171.98,192.62 -4,3.04 1.142,1.76 -0.285,0.182 0.28,-0.18 c 0.84,1.314 2.096,2.276 3.22,2.257 a 2.11,2.11 0 0 0 1.324,-0.46 c 0.61,-0.476 0.858,-1.095 0.867,-1.84 0,-1.103 -0.62,-2.456 -1.523,-3.523 l -1.03,-1.24 m 225.203,-160.604 -5.143,0.886 2.552,3.648 2.59,-4.53 m -132.384,214.878 4.344,0.468 -1.653,-4.83 -2.687,4.363 m -19.74,-9.884 -1.505,-0.305 -1.067,3.677 0.543,0.162 c 0.67,0.19 1.47,0.35 2.21,0.35 1.127,-0.02 1.975,-0.334 2.22,-1.19 a 2.02,2.02 0 0 0 0.06,-0.46 c 0.03,-1 -1.125,-1.98 -2.458,-2.237 m 144.82,-50.184 h -0.03 c -0.848,0 -1.83,0.723 -2.39,1.666 l -0.78,1.334 3.123,2.225 0.323,-0.476 c 0.648,-0.887 1.296,-2.18 1.296,-3.174 0,-0.534 -0.18,-0.953 -0.626,-1.277 a 1.508,1.508 0 0 0 -0.914,-0.304 m 6.247,2.517 h -0.03 c -1.247,0 -2.723,1.162 -3.647,2.63 l -0.867,1.352 4.077,2.905 1.343,-1.6 c 0.79,-0.94 1.315,-2.075 1.315,-3.046 -0.01,-0.724 -0.266,-1.344 -0.942,-1.83 a 2.1,2.1 0 0 0 -1.248,-0.41 m -155.175,19.654 c -19.31,-8.412 -34.79,-21.93 -45.603,-38.287 -1.276,0.496 -2.724,1.048 -4.267,1.64 a 108.63,108.63 0 0 0 13.927,17.232 c 0.067,0.07 0.143,0.145 0.21,0.2 0.838,0.85 1.686,1.688 2.553,2.508 0.124,0.104 0.247,0.22 0.37,0.323 0.792,0.745 1.564,1.488 2.373,2.183 a 105.82,105.82 0 0 0 4.078,3.41 c 20.024,16.024 44.183,23.91 68.208,23.902 h 0.02 c 30.302,0 60.49,-12.546 82.087,-37.076 a 0.732,0.732 0 0 0 0.114,-0.125 c 14.45,-16.443 23.053,-36.048 26.025,-56.234 l -0.42,0.03 c -1.268,0.114 -2.65,0.24 -4.068,0.36 a 104.63,104.63 0 0 1 -7.47,25.57 c -23.136,53.176 -84.99,77.506 -138.14,54.367"
       id="path6"
       inkscape:connector-curvature="0"
       style="fill:#002b5c" />
    <path
       d="m 365.933,145.742 c -28.58,-28.57 -68.017,-46.222 -111.6,-46.222 -43.593,0 -83.032,17.653 -111.592,46.222 -28.564,28.57 -46.23,68.01 -46.23,111.61 0,43.593 17.666,83.032 46.226,111.6 28.57,28.552 68.008,46.213 111.6,46.213 43.584,0 83.022,-17.66 111.6,-46.212 28.57,-28.57 46.223,-68.008 46.223,-111.6 0,-43.602 -17.653,-83.04 -46.223,-111.61 z m 12.632,59.16 c 1.41,-0.097 2.792,-0.163 4.097,-0.24 -0.02,2.477 0,22.692 0,28.284 -6.926,-1.095 -11.24,-4.153 -13.842,-7.86 2.458,1.754 5.64,3.068 9.745,3.707 -0.01,-4.26 -0.01,-16.967 0,-23.892 z m -3.896,18.965 c -8.78,-3.296 -9.55,-11.403 -9.68,-14.137 -5.786,-0.152 -9.9,2.45 -9.568,10.06 0.162,3.21 1.61,7.012 7.82,11.24 14.7,10.042 15.13,14.376 15.577,19.425 0.61,6.945 -4.21,14.604 -11.337,15.385 -8.297,0.61 -15.023,1.258 -23.187,2.182 -0.058,-1.63 0.047,-18.157 0,-19.3 8.773,3.162 9.545,11.23 9.687,13.984 5.773,0.048 12.47,-2.848 12.127,-10.47 -0.15,-3.19 -2.074,-6.687 -14.24,-14.822 -7.09,-4.754 -8.935,-11.117 -9.154,-16.042 -0.296,-6.526 3.544,-14.46 11.574,-15.27 a 811.2,811.2 0 0 1 20.395,-1.478 c 0.057,1.915 -0.057,18.12 -0.02,19.243 z m -11.256,-0.21 c 0.01,0.182 0.03,0.39 0.058,0.592 0.21,0.68 0.39,1.37 0.6,2.052 0.133,0.296 0.295,0.59 0.495,0.905 -4.477,-3.277 -5.18,-5.763 -5.25,-7.59 -0.02,-0.22 -0.475,-4.65 2.383,-5.556 0.43,1.935 1.144,3.916 2.24,5.764 -0.76,1.6 -0.533,3.687 -0.524,3.83 z m 5.688,-48.993 c 0.428,-0.067 0.867,-0.133 1.114,-0.257 0.256,-0.143 0.247,-0.143 0.276,-0.324 a 1.4,1.4 0 0 0 -0.105,-0.457 l -0.143,-0.4 0.342,-0.258 0.532,-0.38 3.44,4.886 -7.43,13.51 c -0.688,1.228 -1.317,2.237 -1.317,3.457 0,0.26 0.03,0.548 0.105,0.85 l 0.087,0.36 -0.324,0.22 -0.534,0.38 -4.41,-6.273 0.455,-0.324 0.39,-0.286 0.342,0.238 c 0.448,0.317 0.734,0.41 0.743,0.4 0,-0.007 0.02,0.01 0.173,-0.2 0.17,-0.217 0.41,-0.636 0.723,-1.217 l 1.888,-3.23 -4.19,-5.972 -3.64,0.725 c -1.353,0.267 -1.582,0.4 -1.534,0.734 0,0.134 0.028,0.335 0.124,0.61 l 0.133,0.4 -0.352,0.25 -0.533,0.38 -4.02,-5.726 0.45,-0.342 0.38,-0.276 0.334,0.22 c 0.743,0.466 1.4,0.6 2.105,0.6 0.705,0.01 1.487,-0.163 2.325,-0.325 l 12.07,-1.962 z m -31.494,-11.898 0.333,-0.362 0.373,0.18 c 0.2,0.086 0.37,0.115 0.533,0.125 0.713,0.033 1.61,-0.95 2.275,-1.72 l 7.527,-8.27 -1.64,-1.504 c -0.95,-0.878 -2.133,-1.564 -3.17,-1.63 l -0.2,-0.02 -0.144,-0.142 -0.668,-0.592 4.01,-2.153 0.295,0.277 0.133,0.133 0.06,0.088 c 0.12,0.24 0.4,0.485 0.655,0.8 l 9.365,8.535 c 0.38,0.362 0.742,0.63 1.03,0.743 l 0.103,0.038 0.076,0.076 0.647,0.6 -3.915,2.23 -0.305,-0.288 -0.352,-0.324 0.124,-0.342 a 0.658,0.658 0 0 0 0.037,-0.238 c 0.03,-0.476 -0.544,-1.23 -1.2,-1.78 l -1.687,-1.554 -7.717,8.47 c -0.752,0.828 -1.162,1.304 -1.152,1.952 0,0.276 0.058,0.6 0.23,1.03 l 0.142,0.342 -0.247,0.266 -0.448,0.486 -5.497,-5.03 0.392,-0.428 z m 16.233,39.477 c -0.01,0 -0.01,0.01 -0.02,0.01 -1.456,0.152 -2.81,0.504 -4.057,1 A 109.687,109.687 0 0 0 327.576,176.398 C 306.8,158.155 281.05,149.19 255.436,149.2 c -20.92,-0.01 -41.784,5.983 -59.808,17.748 a 109.5,109.5 0 0 0 -22.548,19.538 108.897,108.897 0 0 0 -17.052,26.188 c -1.475,0.124 -2.99,0.286 -4.523,0.467 -0.18,0.01 -0.372,0.06 -0.562,0.08 a 113.66,113.66 0 0 1 18.833,-29.645 c 22.435,-25.548 53.88,-38.666 85.413,-38.647 26.6,0 53.385,9.326 74.944,28.264 9.726,8.546 17.642,18.396 23.71,29.056 z m -45.01,-68.17 c 1.58,-2.906 4.84,-4.487 8.46,-4.487 2.314,0 4.79,0.647 7.134,1.97 4.506,2.412 6.945,6.44 6.954,10.233 a 8.044,8.044 0 0 1 -0.95,3.834 c -1.688,3.105 -4.984,4.63 -8.557,4.63 h -0.01 c -2.275,0 -4.695,-0.61 -6.943,-1.83 -4.288,-2.333 -7.108,-6.306 -7.127,-10.345 a 8.31,8.31 0 0 1 1.04,-4.01 z m -29.265,-3.82 c 1.4,1.666 3.64,3.067 5.944,3.638 a 6.1,6.1 0 0 0 1.535,0.186 c 1.438,0 2.696,-0.504 2.848,-1.333 a 1.64,1.64 0 0 0 0.038,-0.372 c 0.098,-1.2 -1.846,-2.61 -4.056,-4.067 -2.143,-1.516 -4.525,-3.174 -4.572,-5.84 0,-0.354 0.048,-0.706 0.144,-1.068 0.647,-2.563 3.172,-3.45 5.753,-3.43 1.247,0 2.543,0.18 3.8,0.486 1.59,0.4 3.163,0.99 4.602,1.78 l 0.39,0.21 -0.828,3.326 -0.304,1.2 -0.732,-1.01 c -0.83,-1.17 -2.496,-2.2 -4.106,-2.6 a 7.51,7.51 0 0 0 -1.723,-0.23 c -1.18,0.02 -1.964,0.344 -2.155,1.135 a 0.983,0.983 0 0 0 -0.036,0.287 c -0.106,1 1.895,2.505 4.124,4.01 2.16,1.543 4.543,3.182 4.6,5.687 0,0.288 -0.03,0.574 -0.114,0.87 -0.65,2.514 -3.525,4.05 -7.05,4.057 a 13.59,13.59 0 0 1 -3.24,-0.41 c -1.933,-0.484 -3.82,-1.2 -5.495,-2.21 l -0.266,-0.17 -0.155,-5.363 1.06,1.238 z m -28.122,1.886 0.03,-0.51 0.408,-0.105 c 1.097,-0.2 1.097,-1.725 1.116,-3.03 l 0.313,-9.936 c 0.02,-0.343 0.04,-0.715 0.04,-1.086 -0.02,-1.04 -0.16,-1.772 -0.96,-2.03 l -0.4,-0.152 0.01,-0.42 0.017,-0.647 10.764,0.352 c 0.28,0.01 0.526,0.027 0.746,0.027 0.22,0 0.4,-0.028 0.523,-0.076 l 0.103,-0.04 h 0.134 l 0.647,0.01 -0.123,4.24 -0.56,-0.02 h -0.344 l -0.162,-0.17 c -0.762,-0.8 -1.868,-0.96 -3.325,-1 -0.42,-0.02 -0.84,-0.038 -1.26,-0.038 -0.475,0 -0.97,0.02 -1.42,0.057 l -0.122,3.82 3.21,0.113 c 0.16,0 0.312,0.01 0.464,0.01 0.315,0 0.58,-0.038 0.724,-0.086 l 0.114,-0.037 h 0.114 l 0.656,0.03 -0.124,3.936 -0.57,-0.02 -0.4,-0.018 -0.163,-0.267 c -0.154,-0.39 -1.335,-0.55 -2.345,-0.54 l -1.78,-0.067 -0.163,5.138 3.505,0.4 c 0.305,0.02 0.628,0.047 0.952,0.047 1.667,0 3.344,-0.467 4.602,-1.315 l 0.15,-0.125 0.19,0.01 0.944,0.038 -2.05,4.525 -14.23,-0.448 0.018,-0.57 z m -31.76,-13.5 0.095,0.453 c 0.095,0.143 0.152,0.162 0.42,0.343 l 0.513,0.4 12.757,8.687 -1.78,-8.383 c -0.374,-1.504 -0.336,-2.047 -1.89,-2.457 l -0.35,-0.086 -0.077,-0.36 -0.124,-0.64 6.582,-1.4 0.123,0.553 0.106,0.44 -0.302,0.22 c -0.78,0.64 -0.905,1.03 -0.914,1.61 0,0.382 0.086,0.84 0.22,1.42 l 3.228,15.204 -0.75,-0.057 c -2.44,-0.124 -3.783,-0.877 -5.46,-2.058 l -11.89,-8.15 1.82,8.584 c 0.37,1.506 0.334,2.058 1.897,2.496 l 0.34,0.087 0.085,0.35 0.124,0.64 -6.62,1.41 -0.135,-0.554 -0.087,-0.448 0.275,-0.22 c 0.81,-0.648 0.944,-1.057 0.963,-1.648 0,-0.38 -0.096,-0.848 -0.21,-1.39 l -2.19,-10.3 c -0.373,-1.513 -0.363,-2.056 -1.887,-2.475 l -0.353,-0.086 -0.086,-0.353 -0.123,-0.638 5.678,-1.2 z m -36,14.4 0.22,0.42 c 0.14,0.094 0.19,0.104 0.494,0.21 l 0.61,0.26 14.61,4.96 -3.952,-7.6 c -0.725,-1.306 -0.878,-1.83 -2.288,-1.887 h -0.162 l -0.38,0.038 -0.17,-0.333 -0.306,-0.584 5.99,-3.115 0.468,0.905 -0.22,0.286 c -0.418,0.57 -0.54,0.962 -0.54,1.314 -0.01,0.477 0.26,1.04 0.66,1.79 l 7.18,13.776 -0.74,0.173 c -0.79,0.162 -1.488,0.248 -2.136,0.248 -1.305,0 -2.39,-0.332 -3.677,-0.79 l -13.633,-4.67 4.048,7.786 c 0.734,1.324 0.877,1.84 2.344,1.896 h 0.17 l 0.343,0.01 0.153,0.296 0.314,0.58 -6.03,3.134 -0.256,-0.523 -0.21,-0.38 0.22,-0.278 c 0.43,-0.6 0.554,-1 0.554,-1.362 0.01,-0.486 -0.258,-1.038 -0.648,-1.79 l -4.86,-9.327 c -0.724,-1.302 -0.905,-1.835 -2.324,-1.874 h -0.143 l -0.364,0.03 -0.17,-0.335 -0.306,-0.58 5.136,-2.677 z m -17.615,11.812 0.362,0.438 0.324,0.39 -0.247,0.354 c -0.144,0.248 -0.2,0.44 -0.21,0.667 -0.02,0.698 0.79,1.65 1.42,2.374 l 6.305,7.68 c 0.638,0.827 1.495,1.885 2.238,1.837 a 1.2,1.2 0 0 0 0.477,-0.103 l 0.39,-0.152 0.27,0.324 0.41,0.493 -5.554,4.563 -0.362,-0.42 -0.323,-0.4 0.237,-0.36 c 0.153,-0.24 0.21,-0.44 0.21,-0.65 0.028,-0.675 -0.772,-1.628 -1.39,-2.352 l -6.317,-7.678 c -0.658,-0.857 -1.497,-1.915 -2.24,-1.858 a 0.976,0.976 0 0 0 -0.467,0.095 l -0.4,0.17 -0.266,-0.323 -0.43,-0.516 5.564,-4.574 z m -29.408,30.829 0.448,0.324 0.05,0.02 c 0.134,0.123 0.506,0.18 0.954,0.257 l 11.746,2.077 -5.165,-9.927 c -0.276,-0.55 -0.533,-0.96 -0.857,-1.19 l -0.467,-0.36 4.03,-5.306 0.45,0.362 0.43,0.324 -0.183,0.41 a 0.414,0.414 0 0 0 -0.067,0.24 c -0.01,0.227 0.22,0.58 0.448,0.75 l 11.584,6.174 c 0.688,0.372 1.107,0.562 1.565,0.562 0.276,0 0.61,-0.057 1.076,-0.247 l 0.305,-0.138 0.257,0.2 0.516,0.4 -4.42,5.792 -0.445,-0.333 -0.42,-0.323 0.17,-0.41 c 0.078,-0.22 0.126,-0.38 0.126,-0.525 0,-0.362 -0.237,-0.657 -0.657,-0.99 l -9.545,-5.335 7.127,13.71 -0.6,0.23 c -1.03,0.39 -1.81,0.542 -2.6,0.542 -0.62,0 -1.22,-0.095 -1.946,-0.22 l -11.394,-2.066 6.698,7.03 c 0.83,0.886 1.42,1.39 1.84,1.372 0.17,-0.01 0.4,-0.06 0.713,-0.26 l 0.333,-0.22 0.323,0.25 0.515,0.4 -3.837,5.03 -0.456,-0.344 -0.285,-0.228 v -0.363 c -0.01,-1.352 -0.745,-2.105 -1.708,-3.172 l -7.696,-8.146 c -0.42,-0.458 -0.733,-0.82 -1.133,-0.81 -0.18,0 -0.4,0.047 -0.733,0.23 l -0.325,0.18 -0.295,-0.23 -0.516,-0.41 4.06,-5.316 z m -22.205,66.77 c 0,-26.168 45.602,-26.588 60.1,-26.607 20.864,-0.047 35.43,-5.125 37.868,-13.756 -3.172,25.473 -44.688,27.492 -53.26,27.626 v 72.18 c 0,5.392 4.086,6.983 5.648,7.04 -8.773,3.182 -16.575,6.24 -23.272,9.127 4.48,-2.942 5.147,-10.573 5.138,-10.582 0.02,0.142 0,-75.926 0,-75.926 -7.355,0.697 -25.845,3.526 -25.864,14.13 v 0.037 c 0,3.61 2.01,6.496 3.61,7.706 -8.954,-0.048 -9.964,-8.164 -9.964,-10.975 z m 15.442,9.603 c -1.6,-0.39 -5.2,-2.144 -5.2,-6.335 v -0.01 c 0.007,-5.23 9.01,-8.384 18.1,-9.765 v 4.277 c -8.367,1.23 -14.006,3.725 -14.006,8.23 v 0.03 c 0,1.476 0.45,2.648 1.106,3.572 z m 4.486,6.906 c -0.962,0.4 -3.82,1.134 -5.887,1.115 -4.22,-0.048 -7.413,-1.543 -9.65,-3.82 1.59,0.657 3.447,1.048 5.552,1.057 2.077,0.02 4.925,-0.724 5.897,-1.133 v -3.62 c 1.37,1.58 3.305,2.257 4.086,2.362 v 4.04 z m 11.85,89.71 c -1.066,0 -2.18,-0.36 -3.162,-0.953 -1.876,-1.115 -3.17,-2.935 -4.41,-4.583 l -2.972,-3.887 0.277,-0.21 0.257,-0.19 0.21,0.133 c 0.238,0.18 0.457,0.24 0.676,0.24 0.69,0.02 1.528,-0.675 2.166,-1.17 l 6.887,-5.24 c 0.755,-0.552 1.765,-1.25 1.736,-2.04 a 1.34,1.34 0 0 0 -0.086,-0.436 l -0.085,-0.24 0.2,-0.15 0.324,-0.25 4.17,5.48 c 1.3,1.704 1.955,3.276 1.955,4.61 0.01,1.02 -0.4,1.895 -1.172,2.477 a 2.76,2.76 0 0 1 -1.733,0.6 c -0.6,0 -1.19,-0.17 -1.78,-0.446 0.294,0.772 0.466,1.562 0.466,2.324 0.01,1.23 -0.457,2.372 -1.505,3.173 -0.694,0.53 -1.532,0.76 -2.41,0.76 z m 18.586,17.014 c -0.277,0.905 -0.563,1.714 -0.563,2.534 0,0.464 0.09,0.93 0.327,1.445 l 0.086,0.21 -0.16,0.17 -0.277,0.296 -4.65,-4.315 0.23,-0.26 0.21,-0.227 0.228,0.095 c 0.373,0.162 0.62,0.22 0.735,0.22 0.153,0.047 0.296,-0.21 0.696,-1.487 l 1.03,-3.17 -4.764,-4.42 -3.06,1.292 c -0.95,0.38 -1.314,0.667 -1.286,0.943 -0.008,0.135 0.068,0.354 0.26,0.678 l 0.113,0.228 -0.172,0.18 -0.274,0.298 -4.23,-3.936 0.24,-0.238 0.2,-0.22 0.22,0.068 c 0.437,0.162 0.837,0.238 1.21,0.238 0.904,0 1.75,-0.39 2.723,-0.79 l 9.88,-3.86 c 0.693,-0.256 1.246,-0.542 1.18,-0.828 0,-0.105 -0.048,-0.276 -0.19,-0.514 l -0.144,-0.22 0.18,-0.2 0.276,-0.295 3.602,3.354 -3.85,12.726 z m 21.872,4.6 -0.41,0.63 -0.2,-0.715 c -0.362,-1.267 -1.457,-2.6 -2.705,-3.42 -0.72,-0.486 -1.693,-0.905 -2.446,-0.895 -0.513,0.01 -0.894,0.152 -1.18,0.59 -0.143,0.2 -0.19,0.42 -0.19,0.648 -0.105,2.086 4.506,5.792 4.57,9.07 0,0.552 -0.14,1.123 -0.484,1.638 -0.77,1.163 -2.22,1.754 -3.898,1.754 -1.647,0 -3.543,-0.562 -5.372,-1.763 -1.43,-0.95 -2.752,-2.066 -3.83,-3.37 l -0.113,-0.153 1.267,-3.935 0.335,0.915 c 0.693,1.79 2.14,3.61 3.885,4.753 0.704,0.48 1.838,0.9 2.734,0.9 0.636,0 1.112,-0.19 1.39,-0.63 0.18,-0.247 0.246,-0.513 0.246,-0.82 0.095,-2.2 -4.41,-5.563 -4.487,-8.963 0,-0.658 0.18,-1.325 0.6,-1.944 0.723,-1.103 1.867,-1.56 3.095,-1.56 1.725,0.01 3.668,0.838 5.364,1.953 1.17,0.78 2.276,1.695 3.23,2.743 l 0.18,0.2 -1.58,2.38 z m 16.833,8.794 -0.327,-0.146 -0.2,-0.095 -0.037,-0.124 c -0.37,-0.962 -1.247,-1.477 -2.39,-2.02 -0.772,-0.362 -1.544,-0.695 -2.287,-0.933 l -1.534,3.277 2.667,1.24 c 0.4,0.18 0.78,0.353 1.02,0.353 h 0.086 l 0.057,0.028 0.38,0.184 -1.312,2.848 -0.315,-0.15 -0.238,-0.115 -0.03,-0.2 c -0.028,-0.477 -0.962,-1 -1.762,-1.353 l -1.534,-0.703 -2.01,4.324 2.782,1.582 c 1.153,0.64 2.486,1 3.763,1 0.41,0 0.818,-0.038 1.21,-0.114 l 0.094,-0.02 0.114,0.05 0.543,0.237 -2.942,2.713 -10.965,-5.106 0.145,-0.314 0.143,-0.296 0.256,0.048 c 0.067,0.01 0.133,0.02 0.2,0.02 0.934,0.047 1.467,-1.22 1.886,-2.154 l 3.64,-7.83 c 0.294,-0.64 0.722,-1.43 0.713,-2.057 -0.01,-0.353 -0.105,-0.648 -0.42,-0.934 l -0.2,-0.19 0.115,-0.23 0.182,-0.36 8.315,3.866 c 0.448,0.22 0.83,0.428 1.077,0.42 h 0.085 l 0.067,0.027 0.39,0.18 -1.428,3.05 z m 20.116,7.122 c -0.38,1.334 -1.447,1.963 -2.723,2.22 1.524,0.962 2.6,2.344 2.61,3.982 a 3.7,3.7 0 0 1 -0.152,1.048 c -0.552,1.886 -2.524,2.982 -4.59,3.19 a 8.06,8.06 0 0 1 -0.85,0.04 c -1.876,0 -3.695,-0.59 -5.42,-1.087 l -4.715,-1.362 0.095,-0.332 0.087,-0.295 0.257,-0.01 c 1.104,0.02 1.43,-1.37 1.714,-2.457 l 2.41,-8.317 c 0.16,-0.56 0.41,-1.257 0.41,-1.85 -0.01,-0.464 -0.127,-0.817 -0.575,-1.12 l -0.2,-0.134 0.066,-0.248 0.104,-0.4 6.62,1.914 c 3.105,0.886 4.963,2.458 4.982,4.392 0,0.276 -0.04,0.552 -0.135,0.828 z m 25.618,15.49 -0.037,0.4 -6.315,-0.667 0.047,-0.352 0.03,-0.294 0.227,-0.067 c 0.81,-0.22 0.81,-0.286 0.81,-0.438 0.01,-0.2 -0.16,-0.686 -0.41,-1.42 l -1.066,-3.162 -6.48,-0.695 -1.667,2.868 c -0.352,0.6 -0.56,1.038 -0.552,1.257 0.01,0.2 0.087,0.372 0.696,0.667 l 0.22,0.094 -0.02,0.27 -0.046,0.4 -5.737,-0.63 0.03,-0.33 0.027,-0.307 0.23,-0.057 c 1.524,-0.448 2.058,-1.534 2.83,-2.8 l 5.61,-9.022 c 0.267,-0.43 0.534,-0.896 0.524,-1.143 -0.02,-0.17 -0.038,-0.314 -0.533,-0.514 l -0.256,-0.095 0.077,-0.675 4.896,0.523 4.516,12.517 c 0.504,1.4 0.827,2.582 2.19,3.344 l 0.2,0.105 -0.038,0.228 z m 19.234,-0.428 -11.89,0.695 -0.018,-0.333 -0.01,-0.335 0.23,-0.087 c 0.742,-0.258 0.884,-0.915 0.894,-1.744 0,-0.39 -0.038,-0.78 -0.057,-1.135 l -0.495,-8.63 c -0.057,-1.136 -0.066,-2.536 -1.17,-2.765 l -0.25,-0.068 -0.01,-0.257 -0.027,-0.41 5.954,-0.342 0.018,0.343 0.02,0.316 -0.24,0.095 c -0.714,0.27 -0.866,0.898 -0.876,1.707 0,0.41 0.047,0.82 0.076,1.182 l 0.55,9.66 3.44,-0.01 c 1.81,-0.03 3.315,-0.62 4.592,-1.62 l 0.075,-0.058 0.113,-0.01 0.62,-0.037 -1.545,3.84 z m 21.015,-3.6 -11.688,2.418 -0.06,-0.333 -0.056,-0.315 0.22,-0.114 c 0.532,-0.294 0.656,-0.713 0.665,-1.285 0,-0.552 -0.163,-1.172 -0.268,-1.686 l -1.763,-8.45 c -0.22,-1.124 -0.43,-2.515 -1.554,-2.57 l -0.267,-0.03 -0.05,-0.267 -0.075,-0.4 5.83,-1.2 0.075,0.342 0.057,0.315 -0.22,0.117 c -0.504,0.305 -0.647,0.714 -0.647,1.267 0,0.553 0.162,1.19 0.277,1.716 l 1.98,9.47 3.383,-0.518 a 7.41,7.41 0 0 0 4.315,-2.266 l 0.068,-0.076 0.114,-0.037 0.61,-0.116 -0.953,4.02 z m 35.934,-14.7 -0.076,0.095 c -0.98,1.086 -2.21,1.915 -3.516,2.562 -2.304,1.152 -4.495,1.743 -6.46,1.743 h -0.017 c -3.066,0 -5.6,-1.467 -6.99,-4.24 a 7.782,7.782 0 0 1 -0.838,-3.486 c 0.01,-3.342 2.276,-6.47 6.116,-8.38 1.532,-0.784 3.2,-1.336 4.81,-1.774 l 0.257,-0.076 1.325,2.61 0.247,0.514 -0.563,-0.027 h -0.247 c -1.58,0 -3.25,0.343 -4.743,1.095 -2.384,1.2 -3.65,3.147 -3.65,5.176 0,0.762 0.18,1.543 0.57,2.305 0.99,1.962 3,3.23 5.345,3.23 1.066,0 2.19,-0.268 3.323,-0.82 1.78,-0.896 3.324,-2.354 4.486,-3.85 l 0.047,-0.056 0.076,-0.038 0.582,-0.286 -0.085,3.707 z m 7.67,-4.268 -0.2,-0.268 -0.18,-0.268 0.15,-0.2 c 0.19,-0.257 0.258,-0.495 0.267,-0.733 0.02,-0.678 -0.637,-1.516 -1.094,-2.145 l -5.03,-7.02 c -0.562,-0.782 -1.248,-1.83 -2.048,-1.792 -0.135,0 -0.277,0.02 -0.42,0.067 l -0.248,0.096 -0.152,-0.22 -0.228,-0.33 4.84,-3.477 0.21,0.284 0.18,0.26 -0.153,0.2 c -0.19,0.266 -0.26,0.486 -0.26,0.733 -0.02,0.668 0.65,1.506 1.116,2.145 l 5.64,7.848 2.895,-1.838 c 1.516,-0.98 2.488,-2.296 3.02,-3.81 l 0.04,-0.096 0.076,-0.068 0.515,-0.37 0.754,4.067 z m 25.797,-21.607 -0.24,-0.248 -0.522,-0.525 c -0.24,1.705 -1.353,3.39 -2.563,4.62 -1.334,1.324 -3.096,2.4 -4.906,2.486 -0.077,0.01 -0.16,0.01 -0.24,0.01 -1.99,0 -3.105,-1.21 -4.21,-2.314 l -4.325,-4.335 c -0.6,-0.63 -1.38,-1.485 -2.104,-1.456 -0.18,0 -0.36,0.04 -0.57,0.152 l -0.22,0.124 -0.18,-0.19 -0.305,-0.277 4.21,-4.21 0.24,0.256 0.238,0.22 -0.124,0.217 c -0.116,0.21 -0.154,0.4 -0.154,0.57 -0.02,0.726 0.83,1.517 1.448,2.117 l 4.325,4.346 c 1.047,1.03 2.02,1.486 2.933,1.486 0.934,0 1.877,-0.466 2.848,-1.43 0.983,-0.97 1.64,-2.256 1.64,-3.447 0,-0.096 0,-0.18 -0.01,-0.268 -0.057,-0.8 -0.362,-1.07 -0.962,-1.67 l -4.888,-4.895 c -0.59,-0.61 -1.39,-1.466 -2.115,-1.44 -0.17,0 -0.363,0.04 -0.553,0.145 l -0.23,0.113 -0.18,-0.18 -0.293,-0.286 4.125,-4.117 0.22,0.087 0.4,0.162 -0.163,0.35 c -0.114,0.21 -0.152,0.4 -0.152,0.58 -0.03,0.736 0.82,1.508 1.448,2.127 l 6.106,6.115 c 0.6,0.628 1.38,1.476 2.104,1.457 0.18,0 0.38,-0.047 0.59,-0.162 l 0.23,-0.114 0.18,0.16 0.285,0.306 -3.363,3.355 z m 14.51,-19.3 c -0.524,2.134 -1.867,3.896 -3.067,5.573 l -2.85,4 -0.275,-0.2 -0.26,-0.18 0.077,-0.24 c 0.048,-0.15 0.067,-0.284 0.067,-0.4 0.027,-0.8 -1.02,-1.504 -1.81,-2.047 l -7.04,-5.02 c -0.64,-0.468 -1.46,-1.125 -2.126,-1.106 -0.248,0 -0.467,0.068 -0.725,0.268 l -0.21,0.153 -0.2,-0.14 -0.343,-0.258 4,-5.6 c 1.563,-2.19 3.24,-3.4 4.83,-3.41 0.6,0 1.19,0.19 1.706,0.552 0.885,0.64 1.247,1.583 1.237,2.564 a 5.1,5.1 0 0 1 -0.057,0.753 c 1.05,-0.83 2.22,-1.336 3.402,-1.346 0.734,0 1.486,0.23 2.163,0.705 1.154,0.84 1.678,2.266 1.678,3.742 a 6.81,6.81 0 0 1 -0.2,1.64 z m -4.096,-63.798 c -0.075,0 -0.676,0.056 -1.62,0.132 -2.942,21.31 -11.935,42.07 -27.177,59.416 -22.435,25.56 -53.872,38.65 -85.375,38.65 h -0.046 c -26.597,0.01 -53.385,-9.318 -74.934,-28.246 -1.65,-1.448 -3.21,-2.944 -4.764,-4.46 a 113.804,113.804 0 0 1 -15.947,-19.69 c -7.47,2.877 -15.616,6.078 -17.88,7.145 v -4.67 c 8.152,-3.523 20.364,-8.134 27.5,-10.716 v -4.676 c -0.048,-0.01 -0.705,-0.095 -1.563,-0.343 -1.793,-0.533 -4.47,-1.77 -4.47,-4.64 v -68.43 c 13.547,-0.704 52.34,-5.058 53.376,-33.6 0.02,-0.618 0.048,-1.237 0.04,-1.885 l -5.936,-1.943 c -0.218,10.545 -14.517,15.89 -35.97,15.918 -2.982,0 -7.755,0.02 -13.366,0.343 24.55,-50.08 84.433,-72.457 136.094,-49.966 21.186,9.222 37.772,24.597 48.622,43.117 -4.594,3.562 -7.09,9.497 -7.09,15.213 0,0.295 0.01,0.59 0.02,0.886 0.333,7.335 3.553,13.508 9.316,17.976 0.505,0.38 1.02,0.76 1.553,1.12 a 111.7,111.7 0 0 1 5.772,4.086 c 3.144,2.41 4.858,4.105 5.763,5.343 0.745,1.03 0.954,1.763 0.983,2.344 0.134,2.82 -1.247,4.296 -2.667,5.096 -0.858,0.488 -1.734,0.726 -2.277,0.86 a 18.85,18.85 0 0 0 -3.173,-7.03 c -2.704,-3.686 -7.086,-6.687 -13.688,-7.41 v 28.37 c 0.6,-0.06 1.22,-0.125 1.84,-0.2 a 202.76,202.76 0 0 0 2.256,-0.24 c 7.937,-0.837 16.52,-1.637 23.026,-2.142 9.203,-0.705 15.204,-10.06 15.204,-18.138 0,-4.526 -0.743,-8.327 -4.372,-12.776 6.973,6.44 7.907,11.117 7.907,16.957 0,8.08 -7.02,17.29 -16.957,18.236 z"
       id="path8"
       inkscape:connector-curvature="0"
       style="fill:#002b5c" />
    <path
       d="m 254.323,94.92 c -89.69,0 -162.405,72.742 -162.405,162.432 0,89.7 72.715,162.405 162.405,162.405 89.7,0 162.424,-72.705 162.424,-162.405 0,-89.69 -72.724,-162.433 -162.424,-162.433 m 111.61,274.03 c -28.58,28.55 -68.017,46.21 -111.61,46.21 -43.583,0 -83.03,-17.66 -111.6,-46.21 -28.56,-28.58 -46.213,-68.018 -46.213,-111.6 0,-43.593 17.652,-83.04 46.222,-111.61 28.56,-28.58 68.008,-46.223 111.59,-46.223 43.594,0 83.032,17.642 111.61,46.22 28.57,28.57 46.223,68.02 46.233,111.61 -0.01,43.584 -17.662,83.023 -46.232,111.6"
       id="path10"
       inkscape:connector-curvature="0"
       style="fill:#ffffff" />
    <path
       d="m 133.415,181.628 0.334,-0.18 c 0.32,-0.163 0.54,-0.23 0.71,-0.23 0.41,-0.01 0.723,0.362 1.133,0.81 l 7.706,8.145 c 0.972,1.076 1.696,1.83 1.696,3.172 v 0.372 l 0.294,0.22 0.45,0.35 3.84,-5.03 -0.515,-0.4 -0.315,-0.256 -0.343,0.23 c -0.305,0.19 -0.534,0.25 -0.705,0.26 -0.42,0.02 -1.02,-0.494 -1.84,-1.37 l -6.696,-7.04 11.392,2.076 c 0.723,0.133 1.324,0.23 1.943,0.23 0.78,0 1.575,-0.173 2.59,-0.564 l 0.61,-0.22 -7.122,-13.707 9.546,5.336 c 0.43,0.333 0.658,0.628 0.648,0.99 0,0.143 -0.027,0.296 -0.113,0.524 l -0.173,0.41 0.42,0.314 0.457,0.353 4.41,-5.803 -0.513,-0.4 -0.267,-0.19 -0.305,0.114 c -0.458,0.19 -0.79,0.268 -1.067,0.268 -0.456,0 -0.875,-0.19 -1.56,-0.572 l -11.585,-6.173 c -0.228,-0.17 -0.457,-0.523 -0.438,-0.75 0,-0.068 0.01,-0.154 0.048,-0.24 l 0.18,-0.41 -0.41,-0.323 -0.456,-0.365 -4.03,5.306 0.456,0.365 c 0.324,0.23 0.58,0.648 0.867,1.19 l 5.164,9.927 -11.737,-2.075 c -0.458,-0.077 -0.84,-0.134 -0.97,-0.258 l -0.03,-0.02 -0.458,-0.334 -4.061,5.32 0.516,0.41 0.294,0.218 m 27.78,-31.363 0.41,-0.17 a 0.956,0.956 0 0 1 0.466,-0.097 c 0.743,-0.057 1.582,1 2.24,1.858 l 6.315,7.678 c 0.62,0.724 1.42,1.667 1.39,2.353 0,0.21 -0.044,0.41 -0.21,0.656 l -0.234,0.352 0.314,0.4 0.37,0.428 5.555,-4.573 -0.41,-0.495 -0.267,-0.324 -0.39,0.155 a 1.21,1.21 0 0 1 -0.484,0.105 c -0.734,0.05 -1.6,-1 -2.23,-1.838 l -6.315,-7.68 c -0.62,-0.73 -1.43,-1.674 -1.41,-2.37 a 1.4,1.4 0 0 1 0.21,-0.667 l 0.24,-0.352 -0.318,-0.38 -0.362,-0.45 -5.56,4.575 0.43,0.513 0.255,0.326 m 17.822,-13.63 0.38,-0.03 c 0.03,-0.007 0.067,-0.007 0.124,-0.007 1.43,0.037 1.6,0.58 2.327,1.885 l 4.858,9.327 c 0.4,0.75 0.658,1.304 0.658,1.79 -0.01,0.36 -0.123,0.76 -0.552,1.353 l -0.22,0.285 0.2,0.39 0.27,0.514 6.02,-3.135 -0.305,-0.58 -0.162,-0.307 h -0.334 c -0.067,-0.01 -0.125,0 -0.163,0 -1.486,-0.05 -1.62,-0.58 -2.353,-1.896 l -4.057,-7.783 13.632,4.67 c 1.295,0.457 2.38,0.78 3.686,0.78 0.648,0 1.343,-0.085 2.134,-0.237 l 0.742,-0.162 -7.18,-13.784 c -0.4,-0.762 -0.67,-1.314 -0.66,-1.79 0.01,-0.363 0.116,-0.753 0.545,-1.315 l 0.21,-0.286 -0.2,-0.4 -0.258,-0.506 -5.994,3.113 0.295,0.58 0.18,0.335 0.38,-0.03 h 0.156 c 1.42,0.05 1.562,0.562 2.296,1.877 l 3.955,7.602 -14.613,-4.972 -0.61,-0.248 c -0.304,-0.095 -0.36,-0.104 -0.494,-0.21 l -0.22,-0.428 -5.143,2.686 0.306,0.582 0.172,0.333 m 35.188,-15.802 0.352,0.087 c 1.534,0.42 1.534,0.97 1.896,2.476 l 2.19,10.3 c 0.117,0.545 0.21,1.01 0.21,1.393 -0.016,0.59 -0.15,1 -0.96,1.657 l -0.276,0.22 0.086,0.43 0.132,0.56 6.62,-1.41 -0.143,-0.64 -0.068,-0.35 -0.354,-0.085 c -1.563,-0.438 -1.516,-0.99 -1.887,-2.496 l -1.82,-8.584 11.88,8.145 c 1.686,1.18 3.03,1.934 5.468,2.067 l 0.752,0.048 -3.24,-15.204 c -0.124,-0.58 -0.22,-1.037 -0.22,-1.42 0.01,-0.58 0.143,-0.97 0.924,-1.61 l 0.296,-0.217 -0.095,-0.44 -0.123,-0.55 -6.593,1.4 0.132,0.638 0.066,0.36 0.36,0.087 c 1.553,0.41 1.515,0.953 1.877,2.458 l 1.78,8.383 -12.755,-8.688 -0.504,-0.4 c -0.276,-0.18 -0.324,-0.2 -0.43,-0.334 l -0.085,-0.467 -5.675,1.2 0.124,0.635 0.076,0.353 m 53.502,7.81 -0.945,-0.046 -0.19,-0.01 -0.162,0.114 c -1.247,0.856 -2.924,1.323 -4.59,1.323 -0.324,0 -0.647,-0.02 -0.96,-0.048 l -3.498,-0.39 0.162,-5.146 1.78,0.06 c 1.01,-0.01 2.192,0.17 2.345,0.562 l 0.16,0.257 0.4,0.02 0.57,0.008 0.124,-3.924 -0.657,-0.027 h -0.125 l -0.105,0.027 c -0.143,0.07 -0.42,0.098 -0.724,0.098 -0.142,0 -0.303,-0.01 -0.465,-0.01 l -3.21,-0.103 0.122,-3.83 c 0.458,-0.037 0.935,-0.047 1.43,-0.047 0.41,0 0.83,0.01 1.248,0.03 1.457,0.036 2.553,0.2 3.325,1 l 0.163,0.17 h 0.333 l 0.572,0.02 0.133,-4.23 -0.666,-0.02 h -0.125 l -0.105,0.04 a 1.45,1.45 0 0 1 -0.523,0.074 c -0.22,0 -0.466,-0.02 -0.752,-0.03 l -10.755,-0.352 -0.02,0.648 -0.018,0.43 0.41,0.14 c 0.8,0.268 0.942,0.992 0.96,2.012 0,0.39 -0.027,0.76 -0.037,1.104 L 253,128.5 c -0.02,1.305 -0.02,2.83 -1.116,3.02 l -0.42,0.114 -0.018,0.505 -0.02,0.57 14.233,0.453 2.044,-4.525 m 11.223,5.9 c 1.675,1.01 3.57,1.732 5.495,2.21 1.124,0.284 2.21,0.41 3.24,0.41 3.524,0 6.4,-1.545 7.05,-4.05 a 3.18,3.18 0 0 0 0.113,-0.877 c -0.06,-2.495 -2.44,-4.143 -4.603,-5.686 -2.23,-1.486 -4.24,-3.01 -4.125,-4.01 0,-0.087 0.02,-0.182 0.038,-0.268 0.192,-0.8 0.973,-1.136 2.154,-1.155 0.56,0 1.18,0.096 1.723,0.23 1.61,0.4 3.277,1.43 4.106,2.6 l 0.733,1.01 0.304,-1.2 0.83,-3.324 -0.39,-0.21 a 19.38,19.38 0 0 0 -4.603,-1.76 15.382,15.382 0 0 0 -3.803,-0.507 c -2.58,-0.02 -5.105,0.866 -5.752,3.44 a 4.092,4.092 0 0 0 -0.143,1.055 c 0.048,2.676 2.43,4.343 4.573,5.84 2.21,1.456 4.155,2.885 4.06,4.076 a 1.8,1.8 0 0 1 -0.038,0.373 c -0.152,0.827 -1.41,1.33 -2.848,1.322 a 6.412,6.412 0 0 1 -1.543,-0.18 c -2.295,-0.563 -4.534,-1.973 -5.934,-3.63 l -1.058,-1.24 0.15,5.364 0.268,0.16 m 35.98,13.893 c 2.258,1.208 4.668,1.828 6.955,1.828 h 0.01 c 3.573,0 6.87,-1.533 8.545,-4.64 0.646,-1.18 0.95,-2.495 0.95,-3.84 0,-3.79 -2.447,-7.8 -6.944,-10.22 -2.342,-1.333 -4.83,-1.962 -7.134,-1.962 -3.63,-0.01 -6.886,1.56 -8.46,4.476 a 8.315,8.315 0 0 0 -1.027,4 c 0.01,4.05 2.82,8.023 7.106,10.357 m -1.77,-12.29 c 1.122,-2.07 3.036,-3.192 5.37,-3.192 1.325,0 2.782,0.362 4.27,1.182 2.81,1.523 4.02,3.962 4.03,6.353 a 6.974,6.974 0 0 1 -0.84,3.323 c -1.115,2.04 -3.01,3.154 -5.316,3.163 -1.276,0 -2.695,-0.36 -4.143,-1.14 -2.857,-1.555 -4.124,-4.156 -4.134,-6.604 0,-1.105 0.258,-2.172 0.763,-3.086 m 30.026,31.6 0.248,-0.267 -0.143,-0.334 c -0.17,-0.44 -0.238,-0.77 -0.238,-1.04 0,-0.648 0.41,-1.134 1.16,-1.953 l 7.716,-8.47 1.688,1.554 c 0.657,0.565 1.23,1.308 1.2,1.775 0,0.087 -0.02,0.17 -0.047,0.248 l -0.114,0.354 0.353,0.314 0.304,0.278 3.916,-2.22 -0.65,-0.6 -0.085,-0.077 -0.093,-0.04 c -0.287,-0.113 -0.65,-0.39 -1.03,-0.742 l -9.374,-8.535 c -0.256,-0.305 -0.523,-0.56 -0.656,-0.81 l -0.05,-0.076 -0.133,-0.134 -0.294,-0.276 -4.01,2.153 0.665,0.6 0.142,0.134 0.2,0.02 c 1.038,0.076 2.21,0.75 3.172,1.63 l 1.64,1.494 -7.53,8.28 c -0.676,0.77 -1.562,1.753 -2.286,1.715 a 1.528,1.528 0 0 1 -0.524,-0.124 l -0.372,-0.18 -0.343,0.36 -0.39,0.43 5.516,5.03 0.44,-0.487 m 11.538,9.21 a 3.7,3.7 0 0 1 -2.096,-0.61 l -0.323,-0.21 -0.4,0.277 -0.44,0.335 4.01,5.727 0.543,-0.38 0.354,-0.25 -0.133,-0.4 a 1.62,1.62 0 0 1 -0.123,-0.608 c -0.047,-0.325 0.17,-0.45 1.534,-0.725 l 3.63,-0.707 4.192,5.953 -1.868,3.23 c -0.333,0.57 -0.57,0.99 -0.743,1.218 -0.142,0.2 -0.17,0.183 -0.17,0.193 -0.01,0.02 -0.286,-0.075 -0.734,-0.4 l -0.342,-0.23 -0.39,0.278 -0.46,0.333 4.41,6.28 0.535,-0.37 0.314,-0.23 -0.077,-0.36 a 3.176,3.176 0 0 1 -0.115,-0.86 c 0,-1.22 0.628,-2.22 1.324,-3.448 l 7.42,-13.518 -3.43,-4.887 -0.544,0.39 -0.332,0.257 0.142,0.41 a 1.2,1.2 0 0 1 0.105,0.447 c -0.02,0.19 -0.02,0.18 -0.285,0.324 -0.247,0.114 -0.676,0.19 -1.104,0.257 l -12.07,1.983 c -0.837,0.142 -1.62,0.304 -2.333,0.304 m 15.033,0.896 -2.59,4.534 -2.553,-3.647 5.144,-0.885 M 149.68,342.403 c 0.59,0.277 1.18,0.458 1.78,0.458 0.62,0 1.2,-0.18 1.735,-0.59 0.78,-0.59 1.19,-1.482 1.18,-2.482 0,-1.344 -0.656,-2.906 -1.952,-4.61 l -4.17,-5.488 -0.316,0.256 -0.21,0.143 0.086,0.236 c 0.054,0.162 0.073,0.324 0.073,0.457 0.047,0.782 -0.982,1.478 -1.725,2.03 l -6.887,5.23 c -0.636,0.505 -1.465,1.19 -2.16,1.172 -0.218,0 -0.437,-0.048 -0.675,-0.23 l -0.21,-0.132 -0.266,0.18 -0.27,0.22 2.973,3.887 c 1.24,1.638 2.534,3.477 4.41,4.58 0.982,0.59 2.097,0.954 3.164,0.954 0.876,0 1.724,-0.23 2.41,-0.762 1.048,-0.8 1.514,-1.95 1.505,-3.17 0,-0.763 -0.17,-1.563 -0.475,-2.335 m -3.46,2.65 c -0.437,0.323 -0.875,0.456 -1.332,0.456 -1.115,0.03 -2.382,-0.953 -3.21,-2.26 l -0.286,0.193 0.28,-0.19 -1.143,-1.754 3.992,-3.06 1.037,1.25 c 0.898,1.066 1.526,2.42 1.517,3.515 0,0.752 -0.248,1.37 -0.858,1.848 m 0.4,-7.47 -0.354,-0.447 3.07,-2.334 1.027,1.155 c 0.58,0.636 0.952,1.484 0.952,2.24 0,0.54 -0.19,1 -0.648,1.35 a 1.34,1.34 0 0 1 -0.857,0.284 c -1.03,0.04 -2.39,-1.18 -3.19,-2.247 m 18.165,12.315 -0.18,0.2 0.142,0.23 c 0.153,0.228 0.19,0.4 0.19,0.504 0.067,0.286 -0.476,0.58 -1.18,0.83 l -9.88,3.857 c -0.952,0.4 -1.81,0.793 -2.714,0.793 -0.372,0 -0.772,-0.076 -1.21,-0.238 l -0.21,-0.068 -0.22,0.22 -0.237,0.238 4.24,3.935 0.276,-0.297 0.174,-0.18 -0.123,-0.23 c -0.19,-0.323 -0.25,-0.542 -0.25,-0.676 -0.025,-0.276 0.337,-0.562 1.28,-0.943 l 3.067,-1.296 4.764,4.42 -1.03,3.17 c -0.4,1.287 -0.543,1.535 -0.705,1.487 -0.104,0.01 -0.36,-0.057 -0.733,-0.21 l -0.227,-0.104 -0.44,0.486 4.67,4.313 0.266,-0.295 0.16,-0.173 -0.095,-0.21 a 3.32,3.32 0 0 1 -0.315,-1.447 c 0,-0.82 0.277,-1.63 0.572,-2.535 l 3.84,-12.727 -3.602,-3.355 -0.284,0.298 z m -1.267,8.793 -3.19,-2.962 4.743,-1.894 -1.55,4.856 z m 21.35,6.27 c -1.697,-1.116 -3.64,-1.945 -5.365,-1.954 -1.228,0 -2.372,0.457 -3.096,1.56 -0.42,0.63 -0.6,1.288 -0.6,1.936 0.076,3.41 4.582,6.783 4.487,8.974 0,0.294 -0.067,0.57 -0.25,0.828 -0.274,0.428 -0.75,0.62 -1.39,0.62 -0.903,0 -2.03,-0.42 -2.742,-0.897 -1.734,-1.14 -3.182,-2.96 -3.877,-4.75 l -0.333,-0.906 -1.273,3.934 0.124,0.143 c 1.076,1.304 2.4,2.42 3.83,3.37 1.83,1.2 3.724,1.764 5.372,1.764 1.68,0 3.126,-0.59 3.897,-1.753 a 3.095,3.095 0 0 0 0.486,-1.646 c -0.066,-3.258 -4.677,-6.974 -4.572,-9.05 0,-0.238 0.05,-0.458 0.19,-0.658 0.29,-0.438 0.67,-0.58 1.184,-0.59 0.753,-0.01 1.725,0.41 2.45,0.905 1.247,0.81 2.342,2.155 2.704,3.41 l 0.2,0.717 0.41,-0.63 1.58,-2.38 -0.18,-0.2 a 17.05,17.05 0 0 0 -3.23,-2.744 m 19.622,10.85 h -0.076 c -0.248,0.01 -0.63,-0.2 -1.077,-0.41 l -8.316,-3.867 -0.18,0.37 -0.114,0.23 0.19,0.18 c 0.325,0.277 0.41,0.592 0.42,0.935 0.01,0.63 -0.41,1.42 -0.705,2.058 l -3.645,7.83 c -0.41,0.935 -0.934,2.192 -1.877,2.144 a 1.42,1.42 0 0 1 -0.2,-0.015 l -0.257,-0.038 -0.134,0.295 -0.162,0.315 10.965,5.096 2.944,-2.704 -0.543,-0.24 -0.106,-0.056 -0.105,0.02 c -0.39,0.076 -0.8,0.114 -1.21,0.114 a 7.832,7.832 0 0 1 -3.765,-1 l -2.78,-1.572 2.01,-4.324 1.542,0.714 c 0.79,0.343 1.734,0.858 1.762,1.353 l 0.02,0.19 0.246,0.105 0.315,0.15 1.315,-2.82 -0.38,-0.19 -0.068,-0.027 h -0.076 c -0.237,0 -0.62,-0.17 -1.02,-0.362 l -2.675,-1.23 1.534,-3.294 c 0.75,0.24 1.523,0.58 2.295,0.944 1.143,0.533 2.03,1.047 2.39,2.02 l 0.04,0.113 0.2,0.104 0.323,0.143 1.427,-3.057 -0.39,-0.163 -0.077,-0.047 m 14.322,5.172 -6.64,-1.915 -0.097,0.4 -0.076,0.248 0.2,0.133 c 0.457,0.307 0.562,0.66 0.57,1.136 0,0.58 -0.227,1.277 -0.408,1.84 l -2.4,8.315 c -0.29,1.085 -0.61,2.476 -1.727,2.46 h -0.248 l -0.087,0.302 -0.103,0.333 4.726,1.362 c 1.725,0.495 3.554,1.085 5.41,1.085 0.297,0 0.573,-0.01 0.85,-0.038 2.08,-0.21 4.05,-1.295 4.603,-3.19 a 4.02,4.02 0 0 0 0.143,-1.05 c -0.01,-1.637 -1.077,-3.02 -2.61,-3.99 1.285,-0.248 2.362,-0.877 2.743,-2.21 0.074,-0.277 0.122,-0.553 0.122,-0.82 -0.02,-1.943 -1.886,-3.506 -4.973,-4.4 m 0.893,11.63 c -0.342,1.19 -1.314,1.658 -2.6,1.677 a 5.95,5.95 0 0 1 -2.115,-0.42 l -1.965,-0.723 1.39,-4.82 1.563,0.362 c 2.038,0.485 3.867,1.81 3.83,3.295 0,0.2 -0.04,0.42 -0.106,0.63 m 0.305,-7.08 c -0.26,0.847 -1.107,1.17 -2.23,1.19 -0.734,0 -1.535,-0.15 -2.21,-0.35 l -0.534,-0.164 1.068,-3.676 1.495,0.304 c 1.333,0.258 2.486,1.23 2.466,2.25 0,0.133 -0.02,0.295 -0.057,0.45 m 26.906,12.467 -4.517,-12.51 -4.896,-0.533 -0.047,0.42 -0.03,0.257 0.26,0.095 c 0.495,0.207 0.514,0.34 0.533,0.522 0.01,0.238 -0.257,0.714 -0.524,1.143 l -5.61,9.013 c -0.77,1.277 -1.307,2.354 -2.83,2.8 l -0.23,0.068 -0.028,0.306 -0.03,0.342 5.736,0.62 0.045,-0.41 0.02,-0.258 -0.23,-0.106 c -0.6,-0.276 -0.676,-0.447 -0.686,-0.647 -0.01,-0.23 0.2,-0.677 0.553,-1.267 l 1.667,-2.878 6.48,0.694 1.068,3.163 c 0.247,0.74 0.42,1.23 0.41,1.43 0,0.15 0,0.216 -0.81,0.435 l -0.23,0.058 -0.037,0.315 -0.04,0.333 6.32,0.687 0.037,-0.41 0.038,-0.228 -0.2,-0.116 c -1.363,-0.753 -1.686,-1.944 -2.19,-3.344 m -9.566,-5.28 2.686,-4.362 1.657,4.83 -4.342,-0.467 m 31.96,4.75 -0.085,0.056 c -1.276,1 -2.772,1.59 -4.582,1.61 l -3.44,0.01 -0.56,-9.65 c -0.03,-0.362 -0.067,-0.772 -0.067,-1.182 0.01,-0.81 0.153,-1.448 0.867,-1.705 l 0.237,-0.096 -0.02,-0.315 -0.02,-0.353 -5.955,0.352 0.03,0.41 0.008,0.247 0.25,0.076 c 1.115,0.226 1.124,1.645 1.172,2.77 l 0.505,8.62 c 0.02,0.353 0.056,0.743 0.056,1.134 -0.02,0.83 -0.162,1.477 -0.886,1.743 l -0.25,0.085 0.02,0.334 0.02,0.32 11.898,-0.686 1.534,-3.84 -0.63,0.04 -0.105,0.01 m 20.444,-3.685 -0.076,0.084 c -1.105,1.172 -2.524,1.982 -4.306,2.267 l -3.4,0.508 -1.97,-9.46 c -0.117,-0.534 -0.288,-1.163 -0.288,-1.725 0.01,-0.544 0.145,-0.963 0.66,-1.258 l 0.22,-0.114 -0.06,-0.313 -0.075,-0.343 -5.83,1.21 0.076,0.39 0.05,0.268 0.257,0.03 c 1.132,0.056 1.342,1.447 1.56,2.57 l 1.763,8.45 c 0.103,0.515 0.265,1.135 0.265,1.687 -0.01,0.57 -0.143,0.99 -0.667,1.285 l -0.23,0.115 0.068,0.304 0.067,0.342 11.67,-2.42 0.962,-4.02 -0.61,0.115 -0.105,0.03 m 35.124,-14.206 -0.048,0.057 c -1.152,1.496 -2.705,2.954 -4.487,3.85 -1.144,0.56 -2.268,0.82 -3.335,0.82 -2.334,0 -4.353,-1.268 -5.344,-3.22 a 5.094,5.094 0 0 1 -0.57,-2.316 c 0,-2.02 1.277,-3.973 3.66,-5.173 1.494,-0.75 3.16,-1.085 4.76,-1.085 h 0.23 l 0.57,0.02 -0.265,-0.514 -1.305,-2.61 -0.276,0.08 c -1.61,0.438 -3.277,0.99 -4.8,1.76 -3.84,1.925 -6.117,5.05 -6.117,8.394 0,1.16 0.276,2.333 0.847,3.485 1.39,2.77 3.906,4.24 6.974,4.24 h 0.02 c 1.96,0 4.152,-0.59 6.458,-1.736 1.305,-0.657 2.543,-1.486 3.515,-2.563 l 0.09,-0.102 0.076,-3.716 -0.58,0.297 -0.068,0.037 m 16.66,-11.52 -0.076,0.067 -0.037,0.095 c -0.533,1.512 -1.505,2.83 -3.03,3.81 l -2.886,1.836 -5.65,-7.85 c -0.457,-0.638 -1.124,-1.476 -1.105,-2.143 0,-0.248 0.067,-0.468 0.257,-0.734 l 0.15,-0.2 -0.18,-0.257 -0.21,-0.285 -4.85,3.475 0.25,0.333 0.13,0.218 0.26,-0.094 a 1.28,1.28 0 0 1 0.42,-0.066 c 0.8,-0.038 1.485,1.01 2.047,1.79 l 5.02,7.022 c 0.466,0.638 1.123,1.467 1.104,2.144 -0.01,0.237 -0.085,0.475 -0.266,0.732 l -0.153,0.2 0.18,0.267 0.2,0.264 9.69,-6.936 -0.744,-4.07 -0.524,0.37 m 20.273,-14.79 -0.23,0.116 c -0.22,0.115 -0.41,0.153 -0.59,0.153 -0.736,0.027 -1.517,-0.82 -2.108,-1.44 l -6.105,-6.116 c -0.64,-0.62 -1.487,-1.4 -1.458,-2.133 0,-0.18 0.036,-0.37 0.16,-0.59 l 0.18,-0.34 -0.418,-0.163 -0.22,-0.086 -4.124,4.118 0.294,0.285 0.172,0.183 0.238,-0.115 c 0.2,-0.113 0.37,-0.142 0.552,-0.142 0.724,-0.028 1.525,0.82 2.115,1.44 l 4.887,4.895 c 0.6,0.6 0.894,0.868 0.95,1.668 0,0.085 0.01,0.18 0.01,0.266 0,1.19 -0.657,2.478 -1.63,3.45 -0.98,0.962 -1.913,1.43 -2.847,1.43 -0.923,0 -1.895,-0.46 -2.933,-1.488 l -4.326,-4.344 c -0.62,-0.6 -1.466,-1.39 -1.447,-2.114 0,-0.17 0.038,-0.364 0.152,-0.564 l 0.114,-0.228 -0.23,-0.23 -0.24,-0.248 -4.2,4.2 0.286,0.286 0.18,0.18 0.22,-0.113 c 0.21,-0.113 0.39,-0.15 0.57,-0.15 0.735,-0.028 1.516,0.83 2.116,1.46 l 4.326,4.334 c 1.097,1.105 2.22,2.315 4.21,2.315 0.068,0 0.164,0 0.24,-0.01 1.8,-0.086 3.57,-1.17 4.906,-2.486 1.21,-1.23 2.315,-2.915 2.562,-4.62 l 0.515,0.533 0.24,0.238 3.37,-3.352 -0.283,-0.305 -0.18,-0.162 m 10.137,-20.865 a 3.668,3.668 0 0 0 -2.172,-0.704 c -1.17,0.01 -2.352,0.524 -3.4,1.353 a 5.43,5.43 0 0 0 0.057,-0.763 c 0.006,-0.99 -0.346,-1.933 -1.23,-2.562 a 2.91,2.91 0 0 0 -1.707,-0.552 c -1.6,0.01 -3.276,1.22 -4.84,3.41 l -3.99,5.614 0.333,0.238 0.21,0.144 0.2,-0.153 c 0.257,-0.19 0.486,-0.266 0.733,-0.266 0.675,-0.02 1.484,0.65 2.113,1.116 l 7.05,5.02 c 0.78,0.542 1.85,1.24 1.81,2.04 0,0.122 -0.02,0.255 -0.076,0.4 l -0.076,0.236 0.27,0.19 0.274,0.2 2.85,-3.99 c 1.2,-1.687 2.554,-3.46 3.068,-5.574 0.133,-0.552 0.2,-1.105 0.2,-1.657 0,-1.477 -0.514,-2.906 -1.676,-3.735 m -9.27,5.01 -0.322,0.46 -3.124,-2.22 0.78,-1.335 c 0.563,-0.953 1.554,-1.657 2.392,-1.657 h 0.028 c 0.324,0 0.628,0.084 0.924,0.294 0.438,0.324 0.61,0.743 0.61,1.286 0.01,0.98 -0.63,2.266 -1.287,3.17 m 6.88,3.04 -1.343,1.6 -4.077,-2.905 0.868,-1.353 c 0.934,-1.467 2.4,-2.63 3.66,-2.63 h 0.02 a 2.1,2.1 0 0 1 1.246,0.41 c 0.677,0.486 0.935,1.106 0.944,1.83 0.01,0.962 -0.515,2.105 -1.316,3.048 m -114.36,-195.54 c -31.532,-0.01 -62.978,13.09 -85.413,38.648 a 113.454,113.454 0 0 0 -18.832,29.64 c 0.19,-0.02 0.38,-0.05 0.562,-0.076 a 168.16,168.16 0 0 1 4.525,-0.466 109.083,109.083 0 0 1 17.055,-26.188 108.672,108.672 0 0 1 22.548,-19.53 c 18.025,-11.775 38.888,-17.757 59.808,-17.757 25.618,0 51.368,8.964 72.144,27.197 a 109.73,109.73 0 0 1 22.186,26.867 c 1.247,-0.496 2.6,-0.848 4.057,-1.01 h 0.02 c -6.07,-10.67 -13.985,-20.52 -23.71,-29.065 -21.56,-18.938 -48.348,-28.265 -74.945,-28.255 m 108.874,81.352 c 0.01,0.01 0.01,0.01 0.01,0.02 -0.2,-0.68 -0.39,-1.365 -0.6,-2.05 v 0.01 c 0.21,0.685 0.39,1.36 0.59,2.02"
       id="path12"
       inkscape:connector-curvature="0"
       style="fill:#ffffff" />
    <path
       d="m 167.157,237.204 v 5.01 c 6.183,-2.01 19.29,-6.096 24.788,-7.79 v 4.362 c 0.867,-0.248 1.667,-0.486 2.4,-0.715 v -4.33 c 5.564,-1.62 20.14,-5.696 25.817,-7.24 v 4.39 c 0.867,-0.245 1.667,-0.455 2.4,-0.655 v -4.362 c 6.107,-1.58 19.615,-4.896 25.74,-6.353 v 4.39 c 0.858,-0.21 1.65,-0.39 2.4,-0.562 v -4.373 l 3.03,-0.685 a 800.455,800.455 0 0 1 18.33,-3.935 l 4.667,-0.952 v 4.41 l 2.39,-0.476 v -4.41 c 6.2,-1.172 15.962,-2.953 21.973,-3.944 l 11.25,-1.79 c 6.384,-0.963 11.328,1.16 14.67,3.895 a 15.23,15.23 0 0 1 2.612,2.782 c 0.532,0.342 1.027,0.704 1.485,1.075 5.193,4.307 6.26,10.814 6.24,15.51 v 33.037 c -0.01,0.734 -0.02,1.477 0.18,2.24 l 0.63,0.304 v 1.03 c 0.448,0.657 1.16,1.295 2.258,1.953 v -25.09 c 6.6,0.73 10.983,3.722 13.69,7.41 0.484,0.332 0.922,0.713 1.37,1.094 a 18.035,18.035 0 0 1 4.07,5.077 c 1.417,-0.8 2.81,-2.275 2.675,-5.095 -0.03,-0.572 -0.238,-1.315 -0.982,-2.344 -0.903,-1.237 -2.62,-2.942 -5.76,-5.352 a 110.547,110.547 0 0 0 -5.773,-4.077 32.525,32.525 0 0 1 -1.553,-1.123 c -5.763,-4.48 -8.993,-10.643 -9.316,-17.987 -0.01,-0.286 -0.02,-0.572 -0.02,-0.877 0,-5.716 2.495,-11.65 7.08,-15.223 -10.84,-18.51 -27.42,-33.895 -48.615,-43.107 -51.66,-22.49 -111.544,-0.114 -136.093,49.966 5.61,-0.325 10.383,-0.344 13.364,-0.344 21.453,-0.03 35.752,-5.374 35.97,-15.92 l 5.936,1.944 c 0.01,0.648 -0.02,1.267 -0.04,1.886 l 3.164,1.05 c -0.43,29.676 -38.6,35.658 -52.433,36.296 m 155.33,-57.682 a 0.305,0.305 0 0 1 0.41,0.02 c 0.933,0.82 1.85,1.648 2.734,2.495 l 0.095,0.16 c 0.086,0.304 0.143,0.61 0.2,0.933 0.37,0.057 0.743,0.114 1.134,0.17 l 0.16,0.068 c 2.47,2.1 6.24,5.757 6.26,10.425 0,0.734 -0.095,1.506 -0.314,2.297 a 0.326,0.326 0 0 1 -0.323,0.238 h -0.05 c -0.97,-0.125 -1.97,-0.277 -2.952,-0.4 a 0.34,0.34 0 0 1 -0.247,-0.135 0.42,0.42 0 0 1 -0.048,-0.285 7.557,7.557 0 0 0 0.25,-1.972 c 0,-2.21 -0.896,-5.545 -5.154,-9.355 -0.486,-0.11 -0.99,-0.245 -1.572,-0.39 -0.086,-0.026 -0.17,-0.074 -0.2,-0.16 a 0.313,0.313 0 0 1 -0.038,-0.257 3.47,3.47 0 0 0 0.124,-0.96 c 0,-0.61 -0.133,-1.44 -0.58,-2.477 a 0.34,0.34 0 0 1 0.114,-0.41 m -8.44,-4.505 a 0.42,0.42 0 0 1 0.123,-0.26 c 0.095,-0.066 0.19,-0.095 0.295,-0.066 0.924,0.22 1.18,0.162 2.162,0.41 0.115,0.037 0.21,0.133 0.238,0.266 0.324,1.647 0.715,4.2 0.715,6.686 v 0.362 c 0,0.048 -0.048,0.067 -0.048,0.105 0.95,0.25 1.856,0.478 1.856,0.478 l 0.162,0.104 c 0.027,0.03 3.23,3.01 3.23,8.374 0,1.02 -0.116,2.143 -0.4,3.334 a 0.357,0.357 0 0 1 -0.354,0.286 h -0.06 l -3.86,-0.58 a 0.306,0.306 0 0 1 -0.246,-0.173 0.335,0.335 0 0 1 -0.048,-0.285 c 0.286,-1.096 0.638,-2.515 0.638,-4.116 -0.01,-2.257 -0.676,-4.84 -3.248,-7.345 -0.01,0 -0.01,0 -0.02,-0.01 -0.01,-0.03 -0.123,0 -0.17,-0.296 0,-0.01 0.01,-0.01 0.01,-0.02 -0.43,-0.103 -0.868,-0.18 -1.41,-0.322 a 0.353,0.353 0 0 1 -0.258,-0.38 c 0.238,-1.295 0.57,-3.47 0.686,-6.553 m -9.155,-2.45 a 0.4,0.4 0 0 1 0.13,-0.256 c 0.077,-0.047 0.18,-0.075 0.287,-0.047 0.905,0.19 1.43,0.143 2.42,0.39 0.123,0.03 0.22,0.144 0.247,0.258 0.056,0.29 0.066,0.565 0.066,0.88 0,1.79 -0.742,4.067 -0.77,6.21 0,0 -0.02,0.01 -0.03,0.03 0.79,0.104 1.19,0.14 2.64,0.314 0.114,0.01 0.238,0.085 0.285,0.22 0.02,0.018 1.983,4.524 1.983,9.468 0,1.106 -0.104,2.26 -0.37,3.383 a 0.34,0.34 0 0 1 -0.343,0.286 c -0.01,0 -0.046,0 -0.056,-0.01 l -3.23,-0.467 a 0.365,0.365 0 0 1 -0.313,-0.332 c -0.22,-2.44 0.477,-7.115 -2.124,-12.48 -0.057,-0.103 -0.038,-0.246 0.038,-0.36 -0.847,-0.17 -1.6,-0.285 -2.62,-0.543 a 0.334,0.334 0 0 1 -0.246,-0.39 c 0.284,-1.458 1.893,-3.544 2.01,-6.545 m -4.9,5.973 c 0.734,2.183 1.4,5.346 1.4,8.642 0,1.248 -0.085,2.505 -0.304,3.734 -0.047,0.19 -0.19,0.314 -0.36,0.314 -0.02,0 -0.04,-0.01 -0.068,-0.01 -1.287,-0.2 -2.373,-0.4 -3.62,-0.57 a 0.366,0.366 0 0 1 -0.315,-0.39 c 0,0 0.058,-0.906 0.058,-2.326 0,-2.44 -0.18,-6.43 -1.124,-9.728 a 0.406,0.406 0 0 1 0.078,-0.342 0.398,0.398 0 0 1 0.324,-0.123 c 1.487,0.192 2.173,0.363 3.64,0.544 0.143,0.03 0.257,0.125 0.295,0.26 m -8.602,-1.696 c 0.943,-1.667 2.124,-4.85 3.887,-6.554 l 0.305,-0.083 2.648,0.42 c 0.105,0.018 0.19,0.066 0.238,0.17 a 0.31,0.31 0 0 1 0.058,0.286 c -0.846,2.782 -1.13,3.23 -2.703,6.62 a 0.364,0.364 0 0 1 -0.335,0.22 c -0.01,0 -0.02,0 -0.04,-0.01 -1.494,-0.19 -2.285,-0.352 -3.77,-0.514 a 0.32,0.32 0 0 1 -0.287,-0.2 c -0.068,-0.107 -0.068,-0.23 0,-0.354 m -6.66,-8.64 0.24,-0.067 c 1.065,0.12 2.094,0.263 3.16,0.4 a 0.37,0.37 0 0 1 0.287,0.254 0.346,0.346 0 0 1 -0.124,0.344 c -1.515,1.16 -2.772,2.36 -4.25,5.97 -0.018,0.04 -0.056,0.057 -0.065,0.076 1.02,0.17 2,0.4 3.03,0.553 0.132,0.01 0.247,0.104 0.285,0.24 0.675,2.37 1.752,6.38 1.752,10.2 a 16.4,16.4 0 0 1 -0.2,2.66 0.32,0.32 0 0 1 -0.134,0.217 0.335,0.335 0 0 1 -0.19,0.048 h -0.067 c -1.115,-0.18 -2.248,-0.38 -3.344,-0.552 a 0.325,0.325 0 0 1 -0.286,-0.295 c -0.17,-2.325 -0.675,-7.593 -1.96,-12.795 -0.02,-0.086 0,-0.17 0.047,-0.24 a 90.242,90.242 0 0 0 -3.124,-0.39 0.356,0.356 0 0 1 -0.257,-0.18 0.343,0.343 0 0 1 -0.01,-0.305 c 0.857,-1.744 2.457,-4.22 5.21,-6.145 m -11.165,-1.99 0.19,-0.04 c 0.83,0.05 1.68,0.106 2.5,0.163 0.15,0.01 0.265,0.114 0.313,0.267 a 0.308,0.308 0 0 1 -0.133,0.343 c -1.478,1.02 -3.555,2.943 -4.393,6.03 -0.01,0.02 -0.03,0.028 -0.03,0.048 1.003,0.106 1.936,0.297 2.946,0.39 0.172,0.01 0.286,0.145 0.305,0.307 l 1.087,11.833 a 0.34,0.34 0 0 1 -0.114,0.256 0.275,0.275 0 0 1 -0.23,0.105 h -0.037 a 60.786,60.786 0 0 0 -2.687,-0.35 c -0.123,-0.01 -0.228,-0.106 -0.276,-0.23 -0.858,-2.62 -1.668,-7.22 -2.04,-12.04 -0.01,-0.04 0.03,-0.067 0.04,-0.106 a 75.22,75.22 0 0 0 -2.86,-0.17 0.322,0.322 0 0 1 -0.256,-0.154 0.29,0.29 0 0 1 -0.06,-0.277 c 0.393,-1.544 1.67,-4.097 5.737,-6.374 m -11.735,-0.65 0.19,-0.037 c 0.84,0.038 1.688,0.115 2.507,0.172 a 0.34,0.34 0 0 1 0.305,0.237 0.35,0.35 0 0 1 -0.133,0.38 c -1.41,0.973 -3.344,2.783 -4.25,5.612 0.81,0.075 1.63,0.123 2.457,0.2 0.154,0.02 0.278,0.142 0.306,0.294 l 1.583,12.557 c 0.01,0.107 -0.04,0.2 -0.097,0.288 a 0.35,0.35 0 0 1 -0.24,0.087 h -0.05 c -0.883,-0.105 -1.77,-0.24 -2.674,-0.353 a 0.304,0.304 0 0 1 -0.278,-0.22 c -0.83,-2.543 -2.297,-7.544 -2.706,-12.278 -0.78,-0.05 -1.572,-0.088 -2.353,-0.136 a 0.375,0.375 0 0 1 -0.237,-0.133 0.367,0.367 0 0 1 -0.057,-0.294 c 0.38,-1.534 1.665,-4.087 5.723,-6.374 m 3.553,24.977 c 2.82,0 5.354,1.19 7.164,3.096 3.64,1.468 6.23,5.05 6.23,9.203 0,5.457 -4.44,9.87 -9.886,9.83 -2.772,-0.01 -5.28,-1.18 -7.08,-3.04 -3.675,-1.44 -6.305,-5.01 -6.305,-9.202 0,-5.45 4.43,-9.89 9.88,-9.89 m -15.15,-25.472 0.16,-0.037 2.22,0.03 c 0.145,0 0.27,0.075 0.326,0.22 0.047,0.132 0.01,0.265 -0.105,0.37 -1.4,1.277 -3.152,3.306 -3.97,5.945 0.694,0.01 1.38,0.01 2.094,0.03 0.18,0.01 0.334,0.152 0.334,0.333 0.047,2.304 0.324,7.04 1.657,11.83 0.03,0.115 0.01,0.21 -0.064,0.305 -0.06,0.087 -0.154,0.115 -0.27,0.115 h -0.02 c -0.826,-0.077 -1.693,-0.143 -2.55,-0.22 a 0.338,0.338 0 0 1 -0.276,-0.19 c -1.354,-2.906 -2.81,-7.078 -2.936,-11.727 h -1.6 a 0.31,0.31 0 0 1 -0.268,-0.132 c -0.066,-0.086 -0.095,-0.18 -0.047,-0.286 0.476,-1.725 1.772,-4.735 5.315,-6.583 m -11.803,0.41 0.162,-0.067 c 0.752,-0.075 1.514,-0.123 2.276,-0.18 a 0.33,0.33 0 0 1 0.333,0.21 c 0.066,0.123 0.03,0.276 -0.086,0.38 -1.353,1.17 -3.05,3.154 -3.468,5.81 0.59,-0.046 1.19,-0.103 1.79,-0.15 0.095,0 0.21,0.037 0.267,0.133 a 0.28,0.28 0 0 1 0.084,0.286 15.27,15.27 0 0 0 -0.37,3.44 c 0,1.743 0.246,4.077 1.01,7.116 0.026,0.104 0,0.2 -0.07,0.295 -0.066,0.067 -0.15,0.133 -0.256,0.133 h -0.01 c -0.848,-0.02 -1.99,-0.266 -2.78,-0.276 -0.125,0 -0.25,-0.182 -0.306,-0.287 -0.935,-1.952 -1.716,-4.39 -1.716,-7.41 0,-0.753 0.094,-1.534 0.266,-2.315 -0.496,0.038 -0.99,0.086 -1.486,0.133 h -0.038 a 0.295,0.295 0 0 1 -0.23,-0.094 0.292,0.292 0 0 1 -0.104,-0.257 c 0.114,-1.487 0.953,-4.193 4.725,-6.898 m -12.06,1.37 0.142,-0.076 c 1.01,-0.22 2.03,-0.438 3.058,-0.638 a 0.364,0.364 0 0 1 0.38,0.2 c 0.058,0.162 0.01,0.333 -0.114,0.41 -1.62,1.162 -3.086,3.2 -3.277,5.582 0.552,-0.096 1.104,-0.22 1.647,-0.296 0.135,-0.03 0.26,0.02 0.335,0.124 a 0.38,0.38 0 0 1 0.048,0.332 c -0.458,1.02 -0.972,2.62 -0.972,4.706 0,1.296 0.325,2.782 0.858,4.43 0.03,0.105 0.01,0.21 -0.057,0.305 a 0.323,0.323 0 0 1 -0.257,0.144 c -0.58,0.028 -1.61,-0.048 -2.2,0.01 h -0.02 a 0.388,0.388 0 0 1 -0.304,-0.172 c -0.878,-1.552 -1.888,-4.105 -1.897,-6.592 0,-0.57 0.084,-1.133 0.256,-1.676 -0.42,0.047 -0.81,0.124 -1.086,0.18 h -0.074 c -0.087,0 -0.182,-0.018 -0.24,-0.085 a 0.32,0.32 0 0 1 -0.095,-0.307 c 0.22,-1.323 1.05,-4.276 3.87,-6.582 m -55.52,37.23 c 0.067,0.125 0.058,0.26 -0.02,0.354 l -1.313,1.82 a 0.323,0.323 0 0 1 -0.276,0.143 0.254,0.254 0 0 1 -0.114,-0.027 c -0.096,-0.01 -0.972,-0.458 -0.953,-2 0,-0.658 0.122,-1.516 0.55,-2.687 l 2.03,-3.543 a 0.326,0.326 0 0 1 0.447,-0.124 c 0.153,0.067 0.23,0.257 0.153,0.43 0.01,0 -0.857,1.96 -0.857,3.83 0,0.66 0.106,1.296 0.354,1.81 m 5.742,-4.906 c 0.056,0.124 0.01,0.267 -0.087,0.372 -0.476,0.42 -0.943,0.895 -1.42,1.353 a 0.353,0.353 0 0 1 -0.247,0.095 h -0.02 a 0.272,0.272 0 0 1 -0.24,-0.143 c -0.637,-0.83 -1.23,-1.972 -1.23,-3.363 0,-0.06 0.116,-1.393 0.116,-1.393 0.067,-0.227 0.153,-0.485 0.305,-0.77 l 0.05,-0.067 c 0.2,-0.21 0.42,-0.42 0.64,-0.64 0.4,-1.247 1.23,-2.914 2.63,-5.334 0.15,-0.163 0.283,-0.315 0.41,-0.45 a 0.35,0.35 0 0 1 0.445,-0.08 c 0.144,0.107 0.2,0.288 0.115,0.45 -0.703,1.41 -1.57,2.944 -1.675,4.67 l -0.104,0.227 c -0.065,0.057 -0.132,0.143 -0.2,0.19 a 7.372,7.372 0 0 0 -0.2,1.716 c 0,0.905 0.268,1.98 0.716,3.162 m 6.754,-5.106 a 0.38,0.38 0 0 1 -0.106,0.416 c -0.514,0.467 -1.38,0.896 -1.915,1.39 a 0.32,0.32 0 0 1 -0.26,0.125 c -0.01,0 -0.02,-0.01 -0.026,-0.01 a 0.394,0.394 0 0 1 -0.276,-0.14 c -0.705,-0.953 -1.37,-1.98 -1.37,-3.535 0,-0.066 0,-0.17 0.008,-0.295 l 0.143,-1.247 a 4.43,4.43 0 0 1 0.333,-0.848 l 0.06,-0.076 c 0.257,-0.298 0.56,-0.575 0.838,-0.88 0.467,-1.324 1.372,-3.04 2.858,-5.62 0.162,-0.19 0.324,-0.352 0.457,-0.505 a 0.373,0.373 0 0 1 0.506,-0.076 c 0.143,0.115 0.21,0.315 0.124,0.487 -0.8,1.58 -1.742,3.134 -1.84,5.058 l -0.13,0.248 c -0.096,0.105 -0.21,0.22 -0.325,0.333 a 7.858,7.858 0 0 0 -0.2,1.782 c 0,1.01 0.61,2.075 1.123,3.39 m 6.61,-10.785 a 0.343,0.343 0 0 1 0.41,-0.01 c 0.124,0.077 0.19,0.22 0.17,0.372 -0.065,0.477 -0.113,1.03 -0.113,1.64 0,1.39 -0.067,2.695 0.857,4.314 a 0.3,0.3 0 0 1 0.02,0.287 0.357,0.357 0 0 1 -0.162,0.23 c -0.667,0.37 -1.325,0.79 -2.068,1.14 a 0.554,0.554 0 0 1 -0.2,0.048 c -0.095,0 -0.2,-0.01 -0.257,-0.086 -0.876,-1.22 -1.476,-2.296 -1.61,-4.077 -0.02,-0.258 -0.086,-0.524 -0.057,-0.79 -0.048,0.046 -0.305,0.208 -0.4,0.208 a 0.34,0.34 0 0 1 -0.2,-0.056 0.35,0.35 0 0 1 -0.143,-0.41 c 0.476,-1.685 1.686,-4.714 4.64,-8.162 l 0.047,-0.067 c 0.267,-0.2 0.514,-0.41 0.79,-0.61 a 0.39,0.39 0 0 1 0.486,0.058 0.374,0.374 0 0 1 0.03,0.477 c -1.316,1.63 -2.745,3.885 -3.21,6.18 0.342,-0.265 0.6,-0.427 0.97,-0.685 m 11.118,-9.545 c -1.456,1.46 -2.447,3.326 -2.923,5.374 0.59,-0.277 0.743,-0.306 1.21,-0.516 a 0.376,0.376 0 0 1 0.38,0.084 0.334,0.334 0 0 1 0.058,0.38 c -0.36,0.716 -0.57,1.82 -0.57,3.307 0,1.096 0.24,2.392 0.934,3.935 a 0.325,0.325 0 0 1 0,0.268 c -0.038,0.105 -0.124,0.152 -0.21,0.19 -0.79,0.248 -1.438,0.515 -2.2,0.782 -0.038,0 -0.086,0.01 -0.114,0.01 a 0.31,0.31 0 0 1 -0.266,-0.134 c -0.877,-1.122 -1.782,-2.85 -1.782,-5.066 0,-0.335 0.02,-0.66 0.068,-1 a 1.195,1.195 0 0 1 -0.19,0.075 0.316,0.316 0 0 1 -0.143,0.036 0.354,0.354 0 0 1 -0.21,-0.076 c -0.106,-0.085 -0.144,-0.22 -0.115,-0.36 0.37,-1.39 1.296,-4.136 3.783,-6.87 l 0.095,-0.095 c 0.61,-0.285 1.2,-0.58 1.81,-0.866 0.143,-0.088 0.324,-0.03 0.43,0.093 0.084,0.143 0.075,0.334 -0.04,0.448 m 8.527,-2.99 c -1.334,1.133 -1.99,3.2 -2.334,5.354 0.553,-0.125 1.087,-0.24 1.487,-0.354 a 0.36,0.36 0 0 1 0.35,0.095 c 0.087,0.087 0.116,0.2 0.068,0.335 -0.313,1.01 -0.866,2.485 -0.866,4.267 0,1.124 0.21,2.02 0.84,3.315 a 0.343,0.343 0 0 1 0,0.305 0.336,0.336 0 0 1 -0.248,0.17 c -0.753,0.125 -1.515,0.363 -2.25,0.515 h -0.065 a 0.32,0.32 0 0 1 -0.268,-0.133 c -0.876,-1.184 -1.905,-2.804 -1.905,-5.03 0,-0.63 0.132,-1.317 0.323,-2 -0.22,0.044 -0.41,0.1 -0.543,0.14 -0.03,0.02 -0.068,0.02 -0.097,0.02 a 0.272,0.272 0 0 1 -0.22,-0.087 c -0.084,-0.057 -0.132,-0.18 -0.123,-0.286 0.134,-1.298 0.677,-4.05 3.01,-6.337 l 0.125,-0.075 c 0.78,-0.276 1.58,-0.543 2.4,-0.79 0.152,-0.058 0.314,0.018 0.4,0.142 a 0.364,0.364 0 0 1 -0.086,0.43 m 6.972,3.103 a 99.36,99.36 0 0 0 1.648,-0.285 c 0.124,-0.01 0.23,0.027 0.305,0.103 a 0.31,0.31 0 0 1 0.04,0.325 10.76,10.76 0 0 0 -0.885,4.316 c 0,1.19 0.19,2.56 0.676,4.066 0.03,0.097 0.01,0.19 -0.046,0.268 -0.048,0.086 -0.134,0.124 -0.23,0.133 -0.532,0.03 -1.628,0.173 -2.17,0.22 h -0.03 c -0.104,0 -0.21,-0.047 -0.257,-0.142 -0.82,-1.44 -1.495,-3.992 -1.495,-6.26 a 4.8,4.8 0 0 1 0.38,-1.933 c -0.436,0.077 -0.855,0.134 -1.13,0.19 -0.03,0 -0.06,0.01 -0.078,0.01 -0.075,0 -0.16,-0.02 -0.21,-0.075 a 0.305,0.305 0 0 1 -0.094,-0.276 c 0.2,-1.22 0.962,-3.925 3.553,-6.05 l 0.135,-0.057 c 0.923,-0.2 1.847,-0.41 2.79,-0.59 0.162,-0.02 0.305,0.057 0.362,0.19 0.038,0.114 0.01,0.286 -0.114,0.362 -1.544,1.134 -3.097,3.134 -3.144,5.487"
       id="path14"
       inkscape:connector-curvature="0"
       style="fill:#ffffff" />
    <path
       d="m 173.178,314.558 c -0.4,0.143 -2.43,0.905 -5.278,1.99 10.813,16.348 26.293,29.876 45.612,38.278 53.138,23.14 114.993,-1.19 138.132,-54.357 a 104.823,104.823 0 0 0 7.47,-25.58 c -5.727,0.51 -12.186,1.1 -14.596,1.35 v -4.38 c -0.77,0.074 -1.514,0.16 -2.267,0.25 v 4.4 c -6.292,0.59 -18.343,2.264 -24.954,3.245 v -4.42 c -1.515,0.23 -2.905,0.438 -4.106,0.62 v -44.48 c 0,-2.77 -0.39,-5.02 -1.125,-6.725 -0.8,-0.237 -1.61,-0.332 -2.353,-0.36 0,6.155 -0.03,56.502 -0.03,56.502 l -20.05,3.382 v -4.354 l -3.136,0.545 v 4.373 l -6.878,1.38 c -5.258,0.887 -9.05,0.077 -12.66,-2.704 a 13.976,13.976 0 0 1 -2.41,-2.39 A 19.197,19.197 0 0 1 262.86,280 c -5.585,-4.26 -6.223,-11.605 -6.223,-16.768 v -32.16 c 0.03,-1.714 -0.086,-4.353 -4.24,-6.287 v 52.88 c 0,1.515 0.087,2.687 0.334,3.62 0.4,0.105 0.83,0.2 1.3,0.296 v 1.888 c 0.876,0.753 2.18,1.2 4.096,1.58 v 5.584 c -18.91,4.268 -39.41,9.688 -58.09,15.194 -5.698,1.687 -12.224,0.877 -16.853,-2.438 -0.74,-0.534 -1.41,-1.163 -2.037,-1.84 a 15.808,15.808 0 0 1 -2.058,-1.218 c -4.64,-3.306 -7.25,-9.47 -7.23,-16.824 l 0.01,-30.122 c 0,-1.6 -0.144,-3.466 -4.716,-5 v 56.49 c 0,0.64 0.143,1.18 0.36,1.67 0.86,0.247 1.526,0.323 1.58,0.332 v 1.487 c 1.727,1.21 3.976,1.506 4.09,1.515 v 4.688 z m 19.29,26.588 a 0.434,0.434 0 0 1 -0.19,-0.048 c -1.972,-1.22 -2.982,-2.42 -2.99,-2.43 l -0.115,-0.15 c 0,0 -1.03,-2.612 -0.915,-2.697 a 0.345,0.345 0 0 1 0.39,-0.01 l 2.687,1.806 0.143,0.2 c 0.01,0 0.6,2.134 1.22,2.753 a 0.336,0.336 0 0 1 0.028,0.447 0.33,0.33 0 0 1 -0.257,0.133 z m 8.06,5.84 0.01,0.01 z m 0.705,-0.305 a 0.363,0.363 0 0 1 -0.18,-0.052 c -0.21,-0.124 -4.288,-3.05 -4.288,-3.05 -0.42,-0.76 -0.867,-2.17 -0.98,-2.695 a 0.36,0.36 0 0 1 0.142,-0.352 0.333,0.333 0 0 1 0.362,-0.01 c 0.13,0.077 0.223,0.154 0.35,0.24 l 0.02,0.01 c 1.39,0.904 1.61,0.82 3.05,1.685 l 0.15,0.23 c 0.19,0.97 0.674,2.516 1.61,3.42 a 0.317,0.317 0 0 1 0.03,0.448 0.334,0.334 0 0 1 -0.27,0.134 z m 8.44,3.81 a 0.337,0.337 0 0 1 -0.18,-0.052 c -0.153,-0.086 -2.66,-1.048 -4.04,-2.772 l -0.028,-0.057 c -0.43,-0.763 -1.096,-2.4 -1.21,-2.983 v -0.01 c 0,-0.123 0.066,-0.238 0.18,-0.295 0.096,-0.066 0.23,-0.057 0.334,0.01 0.11,0.076 0.243,0.16 0.34,0.238 l 0.02,0.01 c 1.4,0.904 1.61,0.82 3.055,1.686 l 0.15,0.228 c 0.182,0.964 0.668,2.517 1.62,3.42 a 0.372,0.372 0 0 1 0.03,0.46 0.41,0.41 0 0 1 -0.277,0.123 z m 10.432,3.12 c -0.04,0 -0.067,-0.01 -0.105,-0.02 a 72.87,72.87 0 0 1 -3.62,-1.437 c -1.172,-0.972 -2.325,-2.363 -2.972,-4.182 a 0.335,0.335 0 0 1 0.104,-0.36 0.32,0.32 0 0 1 0.353,-0.058 79.2,79.2 0 0 0 3.144,1.324 0.32,0.32 0 0 1 0.2,0.247 c 0.17,0.8 0.814,2.2 3.1,3.877 0.143,0.104 0.172,0.285 0.095,0.438 -0.058,0.114 -0.172,0.17 -0.305,0.17 z m 10.078,1.17 h -0.066 c -0.467,-0.085 -1.153,-0.142 -1.81,-0.21 -0.01,0.04 -0.03,0.068 -0.03,0.116 0,0.057 0.344,0.324 0.363,0.37 a 0.363,0.363 0 0 1 -0.067,0.344 0.34,0.34 0 0 1 -0.257,0.114 c -0.028,0 -0.066,0 -0.095,-0.02 -0.52,-0.16 -1.39,-0.314 -1.94,-0.485 l -0.132,-0.07 c -0.543,-0.502 -0.886,-1.21 -0.895,-1.22 a 0.33,0.33 0 0 1 -0.01,-0.38 0.34,0.34 0 0 1 0.353,-0.15 l 0.047,0.02 c -1.097,-0.934 -2.307,-2.163 -3.27,-3.44 a 0.33,0.33 0 0 1 -0.02,-0.38 0.358,0.358 0 0 1 0.345,-0.163 c 1.086,0.2 2.153,0.362 3.21,0.496 l 0.238,0.144 c 0.696,1.057 2.125,2.924 4.22,4.296 0.124,0.075 0.19,0.247 0.124,0.41 a 0.33,0.33 0 0 1 -0.306,0.208 z m 13.318,0.354 c -0.19,0 -0.37,-0.01 -0.56,-0.01 -0.83,0 -1.683,-0.008 -2.52,-0.018 a 0.82,0.82 0 0 0 -0.106,0.42 c 0,0.17 0.82,0.485 0.99,0.733 a 0.33,0.33 0 0 1 0.01,0.37 0.345,0.345 0 0 1 -0.285,0.172 c -0.02,0 -0.04,-0.01 -0.048,-0.01 -0.533,-0.085 -1.962,-0.275 -2.514,-0.37 l -0.124,-0.06 c -1.296,-0.826 -2.05,-1.703 -2.06,-1.722 -0.093,-0.095 -0.112,-0.247 -0.064,-0.38 0.057,-0.125 0.19,-0.2 0.343,-0.182 l 1.047,0.067 a 18.79,18.79 0 0 1 -5.01,-3.658 0.323,0.323 0 0 1 -0.086,-0.362 0.352,0.352 0 0 1 0.324,-0.21 c 0.428,0.01 0.867,0.01 1.305,0.01 0.723,0 1.456,-0.01 2.21,-0.038 l 0.275,0.114 c 1.105,1.286 3.392,3.353 6.973,4.468 0.163,0.047 0.278,0.21 0.26,0.37 -0.04,0.173 -0.173,0.297 -0.354,0.297 z m 10.236,2.43 c -0.21,0 -2.23,-0.01 -3.057,-0.03 l -0.135,-0.027 c -1.352,-0.648 -2.79,-1.953 -2.99,-3.05 0,0 -0.01,-0.027 0.01,-0.123 0.047,-0.133 0.16,-0.238 0.314,-0.238 0.485,-0.028 0.97,-0.076 1.447,-0.114 -2.153,-0.695 -4.43,-2.01 -6.973,-4.134 a 0.326,0.326 0 0 1 -0.105,-0.362 0.342,0.342 0 0 1 0.275,-0.227 c 1.163,-0.154 2.335,-0.22 3.488,-0.45 l 0.296,0.086 c 1.304,1.24 3.714,3.44 7.21,4.516 0.153,0.05 0.267,0.19 0.24,0.354 a 0.327,0.327 0 0 1 -0.297,0.304 c -0.448,0.057 -1.4,0.21 -1.42,0.238 a 1.033,1.033 0 0 0 -0.16,0.533 c 0,0.458 0.35,1.115 2.028,2.096 a 0.35,0.35 0 0 1 0.153,0.382 0.355,0.355 0 0 1 -0.324,0.248 z m 10.7,-1.486 c -0.192,0 -0.61,0.114 -0.81,0.114 -0.81,0 -1.287,0.22 -2.126,0.2 l -0.143,-0.037 c -1.344,-0.648 -3.278,-1.84 -3.316,-3.372 0,0 -0.02,-0.02 0.01,-0.123 a 0.35,0.35 0 0 1 0.315,-0.248 c 0.62,-0.03 1.22,-0.096 1.83,-0.144 -2.24,-0.667 -5.05,-2.105 -7.755,-4.382 a 0.304,0.304 0 0 1 -0.125,-0.36 0.37,0.37 0 0 1 0.286,-0.24 c 1.134,-0.142 2.316,-0.437 3.478,-0.666 l 0.305,0.086 c 1.298,1.238 4.02,3.772 7.548,4.84 0.134,0.047 0.24,0.2 0.23,0.352 a 0.336,0.336 0 0 1 -0.296,0.314 l -1.305,0.14 c 0.02,0.095 -0.19,0.61 -0.19,0.81 0,0.457 0.57,1.114 2.247,2.086 a 0.338,0.338 0 0 1 -0.18,0.63 z m 12.345,-2.258 c -1.04,0.085 -2.315,0.38 -3.344,0.437 l -0.133,-0.01 c -1.743,-0.552 -4.086,-1.647 -4.982,-3.867 a 0.392,0.392 0 0 1 0.02,-0.297 0.306,0.306 0 0 1 0.248,-0.172 6.06,6.06 0 0 0 0.934,-0.19 c -1.943,-0.645 -4.553,-1.97 -7.8,-4.54 a 0.345,0.345 0 0 1 -0.135,-0.344 0.34,0.34 0 0 1 0.257,-0.248 c 0.905,-0.2 2.277,-0.743 3.25,-1.01 0.104,-0.038 0.237,0 0.323,0.086 1.495,1.582 4.572,4.25 8.935,5.117 a 0.34,0.34 0 0 1 0.277,0.323 0.356,0.356 0 0 1 -0.287,0.343 c -0.572,0.105 -1.372,0.362 -2.124,0.553 0.332,0.95 1.723,2.14 4.64,3.16 0.17,0.047 0.246,0.2 0.226,0.36 a 0.327,0.327 0 0 1 -0.302,0.297 z m 13.127,-3.583 c -0.934,0.286 -1.867,0.553 -2.8,0.8 h -0.153 c -2.324,-0.543 -6.125,-1.714 -6.753,-4.582 -0.05,-0.17 0.047,-0.333 0.22,-0.39 0.18,-0.058 0.37,-0.124 0.56,-0.19 -2.552,-0.563 -5.65,-1.66 -9.26,-4.412 a 0.342,0.342 0 0 1 -0.132,-0.305 0.384,0.384 0 0 1 0.19,-0.276 c 1.03,-0.475 2.458,-0.875 3.354,-1.36 a 0.33,0.33 0 0 1 0.37,0.037 c 1.908,1.532 4.92,3.56 10.87,4.333 a 0.34,0.34 0 0 1 0.098,0.65 c -0.63,0.275 -1.534,0.713 -2.39,1.094 0.132,0.99 1.018,2.686 5.82,3.944 a 0.35,0.35 0 0 1 0.247,0.325 0.362,0.362 0 0 1 -0.238,0.334 z m 12.27,-5.46 c -0.896,0.287 -2.468,1.135 -3.44,1.392 h -0.17 c -2.316,-0.564 -7.612,-1.936 -8.29,-4.83 a 0.352,0.352 0 0 1 0.24,-0.39 6.8,6.8 0 0 0 0.543,-0.21 c -2.327,-0.545 -4.88,-1.58 -8.44,-4.308 a 0.326,0.326 0 0 1 -0.136,-0.295 0.327,0.327 0 0 1 0.2,-0.267 152.23,152.23 0 0 0 3.44,-1.742 0.318,0.318 0 0 1 0.36,0.038 c 1.954,1.582 4.04,3.85 9.994,4.61 0.142,0.02 0.256,0.144 0.285,0.296 a 0.333,0.333 0 0 1 -0.2,0.354 c -0.477,0.21 -1.353,0.638 -2.02,0.933 0.38,1.056 3,2.6 7.612,3.77 0.143,0.038 0.257,0.17 0.257,0.324 a 0.32,0.32 0 0 1 -0.238,0.323 z m 9.62,-6.18 -0.208,0.008 c -1.716,-0.495 -6.565,-1.79 -8.1,-4.744 a 23.6,23.6 0 0 1 -1.4,0.698 l -0.152,0.02 c -3.144,-0.192 -5.26,-1.363 -9.24,-4.23 a 0.328,0.328 0 0 1 -0.153,-0.268 0.305,0.305 0 0 1 0.066,-0.21 c 0.115,-0.143 2.706,-1.505 3.62,-2.02 a 0.315,0.315 0 0 1 0.37,0.05 c 1.68,1.427 2.84,2.903 8.528,4.2 0.895,-0.458 1.58,-1.058 2.305,-1.41 a 0.368,0.368 0 0 1 0.343,0.03 0.36,0.36 0 0 1 0.143,0.312 c -0.068,0.877 2.04,3.38 7.47,4.79 h 0.007 c 0.18,0.05 0.286,0.23 0.238,0.41 -0.047,0.18 -2.99,1.99 -3.84,2.365 z m 13.748,-9.623 a 0.225,0.225 0 0 1 -0.057,0.087 l -0.01,0.02 -0.01,0.01 v 0.01 l -0.018,0.01 v 0.01 h -0.01 a 357.46,357.46 0 0 1 -2.955,2.066 l -0.286,0.03 c -1.965,-0.686 -5.29,-1.972 -7.167,-4.487 -0.333,0.23 -0.914,0.57 -1.2,0.752 l -0.2,0.048 c -2.896,-0.19 -4.258,-0.486 -9.02,-3.944 a 0.317,0.317 0 0 1 -0.144,-0.286 0.32,0.32 0 0 1 0.153,-0.277 c 0.962,-0.58 2.19,-1.75 3.182,-2.39 a 0.333,0.333 0 0 1 0.362,-0.01 c 2.686,1.544 2.963,3.097 8.783,4.01 0.154,0.02 1.735,-1.304 1.906,-1.36 0.162,-0.068 0.43,0.01 0.44,0.2 0.122,1.59 0.532,3.19 6.038,5.06 0.01,0 0.02,0.007 0.03,0.017 a 0.343,0.343 0 0 1 0.19,0.41 c -0.01,0.01 -0.01,0.01 -0.01,0.018 z m 9.564,-9.24 c -0.63,0.668 -2.125,2.068 -2.697,2.65 a 0.38,0.38 0 0 1 -0.237,0.104 0.395,0.395 0 0 1 -0.152,-0.03 c -0.78,-0.237 -4.667,0.106 -7.192,-2.695 -0.37,0.276 -0.722,0.552 -1.084,0.828 l -0.256,0.07 c -2.773,-0.506 -3.888,-1.278 -8.117,-4.136 a 0.37,0.37 0 0 1 -0.153,-0.266 c 0,-0.115 0.048,-0.22 0.134,-0.286 1.114,-0.895 2.21,-1.77 3.286,-2.666 a 0.332,0.332 0 0 1 0.372,-0.028 c 2.667,1.457 2.8,3.172 7.81,4.24 0.116,0.028 0.802,-0.706 0.802,-0.715 0.008,-0.03 0.027,-0.085 0.027,-0.085 a 0.328,0.328 0 0 1 0.116,-0.113 c 0.02,-0.01 0.06,-0.02 0.08,-0.03 a 0.322,0.322 0 0 1 0.39,0.146 c 1.542,2.61 6.66,2.46 6.66,2.46 0.14,0.02 0.254,0.095 0.292,0.22 a 0.327,0.327 0 0 1 -0.077,0.342 z m 8.297,-8.344 c -0.59,0.62 -1.867,2.17 -2.477,2.79 a 0.386,0.386 0 0 1 -0.26,0.104 0.26,0.26 0 0 1 -0.132,-0.038 c -0.725,0 -2.8,-0.267 -5.164,-2.334 -0.372,0.285 -1.057,0.667 -1.42,0.952 l -0.266,0.067 c -2.82,-0.522 -5.21,-2.04 -9.46,-4.904 a 0.345,0.345 0 0 1 -0.152,-0.276 c -0.01,-0.107 0.038,-0.2 0.124,-0.28 a 198.83,198.83 0 0 0 3.285,-2.656 0.316,0.316 0 0 1 0.372,-0.04 c 2.61,1.43 4.124,3.02 8.677,4.64 0.353,-0.295 0.724,-0.58 1.067,-0.857 a 0.31,0.31 0 0 1 0.27,-0.076 c 0.093,0.03 0.15,0.097 0.236,0.155 1.43,1.133 4.563,1.886 5.373,1.953 0.074,0.01 0.103,0.152 0.112,0.247 0.01,0.086 -0.113,0.486 -0.19,0.553 z m 6.63,-29.467 c 0.676,-0.77 1.315,-1.523 1.953,-2.257 a 0.316,0.316 0 0 1 0.35,-0.095 c 2.505,1 1.41,0.6 4,0.917 0.04,0 0.067,0.01 0.086,0.01 a 0.536,0.536 0 0 1 0.153,0.105 c 0,0 0,0.01 0.005,0.01 a 0.43,0.43 0 0 1 0.057,0.23 c 0,0.028 -0.02,0.047 -0.038,0.076 a 52.69,52.69 0 0 1 -0.972,2.735 0.31,0.31 0 0 1 -0.295,0.19 h -0.05 c -2.58,-0.437 -2.65,-0.275 -5.163,-1.427 -0.086,-0.048 -0.153,-0.115 -0.172,-0.22 a 0.31,0.31 0 0 1 0.076,-0.266 z m -5.287,8.88 c 0.846,-0.6 1.02,-1.477 1.98,-2.24 a 0.302,0.302 0 0 1 0.352,-0.037 c 2.82,1.42 3.287,1.78 6.088,2.353 a 0.45,0.45 0 0 1 0.24,0.17 0.42,0.42 0 0 1 0.01,0.284 c -0.41,0.99 -0.878,1.98 -1.354,2.99 -0.048,0.125 -0.18,0.192 -0.305,0.192 -0.025,0 -0.054,0 -0.082,-0.01 -2.935,-0.734 -4.144,-1.58 -6.888,-3.135 a 0.36,0.36 0 0 1 -0.17,-0.274 0.336,0.336 0 0 1 0.13,-0.296 z m 0.17,9.67 c 0.41,-0.42 0.84,-0.83 1.285,-1.278 0.134,-0.124 0.305,-0.076 0.477,-0.01 1.182,0.43 2.83,0.953 3.163,1.44 0.077,0.123 0.105,0.275 0.02,0.41 -0.41,0.646 -1.048,1.818 -1.42,2.41 a 0.366,0.366 0 0 1 -0.295,0.15 0.238,0.238 0 0 1 -0.133,-0.037 c -1.02,-0.468 -2.38,-0.84 -3.286,-1.316 -0.58,0.44 -1.18,0.877 -1.77,1.41 a 0.275,0.275 0 0 1 -0.21,0.096 c -0.04,0 -0.62,-0.124 -0.64,-0.134 -3.455,-0.876 -5.05,-1.372 -8.26,-3.19 a 0.39,0.39 0 0 1 -0.17,-0.277 0.35,0.35 0 0 1 0.136,-0.297 c 1.087,-0.8 2.106,-1.6 3.097,-2.363 a 0.335,0.335 0 0 1 0.363,-0.038 c 2.81,1.415 4.886,2.34 7.648,3.02 z M 180.2,316.1 c 20.395,-8.087 97.853,-30.16 157.964,-35.922 v 3.743 c 1.382,-0.13 2.744,-0.252 4.087,-0.38 v 10.807 c -39.78,4.363 -94.144,19.986 -115.93,43.983 l -3.782,-2.85 a 73.25,73.25 0 0 0 -7.907,-5.163 c -13.31,-7.555 -26.645,-9.65 -34.43,-9.46 V 316.1 Z"
       id="path16"
       inkscape:connector-curvature="0"
       style="fill:#ffffff" />
    <path
       d="m 200.528,346.986 0.01,0.01 -0.01,-0.01"
       id="path18"
       inkscape:connector-curvature="0"
       style="fill:#d31145" />
    <path
       d="m 261.8,209.635 a 9.986,9.986 0 0 0 3.574,0.677 c 5.458,0 9.888,-4.43 9.888,-9.88 a 9.82,9.82 0 0 0 -2.715,-6.792 c -1.82,-1.905 -4.344,-3.086 -7.173,-3.086 -5.44,0 -9.87,4.43 -9.87,9.88 0,4.18 2.63,7.763 6.297,9.2 m 3.578,-15.203 a 5.995,5.995 0 0 1 6,6.007 5.987,5.987 0 0 1 -6,5.992 5.997,5.997 0 0 1 -5.992,-5.993 c 0,-3.315 2.696,-6.002 5.992,-6.002"
       id="path20"
       inkscape:connector-curvature="0"
       style="fill:#002b5c" />
    <path
       d="m 196.984,288.19 c 0.98,0.19 2.048,0.2 3.096,0.123 0,-5.66 0.01,-43.278 0.01,-43.45 0,-1.524 -0.39,-3.724 -4.05,-5.268 v 43.174 c 0,2.233 0.325,4.043 0.944,5.42 m 84.28,-12.607 c 0.362,0.095 0.733,0.18 1.143,0.267 v 1.78 c 0.733,0.774 1.762,1.27 3.134,1.62 v -53.91 c 0.02,-1.75 -0.033,-4.58 -4.72,-6.447 v 52.937 c 0,1.535 0.143,2.755 0.448,3.755 m -56.092,4.85 c 0.97,0.18 2.02,0.2 3.038,0.123 v -43.233 c 0,-1.543 -0.39,-3.753 -3.95,-5.487 v 43.108 c 0,2.276 0.313,4.086 0.914,5.487"
       id="path22"
       inkscape:connector-curvature="0"
       style="fill:#ffffff" />
    <path
       d="m 250.694,223.344 a 328,328 0 0 0 -2.4,0.57 v 50.32 c 0,4.62 0.875,6.134 4.448,7.05 -0.257,-0.935 -0.343,-2.107 -0.343,-3.62 V 224.78 a 20.543,20.543 0 0 0 -1.71,-0.676 v -0.762 m -54.747,79.328 c -4.906,1.476 -10.422,1.104 -14.814,-1.134 0.63,0.685 1.306,1.314 2.05,1.838 4.63,3.325 11.163,4.125 16.85,2.448 18.69,-5.515 39.192,-10.926 58.102,-15.204 v -5.582 c -1.925,-0.372 -3.22,-0.83 -4.106,-1.58 v 3.704 c -18.9,4.373 -39.41,9.898 -58.082,15.51 m 26.797,-23.245 c 0.678,0.514 1.516,0.838 2.42,1.01 -0.59,-1.39 -0.904,-3.22 -0.904,-5.478 V 231.85 a 15.49,15.49 0 0 0 -1.696,-0.704 v -0.905 c -0.73,0.19 -1.53,0.41 -2.4,0.64 v 40.79 c 0,3.83 0.87,6.44 2.58,7.76 m -28.28,7.723 c 0.714,0.535 1.58,0.86 2.524,1.04 -0.62,-1.372 -0.943,-3.182 -0.943,-5.43 V 239.6 c -0.5,-0.21 -1.053,-0.41 -1.692,-0.59 v -0.935 c -0.733,0.22 -1.533,0.47 -2.4,0.726 v 40.85 c 0,3.687 0.848,6.21 2.515,7.507 m 86.805,-11.566 c -0.305,-1 -0.448,-2.22 -0.448,-3.753 V 218.9 c -0.506,-0.19 -1.068,-0.4 -1.697,-0.58 v -0.984 l -2.4,0.467 v 50.43 c 0,4.574 1.22,6.47 4.545,7.356 m 4.276,3.666 c -1.37,-0.342 -2.39,-0.838 -3.132,-1.62 v 3.564 l -6.897,1.43 c -4.44,0.77 -7.82,0.314 -10.964,-1.505 a 13.976,13.976 0 0 0 2.41,2.393 c 3.61,2.78 7.404,3.59 12.66,2.705 l 6.88,-1.38 v -4.374 l -0.952,0.17 v -1.38 M 167.9,316.54 c 2.858,-1.077 4.887,-1.84 5.287,-1.992 v -4.677 c -0.133,-0.004 -2.372,-0.3 -4.096,-1.51 v 3.2 c -7.13,2.573 -19.352,7.203 -27.51,10.718 v 4.66 c 2.27,-1.06 10.41,-4.26 17.88,-7.146 1.43,-0.543 2.84,-1.086 4.177,-1.6 a 334.1,334.1 0 0 0 4.267,-1.65 M 378.37,238.799 c 3.63,4.46 4.38,8.28 4.38,12.785 0,8.08 -6,17.434 -15.213,18.13 -6.497,0.514 -15.09,1.314 -23.016,2.152 0,2.166 -0.01,3.766 -0.01,4.395 2.42,-0.258 8.88,-0.84 14.606,-1.363 1.42,-0.122 2.8,-0.246 4.067,-0.36 1.84,-0.163 3.42,-0.296 4.516,-0.41 0.95,-0.067 1.542,-0.124 1.63,-0.124 9.943,-0.943 16.955,-10.146 16.955,-18.233 0,-5.84 -0.934,-10.517 -7.917,-16.967 m -9.555,-13.7 c 2.6,3.687 6.926,6.755 13.842,7.85 0,-5.592 -0.01,-25.807 0,-28.284 -1.295,0.066 -2.686,0.142 -4.096,0.23 -0.01,6.933 -0.01,19.64 0,23.89 -4.088,-0.63 -7.28,-1.953 -9.747,-3.687 m -7.116,-11.04 c -2.858,0.904 -2.4,5.334 -2.38,5.553 0.084,1.838 0.78,4.315 5.257,7.6 a 8.01,8.01 0 0 1 -0.503,-0.913 c 0,-0.01 0,-0.01 -0.01,-0.02 -0.2,-0.657 -0.38,-1.343 -0.59,-2.02 -0.02,-0.21 -0.047,-0.4 -0.056,-0.6 -0.01,-0.152 -0.22,-2.22 0.542,-3.83 -1.115,-1.856 -1.83,-3.828 -2.258,-5.772"
       id="path24"
       inkscape:connector-curvature="0"
       style="fill:#a2aaad" />
    <path
       d="m 354.102,251.34 a 18.795,18.795 0 0 1 3.172,7.05 c 0.553,-0.142 1.42,-0.39 2.286,-0.876 a 18.077,18.077 0 0 0 -4.086,-5.077 c -0.44,-0.38 -0.877,-0.762 -1.372,-1.096 m -186.954,-2.96 c -0.315,-0.103 -0.667,-0.23 -1.03,-0.332 v -5.506 c 0.325,-0.087 0.668,-0.22 1.03,-0.334 v -5.002 c 13.842,-0.638 52.013,-6.62 52.433,-36.295 l -3.15,-1.05 c -1.046,28.54 -39.83,32.896 -53.375,33.59 v 68.438 c 0,2.877 2.67,4.134 4.46,4.65 a 4.042,4.042 0 0 1 -0.362,-1.668 v -56.49 m -24.35,-8.155 c 0,-1.476 0,-2.915 -0.01,-4.277 -9.08,1.38 -18.08,4.534 -18.09,9.755 v 0.028 c 0,4.184 3.6,5.937 5.19,6.328 -0.646,-0.924 -1.094,-2.096 -1.094,-3.573 v -0.028 c 0.01,-4.516 5.63,-7.01 14.003,-8.23 m -12.51,15.955 c -0.962,0.41 -3.81,1.154 -5.887,1.135 -2.115,-0.01 -3.953,-0.4 -5.563,-1.057 2.248,2.277 5.43,3.763 9.65,3.81 2.077,0.03 4.925,-0.695 5.897,-1.095 v -4.05 c -0.79,-0.104 -2.726,-0.78 -4.098,-2.36 v 3.62 m 135.084,-45.87 a 9.994,9.994 0 0 1 -3.573,-0.677 c 1.82,1.858 4.32,3.02 7.09,3.04 5.45,0.028 9.89,-4.383 9.89,-9.832 0,-4.154 -2.59,-7.726 -6.23,-9.203 a 9.777,9.777 0 0 1 2.714,6.784 c 0,5.45 -4.43,9.89 -9.888,9.89 m -42.834,125.15 3.782,2.857 c 21.776,-23.997 76.143,-39.62 115.935,-43.992 V 283.54 a 225.88,225.88 0 0 0 -4.095,0.39 v 7.05 c -39.79,4.592 -93.853,20.377 -115.62,44.488 m 115.62,-68.408 v 5.525 c -5.155,0.505 -14.147,1.762 -20.873,2.753 v 4.42 c 6.62,-0.98 18.662,-2.657 24.97,-3.248 v -4.41 c -0.62,0.075 -1.25,0.142 -1.84,0.21 v -3.307 c -1.096,-0.638 -1.81,-1.286 -2.258,-1.943 m -4.907,-7.478 c -0.028,1.962 -0.057,3.99 3.868,5.935 l 0.41,0.21 c -0.2,-0.763 -0.19,-1.506 -0.18,-2.24 l 0.01,-33.037 c 0,-4.696 -1.068,-11.203 -6.25,-15.51 a 25.708,25.708 0 0 0 -1.477,-1.085 c 2.935,4 3.63,8.936 3.62,12.7 v 33.027 m -27.635,-38.934 c 0,6.144 -0.028,56.48 -0.028,56.48 l -15.967,2.783 v 4.358 l 20.053,-3.372 c 0,0 0.03,-50.347 0.03,-56.49 a 9.424,9.424 0 0 1 2.353,0.342 c -0.487,-1.124 -1.154,-2.04 -1.973,-2.696 -1.36,-1.067 -3.04,-1.372 -4.467,-1.4"
       id="path26"
       inkscape:connector-curvature="0"
       style="fill:#a2aaad" />
    <path
       d="m 248.302,274.233 v -54.72 c -6.134,1.45 -19.633,4.774 -25.74,6.355 v 5.287 c 0.64,0.22 1.2,0.448 1.696,0.686 3.563,1.74 3.963,3.95 3.963,5.49 0,0.19 -0.01,37.59 -0.01,43.23 -1.023,0.08 -2.07,0.06 -3.043,-0.12 -0.905,-0.18 -1.743,-0.497 -2.42,-1 -1.714,-1.326 -2.58,-3.936 -2.58,-7.756 V 226.5 c -5.68,1.543 -20.254,5.62 -25.818,7.24 v 5.258 c 0.63,0.19 1.19,0.39 1.695,0.6 3.66,1.553 4.05,3.744 4.05,5.278 0,0.162 -0.01,37.78 -0.01,43.44 -1.048,0.086 -2.115,0.067 -3.096,-0.124 -0.944,-0.172 -1.82,-0.496 -2.516,-1.03 -1.676,-1.305 -2.524,-3.82 -2.524,-7.535 v -45.202 c -5.498,1.695 -18.606,5.782 -24.79,7.783 -0.37,0.114 -0.713,0.247 -1.03,0.333 v 5.507 c 0.364,0.105 0.707,0.23 1.03,0.324 4.574,1.533 4.717,3.41 4.717,5.02 l -0.02,30.103 c -0.018,7.374 2.6,13.538 7.24,16.834 a 13.68,13.68 0 0 0 2.04,1.21 c 4.382,2.248 9.907,2.61 14.813,1.133 18.67,-5.614 39.18,-11.14 58.09,-15.51 v -5.584 c -0.476,-0.095 -0.905,-0.19 -1.295,-0.295 -3.573,-0.913 -4.44,-2.43 -4.44,-7.05 m -53.5,24.72 c -4.8,1.318 -9.754,0.89 -13.45,-1.78 -3.6,-2.59 -5.63,-7.59 -5.602,-13.68 v -28.95 c -0.037,-2 0.668,-6.82 -5.99,-9.096 a 798.832,798.832 0 0 1 18.3,-5.773 v 39.954 c 0,16.938 15.737,11.975 15.91,11.965 v -45.565 c -0.03,-2.01 0.665,-6.812 -5.985,-9.308 a 904.184,904.184 0 0 1 18.29,-5.144 v 40.107 c 0,17.193 15.643,12.163 15.824,12.144 V 238.51 c -0.02,-2.01 0.676,-6.82 -6.04,-9.517 a 750.728,750.728 0 0 1 18.357,-4.563 v 49.803 c 0,4.163 0.59,8.84 5.78,9.88 -20.08,4.638 -38.736,9.725 -55.397,14.84 m 80.706,-16.327 6.897,-1.42 v -5.363 c -0.41,-0.067 -0.78,-0.162 -1.143,-0.257 -3.335,-0.886 -4.545,-2.782 -4.545,-7.354 v -54.834 l -4.66,0.953 a 917.55,917.55 0 0 0 -18.34,3.93 l -3.02,0.685 v 5.146 c 0.63,0.22 1.18,0.447 1.687,0.676 4.162,1.934 4.277,4.563 4.248,6.278 v 32.17 c 0,5.154 0.638,12.508 6.22,16.767 0.563,0.428 1.125,0.78 1.696,1.124 3.126,1.82 6.517,2.277 10.957,1.506 m -10.29,-5.72 c -3.428,-2.62 -4.705,-7.096 -4.705,-13.68 V 231.7 c -0.028,-2.01 0.677,-6.744 -5.935,-9.63 a 913.554,913.554 0 0 1 18.253,-3.915 v 50.08 c 0,4.115 0.59,8.735 5.63,9.85 -1.22,0.238 -2.42,0.476 -3.62,0.714 -4.113,0.71 -6.84,0.234 -9.62,-1.89 m -42.684,58.555 c 21.786,-24.11 75.84,-39.896 115.63,-44.488 v -10.794 c -60.11,5.763 -137.57,27.826 -157.965,35.924 v 4.755 c 7.78,-0.19 21.12,1.887 34.428,9.45 a 73.14,73.14 0 0 1 7.907,5.154 m -35.486,-17.92 c 15.765,-5.964 89.09,-26.96 147.23,-33.057 v 3.076 c -40.66,5.25 -90.778,20.473 -112.288,42.87 -17.155,-11.518 -32.035,-13.25 -34.94,-12.89 m 151.115,-50.49 v -1.03 l -0.63,-0.313 -0.4,-0.19 c -3.933,-1.954 -3.895,-3.992 -3.876,-5.955 v -33.02 c 0.02,-3.772 -0.676,-8.697 -3.63,-12.7 a 15.543,15.543 0 0 0 -2.61,-2.78 c -3.343,-2.733 -8.287,-4.84 -14.67,-3.886 l -11.25,1.78 c -6.012,1.002 -15.776,2.783 -21.98,3.964 v 5.386 c 0.63,0.18 1.19,0.38 1.698,0.58 4.687,1.868 4.744,4.697 4.725,6.45 v 55.29 l 0.965,-0.17 3.125,-0.544 15.955,-2.78 c 0,0 0.038,-50.347 0.038,-56.5 1.44,0.03 3.115,0.352 4.478,1.41 0.82,0.656 1.47,1.56 1.964,2.704 0.743,1.706 1.115,3.944 1.115,6.726 v 44.468 c 1.22,-0.18 2.61,-0.38 4.114,-0.61 6.726,-0.99 15.71,-2.248 20.872,-2.762 v -5.516 z m -21.09,4.4 v -39.98 c 0,-16.367 -11.918,-15.138 -15.338,-14.33 v 56.72 c -4.145,0.687 -8.25,1.4 -12.32,2.145 v -50.04 c -0.03,-2.01 0.676,-6.735 -5.992,-9.908 a 833.68,833.68 0 0 1 18.31,-3.267 c 3.63,-0.6 7.287,-1.18 10.974,-1.734 4.46,-0.674 9.06,0.736 11.84,3.01 3.956,3.26 4.84,8.557 4.82,12.47 -0.007,4.775 0,32.4 0,32.4 0.03,2.01 -0.655,6.746 6.04,10.06 a 733.62,733.62 0 0 0 -18.336,2.46 z"
       id="path28"
       inkscape:connector-curvature="0"
       style="fill:#002b5c" />
    <path
       d="M 244.416,274.224 V 224.43 a 849.587,849.587 0 0 0 -18.348,4.553 c 6.697,2.715 6.01,7.507 6.03,9.517 v 45.326 c -0.18,0.02 -15.823,5.04 -15.823,-12.155 v -40.1 a 971.157,971.157 0 0 0 -18.29,5.144 c 6.65,2.505 5.953,7.297 5.982,9.307 v 45.574 c -0.17,0.01 -15.91,4.974 -15.91,-11.945 v -39.973 a 814.123,814.123 0 0 0 -18.3,5.773 c 6.65,2.275 5.964,7.096 5.993,9.106 v 28.94 c -0.03,6.088 2.01,11.09 5.61,13.68 3.688,2.658 8.65,3.087 13.443,1.782 16.66,-5.116 35.323,-10.203 55.405,-14.842 -5.192,-1.038 -5.792,-5.725 -5.792,-9.888 m 34.047,3.848 c -5.04,-1.105 -5.62,-5.735 -5.62,-9.83 v -50.09 a 852.228,852.228 0 0 0 -18.263,3.915 c 6.612,2.888 5.916,7.63 5.935,9.63 v 31.535 c 0,6.584 1.286,11.06 4.706,13.68 2.787,2.116 5.51,2.61 9.627,1.887 1.2,-0.237 2.41,-0.475 3.62,-0.723 m 64.254,-56.71 c 0.22,4.924 2.057,11.29 9.155,16.04 12.155,8.136 14.09,11.63 14.24,14.833 0.344,7.62 -6.343,10.517 -12.135,10.46 -0.135,-2.725 -0.907,-10.822 -9.68,-13.985 0.04,1.153 -0.068,17.68 0,19.3 8.163,-0.895 14.89,-1.562 23.196,-2.18 7.106,-0.782 11.936,-8.432 11.327,-15.377 -0.458,-5.05 -0.886,-9.382 -15.586,-19.423 -6.2,-4.237 -7.65,-8.04 -7.81,-11.24 -0.344,-7.62 3.78,-10.21 9.554,-10.06 0.147,2.735 0.91,10.833 9.69,14.138 -0.05,-1.133 0.07,-17.337 0.02,-19.243 -7.553,0.45 -12.993,0.85 -20.404,1.468 -8.02,0.81 -11.87,8.756 -11.565,15.272"
       id="path30"
       inkscape:connector-curvature="0"
       style="fill:#d31145" />
    <path
       d="m 120.812,245.73 v -0.047 c 0.02,-10.603 18.51,-13.442 25.854,-14.128 0,0 0.03,76.068 0,75.925 0.02,0.01 -0.648,7.64 -5.125,10.584 6.69,-2.877 14.5,-5.954 23.278,-9.136 -1.562,-0.048 -5.65,-1.64 -5.65,-7.03 v -72.18 c 8.574,-0.135 50.08,-2.154 53.262,-27.628 -2.458,8.63 -17.005,13.71 -37.858,13.747 -14.51,0.02 -60.12,0.438 -60.12,26.607 0,2.82 1.02,10.936 9.973,10.984 -1.6,-1.21 -3.61,-4.097 -3.61,-7.698 m 144.562,-39.305 a 5.987,5.987 0 0 0 6,-5.992 5.995,5.995 0 0 0 -6,-6.002 c -3.296,0 -5.992,2.69 -5.992,6.007 a 5.997,5.997 0 0 0 5.992,5.992 m 68.913,81.143 v -3.076 c -58.15,6.106 -131.482,27.083 -147.23,33.056 2.897,-0.364 17.777,1.37 34.934,12.887 21.503,-22.397 71.63,-37.62 112.298,-42.87 m -4.918,-28.627 c 0,0 -0.008,-27.626 0,-32.4 0.02,-3.914 -0.865,-9.2 -4.828,-12.46 -2.782,-2.285 -7.374,-3.686 -11.832,-3.02 a 645.032,645.032 0 0 0 -10.984,1.744 833.137,833.137 0 0 0 -18.3,3.258 c 6.668,3.182 5.954,7.898 5.992,9.908 v 50.042 a 767.926,767.926 0 0 1 12.308,-2.144 v -56.72 c 3.42,-0.805 15.347,-2.025 15.347,14.33 v 39.98 a 774.315,774.315 0 0 1 18.338,-2.454 c -6.695,-3.315 -6.01,-8.04 -6.04,-10.06 M 171.2,198.006 a 0.34,0.34 0 0 0 -0.448,0.13 l -2.03,3.554 c -0.41,1.172 -0.544,2.02 -0.544,2.668 -0.02,1.552 0.857,2 0.943,2.02 a 0.58,0.58 0 0 0 0.126,0.018 c 0.104,0 0.21,-0.047 0.276,-0.143 l 1.314,-1.82 a 0.34,0.34 0 0 0 0.03,-0.342 c -0.268,-0.53 -0.363,-1.16 -0.363,-1.82 -0.007,-1.862 0.86,-3.824 0.85,-3.824 a 0.328,0.328 0 0 0 -0.153,-0.438 m 5.088,-3.898 0.104,-0.23 c 0.104,-1.726 0.97,-3.26 1.676,-4.67 a 0.357,0.357 0 0 0 -0.114,-0.447 0.353,0.353 0 0 0 -0.445,0.076 c -0.125,0.14 -0.268,0.283 -0.41,0.445 -1.4,2.42 -2.24,4.087 -2.63,5.335 -0.21,0.22 -0.438,0.43 -0.638,0.64 l -0.048,0.066 a 3.895,3.895 0 0 0 -0.306,0.77 c 0,0 -0.114,1.335 -0.114,1.392 0,1.39 0.59,2.533 1.228,3.362 a 0.276,0.276 0 0 0 0.248,0.14 h 0.02 a 0.31,0.31 0 0 0 0.237,-0.104 c 0.467,-0.448 0.952,-0.924 1.42,-1.343 0.104,-0.105 0.142,-0.248 0.085,-0.372 -0.448,-1.18 -0.715,-2.254 -0.715,-3.16 0,-0.676 0.086,-1.21 0.2,-1.714 0.067,-0.048 0.143,-0.134 0.2,-0.19 m 103.504,-19.27 a 90.35,90.35 0 0 1 3.125,0.39 0.304,0.304 0 0 0 -0.048,0.24 c 1.286,5.2 1.79,10.47 1.962,12.793 0.01,0.152 0.133,0.275 0.285,0.294 1.096,0.172 2.23,0.372 3.344,0.553 0.02,0.02 0.037,0.02 0.066,0.02 a 0.29,0.29 0 0 0 0.19,-0.068 0.32,0.32 0 0 0 0.133,-0.22 16.4,16.4 0 0 0 0.2,-2.658 c 0,-3.82 -1.077,-7.83 -1.753,-10.2 a 0.325,0.325 0 0 0 -0.286,-0.24 c -1.03,-0.15 -2.01,-0.37 -3.03,-0.55 0.01,-0.02 0.05,-0.05 0.068,-0.076 1.477,-3.61 2.734,-4.81 4.25,-5.973 a 0.346,0.346 0 0 0 0.123,-0.343 c -0.047,-0.134 -0.142,-0.248 -0.285,-0.257 -1.067,-0.137 -2.096,-0.28 -3.163,-0.4 l -0.23,0.063 c -2.763,1.925 -4.363,4.4 -5.22,6.145 a 0.317,0.317 0 0 0 0.02,0.305 0.324,0.324 0 0 0 0.246,0.18 m -56.946,-1.008 h 0.064 a 9.898,9.898 0 0 1 1.105,-0.18 5.508,5.508 0 0 0 -0.277,1.666 c 0.01,2.496 1.03,5.05 1.905,6.602 a 0.37,0.37 0 0 0 0.294,0.17 h 0.03 c 0.59,-0.056 1.62,0.02 2.21,-0.008 0.095,0 0.2,-0.067 0.257,-0.143 a 0.38,0.38 0 0 0 0.04,-0.303 c -0.526,-1.647 -0.84,-3.143 -0.84,-4.43 0,-2.085 0.514,-3.686 0.962,-4.705 a 0.38,0.38 0 0 0 -0.047,-0.332 0.324,0.324 0 0 0 -0.334,-0.126 c -0.55,0.077 -1.104,0.2 -1.647,0.296 0.19,-2.38 1.658,-4.42 3.268,-5.583 0.146,-0.086 0.184,-0.248 0.127,-0.4 -0.076,-0.143 -0.22,-0.24 -0.372,-0.2 -1.038,0.19 -2.048,0.41 -3.077,0.628 l -0.133,0.077 c -2.83,2.307 -3.658,5.26 -3.877,6.584 -0.02,0.114 0.02,0.23 0.114,0.305 0.06,0.066 0.135,0.085 0.23,0.085 m 82.897,6.22 a 0.355,0.355 0 0 0 -0.03,0.364 c 2.59,5.363 1.905,10.04 2.124,12.48 0.01,0.16 0.144,0.304 0.306,0.323 l 3.24,0.486 h 0.056 a 0.365,0.365 0 0 0 0.353,-0.297 15.54,15.54 0 0 0 0.35,-3.382 c 0,-4.943 -1.953,-9.44 -1.972,-9.46 -0.057,-0.132 -0.162,-0.217 -0.295,-0.227 -1.436,-0.162 -1.846,-0.21 -2.627,-0.295 0,-0.02 0.02,-0.03 0.02,-0.038 0.027,-2.136 0.77,-4.43 0.78,-6.223 0,-0.304 -0.02,-0.59 -0.076,-0.856 a 0.34,0.34 0 0 0 -0.24,-0.266 c -0.99,-0.258 -1.516,-0.2 -2.43,-0.39 a 0.342,0.342 0 0 0 -0.277,0.046 0.348,0.348 0 0 0 -0.133,0.25 c -0.126,3 -1.736,5.096 -2.02,6.554 a 0.33,0.33 0 0 0 0.255,0.38 c 1.02,0.268 1.772,0.382 2.61,0.553 m 17.09,3.324 c -0.03,0.077 -0.01,0.182 0.04,0.258 0.037,0.086 0.113,0.134 0.21,0.162 0.56,0.143 1.075,0.277 1.56,0.39 4.26,3.81 5.155,7.146 5.155,9.356 0,0.81 -0.113,1.486 -0.246,1.972 -0.03,0.104 0,0.19 0.048,0.285 a 0.338,0.338 0 0 0 0.24,0.133 c 0.99,0.124 1.98,0.276 2.96,0.39 0.02,0.01 0.03,0.01 0.05,0.01 a 0.326,0.326 0 0 0 0.323,-0.238 c 0.22,-0.793 0.314,-1.565 0.314,-2.298 -0.02,-4.668 -3.79,-8.326 -6.26,-10.422 l -0.17,-0.066 c -0.38,-0.058 -0.757,-0.115 -1.138,-0.17 a 6.265,6.265 0 0 0 -0.2,-0.936 l -0.085,-0.164 a 84.253,84.253 0 0 0 -2.726,-2.486 c -0.113,-0.113 -0.294,-0.132 -0.41,-0.028 a 0.344,0.344 0 0 0 -0.122,0.41 c 0.447,1.038 0.58,1.867 0.58,2.477 0,0.41 -0.056,0.73 -0.123,0.96 m -115.945,-12.405 -0.114,0.076 c -2.334,2.286 -2.877,5.05 -3,6.335 -0.03,0.112 0.028,0.217 0.113,0.293 a 0.325,0.325 0 0 0 0.21,0.07 c 0.03,0 0.075,0 0.104,-0.01 a 4.53,4.53 0 0 1 0.533,-0.14 c -0.19,0.683 -0.316,1.36 -0.316,2 0,2.236 1.02,3.846 1.906,5.03 a 0.334,0.334 0 0 0 0.266,0.13 h 0.066 c 0.742,-0.14 1.505,-0.38 2.25,-0.504 a 0.39,0.39 0 0 0 0.245,-0.18 0.42,0.42 0 0 0 0,-0.306 c -0.62,-1.305 -0.84,-2.19 -0.84,-3.315 0,-1.782 0.543,-3.268 0.867,-4.278 a 0.335,0.335 0 0 0 -0.076,-0.334 0.352,0.352 0 0 0 -0.343,-0.086 c -0.4,0.114 -0.934,0.23 -1.486,0.353 0.334,-2.163 0.99,-4.21 2.335,-5.354 0.133,-0.106 0.152,-0.278 0.076,-0.42 a 0.34,0.34 0 0 0 -0.4,-0.162 c -0.82,0.247 -1.62,0.524 -2.4,0.8 m -8,3.108 -0.094,0.077 c -2.496,2.74 -3.41,5.493 -3.782,6.884 a 0.317,0.317 0 0 0 0.115,0.353 0.333,0.333 0 0 0 0.21,0.075 0.31,0.31 0 0 0 0.152,-0.038 c 0.055,-0.03 0.112,-0.048 0.17,-0.076 a 8.95,8.95 0 0 0 -0.067,0.99 c 0,2.23 0.914,3.944 1.79,5.08 a 0.318,0.318 0 0 0 0.268,0.14 c 0.04,0 0.068,-0.01 0.106,-0.02 0.762,-0.265 1.41,-0.532 2.21,-0.78 a 0.388,0.388 0 0 0 0.21,-0.18 0.393,0.393 0 0 0 -0.01,-0.275 c -0.695,-1.534 -0.924,-2.848 -0.924,-3.944 0,-1.485 0.22,-2.58 0.573,-3.295 a 0.35,0.35 0 0 0 -0.057,-0.38 0.36,0.36 0 0 0 -0.38,-0.087 c -0.478,0.2 -0.62,0.247 -1.22,0.514 0.485,-2.04 1.486,-3.925 2.924,-5.383 a 0.333,0.333 0 0 0 0.04,-0.428 0.354,0.354 0 0 0 -0.43,-0.115 c -0.6,0.294 -1.19,0.58 -1.8,0.884 m -6.707,3.23 a 0.39,0.39 0 0 0 -0.495,-0.05 c -0.267,0.2 -0.524,0.42 -0.78,0.62 l -0.05,0.048 c -2.952,3.45 -4.162,6.487 -4.648,8.164 a 0.385,0.385 0 0 0 0.153,0.42 0.408,0.408 0 0 0 0.21,0.056 c 0.076,0 0.342,-0.16 0.39,-0.2 -0.02,0.268 0.03,0.525 0.048,0.773 0.147,1.79 0.747,2.868 1.62,4.078 0.05,0.078 0.156,0.107 0.25,0.107 a 0.44,0.44 0 0 0 0.2,-0.067 c 0.744,-0.344 1.4,-0.763 2.068,-1.144 a 0.362,0.362 0 0 0 0.18,-0.228 0.33,0.33 0 0 0 -0.038,-0.286 c -0.926,-1.6 -0.86,-2.915 -0.86,-4.316 0,-0.6 0.06,-1.152 0.116,-1.638 a 0.358,0.358 0 0 0 -0.173,-0.372 0.36,0.36 0 0 0 -0.41,0.02 c -0.36,0.247 -0.61,0.42 -0.97,0.676 0.475,-2.296 1.904,-4.535 3.22,-6.164 a 0.4,0.4 0 0 0 -0.03,-0.495 m -9.415,11.26 0.125,-0.256 c 0.105,-1.915 1.04,-3.477 1.84,-5.06 a 0.38,0.38 0 0 0 -0.135,-0.485 0.394,0.394 0 0 0 -0.495,0.08 c -0.133,0.16 -0.295,0.324 -0.457,0.505 -1.496,2.58 -2.39,4.305 -2.85,5.64 -0.284,0.294 -0.58,0.57 -0.856,0.866 l -0.048,0.077 c -0.16,0.296 -0.257,0.59 -0.333,0.848 l -0.13,1.238 c -0.01,0.136 -0.01,0.23 -0.01,0.307 0,1.544 0.654,2.59 1.36,3.525 a 0.387,0.387 0 0 0 0.276,0.153 h 0.03 a 0.37,0.37 0 0 0 0.256,-0.104 c 0.524,-0.515 1.4,-0.934 1.915,-1.4 a 0.368,0.368 0 0 0 0.106,-0.42 c -0.514,-1.314 -1.134,-2.39 -1.134,-3.4 0,-0.687 0.094,-1.268 0.21,-1.78 0.112,-0.107 0.23,-0.23 0.33,-0.326 m 85.375,-15.558 c 0.943,0.047 1.906,0.104 2.868,0.17 -0.02,0.04 -0.048,0.077 -0.048,0.125 0.372,4.8 1.19,9.402 2.048,12.022 a 0.33,0.33 0 0 0 0.276,0.23 c 0.904,0.103 1.8,0.237 2.676,0.35 h 0.047 c 0.086,0 0.17,-0.027 0.23,-0.085 a 0.35,0.35 0 0 0 0.103,-0.278 l -1.076,-11.832 a 0.328,0.328 0 0 0 -0.304,-0.303 c -1.01,-0.1 -1.944,-0.28 -2.954,-0.39 0.01,-0.01 0.03,-0.03 0.038,-0.05 0.848,-3.08 2.906,-4.99 4.382,-6.01 a 0.347,0.347 0 0 0 0.143,-0.365 0.37,0.37 0 0 0 -0.315,-0.257 97.54,97.54 0 0 0 -2.506,-0.17 l -0.18,0.036 c -4.07,2.286 -5.356,4.83 -5.737,6.382 a 0.34,0.34 0 0 0 0.05,0.285 0.38,0.38 0 0 0 0.257,0.134 m -11.727,-0.646 c 0.77,0.056 1.552,0.094 2.333,0.142 0.41,4.734 1.877,9.745 2.706,12.28 0.036,0.132 0.15,0.21 0.284,0.228 0.895,0.104 1.79,0.228 2.676,0.362 h 0.04 c 0.085,0 0.17,-0.038 0.238,-0.115 a 0.313,0.313 0 0 0 0.095,-0.277 l -1.58,-12.554 c -0.03,-0.153 -0.146,-0.286 -0.308,-0.305 -0.82,-0.066 -1.64,-0.114 -2.45,-0.19 0.913,-2.83 2.837,-4.64 4.247,-5.61 a 0.364,0.364 0 0 0 0.133,-0.38 0.338,0.338 0 0 0 -0.303,-0.24 72.09,72.09 0 0 0 -2.505,-0.17 l -0.19,0.036 c -4.05,2.288 -5.343,4.83 -5.724,6.375 a 0.36,0.36 0 0 0 0.05,0.296 0.388,0.388 0 0 0 0.256,0.124 m 39.324,5.506 a 0.354,0.354 0 0 0 -0.068,0.332 c 0.934,3.296 1.115,7.288 1.115,9.746 0,1.41 -0.057,2.305 -0.057,2.315 a 0.37,0.37 0 0 0 0.314,0.38 c 1.245,0.17 2.33,0.37 3.63,0.57 a 0.11,0.11 0 0 0 0.054,0.01 0.36,0.36 0 0 0 0.352,-0.307 c 0.23,-1.23 0.324,-2.486 0.324,-3.734 0,-3.296 -0.675,-6.47 -1.41,-8.65 a 0.336,0.336 0 0 0 -0.294,-0.238 c -1.467,-0.2 -2.153,-0.372 -3.64,-0.553 a 0.347,0.347 0 0 0 -0.323,0.124 m -0.285,0.047 h 0.038 a 0.356,0.356 0 0 0 0.334,-0.21 c 1.572,-3.38 1.857,-3.84 2.705,-6.61 a 0.354,0.354 0 0 0 -0.06,-0.305 c -0.037,-0.085 -0.132,-0.142 -0.237,-0.16 l -2.64,-0.43 -0.313,0.105 c -1.762,1.7 -2.943,4.88 -3.886,6.557 a 0.335,0.335 0 0 0 0,0.354 0.35,0.35 0 0 0 0.286,0.19 c 1.486,0.16 2.277,0.325 3.772,0.516 m 19.567,4.352 c 0,0 -0.01,0.02 -0.01,0.03 0.056,0.303 0.16,0.265 0.17,0.303 0.01,0 0.01,0 0.02,0.01 2.57,2.485 3.25,5.077 3.257,7.334 0,1.6 -0.352,3.03 -0.648,4.116 a 0.42,0.42 0 0 0 0.047,0.283 0.344,0.344 0 0 0 0.257,0.172 l 3.86,0.57 c 0.02,0.01 0.04,0.01 0.06,0.01 a 0.375,0.375 0 0 0 0.35,-0.285 c 0.276,-1.2 0.4,-2.314 0.4,-3.343 -0.01,-5.353 -3.21,-8.345 -3.24,-8.373 l -0.16,-0.095 c 0,0 -0.906,-0.23 -1.85,-0.49 0.01,-0.03 0.05,-0.056 0.05,-0.085 v -0.38 c 0,-2.48 -0.4,-5.03 -0.725,-6.68 a 0.328,0.328 0 0 0 -0.24,-0.267 c -0.97,-0.247 -1.24,-0.19 -2.162,-0.41 a 0.325,0.325 0 0 0 -0.277,0.067 0.33,0.33 0 0 0 -0.132,0.258 c -0.124,3.077 -0.458,5.258 -0.686,6.544 a 0.34,0.34 0 0 0 0.246,0.38 c 0.562,0.143 0.99,0.24 1.41,0.324 m -69.78,-10.19 h 1.6 c 0.115,4.65 1.582,8.82 2.935,11.716 a 0.32,0.32 0 0 0 0.286,0.2 c 0.85,0.076 1.715,0.142 2.534,0.22 h 0.036 c 0.106,0 0.19,-0.03 0.26,-0.116 a 0.325,0.325 0 0 0 0.065,-0.305 c -1.332,-4.79 -1.618,-9.527 -1.666,-11.83 a 0.338,0.338 0 0 0 -0.335,-0.336 c -0.693,-0.02 -1.39,-0.02 -2.083,-0.03 0.82,-2.64 2.562,-4.67 3.982,-5.945 0.103,-0.105 0.14,-0.238 0.084,-0.37 a 0.317,0.317 0 0 0 -0.315,-0.22 c -0.744,-0.01 -1.487,-0.03 -2.22,-0.03 l -0.17,0.04 c -3.527,1.847 -4.83,4.857 -5.318,6.582 a 0.34,0.34 0 0 0 0.058,0.295 0.325,0.325 0 0 0 0.267,0.123 m -11.195,0.668 h 0.028 c 0.496,-0.056 0.99,-0.104 1.486,-0.142 -0.16,0.78 -0.266,1.554 -0.266,2.316 0,3.02 0.79,5.46 1.724,7.403 0.056,0.123 0.17,0.294 0.304,0.294 0.79,0.01 1.92,0.255 2.77,0.265 h 0.01 c 0.103,0 0.2,-0.05 0.265,-0.125 a 0.364,0.364 0 0 0 0.066,-0.294 c -0.772,-3.05 -1.01,-5.363 -1.01,-7.116 0,-1.535 0.18,-2.64 0.37,-3.44 a 0.312,0.312 0 0 0 -0.075,-0.286 0.352,0.352 0 0 0 -0.276,-0.134 c -0.6,0.05 -1.2,0.107 -1.8,0.155 0.43,-2.66 2.125,-4.64 3.468,-5.81 0.114,-0.107 0.153,-0.27 0.095,-0.383 a 0.317,0.317 0 0 0 -0.333,-0.21 c -0.772,0.057 -1.524,0.114 -2.277,0.18 l -0.162,0.068 c -3.77,2.708 -4.62,5.404 -4.723,6.9 -0.01,0.095 0.03,0.2 0.095,0.257 a 0.34,0.34 0 0 0 0.24,0.105 m -14.2,-4.737 a 0.32,0.32 0 0 0 -0.353,-0.18 c -0.962,0.18 -1.886,0.38 -2.8,0.58 l -0.143,0.065 a 10.157,10.157 0 0 0 -3.556,6.04 c -0.01,0.105 0.02,0.21 0.115,0.276 0.046,0.06 0.113,0.087 0.21,0.087 0.01,0 0.036,0 0.055,-0.01 0.285,-0.066 0.704,-0.123 1.143,-0.18 a 4.71,4.71 0 0 0 -0.38,1.914 c 0,2.277 0.674,4.84 1.493,6.26 a 0.286,0.286 0 0 0 0.268,0.15 h 0.02 c 0.542,-0.04 1.628,-0.19 2.17,-0.21 a 0.336,0.336 0 0 0 0.24,-0.14 0.33,0.33 0 0 0 0.037,-0.268 c -0.484,-1.512 -0.674,-2.875 -0.674,-4.065 0,-1.906 0.468,-3.382 0.877,-4.316 a 0.26,0.26 0 0 0 -0.037,-0.314 0.285,0.285 0 0 0 -0.286,-0.114 c -0.524,0.084 -1.143,0.19 -1.667,0.284 0.068,-2.343 1.6,-4.363 3.155,-5.477 0.123,-0.087 0.152,-0.25 0.114,-0.38 m -2.62,181.112 a 0.314,0.314 0 0 0 -0.21,-0.238 c -1.038,-0.4 -2.086,-0.867 -3.134,-1.324 a 0.354,0.354 0 0 0 -0.37,0.057 0.34,0.34 0 0 0 -0.087,0.362 c 0.646,1.82 1.79,3.2 2.96,4.18 1.287,0.54 2.45,1 3.62,1.435 0.04,0.01 0.077,0.03 0.115,0.03 a 0.348,0.348 0 0 0 0.2,-0.62 c -2.277,-1.677 -2.924,-3.087 -3.096,-3.887 m -8.92,-2.62 -0.16,-0.238 c -1.44,-0.868 -1.65,-0.763 -3.05,-1.687 h -0.017 c -0.105,-0.076 -0.23,-0.172 -0.343,-0.23 -0.096,-0.075 -0.24,-0.084 -0.325,-0.008 a 0.294,0.294 0 0 0 -0.19,0.276 v 0.01 c 0.123,0.59 0.78,2.24 1.21,2.99 l 0.027,0.06 c 1.38,1.715 3.877,2.677 4.04,2.78 a 0.434,0.434 0 0 0 0.19,0.05 c 0.086,0 0.19,-0.038 0.257,-0.13 a 0.35,0.35 0 0 0 -0.03,-0.46 c -0.933,-0.895 -1.43,-2.457 -1.61,-3.41 m -8.43,-3.81 -0.152,-0.23 c -1.457,-0.877 -1.667,-0.78 -3.058,-1.687 l -0.028,-0.01 a 2.664,2.664 0 0 0 -0.334,-0.238 0.35,0.35 0 0 0 -0.37,0.01 0.354,0.354 0 0 0 -0.135,0.352 c 0.115,0.513 0.562,1.932 0.982,2.694 0,0 4.066,2.916 4.285,3.05 a 0.332,0.332 0 0 0 0.176,0.057 0.31,0.31 0 0 0 0.268,-0.133 0.35,0.35 0 0 0 -0.02,-0.457 c -0.932,-0.886 -1.427,-2.44 -1.61,-3.41 m 115.526,-6.87 h -0.01 c -5.44,-1.41 -7.526,-3.914 -7.46,-4.77 a 0.394,0.394 0 0 0 -0.152,-0.325 0.34,0.34 0 0 0 -0.343,-0.03 c -0.715,0.355 -1.41,0.945 -2.297,1.4 -5.707,-1.274 -6.87,-2.77 -8.527,-4.2 a 0.373,0.373 0 0 0 -0.37,-0.037 c -0.925,0.505 -3.516,1.867 -3.63,2.02 a 0.38,0.38 0 0 0 -0.067,0.2 c 0,0.114 0.056,0.21 0.142,0.267 3.99,2.867 6.114,4.048 9.25,4.248 l 0.16,-0.028 c 0.39,-0.18 0.887,-0.438 1.39,-0.696 1.535,2.944 6.384,4.26 8.1,4.735 h 0.21 c 0.846,-0.37 3.79,-2.19 3.837,-2.37 a 0.337,0.337 0 0 0 -0.24,-0.41 m 9.936,-7.287 c -5.506,-1.877 -5.906,-3.468 -6.05,-5.06 -0.008,-0.19 -0.256,-0.266 -0.428,-0.208 -0.18,0.066 -1.762,1.39 -1.895,1.362 -5.84,-0.905 -6.11,-2.458 -8.804,-4.01 a 0.338,0.338 0 0 0 -0.353,0.018 c -0.99,0.64 -2.23,1.81 -3.182,2.39 a 0.32,0.32 0 0 0 -0.15,0.278 0.33,0.33 0 0 0 0.132,0.285 c 4.763,3.456 6.125,3.752 9.03,3.933 l 0.2,-0.046 c 0.277,-0.17 0.858,-0.514 1.2,-0.752 1.868,2.526 5.212,3.81 7.165,4.498 l 0.286,-0.03 c 0.848,-0.58 2.877,-2.01 2.944,-2.067 h 0.01 c 0,-0.01 0.01,-0.01 0.01,-0.01 0,0 0.007,-0.01 0.017,-0.01 v -0.007 c 0.01,0 0.01,-0.01 0.01,-0.01 0,0 0.01,-0.01 0.01,-0.02 a 0.225,0.225 0 0 0 0.055,-0.085 c 0,-0.007 0.01,-0.007 0.01,-0.017 a 0.34,0.34 0 0 0 -0.19,-0.41 c -0.01,-0.01 -0.02,-0.02 -0.03,-0.02 M 236.603,350 l -0.267,-0.114 a 84.19,84.19 0 0 1 -2.22,0.036 c -0.44,0 -0.867,0 -1.305,-0.02 a 0.37,0.37 0 0 0 -0.324,0.21 c -0.046,0.134 -0.02,0.286 0.078,0.372 a 19.22,19.22 0 0 0 5.03,3.657 l -1.057,-0.067 a 0.32,0.32 0 0 0 -0.333,0.18 0.33,0.33 0 0 0 0.057,0.382 c 0.01,0.02 0.762,0.896 2.058,1.724 l 0.126,0.056 c 0.552,0.085 1.98,0.285 2.515,0.362 0.01,0.008 0.03,0.008 0.048,0.008 a 0.35,0.35 0 0 0 0.297,-0.162 0.37,0.37 0 0 0 -0.01,-0.37 c -0.18,-0.26 -1,-0.573 -1,-0.744 a 0.684,0.684 0 0 1 0.114,-0.42 c 0.84,0.01 1.687,0.03 2.526,0.03 0.18,0 0.37,0.01 0.56,0.01 0.162,0 0.305,-0.135 0.333,-0.297 a 0.337,0.337 0 0 0 -0.24,-0.37 c -3.59,-1.118 -5.867,-3.195 -6.982,-4.47 m 57.92,-9.64 c 0.668,-0.295 1.544,-0.724 2.03,-0.933 0.134,-0.067 0.22,-0.21 0.19,-0.353 a 0.344,0.344 0 0 0 -0.285,-0.297 c -5.955,-0.772 -8.03,-3.03 -9.985,-4.61 a 0.35,0.35 0 0 0 -0.38,-0.04 96.33,96.33 0 0 1 -3.43,1.735 0.378,0.378 0 0 0 -0.2,0.275 c -0.01,0.114 0.038,0.23 0.133,0.295 3.564,2.725 6.108,3.763 8.44,4.306 -0.19,0.076 -0.38,0.152 -0.55,0.21 a 0.333,0.333 0 0 0 -0.22,0.39 c 0.667,2.895 5.963,4.267 8.28,4.83 l 0.17,-0.01 c 0.97,-0.257 2.543,-1.105 3.44,-1.38 a 0.346,0.346 0 0 0 0.237,-0.325 0.335,0.335 0 0 0 -0.257,-0.323 c -4.61,-1.18 -7.23,-2.714 -7.612,-3.772 m -10.47,5.28 c 0.85,-0.38 1.773,-0.82 2.4,-1.105 a 0.34,0.34 0 0 0 0.2,-0.353 0.354,0.354 0 0 0 -0.294,-0.285 c -5.963,-0.772 -8.974,-2.81 -10.87,-4.335 a 0.332,0.332 0 0 0 -0.38,-0.048 c -0.905,0.495 -2.315,0.895 -3.344,1.37 a 0.378,0.378 0 0 0 -0.2,0.275 0.338,0.338 0 0 0 0.133,0.296 c 3.62,2.764 6.706,3.86 9.25,4.42 -0.18,0.06 -0.363,0.135 -0.553,0.193 a 0.333,0.333 0 0 0 -0.22,0.39 c 0.63,2.858 4.44,4.04 6.745,4.582 h 0.164 a 93.976,93.976 0 0 0 2.8,-0.8 0.35,0.35 0 0 0 0.24,-0.333 0.346,0.346 0 0 0 -0.26,-0.322 c -4.78,-1.258 -5.677,-2.953 -5.81,-3.944 m -21.71,7.724 c 0,-0.21 0.21,-0.715 0.18,-0.82 0.44,-0.047 0.877,-0.076 1.324,-0.133 a 0.344,0.344 0 0 0 0.048,-0.665 c -3.515,-1.07 -6.25,-3.602 -7.535,-4.84 l -0.313,-0.095 c -1.163,0.247 -2.325,0.533 -3.468,0.676 a 0.34,0.34 0 0 0 -0.287,0.24 0.3,0.3 0 0 0 0.113,0.353 c 2.723,2.275 5.524,3.733 7.762,4.39 -0.607,0.05 -1.21,0.115 -1.827,0.153 -0.152,0.01 -0.276,0.095 -0.314,0.238 -0.03,0.096 -0.01,0.115 -0.01,0.115 0.03,1.542 1.97,2.733 3.316,3.38 l 0.152,0.04 c 0.83,0.02 1.304,-0.19 2.114,-0.19 0.19,0 0.63,-0.125 0.81,-0.125 a 0.33,0.33 0 0 0 0.324,-0.238 c 0.04,-0.153 -0.01,-0.324 -0.152,-0.39 -1.667,-0.982 -2.248,-1.62 -2.24,-2.087 m -10.48,1.475 c 0,-0.2 0.067,-0.37 0.153,-0.533 0.028,-0.038 0.97,-0.18 1.43,-0.238 a 0.354,0.354 0 0 0 0.294,-0.306 0.348,0.348 0 0 0 -0.236,-0.365 c -3.515,-1.068 -5.916,-3.27 -7.212,-4.517 l -0.303,-0.076 c -1.155,0.22 -2.336,0.295 -3.49,0.438 a 0.338,0.338 0 0 0 -0.275,0.238 0.353,0.353 0 0 0 0.114,0.364 c 2.524,2.125 4.81,3.44 6.972,4.135 -0.485,0.026 -0.96,0.084 -1.456,0.112 a 0.326,0.326 0 0 0 -0.306,0.238 c -0.02,0.097 -0.01,0.125 -0.02,0.125 0.2,1.086 1.648,2.39 3,3.05 l 0.134,0.027 c 0.82,0.02 2.848,0.03 3.048,0.03 a 0.346,0.346 0 0 0 0.324,-0.248 0.36,0.36 0 0 0 -0.152,-0.39 c -1.677,-0.972 -2.03,-1.63 -2.02,-2.087 m 20.337,-4.84 c 0.744,-0.19 1.554,-0.46 2.125,-0.564 a 0.337,0.337 0 0 0 0.276,-0.334 0.345,0.345 0 0 0 -0.276,-0.333 c -4.354,-0.868 -7.44,-3.526 -8.927,-5.107 -0.092,-0.083 -0.216,-0.13 -0.33,-0.083 -0.972,0.267 -2.344,0.81 -3.24,1 a 0.325,0.325 0 0 0 -0.256,0.258 0.32,0.32 0 0 0 0.114,0.333 c 3.268,2.584 5.868,3.898 7.802,4.556 a 5.73,5.73 0 0 1 -0.915,0.18 0.336,0.336 0 0 0 -0.247,0.173 0.363,0.363 0 0 0 -0.04,0.294 c 0.914,2.22 3.248,3.317 5,3.87 l 0.115,0.02 c 1.04,-0.058 2.325,-0.363 3.354,-0.44 a 0.327,0.327 0 0 0 0.303,-0.294 0.317,0.317 0 0 0 -0.227,-0.36 c -2.906,-1.02 -4.297,-2.21 -4.63,-3.164 m 64.682,-52.52 c -0.99,0.77 -2.01,1.57 -3.087,2.37 -0.094,0.058 -0.142,0.18 -0.132,0.296 a 0.35,0.35 0 0 0 0.163,0.275 c 3.22,1.83 4.8,2.325 8.25,3.202 0.025,0 0.606,0.123 0.635,0.123 a 0.36,0.36 0 0 0 0.227,-0.086 c 0.59,-0.543 1.182,-0.99 1.763,-1.43 0.905,0.487 2.267,0.85 3.286,1.335 a 0.338,0.338 0 0 0 0.42,-0.125 c 0.39,-0.59 1.01,-1.762 1.43,-2.41 0.085,-0.14 0.057,-0.284 -0.03,-0.41 -0.313,-0.493 -1.97,-1.01 -3.152,-1.436 -0.17,-0.077 -0.342,-0.115 -0.466,0.02 -0.457,0.446 -0.876,0.846 -1.305,1.256 -2.747,-0.668 -4.83,-1.582 -7.64,-3.002 a 0.353,0.353 0 0 0 -0.365,0.02 m 1.2,11.155 c -0.075,-0.06 -0.142,-0.136 -0.23,-0.155 a 0.29,0.29 0 0 0 -0.274,0.076 c -0.342,0.278 -0.713,0.563 -1.066,0.85 -4.563,-1.61 -6.068,-3.2 -8.67,-4.63 a 0.33,0.33 0 0 0 -0.38,0.04 248.54,248.54 0 0 1 -3.286,2.655 0.317,0.317 0 0 0 -0.125,0.277 c 0,0.105 0.058,0.21 0.153,0.267 4.25,2.866 6.65,4.39 9.46,4.914 l 0.267,-0.078 c 0.363,-0.276 1.048,-0.667 1.41,-0.943 2.373,2.067 4.45,2.334 5.183,2.334 a 0.31,0.31 0 0 0 0.133,0.038 0.32,0.32 0 0 0 0.237,-0.104 c 0.62,-0.62 1.896,-2.17 2.496,-2.79 0.056,-0.066 0.19,-0.466 0.19,-0.552 -0.01,-0.095 -0.038,-0.238 -0.134,-0.247 -0.79,-0.066 -3.944,-0.82 -5.363,-1.952 m -9.877,8.068 a 0.313,0.313 0 0 0 -0.39,-0.14 0.154,0.154 0 0 0 -0.067,0.037 0.18,0.18 0 0 0 -0.113,0.104 c 0,0 -0.037,0.07 -0.047,0.098 0,0.01 -0.668,0.733 -0.8,0.714 -4.993,-1.067 -5.136,-2.77 -7.803,-4.24 -0.124,-0.066 -0.267,-0.066 -0.372,0.03 a 198.966,198.966 0 0 1 -3.286,2.667 0.33,0.33 0 0 0 -0.128,0.276 c 0,0.114 0.057,0.2 0.143,0.267 4.24,2.867 5.344,3.64 8.107,4.134 l 0.266,-0.065 c 0.373,-0.26 0.725,-0.555 1.087,-0.82 2.525,2.79 6.42,2.447 7.193,2.685 a 0.36,0.36 0 0 0 0.142,0.03 0.4,0.4 0 0 0 0.247,-0.096 c 0.57,-0.59 2.066,-1.98 2.694,-2.65 a 0.31,0.31 0 0 0 0.077,-0.34 0.342,0.342 0 0 0 -0.275,-0.23 c -0.01,0 -5.134,0.17 -6.678,-2.46 m -102.073,33.163 -0.238,-0.152 a 66.908,66.908 0 0 1 -3.2,-0.486 0.34,0.34 0 0 0 -0.353,0.163 0.314,0.314 0 0 0 0.02,0.372 21.805,21.805 0 0 0 3.265,3.448 l -0.05,-0.02 a 0.352,0.352 0 0 0 -0.352,0.144 c -0.077,0.132 -0.077,0.275 0.01,0.38 0.008,0.01 0.342,0.715 0.894,1.22 l 0.134,0.076 c 0.553,0.18 1.42,0.325 1.954,0.477 0.03,0.02 0.057,0.02 0.085,0.02 a 0.37,0.37 0 0 0 0.247,-0.096 c 0.095,-0.104 0.124,-0.23 0.076,-0.352 -0.02,-0.046 -0.353,-0.313 -0.353,-0.38 0,-0.047 0.02,-0.066 0.028,-0.114 0.65,0.066 1.336,0.13 1.8,0.218 h 0.06 a 0.33,0.33 0 0 0 0.314,-0.22 0.36,0.36 0 0 0 -0.124,-0.41 c -2.087,-1.37 -3.525,-3.237 -4.22,-4.284 m -34.666,-12.05 -0.143,-0.19 -2.676,-1.82 c -0.124,-0.067 -0.286,-0.067 -0.39,0.02 -0.124,0.084 0.895,2.695 0.895,2.695 l 0.112,0.152 c 0.01,0.01 1.03,1.21 3,2.427 0.058,0.03 0.125,0.047 0.192,0.047 a 0.33,0.33 0 0 0 0.255,-0.133 0.317,0.317 0 0 0 -0.03,-0.448 c -0.62,-0.62 -1.21,-2.754 -1.22,-2.754 M 351.67,294.5 c 0.028,0.01 0.057,0.01 0.085,0.01 a 0.342,0.342 0 0 0 0.305,-0.2 c 0.486,-1 0.934,-2 1.343,-2.99 a 0.313,0.313 0 0 0 -0.01,-0.277 c -0.053,-0.095 -0.14,-0.162 -0.225,-0.17 -2.8,-0.573 -3.267,-0.935 -6.087,-2.354 a 0.334,0.334 0 0 0 -0.36,0.025 c -0.953,0.774 -1.124,1.64 -1.972,2.25 a 0.336,0.336 0 0 0 -0.133,0.296 c 0.01,0.105 0.067,0.22 0.17,0.277 2.746,1.553 3.965,2.39 6.89,3.134 m 3.62,-10.67 h 0.046 a 0.325,0.325 0 0 0 0.294,-0.19 c 0.363,-0.925 0.687,-1.84 0.983,-2.735 0.01,-0.027 0.02,-0.046 0.028,-0.084 a 0.302,0.302 0 0 0 -0.065,-0.22 0.38,0.38 0 0 0 -0.156,-0.112 c -0.02,0 -0.047,-0.01 -0.086,-0.01 -2.58,-0.314 -1.487,0.086 -4,-0.914 a 0.312,0.312 0 0 0 -0.354,0.094 c -0.63,0.735 -1.277,1.487 -1.953,2.26 a 0.31,0.31 0 0 0 -0.074,0.267 c 0.02,0.104 0.087,0.17 0.17,0.22 2.508,1.15 2.584,0.99 5.166,1.428"
       id="path32"
       inkscape:connector-curvature="0"
       style="fill:#d31145" />
    <path
       d="m 253.78,80.277 c -97.197,0.01 -176.275,79.097 -176.284,176.294 0.01,97.2 79.087,176.27 176.284,176.29 97.197,-0.02 176.275,-79.09 176.285,-176.275 C 430.055,159.38 350.977,80.293 253.78,80.283 m 0.553,344.643 c -92.55,0 -167.568,-75.02 -167.568,-167.568 0,-92.548 75.02,-167.577 167.568,-167.586 92.547,0.008 167.567,75.038 167.567,167.585 0,92.55 -75.02,167.568 -167.563,167.568"
       id="path34"
       inkscape:connector-curvature="0"
       style="fill:#ffffff" />
    <path
       d="m 392.207,372.106 h 2.03 v 5.535 h 1.38 v -5.53 h 2.03 v -1.2 h -5.44 v 1.2 m 10.66,3.2 h -0.03 l -1.57,-4.4 h -2.373 v 6.734 h 1.372 v -5.352 h 0.02 l 1.895,5.355 h 1.34 l 1.942,-5.353 h 0.03 v 5.354 h 1.38 v -6.734 H 404.5 l -1.63,4.4"
       id="path36"
       inkscape:connector-curvature="0"
       style="fill:#002b5c" />
    <path
       d="m 340.527,333.544 c 15.242,-17.357 24.235,-38.105 27.178,-59.416 -1.114,0.096 -2.696,0.248 -4.525,0.41 h -0.01 c 0.153,-0.01 0.287,-0.03 0.43,-0.038 -2.973,20.177 -11.565,39.79 -26.026,56.243 a 0.647,0.647 0 0 1 -0.115,0.115 c -21.59,24.52 -51.78,37.085 -82.08,37.085 h -0.02 c -24.028,0.01 -48.196,-7.878 -68.23,-23.91 a 103.885,103.885 0 0 1 -4.068,-3.4 86.504,86.504 0 0 1 -2.362,-2.183 6.594,6.594 0 0 1 -0.37,-0.343 90.306,90.306 0 0 1 -2.553,-2.486 2.166,2.166 0 0 1 -0.21,-0.21 108.627,108.627 0 0 1 -13.937,-17.22 895.448,895.448 0 0 1 -4.17,1.6 113.423,113.423 0 0 0 15.946,19.7 c 1.553,1.517 3.115,3.01 4.763,4.45 21.54,18.94 48.324,28.266 74.93,28.256 h 0.04 c 31.513,0 62.95,-13.098 85.385,-38.648"
       id="path38"
       inkscape:connector-curvature="0"
       style="fill:#ffffff" />
  </g>
</svg>
