<?xml version="1.0" encoding="UTF-8" standalone="no"?>
<svg
   xmlns:dc="http://purl.org/dc/elements/1.1/"
   xmlns:cc="http://creativecommons.org/ns#"
   xmlns:rdf="http://www.w3.org/1999/02/22-rdf-syntax-ns#"
   xmlns:svg="http://www.w3.org/2000/svg"
   xmlns="http://www.w3.org/2000/svg"
   xmlns:sodipodi="http://sodipodi.sourceforge.net/DTD/sodipodi-0.dtd"
   xmlns:inkscape="http://www.inkscape.org/namespaces/inkscape"
   width="512"
   height="512"
   viewBox="0 0 512 512"
   version="1.1"
   id="svg16"
   sodipodi:docname="new-york-yankees.svg"
   inkscape:version="0.92.5 (2060ec1f9f, 2020-04-08)">
  <metadata
     id="metadata22">
    <rdf:RDF>
      <cc:Work
         rdf:about="">
        <dc:format>image/svg+xml</dc:format>
        <dc:type
           rdf:resource="http://purl.org/dc/dcmitype/StillImage" />
      </cc:Work>
    </rdf:RDF>
  </metadata>
  <defs
     id="defs20" />
  <sodipodi:namedview
     pagecolor="#ffffff"
     bordercolor="#666666"
     borderopacity="1"
     objecttolerance="10"
     gridtolerance="10"
     guidetolerance="10"
     inkscape:pageopacity="0"
     inkscape:pageshadow="2"
     inkscape:window-width="640"
     inkscape:window-height="480"
     id="namedview18"
     showgrid="false"
     inkscape:zoom="0.4609375"
     inkscape:cx="256"
     inkscape:cy="256"
     inkscape:window-x="0"
     inkscape:window-y="0"
     inkscape:window-maximized="0"
     inkscape:current-layer="svg16" />
  <title
     id="title2">new-york-yankees</title>
  <g
     id="g14"
     transform="translate(-6)"
     style="fill:none;fill-rule:evenodd">
    <path
       d="m 253.57,67.644 c -94.604,0 -171.57,77.18 -171.57,172.05 0,65.953 36.62,124.98 95.552,154.24 -0.247,0.488 -0.817,1.593 -0.817,1.593 -2.736,5.362 -8.436,16.508 -10.17,17.322 l -3.223,1.01 c -1.592,0.38 -3.232,0.778 -4.682,1.894 -1.55,1.2 -3.94,5.742 -3.94,8.09 l -0.115,0.798 c -0.137,0.704 -0.32,1.682 -0.32,2.877 0,3.812 1.876,9.835 13.302,16.175 0.016,0.005 2.315,1.22 2.315,1.22 15.55,7.346 20.98,1.582 23.026,-0.58 l 0.58,-0.572 c 1.887,-1.37 4.165,-5.97 4.228,-7.936 0.006,-0.075 0.006,-0.15 0.006,-0.223 0,-1.735 -0.617,-3.23 -1.213,-4.685 l -1.07,-3.216 a 0.72,0.72 0 0 1 -0.016,-0.154 c 0,-2.18 5.98,-13.703 8.89,-19.313 0,0 1.276,-2.465 1.67,-3.237 a 171.265,171.265 0 0 0 47.56,6.74 c 94.6,0 171.565,-77.183 171.565,-172.05 0,-94.87 -76.966,-172.05 -171.564,-172.05"
       id="path4"
       inkscape:connector-curvature="0"
       style="fill:#ffffff" />
    <path
       d="m 188.472,290.535 a 0.98,0.98 0 0 0 0.143,1.385 l 2.4,1.978 a 0.995,0.995 0 0 0 1.385,-0.143 0.99,0.99 0 0 0 -0.137,-1.39 l -2.404,-1.973 a 0.99,0.99 0 0 0 -1.39,0.143 m 10.365,8.772 a 0.968,0.968 0 0 0 1.35,-0.3 0.977,0.977 0 0 0 -0.285,-1.36 l -2.18,-1.4 a 0.986,0.986 0 0 0 -1.36,0.295 0.993,0.993 0 0 0 0.3,1.364 l 2.18,1.4 m -3.85,11.148 a 0.99,0.99 0 0 0 -0.07,-1.396 l -4.593,-4.162 a 0.988,0.988 0 0 0 -1.392,0.07 1,1 0 0 0 0.07,1.395 l 4.597,4.166 a 0.98,0.98 0 0 0 1.386,-0.068 m 127.503,-9.768 a 0.986,0.986 0 1 0 0.19,1.96 l 4.384,-0.44 a 0.978,0.978 0 0 0 0.88,-1.08 0.994,0.994 0 0 0 -1.086,-0.882 l -4.367,0.44"
       id="path6"
       inkscape:connector-curvature="0"
       style="fill:#e4002b" />
    <path
       d="m 311.358,254.452 c 5.14,-9.803 -7.17,-23.414 -25.377,-32.382 -18.202,-8.962 -35.634,-10.765 -41.22,-0.084 -3.01,5.753 3.49,13.716 14.566,21.13 0.416,-1.19 0.807,-2.333 1.186,-3.46 0.274,-0.84 0.443,-1.733 0.823,-2.51 0.18,-0.588 0.407,-1.217 0.58,-1.793 0.138,-0.434 0.807,-1.497 1.372,-2.327 2.235,-3.34 9.728,-4.03 16.714,-0.73 6.997,3.31 11.985,11.094 10.045,16.197 -0.01,0.016 -0.005,0.03 -0.015,0.047 -0.365,0.936 -1.093,2.184 -1.367,2.544 a 302.165,302.165 0 0 0 -3.518,4.8 c 12.73,4.263 23.163,4.38 26.216,-1.432 M 280.58,262.6 h -0.142 a 201.49,201.49 0 0 0 -1.62,2.364 0.22,0.22 0 0 0 0.043,0.07 c 6.585,2.288 18.675,10.637 22.677,14.883 0.11,0.127 0.29,0.286 0.396,0.402 0.045,0.02 0.09,0.022 0.13,0.04 a 46.487,46.487 0 0 1 3.07,-1.76 40.71,40.71 0 0 1 1.85,-0.918 l -0.128,-0.132 c -2.62,-2.41 -19.276,-12.103 -26.273,-14.953"
       id="path8"
       inkscape:connector-curvature="0"
       style="fill:#003087" />
    <path
       d="m 255.31,254.21 c 0.395,-1.022 0.78,-2.048 1.16,-3.052 -6.607,-3.47 -18.197,-7.45 -24.176,-9.782 a 26.853,26.853 0 0 1 -2.805,-1.312 35.954,35.954 0 0 1 -5,-3.2 c -6.853,-5.15 -13.63,-13.678 -12.31,-24.21 1.165,-9.344 8.568,-13.95 18.966,-15.23 a 50.322,50.322 0 0 1 5.182,-0.37 c 16.52,-0.37 38.38,5.922 55.43,14.504 13.235,6.658 30.947,19.56 39.65,27.988 2.143,2.068 3.85,3.812 5.306,5.436 1.23,1.37 2.266,2.65 3.105,3.865 2.752,4.02 3.575,7.646 3.97,13.796 0.032,6.25 -1.698,11.87 -3.81,16.323 -0.034,0.063 -0.044,0.116 -0.065,0.174 a 45.217,45.217 0 0 1 5.764,-2.945 c 0.02,-0.074 0.03,-0.127 0.042,-0.138 0.127,-0.57 0.206,-1.68 0.206,-1.68 2.766,-13.01 0.23,-24.483 -3.77,-32.827 a 45.394,45.394 0 0 0 -3.166,-5.557 c -1.524,-2.274 -3.106,-4.178 -4.598,-5.58 -6.828,-6.423 -3.575,-1.622 -1.313,1.318 1.61,2.09 2.38,3.31 3.06,4.6 1.21,2.295 1.767,3.66 1.856,4.346 -0.04,0.17 -0.082,0.34 -0.13,0.497 -0.49,0.18 -2.1,-1.21 -4.56,-3.743 -9.29,-9.52 -25.473,-21.596 -40.342,-29.047 -18.28,-9.167 -40.226,-13.99 -54.478,-14.54 a 66.97,66.97 0 0 0 -4.446,-0.047 c 2.37,-1.095 4.293,-1.766 6.155,-2.237 2.604,-0.668 5.088,-0.92 8.5,-1.266 5.172,-0.52 3.137,-1.557 0,-1.314 -1.894,0.144 -4.198,0.276 -6.708,0.498 a 97.5,97.5 0 0 0 -6.047,0.682 c -11.28,1.628 -24.133,5.885 -26.822,19.432 -2.715,13.652 6.01,25.613 16.425,32.18 a 38.82,38.82 0 0 0 5.22,2.77 c 0.437,0.19 0.875,0.396 1.313,0.56 11.078,4.336 22.773,9.48 23.04,9.597 0.007,0 0.028,0.01 0.028,0.01 l 0.163,-0.498 m 44.348,-53.575 c 7.878,3.95 18.16,11.622 29.517,24.556 l 10.124,-5.81 1.906,-1.095 c -3.28,-20.61 -14.753,-34.725 -30.613,-43.3 -21.53,-11.645 -45.59,-5.707 -55.536,1.204 l 0.877,11.726 c 17.496,0.883 35.86,8.772 43.72,12.717 z m 28.54,11.65 1.277,-3.703 2.336,3.37 3.93,0.027 -2.414,3.278 1.033,3.854 -3.655,-1.48 -3.39,2.278 0.232,-4.135 -3.285,-2.375 3.94,-1.115 z m -21.147,-27.18 5.886,3.416 5.92,-2.712 -1.35,6.627 4.272,5.076 -6.543,0.336 -3.5,5.816 -2.548,-6.388 -6.596,-1.26 5.144,-4.457 -0.685,-6.457 z m -22.497,-6.377 2.845,-4.774 2.25,5.288 5.448,1.487 -4.423,3.41 0.362,5.78 -4.867,-3.24 -5.23,2.327 1.444,-5.62 -3.604,-4.18 5.774,-0.47 z m -21.262,0.36 1.134,-3.49 2.23,3.078 3.714,0.16 -2.352,2.844 1.078,3.67 -3.607,-1.37 -3.03,2.257 0.12,-3.83 -2.93,-2.174 3.65,-1.147 z m 99.98,140.044 v -7.09 h 2.6 v -1.54 h -6.95 v 1.54 h 2.595 v 7.09 h 1.756 m 14.373,0 v -8.63 h -3.027 l -2.082,5.64 h -0.047 l -1.998,-5.638 h -3.05 v 8.63 h 1.76 v -6.862 h 0.04 l 2.41,6.864 h 1.695 l 2.495,-6.863 h 0.045 v 6.864 h 1.757"
       id="path10"
       inkscape:connector-curvature="0"
       style="fill:#003087" />
    <path
       d="m 267.14,307.038 c 3.25,2.496 13.014,-0.55 22.178,-8.762 l 0.86,-0.682 c 0.116,0.714 0.316,1.433 0.643,2.142 4.04,8.846 23.03,5.61 37.45,-4.775 0.11,1.05 0.39,2.11 0.93,3.15 3.933,7.684 20.05,5.54 33.04,-2.29 0.294,0.958 0.684,1.95 1.317,2.984 1.52,2.47 5.2,4.664 8.484,5.22 5.15,0.877 11.357,0.21 14.964,-4.696 0.945,-1.28 1.514,-2.654 1.91,-4.04 5.135,-4.383 17.647,-18.083 25.578,-34.47 2.27,-4.722 2.907,-16.91 2.838,-21.135 l -0.1,-0.28 c 0,-90.546 -73.212,-163.955 -163.507,-163.955 -80.446,0 -147.32,58.265 -160.95,135.01 l 15.86,-16.852 c 7.234,-22.598 19.604,-42.897 35.697,-59.527 0.474,0.385 0.933,0.776 1.386,1.173 l -3.76,11.547 a 0.983,0.983 0 0 0 0.628,1.247 0.99,0.99 0 0 0 1.246,-0.635 c 0,0 2.64,-8.084 3.517,-10.78 1.487,1.3 2.926,2.653 4.355,4.017 l -4.688,11.113 a 0.99,0.99 0 0 0 0.52,1.296 c 0.495,0.215 1.065,-0.028 1.286,-0.52 l 4.403,-10.443 c 1.38,1.35 2.71,2.745 4.025,4.15 l -4.566,11.237 c -0.194,0.498 0.043,1.08 0.54,1.276 a 0.975,0.975 0 0 0 1.28,-0.53 l 4.234,-10.406 c 0.67,0.74 1.34,1.48 1.998,2.232 0,0.02 -0.015,0.037 -0.015,0.064 0.05,0.363 0.33,0.586 0.66,0.702 0.077,0.094 0.16,0.205 0.25,0.306 l -5.84,11.087 a 0.976,0.976 0 0 0 0.4,1.332 0.992,0.992 0 0 0 1.337,-0.413 l 5.467,-10.385 c 0.87,1.04 1.746,2.09 2.59,3.16 0.142,0.18 0.273,0.37 0.416,0.553 0.247,0.317 0.484,0.66 0.737,0.99 l -6.75,10.15 a 0.99,0.99 0 0 0 0.275,1.37 0.982,0.982 0 0 0 1.366,-0.274 l 6.366,-9.576 a 148.46,148.46 0 0 1 4.26,6.107 c -0.047,0.033 -0.105,0.017 -0.142,0.065 l -7.872,8.543 a 0.993,0.993 0 0 0 0.047,1.395 c 0.406,0.365 1.034,0.35 1.4,-0.053 l 7.654,-8.317 c 1.7,2.66 3.34,5.356 4.868,8.122 l -8.71,9.147 a 0.974,0.974 0 0 0 0.04,1.394 c 0.384,0.375 1,0.36 1.39,-0.03 0,0 6.165,-6.485 8.237,-8.658 a 140.85,140.85 0 0 1 3.76,7.64 l -9.25,9.058 a 0.98260279,0.98260279 0 1 0 1.372,1.407 c 0,0 6.652,-6.51 8.73,-8.55 1.402,3.21 2.725,6.456 3.89,9.766 l -9.85,9.883 a 0.996,0.996 0 0 0 0.008,1.39 0.975,0.975 0 0 0 1.385,0 c 0,0 7.012,-7.022 9.142,-9.174 a 137.276,137.276 0 0 1 2.858,9.702 l -3.77,3.78 a 0.982,0.982 0 0 0 0,1.39 0.972,0.972 0 0 0 1.392,0 l 2.942,-2.96 a 143.486,143.486 0 0 1 2.2,11.024 l -9.814,9.83 a 1.01,1.01 0 0 0 -0.005,1.4 0.978,0.978 0 0 0 1.396,0 l 8.77,-8.783 a 140.836,140.836 0 0 1 1.29,14.29 l -11.36,9.035 a 0.98,0.98 0 0 0 -0.163,1.385 0.968,0.968 0 0 0 1.378,0.154 l 10.217,-8.11 c 0.028,1.13 0.1,2.255 0.1,3.387 0,3.23 -0.115,6.345 -0.32,9.423 l -10.936,7.302 a 0.99,0.99 0 0 0 1.097,1.643 l 9.613,-6.424 c -0.344,4.077 -0.855,8.11 -1.593,12.2 l -12.217,4.985 a 0.99,0.99 0 0 0 -0.543,1.285 0.98,0.98 0 0 0 1.286,0.54 l 11.047,-4.505 c -0.49,2.476 -1.022,4.96 -1.66,7.52 -0.016,0.058 0.03,0.11 0.03,0.17 a 0.79,0.79 0 0 0 0.05,0.348 c 0.036,0.122 0.09,0.233 0.173,0.328 0.03,0.055 0.027,0.108 0.07,0.155 l 6.776,5.7 a 0.986,0.986 0 0 0 1.265,-1.512 l -6.314,-5.315 a 152.442,152.442 0 0 0 1.713,-7.735 c 2.613,1.105 12.56,5.29 12.56,5.29 a 0.985,0.985 0 0 0 1.29,-0.536 1,1 0 0 0 -0.528,-1.285 l -12.99,-5.46 a 133.768,133.768 0 0 0 1.592,-12.55 c 3.006,1.223 12.175,4.93 12.175,4.93 0.5,0.2 1.08,-0.043 1.285,-0.55 a 0.996,0.996 0 0 0 -0.548,-1.286 L 197.44,253.3 c 0.2,-3.116 0.32,-6.256 0.32,-9.52 0,-1.226 -0.08,-2.442 -0.105,-3.67 l 12.844,5.464 a 0.973,0.973 0 0 0 1.286,-0.526 0.992,0.992 0 0 0 -0.517,-1.294 l -13.678,-5.816 a 143.672,143.672 0 0 0 -1.245,-14.024 l 11.806,4.14 a 0.987,0.987 0 0 0 1.257,-0.602 0.992,0.992 0 0 0 -0.612,-1.264 l -12.76,-4.473 c 0,-0.024 -0.005,-0.04 -0.005,-0.06 0.07,-0.244 0.026,-0.46 -0.095,-0.688 a 147.477,147.477 0 0 0 -2.14,-10.902 l 12.68,3.325 a 0.973,0.973 0 0 0 1.202,-0.704 0.985,0.985 0 0 0 -0.7,-1.205 l -13.747,-3.612 c -0.87,-3.4 -1.84,-6.768 -2.946,-10.09 l 13.963,1.17 a 0.98,0.98 0 0 0 1.054,-0.9 0.975,0.975 0 0 0 -0.893,-1.067 l -14.772,-1.23 c -1.176,-3.337 -2.505,-6.615 -3.918,-9.85 3.57,0.216 12.86,0.77 12.86,0.77 a 0.995,0.995 0 0 0 1.05,-0.924 0.987,0.987 0 0 0 -0.93,-1.042 l -13.882,-0.84 a 155.272,155.272 0 0 0 -3.818,-7.76 c 3.523,-0.1 13.726,-0.397 13.726,-0.397 a 0.99,0.99 0 0 0 0.96,-0.978 c 0,-0.016 0,-0.026 -0.006,-0.032 a 0.982,0.982 0 0 0 -1.007,-0.962 l -14.68,0.42 a 144.358,144.358 0 0 0 -4.877,-8.183 l 13.984,-1.22 a 0.977,0.977 0 0 0 0.89,-1.07 0.98,0.98 0 0 0 -1.064,-0.898 l -15.06,1.316 a 137.51,137.51 0 0 0 -5.483,-7.73 l 12.022,-1.725 a 0.977,0.977 0 0 0 0.822,-1.116 0.983,0.983 0 0 0 -1.107,-0.84 l -13.08,1.878 c -1.05,-1.34 -2.153,-2.64 -3.25,-3.943 l 12.038,-1.883 a 0.996,0.996 0 0 0 0.823,-1.13 0.985,0.985 0 0 0 -1.124,-0.82 l -13.224,2.072 a 156.42,156.42 0 0 0 -3.327,-3.665 l 9.577,-3.076 a 0.985,0.985 0 0 0 0.636,-1.238 1.003,1.003 0 0 0 -1.245,-0.646 l -10.475,3.37 c -0.748,-0.78 -1.47,-1.572 -2.24,-2.333 l 9.427,-3.55 a 0.998,0.998 0 0 0 0.586,-1.27 0.98,0.98 0 0 0 -1.27,-0.573 l -10.334,3.882 c -1.554,-1.497 -3.13,-2.988 -4.76,-4.426 l 10.1,-3.755 a 0.987,0.987 0 0 0 0.646,-0.925 0.974,0.974 0 0 0 -0.07,-0.344 0.992,0.992 0 0 0 -1.265,-0.58 l -11.14,4.14 c -0.475,-0.403 -0.96,-0.81 -1.44,-1.217 27.555,-27.75 65.677,-44.93 107.8,-44.93 38.486,0 73.597,14.357 100.383,37.97 -0.833,0.95 -1.73,1.996 -2.652,3.095 -1.344,-1.93 -5.525,-7.915 -5.525,-7.915 a 0.992,0.992 0 0 0 -1.376,-0.243 1,1 0 0 0 -0.243,1.38 l 5.837,8.36 a 267.07,267.07 0 0 0 -3.32,4.15 c -1.697,-1.757 -7.565,-7.64 -7.565,-7.64 a 1.004,1.004 0 0 0 -1.403,0 c -0.38,0.38 -0.38,1.01 0,1.4 l 7.762,7.772 c -0.76,0.958 -1.446,1.857 -2,2.56 -12.84,-8.84 -28.198,-14.14 -44.623,-14.14 -17.035,0 -32.816,5.394 -45.74,14.574 -0.184,0.125 1.414,25.84 1.96,34.596 2.338,-1.28 4.795,-2.36 7.31,-3.33 l -0.6,-31.447 c 3.173,-2.518 7.486,-4.602 10.82,-5.807 l -0.713,34.41 a 60.022,60.022 0 0 1 12.01,-1.22 c 1.272,0 2.495,0.12 3.745,0.2 l 6.27,-37.89 c 8.098,-0.76 16.19,0.11 23.294,2.42 l -14.684,38.26 a 60.11,60.11 0 0 1 18.444,9.9 l 26.01,-33.216 c 5.642,4.93 10.108,9.67 14.49,16.583 l -30.36,26.734 a 60.457,60.457 0 0 1 7.956,13.224 l 31.3,-21.728 c 0.627,1.232 2.435,8.777 2.14,10.982 l -30.376,19.68 a 62.77,62.77 0 0 1 1.27,6.113 c 7.583,-4.32 35.25,-20.087 35.264,-20.325 -2.366,-23.335 -15.19,-44.115 -33.57,-57.44 a 606.61,606.61 0 0 1 2.025,-2.596 c 2.447,1.2 8.368,4.034 8.368,4.034 a 1,1 0 0 0 1.32,-0.465 0.985,0.985 0 0 0 -0.47,-1.317 c 0,0 -5.53,-2.644 -7.988,-3.812 a 244.326,244.326 0 0 1 3.322,-4.14 l 10.486,3.638 c 0.44,0.152 0.882,-0.076 1.12,-0.47 26.268,27.414 42.434,64.634 42.434,105.65 l 0.09,0.128 c -0.976,28.224 -6.46,40.47 -16.462,47.863 -0.443,-2.84 -1.376,-5.347 -2.12,-6.87 -1.523,-3.15 -0.838,-3.32 0.217,-4.35 5.63,-4.866 6.775,-9.826 4.693,-11.317 -3.043,-2.178 -11.653,4.765 -12.75,11.422 -0.153,0.994 -0.31,2.057 -0.443,3.125 -1.846,2.195 -4.272,4.205 -6.544,5.817 -3.206,-2.935 -10.03,0.375 -10.477,6.42 -6.27,3.49 -11.316,5.392 -15.962,5.44 -5.69,0.047 -7.18,-3.326 -6.126,-6.404 0.013,-0.026 0.008,-0.042 0.008,-0.053 0.01,0.022 0.064,0.074 0.375,0.053 11.11,-0.867 24.213,-7.27 22.094,-14.773 -1.247,-4.4 -8.84,-3.823 -16.53,-0.582 a 46.354,46.354 0 0 0 -5.77,2.946 c -5.068,3.083 -9.43,7.154 -11.04,11.47 -7.795,6.662 -15.88,8.92 -21.388,8.972 -5.68,0.048 -7.18,-3.326 -6.127,-6.403 0.05,-0.133 -0.12,0 0.38,-0.017 12.133,-0.106 26.84,-7.212 23.728,-15.16 -0.79,-2.035 -2.662,-3.072 -5.14,-3.363 -3.184,-0.365 -7.392,0.534 -11.66,2.306 a 35.62,35.62 0 0 0 -1.685,0.744 35.59,35.59 0 0 0 -1.86,0.916 49.166,49.166 0 0 0 -3.065,1.756 c -2.64,1.655 -5.093,3.58 -7.086,5.668 -1.76,1.84 -3.152,3.807 -4.007,5.81 -3.922,5.24 -11.03,10.312 -13.514,9.984 -5.7,-0.757 -0.195,-6.965 -5.752,-7.99 4.287,-0.71 9.66,-3.258 12.944,-6.77 1.256,-1.343 2.216,-2.82 2.68,-4.394 a 7.24,7.24 0 0 0 0.01,-4.182 c -1.576,-5.42 -11.02,-3.823 -16.804,-0.857 l -0.22,0.127 a 814.97,814.97 0 0 1 8.51,-12.8 c 0.547,-0.795 1.085,-1.582 1.613,-2.354 a 367.255,367.255 0 0 1 4.655,-6.63 0.327,0.327 0 0 1 0.058,-0.09 c 1.213,-1.694 2.394,-3.3 3.517,-4.798 0.28,-0.37 1,-1.614 1.37,-2.544 0.01,-0.016 0.005,-0.032 0.01,-0.048 1.946,-5.108 -3.047,-12.89 -10.05,-16.2 -6.975,-3.3 -14.467,-2.613 -16.714,0.728 -0.56,0.836 -1.232,1.9 -1.36,2.332 -0.184,0.577 -0.405,1.206 -0.59,1.787 -0.26,0.825 -0.537,1.677 -0.822,2.517 -0.4,1.222 -0.753,2.396 -1.19,3.654 -0.88,2.544 -1.84,5.17 -2.847,7.842 a 386.46,386.46 0 0 1 -1.155,3.05 l -0.163,0.503 -0.027,-0.013 a 524.398,524.398 0 0 1 -6.37,15.715 c -0.56,1.344 -1.128,2.67 -1.72,4.02 -3.463,8.063 -7.085,16.058 -10.602,23.604 -1.623,1.1 -4.63,2.94 -5.852,2.152 -3,-1.91 10.587,-15.614 6.115,-20.252 -3.658,-3.823 -15.005,1.597 -20.383,7.218 0.612,-1.65 0.775,-4.695 -1.587,-7.02 -7.58,-7.467 -29.874,26.807 -33.75,24.005 -2.22,-1.61 6.464,-11.84 10.65,-23.147 l -9.226,0.08 -1.366,2.17 c 0.058,-0.57 -0.227,-1.28 -1.028,-2.016 -10.193,-9.406 -35.465,17.735 -26.16,25.82 4.35,3.776 14.65,-0.767 18.893,-6.377 -2.852,6.108 -0.717,8.536 0.09,9.117 9.464,6.943 29.622,-25.735 33.065,-22.72 2.42,2.125 -10.045,20.415 -9.47,20.854 l 9.35,-0.08 c 3.97,-7.07 6.885,-12.67 6.885,-12.67 5.24,-6.06 11.68,-10.915 13.24,-9.054 2.583,3.098 -11.1,14.176 -6.623,21.145 2.146,3.363 10.56,-0.746 14.648,-3.88 -8.23,17.395 -15.397,31.487 -17.653,36.07 -4.21,8.593 -12.577,24.44 -21.108,40.14 -14.32,-6.182 -27.678,-14.6 -39.55,-24.79 0.014,-0.2 0.02,-0.406 -0.097,-0.586 l -3.174,-5.092 a 0.438,0.438 0 0 0 0.09,-0.08 c 1.523,-1.4 2.93,-2.918 4.38,-4.383 l 5.01,5.69 a 0.97,0.97 0 0 0 1.38,0.08 0.982,0.982 0 0 0 0.085,-1.387 l -5.07,-5.78 c 1.207,-1.246 2.42,-2.505 3.575,-3.8 l 5.727,6.086 a 0.988,0.988 0 0 0 1.398,0.03 0.975,0.975 0 0 0 0.043,-1.385 l -5.884,-6.246 c 1.75,-2.026 3.52,-4.035 5.156,-6.16 1.987,2.796 5.324,7.51 5.324,7.51 a 0.974,0.974 0 0 0 1.37,0.23 0.982,0.982 0 0 0 0.24,-1.37 l -5.727,-8.074 c 1.624,-2.163 3.2,-4.347 4.698,-6.605 1.81,2.3 6.467,8.196 6.467,8.196 a 0.96,0.96 0 0 0 1.37,0.164 0.988,0.988 0 0 0 0.17,-1.387 l -6.888,-8.725 c 1.47,-2.3 2.852,-4.67 4.186,-7.065 l 7.38,6.82 a 0.98489961,0.98489961 0 0 0 1.33,-1.453 l -7.683,-7.102 a 6.48,6.48 0 0 0 0.153,-0.253 0.993,0.993 0 0 0 -0.406,-1.338 0.98,0.98 0 0 0 -1.33,0.4 c -0.12,0.227 -0.264,0.433 -0.39,0.66 -0.016,0.01 -0.03,0.006 -0.04,0.016 -0.023,0.032 -0.013,0.08 -0.04,0.117 -0.115,0.217 -0.263,0.428 -0.39,0.655 l -9.25,-0.872 a 1,1 0 0 0 -1.073,0.888 c -0.043,0.547 0.353,1.04 0.89,1.08 l 8.32,0.784 c -1.064,1.86 -2.124,3.734 -3.273,5.54 l -10.746,-1.267 a 0.972,0.972 0 0 0 -1.082,0.867 0.452,0.452 0 0 0 -0.015,0.122 c 0,0.486 0.376,0.91 0.876,0.978 0,0 7.124,0.83 9.77,1.142 -1.338,2.036 -2.773,3.982 -4.212,5.933 l -0.07,-0.097 a 0.992,0.992 0 0 0 -0.695,-0.407 l -10.5,-1.095 a 0.965,0.965 0 0 0 -1.07,0.878 c -0.01,0.037 -0.01,0.07 -0.01,0.106 a 0.98,0.98 0 0 0 0.886,0.98 l 10.045,1.052 c 0.03,0.032 0.138,0.19 0.206,0.286 -1.682,2.21 -3.495,4.32 -5.304,6.423 l -0.194,-0.21 a 1.053,1.053 0 0 0 -0.43,-0.27 l -10.06,-3.067 a 0.98,0.98 0 0 0 -1.225,0.66 0.862,0.862 0 0 0 -0.04,0.28 c 0,0.43 0.27,0.82 0.694,0.948 l 9.806,2.994 c 0.02,0.02 0.12,0.124 0.17,0.172 a 131.648,131.648 0 0 1 -3.53,3.765 l -0.177,-0.195 a 0.978,0.978 0 0 0 -0.46,-0.29 l -8.968,-2.633 a 0.993,0.993 0 0 0 -1.218,0.665 1.05,1.05 0 0 0 -0.037,0.28 0.99,0.99 0 0 0 0.706,0.947 c 0,0 8.177,2.39 8.694,2.55 a 0.71,0.71 0 0 1 0.06,0.074 c -1.403,1.422 -2.76,2.882 -4.224,4.235 l -0.143,-0.22 a 0.946,0.946 0 0 0 -0.48,-0.4 l -5.684,-2.183 c -0.043,-0.02 -0.096,0.01 -0.148,0 -5.583,-5.8 -10.756,-12.013 -15.39,-18.64 l 58.817,-111.34 -13.64,0.38 -24.076,44.93 c -7.772,7.29 -20.374,13.99 -27.576,9 -14.3,-9.91 41.71,-63.56 21.096,-81.008 -16.467,-13.924 -34.352,6.873 -40.01,16.734 -4.62,8.038 -13.276,20.363 -13.593,35.544 0.148,67.334 40.774,125.128 98.774,150.224 -5.478,9.955 -10.635,19.124 -14.326,25.385 -2.603,4.414 -4.295,6.43 -7.406,6.19 -0.59,-0.052 -1.88,0.117 -2.272,0.276 -1.556,0.608 -2.162,3.326 -2.115,4.478 0.12,2.39 2.062,6.71 9.802,10.255 7.724,3.552 12.02,3.225 14.02,1.92 0.97,-0.64 2.804,-2.73 2.383,-4.343 -0.1,-0.412 -0.73,-1.56 -1.117,-2.02 -2.02,-2.374 -1.535,-4.5 0.49,-9.21 2.89,-6.695 7.9,-16.942 13.525,-28 a 162.59,162.59 0 0 0 51.725,8.44 c 76.993,0 141.558,-53.368 158.92,-125.222 0.65,-2.634 1.35,-5.85 1.35,-5.85 -4.592,7.235 -16.724,18.017 -16.724,18.017 a 147.41,147.41 0 0 1 -29.042,49.683 l 2.262,-4.553 a 0.992,0.992 0 0 0 -0.45,-1.327 0.988,0.988 0 0 0 -1.318,0.45 c 0,0 -2.573,5.17 -2.894,5.826 -1.42,-0.904 -2.944,-2.046 -4.525,-3.363 a 5148.79,5148.79 0 0 0 5.125,-6.223 0.98485989,0.98485989 0 0 0 -1.514,-1.26 c 0,0 -3.357,4.094 -5.103,6.21 a 59.84,59.84 0 0 1 -2.24,-2.032 l 6.275,-8.666 a 0.98,0.98 0 0 0 -0.215,-1.375 0.975,0.975 0 0 0 -1.376,0.218 l -6.128,8.45 a 137.203,137.203 0 0 1 -3.7,-3.73 c 1.86,-2.24 5.71,-7.037 5.71,-7.037 a 0.98,0.98 0 0 0 -0.16,-1.38 c -0.405,-0.343 -1.027,-0.274 -1.375,0.144 0,0 -3.8,4.74 -5.5,6.85 a 177.3,177.3 0 0 1 -4,-4.416 l 5.768,-6.874 c 0.348,-0.42 0.3,-1.048 -0.11,-1.392 a 0.994,0.994 0 0 0 -1.393,0.117 c 0,0 -3.6,4.293 -5.573,6.636 a 244.657,244.657 0 0 1 -4.612,-5.545 l 5.995,-6.82 a 0.973,0.973 0 0 0 -0.09,-1.386 0.982,0.982 0 0 0 -1.388,0.09 l -5.768,6.552 a 163.97,163.97 0 0 1 -4.957,-6.595 l 2.537,-2.554 a 0.998,0.998 0 0 0 0,-1.394 0.98,0.98 0 0 0 -1.393,0 c 0,0 -1.324,1.322 -2.304,2.305 -1.138,-1.676 -2.082,-3.146 -2.694,-4.283 -0.27,-0.475 -0.86,-0.655 -1.336,-0.38 a 0.974,0.974 0 0 0 -0.39,1.338 c 0.64,1.163 1.61,2.686 2.81,4.425 l -8.686,1.577 a 0.993,0.993 0 0 0 -0.81,0.973 c 0,0.062 0.004,0.115 0.02,0.18 a 0.985,0.985 0 0 0 1.15,0.797 l 9.564,-1.75 c 1.572,2.21 3.47,4.695 5.547,7.302 l -11.39,0.38 a 0.982,0.982 0 0 0 -0.95,1.02 0.98,0.98 0 0 0 1.013,0.95 l 12.864,-0.428 a 227.127,227.127 0 0 0 3.986,4.73 c -0.7,0.208 -10.166,2.973 -10.166,2.973 a 0.983,0.983 0 0 0 -0.7,0.948 c 0,0.095 0.01,0.185 0.03,0.28 a 0.98,0.98 0 0 0 1.224,0.666 l 10.5,-3.07 a 0.948,0.948 0 0 0 0.427,-0.277 222.845,222.845 0 0 0 3.82,4.21 c -2.337,0.98 -10.615,4.746 -10.615,4.746 a 0.988,0.988 0 0 0 -0.495,1.308 0.99,0.99 0 0 0 1.302,0.488 l 11.183,-5.075 c 0.95,0.986 1.89,1.954 2.828,2.88 -0.005,0.015 -0.032,0 -0.042,0.015 l -9.617,5.695 a 0.99,0.99 0 0 0 -0.347,1.36 0.98,0.98 0 0 0 1.344,0.344 l 9.61,-5.7 c 0.17,-0.1 0.238,-0.27 0.323,-0.424 0,0.314 0.083,0.615 0.352,0.81 a 1,1 0 0 0 0.74,0.18 82.1,82.1 0 0 0 2.292,2.078 c -1.388,0.895 -8.685,5.77 -8.685,5.77 -0.445,0.3 -0.57,0.915 -0.277,1.37 0.3,0.455 0.918,0.576 1.37,0.27 l 9.113,-6.087 a 51.487,51.487 0 0 0 4.086,3.103 c -2.37,1.633 -6.434,4.414 -6.434,4.414 a 1,1 0 0 0 -0.428,0.82 c 0,0.196 0.048,0.38 0.174,0.555 a 0.99,0.99 0 0 0 1.37,0.26 l 6.09,-4.184 c -27.78,29.36 -67.358,47.346 -111.38,47.726 -15.744,0.134 -31.194,-2.436 -45.852,-7.243 8,-15.38 16.22,-30.61 20.87,-38.73 6.116,-10.73 18.25,-31.112 30.914,-51.252 l 0.11,-0.02 c 2.082,-0.15 3.358,0.02 4.117,0.66 2.78,2.353 -2.21,7.8 3.266,11.993 m 85.79,-177.207 a 128.467,128.467 0 0 1 2.444,-2.84 160.816,160.816 0 0 1 6.065,5.796 3136.12,3136.12 0 0 1 -8.51,-2.958 M 367.3,294.08 c 0.3,0.295 6.06,0.08 6.107,-5.527 1.792,-1.248 3.7,-2.728 5.43,-4.39 0.058,0.488 0.1,0.974 0.222,1.45 1.093,4.04 1.214,14.91 -7.038,14.5 -4.955,-0.244 -5.72,-4.945 -4.723,-6.034 m -13.16,-15.71 c 2.156,3.005 -5.326,9.678 -13.663,10.006 0.58,-5.204 10.99,-13.76 13.66,-10.006 m -46.09,3.597 c 1.874,-1.513 3.81,-2.518 5.306,-2.677 1.067,-0.11 1.9,0.19 2.3,1.08 1.224,2.808 -6.116,8.926 -13.424,9.888 0.706,-3.056 3.18,-6.155 5.82,-8.29 m -147.24,19.325 c -4.46,-4.975 12.933,-22.16 17.02,-17.005 3.08,4.97 -12.017,22.563 -17.02,17.005 M 102.28,240.77 c -1.187,-17.034 3.716,-27.932 7.723,-35.33 4.124,-7.6 12.898,-17.65 20.67,-16.114 12.058,2.37 4.302,18.152 -5.932,36.05 -10.002,17.498 -22.118,35.873 -12.364,46.443 7.892,8.554 24.05,6.62 33.945,-3.227 l -24.29,45.72 c -12.466,-21.706 -19.753,-46.76 -19.753,-73.536 m 46.99,108.29 c -0.4,-0.39 -0.823,-0.765 -1.23,-1.162 0.776,0.297 1.425,0.55 1.61,0.62 0.01,0.02 0.068,0.11 0.1,0.153 a 8.18,8.18 0 0 1 -0.48,0.39 m 1.523,1.418 c 0.02,-0.01 0.037,-0.025 0.058,-0.036 0.038,0.063 0.07,0.126 0.117,0.19 -0.056,-0.048 -0.103,-0.1 -0.172,-0.154 m 20.24,72.405 c 1.81,-0.474 5.258,-4.863 5.448,-5.25 0.19,-0.38 0.685,-0.76 0.438,0.06 -0.37,1.903 -1.688,3.77 -2.78,4.98 -0.648,0.72 -1.06,1.21 -1.58,1.327 -1.287,0.313 -1.767,-0.168 -1.9,-0.55 -0.01,-0.628 0.117,-0.5 0.375,-0.565 m 8.78,0.99 c -0.37,1.03 -0.63,1.8 -0.724,2.164 -0.496,1.708 -1.097,4.246 -1.592,6.472 -0.296,1.38 -1.03,1.67 -1.788,1.38 -0.464,-0.175 -0.954,-0.51 -1.355,-0.847 -0.235,-0.185 -0.552,-0.243 -0.926,-0.43 -0.112,-0.056 -0.222,0.13 -0.338,0.055 -0.18,-0.133 -0.385,-0.52 -0.59,-0.614 -0.312,-0.133 -0.765,-0.42 -1.092,-0.59 -0.285,-0.135 -0.522,-0.5 -0.77,-0.61 -0.185,-0.08 -0.353,0.09 -0.56,-0.007 -0.505,-0.255 -0.853,-0.625 -1.25,-0.858 -0.257,-0.143 -0.71,-0.402 -0.848,-0.53 -0.327,-0.274 -0.274,-0.5 -0.163,-0.676 0.178,-0.265 0.737,-0.4 0.995,-0.434 0.283,-0.048 1.243,0.307 2.33,0.835 0.864,0.42 1.813,0.985 2.55,1.207 0.61,0.185 1.355,0.01 1.687,-0.323 0.252,-0.237 0.11,-0.564 0.13,-0.898 0.038,-0.433 0.4,-0.893 0.175,-1.205 -0.29,-0.396 -0.567,-0.507 -0.852,-0.676 -0.353,-0.21 -0.7,-0.434 -1.05,-0.57 -0.632,-0.25 -0.896,-1.254 -0.142,-1.392 0,0 0.686,-0.26 1.108,-0.67 0.242,-0.232 0.142,-0.51 0.42,-0.824 0.133,-0.148 0.48,-0.286 0.576,-0.44 0.083,-0.12 -0.085,-0.242 0.025,-0.364 0.126,-0.126 0.052,-0.29 0.253,-0.5 0.173,-0.18 0.6,-0.397 0.768,-0.63 0.17,-0.2 0.334,-0.406 0.513,-0.63 3.442,-4.467 9.147,-14.476 14.077,-23.53 -2.266,4.23 -4.307,8.155 -5.214,10.122 -1.898,4.15 -4.914,11.337 -6.385,15.392 -0.08,0.217 0.1,0.43 0.026,0.624 m 14.11,-20.998 c -0.016,0.042 -0.427,0.07 -0.448,0.17 -0.043,0.115 0.025,0.263 -0.038,0.364 -0.345,0.493 -0.313,0.97 -0.49,1.53 -0.018,0.068 -0.208,0.094 -0.208,0.13 0.048,0.535 -0.585,0.905 -0.712,1.387 -0.215,0.873 -0.6,1.566 -0.943,2.42 -0.02,0.07 -0.195,0.087 -0.2,0.145 -0.042,0.35 -0.406,0.472 -0.51,0.768 -0.033,0.074 0.02,0.2 -0.028,0.227 -0.224,0.154 -0.298,0.376 -0.467,0.55 -0.058,0.074 0.01,0.238 -0.026,0.35 -0.09,0.242 -0.295,0.417 -0.327,0.655 a 12.933,12.933 0 0 1 -0.96,2.945 c -0.104,0.227 -0.262,0.55 -0.173,0.862 -0.296,-0.01 0.08,0.412 -0.26,0.375 0.006,0.26 0.075,0.533 -0.02,0.75 -0.253,0.672 -0.34,1.327 -0.485,2.036 -0.033,0.12 -0.196,0.248 -0.196,0.385 0.025,0.547 -0.565,0.985 -0.57,1.53 0,0.46 -0.285,0.767 -0.486,1.243 -0.114,0.285 -0.35,0.54 -0.54,0.814 -0.29,0.412 -0.774,0.83 -1.006,1.27 -0.074,0.137 0.27,0.396 0.095,0.464 -0.097,0.044 -0.187,0.065 -0.234,0.16 -0.18,0.35 0.2,0.835 -0.248,1.015 -0.276,0.935 -1.294,1.75 -1.59,2.68 -0.1,0.312 0.31,0.703 0.19,0.98 -0.32,0.696 -0.342,1.2 -0.58,1.923 -0.04,0.105 -0.142,0.195 -0.236,0.12 -0.1,-0.08 -0.127,-0.216 -0.153,-0.36 -0.02,-0.094 -0.274,-0.1 -0.242,-0.385 0.11,-0.946 0.7,-1.343 0.932,-2.22 0.31,-1.19 0.507,-2.232 0.717,-3.353 0.057,-0.3 0.173,-0.57 0.21,-0.904 0.01,-0.09 -0.063,-0.157 -0.058,-0.252 0.056,-0.36 0.37,-0.635 0.273,-1.01 0.543,-0.672 0.39,-1.592 0.954,-2.31 0.09,-0.112 0.365,-0.344 0.433,-0.482 0.414,-0.782 0.3,-1.56 0.788,-2.336 0.046,-0.085 0.094,-0.042 0.147,-0.138 0.084,-0.18 0.532,-0.498 0.585,-0.704 0.04,-0.153 -0.196,-0.338 -0.07,-0.53 0.032,-0.062 -0.016,-0.163 0.016,-0.237 0.13,-0.36 0.43,-0.63 0.542,-1 0.143,-0.44 0.295,-0.91 0.607,-1.257 0.072,-0.086 0.183,-0.176 0.183,-0.303 0.016,-0.12 -0.105,-0.243 0.27,-0.375 -0.033,-0.497 0.437,-0.772 0.553,-1.26 0.06,-0.205 0.31,-0.432 0.4,-0.66 0.108,-0.285 0.23,-0.56 0.3,-0.877 0.02,-0.102 0.12,-0.16 0.235,-0.134 0,-0.126 -0.033,-0.264 0.015,-0.364 0.394,-0.75 1.006,-1.313 1.243,-2.175 0.02,-0.058 0.18,-0.068 0.21,-0.137 0.06,-0.105 -0.025,-0.28 0.048,-0.353 0.46,-0.56 0.57,-1.19 0.944,-1.82 0.066,-0.084 -0.01,-0.248 0.034,-0.354 0.126,-0.32 0.332,-0.595 0.47,-0.902 0.036,-0.112 -0.027,-0.27 0.026,-0.366 0.146,-0.225 0.304,-0.442 0.447,-0.67 0.274,-0.433 0.55,-1.025 0.85,-1.61 -0.138,0.474 0.057,1.167 -0.223,1.595 m 1.703,-3.97 -0.152,0.284 v 0.186 c -0.09,-0.074 -0.03,0.143 -0.12,0.07 a 0.325,0.325 0 0 1 -0.075,0.306 c -0.144,0.133 -0.16,0.228 -0.234,0.403 -0.008,0.005 0.06,0.058 0.024,0.084 -0.122,0.105 -0.1,0.285 -0.206,0.422 -0.143,0.184 -0.57,0.31 -0.69,0.544 0.294,-0.587 0.594,-1.163 0.905,-1.592 0.248,-0.312 0.027,-0.1 0.174,-0.417 0.094,-0.228 0.685,-1.883 0.79,-2.13 0.232,-0.54 0.807,-1.677 1.624,-3.237 0.2,0.073 0.41,0.136 0.608,0.205 a 456.77,456.77 0 0 0 -2.65,4.87 m 4.766,-17.904 c -0.01,0.03 -0.137,0.264 -0.317,0.587 -0.048,-0.017 -0.1,-0.038 -0.148,-0.054 0.17,-0.344 0.343,-0.688 0.46,-0.92 0.995,-1.713 0.125,-0.005 0.004,0.386 M 249.8,276.505 c 0.585,-1.375 1.15,-2.707 1.708,-4.03 8.605,-20.41 13.044,-34.618 13.71,-37.092 l 1.248,-0.27 c -3.865,11.707 -9.253,25.196 -14.616,37.622 -0.585,1.343 -1.16,2.686 -1.745,4.008 -7.64,17.396 -14.874,31.927 -17.147,35.057 a 525.92,525.92 0 0 0 16.84,-35.293 m -7.776,31.536 c 1.17,-2.306 7.95,-13.907 15.702,-26.983 l 2.173,-3.67 c 9.664,-16.277 20.147,-33.69 22.904,-37.87 0.25,-1.265 -1.28,-2.138 -1.28,-2.138 -1.99,3.443 -11.68,20.025 -22.98,39.346 l -2.14,3.69 c -17.69,30.275 -38.286,65.55 -39.42,67.75 2.478,-4.58 19.06,-38.136 25.203,-50.007 2.03,-3.93 5.49,-11.7 9.3,-20.583 0.556,-1.29 1.115,-2.618 1.684,-3.95 7.9,-18.603 16.567,-40.13 16.89,-41.588 5.8,-0.18 12.174,2.442 15.59,7.132 0.064,-0.126 -1.302,2.14 -1.302,2.14 -1.106,1.7 -16.677,26.895 -22.73,36.9 a 224.72,224.72 0 0 0 -2.188,3.67 c -0.026,0.037 -0.063,0.127 -0.09,0.16 -1.987,3.57 -52.215,89.4 -52.215,89.4 12.4,-24.18 32.175,-58.055 34.906,-63.4 m -37.742,75.143 c -0.237,-0.085 -0.475,-0.154 -0.712,-0.238 12.355,-22.446 37.39,-66.503 57.537,-100.334 a 532.25,532.25 0 0 1 2.22,-3.716 1494.68,1494.68 0 0 1 9.375,-15.488 c 6.237,-9.715 13.39,-21.316 14.04,-22.34 0.375,0.31 1.108,1.47 1.03,2.457 -0.06,0.877 -12.88,20.013 -13.684,21.24 a 818.475,818.475 0 0 0 -9.352,14.652 c -0.754,1.216 -1.52,2.437 -2.294,3.685 -20.806,33.608 -45.324,77 -58.16,100.08 m 57.786,-92.302 -0.18,-0.015 c 1.37,-2.168 2.752,-4.33 4.117,-6.46 0.417,-0.646 0.828,-1.276 1.234,-1.916 l 0.224,-0.08 c 1.085,-0.434 2.37,-0.805 3.684,-1.074 3.248,-0.66 6.64,-0.65 7.387,1.02 0.03,0.08 0.03,0.154 0.066,0.222 0.46,1.327 -0.295,2.77 -1.83,4.076 -3.052,2.606 -9.147,4.668 -14.7,4.224"
       id="path12"
       inkscape:connector-curvature="0"
       style="fill:#e4002b" />
  </g>
</svg>
