<?xml version="1.0" encoding="UTF-8" standalone="no"?>
<svg
   xmlns:dc="http://purl.org/dc/elements/1.1/"
   xmlns:cc="http://creativecommons.org/ns#"
   xmlns:rdf="http://www.w3.org/1999/02/22-rdf-syntax-ns#"
   xmlns:svg="http://www.w3.org/2000/svg"
   xmlns="http://www.w3.org/2000/svg"
   xmlns:sodipodi="http://sodipodi.sourceforge.net/DTD/sodipodi-0.dtd"
   xmlns:inkscape="http://www.inkscape.org/namespaces/inkscape"
   width="512"
   height="512"
   viewBox="0 0 512 512"
   version="1.1"
   id="svg6"
   sodipodi:docname="san-diego-padres.svg"
   inkscape:version="0.92.5 (2060ec1f9f, 2020-04-08)">
  <metadata
     id="metadata12">
    <rdf:RDF>
      <cc:Work
         rdf:about="">
        <dc:format>image/svg+xml</dc:format>
        <dc:type
           rdf:resource="http://purl.org/dc/dcmitype/StillImage" />
      </cc:Work>
    </rdf:RDF>
  </metadata>
  <defs
     id="defs10" />
  <sodipodi:namedview
     pagecolor="#ffffff"
     bordercolor="#666666"
     borderopacity="1"
     objecttolerance="10"
     gridtolerance="10"
     guidetolerance="10"
     inkscape:pageopacity="0"
     inkscape:pageshadow="2"
     inkscape:window-width="640"
     inkscape:window-height="480"
     id="namedview8"
     showgrid="false"
     inkscape:zoom="0.4609375"
     inkscape:cx="256"
     inkscape:cy="256"
     inkscape:window-x="634"
     inkscape:window-y="76"
     inkscape:window-maximized="0"
     inkscape:current-layer="svg6" />
  <title
     id="title2">san-diego-padres</title>
  <path
     d="m 309.363,230.705 c -0.145,31.32 0.166,93.157 0.166,120.612 0,19.81 -15.777,30.405 -35.41,30.405 -22.066,0 -60.986,0.04 -60.986,0.04 l 0.23,-24.708 h 15.857 c 28.626,0 47.365,-20.755 47.365,-47.973 l -0.08,-0.022 c 1.533,-29.43 0.847,-51.124 0.847,-54.322 0,-11.718 -9.565,-34.31 -37.38,-34.31 h -26.028 l -0.046,-23.974 h 61.522 c 20.592,0 33.94,14.898 33.94,34.053 v 0.202 z m -36.992,-60.49 -104.483,0.03 c -0.814,0 -0.77,1.39 0,1.39 0.81,0 14.053,1.214 14.053,13.385 l 0.06,35.405 c -15.692,0 -25.406,0.067 -27.248,0 -5.98,-0.078 -7.316,-5.05 -7.143,-7.95 0,-0.326 -0.175,-30.285 0.04,-49.024 0.31,-15.257 8.5,-23.05 22.834,-23.05 l 66.958,-0.34 c 4.003,0 7.47,1.85 7.47,6.75 0,4.938 -5.214,6.358 -6.122,6.8 -0.395,0.227 -0.48,0.843 -0.038,0.843 h 39.185 l -0.492,-12.79 c -0.318,-9.377 -6.107,-31.46 -35.19,-31.46 l -78.733,-0.17 0.046,-0.032 c -28.622,0 -48.673,20.423 -48.55,47.807 l 0.058,0.535 c -0.057,16.315 -0.453,39.244 -0.534,53.933 -0.1,18.088 15.587,36.842 37.427,36.842 h 87.276 c 6.018,0 7.635,5.503 7.635,7.61 0,0.75 0.234,27.89 0.146,47.505 l -0.184,0.13 c 0.04,12.46 -8.265,22.28 -21.21,22.28 h -12.897 l 0.215,-65.425 -31.01,-0.194 v 65.728 c -15.632,0 -26.42,0.178 -27.73,0.178 -6.46,0 -7.85,-5.45 -7.85,-7.935 0,-1.385 0.085,-22.016 0.124,-29.622 0.09,-8.61 12.356,-11.12 12.356,-11.12 l -0.13,-0.873 h -44.5 c 0,0 -0.128,30.578 -0.21,45.483 -0.098,16.105 13.474,34.197 32.796,34.197 h 34.79 l -0.227,32.125 c -0.087,12.358 -7.916,18.275 -14.74,20.354 -0.313,0 -0.355,0.62 0.04,0.62 h 105.257 v 0.1 c 43.234,0 67.503,-21.17 67.503,-63.838 v -112.7 c 0,-43.07 -24.268,-63.504 -67.05,-63.504 z m 65.235,237.718 v -9.002 h 3.306 v -1.967 h -8.853 v 1.97 h 3.31 v 9 h 2.24 z m 18.292,0 v -10.97 h -3.854 l -2.656,7.166 h -0.046 l -2.555,-7.17 h -3.872 v 10.97 h 2.24 v -8.724 h 0.055 l 3.063,8.726 h 2.16 l 3.173,-8.726 h 0.06 v 8.726 h 2.235 z"
     id="path4"
     inkscape:connector-curvature="0"
     style="fill:#002d62;fill-rule:evenodd" />
</svg>
