<?xml version="1.0" encoding="UTF-8" standalone="no"?>
<svg
   xmlns:dc="http://purl.org/dc/elements/1.1/"
   xmlns:cc="http://creativecommons.org/ns#"
   xmlns:rdf="http://www.w3.org/1999/02/22-rdf-syntax-ns#"
   xmlns:svg="http://www.w3.org/2000/svg"
   xmlns="http://www.w3.org/2000/svg"
   xmlns:sodipodi="http://sodipodi.sourceforge.net/DTD/sodipodi-0.dtd"
   xmlns:inkscape="http://www.inkscape.org/namespaces/inkscape"
   width="512"
   height="512"
   viewBox="0 0 512 512"
   version="1.1"
   id="svg24"
   sodipodi:docname="texas-rangers.svg"
   inkscape:version="0.92.5 (2060ec1f9f, 2020-04-08)">
  <metadata
     id="metadata30">
    <rdf:RDF>
      <cc:Work
         rdf:about="">
        <dc:format>image/svg+xml</dc:format>
        <dc:type
           rdf:resource="http://purl.org/dc/dcmitype/StillImage" />
      </cc:Work>
    </rdf:RDF>
  </metadata>
  <defs
     id="defs28" />
  <sodipodi:namedview
     pagecolor="#ffffff"
     bordercolor="#666666"
     borderopacity="1"
     objecttolerance="10"
     gridtolerance="10"
     guidetolerance="10"
     inkscape:pageopacity="0"
     inkscape:pageshadow="2"
     inkscape:window-width="640"
     inkscape:window-height="480"
     id="namedview26"
     showgrid="false"
     inkscape:zoom="0.4609375"
     inkscape:cx="256"
     inkscape:cy="256"
     inkscape:window-x="0"
     inkscape:window-y="0"
     inkscape:window-maximized="0"
     inkscape:current-layer="svg24" />
  <title
     id="title2">texas-rangers</title>
  <g
     id="g22"
     transform="translate(-2)"
     style="fill:none;fill-rule:evenodd">
    <path
       d="m 257.15,82.207 c -96.92,0 -175.76,78.86 -175.76,175.768 0,96.92 78.84,175.767 175.76,175.767 96.923,0 175.762,-78.846 175.762,-175.767 0,-96.907 -78.84,-175.768 -175.76,-175.768"
       id="path4"
       inkscape:connector-curvature="0"
       style="fill:#ffffff" />
    <path
       d="m 419.215,257.975 c -0.015,-1.01 -0.06,-2.02 -0.073,-3.03 H 368.59 c -0.802,-27.334 -11.518,-54.44 -32.377,-75.297 -43.382,-43.39 -113.732,-43.39 -157.116,0 -20.936,20.93 -31.67,48.136 -32.405,75.558 l -51.547,-0.058 c -0.022,0.966 -0.035,1.89 -0.057,2.8 0,0.273 -0.015,0.532 -0.015,0.82 0,0.736 0.044,1.458 0.06,2.18 h 51.553 c 0.67,27.522 11.41,54.815 32.413,75.817 43.38,43.375 113.72,43.375 157.11,-0.014 21.06,-21.042 31.794,-48.463 32.414,-76.06 h 50.545 c 0.016,-0.72 0.06,-1.442 0.06,-2.18 0,-0.172 -0.01,-0.36 -0.017,-0.532"
       id="path6"
       inkscape:connector-curvature="0"
       style="fill:#ffffff" />
    <path
       d="m 257.15,95.896 c -88.423,0 -160.483,71.188 -162.005,159.252 l 51.547,0.058 c 0.735,-27.422 11.47,-54.627 32.405,-75.558 43.384,-43.39 113.734,-43.39 157.116,0 20.86,20.858 31.577,47.963 32.377,75.298 h 50.552 c 0.014,1.01 0.058,2.02 0.073,3.03 h 0.015 c 0,-89.378 -72.702,-162.08 -162.08,-162.08"
       id="path8"
       inkscape:connector-curvature="0"
       style="fill:#c0111f" />
    <path
       d="m 257.15,88.165 c -93.782,0 -169.802,76.035 -169.802,169.81 0,93.777 76.02,169.812 169.803,169.812 93.78,0 169.8,-76.033 169.8,-169.81 0,-93.78 -76.02,-169.812 -169.795,-169.812 z m -43.526,271.967 a 11.307,11.307 0 0 0 3.007,-0.23 c 1.2,1.326 2.24,2.06 3.35,2.71 a 107.46,107.46 0 0 1 -6.352,-2.48 z M 419.23,258.508 c 0,0.735 -0.043,1.457 -0.06,2.178 h -50.544 c -0.62,27.595 -11.352,55.017 -32.413,76.063 -30.465,30.46 -74.186,39.45 -112.572,27.143 l 0.84,-1.226 c -2.44,-0.607 -5.51,-2.656 -7.32,-4.386 -4.01,1.025 -6.19,-0.822 -8.96,-1.63 l -0.25,0.85 c -10.392,-5.205 -20.18,-12.072 -28.85,-20.74 -4.12,-4.112 -7.702,-8.525 -11.03,-13.055 1.1,0.647 2.36,1.354 3.39,1.714 l -0.99,-1.675 c 0,0 -2.823,-1.86 -5.102,-3.705 a 109.995,109.995 0 0 1 -5.084,-8.44 c 3.29,3.003 5.53,3.52 8.02,4.705 l -0.75,-3.566 c -2.126,-0.68 -6.352,-2.48 -9.482,-5.555 -7.132,-14.567 -11,-30.348 -11.382,-46.245 H 95.13 c -0.014,-0.72 -0.058,-1.44 -0.058,-2.177 0,-0.29 0.014,-0.548 0.014,-0.822 0,0.017 -0.014,0.017 -0.014,0.03 0,-0.936 0.058,-1.873 0.07,-2.825 1.525,-88.064 73.585,-159.252 162.01,-159.252 89.377,0 162.078,72.702 162.078,162.08 h -0.015 c 0.007,0.17 0.015,0.36 0.015,0.532 z"
       id="path10"
       inkscape:connector-curvature="0"
       style="fill:#003278" />
    <path
       d="m 139.812,308.534 c 1.932,-0.706 3.266,-2.062 4.03,-4.053 1.054,-2.74 0.86,-6.62 -0.525,-10.38 l -3.895,-10.62 -0.6,0.58 -2.162,2.09 c -0.037,-0.03 -2.625,0.908 -2.625,0.908 0,0 -5.18,1.862 -5.23,1.89 0,-0.144 -3.122,-1.44 -3.122,-1.44 l -0.483,-0.204 c 0,0 -1.55,3.42 -1.724,3.795 -0.383,0.144 -8.67,3.173 -8.683,3.173 -0.015,-0.03 -2.836,-0.187 -2.836,-0.187 l -0.814,-0.044 3.512,9.78 c 0,0 2.74,-2.87 2.748,-2.883 0.037,0.03 7.01,-2.57 8.95,-3.275 0.073,0.203 0.506,1.43 0.642,1.83 -0.41,0.45 -9.952,10.98 -9.952,10.98 l 2.784,7.933 c 0,0 2.467,-3.764 2.53,-3.867 0.167,-0.173 8.08,-8.453 8.664,-9.072 2.45,2.827 5.896,4.124 8.796,3.07 z m -0.066,-9.852 c -0.404,1.068 -1.305,1.89 -2.596,2.364 -1.406,0.506 -2.892,0.42 -4.04,-0.215 h -0.014 c -0.886,-0.46 -1.536,-1.24 -1.904,-2.22 0,0 -0.628,-1.684 -0.938,-2.522 0.873,-0.302 7.724,-2.596 8.575,-2.886 l 0.79,2.178 c 0.25,0.693 0.37,1.342 0.37,1.932 0,0.492 -0.08,0.953 -0.247,1.372 z m 25.584,37.23 c 0,0 -11.476,4.01 -11.52,4.024 0,-0.07 -3.433,-0.922 -3.433,-0.922 l -0.432,-0.1 c 0,0 -1.364,2.897 -1.53,3.26 l -9.606,3.216 c 0,0 0.053,0.03 0.06,0.03 -0.43,0.03 -1.227,0.144 -2.958,0.403 -0.008,0 -1.37,0.23 -1.37,0.23 l 5.87,6.738 c 0,0 1.37,-2.894 1.52,-3.24 0.326,-0.13 3.686,-1.473 4.234,-1.675 0.425,0.492 5.82,6.607 6.23,7.083 -0.288,0.518 -2.033,3.577 -2.198,3.867 -0.356,0.116 -3.45,1.053 -3.45,1.053 l 7.647,8.727 c 0,0 0.995,-4.457 0.995,-4.487 0.007,0.087 1.978,-3.203 1.978,-3.203 0,0 3.11,-5.163 3.13,-5.193 0.037,0.087 3.06,-1.097 3.06,-1.097 l 0.405,-0.158 c 0,0 -0.612,-4.154 -0.62,-4.168 0.087,0.013 5.324,-10.776 5.324,-10.776 l 0.155,-0.32 -3.007,-3.46 -0.49,0.175 z m -6.362,7.285 a 6730.46,6730.46 0 0 0 -4.3,7.458 c -0.713,-0.808 -3.216,-3.663 -3.966,-4.514 1.11,-0.39 6.354,-2.26 8.266,-2.94 z m 53.12,30.453 c -0.065,-0.044 -3.91,7.817 -3.91,7.817 0,0 -1.125,2.293 -1.882,3.822 -0.505,-2.77 -3.707,-20.43 -3.707,-20.43 l -7.506,-3.68 0.064,0.924 c 0,0 0.224,3.492 0.224,3.52 -0.044,-0.073 -2.047,4.01 -2.047,4.01 0,0 -1.257,2.566 -1.422,2.912 -0.382,0.144 -3.606,1.385 -3.606,1.385 l 1.052,3.953 c -0.117,-0.015 -2.727,5.265 -2.727,5.265 0,0 -1.516,3.072 -1.537,3.1 -0.037,-0.044 -2.396,1.674 -2.396,1.674 l -0.706,0.534 8.544,4.24 c 0,0 -0.512,-4.31 -0.518,-4.327 0.064,0 5.424,-10.76 7.35,-14.64 0.498,2.855 4.242,24.493 4.242,24.493 l 3.52,1.79 c 0,0 5.69,-11.656 5.71,-11.713 0.065,0.1 2.95,-1.24 2.95,-1.24 l 0.405,-0.188 c 0,0 -0.88,-3.59 -0.894,-3.62 0.13,0 2.294,-4.443 2.294,-4.443 l 1.428,-2.944 c 0.057,0.014 2.294,-1.76 2.294,-1.76 l 0.66,-0.52 -8.264,-4.182 c -0.004,0 0.37,4.226 0.37,4.24 m 53.067,23.818 c -0.05,0 -0.066,2.683 -0.066,2.683 l -0.013,5.25 c -0.605,0.19 -1.298,0.75 -3.434,0.737 -5.22,-0.043 -8.294,-4.717 -9.03,-9.334 0.05,-0.043 2.35,-2.337 2.35,-2.337 l 0.347,-0.345 c 0,0 -2.127,-2.525 -2.414,-2.87 0.022,-0.116 0.152,-0.91 0.152,-0.91 1.074,-3.69 3.98,-7.658 8.93,-7.544 3.563,0.075 6.217,0.94 7.465,2.44 0,-0.014 0.44,0.548 0.44,0.548 l 0.923,1.14 0.173,-5.653 -0.368,-0.244 c -2.545,-1.73 -4.738,-2.336 -8.655,-2.364 -7.523,-0.072 -14.368,4.545 -16.655,11.208 -0.007,0.03 -0.375,1.384 -0.39,1.414 -0.02,-0.058 -2.163,2.177 -2.163,2.177 l -0.317,0.332 2.394,3.14 c 1.27,7.53 8.525,13.244 16.79,13.316 5.8,0.044 7.494,-0.792 9.464,-1.774 l 1.154,-0.578 0.06,-10.617 c 0.07,0 1.497,-2.554 1.497,-2.554 l 0.456,-0.806 -10.955,-0.074 c 0,0 1.86,3.59 1.868,3.62 m 59.967,-8.052 c -0.014,-0.056 -4.587,1.95 -4.587,1.95 l -2.466,1.08 c -0.223,-0.518 -3.404,-8.12 -3.765,-9 0.81,-0.348 4.912,-2.12 4.92,-2.12 0.012,0.013 3,-0.147 3,-0.147 l 0.756,-0.04 -2.627,-6.33 c 0,0 -2.862,2.652 -2.87,2.652 -0.007,-0.015 -4.767,2.048 -4.767,2.048 l -0.087,0.043 -3.143,-7.297 c 0.75,-0.32 7.052,-3.045 7.284,-3.146 0.288,0.03 5.35,0.303 5.35,0.303 l -2.59,-6.144 -0.727,0.316 -19.28,8.367 3.39,2.48 c 0,0.145 3.14,7.458 3.397,8.107 l -1.66,3.565 3.796,1.397 c 0.158,0.39 3.448,8.438 3.448,8.467 -0.043,0.013 -0.276,2.94 -0.276,2.94 l -0.07,0.894 19.73,-8.595 -2.544,-5.958 c 0,-0.002 -3.59,4.152 -3.612,4.167 m 39.022,-45.77 c 0.42,-1.184 0.736,-2.38 0.736,-3.507 0,-2.28 -0.815,-4.344 -2.372,-5.686 -1.572,-1.34 -3.412,-1.86 -5.51,-1.542 -2.894,0.42 -6.175,2.51 -8.763,5.57 l -7.31,8.61 c 0,0 3.75,1.11 3.763,1.11 0,0.09 6.137,5.44 6.195,5.498 -0.022,0 -0.022,0.056 -0.022,0.172 0,0.706 0.29,3.246 0.29,3.246 l 0.058,0.534 c 0,0 3.75,-0.333 4.155,-0.375 0.333,0.29 7.04,6.057 7.04,6.057 0,0.088 1.213,2.553 1.213,2.553 l 0.353,0.738 6.786,-7.86 c 0,0 -3.823,-0.997 -3.83,-0.997 0,-0.04 -5.698,-4.874 -7.262,-6.2 0.26,-0.318 1.024,-1.185 1.275,-1.47 0.6,0.13 14.42,3.316 14.42,3.316 l 5.523,-6.33 c 0,0 -4.515,-0.32 -4.58,-0.32 -0.078,-0.03 -11.258,-2.885 -12.152,-3.115 z m -5.027,0.532 a 4,4 0 0 1 -1.016,2.67 c 0,0.014 -1.153,1.383 -1.716,2.076 -0.714,-0.65 -6.06,-5.497 -6.722,-6.103 l 1.508,-1.744 c 0.86,-1.023 1.81,-1.6 2.79,-1.73 1.14,-0.173 2.29,0.202 3.334,1.096 1.138,0.996 1.788,2.338 1.823,3.65 0.004,0.03 0.004,0.057 0.004,0.086 z m 42.36,-47.558 c -1.106,-2.496 -3.23,-4.314 -5.973,-5.137 -1.21,-0.374 -2.667,-0.286 -3.59,-0.056 h -0.007 c -1.536,0.435 -2.893,1.415 -3.47,1.933 l -1.86,1.832 c -0.044,0.058 -0.65,0.78 -0.867,1.04 -0.39,0 -2.713,0.028 -2.713,0.028 0,0 -0.88,3.492 -0.908,3.65 -0.06,0 -0.334,0.318 -0.334,0.318 -2.107,2.207 -3.49,2.223 -4.14,2.02 -1.35,-0.52 -3.657,-2.596 -2.545,-5.67 0.91,-2.537 1.875,-3.85 3.54,-4.79 l 0.427,-0.23 0.023,-0.59 -1.166,-2.64 -0.723,0.36 c -2.04,1.068 -3.835,3.68 -5.053,7.343 -1.637,4.92 -0.663,11.223 4.37,13.214 0.8,0.288 1.977,0.648 3.124,0.433 1.385,-0.287 2.84,-1.023 4.126,-2.076 l 0.83,-0.764 c -0.024,0.014 0.323,-0.26 0.367,-0.302 0.03,0.1 2.3,0.143 2.3,0.143 h 0.41 c 0,0 1.126,-3.95 1.126,-3.964 0.043,0.013 2.71,-3 2.71,-3 1.033,-0.97 2.46,-1.53 3.378,-1.314 1.557,0.433 2.624,1.37 3.266,2.61 0.793,1.558 0.885,3.52 0.267,5.67 -1.3,3.65 -3.844,4.775 -5.755,5.093 l -0.664,0.116 -0.063,0.678 1.073,2.74 0.562,-0.055 c 2.25,-0.217 6.187,-2.9 7.86,-8.194 1.293,-4.03 1.315,-7.635 0.075,-10.434 m -235.94,-120.59 c 0,-0.1 -7.088,-6.087 -7.204,-6.19 0.007,0 0.015,-0.014 0.015,-0.06 0,-0.474 -0.473,-3.113 -0.473,-3.113 l -0.094,-0.49 c 0,0 -3.184,0.332 -3.574,0.36 -0.31,-0.26 -5.244,-4.414 -5.942,-4.99 a 892.7,892.7 0 0 0 2.942,-3.578 c 0.022,0.043 3.83,-1.66 3.83,-1.66 l 0.824,-0.36 -5.17,-4.053 -0.327,0.42 -15.71,18.737 4.984,4.094 c 0,0 1.197,-4.79 1.204,-4.79 0.03,0.015 2.31,-2.698 3.09,-3.62 0.706,0.59 5.66,4.66 5.964,4.903 0.034,0.39 0.41,3.635 0.41,3.635 0,0 3.274,-0.145 3.642,-0.158 0.303,0.26 7.22,6.072 7.22,6.072 0,0.1 1.19,2.67 1.19,2.67 l 0.36,0.777 6.71,-8.02 c 0,0 -3.86,-0.59 -3.88,-0.59 m 22.456,-37.906 c -0.15,0.403 -1.376,3.605 -1.376,3.605 l 3.816,1.094 c 0.2,0.42 4.16,8.424 4.167,8.453 -0.05,0.014 -0.073,2.655 -0.073,2.655 l -0.007,0.906 18.724,-9.824 -2.834,-5.683 c 0,0 -3.108,4.17 -3.108,4.182 -0.03,-0.042 -6.002,3.116 -7.25,3.78 -0.44,-0.836 -4.133,-8.063 -4.55,-8.884 0.793,-0.405 5.105,-2.67 5.12,-2.67 0,0.03 2.67,-0.332 2.67,-0.332 l 0.756,-0.1 -2.77,-5.555 c 0,0 -2.48,2.654 -2.488,2.654 -0.015,-0.03 -3.924,2.02 -5.056,2.61 -0.42,-0.793 -3.29,-6.33 -3.7,-7.125 0.843,-0.43 7.56,-3.923 7.58,-3.923 0,0.044 4.082,-0.03 4.082,-0.03 l 0.873,-0.03 -3.05,-5.9 -0.486,0.26 -18.47,9.707 3.33,2.064 c 0.002,0.144 3.55,7.025 4.098,8.08 m 115.784,4.69 c 0.26,-0.26 3.002,-3 3.448,-3.45 0.62,0.29 8.41,3.967 9.03,4.256 -0.07,0.634 -0.49,4.398 -0.533,4.76 a 450.93,450.93 0 0 1 -2.57,2.193 l 9.81,4.587 -0.766,-4.082 c 0.03,0 1.327,-9.417 1.342,-9.55 0.088,0.06 2.748,-2.32 2.748,-2.32 l 0.375,-0.332 -2.72,-3.448 c 0.13,-0.016 0.706,-12.48 0.706,-12.48 l 0.014,-0.36 -3.85,-1.845 -0.277,0.245 c 0,0 -9.433,8.727 -9.462,8.74 -0.012,-0.07 -3.574,0.477 -3.574,0.477 l -0.462,0.072 c 0,0 0.022,3.2 0.022,3.62 -0.338,0.315 -7.435,6.69 -7.435,6.69 0.074,-0.057 -2.55,1.588 -2.55,1.588 l -0.837,0.517 7.445,3.49 c -0.005,0.003 0.082,-2.997 0.096,-3.37 z m 6.62,-6.52 c 0.88,-0.837 5.77,-5.395 7.307,-6.84 -0.24,2.09 -0.99,8.61 -1.126,9.765 -1.002,-0.49 -5.12,-2.422 -6.18,-2.928 z m 44.92,48.035 c 2.365,0.735 4.833,0.46 7.155,-0.78 1.12,-0.59 2.09,-1.673 2.51,-2.438 0.85,-1.444 1.08,-3.175 1.08,-3.708 l 0.044,-2.655 c 0,-0.043 -0.086,-1.096 -0.114,-1.442 l 1.86,-1.902 -1.832,-3.114 c 0.014,-0.016 0.02,-0.1 0.02,-0.203 0,-0.143 -0.01,-0.52 -0.01,-0.606 0,-2.35 0.63,-3.923 1.79,-4.427 1.415,-0.62 4.625,-0.548 6.016,2.45 1.17,2.54 1.4,4.21 0.866,6.175 l -0.137,0.476 2.726,1.054 0.18,-0.547 c 0.914,-2.885 -0.58,-6.65 -1.538,-8.64 -2.257,-4.573 -7.28,-8.31 -12.168,-6.203 -0.75,0.303 -1.803,0.88 -2.44,1.803 -0.784,1.154 -1.296,2.683 -1.455,4.314 l -0.07,1.155 c 0,-0.056 -0.044,0.52 -0.06,0.593 -0.085,-0.07 -1.658,1.443 -1.658,1.443 l -0.302,0.29 c 0,0 1.934,3.52 1.934,3.534 v 0.116 c 0,0.663 0.173,3.995 0.173,3.995 -0.043,1.5 -0.72,3.028 -1.6,3.576 -1.128,0.72 -2.57,0.94 -3.97,0.58 -1.325,-0.333 -3.23,-1.327 -4.76,-4.11 -1.7,-3.69 -0.647,-6.42 0.535,-8.05 l 0.404,-0.548 -2.864,-1.24 -0.26,0.32 c -1.63,2.006 -2.144,6.592 0.18,11.166 2.035,4.008 4.717,6.634 7.76,7.586 m -105.443,-49.38 c 0.28,-0.36 5.292,-6.837 6.07,-7.846 0.72,1.068 5.38,8.02 5.396,8.05 -0.008,0 -0.008,0.013 -0.008,0.043 0,0.347 0.216,2.21 0.216,2.21 l 0.05,0.475 10.337,-0.015 -3.77,-3.694 c 0,-0.015 -5.747,-8.554 -6.714,-9.997 a 650.19,650.19 0 0 0 1.307,-2.08 l -1.74,-1.946 c 0.484,-0.663 6.976,-9.348 6.976,-9.348 l 2.993,-3.462 -9.296,-0.015 0.316,0.75 c 0,0 0.736,1.72 0.923,2.166 -0.325,0.433 -4.883,6.49 -5.648,7.5 -0.714,-1.095 -4.998,-7.644 -5.013,-7.673 v -0.057 c 0,-0.346 -0.202,-2.208 -0.202,-2.208 l -0.055,-0.478 -9.637,0.016 3.074,3.52 c 0,0.013 5.367,8.163 6.283,9.562 l -1.32,2.135 c 0,0 1.543,1.486 2.004,1.948 -0.517,0.707 -7.47,9.883 -7.47,9.883 -0.01,0 -2.655,2.51 -2.655,2.51 l -1.007,0.952 9.248,-0.1 a 253.11,253.11 0 0 1 -0.653,-2.8 m 137.48,68.96 3.98,12.247 h 12.883 l -10.43,7.56 3.983,12.23 -10.416,-7.56 -10.407,7.56 3.974,-12.23 -10.41,-7.56 h 12.877 m -257.51,-12.242 3.975,12.247 h 12.866 l -10.4,7.56 3.967,12.23 -10.41,-7.56 -10.406,7.56 3.97,-12.23 -10.408,-7.56 h 12.86"
       id="path12"
       inkscape:connector-curvature="0"
       style="fill:#ffffff" />
    <path
       d="m 359.316,411.688 h -3.5 v 9.563 h -2.38 v -9.56 h -3.497 v -2.075 h 9.37 v 2.078 z m 15.903,9.563 h -2.37 v -9.26 h -0.058 l -3.36,9.26 h -2.294 l -3.245,-9.26 h -0.074 v 9.26 h -2.365 v -11.64 h 4.11 l 2.714,7.6 h 0.043 l 2.83,-7.6 h 4.066 v 11.64 z M 249.75,149.706 c 0,0 -1.586,-1.283 -2.713,-2.077 -0.82,0.07 -1.644,0.173 -2.452,0.274 0.75,0.273 3.49,1.355 3.866,1.99 m -3.79,1.357 c 0,0 -1.7,-1.47 -4.152,-2.814 -0.996,0.145 -1.97,0.346 -2.943,0.52 1.818,0.475 3.52,1.556 5.345,2.45 m -7.928,2.497 2.95,-0.937 c 0,0 -3.844,-1.89 -5.236,-1.92 -0.7,-0.33 -1.073,-0.62 -1.637,-0.72 -1.33,0.332 -2.64,0.692 -3.954,1.067 0.85,0.126 2.625,0.49 3.274,1.223 1.977,-0.346 3.346,0.65 4.6,1.285 m -7.63,3.45 2.974,-1.055 c -0.325,-0.547 -4.17,-2.222 -6.32,-2.25 -0.785,-0.62 -1.615,-0.808 -2.307,-0.95 a 98.572,98.572 0 0 0 -3.404,1.21 c 0.384,0.086 2.468,0.562 3.477,1.428 2.062,-0.347 4.104,0.677 5.583,1.616 m -13.748,1.28 c 2.215,-0.215 4.602,1.127 6.044,2.035 l 3.17,-0.807 c -1.7,-1.53 -4.832,-2.755 -6.62,-2.654 -0.75,-1.123 -2.35,-0.55 -3.36,-0.662 l -3.925,1.772 c 0.513,0 4.272,-0.65 4.69,0.317 m -1.537,6.983 2.775,-2.11 c -2.178,-1.17 -5.568,-1.816 -7.35,-1.73 -0.887,-0.316 -0.765,-0.606 -1.78,-0.72 l -3.817,2.062 c 0.482,0.03 3.7,0.1 4.14,1.038 2.2,-0.185 4.622,0.58 6.03,1.46 m -16.135,6.16 c 2.59,-0.477 6.39,-1.515 10.098,-0.68 l 2.78,-2.466 c -4.182,-0.735 -8.624,-0.518 -10.874,0.072 -0.548,-0.84 -1.81,-1.705 -1.81,-1.705 l -2.655,2.235 c 1.26,0.39 1.696,1.46 2.46,2.54 m -7.44,8.34 c 2.15,-1.054 6.85,-1.804 11.62,-1.168 l 2.46,-3.16 c -7.23,-0.52 -10.194,0.4 -12.444,1.484 -0.772,-1.298 -1.896,-2.062 -1.896,-2.062 l -2.202,2.02 c 1.27,0.388 1.68,1.83 2.46,2.884 m -4.918,6.13 c -0.75,-1.313 -2.114,-2.64 -2.114,-2.64 l -1.74,2.74 c 1.595,0.866 1.444,1.905 2.208,2.987 2.158,-1.08 6.556,-3.143 11.34,-2.48 l 2.438,-3.16 c -7.473,0.172 -11.598,0.82 -12.133,2.552 m -5.28,9.506 c -0.758,-1.803 -2.77,-3.966 -2.77,-3.966 l -1.298,3.1 c 1.154,0.865 1.867,3 2.66,4.08 2.15,-1.11 4.914,-3.215 9.667,-2.523 l 2.257,-3.677 c -6.06,0 -9.976,1.24 -10.517,2.985 m -4.45,9.19 c -0.96,-2.397 -3.113,-4.46 -3.113,-4.46 l -1.283,3.45 c 1.6,0.88 1.862,3.014 2.64,4.053 2.14,-1.054 5.372,-3.045 10.17,-2.41 l 1.982,-3.636 c -5.835,0 -9.875,1.254 -10.394,3 m -4.4,11.022 c -1.08,-2.137 -3.447,-4.805 -3.447,-4.805 l -1.06,3.576 c 1.586,0.896 2.33,3.016 3.102,4.113 2.156,-1.096 4.783,-2.87 9.563,-2.206 l 1.53,-3.448 c -7.264,0.448 -9.146,1.053 -9.687,2.77 m -4.377,9.895 c -0.764,-1.31 -3.44,-4.572 -3.44,-4.572 l -0.72,3.577 c 1.615,0.894 2.335,3.015 3.13,4.097 2.127,-1.08 5.704,-3.043 10.47,-2.41 l 1.205,-3.56 c -7.015,0.42 -10.08,1.11 -10.643,2.87 m -2.575,11.915 c -0.763,-1.313 -4.066,-5.886 -4.066,-5.886 l -0.75,3.822 c 1.594,1.47 2.77,4.198 3.55,5.31 2.14,-1.1 5.503,-4.084 10.25,-3.406 l 0.75,-3.2 c -6.94,0.532 -8.044,1.296 -9.73,3.36 m -2.91,15.42 c 0.924,-1.833 4.436,-3.564 9.233,-3.175 l 0.59,-3.476 c -5.69,0.317 -8.25,1.254 -9.002,2.885 -0.837,-1.3 -5.064,-5.683 -5.064,-5.683 l -0.556,3.694 c 2.808,2.44 3.97,4.748 4.797,5.758 m -1.62,12.707 c 0.18,-0.19 0.41,-0.837 0.887,-1.43 0.86,-1.023 3.31,-2.48 8.59,-2.264 l 0.305,-3.26 c -6.087,0.06 -8.05,1.56 -8.56,2.15 -0.477,0.433 -0.664,1.24 -0.802,1.7 -0.937,-2.493 -4.955,-6.503 -4.955,-6.503 l -0.244,3.562 c 1.403,0.633 4,4.975 4.78,6.04 m 8.726,20.414 -0.093,-3.49 c -4.596,-2.048 -6.947,-1.687 -8.636,-0.694 -0.772,-1.324 -5.38,-3.026 -5.38,-3.026 l 0.224,3.518 c 1.864,0.435 4.134,1.59 4.928,2.67 2.143,-1.094 5.187,-0.994 8.958,1.025 m -9.262,-10.373 c 0.988,-1.658 2.106,-2.526 9.225,-1.024 l 0.028,-3.39 c -8.396,-0.417 -8.273,0.346 -8.54,1.43 -0.714,-1.342 -5.554,-5.48 -5.554,-5.48 l 0.07,3.923 c 1.58,0.95 4.04,3.415 4.77,4.54 m 1.097,19.056 c 0.42,-1.098 1.746,-0.49 3.48,0.287 1.55,0.706 2.69,1.53 4.456,2.495 l -0.093,-3.52 c -3.86,-2.48 -7.655,-4.37 -8.188,-2.655 -0.757,-1.3 -4.782,-3.13 -4.782,-3.13 l 0.9,3.907 c 2.08,0.55 3.45,1.53 4.228,2.612 m 0.93,8.856 c 1.826,-0.23 3.434,0.477 7.357,3.29 l -0.29,-3.33 c -4.003,-3.348 -5.95,-3.16 -7.38,-3.16 -0.79,-1.43 -3.96,-3.175 -3.96,-3.175 l 0.49,3.55 c 1.69,0.69 2.99,1.645 3.78,2.83 m 163.508,-30.21 c -1.255,-0.88 -3.404,-2.104 -7.357,-6.445 l -2.927,1.787 c 1.325,0.995 7.29,7.89 10.08,6.852 0,0 -1.253,8.54 -1.03,12.955 l 3.196,-2.064 c -0.1,-2.32 0.05,-12.1 0.62,-14.395 0.13,-0.117 -1.79,1.86 -2.582,1.31 m 8.48,-5.87 c -3.006,-4.384 -5.01,-6.332 -6.75,-7.53 l -2.15,1.6 c 0.91,0.26 3.334,2.684 6.767,7.79 l 2.056,-1.687 c 0.287,5.67 0.74,11.066 0.114,13.646 l 2.48,-1.918 c 0.506,-4.156 0.368,-8.974 -0.222,-13.388 M 219.95,352.79 c -4.02,1.01 -7.734,-0.778 -10.49,-1.6 l -0.763,2.35 c 3.88,2.02 7.63,1.716 10.458,1.095 1.564,2.222 2.884,3.463 6.332,4.76 l 1.24,-1.8 c -3.677,-0.435 -5.12,-2.324 -6.778,-4.804 m 2.823,-6.43 c -4.03,1.023 -8.28,-0.45 -11.065,-1.27 l -1.16,2.655 c 4.206,1.44 8.11,1.745 10.956,1.14 1.442,2.394 3.016,4.66 6.477,5.957 l 1.284,-2.267 c -2.877,-1.182 -5.55,-2.712 -6.49,-6.217 m 4.53,-8.48 -0.433,0.677 c -4.01,1.024 -8.87,0.145 -11.654,-0.678 l -1.424,2.525 c 3.873,1.194 7.257,1.396 11.56,0.905 l 0.233,-0.39 c 1.564,2.872 1.97,4.588 6,6.954 l 1.978,-2.265 c -2.558,-1.023 -5.66,-5.122 -6.265,-7.732"
       id="path14"
       inkscape:connector-curvature="0"
       style="fill:#003278" />
    <path
       d="m 231.273,332.724 -0.225,0.318 c -3.865,0.735 -8.438,-1.27 -11.2,-2.077 l -1.587,2.38 c 3.88,2.035 7.68,2.19 11.08,2.19 l 0.2,-0.286 c 1.43,3.13 2.8,6.39 6.236,7.7 l 1.96,-2.28 c -2.535,-1.01 -5.846,-5.338 -6.46,-7.95 m -7.33,-7.37 c 0.354,0.173 0.75,0.346 1.156,0.534 v -1.76 m 65.23,-17.41 c -2.078,-2.177 -2.005,-8.626 -1.79,-12.115 l -0.95,0.577 c -3.904,-0.638 -8.108,-4.517 -10.063,-7.157 l -0.238,0.09 v -20.34 c 0,-7.343 10.166,-10.155 10.166,-10.155 0,0 -2.77,-1.097 -5.41,-3.086 l -4.124,1.165 c -0.1,0.03 -9.052,2.625 -9.052,8.7 V 300.3 c 0,2.436 1.005,4.053 5.88,4.053 h 2.54 c 0,-0.232 0.012,-0.462 0,-0.706 V 292.77 c 2.536,2.223 5.197,4.055 7.217,4.285 l 0.88,-0.518 c 0.036,4.37 -0.34,6.953 0.7,10.01 l -2.15,-2.004 v 21.78 h -58.67 l 9.218,8.698 h 3.996 c 0.592,0.97 1.278,1.72 2.114,1.95 l 1.91,-1.95 h 48.532 v -23.853 l -3.513,-3.26"
       id="path16"
       inkscape:connector-curvature="0"
       style="fill:#003278" />
    <path
       d="m 301.883,288.065 -0.958,0.563 c -3.902,-0.635 -8.1,-4.515 -10.06,-7.17 l -3.637,1.514 c 3.297,3.434 7.66,7.184 10.617,7.53 l 0.88,-0.517 c 0.044,5.15 -0.62,7.775 1.327,11.697 l 3.622,-1.514 c -2.094,-2.164 -2.008,-8.626 -1.79,-12.103 m 13.616,-6.722 -0.13,-0.215 c -1.283,0.446 -2.913,0.057 -4.385,-1.197 -1.456,-1.24 -6.288,-6.963 -6.288,-6.963 l -3.983,2.178 c 2.308,2.38 9.866,8.382 11.41,8.425 l 0.223,-0.16 c 0.023,5.063 -0.612,7.673 1.32,11.555 l 3.62,-1.5 c -2.082,-2.18 -1.99,-8.643 -1.787,-12.12 m 22.863,-19.056 c -1.486,-2.584 -4.515,-6.045 -6.822,-7.63 l -2.072,1.83 c 2.077,1.23 6.332,5.18 7.615,8.28 l 1.37,-1.47 c 0.41,4.935 0.39,10.475 -0.187,13.057 l 2.553,-2.02 c 0.42,-4.457 0.144,-9.592 -0.65,-13.357 m 4.587,-3.682 c 0.64,1.658 1.14,3.68 0.64,13.66 l 2.43,-2.264 c 0.074,-7.486 -0.337,-9.535 -1.137,-13.3 m 4.14,-4.485 c 1.126,3.78 1.832,10.21 1.21,13.932 l 2.236,-2.955 c 0.39,-4.213 -0.937,-9.477 -1.716,-13.243 m 3,-4.602 -0.872,1.5 c 2.444,3.13 3.382,6.665 3.656,11.367 l 1.733,-2.656 c -0.057,-4.92 -3.303,-11.323 -4.514,-10.212 m 3.013,-5.02 -0.474,0.578 0.352,-0.575 c -1.3,-2.623 -2.877,-5.45 -5.372,-7.18 l -1.35,1.802 c 2.042,1.27 4.178,4.328 5.474,7.43 l 0.665,-1.097 c 1.127,0.98 3.15,2.45 4.47,10.097 l 1.018,-2.653 c -1.116,-7.286 -4.507,-10.012 -4.78,-8.396 m 2.77,-5.744 -0.218,0.62 c -1.3,-2.584 -2.135,-4.357 -5.05,-7.01 l -0.997,1.6 c 2.72,2.438 3.924,3.78 5.193,7.342 l 0.635,-1.355 -0.07,0.206 c 1.53,1.27 3.26,3.288 4.306,8.87 l 0.786,-3.158 c -0.303,-4.04 -4.04,-8.497 -4.585,-7.113 m -23.949,15.594 -2.063,1.832 c 2.063,1.225 6.318,5.177 7.59,8.28 l 1.708,-1.818 c -1.3,-2.61 -4.725,-6.58 -7.235,-8.294 m 6.247,-5.928 -1.963,1.572 c 1.43,0.952 6.394,5.106 7.66,8.223 l 1.5,-2.064 c -1.296,-2.64 -4.6,-5.986 -7.194,-7.73 m 10.08,3.85 1.226,-1.832 c -1.295,-2.64 -3.466,-5.97 -5.97,-7.703 l -1.7,1.803 c 2.04,1.256 5.14,4.632 6.446,7.733 m 8.64,-16.75 0.764,-1.584 c -1.3,-2.654 -1.983,-3.36 -4.89,-6.29 l -0.533,1.616 c 2.027,1.748 3.39,3.174 4.66,6.26 m 0.563,-0.792 c 0.908,0.636 1.8,1.56 2.74,3.044 a 122.208,122.208 0 0 0 -0.893,-3.534 l -1.085,-1.21 m -1.76,-7.733 c -0.424,-0.532 -1.003,-1.168 -1.846,-2.004 l -0.45,1.515 c 1.514,1.646 2.986,3.378 4.17,6.045 a 117.663,117.663 0 0 0 -1.875,-5.554 m -65.084,19.66 8.857,8.38 h 14.452 v -47.73 l -8.013,-7.488 v 46.835 m -43.275,4.068 c 0,5.654 9.095,9.276 9.188,9.32 l 3.744,1.47 c -2.336,-1.82 -4.514,-4.3 -4.514,-7.43 V 216.42 l 1.44,0.086 c 5.597,0.476 9.636,1.96 12.49,4.125 -4.644,-4.642 -12.13,-7.18 -22.35,-7.21 v 30.136 m -28.956,-30.22 c -18.652,0 -26.26,6.462 -26.282,22.502 l -0.012,3.65 H 195.18 l 8.41,7.89 h 17.526 l 0.023,-2.942 c 0,-16.43 1.6,-26.787 19.026,-28.518 v -2.582 h -0.247"
       id="path18"
       inkscape:connector-curvature="0"
       style="fill:#003278" />
    <path
       d="m 265.89,300.298 v -35.904 c 0,-5.626 4.784,-8.726 8.11,-10.285 -3.29,-1.837 -8.11,-5.328 -8.11,-10.56 v -33.296 l 1.566,0.086 c 0,0 1.422,0.073 1.35,0.073 19.603,0 30.84,8.856 30.84,24.335 v 1.745 h 9.52 V 195.44 H 198.024 v 41.055 h 12.752 l 0.145,-1.673 -0.25,0.836 c 0,-17.514 9.018,-25.317 29.248,-25.317 h 3.232 v 33.21 c 0,5.68 -4.135,8.93 -7.09,10.63 2.986,1.53 7.09,4.53 7.09,10.212 v 35.57 c 0,4.618 -3.19,7.373 -8.513,7.373 h -6.556 v 15.998 h 52.875 v -15.997 h -6.202 c -5.883,0 -8.86,-2.366 -8.86,-7.038"
       id="path20"
       inkscape:connector-curvature="0"
       style="fill:#c0111f" />
  </g>
</svg>
