<?xml version="1.0" encoding="UTF-8" standalone="no"?>
<svg
   xmlns:dc="http://purl.org/dc/elements/1.1/"
   xmlns:cc="http://creativecommons.org/ns#"
   xmlns:rdf="http://www.w3.org/1999/02/22-rdf-syntax-ns#"
   xmlns:svg="http://www.w3.org/2000/svg"
   xmlns="http://www.w3.org/2000/svg"
   xmlns:sodipodi="http://sodipodi.sourceforge.net/DTD/sodipodi-0.dtd"
   xmlns:inkscape="http://www.inkscape.org/namespaces/inkscape"
   width="512"
   height="512"
   viewBox="0 0 512 512"
   version="1.1"
   id="svg24"
   sodipodi:docname="washington-nationals.svg"
   inkscape:version="0.92.5 (2060ec1f9f, 2020-04-08)">
  <metadata
     id="metadata30">
    <rdf:RDF>
      <cc:Work
         rdf:about="">
        <dc:format>image/svg+xml</dc:format>
        <dc:type
           rdf:resource="http://purl.org/dc/dcmitype/StillImage" />
      </cc:Work>
    </rdf:RDF>
  </metadata>
  <defs
     id="defs28" />
  <sodipodi:namedview
     pagecolor="#ffffff"
     bordercolor="#666666"
     borderopacity="1"
     objecttolerance="10"
     gridtolerance="10"
     guidetolerance="10"
     inkscape:pageopacity="0"
     inkscape:pageshadow="2"
     inkscape:window-width="640"
     inkscape:window-height="480"
     id="namedview26"
     showgrid="false"
     inkscape:zoom="0.4609375"
     inkscape:cx="256"
     inkscape:cy="256"
     inkscape:window-x="0"
     inkscape:window-y="0"
     inkscape:window-maximized="0"
     inkscape:current-layer="svg24" />
  <title
     id="title2">washington-nationals</title>
  <g
     id="g22"
     transform="translate(-8,4)"
     style="fill:none;fill-rule:evenodd">
    <path
       d="m 435,257.13 c 0,63.284 -33.76,121.76 -88.565,153.4 -54.805,31.642 -122.327,31.642 -177.13,0 C 114.499,378.89 80.738,320.414 80.738,257.13 80.738,159.304 160.042,80 257.868,80 355.698,80 435,159.304 435,257.13 Z"
       id="path4"
       inkscape:connector-curvature="0"
       style="fill:#ffffff" />
    <path
       d="m 427.533,257.136 c 0,93.71 -75.964,169.677 -169.67,169.677 -93.707,0 -169.672,-75.967 -169.672,-169.677 0,-93.71 75.969,-169.678 169.676,-169.678 93.707,0 169.67,75.967 169.67,169.678 z"
       id="path6"
       inkscape:connector-curvature="0"
       style="fill:#ab0003" />
    <path
       d="m 385.957,399.95 h -0.074 l -2.155,-6.303 h -3.188 v 9.632 h 1.83 v -7.67 h 0.074 l 2.568,7.67 h 1.764 l 2.68,-7.67 v 7.67 h 1.852 v -9.637 h -3.203 l -2.215,6.303 h 0.067 z m -14.43,-4.59 h 2.747 v 7.92 h 1.867 v -7.92 h 2.74 v -1.727 h -7.35 v 1.727 z M 417.953,257.5 c 0,88.614 -71.837,160.45 -160.452,160.45 -88.615,0 -160.451,-71.836 -160.451,-160.45 0,-88.615 71.835,-160.452 160.45,-160.452 88.616,0 160.453,71.837 160.453,160.45 z"
       id="path8"
       inkscape:connector-curvature="0"
       style="fill:#11225b" />
    <path
       d="m 370.18,257.108 c 0,62.03 -50.283,112.313 -112.31,112.313 -62.03,0 -112.314,-50.28 -112.314,-112.31 0,-62.03 50.284,-112.311 112.314,-112.311 62.025,0 112.31,50.285 112.31,112.313 z"
       id="path10"
       inkscape:connector-curvature="0"
       style="stroke:#ba122f;stroke-width:8.65400028" />
    <path
       d="m 361.195,257.13 c 0,57.066 -46.26,103.327 -103.326,103.327 -57.07,0 -103.33,-46.26 -103.33,-103.326 0,-57.06 46.26,-103.322 103.325,-103.322 57.064,0 103.325,46.26 103.325,103.327 z"
       id="path12"
       inkscape:connector-curvature="0"
       style="fill:#ffffff" />
    <path
       d="m 129.072,283.49 -8.294,-5.903 -8.252,5.97 3.152,-9.59 -8.32,-5.865 10.243,-0.022 3.11,-9.6 3.18,9.576 10.24,-0.06 -8.28,5.94 3.226,9.554 z m 280.3,0.176 -8.292,-5.902 -8.253,5.97 3.153,-9.59 -8.32,-5.865 10.242,-0.028 3.11,-9.6 3.177,9.576 10.24,-0.06 -8.28,5.94 3.22,9.554 z"
       id="path14"
       inkscape:connector-curvature="0"
       style="fill:#ab0003" />
    <path
       d="m 140.806,215.95 -13.3,-14.014 19.265,0.057 0.48,-1.118 -22.584,-20.384 -2.25,5.257 12.628,11.06 -17.966,0.08 -0.467,1.077 12.42,12.96 -16.783,-1.31 -2.35,5.52 30.47,1.922 0.443,-1.07 v -0.03 z m 31.132,-67.276 c 1.17,0 2.47,-0.17 4.1,-0.524 l 1.995,-0.423 c 1.04,-0.214 2.023,-0.422 2.87,-0.422 1.13,0 1.885,0.377 2.516,1.247 0.41,0.56 0.563,1.174 0.46,1.82 -0.153,0.973 -0.89,1.988 -2.073,2.846 -2.017,1.463 -4.204,1.667 -6.357,0.585 l -0.624,-0.308 -2.507,4.805 0.66,0.315 c 1.62,0.79 3.3,1.192 5,1.192 2.424,0 4.76,-0.802 6.934,-2.39 4.812,-3.494 5.96,-8.198 2.99,-12.268 -1.75,-2.39 -3.904,-3.51 -6.78,-3.51 -1.163,0 -2.493,0.17 -4.293,0.554 l -2.005,0.425 c -1.222,0.26 -2.194,0.433 -2.978,0.433 -1.05,0 -1.665,-0.3 -2.26,-1.12 -0.893,-1.23 -0.598,-2.568 0.79,-3.575 1.396,-1.02 2.696,-1.13 4.406,-0.4 l 0.68,0.294 1.864,-4.914 -0.623,-0.265 c -3.267,-1.393 -6.443,-0.997 -9.425,1.176 -1.88,1.37 -3.13,3.22 -3.506,5.215 -0.375,2.002 0.13,4.083 1.42,5.86 1.665,2.284 3.812,3.348 6.738,3.348 m 35.718,-4.866 -2.97,-7.698 10.76,-4.137 2.97,7.7 5.284,-2.037 -10.208,-26.484 -5.295,2.035 5.376,13.944 -10.76,4.14 -5.368,-13.95 -5.297,2.03 10.215,26.484 5.293,-2.03 z m 34.808,-9.42 -4.073,-28.083 -5.613,0.81 4.073,28.08 5.613,-0.808 z m 20.008,-17.59 14.93,18.263 1.33,0.1 2.22,-28.684 -5.374,-0.41 -1.284,16.605 -14.94,-18.256 -1.32,-0.102 -2.23,28.683 5.38,0.417 1.288,-16.614 z m 41.142,25.882 c 2.294,0.88 4.442,1.31 6.555,1.31 1.664,0 3.295,-0.274 4.988,-0.837 l 0.314,-0.105 3.937,-10.198 -11.73,-4.512 -1.875,4.838 6.755,2.59 -1.09,2.8 c -1.805,0.315 -3.725,0.05 -5.95,-0.806 -5.21,-2.002 -7.376,-6.832 -5.38,-12.01 1.47,-3.813 4.63,-6.18 8.23,-6.18 a 8.88,8.88 0 0 1 3.17,0.606 c 3.595,1.386 4.624,3.358 5.37,5.263 l 0.26,0.67 5.032,-2.07 -0.237,-0.64 c -1.45,-3.866 -4.125,-6.436 -8.425,-8.087 a 15.034,15.034 0 0 0 -5.44,-1.027 c -6.03,0 -11.16,3.593 -13.39,9.377 -2.984,7.74 0.845,15.91 8.912,19.014 m 29.205,16.17 13.674,-18.74 6.48,4.713 3.06,-4.185 -17.544,-12.766 -3.05,4.186 6.48,4.717 -13.678,18.74 4.58,3.335 z m 18.122,10.723 c -0.39,3.79 0.764,7.58 3.25,10.67 2.85,3.556 7,5.603 11.4,5.603 3.28,0 6.44,-1.134 9.12,-3.278 3.14,-2.507 5.076,-6 5.474,-9.846 0.375,-3.78 -0.778,-7.57 -3.255,-10.657 -2.85,-3.563 -7.01,-5.607 -11.4,-5.607 -3.285,0 -6.438,1.135 -9.125,3.275 -3.136,2.51 -5.08,6.01 -5.465,9.84 m 9.1,-5.294 c 1.854,-1.48 3.956,-2.257 6.08,-2.257 2.597,0 4.977,1.183 6.7,3.327 3.19,3.987 2.46,9.318 -1.745,12.676 -1.846,1.48 -3.95,2.263 -6.072,2.263 -2.596,0 -4.97,-1.19 -6.698,-3.34 -3.194,-3.976 -2.466,-9.313 1.737,-12.67 m 10.67,41.88 15.515,-6.127 -9.77,21.132 -0.12,0.273 0.473,1.242 26.825,-10.583 -1.994,-5.003 -15.514,6.12 9.89,-21.397 -0.47,-1.242 -26.827,10.58 1.993,5.01 z m -214,123.396 -14.02,9.04 5.5,-22.924 -0.716,-1.13 -24.208,15.624 2.93,4.52 14.018,-9.04 -5.518,22.936 0.746,1.1 24.195,-15.613 -2.93,-4.514 z m 30.905,36.712 7.078,3.755 -10.867,20.5 5,2.64 10.878,-20.49 7.09,3.75 2.43,-4.577 -19.178,-10.153 -2.43,4.58 z m 24.77,36.407 5.447,1.578 7.907,-27.26 -5.444,-1.577 -7.907,27.26 z m 39.503,-22.08 c -8.283,-0.38 -14.924,5.71 -15.3,13.868 -0.37,8.15 5.773,14.824 13.976,15.193 h 0.727 c 7.947,0 14.213,-5.972 14.566,-13.89 0.37,-8.144 -5.77,-14.814 -13.97,-15.19 m -1.088,23.806 c -5.107,-0.234 -8.635,-4.294 -8.39,-9.67 0.238,-5.236 3.85,-8.89 8.777,-8.89 h 0.46 c 2.49,0.115 4.704,1.153 6.22,2.92 1.517,1.766 2.284,4.165 2.165,6.763 -0.244,5.39 -4.056,9.092 -9.232,8.87 m 43.665,-28.694 4.14,16.142 -19.777,-12.32 -0.25,-0.16 -1.3,0.33 7.17,27.87 5.22,-1.343 -4.146,-16.134 19.78,12.325 0.25,0.158 1.296,-0.335 -7.163,-27.864 -5.22,1.33 z m 65.31,-12.56 -16.39,-16.44 -4.02,3.994 20.052,20.113 12.464,-12.387 -3.664,-3.67 z m 26.07,-38.42 c -1.495,-0.915 -2.93,-1.363 -4.386,-1.363 -2.346,0 -4.488,1.123 -6.976,2.818 l -1.694,1.16 c -1.705,1.156 -2.8,1.78 -3.738,1.78 -0.445,0 -0.89,-0.14 -1.37,-0.443 -1.3,-0.793 -1.535,-2.137 -0.63,-3.595 0.88,-1.43 2.02,-2.042 3.793,-2.042 h 0.88 l -0.147,-5.256 h -0.847 c -3.466,0 -6.193,1.565 -8.107,4.65 -1.217,1.986 -1.666,4.17 -1.263,6.154 0.41,2.004 1.666,3.74 3.54,4.886 1.38,0.85 2.74,1.264 4.17,1.264 2.068,0 4.147,-0.823 6.937,-2.746 l 1.68,-1.15 c 1.393,-0.943 2.597,-1.76 3.762,-1.76 0.51,0 1.016,0.16 1.54,0.477 0.59,0.364 0.964,0.88 1.12,1.504 0.225,0.97 -0.07,2.184 -0.843,3.43 -1.313,2.128 -3.233,3.127 -5.66,2.945 l -0.7,-0.058 -0.49,5.388 0.73,0.06 h 0.818 c 4.056,0 7.52,-2.014 9.765,-5.655 1.682,-2.717 2.272,-5.39 1.72,-7.742 -0.464,-1.932 -1.71,-3.566 -3.612,-4.734 M 147.3,363.19 l 4.36,3.804 4.544,-2.223 7.85,6.846 -1.63,4.792 4.51,3.93 9.697,-30.01 -0.854,-0.733 -28.473,13.59 z m 18.84,2.273 -0.307,0.91 -4.62,-4.05 0.854,-0.414 6.335,-3.104 -2.26,6.658 z m 153.225,-1.508 4.04,31.25 4.974,-2.942 -0.7,-5.008 8.963,-5.31 4.055,3.04 5.154,-3.04 -25.526,-18.58 -0.966,0.59 z m 12.09,14.095 0.764,0.58 -5.3,3.113 -0.13,-0.944 -0.98,-6.978 5.64,4.227 z M 157.08,184.355 l -2.37,-4.475 6.608,-8.04 4.846,1.47 3.8,-4.62 -30.353,-8.74 -0.703,0.88 14.5,27.99 3.67,-4.468 z m -8.726,-16.454 6.75,2.05 0.914,0.282 -3.914,4.74 -3.75,-7.067 z"
       id="path16"
       inkscape:connector-curvature="0"
       style="fill:#ffffff" />
    <path
       d="m 315.127,184.374 c -14.54,-11.653 -27.72,2.916 -27.72,11.248 14.523,3.107 27.52,17.67 21.712,55.5 -4.758,30.94 -22.988,50.203 -34.43,50.587 9.49,-13.046 15.88,-27.748 19.34,-42.11 10.43,-42.96 -6.25,-56.808 -19.448,-57.44 -16.038,-0.828 -32.12,21.055 -36.593,46.88 -3.55,20.46 -3.085,41.36 9.33,56.68 -11.005,13.876 -37.397,18.18 -32.77,-15.306 3.882,-28.002 17.772,-58.904 25.485,-74.078 l 0.23,-0.408 c 4.117,-8.48 7.4,-14.48 8.796,-16.88 l -3.106,-0.074 c -30.01,0.516 -53.944,7.47 -65.05,22.702 -10.445,14.265 -10.747,29.3 -2.134,38.17 l 1.27,1.285 c 2.53,2.524 5.83,3.837 9.13,3.837 2.99,0 5.986,-1.1 8.26,-3.38 2.286,-2.258 3.416,-5.306 3.416,-8.303 0,-3.305 -1.33,-6.604 -3.846,-9.136 -1.37,-1.32 -2.9,-2.33 -4.53,-2.98 l 0.073,-0.09 0.775,-1.6 c 2.03,-3.536 5.563,-6.77 10.14,-9.057 3.623,-1.807 7.845,-3.06 12.435,-3.52 l -0.7,1.514 c -6.37,11.846 -15.677,34.363 -18.636,46.076 -9.146,36.71 5.667,58.195 21.682,61.206 19.29,3.61 34.073,-5.757 41.904,-17.847 9.32,5.934 33.956,9.337 52.48,-23.698 21.308,-38.033 22.09,-94.117 2.518,-109.822 m -54.52,108.71 c -3.647,-8.906 -5.32,-19.394 -5.32,-29.365 0,-12.03 2.404,-23.21 6.55,-29.787 2.71,-4.332 5.987,-6.42 9.633,-6.178 1.306,0.074 2.782,0.524 3.845,3.04 0.85,2.038 1.224,4.747 1.224,7.884 0,15.683 -9.365,42.437 -15.934,54.408"
       id="path18"
       inkscape:connector-curvature="0"
       style="fill:#11225b" />
    <path
       d="m 312.95,187.098 c -4.65,-3.72 -9.455,-4.57 -13.905,-2.406 -3.742,1.8 -6.57,5.38 -7.66,8.436 8.973,3.033 22.62,12.332 22.62,40.954 0,5.225 -0.465,11.04 -1.484,17.587 -4.452,29.18 -20.68,49.02 -33.664,52.832 -3.838,1.13 -7.307,0.812 -10.148,-0.745 12.864,-15.854 19.034,-32.895 21.956,-45 2.28,-9.402 3.205,-17.122 3.205,-23.44 0,-11.277 -2.87,-18.133 -5.913,-22.214 -4.62,-6.156 -10.458,-7.337 -13.558,-7.5 -13.633,-0.663 -28.726,19.515 -32.96,44.025 -1.227,7.086 -1.877,13.632 -1.877,19.62 0,15.38 4.067,27.32 12.178,36.19 -6.007,9.44 -18.244,15.89 -27.934,13.685 -4.28,-0.967 -13.247,-4.967 -13.247,-21.44 0,-2.34 0.176,-4.894 0.567,-7.728 3.53,-25.265 15.094,-53.237 23.264,-70.13 l 0.2,-0.36 c 3.55,-7.435 6.6,-13.3 8.636,-16.88 h -0.547 c -29.184,0.98 -49.54,8.265 -58.98,21.16 0,0 -7.874,10.087 -7.6,20.324 0.155,5.95 2.243,11.196 6.78,14.872 l 0.593,0.465 c 3.54,2.775 8.457,2.716 11.453,-0.318 3.285,-3.307 3.07,-8.843 -0.442,-12.378 -1.83,-1.83 -4.17,-2.782 -6.47,-2.812 h -0.074 c 2.073,-11.712 15.55,-20.767 31.845,-20.767 l 2.15,0.073 -0.303,0.59 -3.39,6.332 c -6.037,11.21 -15.36,33.412 -18.31,45.242 -4.63,18.533 -3.285,34.807 3.756,45.804 3.904,6.102 9.306,10.043 15.16,11.15 12.908,2.42 22.325,-1.69 27.964,-5.557 4.693,-3.225 9.29,-8.266 12.516,-13.6 3.845,2.493 10.318,5.165 15.75,5.09 9.218,-0.132 22.702,-4.715 34.49,-25.75 9.83,-17.542 15.734,-40.016 16.14,-61.64 0.428,-20.67 -4.355,-37.013 -12.754,-43.766 m -41.28,37.19 c 20.592,1.287 -2.62,65.607 -11.58,75.896 -14.723,-26.646 -9.225,-77.21 11.58,-75.896"
       id="path20"
       inkscape:connector-curvature="0"
       style="fill:#ab0003" />
  </g>
</svg>
