<?xml version="1.0" encoding="UTF-8" standalone="no"?>
<svg
   xmlns:dc="http://purl.org/dc/elements/1.1/"
   xmlns:cc="http://creativecommons.org/ns#"
   xmlns:rdf="http://www.w3.org/1999/02/22-rdf-syntax-ns#"
   xmlns:svg="http://www.w3.org/2000/svg"
   xmlns="http://www.w3.org/2000/svg"
   xmlns:sodipodi="http://sodipodi.sourceforge.net/DTD/sodipodi-0.dtd"
   xmlns:inkscape="http://www.inkscape.org/namespaces/inkscape"
   width="512"
   height="512"
   viewBox="0 0 512 512"
   version="1.1"
   id="svg140"
   sodipodi:docname="houston-rockets.svg"
   inkscape:version="0.92.4 (5da689c313, 2019-01-14)">
  <metadata
     id="metadata146">
    <rdf:RDF>
      <cc:Work
         rdf:about="">
        <dc:format>image/svg+xml</dc:format>
        <dc:type
           rdf:resource="http://purl.org/dc/dcmitype/StillImage" />
      </cc:Work>
    </rdf:RDF>
  </metadata>
  <defs
     id="defs144" />
  <sodipodi:namedview
     pagecolor="#ffffff"
     bordercolor="#666666"
     borderopacity="1"
     objecttolerance="10"
     gridtolerance="10"
     guidetolerance="10"
     inkscape:pageopacity="0"
     inkscape:pageshadow="2"
     inkscape:window-width="640"
     inkscape:window-height="480"
     id="namedview142"
     showgrid="false"
     inkscape:zoom="0.4609375"
     inkscape:cx="256"
     inkscape:cy="256"
     inkscape:window-x="910"
     inkscape:window-y="230"
     inkscape:window-maximized="0"
     inkscape:current-layer="svg140" />
  <title
     id="title2">houston-rockets</title>
  <g
     id="g138"
     transform="matrix(0.84002299,0,0,0.82977578,65.829758,133.59266)"
     style="fill:none;fill-rule:evenodd">
    <path
       d="m 200.723,206.886 c 0.254,-5.285 1.078,-8.543 2.548,-14.038 -0.21,0.247 -0.66,0.684 -1.37,1.362 -1.47,5.5 -2.3,8.773 -2.53,14.04 v 9.367 l 1.37,1.792 -0.01,-12.53"
       id="path4"
       inkscape:connector-curvature="0"
       style="fill:#261c02" />
    <path
       d="m 188.82,215.8 15.586,20.588 1.372,-1.355 -16.946,-22.41 -0.013,3.176"
       id="path6"
       inkscape:connector-curvature="0"
       style="fill:#261c02" />
    <path
       d="m 187.41,235.212 1.364,-1.356 -4.997,3.643 -0.027,-40.19 -1.352,1.36 0.013,40.18 5,-3.65"
       id="path8"
       inkscape:connector-curvature="0"
       style="fill:#261c02" />
    <path
       d="m 166.344,236.307 c 0,0 8.983,0.874 8.983,-8.558 0,7.28 -7.605,7.19 -7.605,7.19 h -7.08 c 0,0 -7.605,0.09 -7.605,-7.19 v -23.24 c 0,-7.2 7.604,-7.2 7.604,-7.2 0,0 -8.96,-0.26 -8.96,8.56 v 23.23 c 0,7.29 7.59,7.192 7.59,7.192 h 7.08"
       id="path10"
       inkscape:connector-curvature="0"
       style="fill:#261c02" />
    <path
       d="m 168.015,206.87 v 21.364 c 0,1.316 -0.34,2.47 -0.927,3.377 0.052,-0.02 0.105,-0.05 0.138,-0.07 0.097,-0.07 0.176,-0.12 0.254,-0.19 v -0.02 c 0.228,-0.15 0.41,-0.34 0.58,-0.54 0.08,-0.08 0.14,-0.15 0.217,-0.24 0.084,-0.09 0.137,-0.18 0.19,-0.27 0.05,-0.1 0.123,-0.19 0.17,-0.285 0.026,-0.04 0.058,-0.08 0.07,-0.142 0.047,-0.103 0.1,-0.195 0.157,-0.286 0,-0.012 0.008,-0.012 0.008,-0.012 0.04,-0.11 0.077,-0.2 0.117,-0.3 v -0.023 c 0.02,-0.04 0.04,-0.104 0.04,-0.15 h 0.01 c 0.01,-0.057 0.02,-0.11 0.05,-0.156 v -0.025 c 0.028,-0.04 0.028,-0.095 0.053,-0.133 v -0.034 c 0.02,-0.04 0.026,-0.103 0.04,-0.163 l 0.006,-0.016 c 0.012,-0.047 0.025,-0.086 0.03,-0.15 0.01,0 0.01,-0.013 0.01,-0.033 0.012,-0.11 0.045,-0.214 0.064,-0.32 V 228 c 0.01,-0.057 0.01,-0.103 0.02,-0.148 0.02,-0.008 0.02,-0.008 0.02,-0.028 v -0.165 c 0,-0.02 0.013,-0.02 0.013,-0.05 0,-0.048 0,-0.08 0.006,-0.14 v -0.03 c 0.005,-0.06 0.01,-0.12 0.01,-0.17 v -0.24 c 0.014,-0.05 0.014,-0.128 0.014,-0.18 V 205.5 c 0,-3.317 -2.06,-5.568 -5.214,-5.568 -0.06,0 -0.124,0 -0.19,0.014 h -0.267 c -0.02,0 -0.067,0 -0.11,0.02 h -0.088 c -0.01,0.007 -0.05,0.007 -0.1,0.013 h -0.08 c -0.025,0 -0.07,0.01 -0.104,0.01 -0.025,0.01 -0.04,0.01 -0.07,0.01 -0.034,0 -0.067,0.02 -0.125,0.02 h -0.065 c -0.03,0.003 -0.077,0.003 -0.13,0.024 -0.02,0 -0.03,0.012 -0.06,0.012 -0.043,0.004 -0.09,0.02 -0.135,0.03 -0.026,0 -0.065,0 -0.08,0.027 -0.037,0 -0.07,0 -0.103,0.01 -0.02,0.016 -0.04,0.016 -0.07,0.02 -0.03,0.016 -0.05,0.016 -0.08,0.035 -0.035,0 -0.06,0.004 -0.076,0.01 -0.03,0.014 -0.06,0.014 -0.08,0.02 -0.043,0.02 -0.06,0.02 -0.09,0.045 -0.005,0 -0.05,0.016 -0.07,0.016 -0.04,0 -0.05,0.014 -0.092,0.03 -0.02,0.01 -0.03,0.02 -0.057,0.02 -0.025,0.023 -0.07,0.043 -0.1,0.05 -0.004,0 -0.023,0.013 -0.05,0.026 -0.063,0.02 -0.116,0.058 -0.174,0.078 -0.02,0 -0.032,0.016 -0.052,0.02 -0.03,0.02 -0.05,0.04 -0.08,0.054 -0.02,0.013 -0.036,0.013 -0.05,0.02 -0.04,0.02 -0.065,0.046 -0.09,0.052 -0.02,0.007 -0.032,0.04 -0.052,0.04 -0.03,0.006 -0.053,0.032 -0.08,0.046 -0.024,0.02 -0.037,0.02 -0.045,0.03 -0.03,0.02 -0.056,0.04 -0.095,0.052 -0.014,0.02 -0.02,0.03 -0.04,0.047 -0.04,0.02 -0.05,0.033 -0.08,0.052 -0.03,0.02 -0.034,0.026 -0.047,0.045 -0.024,0.02 -0.044,0.04 -0.08,0.063 -0.01,0 -0.03,0.014 -0.03,0.02 -0.1,0.08 -0.19,0.17 -0.28,0.254 -0.02,0.006 -0.034,0.02 -0.05,0.025 l -0.064,0.085 c -0.02,0.005 -0.027,0.024 -0.046,0.04 -0.02,0.017 -0.033,0.062 -0.052,0.08 -0.02,0.015 -0.03,0.02 -0.05,0.047 -0.02,0.02 -0.04,0.04 -0.052,0.067 -0.025,0.025 -0.04,0.04 -0.05,0.06 -0.02,0.025 -0.046,0.06 -0.06,0.083 0,0.012 0,0.045 -0.03,0.052 -0.028,0.02 -0.035,0.05 -0.054,0.07 -0.025,0.02 -0.025,0.032 -0.044,0.044 -0.007,0.047 -0.02,0.086 -0.04,0.1 0.843,-0.503 1.856,-0.732 2.987,-0.732 3.15,0 5.21,2.235 5.21,5.56"
       id="path12"
       inkscape:connector-curvature="0"
       style="fill:#261c02" />
    <path
       d="m 310.22,188.372 c -0.47,0.46 -0.887,0.847 -1.365,1.368 -0.9,2.568 -1.567,5.11 -2.037,7.64 0.372,-0.086 0.745,-0.164 1.124,-0.222 0.47,-2.908 1.26,-5.827 2.28,-8.786"
       id="path14"
       inkscape:connector-curvature="0"
       style="fill:#261c02" />
    <path
       d="m 322.98,219.204 c 0.086,-3.24 -6.043,-3.977 -9.987,-4.12 l 0.02,1.435 c 3.827,0.27 8.674,1.17 8.583,4.05 l 0.215,15.46 5.47,3.19 1.38,-1.37 -5.48,-3.18 -0.19,-15.48"
       id="path16"
       inkscape:connector-curvature="0"
       style="fill:#261c02" />
    <path
       d="m 306.305,200.764 c -0.052,0.403 -0.104,0.802 -0.14,1.2 l -0.194,37.262 5.79,-3.187 1.36,-1.37 -5.77,3.18 0.223,-37.26 c 0.013,-0.407 0.077,-0.8 0.118,-1.22 -5.44,-0.06 -10.18,0.402 -10.18,0.402 l -1.356,1.36 c 0,0 4.71,-0.448 10.164,-0.38"
       id="path18"
       inkscape:connector-curvature="0"
       style="fill:#261c02" />
    <path
       d="m 322.823,214.023 c 0.964,-0.515 2.16,-1.553 3.708,-2.985 -2.9,2.47 -6.58,3.33 -6.58,3.33 0,0 1.3,-0.3 2.88,-0.345"
       id="path20"
       inkscape:connector-curvature="0"
       style="fill:#261c02" />
    <path
       d="m 312.908,201.145 c 5.037,0.594 9.354,1.955 9.74,4.92 0.287,2.347 -0.334,4.173 -1.437,5.575 0.04,-0.033 0.07,-0.046 0.1,-0.066 0.11,-0.105 0.21,-0.202 0.33,-0.306 0.08,-0.045 0.16,-0.13 0.25,-0.21 0.098,-0.11 0.183,-0.195 0.287,-0.298 0.09,-0.09 0.15,-0.17 0.23,-0.248 0.09,-0.11 0.187,-0.22 0.26,-0.32 0.07,-0.09 0.14,-0.202 0.2,-0.306 0.078,-0.11 0.156,-0.21 0.235,-0.318 0.06,-0.118 0.123,-0.23 0.183,-0.34 0.06,-0.112 0.105,-0.222 0.17,-0.34 0.06,-0.13 0.11,-0.253 0.164,-0.39 0.044,-0.105 0.083,-0.23 0.116,-0.34 0.06,-0.15 0.098,-0.318 0.138,-0.475 0.027,-0.105 0.068,-0.21 0.08,-0.32 0.054,-0.254 0.094,-0.546 0.133,-0.827 v -0.144 c 0.02,-0.033 0.02,-0.085 0.02,-0.136 v -0.842 c 0,-0.018 0,-0.057 -0.02,-0.09 v -0.19 c -0.014,-0.04 -0.014,-0.064 -0.014,-0.103 v -0.04 c -0.013,-0.04 -0.013,-0.06 -0.024,-0.11 v -0.03 c 0,-0.047 -0.02,-0.086 -0.027,-0.145 -0.4,-3.24 -5.535,-4.587 -11.186,-5.075 0.04,0.33 0.066,0.657 0.08,0.984 l 0.006,0.545"
       id="path22"
       inkscape:connector-curvature="0"
       style="fill:#261c02" />
    <path
       d="m 348.984,199.95 h -0.458 c -0.04,0 -0.066,0.02 -0.118,0.02 -0.014,0 -0.04,0 -0.072,0.005 -0.045,0 -0.064,0 -0.116,0.005 h -0.066 c -0.035,0 -0.085,0.014 -0.105,0.014 -0.03,0.013 -0.06,0.013 -0.09,0.013 -0.03,0 -0.07,0.02 -0.1,0.02 -0.04,0.008 -0.04,0.008 -0.06,0.008 -0.05,0.005 -0.09,0.005 -0.13,0.025 -0.02,0 -0.07,0.013 -0.07,0.013 -0.05,0.007 -0.11,0.014 -0.15,0.025 -0.02,0 -0.06,0.014 -0.08,0.027 -0.047,0 -0.07,0 -0.098,0.013 -0.04,0.013 -0.053,0.013 -0.09,0.02 -0.014,0.012 -0.033,0.032 -0.066,0.032 -0.045,0.007 -0.06,0.007 -0.078,0.033 -0.046,0 -0.074,0.006 -0.098,0.006 -0.02,0.01 -0.05,0.01 -0.087,0.04 -0.016,0 -0.047,0.01 -0.055,0.01 -0.033,0.01 -0.06,0.02 -0.08,0.02 -0.04,0.013 -0.06,0.02 -0.07,0.02 -0.03,0.026 -0.066,0.04 -0.104,0.045 0,0 -0.025,0.013 -0.045,0.013 -0.11,0.064 -0.217,0.115 -0.34,0.18 -0.01,0 -0.02,0 -0.047,0.007 -0.02,0.027 -0.05,0.046 -0.083,0.05 -0.013,0.017 -0.032,0.036 -0.045,0.036 -0.013,0.007 -0.06,0.033 -0.08,0.06 -0.01,0.005 -0.044,0.005 -0.044,0.02 -0.015,0.024 -0.07,0.044 -0.09,0.06 -0.016,0.017 -0.016,0.024 -0.05,0.044 -0.02,0.015 -0.06,0.04 -0.08,0.06 -0.03,0 -0.03,0 -0.043,0.01 -0.028,0.025 -0.06,0.06 -0.106,0.083 -0.137,0.12 -0.28,0.26 -0.425,0.396 0,0.023 -0.012,0.023 -0.012,0.036 -0.02,0.012 -0.046,0.06 -0.078,0.09 -0.006,0.007 -0.013,0.007 -0.013,0.02 -0.04,0.04 -0.06,0.07 -0.074,0.1 -0.03,0.01 -0.03,0.023 -0.045,0.023 -0.01,0.044 -0.04,0.076 -0.06,0.096 0,0.012 0,0.024 -0.01,0.024 l -0.15,0.246 c 0.813,-0.5 1.84,-0.723 2.983,-0.723 3.15,0 5.21,2.24 5.21,5.55 v 21.35 c 0,1.302 -0.324,2.442 -0.92,3.356 0.067,-0.058 0.16,-0.097 0.224,-0.155 0.07,-0.05 0.135,-0.082 0.2,-0.13 0.19,-0.16 0.37,-0.32 0.55,-0.502 l 0.19,-0.253 0.013,-0.02 c 0.064,-0.07 0.13,-0.156 0.18,-0.26 h 0.014 c 0.01,-0.03 0.05,-0.084 0.062,-0.118 0.045,-0.062 0.05,-0.116 0.097,-0.155 0.028,-0.04 0.05,-0.07 0.07,-0.142 0.004,0 0.004,0 0.01,-0.01 0.052,-0.1 0.086,-0.19 0.15,-0.28 v -0.02 c 0.04,-0.1 0.07,-0.2 0.11,-0.3 0,-0.016 0.014,-0.03 0.014,-0.03 0.027,-0.045 0.033,-0.09 0.05,-0.15 v -0.005 c 0.02,-0.04 0.05,-0.105 0.06,-0.164 l 0.014,-0.005 0.02,-0.15 c 0.02,0 0.02,0 0.02,-0.018 0.01,-0.053 0.027,-0.1 0.04,-0.158 0.02,0 0.02,-0.017 0.02,-0.017 0.007,-0.06 0.007,-0.097 0.02,-0.156 v -0.038 c 0.04,-0.114 0.05,-0.22 0.064,-0.316 0.015,-0.017 0.015,-0.045 0.015,-0.05 0,-0.05 0.02,-0.1 0.02,-0.15 v -0.02 c 0.005,-0.05 0.01,-0.117 0.017,-0.16 v -0.04 c 0,-0.055 0.015,-0.1 0.015,-0.14 v -0.045 c 0.007,-0.07 0.007,-0.128 0.007,-0.18 0.01,-0.014 0.01,-0.025 0.01,-0.025 v -21.7 c 0,-3.316 -2.04,-5.55 -5.19,-5.55"
       id="path24"
       inkscape:connector-curvature="0"
       style="fill:#261c02" />
    <path
       d="m 352.517,234.913 h -7.08 c 0,0 -7.592,0.092 -7.592,-7.196 v -23.203 c 0,-7.196 7.59,-7.196 7.59,-7.196 0,0 -8.96,-0.56 -8.96,8.565 v 23.203 c 0,7.3 7.59,7.196 7.59,7.196 h 7.088 c 0,0 8.472,0.743 8.917,-7.835 -0.464,6.395 -7.226,6.466 -7.553,6.466"
       id="path26"
       inkscape:connector-curvature="0"
       style="fill:#261c02" />
    <path
       d="m 382.476,231.502 c 0.086,-0.066 0.17,-0.12 0.242,-0.19 h 0.012 c 0.09,-0.072 0.17,-0.13 0.25,-0.215 0.025,-0.026 0.072,-0.065 0.11,-0.103 0.052,-0.046 0.08,-0.08 0.105,-0.125 0.038,-0.03 0.065,-0.06 0.11,-0.11 h 0.007 c 0.085,-0.09 0.13,-0.16 0.196,-0.25 0.014,0 0.014,-0.03 0.014,-0.03 0.077,-0.07 0.124,-0.16 0.18,-0.237 0,-0.02 0,-0.02 0.022,-0.02 0.013,-0.038 0.034,-0.078 0.072,-0.124 l 0.006,-0.014 c 0.006,-0.054 0.06,-0.1 0.08,-0.126 l 0.005,-0.02 c 0.033,-0.036 0.046,-0.07 0.066,-0.13 l 0.01,-0.02 c 0.042,-0.09 0.087,-0.186 0.14,-0.27 0,-0.01 0,-0.03 0.013,-0.033 l 0.123,-0.28 v -0.033 c 0.01,-0.05 0.02,-0.095 0.05,-0.13 v -0.03 c 0.02,-0.038 0.04,-0.103 0.04,-0.163 v -0.003 c 0.03,-0.05 0.04,-0.096 0.05,-0.15 l 0.008,-0.017 c 0.01,-0.05 0.03,-0.1 0.047,-0.16 0.007,0 0.007,-0.013 0.007,-0.013 0,-0.056 0.014,-0.095 0.02,-0.14 0.02,-0.02 0.02,-0.034 0.02,-0.05 0,-0.05 0.02,-0.09 0.025,-0.16 0,-0.056 0.004,-0.103 0.01,-0.15 v -0.05 c 0.025,-0.054 0.03,-0.1 0.03,-0.145 0,-0.005 0.014,-0.02 0.014,-0.02 0,-0.056 0.016,-0.122 0.016,-0.17 0,-0.024 0.01,-0.04 0.01,-0.04 0,-0.042 0.015,-0.094 0.015,-0.133 v -0.25 c 0,-0.04 0,-0.09 0.015,-0.15 v -2.26 l -1.373,1.37 v 2.04 c 0,1.3 -0.347,2.47 -0.915,3.38 0.034,-0.028 0.08,-0.05 0.12,-0.07 0,-0.015 0.013,-0.015 0.013,-0.015"
       id="path28"
       inkscape:connector-curvature="0"
       style="fill:#261c02" />
    <path
       d="m 384.633,205.5 c 0,-3.317 -2.06,-5.554 -5.2,-5.554 h -0.457 c -0.04,0 -0.067,0.02 -0.11,0.02 -0.022,0 -0.053,0 -0.086,0.007 -0.035,0 -0.054,0 -0.098,0.006 h -0.086 c -0.025,0 -0.065,0.01 -0.09,0.01 -0.02,0.01 -0.053,0.01 -0.086,0.01 -0.04,0 -0.072,0.02 -0.104,0.02 h -0.085 c -0.03,0.003 -0.05,0.003 -0.09,0.003 -0.02,0.02 -0.08,0.033 -0.1,0.04 -0.05,0 -0.07,0.013 -0.122,0.026 -0.026,0 -0.047,0.026 -0.09,0.026 -0.02,0 -0.06,0 -0.08,0.01 -0.026,0.013 -0.052,0.013 -0.08,0.02 -0.025,0.013 -0.05,0.032 -0.08,0.032 -0.036,0.003 -0.063,0.003 -0.102,0.024 -0.012,0 -0.04,0.01 -0.052,0.01 -0.043,0.02 -0.062,0.02 -0.095,0.044 -0.014,0 -0.028,0.01 -0.067,0.01 -0.02,0 -0.064,0.026 -0.097,0.04 0,0 -0.02,0.007 -0.055,0.007 -0.03,0.025 -0.064,0.045 -0.09,0.053 -0.013,0 -0.026,0.014 -0.026,0.014 -0.117,0.064 -0.26,0.11 -0.386,0.175 l -0.01,0.005 c -0.025,0.027 -0.07,0.052 -0.11,0.072 -0.014,0 -0.025,0.02 -0.025,0.02 -0.04,0.004 -0.07,0.03 -0.1,0.063 -0.02,0 -0.03,0 -0.03,0.014 -0.045,0.02 -0.07,0.047 -0.105,0.054 -0.002,0.02 -0.02,0.026 -0.02,0.044 -0.05,0.012 -0.086,0.044 -0.105,0.07 -0.006,0 -0.006,0 -0.027,0.01 -0.195,0.137 -0.37,0.307 -0.55,0.495 h -0.005 c -0.024,0.034 -0.045,0.08 -0.07,0.12 h -0.02 c -0.032,0.044 -0.056,0.076 -0.097,0.116 v 0.015 c -0.03,0.044 -0.06,0.08 -0.082,0.102 v 0.026 c -0.06,0.077 -0.11,0.162 -0.17,0.242 0.836,-0.5 1.848,-0.73 2.985,-0.73 3.16,0 5.206,2.233 5.206,5.544 v 2.04 h 5.93 l 1.377,-1.363 h -5.93 v -2.03"
       id="path30"
       inkscape:connector-curvature="0"
       style="fill:#261c02" />
    <path
       d="m 390.41,229.414 c -0.01,0.06 -0.025,0.098 -0.025,0.124 0,0.012 -0.006,0.026 -0.006,0.026 0,0.032 -0.01,0.066 -0.02,0.104 0,0 0,0.025 -0.02,0.025 0,0.04 0,0.086 -0.02,0.105 0,0.013 0,0.02 -0.027,0.026 0,0.046 -0.02,0.078 -0.02,0.098 -0.005,0.02 -0.005,0.026 -0.005,0.034 -0.007,0.045 -0.007,0.077 -0.027,0.097 v 0.026 l -0.04,0.09 v 0.03 c -0.013,0.02 -0.026,0.06 -0.04,0.09 v 0.04 c -0.01,0.03 -0.026,0.05 -0.033,0.09 0,0.01 0,0.02 -0.004,0.02 -0.014,0.04 -0.034,0.06 -0.034,0.093 -0.027,0.013 -0.027,0.013 -0.027,0.026 -0.008,0.04 -0.02,0.06 -0.02,0.09 l -0.014,0.007 c -0.006,0.034 -0.033,0.074 -0.046,0.113 v 0.018 c -0.014,0.037 -0.025,0.07 -0.04,0.09 v 0.025 c -0.02,0.02 -0.045,0.065 -0.05,0.096 h -0.015 c -0.17,0.4 -0.4,0.743 -0.634,1.062 -0.02,0.034 -0.048,0.06 -0.075,0.09 0,0 0,0.01 -0.005,0.01 0,0.027 -0.03,0.053 -0.05,0.085 -0.02,0.02 -0.045,0.045 -0.06,0.065 v 0.016 c -0.026,0.02 -0.065,0.064 -0.084,0.07 v 0.013 c -0.026,0.018 -0.04,0.045 -0.064,0.07 0,0 0,0.014 -0.014,0.014 -0.014,0.027 -0.04,0.04 -0.07,0.066 -0.016,0.024 -0.04,0.05 -0.07,0.07 v 0.01 c -0.02,0.02 -0.046,0.055 -0.078,0.076 -0.366,0.362 -0.77,0.66 -1.18,0.915 -0.03,0.02 -0.05,0.04 -0.08,0.055 -0.045,0.012 -0.066,0.04 -0.097,0.045 -0.03,0.032 -0.053,0.04 -0.06,0.05 h -0.034 c -0.02,0.026 -0.034,0.034 -0.08,0.054 v 0.01 c -0.02,0.01 -0.052,0.014 -0.08,0.035 -0.442,0.234 -0.906,0.404 -1.35,0.547 -0.027,0.01 -0.04,0.02 -0.067,0.02 -0.03,0.003 -0.066,0.03 -0.08,0.036 h -0.005 c -0.026,0.01 -0.065,0.01 -0.084,0.025 -0.02,0 -0.04,0.004 -0.084,0.02 h -0.008 c -0.02,0.01 -0.03,0.01 -0.066,0.016 -0.024,0 -0.056,0 -0.08,0.02 -0.348,0.098 -0.656,0.158 -0.944,0.19 h -0.01 c -0.01,0 -0.027,0.014 -0.053,0.014 -0.014,0.03 -0.06,0.03 -0.072,0.03 -0.025,0.005 -0.04,0.005 -0.05,0.005 h -0.013 c -0.028,0 -0.048,0 -0.067,0.014 -0.016,0 -0.036,0 -0.055,0.013 h -0.13 c -0.008,0.01 -0.02,0.01 -0.06,0.01 h -0.06 c -0.006,0 -0.006,0.004 -0.046,0.004 h -0.03 c -0.12,0.025 -0.236,0.025 -0.33,0.025 -0.02,0.02 -0.03,0.02 -0.04,0.02 h -0.11 c -0.01,0 -0.01,0 -0.01,0.012 h -7.28 c 0,0 -7.597,0.084 -7.597,-7.196 v -23.2 c 0,-7.198 7.6,-7.198 7.6,-7.198 0,0 -8.98,-0.492 -8.98,8.567 v 23.2 c 0,7.294 7.625,7.195 7.625,7.195 h 7.054 c 0,0 8.315,0.822 8.93,-7.573 -0.03,0.256 -0.068,0.478 -0.11,0.706"
       id="path32"
       inkscape:connector-curvature="0"
       style="fill:#261c02" />
    <path
       d="m 499.023,231.597 c 0.085,-0.053 0.184,-0.1 0.288,-0.163 v -0.013 c 0.1,-0.06 0.17,-0.11 0.26,-0.19 l 0.01,-0.01 c 0.06,-0.05 0.13,-0.12 0.21,-0.22 h 0.01 c 0.06,-0.07 0.13,-0.14 0.19,-0.24 0,-0.003 0,-0.008 0.01,-0.008 l 0.19,-0.26 v -0.01 c 0.057,-0.096 0.09,-0.195 0.13,-0.292 0,0 0.02,-0.007 0.02,-0.02 0.044,-0.09 0.077,-0.18 0.136,-0.285 v -0.03 c 0.033,-0.105 0.06,-0.21 0.093,-0.327 v -0.02 c 0.035,-0.09 0.08,-0.225 0.1,-0.343 v -0.02 c 0.014,-0.12 0.03,-0.25 0.073,-0.386 0,0 0.006,0 0.006,-0.01 0.012,-0.145 0.032,-0.275 0.045,-0.4 v -0.032 c 0.02,-0.136 0.027,-0.272 0.055,-0.416 v -0.03 c 0,-0.16 0,-0.287 0.01,-0.444 v -0.032 c 0.006,-0.15 0.006,-0.303 0.006,-0.46 v -0.04 c 0,-0.15 0,-0.31 0.013,-0.47 v -5.72 c 0,-4.823 -3.435,-4.96 -9.02,-4.96 -7.29,0 -7.507,-1.664 -7.507,-6.794 v -5.73 c 0,-0.084 0.02,-0.15 0.02,-0.228 v -0.07 c 0,-0.06 0,-0.107 0.015,-0.16 0,-0.033 0.003,-0.07 0.003,-0.083 v -0.136 c 0,-0.026 0.01,-0.058 0.01,-0.084 0.015,-0.04 0.015,-0.08 0.036,-0.13 v -0.09 c 0.01,-0.045 0.01,-0.08 0.025,-0.11 0.005,-0.027 0.005,-0.053 0.013,-0.09 0,-0.035 0.013,-0.07 0.013,-0.106 0.01,-0.04 0.01,-0.07 0.02,-0.09 0.005,-0.04 0.01,-0.07 0.01,-0.085 0,-0.05 0.01,-0.08 0.03,-0.12 0.01,-0.03 0.01,-0.04 0.01,-0.08 0.02,-0.02 0.04,-0.08 0.04,-0.11 0,-0.008 0.018,-0.04 0.03,-0.048 0.04,-0.14 0.09,-0.284 0.124,-0.42 0.02,-0.006 0.02,-0.02 0.02,-0.027 0.045,-0.05 0.052,-0.084 0.072,-0.142 0,0 0.008,-0.012 0.008,-0.024 0.027,-0.04 0.047,-0.07 0.054,-0.106 0.02,-0.03 0.03,-0.04 0.046,-0.045 0.007,-0.054 0.02,-0.086 0.04,-0.125 0.02,-0.005 0.02,-0.02 0.02,-0.032 0.03,-0.047 0.05,-0.087 0.063,-0.12 0,-0.02 0.02,-0.026 0.02,-0.04 0.02,-0.025 0.043,-0.064 0.08,-0.103 v -0.01 c 0.232,-0.38 0.5,-0.684 0.8,-0.98 0.046,-0.03 0.072,-0.07 0.11,-0.1 h 0.013 c 0.04,-0.04 0.06,-0.06 0.11,-0.094 v -0.013 c 0.22,-0.17 0.456,-0.35 0.717,-0.506 0,-0.006 0.007,-0.006 0.013,-0.006 0.037,-0.03 0.07,-0.044 0.1,-0.06 0.016,-0.01 0.03,-0.01 0.055,-0.02 0.02,-0.023 0.05,-0.042 0.086,-0.06 0.013,0 0.04,-0.003 0.054,-0.02 0.01,-0.01 0.047,-0.03 0.064,-0.05 0.03,0 0.06,-0.02 0.08,-0.03 0.012,0 0.03,-0.028 0.06,-0.028 l 0.083,-0.043 c 0.02,0 0.044,-0.01 0.05,-0.03 0.04,-0.01 0.07,-0.03 0.11,-0.053 h 0.025 c 0.24,-0.123 0.51,-0.216 0.743,-0.3 0.055,-0.02 0.1,-0.04 0.17,-0.066 0.25,-0.06 0.46,-0.14 0.66,-0.195 0.075,-0.005 0.13,-0.032 0.193,-0.04 0.158,-0.03 0.3,-0.07 0.465,-0.102 0.07,-0.004 0.15,-0.01 0.235,-0.04 0.142,-0.03 0.28,-0.036 0.423,-0.055 0.02,-0.014 0.064,-0.014 0.09,-0.014 -2.137,0.236 -7.71,1.42 -7.71,7.295 v 5.75 c 0,5.114 0.21,6.79 7.505,6.79 5.58,0 9.02,0.123 9.02,4.94 v 5.424 c 0,1.804 -0.162,3.21 -0.632,4.204 0.04,-0.026 0.09,-0.04 0.15,-0.072 l 0.006,-0.014"
       id="path34"
       inkscape:connector-curvature="0"
       style="fill:#261c02" />
    <path
       d="m 500.88,205.25 c -0.013,-2.97 -0.64,-5.41 -5.553,-5.41 h -0.587 c -0.014,0.014 -0.033,0.014 -0.046,0.014 h -0.157 c -0.027,0.014 -0.046,0.014 -0.085,0.014 h -0.19 c -0.046,0.013 -0.066,0.013 -0.112,0.032 h -0.26 c -0.02,0 -0.04,0 -0.066,0.013 -0.012,0 -0.05,0 -0.058,0.02 h -0.183 c -0.02,0.02 -0.04,0.02 -0.078,0.02 h -0.046 c -0.03,0.012 -0.07,0.012 -0.09,0.02 h -0.04 c -0.03,0.006 -0.07,0.006 -0.1,0.006 -0.01,0.01 -0.01,0.01 -0.05,0.01 -0.01,0.01 -0.05,0.01 -0.068,0.01 -0.014,0 -0.014,0.02 -0.04,0.02 h -0.07 l -0.034,0.002 h -0.064 c -0.03,0.02 -0.04,0.02 -0.04,0.02 -0.04,0.014 -0.048,0.014 -0.067,0.02 h -0.044 c -0.02,0.013 -0.048,0.013 -0.067,0.026 h -0.027 c -0.03,0.026 -0.07,0.026 -0.076,0.026 -0.03,0 -0.037,0.013 -0.04,0.013 -0.04,0.013 -0.06,0.013 -0.087,0.02 0,0 -0.02,0 -0.03,0.013 -0.012,0.02 -0.032,0.02 -0.05,0.02 -0.02,0 -0.034,0.005 -0.04,0.005 -0.027,0.004 -0.047,0.023 -0.053,0.023 h -0.046 c -0.02,0 -0.02,0 -0.052,0.02 -0.012,0 -0.024,0 -0.04,0.03 0,0 -0.03,0 -0.04,0.015 h -0.037 c -0.036,0 -0.048,0.013 -0.048,0.025 -0.014,0 -0.014,0 -0.034,0.013 -0.028,0.008 -0.05,0.008 -0.08,0.027 0,0.004 -0.01,0.004 -0.026,0.024 -0.02,0 -0.04,0.006 -0.06,0.02 -0.02,0 -0.038,0 -0.038,0.01 0,0.016 -0.015,0.016 -0.054,0.016 -0.006,0.007 -0.006,0.027 -0.027,0.027 0,0.012 -0.03,0.012 -0.04,0.02 -0.005,0 -0.005,0 -0.023,0.012 -0.013,0.01 -0.033,0.01 -0.045,0.02 -0.01,0 -0.02,0.003 -0.026,0.022 -0.027,0 -0.04,0 -0.05,0.015 0,0.004 -0.017,0.004 -0.036,0.02 -0.01,0 -0.02,0.01 -0.025,0.016 -0.006,0 -0.02,0.02 -0.033,0.02 -0.01,0.01 -0.04,0.034 -0.063,0.034 -0.016,0.006 -0.016,0.006 -0.016,0.02 -0.028,0.017 -0.028,0.017 -0.06,0.025 0,0.02 -0.027,0.027 -0.027,0.027 0,0 -0.02,0.014 -0.02,0.027 -0.015,0.007 -0.023,0.007 -0.035,0.02 0,0.02 -0.035,0.02 -0.035,0.02 -0.01,0.02 -0.03,0.02 -0.03,0.02 0,0.013 0,0.013 -0.014,0.033 -0.008,0 -0.027,0.002 -0.033,0.022 -0.012,0 -0.024,0.015 -0.04,0.02 l -0.03,0.027 c 0,0 -0.006,0.006 -0.013,0.026 -0.013,0 -0.04,0.004 -0.04,0.023 -0.012,0.004 -0.024,0.024 -0.045,0.04 -0.007,0 -0.007,0 -0.007,0.01 -0.005,0.013 -0.016,0.026 -0.03,0.04 -0.013,0.005 -0.032,0.02 -0.04,0.02 0,0.005 -0.02,0.005 -0.02,0.02 -0.02,0.02 -0.02,0.03 -0.02,0.03 -0.02,0.014 -0.02,0.014 -0.024,0.035 -0.01,0.004 -0.02,0.004 -0.02,0.024 -0.02,0.004 -0.02,0.004 -0.04,0.03 0,0 -0.01,0.006 -0.024,0.02 0,0 -0.008,0.012 -0.008,0.026 -0.02,0.006 -0.03,0.025 -0.03,0.025 -0.007,0.02 -0.02,0.02 -0.02,0.04 -0.005,0 -0.005,0.014 -0.013,0.014 -0.033,0.02 -0.033,0.03 -0.05,0.058 v 0.01 c 0,0.01 -0.02,0.04 -0.026,0.04 0,0.006 -0.027,0.02 -0.027,0.025 -0.01,0.014 -0.01,0.04 -0.036,0.04 0,0.02 -0.003,0.032 -0.003,0.032 0,0.005 0,0.02 -0.02,0.03 0,0.005 -0.013,0.005 -0.013,0.02 -0.015,0.02 -0.026,0.02 -0.026,0.03 0,0.01 -0.01,0.025 -0.01,0.025 -0.02,0.025 -0.026,0.025 -0.026,0.044 0,0.015 0,0.027 -0.01,0.027 -0.01,0.005 -0.01,0.04 -0.02,0.04 -0.02,0.012 -0.02,0.02 -0.02,0.02 0,0.025 -0.024,0.052 -0.024,0.07 0.814,-0.41 1.96,-0.64 3.616,-0.64 4.92,0 5.547,2.44 5.573,5.41 l -0.028,1.996 5.353,-2.802 1.363,-1.373 -5.36,2.798 0.014,-1.974"
       id="path36"
       inkscape:connector-curvature="0"
       style="fill:#261c02" />
    <path
       d="m 435.42,202.572 c -0.013,0.02 -0.013,0.033 -0.04,0.04 v 0.024 c -0.064,0.072 -0.117,0.19 -0.182,0.32 -0.008,0.02 -0.033,0.04 -0.033,0.052 -0.02,0.053 -0.027,0.066 -0.04,0.09 1.503,-0.846 3.21,-0.805 3.21,-0.805 l 10.065,-0.014 c 0.843,-0.92 1.38,-1.39 1.38,-1.39 l -10.074,0.02 c 0,0 -2.647,-0.118 -4.286,1.65"
       id="path38"
       inkscape:connector-curvature="0"
       style="fill:#261c02" />
    <path
       d="m 442.227,234.92 h -6.18 c 0,0 -8.05,0.08 -8.015,-7.242 l 0.052,-12.026 -0.052,-10.605 c 0,-1.9 0.516,-3.33 1.286,-4.38 -1.476,1.096 -2.68,2.862 -2.68,5.75 l 0.074,10.598 -0.052,12.02 c -0.04,7.34 8.015,7.26 8.015,7.26 h 6.18 c 0,0 8.31,0.35 8.93,-4.778 -0.685,4.12 -7.558,3.402 -7.558,3.402"
       id="path40"
       inkscape:connector-curvature="0"
       style="fill:#261c02" />
    <path
       d="m 434.182,217.556 v 1.36 l 0.654,0.022 c 4.533,-0.295 8.727,-0.888 13.43,-2.654 0.608,-0.593 0.75,-0.775 1.37,-1.37 -4.707,1.754 -8.882,2.354 -13.415,2.648 l -2.03,-0.006"
       id="path42"
       inkscape:connector-curvature="0"
       style="fill:#261c02" />
    <path
       d="m 468.785,202.367 v 1.383 h 0.71 c 4.6,-0.248 7.546,-0.966 10.884,-2.438 0.51,-0.488 0.87,-0.847 1.39,-1.38 -3.36,1.483 -6.31,2.19 -10.9,2.435 h -2.09"
       id="path44"
       inkscape:connector-curvature="0"
       style="fill:#261c02" />
    <path
       d="m 463.14,202.367 h -9.122 v -4.874 l -1.377,1.37 v 4.887 h 9.13 l -0.02,31.09 5.66,3.78 1.37,-1.375 -5.66,-3.78 0.034,-31.098"
       id="path46"
       inkscape:connector-curvature="0"
       style="fill:#261c02" />
    <path
       d="m 398.322,193.533 -1.358,1.363 v 43.69 l 5.782,-3.73 1.37,-1.355 -5.794,3.73 v -43.69"
       id="path48"
       inkscape:connector-curvature="0"
       style="fill:#261c02" />
    <path
       d="m 404.116,214.71 v 3.534 l 10.915,17.29 h 6.33 l 1.37,-1.367 h -6.33 l -12.28,-19.457"
       id="path50"
       inkscape:connector-curvature="0"
       style="fill:#261c02" />
    <path
       d="m 415.725,197.5 -1.397,1.362 -10.21,14.535 v 0.58 l 11.607,-16.478"
       id="path52"
       inkscape:connector-curvature="0"
       style="fill:#261c02" />
    <path
       d="M 51.398,234.94 H 44.31 c 0,0 -7.598,0.097 -7.598,-7.198 V 204.5 c 0,-3.403 1.712,-5.188 3.49,-6.14 -2.4,1.082 -4.966,3.24 -4.862,7.503 v 23.242 c 0,7.3 7.604,7.19 7.604,7.19 h 7.088 c 0,0 8.427,0.572 8.944,-7.717 0.02,-0.274 0.02,-0.55 0.02,-0.836 0,7.295 -7.598,7.197 -7.598,7.197"
       id="path54"
       inkscape:connector-curvature="0"
       style="fill:#261c02" />
    <path
       d="m 47.864,199.93 h -0.256 c -0.038,0 -0.098,0 -0.13,0.02 h -0.19 c -0.02,0 -0.045,0 -0.084,0.02 -0.027,0 -0.066,0 -0.1,0.007 -0.032,0 -0.045,0 -0.07,0.006 h -0.11 c -0.02,0 -0.047,0.01 -0.093,0.01 -0.01,0.015 -0.04,0.015 -0.08,0.015 -0.02,0.02 -0.04,0.02 -0.08,0.027 -0.03,0 -0.06,0 -0.1,0.005 -0.04,0 -0.07,0.02 -0.12,0.028 -0.03,0.006 -0.063,0.006 -0.11,0.02 -0.02,0 -0.044,0.01 -0.09,0.024 -0.014,0.014 -0.06,0.014 -0.072,0.014 -0.04,0.012 -0.072,0.025 -0.09,0.025 -0.022,0.01 -0.047,0.01 -0.08,0.02 -0.02,0.03 -0.066,0.03 -0.09,0.04 -0.02,0.02 -0.053,0.02 -0.053,0.02 -0.053,0.01 -0.066,0.03 -0.112,0.03 -0.01,0.03 -0.024,0.03 -0.05,0.04 -0.032,0 -0.072,0.016 -0.092,0.028 -0.03,0 -0.043,0.014 -0.05,0.014 -0.026,0.004 -0.08,0.023 -0.11,0.044 -0.01,0 -0.013,0.007 -0.013,0.007 -0.18,0.08 -0.344,0.17 -0.514,0.255 l -0.034,0.013 c -0.024,0.03 -0.07,0.056 -0.1,0.08 -0.01,0 -0.01,0.007 -0.01,0.007 -0.05,0.034 -0.084,0.06 -0.116,0.073 0,0 -0.004,0.02 -0.024,0.02 -0.033,0.026 -0.08,0.046 -0.11,0.07 0,0 -0.02,0 -0.02,0.02 -0.216,0.18 -0.45,0.37 -0.648,0.61 -0.028,0.04 -0.067,0.08 -0.087,0.12 -0.105,0.125 -0.184,0.254 -0.26,0.386 0.83,-0.498 1.846,-0.733 2.983,-0.733 3.17,0 5.22,2.25 5.22,5.56 v 21.36 c 0,1.314 -0.345,2.49 -0.94,3.373 0.046,-0.027 0.098,-0.034 0.124,-0.06 0,0 0.01,-0.02 0.02,-0.02 0.09,-0.05 0.17,-0.123 0.255,-0.175 0,-0.02 0,-0.02 0.02,-0.02 0.024,-0.025 0.07,-0.052 0.09,-0.085 h 0.02 c 0.026,-0.04 0.07,-0.08 0.11,-0.11 h 0.01 c 0.03,-0.04 0.054,-0.074 0.1,-0.107 0,0 0.014,0 0.014,-0.006 0.027,-0.035 0.066,-0.08 0.106,-0.118 v -0.01 c 0.045,-0.02 0.07,-0.053 0.11,-0.09 0,-0.015 0.014,-0.015 0.014,-0.02 0.062,-0.068 0.12,-0.158 0.192,-0.238 0,0 0.01,-0.01 0.01,-0.026 0.033,-0.035 0.053,-0.068 0.097,-0.11 0,-0.01 0,-0.01 0.01,-0.01 0.02,-0.03 0.03,-0.085 0.073,-0.13 v -0.013 c 0.032,-0.04 0.05,-0.08 0.08,-0.105 0.02,-0.007 0.02,-0.02 0.02,-0.034 0.04,-0.04 0.04,-0.088 0.075,-0.14 v -0.008 c 0.024,-0.032 0.05,-0.076 0.07,-0.13 0,0 0,-0.012 0.013,-0.026 0.03,-0.083 0.09,-0.17 0.13,-0.26 0.007,-0.02 0.007,-0.025 0.027,-0.046 l 0.043,-0.11 c 0,-0.01 0.006,-0.02 0.006,-0.02 0.013,-0.05 0.033,-0.096 0.046,-0.142 0,-0.014 0,-0.026 0.02,-0.04 0.027,-0.04 0.027,-0.085 0.04,-0.13 0.007,0 0.007,-0.007 0.007,-0.034 0.02,-0.033 0.044,-0.098 0.064,-0.144 0,-0.016 0,-0.036 0.007,-0.036 0,-0.04 0.026,-0.085 0.026,-0.11 0.013,-0.012 0.013,-0.04 0.013,-0.04 0.02,-0.052 0.04,-0.117 0.05,-0.17 v -0.005 c 0.01,-0.04 0.03,-0.1 0.03,-0.15 v -0.036 c 0.02,-0.057 0.025,-0.103 0.04,-0.15 v -0.012 c 0.01,-0.057 0.024,-0.103 0.024,-0.162 0,-0.005 0.022,-0.023 0.022,-0.05 0,-0.03 0.005,-0.09 0.02,-0.136 v -0.04 c 0,-0.027 0,-0.106 0.02,-0.156 v -0.05 c 0,-0.045 0,-0.077 0.004,-0.123 v -0.05 c 0.02,-0.05 0.02,-0.115 0.02,-0.18 0.014,-0.007 0.014,-0.007 0.014,-0.014 v -21.73 c 0,-3.32 -2.07,-5.56 -5.205,-5.56"
       id="path56"
       inkscape:connector-curvature="0"
       style="fill:#261c02" />
    <path
       d="m 83.092,226.85 0.038,-11.74 0.026,-14.307 -1.372,1.382 -0.04,14.293 -0.024,11.727 c 0,1.55 -0.38,2.66 -0.863,3.46 1.124,-0.684 2.235,-2.067 2.235,-4.816"
       id="path58"
       inkscape:connector-curvature="0"
       style="fill:#261c02" />
    <path
       d="m 112.98,205.233 c -0.014,-2.98 -0.647,-5.417 -5.567,-5.417 h -0.516 c -0.02,0 -0.045,0 -0.078,0.013 h -0.14 c -0.02,0 -0.04,0.01 -0.07,0.01 h -0.24 c -0.02,0 -0.03,0.01 -0.05,0.01 -0.038,0 -0.08,0 -0.1,0.01 h -0.2 c -0.02,0.01 -0.046,0.01 -0.08,0.01 -0.005,0.02 -0.024,0.02 -0.045,0.02 h -0.125 c -0.024,0 -0.037,0 -0.057,0.01 h -0.066 c -0.008,0.02 -0.04,0.02 -0.067,0.02 h -0.04 c -0.02,0 -0.05,0 -0.065,0.01 -0.04,0 -0.084,0 -0.11,0.02 h -0.05 c -0.02,0.008 -0.04,0.008 -0.047,0.014 h -0.057 c -0.02,0 -0.044,0.012 -0.06,0.012 -0.01,0.01 -0.023,0.01 -0.05,0.01 -0.02,0 -0.043,0 -0.062,0.02 -0.012,0 -0.025,0.01 -0.04,0.01 -0.02,0 -0.043,0 -0.06,0.002 h -0.03 c -0.03,0 -0.05,0.02 -0.06,0.02 l -0.04,0.02 h -0.082 c 0,0.01 -0.006,0.01 -0.012,0.01 -0.046,0.014 -0.092,0.04 -0.137,0.04 0,0 -0.02,0 -0.02,0.013 -0.023,0 -0.04,0.01 -0.06,0.01 -0.015,0 -0.02,0.008 -0.034,0.008 -0.01,0.016 -0.043,0.016 -0.06,0.035 h -0.03 c -0.02,0.007 -0.032,0.014 -0.04,0.028 h -0.05 c -0.007,0.006 -0.026,0.006 -0.045,0.006 -0.008,0.02 -0.027,0.02 -0.027,0.02 -0.034,0 -0.047,0.026 -0.053,0.026 -0.013,0.015 -0.02,0.015 -0.026,0.015 -0.01,0 -0.04,0 -0.064,0.012 -0.07,0.032 -0.15,0.057 -0.215,0.097 h -0.004 c -0.012,0.017 -0.025,0.03 -0.058,0.03 -0.014,0.008 -0.014,0.008 -0.014,0.027 l -0.05,0.02 h -0.02 c -0.01,0.01 -0.036,0.02 -0.05,0.02 -0.006,0.01 -0.013,0.02 -0.02,0.02 -0.02,0.02 -0.032,0.02 -0.045,0.03 -0.006,0.01 -0.02,0.01 -0.02,0.01 -0.025,0.01 -0.03,0.022 -0.05,0.022 -0.058,0.05 -0.11,0.08 -0.17,0.122 l -0.01,0.005 c -0.014,0.012 -0.034,0.024 -0.047,0.03 0,0 -0.013,0 -0.02,0.013 0,0.015 -0.01,0.02 -0.04,0.02 0,0.02 -0.01,0.02 -0.01,0.02 -0.014,0.014 -0.02,0.014 -0.034,0.033 0,0.004 -0.02,0.004 -0.02,0.022 -0.03,0 -0.04,0.015 -0.04,0.02 -0.008,0 -0.008,0.015 -0.028,0.015 -0.007,0.01 -0.026,0.02 -0.026,0.04 v 0.008 c -0.04,0.026 -0.073,0.06 -0.1,0.084 l -0.033,0.033 c 0,0.01 -0.02,0.01 -0.02,0.01 -0.01,0.008 -0.02,0.02 -0.02,0.04 l -0.02,0.02 -0.04,0.03 -0.02,0.02 c -0.01,0.008 -0.01,0.035 -0.02,0.035 -0.02,0.008 -0.02,0.008 -0.023,0.02 -0.006,0.015 -0.006,0.027 -0.006,0.034 -0.02,0 -0.02,0.02 -0.02,0.03 -0.005,0.008 -0.025,0.015 -0.04,0.027 0,0 -0.013,0.02 -0.025,0.027 0,0.014 -0.008,0.027 -0.02,0.053 -0.02,0.007 -0.02,0.013 -0.026,0.03 -0.01,0.015 -0.02,0.015 -0.02,0.02 0,0.014 -0.026,0.02 -0.026,0.03 -0.012,0.03 -0.012,0.03 -0.025,0.03 v 0.04 c -0.014,0.015 -0.014,0.027 -0.026,0.027 -0.013,0 -0.013,0.034 -0.02,0.04 0,0 -0.006,0.012 -0.006,0.026 -0.015,0.015 -0.02,0.027 -0.02,0.04 -0.014,0 -0.014,0.006 -0.034,0.02 0,0.027 -0.006,0.033 -0.006,0.033 l -0.013,0.03 c -0.007,0.022 -0.015,0.047 -0.028,0.074 0.8,-0.425 1.95,-0.627 3.61,-0.627 4.925,0 5.552,2.418 5.585,5.403 l -0.034,1.98 5.36,-2.798 1.38,-1.36 -5.354,2.78 0.013,-1.97"
       id="path60"
       inkscape:connector-curvature="0"
       style="fill:#261c02" />
    <path
       d="m 111.39,231.438 c 0.085,-0.07 0.176,-0.13 0.255,-0.203 0.078,-0.077 0.157,-0.15 0.242,-0.22 0.066,-0.092 0.124,-0.17 0.19,-0.255 0.058,-0.09 0.13,-0.188 0.196,-0.274 v -0.007 c 0.046,-0.1 0.084,-0.19 0.13,-0.3 0.05,-0.11 0.098,-0.21 0.138,-0.31 v -0.02 c 0.05,-0.11 0.1,-0.22 0.11,-0.33 v -0.02 c 0.03,-0.11 0.07,-0.23 0.09,-0.37 v -0.014 c 0.04,-0.123 0.06,-0.24 0.07,-0.37 v -0.015 c 0.05,-0.143 0.06,-0.26 0.07,-0.41 v -0.025 c 0.02,-0.125 0.027,-0.268 0.03,-0.425 v -0.033 c 0.01,-0.136 0.04,-0.285 0.05,-0.436 v -0.025 c 0,-0.165 0.006,-0.32 0.02,-0.47 v -6.226 c 0,-4.83 -3.443,-4.96 -9.036,-4.96 -7.3,0 -7.504,-1.69 -7.504,-6.806 v -5.75 c 0,-2.61 1.38,-4.08 2.913,-4.91 -2.138,0.978 -4.29,2.823 -4.29,6.264 v 5.76 c 0,5.12 0.212,6.813 7.523,6.813 5.584,0 9.014,0.124 9.014,4.954 v 5.423 c 0,1.825 -0.15,3.226 -0.636,4.204 0.15,-0.07 0.3,-0.15 0.437,-0.246"
       id="path62"
       inkscape:connector-curvature="0"
       style="fill:#261c02" />
    <path
       d="m 137.1,203.157 v 1.376 h 0.68 c 4.52,-0.234 7.428,-0.932 10.713,-2.398 0.726,-0.706 0.85,-0.85 1.372,-1.363 -3.285,1.446 -6.187,2.158 -10.707,2.385 H 137.1"
       id="path64"
       inkscape:connector-curvature="0"
       style="fill:#261c02" />
    <path
       d="m 131.55,203.157 h -8.968 v -4.785 l -1.366,1.363 v 4.798 h 8.975 l -0.03,30.595 5.58,3.688 1.36,-1.37 -5.56,-3.706 0.02,-30.583"
       id="path66"
       inkscape:connector-curvature="0"
       style="fill:#261c02" />
    <path
       d="M 23.59,217.753 H 11.27 l 0.012,1.362 h 10.93 l -0.11,17.56 5.36,2.94 1.367,-1.376 -5.35,-2.94 0.1,-17.56"
       id="path68"
       inkscape:connector-curvature="0"
       style="fill:#261c02" />
    <path
       d="m 23.672,203.71 c 0.275,-4.125 0.968,-7.494 2.483,-11.333 -0.58,0.61 -0.79,0.834 -1.378,1.375 -1.497,3.82 -2.196,7.195 -2.484,11.328 l -0.052,8.682 h 1.37 l 0.07,-10.05"
       id="path70"
       inkscape:connector-curvature="0"
       style="fill:#261c02" />
    <path
       d="m 6.232,203.71 c 0.207,-3.675 1.136,-7.488 2.475,-11.333 -0.536,0.547 -0.804,0.762 -1.372,1.375 -1.34,3.832 -2.267,7.646 -2.482,11.328 l -0.196,34.538 5.336,-2.94 1.385,-1.368 -5.356,2.926 0.21,-34.525"
       id="path72"
       inkscape:connector-curvature="0"
       style="fill:#261c02" />
    <path
       d="m 286.31,326.418 v -0.064 c 0,-0.033 -0.01,-0.07 -0.01,-0.105 0,-0.02 0,-0.06 -0.008,-0.07 V 326 c -0.014,-0.025 -0.014,-0.064 -0.02,-0.097 v -0.072 c -0.013,-0.03 -0.013,-0.07 -0.032,-0.08 0,-0.02 -0.007,-0.04 -0.007,-0.07 v -0.11 c 0,-0.01 0,-0.02 -0.02,-0.04 -0.007,-0.05 -0.02,-0.104 -0.04,-0.156 v -0.025 c -0.005,-0.026 -0.005,-0.078 -0.025,-0.11 v -0.046 c -0.013,-0.03 -0.033,-0.058 -0.033,-0.085 0,-0.026 0,-0.047 -0.014,-0.067 -0.01,-0.02 -0.01,-0.054 -0.02,-0.08 0,-0.013 -0.01,-0.032 -0.01,-0.06 -0.02,-0.02 -0.04,-0.04 -0.04,-0.064 0,-0.01 0,-0.038 -0.02,-0.065 0,-0.016 0,-0.04 -0.02,-0.05 -0.01,-0.032 -0.01,-0.05 -0.02,-0.06 -0.01,-0.02 -0.03,-0.043 -0.03,-0.083 -0.02,-0.01 -0.02,-0.027 -0.02,-0.03 -0.01,-0.04 -0.02,-0.075 -0.05,-0.11 0,-0.025 0,-0.037 -0.01,-0.05 -0.01,-0.01 -0.023,-0.035 -0.03,-0.07 -0.013,-0.01 -0.013,-0.023 -0.02,-0.05 -0.013,-0.013 -0.013,-0.02 -0.025,-0.05 -0.033,-0.015 -0.033,-0.02 -0.047,-0.04 0,-0.014 -0.02,-0.04 -0.024,-0.05 0,-0.01 -0.007,-0.036 -0.027,-0.04 -0.01,-0.03 -0.023,-0.03 -0.04,-0.053 0,-0.016 -0.01,-0.03 -0.02,-0.054 -0.008,-0.008 -0.02,-0.02 -0.02,-0.034 -0.014,-0.02 -0.02,-0.03 -0.047,-0.046 0,-0.007 -0.01,-0.03 -0.025,-0.04 -0.054,-0.052 -0.1,-0.104 -0.145,-0.15 -0.013,-0.005 -0.013,-0.02 -0.013,-0.02 -0.017,-0.02 -0.037,-0.02 -0.037,-0.045 -0.035,0 -0.035,-0.02 -0.048,-0.03 -0.007,-0.007 -0.013,-0.02 -0.04,-0.035 -0.013,0 -0.013,-0.007 -0.027,-0.02 -0.004,0 -0.015,-0.025 -0.043,-0.03 -0.01,0 -0.02,-0.01 -0.02,-0.01 l -0.055,-0.04 v -0.01 c -0.125,-0.07 -0.24,-0.124 -0.34,-0.164 -0.02,0 -0.02,-0.004 -0.02,-0.004 -0.02,0 -0.03,-0.006 -0.045,-0.006 h -0.02 c -0.03,-0.014 -0.06,-0.014 -0.067,-0.02 -0.118,-0.014 -0.21,-0.014 -0.32,-0.014 -0.02,0 -0.052,0.015 -0.092,0.015 -0.06,0.01 -0.13,0.028 -0.22,0.048 -0.01,0.013 -0.06,0.026 -0.09,0.04 -0.085,0.044 -0.19,0.09 -0.28,0.16 l -0.035,0.028 c -0.085,0.06 -0.157,0.144 -0.24,0.235 -0.02,0.03 -0.066,0.06 -0.1,0.09 -0.052,0.09 -0.104,0.162 -0.163,0.253 -0.013,0.04 -0.05,0.08 -0.077,0.12 -0.06,0.137 -0.115,0.26 -0.18,0.418 0,0 -0.013,0.008 -0.013,0.02 1.004,-0.135 2.116,0.96 2.175,3.305 l 1.66,61.715 1.37,-1.368 -1.672,-61.724 v -0.187"
       id="path74"
       inkscape:connector-curvature="0"
       style="fill:#261c02" />
    <path
       d="m 230.222,299.788 v -0.3 c -0.012,-0.014 -0.012,-0.04 -0.012,-0.054 v -0.09 c -0.007,-0.008 -0.007,-0.04 -0.007,-0.06 -0.007,-0.018 -0.007,-0.045 -0.007,-0.084 -0.007,-0.02 -0.007,-0.038 -0.007,-0.046 0,-0.04 -0.02,-0.064 -0.02,-0.097 0,-0.02 -0.02,-0.033 -0.02,-0.04 -0.02,-0.038 -0.02,-0.084 -0.02,-0.13 -0.01,-0.05 -0.02,-0.085 -0.04,-0.123 0,-0.026 -0.01,-0.026 -0.01,-0.04 0,-0.026 -0.008,-0.06 -0.02,-0.09 v -0.033 c -0.01,-0.04 -0.02,-0.05 -0.03,-0.09 0,0 0,-0.02 -0.018,-0.04 -0.013,-0.02 -0.013,-0.05 -0.025,-0.07 0,0 -0.007,-0.02 -0.007,-0.03 -0.02,-0.03 -0.02,-0.06 -0.034,-0.07 -0.004,-0.02 -0.004,-0.02 -0.004,-0.04 -0.013,-0.004 -0.02,-0.05 -0.033,-0.07 0,-0.012 -0.014,-0.02 -0.014,-0.02 -0.02,-0.033 -0.03,-0.065 -0.03,-0.1 h -0.007 c -0.014,-0.03 -0.04,-0.07 -0.058,-0.1 0,0 -0.008,-0.015 -0.008,-0.03 -0.02,-0.02 -0.033,-0.04 -0.04,-0.064 -0.005,-0.013 -0.012,-0.013 -0.012,-0.026 -0.02,-0.027 -0.033,-0.034 -0.045,-0.066 0,-0.013 -0.005,-0.02 -0.005,-0.027 -0.02,-0.01 -0.03,-0.02 -0.03,-0.05 -0.02,-0.012 -0.025,-0.025 -0.025,-0.033 -0.017,-0.005 -0.024,-0.018 -0.037,-0.03 -0.02,-0.033 -0.025,-0.033 -0.025,-0.04 -0.002,-0.01 -0.022,-0.04 -0.03,-0.046 -0.005,0 -0.02,-0.017 -0.02,-0.03 -0.02,-0.007 -0.024,-0.03 -0.024,-0.03 -0.025,0 -0.025,-0.023 -0.03,-0.03 -0.03,-0.013 -0.05,-0.03 -0.07,-0.058 0,-0.02 -0.02,-0.03 -0.02,-0.03 -0.01,-0.02 -0.03,-0.02 -0.03,-0.04 -0.02,-0.01 -0.02,-0.022 -0.04,-0.022 -0.014,0 -0.033,-0.02 -0.04,-0.034 -0.007,-0.005 -0.02,-0.02 -0.026,-0.02 0,-0.005 -0.014,-0.025 -0.04,-0.038 0,0 -0.014,-0.008 -0.027,-0.008 0,-0.013 -0.025,-0.013 -0.04,-0.013 l -0.03,-0.033 c 0,0 -0.005,-0.005 -0.025,-0.005 l -0.03,-0.034 h -0.027 c -0.07,-0.03 -0.15,-0.064 -0.234,-0.09 h -0.01 c 0,-0.013 -0.033,-0.013 -0.06,-0.013 h -0.012 c -0.024,0 -0.032,-0.007 -0.045,-0.007 -0.11,-0.02 -0.207,0 -0.273,0.006 -0.04,0 -0.064,0.01 -0.084,0.01 -0.066,0.022 -0.126,0.035 -0.178,0.07 -0.04,0 -0.087,0.02 -0.1,0.043 -0.086,0.025 -0.146,0.064 -0.218,0.12 -0.01,0.015 -0.03,0.035 -0.063,0.05 -0.067,0.07 -0.126,0.134 -0.198,0.22 -0.014,0.032 -0.054,0.05 -0.07,0.096 -0.056,0.06 -0.114,0.13 -0.14,0.224 -0.034,0.03 -0.05,0.077 -0.07,0.123 -0.055,0.103 -0.127,0.24 -0.165,0.38 0,0.01 0,0.01 -0.015,0.023 0.85,-0.012 1.765,1.01 1.765,2.916 l 1.21,46.44 1.367,-1.375 -1.207,-46.432 v -0.15"
       id="path76"
       inkscape:connector-curvature="0"
       style="fill:#261c02" />
    <path
       d="m 237.7,308.1 v -0.424 c -0.014,-0.046 -0.014,-0.078 -0.014,-0.118 0,-0.02 0,-0.03 -0.012,-0.058 v -0.157 c -0.008,-0.045 -0.014,-0.11 -0.014,-0.15 -0.02,-0.025 -0.02,-0.032 -0.02,-0.045 0,-0.038 -0.007,-0.08 -0.007,-0.124 0,-0.012 0,-0.04 -0.013,-0.046 0,-0.03 -0.006,-0.077 -0.02,-0.097 v -0.05 c -0.005,-0.03 -0.025,-0.06 -0.038,-0.08 v -0.06 c 0,-0.03 -0.006,-0.07 -0.006,-0.1 0,0 -0.02,-0.02 -0.02,-0.035 -0.026,-0.083 -0.052,-0.18 -0.085,-0.26 v -0.03 c 0,-0.02 -0.03,-0.067 -0.04,-0.092 v -0.044 c -0.02,-0.02 -0.02,-0.046 -0.03,-0.06 0,-0.033 0,-0.044 -0.02,-0.05 0,-0.02 -0.01,-0.048 -0.03,-0.074 -0.01,-0.014 -0.02,-0.026 -0.02,-0.04 0,-0.027 -0.01,-0.05 -0.02,-0.085 -0.013,-0.013 -0.013,-0.02 -0.013,-0.02 -0.014,-0.032 -0.027,-0.07 -0.053,-0.103 v -0.013 c -0.033,-0.025 -0.047,-0.045 -0.047,-0.077 -0.008,-0.015 -0.027,-0.015 -0.04,-0.027 0,-0.033 -0.014,-0.04 -0.027,-0.053 -0.013,-0.03 -0.013,-0.03 -0.03,-0.045 -0.014,-0.006 -0.02,-0.02 -0.027,-0.045 0,-0.01 -0.01,-0.025 -0.02,-0.036 -0.015,0 -0.035,-0.02 -0.035,-0.033 -0.013,-0.01 -0.013,-0.04 -0.04,-0.04 0,-0.015 -0.012,-0.034 -0.032,-0.04 -0.012,-0.027 -0.012,-0.033 -0.03,-0.033 -0.028,-0.025 -0.04,-0.03 -0.053,-0.044 0,-0.02 -0.013,-0.028 -0.026,-0.06 -0.014,0 -0.027,-0.008 -0.04,-0.008 0,-0.01 -0.02,-0.02 -0.026,-0.04 -0.013,-0.006 -0.013,-0.006 -0.033,-0.025 0,0 -0.028,-0.02 -0.034,-0.03 0,0 -0.016,0 -0.03,-0.007 -0.032,-0.01 -0.032,-0.01 -0.04,-0.034 -0.01,0 -0.025,0 -0.025,-0.02 -0.056,-0.01 -0.11,-0.05 -0.174,-0.067 -0.012,-0.028 -0.04,-0.028 -0.052,-0.04 h -0.012 c -0.032,0 -0.032,-0.01 -0.052,-0.01 l -0.01,-0.01 c -0.02,0 -0.04,-0.015 -0.07,-0.015 -0.08,-0.01 -0.177,-0.01 -0.26,0 -0.03,0 -0.06,0 -0.094,0.016 -0.075,0.01 -0.147,0.03 -0.21,0.07 -0.035,0.007 -0.05,0.007 -0.07,0.027 -0.1,0.048 -0.17,0.1 -0.26,0.177 -0.025,0.015 -0.05,0.054 -0.065,0.087 -0.085,0.053 -0.13,0.106 -0.184,0.19 -0.03,0.04 -0.05,0.072 -0.082,0.105 -0.07,0.11 -0.143,0.237 -0.2,0.36 -0.015,0.048 -0.034,0.087 -0.034,0.125 -0.048,0.073 -0.094,0.145 -0.106,0.223 0.876,0.032 1.75,1.213 1.7,3.454 l 1.3,48.4 1.378,-1.37 -1.32,-48.402 v -0.19"
       id="path78"
       inkscape:connector-curvature="0"
       style="fill:#261c02" />
    <path
       d="m 256.462,284.79 c -5.148,0 -10.184,-0.07 -15.104,-0.254 l -0.04,1.41 c 4.495,0.134 9.088,0.225 13.778,0.225 4.827,0 9.622,-0.09 14.294,-0.24 l 2.31,73.45 1.388,-1.36 -2.314,-73.443 c -4.69,0.157 -9.458,0.228 -14.312,0.228"
       id="path80"
       inkscape:connector-curvature="0"
       style="fill:#261c02" />
    <path
       d="m 278.406,319.086 v -0.234 c 0,-0.04 -0.02,-0.072 -0.02,-0.105 v -0.072 c -0.012,-0.02 -0.012,-0.065 -0.012,-0.097 v -0.06 c -0.013,-0.037 -0.013,-0.083 -0.013,-0.11 v -0.045 c 0,-0.045 -0.01,-0.11 -0.02,-0.157 v -0.02 c -0.03,-0.045 -0.03,-0.083 -0.04,-0.13 v -0.13 c -0.01,-0.032 -0.01,-0.04 -0.01,-0.065 0,-0.02 -0.013,-0.06 -0.02,-0.09 0,0 0,-0.02 -0.027,-0.05 v -0.07 c 0,-0.022 -0.02,-0.03 -0.02,-0.04 -0.02,-0.027 -0.026,-0.073 -0.034,-0.098 0,0 0,-0.027 -0.01,-0.027 -0.016,-0.052 -0.016,-0.084 -0.035,-0.125 -0.01,-0.01 -0.01,-0.024 -0.01,-0.024 -0.01,-0.026 -0.03,-0.066 -0.04,-0.09 l -0.002,-0.05 c -0.014,-0.03 -0.026,-0.043 -0.04,-0.056 0,-0.02 -0.012,-0.035 -0.012,-0.054 -0.005,-0.03 -0.024,-0.04 -0.03,-0.05 -0.007,-0.017 -0.013,-0.045 -0.013,-0.06 0,-0.016 -0.01,-0.04 -0.03,-0.048 0,-0.02 -0.013,-0.026 -0.013,-0.053 0,-0.007 -0.02,-0.04 -0.032,-0.058 -0.005,-0.015 -0.024,-0.028 -0.044,-0.053 0,-0.024 -0.015,-0.04 -0.02,-0.06 -0.01,-0.02 -0.04,-0.042 -0.04,-0.05 -0.01,-0.005 -0.01,-0.02 -0.027,-0.02 -0.006,-0.024 -0.027,-0.04 -0.04,-0.064 0,-0.013 0,-0.013 -0.006,-0.02 -0.013,-0.033 -0.013,-0.033 -0.04,-0.06 -0.006,0 -0.027,0 -0.027,-0.012 -0.015,-0.02 -0.015,-0.032 -0.03,-0.046 -0.004,-0.012 -0.004,-0.012 -0.02,-0.025 -0.09,-0.11 -0.2,-0.19 -0.32,-0.264 -0.03,-0.024 -0.063,-0.04 -0.11,-0.064 -0.076,-0.033 -0.162,-0.065 -0.246,-0.07 -0.03,-0.007 -0.08,-0.02 -0.1,-0.02 -0.106,-0.006 -0.184,0 -0.25,0.02 -0.04,0 -0.09,0 -0.124,0.032 -0.118,0.032 -0.223,0.09 -0.334,0.18 -0.032,0.026 -0.06,0.07 -0.097,0.097 -0.08,0.064 -0.15,0.14 -0.215,0.234 -0.04,0.046 -0.084,0.11 -0.122,0.19 -0.04,0.08 -0.112,0.195 -0.16,0.31 -0.024,0.075 -0.063,0.14 -0.095,0.205 -0.01,0.04 -0.01,0.08 -0.03,0.08 0.815,0.076 1.64,1.2 1.63,3.296 l 1.98,53.93 1.38,-1.38 -1.986,-53.91 v -0.17"
       id="path82"
       inkscape:connector-curvature="0"
       style="fill:#261c02" />
    <path
       d="m 222.496,165.857 c -18.592,-0.268 -34.89,1.213 -34.89,1.213 l -1.38,1.37 c 0,0 16.306,-1.468 34.892,-1.214 -2.064,21.124 0.06,41.238 -0.026,79.226 h -0.098 c 0.484,0.02 0.98,0.02 1.477,0.045 0.14,-38.944 -2.06,-59.234 0.03,-80.64"
       id="path84"
       inkscape:connector-curvature="0"
       style="fill:#261c02" />
    <path
       d="m 290.444,283.512 -0.03,1.185 c 32.68,-2.835 57.55,-9.372 63.972,-16.887 -8.23,7.046 -32.616,13.042 -63.942,15.623 v 0.08"
       id="path86"
       inkscape:connector-curvature="0"
       style="fill:#261c02" />
    <path
       d="m 232.308,122.072 c -0.6,0.644 -0.802,0.807 -1.37,1.355 -4.522,14.013 -7.206,25.152 -8.78,35.522 0.417,-0.08 0.802,-0.14 1.193,-0.2 1.54,-10.7 4.26,-22.16 8.96,-36.68"
       id="path88"
       inkscape:connector-curvature="0"
       style="fill:#261c02" />
    <path
       d="m 156.5,262.627 c -0.064,-1.473 0.537,-2.888 1.653,-4.218 -2.03,1.7 -3.103,3.57 -3.037,5.58 0.327,9.16 27.632,17.59 66.005,20.8 l 1.64,51.98 1.37,-1.36 -1.63,-51.98 c -38.36,-3.22 -65.672,-11.64 -65.985,-20.81"
       id="path90"
       inkscape:connector-curvature="0"
       style="fill:#261c02" />
    <path
       d="m 270.106,209.484 c 5.92,-1.845 13.353,-5.142 18.684,-10.826 0.013,-0.014 0.026,-0.02 0.034,-0.04 -8.186,7.686 -20.12,10.515 -24.982,11.38 1.53,-0.195 3.75,-0.43 6.264,-0.514"
       id="path92"
       inkscape:connector-curvature="0"
       style="fill:#261c02" />
    <path
       d="m 274.312,183.602 c 1.025,7.49 -1.19,13.128 -5.082,17.358 h 0.006 c 0.157,-0.155 0.313,-0.312 0.464,-0.47 0.254,-0.24 0.51,-0.462 0.75,-0.722 0.164,-0.183 0.314,-0.372 0.49,-0.555 0.196,-0.246 0.405,-0.475 0.615,-0.723 0.15,-0.195 0.307,-0.39 0.443,-0.607 0.204,-0.254 0.38,-0.5 0.55,-0.755 0.135,-0.214 0.287,-0.43 0.41,-0.632 0.164,-0.28 0.34,-0.56 0.505,-0.834 0.123,-0.222 0.215,-0.444 0.344,-0.652 0.138,-0.306 0.308,-0.612 0.426,-0.92 0.09,-0.215 0.19,-0.43 0.275,-0.638 0.17,-0.37 0.28,-0.724 0.39,-1.09 0.06,-0.2 0.12,-0.377 0.184,-0.586 0.182,-0.566 0.32,-1.14 0.445,-1.746 v -0.012 c 0.02,-0.072 0.04,-0.17 0.045,-0.26 0,-0.03 0.008,-0.04 0.008,-0.06 0.02,-0.086 0.052,-0.183 0.063,-0.254 0,-0.027 0.008,-0.066 0.008,-0.093 0.01,-0.08 0.04,-0.15 0.04,-0.24 0,-0.04 0.01,-0.06 0.01,-0.11 0.02,-0.06 0.03,-0.14 0.05,-0.21 0,-0.04 0.02,-0.082 0.02,-0.11 0.005,-0.08 0.01,-0.162 0.032,-0.23 0,-0.042 0.006,-0.082 0.006,-0.12 0,-0.08 0.013,-0.157 0.02,-0.23 v -0.13 l 0.038,-0.214 c 0,-0.04 0,-0.09 0.015,-0.143 0,-0.074 0,-0.14 0.007,-0.224 0.026,-0.04 0.026,-0.08 0.026,-0.11 V 187 c 0.007,-0.17 0.02,-0.353 0.02,-0.524 v -0.34 c 0,-0.072 0.01,-0.145 0.01,-0.2 v -0.363 c 0,-0.08 -0.01,-0.126 -0.01,-0.19 v -0.388 c 0,-0.07 0,-0.123 -0.012,-0.193 0,-0.07 0,-0.13 -0.006,-0.2 v -0.39 c 0,-0.065 -0.026,-0.124 -0.032,-0.195 0,-0.072 0,-0.13 -0.012,-0.176 0,-0.08 -0.012,-0.16 -0.012,-0.22 -0.01,-0.077 -0.024,-0.137 -0.024,-0.176 0,-0.086 -0.007,-0.17 -0.007,-0.25 -0.014,-0.045 -0.014,-0.097 -0.02,-0.156 0,-0.1 -0.02,-0.17 -0.033,-0.27 0,-0.054 0,-0.106 -0.014,-0.14 -0.02,-0.135 -0.047,-0.266 -0.058,-0.4 -1.277,-9.51 -16.78,-13.736 -34.437,-15.417 0.05,0.5 0.086,1.017 0.146,1.523 16.99,1.782 31.668,6.018 32.918,15.265"
       id="path94"
       inkscape:connector-curvature="0"
       style="fill:#261c02" />
    <path
       d="m 242.682,213.284 c 0,0.515 -0.014,1.01 -0.02,1.525 12.347,1.4 27.443,4.86 27.17,13.57 l -0.44,47.18 1.354,-0.05 0.463,-48.5 c 0.25,-9.02 -15.96,-12.45 -28.53,-13.74"
       id="path96"
       inkscape:connector-curvature="0"
       style="fill:#261c02" />
    <path
       d="m 290.897,246.676 -0.032,1.552 c 24.738,3.213 44.86,6.816 44.86,12.716 0,0.938 -0.43,1.948 -1.118,2.823 0.014,0 0.027,-0.008 0.04,-0.008 0.22,-0.21 0.444,-0.39 0.64,-0.58 0.04,-0.05 0.092,-0.1 0.117,-0.13 0.184,-0.2 0.36,-0.37 0.51,-0.56 0.013,-0.028 0.033,-0.04 0.046,-0.06 0.15,-0.196 0.314,-0.404 0.444,-0.6 0.02,-0.046 0.058,-0.09 0.086,-0.137 0.11,-0.22 0.226,-0.423 0.313,-0.625 v -0.02 c 0.014,-0.03 0.033,-0.07 0.038,-0.117 0,0 0.02,-0.01 0.02,-0.015 0.02,-0.047 0.03,-0.07 0.04,-0.118 0.02,-0.01 0.02,-0.02 0.02,-0.036 l 0.03,-0.095 c 0,0 0,-0.02 0.01,-0.027 0,-0.04 0.02,-0.066 0.035,-0.1 v -0.04 c 0.01,-0.04 0.01,-0.07 0.026,-0.09 0,-0.026 0.015,-0.04 0.015,-0.04 0,-0.04 0.02,-0.07 0.02,-0.09 0,-0.013 0,-0.04 0.004,-0.04 0,-0.045 0.006,-0.065 0.006,-0.096 0,-0.02 0,-0.03 0.026,-0.046 v -0.083 c 0,-0.01 0,-0.035 0.01,-0.054 v -0.07 c 0,-0.025 0.01,-0.04 0.01,-0.05 0,-0.034 0,-0.06 0.016,-0.09 v -0.176 c 0,-6.007 -20.88,-9.644 -46.21,-12.903"
       id="path98"
       inkscape:connector-curvature="0"
       style="fill:#261c02" />
    <path
       d="m 176.96,258.025 c 5.925,-4.407 25,-7.163 44.134,-10.025 -0.02,7.405 -0.13,15.453 -0.373,24.31 l 0.06,1.874 h 0.02 c 0.45,0.045 0.93,0.097 1.41,0.136 l -0.11,-3.37 c 0.25,-8.863 0.36,-16.927 0.38,-24.31 -21.03,3.147 -42.01,6.158 -45.51,11.385"
       id="path100"
       inkscape:connector-curvature="0"
       style="fill:#261c02" />
    <path
       d="m 499.885,234.913 h -8.362 c 0,0 -6.97,0 -6.97,-5.742 l -0.014,-4.09 -1.37,1.38 0.01,4.08 c 0,5.75 6.98,5.75 6.98,5.75 h 8.32 c 0,0 7.5,0.57 7.92,-8.01 -0.43,6.49 -6.27,6.64 -6.53,6.64"
       id="path102"
       inkscape:connector-curvature="0"
       style="fill:#261c02" />
    <path
       d="m 81.28,234.92 h -7.41 c 0,0 -7.106,-0.327 -7.106,-6.93 l 0.02,-12.782 v -17.93 c 0,0.033 -1.36,1.362 -1.36,1.362 v 17.932 l -0.026,12.8 c 0,6.585 7.102,6.922 7.102,6.922 h 7.394 c 0,0 8.845,0.58 9.153,-7.873 h -0.02 c -0.328,6.14 -7.52,6.5 -7.747,6.5"
       id="path104"
       inkscape:connector-curvature="0"
       style="fill:#261c02" />
    <path
       d="m 118.376,229.357 c -0.012,0.052 -0.02,0.105 -0.02,0.143 v 0.006 c -0.02,0.045 -0.03,0.09 -0.03,0.125 v 0.02 c 0,0.06 -0.022,0.09 -0.034,0.13 -0.013,0.04 -0.027,0.08 -0.04,0.13 -0.006,0.04 -0.006,0.08 -0.025,0.13 v 0.01 c -0.008,0.038 -0.008,0.077 -0.033,0.12 -0.008,0.04 -0.02,0.08 -0.033,0.12 v 0.02 c -0.01,0.026 -0.03,0.066 -0.03,0.1 -0.02,0 -0.02,0 -0.02,0.006 0,0.045 -0.01,0.078 -0.02,0.13 -1.17,3.48 -4.33,4.21 -5.6,4.347 h -0.01 c 0,0 -0.01,0.006 -0.02,0.006 h -0.14 c -0.02,0 -0.02,0.02 -0.02,0.02 h -0.07 c -0.006,0 -0.006,0.01 -0.02,0.01 h -0.18 l -0.01,0.01 h -8.394 c 0,0 -6.98,0 -6.98,-5.75 l -0.007,-4.093 -1.386,1.384 0.026,4.08 c 0,5.74 6.97,5.74 6.97,5.74 h 8.34 c 0,0 7.55,0.61 7.93,-8.066 -0.02,0.366 -0.05,0.69 -0.102,1 -0.014,0.04 -0.014,0.107 -0.028,0.14"
       id="path106"
       inkscape:connector-curvature="0"
       style="fill:#261c02" />
    <path
       d="m 324.007,204.692 c 0.008,0.058 0.027,0.097 0.027,0.143 v 0.033 c 0.012,0.06 0.012,0.077 0.025,0.117 v 0.046 c 0,0.04 0,0.07 0.01,0.11 v 0.19 c 0.02,0.04 0.02,0.07 0.02,0.09 v 0.84 c 0,0.05 0,0.11 -0.02,0.14 v 0.15 c -0.04,0.28 -0.08,0.57 -0.13,0.825 -0.02,0.11 -0.06,0.215 -0.08,0.32 -0.04,0.157 -0.08,0.326 -0.14,0.475 -0.04,0.11 -0.08,0.235 -0.13,0.34 -0.047,0.137 -0.1,0.26 -0.158,0.39 -0.07,0.12 -0.118,0.23 -0.17,0.34 -0.06,0.11 -0.125,0.22 -0.19,0.34 -0.07,0.11 -0.15,0.21 -0.228,0.32 -0.067,0.102 -0.13,0.213 -0.204,0.305 -0.072,0.098 -0.17,0.21 -0.26,0.32 -0.08,0.077 -0.144,0.156 -0.23,0.247 -0.105,0.106 -0.195,0.19 -0.286,0.31 -0.09,0.072 -0.17,0.157 -0.244,0.202 -0.123,0.104 -0.23,0.2 -0.332,0.306 -0.028,0.02 -0.06,0.04 -0.1,0.066 -1.777,1.41 -4.12,2.237 -6.225,2.74 h -0.015 c -0.34,0.09 -0.67,0.16 -0.987,0.2 -0.02,0.01 -0.02,0.01 -0.043,0.01 -0.32,0.067 -0.632,0.127 -0.945,0.165 l -0.076,-13.61 -0.01,-0.55 c -0.013,-0.33 -0.04,-0.653 -0.08,-0.984 5.646,0.485 10.78,1.835 11.185,5.074 m -16.33,-5.305 c -0.04,0.41 -0.107,0.814 -0.12,1.213 l -0.224,37.26 5.776,-3.18 -0.104,-18.165 -0.02,-1.43 c 3.955,0.137 10.074,0.873 9.997,4.12 l 0.197,15.473 5.48,3.18 -0.155,-19.75 c 0,-0.214 -0.005,-0.39 -0.02,-0.584 0,-0.054 -0.018,-0.105 -0.03,-0.165 -0.008,-0.12 -0.033,-0.245 -0.066,-0.357 -0.01,-0.05 -0.03,-0.122 -0.05,-0.168 -0.04,-0.11 -0.065,-0.23 -0.104,-0.32 -0.015,-0.06 -0.048,-0.105 -0.067,-0.15 -0.04,-0.105 -0.107,-0.228 -0.17,-0.326 -0.014,-0.03 -0.028,-0.06 -0.04,-0.08 -0.086,-0.125 -0.164,-0.257 -0.276,-0.36 0,-0.028 -0.015,-0.04 -0.04,-0.06 -0.067,-0.098 -0.17,-0.17 -0.257,-0.26 -0.026,-0.02 -0.05,-0.06 -0.098,-0.073 -0.074,-0.073 -0.16,-0.133 -0.25,-0.21 -0.04,-0.02 -0.07,-0.04 -0.09,-0.06 -0.107,-0.065 -0.205,-0.14 -0.335,-0.195 -0.01,0 -0.026,-0.023 -0.026,-0.023 -0.43,-0.21 -0.87,-0.37 -1.36,-0.48 -0.8,-0.174 -1.638,-0.226 -2.416,-0.213 -1.574,0.04 -2.875,0.34 -2.875,0.34 0,0 3.683,-0.854 6.59,-3.325 1.05,-0.87 1.965,-1.958 2.638,-3.268 0.007,-0.018 0.007,-0.03 0.013,-0.05 0.308,-0.62 0.517,-1.29 0.68,-2.008 0.008,-0.047 0.02,-0.1 0.027,-0.152 0.075,-0.335 0.122,-0.7 0.142,-1.053 v -0.22 c 0.03,-0.384 0.043,-0.755 0,-1.17 -0.347,-5.263 -6.057,-7.88 -16.235,-6.84 -0.46,0.064 -0.904,0.12 -1.36,0.17 -0.426,-2.744 -1.11,-5.3 -2.22,-8.083 -1.028,2.96 -1.818,5.88 -2.28,8.787 -0.387,0.07 -0.75,0.14 -1.13,0.227 -5.524,1.08 -9.318,2.405 -9.318,2.405 0,0 4.737,-0.456 10.18,-0.397"
       id="path108"
       inkscape:connector-curvature="0"
       style="fill:#ce1141" />
    <path
       d="m 354.17,226.83 v 0.378 c 0,0 0,0.012 -0.007,0.025 0,0.053 0,0.11 -0.006,0.177 v 0.045 c 0,0.04 -0.014,0.085 -0.014,0.13 v 0.046 c -0.007,0.05 -0.012,0.12 -0.02,0.17 v 0.02 c 0,0.06 -0.018,0.1 -0.018,0.15 0,0.01 0,0.04 -0.014,0.05 -0.01,0.1 -0.02,0.21 -0.05,0.31 v 0.04 c -0.02,0.06 -0.02,0.1 -0.02,0.16 0,0 0,0.01 -0.02,0.01 -0.01,0.06 -0.026,0.108 -0.04,0.16 0,0.02 0,0.02 -0.02,0.02 l -0.02,0.15 -0.01,0.005 c -0.013,0.06 -0.04,0.126 -0.06,0.164 v 0.003 c -0.02,0.06 -0.024,0.105 -0.05,0.15 0,0 -0.014,0.014 -0.014,0.027 -0.04,0.095 -0.07,0.2 -0.112,0.297 v 0.02 c -0.062,0.09 -0.1,0.184 -0.15,0.28 -0.004,0.007 -0.004,0.007 -0.01,0.007 -0.012,0.07 -0.04,0.105 -0.065,0.138 -0.046,0.05 -0.05,0.1 -0.1,0.167 -0.01,0.032 -0.05,0.085 -0.063,0.12 h -0.015 c -0.05,0.102 -0.115,0.19 -0.18,0.26 l -0.01,0.02 c -0.065,0.083 -0.12,0.16 -0.19,0.252 -0.177,0.183 -0.36,0.346 -0.55,0.507 -0.065,0.047 -0.13,0.08 -0.194,0.13 -0.07,0.06 -0.163,0.1 -0.23,0.157 -0.586,0.374 -1.245,0.635 -2.023,0.76 -0.05,0.006 -0.084,0.006 -0.137,0.006 -0.246,0.023 -0.495,0.06 -0.75,0.06 -3.175,0 -5.213,-1.622 -5.213,-5.56 V 205.5 c 0,-0.34 0.025,-0.652 0.046,-0.932 0.004,-0.07 0.02,-0.142 0.03,-0.202 0.065,-0.59 0.19,-1.107 0.39,-1.577 0.007,-0.03 0.007,-0.05 0.02,-0.09 0.1,-0.24 0.227,-0.46 0.36,-0.67 0.045,-0.07 0.097,-0.16 0.156,-0.24 0.003,0 0.003,-0.02 0.003,-0.03 0.03,-0.02 0.053,-0.06 0.066,-0.1 0.013,0 0.013,-0.015 0.046,-0.03 0.02,-0.026 0.035,-0.057 0.08,-0.096 0,-0.01 0.01,-0.01 0.015,-0.02 0.033,-0.03 0.066,-0.077 0.078,-0.09 0,-0.01 0.013,-0.01 0.013,-0.03 0.145,-0.14 0.29,-0.28 0.428,-0.4 0.047,-0.025 0.086,-0.06 0.107,-0.084 0.013,-0.003 0.013,-0.003 0.046,-0.003 0.02,-0.02 0.06,-0.047 0.08,-0.067 0.032,-0.02 0.032,-0.025 0.046,-0.046 0.02,-0.01 0.076,-0.03 0.09,-0.058 0,-0.015 0.033,-0.015 0.045,-0.02 0.02,-0.026 0.068,-0.053 0.08,-0.06 0.015,0 0.034,-0.02 0.047,-0.03 0.033,-0.008 0.066,-0.027 0.09,-0.054 0.02,-0.006 0.03,-0.006 0.04,-0.006 0.125,-0.065 0.237,-0.117 0.34,-0.18 0.02,0 0.04,-0.015 0.04,-0.015 0.045,-0.005 0.08,-0.03 0.11,-0.045 0.02,0 0.034,-0.006 0.074,-0.02 0.02,0 0.046,-0.012 0.084,-0.025 0.007,0 0.04,-0.017 0.05,-0.017 0.038,-0.026 0.066,-0.026 0.09,-0.043 0.018,0 0.046,-0.008 0.09,-0.008 0.02,-0.027 0.03,-0.027 0.078,-0.03 0.033,0 0.052,-0.023 0.066,-0.037 0.04,-0.006 0.052,-0.006 0.092,-0.02 0.026,-0.01 0.05,-0.01 0.097,-0.01 0.012,-0.014 0.05,-0.028 0.07,-0.028 0.048,-0.014 0.1,-0.02 0.15,-0.027 0.01,0 0.06,-0.017 0.075,-0.017 0.04,-0.02 0.08,-0.02 0.13,-0.026 0.02,0 0.02,0 0.06,-0.008 0.034,0 0.073,-0.02 0.1,-0.02 0.032,0 0.07,0 0.084,-0.018 0.02,0 0.07,-0.01 0.104,-0.01 h 0.067 c 0.054,-0.008 0.07,-0.008 0.118,-0.008 0.036,-0.01 0.06,-0.01 0.074,-0.01 0.05,0 0.08,-0.02 0.115,-0.02 h 0.457 c 3.145,0 5.185,2.236 5.185,5.554 v 21.326 z m -1.653,-29.507 h -7.082 c 0,0 -7.59,0 -7.59,7.19 v 23.21 c 0,7.28 7.59,7.188 7.59,7.188 h 7.082 c 0.327,0 7.088,-0.07 7.552,-6.46 0.03,-0.22 0.04,-0.47 0.04,-0.72 v -23.21 c 0,-7.19 -7.6,-7.19 -7.6,-7.19 z"
       id="path110"
       inkscape:connector-curvature="0"
       style="fill:#ce1141" />
    <path
       d="M 382.973,197.32 H 375.9 c 0,0 -7.6,0 -7.6,7.195 v 23.205 c 0,7.28 7.6,7.195 7.6,7.195 h 7.275 c 0,-0.01 0,-0.01 0.014,-0.01 h 0.11 c 0,0 0.02,0 0.04,-0.02 0.08,0 0.21,0 0.32,-0.028 h 0.03 c 0.033,0 0.033,-0.006 0.05,-0.006 h 0.24 c 0.02,-0.01 0.044,-0.01 0.06,-0.01 0.02,-0.01 0.04,-0.01 0.063,-0.01 h 0.012 l 0.05,-0.002 c 0.013,0 0.05,0 0.065,-0.027 0.03,0 0.053,-0.012 0.06,-0.012 h 0.01 c 0.29,-0.03 0.595,-0.096 0.94,-0.187 0.03,-0.02 0.054,-0.02 0.08,-0.02 0.037,-0.01 0.055,-0.01 0.075,-0.02 h 0.007 c 0.046,-0.013 0.065,-0.02 0.084,-0.02 0.02,-0.013 0.06,-0.013 0.08,-0.027 h 0.008 c 0.014,-0.005 0.047,-0.03 0.086,-0.04 0.025,0 0.036,-0.004 0.063,-0.017 0.437,-0.144 0.907,-0.32 1.35,-0.555 0.026,-0.02 0.06,-0.026 0.08,-0.033 v -0.005 c 0.038,-0.02 0.05,-0.03 0.07,-0.05 h 0.033 c 0.013,-0.015 0.04,-0.02 0.065,-0.053 0.03,-0.008 0.05,-0.035 0.1,-0.047 0.024,-0.013 0.04,-0.033 0.07,-0.052 0.42,-0.253 0.82,-0.553 1.19,-0.92 0.03,-0.02 0.06,-0.05 0.08,-0.07 v -0.013 c 0.03,-0.016 0.05,-0.042 0.064,-0.07 0.026,-0.026 0.052,-0.045 0.066,-0.07 0.02,0 0.02,-0.007 0.02,-0.007 0.022,-0.026 0.035,-0.05 0.06,-0.07 v -0.015 c 0.02,-0.01 0.06,-0.053 0.085,-0.073 v -0.013 l 0.05,-0.07 c 0.02,-0.034 0.055,-0.05 0.06,-0.08 0.006,0 0.006,-0.004 0.006,-0.004 0.03,-0.033 0.055,-0.06 0.07,-0.093 0.24,-0.32 0.46,-0.67 0.638,-1.06 h 0.015 c 0.007,-0.034 0.026,-0.08 0.046,-0.1 v -0.032 c 0.013,-0.02 0.025,-0.04 0.045,-0.08 v -0.013 c 0.012,-0.04 0.04,-0.08 0.045,-0.11 l 0.013,-0.01 c 0,-0.04 0.017,-0.06 0.02,-0.09 0,-0.012 0,-0.012 0.03,-0.024 0,-0.033 0.02,-0.06 0.032,-0.1 0.007,0 0.007,-0.005 0.007,-0.02 0.005,-0.037 0.02,-0.056 0.032,-0.096 v -0.032 c 0.008,-0.024 0.02,-0.064 0.033,-0.09 v -0.032 l 0.04,-0.106 v -0.026 c 0.016,-0.015 0.024,-0.05 0.03,-0.09 0,-0.01 0,-0.016 0.006,-0.036 0,-0.02 0.02,-0.05 0.02,-0.095 0.026,-0.014 0.026,-0.02 0.026,-0.033 0.01,-0.02 0.01,-0.057 0.01,-0.1 0.01,0 0.01,-0.023 0.01,-0.023 0.013,-0.04 0.02,-0.07 0.02,-0.105 0,0 0.005,-0.01 0.005,-0.03 0,-0.026 0.013,-0.058 0.026,-0.117 0.043,-0.23 0.07,-0.46 0.1,-0.71 0.027,-0.29 0.046,-0.64 0.046,-0.987 v -2.93 h -5.93 v 2.266 c -0.013,0.052 -0.013,0.104 -0.013,0.144 v 0.25 c 0,0.037 -0.013,0.09 -0.013,0.135 0,0 -0.01,0.01 -0.01,0.04 0,0.043 -0.012,0.11 -0.012,0.167 0,0 -0.016,0.014 -0.016,0.02 0,0.053 -0.003,0.09 -0.03,0.144 v 0.057 c -0.005,0.047 -0.012,0.1 -0.012,0.15 -0.013,0.07 -0.03,0.11 -0.03,0.16 0,0.016 0,0.03 -0.02,0.05 0,0.047 -0.015,0.087 -0.015,0.145 0,0 0,0.016 -0.007,0.016 -0.02,0.056 -0.04,0.11 -0.047,0.16 l -0.003,0.013 c -0.015,0.05 -0.028,0.098 -0.054,0.15 v 0.006 c -0.006,0.065 -0.025,0.124 -0.044,0.162 v 0.035 c -0.027,0.034 -0.04,0.08 -0.055,0.13 0,0 -0.012,0.015 -0.012,0.04 -0.04,0.09 -0.076,0.184 -0.114,0.28 -0.014,0 -0.014,0.02 -0.014,0.027 -0.053,0.085 -0.1,0.183 -0.145,0.274 -0.007,0.005 -0.007,0.005 -0.013,0.02 -0.02,0.057 -0.027,0.09 -0.06,0.13 l -0.005,0.02 c -0.02,0.024 -0.07,0.07 -0.076,0.122 l -0.01,0.012 c -0.04,0.046 -0.06,0.085 -0.07,0.123 -0.027,0 -0.027,0 -0.027,0.02 -0.053,0.08 -0.1,0.165 -0.18,0.235 0,0 0,0.026 -0.014,0.026 -0.066,0.09 -0.118,0.156 -0.196,0.247 h -0.006 c -0.045,0.046 -0.073,0.085 -0.112,0.104 -0.023,0.046 -0.06,0.08 -0.103,0.126 -0.04,0.04 -0.087,0.08 -0.11,0.11 -0.08,0.08 -0.16,0.14 -0.25,0.21 h -0.016 c -0.07,0.08 -0.158,0.127 -0.24,0.19 0,0 -0.015,0 -0.015,0.015 -0.035,0.02 -0.08,0.048 -0.115,0.074 -0.59,0.366 -1.255,0.626 -2.03,0.73 -0.05,0.007 -0.094,0.007 -0.12,0.007 -0.254,0.028 -0.51,0.067 -0.764,0.067 -3.17,0 -5.21,-1.62 -5.21,-5.56 V 205.5 c 0,-0.333 0.03,-0.65 0.06,-0.932 l 0.02,-0.21 c 0.07,-0.585 0.197,-1.1 0.37,-1.57 0.03,-0.032 0.055,-0.052 0.055,-0.083 0.1,-0.243 0.215,-0.452 0.346,-0.665 0.06,-0.08 0.11,-0.165 0.163,-0.242 v -0.026 c 0.03,-0.02 0.06,-0.058 0.09,-0.104 v -0.013 c 0.04,-0.04 0.065,-0.072 0.1,-0.125 h 0.02 c 0.022,-0.03 0.043,-0.077 0.063,-0.11 h 0.014 c 0.177,-0.19 0.353,-0.36 0.55,-0.495 0.02,-0.007 0.02,-0.007 0.026,-0.007 0.02,-0.026 0.058,-0.058 0.105,-0.072 0,-0.02 0.02,-0.025 0.03,-0.045 0.035,0 0.06,-0.03 0.098,-0.05 0,-0.01 0.014,-0.01 0.033,-0.01 0.033,-0.022 0.06,-0.05 0.1,-0.06 0,0 0.01,-0.014 0.024,-0.014 0.04,-0.02 0.085,-0.046 0.104,-0.072 v -0.006 c 0.146,-0.064 0.28,-0.12 0.407,-0.174 0,0 0.014,-0.016 0.027,-0.016 0.03,-0.007 0.06,-0.027 0.09,-0.052 0.03,0 0.058,-0.006 0.058,-0.006 0.032,-0.01 0.08,-0.04 0.1,-0.04 0.04,0 0.05,-0.01 0.063,-0.01 0.034,-0.027 0.05,-0.027 0.09,-0.047 0.02,0 0.048,-0.005 0.06,-0.005 0.04,-0.02 0.066,-0.025 0.105,-0.03 0.028,0 0.053,-0.014 0.08,-0.027 0.02,-0.004 0.053,-0.004 0.077,-0.02 0.02,-0.01 0.06,-0.01 0.08,-0.01 0.046,0 0.066,-0.025 0.09,-0.025 0.047,-0.013 0.07,-0.025 0.125,-0.025 0.028,-0.01 0.08,-0.02 0.104,-0.04 0.046,0 0.066,0 0.09,-0.01 0.035,0 0.073,0 0.093,-0.005 0.035,0 0.068,-0.02 0.107,-0.02 0.03,0 0.055,0 0.083,-0.013 0.028,0 0.068,-0.013 0.09,-0.013 h 0.09 c 0.045,-0.008 0.064,-0.008 0.1,-0.008 0.03,-0.007 0.06,-0.007 0.082,-0.007 0.047,0 0.07,-0.02 0.11,-0.02 h 0.46 c 3.14,0 5.2,2.234 5.2,5.552 v 2.03 h 5.93 v -3.01 c 0,-7.193 -7.59,-7.193 -7.59,-7.193"
       id="path112"
       inkscape:connector-curvature="0"
       style="fill:#ce1141" />
    <path
       d="m 506.424,219.446 c 0,-6.407 -3.098,-6.87 -10.08,-6.87 -4.842,0 -6.41,-0.17 -6.41,-4.264 l -0.024,-3.695 c 0,-0.247 0.006,-0.494 0.025,-0.723 v -0.116 c 0.02,-0.49 0.08,-0.94 0.196,-1.35 0.06,-0.21 0.12,-0.403 0.21,-0.587 0,-0.01 0.03,-0.04 0.03,-0.07 l 0.02,-0.02 c 0.01,0 0.01,-0.03 0.02,-0.04 0.01,0 0.01,-0.01 0.01,-0.02 0,-0.02 0.01,-0.02 0.03,-0.04 0,0 0.01,-0.01 0.01,-0.02 0,-0.01 0.012,-0.01 0.026,-0.03 0,-0.02 0.014,-0.02 0.014,-0.024 0.01,-0.01 0.01,-0.024 0.01,-0.03 0,0 0.01,-0.014 0.01,-0.033 0.024,0 0.024,-0.026 0.032,-0.04 0,-0.005 0.025,-0.02 0.025,-0.026 0.01,0 0.03,-0.03 0.03,-0.04 v -0.004 c 0.02,-0.02 0.02,-0.035 0.05,-0.055 0.007,0 0.007,-0.02 0.015,-0.02 0,-0.025 0.01,-0.025 0.024,-0.046 0,0 0.015,-0.02 0.034,-0.024 0,-0.013 0.005,-0.026 0.005,-0.026 0.01,-0.014 0.025,-0.02 0.025,-0.02 0.015,-0.026 0.015,-0.026 0.027,-0.03 0,-0.023 0.014,-0.023 0.022,-0.03 0.002,-0.02 0.002,-0.02 0.022,-0.025 0,0 0,-0.013 0.02,-0.03 0,-0.016 0.017,-0.016 0.017,-0.02 0.01,0 0.026,-0.015 0.04,-0.028 0.012,-0.013 0.025,-0.026 0.03,-0.04 0,-0.01 0,-0.01 0.01,-0.01 0.024,-0.015 0.036,-0.036 0.05,-0.04 0,-0.02 0.026,-0.026 0.04,-0.026 0.005,-0.02 0.012,-0.03 0.012,-0.03 0.004,-0.015 0.024,-0.028 0.024,-0.028 0.014,-0.007 0.027,-0.02 0.04,-0.02 0.007,-0.013 0.026,-0.02 0.03,-0.02 0.016,-0.02 0.016,-0.02 0.016,-0.03 0,0 0.02,0 0.034,-0.02 0,0 0.032,-0.006 0.04,-0.027 0.012,-0.014 0.017,-0.014 0.04,-0.02 0,-0.013 0.02,-0.026 0.02,-0.026 0,0 0.023,-0.005 0.023,-0.024 0.03,-0.01 0.03,-0.01 0.053,-0.03 0,-0.017 0,-0.017 0.01,-0.02 0.027,0 0.054,-0.03 0.067,-0.036 0.01,0 0.024,-0.02 0.03,-0.02 0.01,-0.006 0.02,-0.012 0.034,-0.012 0.02,-0.012 0.03,-0.012 0.03,-0.02 0.012,-0.013 0.025,-0.013 0.052,-0.013 0,-0.02 0.006,-0.028 0.02,-0.028 0.01,-0.014 0.03,-0.014 0.044,-0.03 0.02,-0.01 0.02,-0.01 0.025,-0.01 0.008,-0.006 0.04,-0.006 0.04,-0.02 0.02,0 0.02,-0.02 0.027,-0.026 0.045,0 0.06,0 0.06,-0.014 0,-0.01 0.02,-0.01 0.04,-0.01 0.017,-0.015 0.03,-0.02 0.05,-0.02 0.013,-0.02 0.027,-0.02 0.027,-0.026 0.025,-0.02 0.052,-0.02 0.08,-0.027 0.02,-0.015 0.02,-0.015 0.03,-0.015 0.005,-0.013 0.02,-0.02 0.05,-0.02 h 0.04 c 0.007,-0.01 0.03,-0.01 0.03,-0.01 0.016,-0.027 0.03,-0.027 0.04,-0.027 0.034,-0.02 0.034,-0.02 0.05,-0.02 0.017,-0.008 0.036,-0.008 0.05,-0.008 0.013,0 0.033,-0.02 0.06,-0.03 0.01,0 0.02,-0.005 0.04,-0.005 0.012,0 0.033,0 0.045,-0.02 0.017,-0.013 0.035,-0.013 0.035,-0.013 0.028,-0.007 0.046,-0.007 0.086,-0.02 0.01,0 0.014,-0.012 0.05,-0.012 0.004,0 0.043,0 0.075,-0.025 h 0.02 c 0.02,-0.014 0.048,-0.014 0.068,-0.027 h 0.048 l 0.07,-0.02 c 0,0 0.012,0 0.04,-0.02 h 0.055 c 0.02,-0.004 0.02,-0.004 0.036,-0.004 h 0.07 c 0.03,0 0.03,-0.02 0.05,-0.02 0.01,0 0.06,0 0.06,-0.015 0.03,0 0.035,0 0.04,-0.013 0.034,0 0.07,0 0.1,-0.007 h 0.04 c 0.026,-0.006 0.065,-0.006 0.09,-0.025 h 0.033 c 0.05,0 0.067,0 0.087,-0.02 h 0.183 c 0.005,-0.02 0.045,-0.02 0.057,-0.02 0.027,-0.012 0.047,-0.012 0.066,-0.012 h 0.26 c 0.046,-0.02 0.073,-0.02 0.12,-0.03 h 0.182 c 0.044,0 0.063,0 0.09,-0.012 h 0.15 c 0.013,0 0.032,0 0.046,-0.013 h 0.597 c 4.91,0 5.532,2.438 5.545,5.41 l -0.01,1.976 5.365,-2.796 v -0.68 c 0,-6.53 -6.38,-6.54 -6.38,-6.54 h -8.32 c 0,0 -0.047,0.006 -0.06,0.006 h -0.04 c -0.05,0 -0.104,0 -0.176,0.014 h -0.08 c -0.144,0.01 -0.365,0.023 -0.594,0.063 -0.147,0.01 -0.283,0.02 -0.427,0.05 -0.087,0.03 -0.164,0.036 -0.23,0.04 -0.17,0.035 -0.314,0.07 -0.47,0.107 -0.06,0.007 -0.118,0.04 -0.196,0.046 -0.2,0.05 -0.41,0.13 -0.66,0.19 -0.06,0.025 -0.116,0.044 -0.17,0.07 -0.24,0.08 -0.507,0.17 -0.748,0.3 h -0.026 c -0.04,0.02 -0.073,0.034 -0.11,0.046 -0.008,0.02 -0.034,0.026 -0.054,0.026 l -0.083,0.047 c -0.025,0 -0.044,0.026 -0.056,0.026 -0.02,0.012 -0.054,0.032 -0.08,0.032 -0.02,0.02 -0.053,0.04 -0.058,0.05 -0.016,0.02 -0.05,0.024 -0.06,0.024 -0.035,0.02 -0.066,0.04 -0.086,0.06 -0.026,0.003 -0.04,0.003 -0.054,0.02 -0.03,0.01 -0.066,0.022 -0.09,0.055 -0.01,0 -0.016,0 -0.016,0.01 -0.26,0.16 -0.503,0.337 -0.724,0.507 v 0.013 c -0.05,0.04 -0.064,0.06 -0.11,0.095 h -0.012 c -0.04,0.03 -0.064,0.07 -0.11,0.096 -0.3,0.3 -0.57,0.6 -0.804,0.98 v 0.01 c -0.03,0.05 -0.06,0.09 -0.08,0.11 0,0.01 -0.016,0.02 -0.016,0.04 -0.006,0.03 -0.026,0.07 -0.066,0.113 0,0.013 0,0.027 -0.02,0.04 -0.02,0.04 -0.03,0.065 -0.035,0.116 -0.016,0.01 -0.03,0.015 -0.048,0.05 -0.01,0.03 -0.03,0.063 -0.055,0.103 0,0.02 -0.006,0.033 -0.006,0.033 -0.02,0.05 -0.028,0.085 -0.066,0.137 0,0.005 0,0.02 -0.02,0.026 -0.04,0.14 -0.09,0.28 -0.13,0.42 -0.015,0.01 -0.03,0.04 -0.03,0.048 0,0.035 -0.023,0.09 -0.037,0.11 0,0.04 0,0.06 -0.014,0.09 -0.02,0.03 -0.027,0.063 -0.027,0.115 0,0.014 -0.007,0.047 -0.013,0.085 -0.01,0.02 -0.01,0.06 -0.02,0.094 0,0.034 -0.02,0.07 -0.02,0.106 -0.008,0.04 -0.008,0.063 -0.014,0.09 -0.016,0.036 -0.016,0.07 -0.028,0.11 v 0.09 c -0.02,0.044 -0.02,0.09 -0.033,0.13 0,0.02 -0.016,0.05 -0.016,0.076 v 0.137 l -0.003,0.087 c -0.012,0.056 -0.012,0.1 -0.012,0.16 v 0.07 c 0,0.075 -0.02,0.14 -0.02,0.22 v 5.74 c 0,5.12 0.212,6.79 7.51,6.79 5.58,0 9.014,0.13 9.014,4.956 v 5.718 c -0.015,0.16 -0.015,0.32 -0.015,0.48 v 0.036 c 0,0.155 0,0.312 -0.01,0.462 v 0.04 c -0.005,0.15 -0.005,0.288 -0.005,0.437 v 0.03 c -0.028,0.145 -0.035,0.28 -0.06,0.418 v 0.03 c -0.013,0.122 -0.034,0.253 -0.046,0.397 0,0.01 -0.008,0.01 -0.008,0.01 -0.04,0.13 -0.06,0.26 -0.07,0.38 v 0.02 c -0.02,0.115 -0.067,0.25 -0.098,0.342 v 0.02 c -0.032,0.126 -0.065,0.224 -0.097,0.334 v 0.03 c -0.06,0.098 -0.09,0.19 -0.14,0.287 0,0.015 -0.02,0.015 -0.02,0.015 -0.027,0.096 -0.07,0.2 -0.124,0.29 v 0.01 c -0.075,0.097 -0.127,0.174 -0.184,0.26 -0.01,0 -0.01,0.006 -0.01,0.006 -0.063,0.106 -0.14,0.178 -0.2,0.25 -0.073,0.097 -0.153,0.17 -0.21,0.228 l -0.014,0.02 c -0.085,0.064 -0.156,0.116 -0.254,0.182 v 0.012 c -0.1,0.07 -0.203,0.11 -0.29,0.162 l -0.004,0.01 c -0.06,0.033 -0.104,0.046 -0.15,0.072 -0.57,0.28 -1.29,0.47 -2.2,0.54 h -0.073 c -0.292,0.02 -0.632,0.033 -0.98,0.033 -5.08,0 -5.7,-2.456 -5.7,-6.77 l -0.014,-2.68 -5.36,2.275 0.01,4.094 c 0,5.74 6.97,5.74 6.97,5.74 h 8.363 c 0.256,0 6.1,-0.15 6.526,-6.643 0.01,-0.24 0.01,-0.488 0.01,-0.755 v -8.07"
       id="path114"
       inkscape:connector-curvature="0"
       style="fill:#ce1141" />
    <path
       d="m 434.226,226.524 -0.045,-7.607 v -1.36 l 2.04,0.005 c 4.54,-0.294 8.71,-0.894 13.42,-2.647 -3.68,-1.487 -8.35,-2.177 -13.42,-2.522 h -2.04 l 0.05,-6.225 c -0.02,-0.117 -0.02,-0.24 0,-0.385 0,-0.046 0.02,-0.077 0.02,-0.116 0,-0.124 0.01,-0.228 0.056,-0.333 0,-0.045 0.013,-0.104 0.04,-0.143 0.01,-0.09 0.03,-0.2 0.058,-0.32 0.035,-0.06 0.04,-0.12 0.074,-0.18 0.006,-0.06 0.033,-0.11 0.05,-0.17 0.185,-0.52 0.41,-1.02 0.615,-1.41 l 0.04,-0.083 c 0,-0.013 0.02,-0.04 0.025,-0.06 0.062,-0.13 0.12,-0.24 0.19,-0.32 v -0.024 c 0.023,-0.004 0.023,-0.02 0.035,-0.04 1.64,-1.763 4.286,-1.646 4.286,-1.646 l 10.07,-0.028 c -0.77,-4.024 -7.55,-3.326 -7.55,-3.326 h -6.255 c -0.03,0 -0.18,0 -0.33,0.014 h -0.045 c -0.165,0.016 -0.393,0.04 -0.654,0.087 h -0.01 c -0.27,0.035 -0.577,0.088 -0.87,0.154 h -0.02 c -0.34,0.06 -0.686,0.166 -1.045,0.296 H 433 c -1.28,0.42 -2.693,1.188 -3.68,2.55 -0.77,1.05 -1.286,2.48 -1.286,4.38 l 0.052,10.606 -0.052,12.027 c -0.033,7.32 8.01,7.24 8.01,7.24 h 6.186 c 0,0 6.866,0.72 7.558,-3.4 l -10.224,0.05 c 0,0 -5.338,0.32 -5.338,-5.04"
       id="path116"
       inkscape:connector-curvature="0"
       style="fill:#ce1141" />
    <path
       d="m 454.022,197.493 v 4.874 h 9.12 l -0.033,31.105 5.66,3.773 0.01,-34.878 h 2.09 c 4.59,-0.246 7.53,-0.944 10.89,-2.436 -3.365,-1.57 -6.306,-2.12 -10.898,-2.43 H 454.01"
       id="path118"
       inkscape:connector-curvature="0"
       style="fill:#ce1141" />
    <path
       d="m 421.22,197.5 h -5.495 l -11.608,16.476 v -16.698 l -5.795,-3.742 v 43.69 l 5.795,-3.73 v -18.783 l 12.28,19.455 h 6.324 l -13.13,-20.78 11.63,-15.89"
       id="path120"
       inkscape:connector-curvature="0"
       style="fill:#ce1141" />
    <path
       d="m 53.07,226.85 v 0.37 c 0,0.013 0,0.013 -0.014,0.02 0,0.06 0,0.124 -0.02,0.176 v 0.052 c -0.006,0.052 -0.006,0.077 -0.006,0.123 v 0.05 c -0.02,0.05 -0.02,0.13 -0.02,0.16 v 0.04 c -0.012,0.05 -0.02,0.11 -0.02,0.14 0,0.03 -0.02,0.05 -0.02,0.057 0,0.058 -0.01,0.103 -0.025,0.163 v 0.012 c -0.013,0.045 -0.013,0.09 -0.033,0.15 v 0.03 c 0,0.05 -0.026,0.11 -0.038,0.15 v 0.008 c -0.008,0.06 -0.027,0.12 -0.047,0.17 0,0 0,0.027 -0.013,0.04 0,0.026 -0.025,0.07 -0.025,0.117 -0.01,0 -0.01,0.02 -0.01,0.028 -0.02,0.047 -0.05,0.11 -0.07,0.144 0,0.024 0,0.032 -0.01,0.032 -0.02,0.043 -0.02,0.09 -0.04,0.13 -0.018,0.013 -0.018,0.024 -0.018,0.04 -0.013,0.044 -0.04,0.09 -0.05,0.14 0,0 -0.007,0.007 -0.007,0.028 l -0.047,0.106 c -0.02,0.02 -0.02,0.028 -0.026,0.046 -0.04,0.09 -0.096,0.177 -0.13,0.26 -0.005,0.014 -0.005,0.03 -0.005,0.03 -0.02,0.052 -0.053,0.104 -0.08,0.13 v 0.006 c -0.04,0.053 -0.04,0.1 -0.078,0.138 0,0.013 0,0.027 -0.02,0.033 -0.026,0.023 -0.046,0.064 -0.078,0.102 v 0.016 c -0.04,0.045 -0.05,0.097 -0.08,0.13 v 0.006 c -0.048,0.047 -0.07,0.08 -0.1,0.12 0,0.006 -0.006,0.02 -0.006,0.02 -0.078,0.08 -0.124,0.17 -0.196,0.24 0,0.005 -0.015,0.005 -0.015,0.013 -0.04,0.035 -0.067,0.07 -0.11,0.09 v 0.01 c -0.04,0.04 -0.075,0.084 -0.107,0.116 0,0.006 -0.015,0.006 -0.015,0.006 -0.047,0.04 -0.07,0.064 -0.1,0.103 h -0.015 c -0.04,0.035 -0.08,0.074 -0.1,0.11 h -0.02 c -0.024,0.035 -0.07,0.06 -0.096,0.094 -0.02,0 -0.02,0 -0.02,0.013 -0.083,0.05 -0.16,0.126 -0.254,0.18 -0.013,0 -0.02,0.02 -0.02,0.02 -0.03,0.024 -0.08,0.037 -0.123,0.062 -0.575,0.37 -1.247,0.62 -2.02,0.726 -0.024,0.01 -0.076,0.026 -0.116,0.026 -0.255,0.04 -0.504,0.054 -0.76,0.054 -3.17,0 -5.213,-1.61 -5.213,-5.553 V 205.5 c 0,-0.328 0.02,-0.64 0.045,-0.927 0.01,-0.07 0.02,-0.137 0.038,-0.2 0.08,-0.585 0.19,-1.126 0.385,-1.57 0.015,-0.04 0.02,-0.076 0.027,-0.104 0.097,-0.24 0.22,-0.45 0.352,-0.66 0.073,-0.13 0.16,-0.26 0.26,-0.39 0.02,-0.04 0.06,-0.08 0.082,-0.12 0.195,-0.24 0.43,-0.43 0.65,-0.612 0,-0.01 0.015,-0.01 0.015,-0.01 0.035,-0.03 0.08,-0.05 0.114,-0.08 0.02,0 0.025,-0.02 0.025,-0.02 0.033,-0.01 0.066,-0.035 0.124,-0.07 v -0.005 c 0.033,-0.027 0.08,-0.053 0.105,-0.078 l 0.032,-0.01 c 0.17,-0.09 0.335,-0.183 0.52,-0.26 0,0 0.004,-0.01 0.01,-0.01 0.03,-0.01 0.08,-0.037 0.11,-0.044 0.01,0 0.024,-0.014 0.05,-0.014 0.02,-0.01 0.057,-0.024 0.09,-0.024 0.027,-0.014 0.04,-0.014 0.05,-0.04 0.048,0 0.06,-0.02 0.12,-0.026 0,0 0.027,0 0.046,-0.02 0.023,-0.01 0.07,-0.01 0.09,-0.03 0.03,-0.012 0.06,-0.012 0.08,-0.02 0.02,0 0.05,-0.01 0.09,-0.023 0.01,0 0.06,0 0.07,-0.016 0.045,-0.01 0.072,-0.02 0.09,-0.02 0.054,-0.01 0.08,-0.01 0.113,-0.02 0.05,-0.01 0.076,-0.03 0.12,-0.03 0.047,-0.004 0.074,-0.004 0.11,-0.004 0.03,-0.01 0.05,-0.01 0.074,-0.03 0.04,0 0.07,0 0.083,-0.014 0.046,0 0.072,-0.016 0.1,-0.016 h 0.103 c 0.025,-0.006 0.04,-0.006 0.07,-0.006 0.035,-0.003 0.07,-0.003 0.106,-0.003 0.033,-0.02 0.06,-0.02 0.078,-0.02 h 0.198 c 0.03,-0.02 0.088,-0.02 0.127,-0.02 h 0.253 c 3.14,0 5.205,2.24 5.205,5.56 v 21.36 z M 51.395,197.3 H 44.31 c 0,0 -2.11,0.014 -4.11,1.057 -1.778,0.95 -3.488,2.735 -3.488,6.138 v 23.244 c 0,7.29 7.597,7.19 7.597,7.19 h 7.08 c 0,0 7.6,0.09 7.6,-7.2 v -23.24 c 0,-7.2 -7.6,-7.2 -7.6,-7.2 z"
       id="path122"
       inkscape:connector-curvature="0"
       style="fill:#ce1141" />
    <path
       d="m 83.155,200.802 -0.025,14.307 -0.04,11.74 c 0,2.74 -1.11,4.13 -2.235,4.81 -1.15,0.68 -2.26,0.68 -2.26,0.68 h -1.672 c 0,0 -4.252,-0.47 -4.24,-5.5 v -11.85 l 0.066,-14.13 -5.97,-3.59 v 17.93 l -0.02,12.79 c 0,6.6 7.11,6.92 7.11,6.92 h 7.41 c 0.22,0 7.42,-0.36 7.74,-6.5 0.02,-0.147 0.02,-0.297 0.02,-0.45 v -13.88 c 0,0 -0.104,-16.62 -0.104,-16.81 l -5.795,3.52"
       id="path124"
       inkscape:connector-curvature="0"
       style="fill:#ce1141" />
    <path
       d="m 188.774,233.856 0.045,-18.06 0.01,-3.175 16.94,22.42 -0.05,-28.15 c -0.3,-5.91 -1.21,-9.73 -2.46,-14.04 -1.47,5.5 -2.296,8.76 -2.55,14.04 l 0.01,12.52 -1.37,-1.79 -15.614,-20.29 0.026,40.18 4.996,-3.643"
       id="path126"
       inkscape:connector-curvature="0"
       style="fill:#ce1141" />
    <path
       d="m 108.418,212.565 c -4.815,0 -6.416,-0.17 -6.416,-4.275 l -0.005,-3.697 c 0,-0.246 0.005,-0.48 0.005,-0.715 0,-0.047 0.007,-0.1 0.007,-0.132 0.03,-0.49 0.08,-0.925 0.2,-1.33 v -0.006 c 0.05,-0.22 0.11,-0.404 0.21,-0.586 0.01,-0.027 0.02,-0.052 0.02,-0.073 l 0.01,-0.03 c 0,0 0.002,0 0.002,-0.03 0.02,-0.01 0.02,-0.02 0.033,-0.02 0,-0.01 0.012,-0.02 0.025,-0.04 0,-0.01 0.006,-0.02 0.006,-0.02 0.01,0 0.01,-0.04 0.02,-0.04 0.015,0 0.015,-0.01 0.02,-0.02 v -0.04 c 0.01,0 0.01,0 0.028,-0.025 0,-0.012 0.02,-0.02 0.02,-0.03 0,-0.007 0.013,-0.007 0.02,-0.02 0.006,-0.02 0.006,-0.026 0.025,-0.033 0.013,-0.026 0.02,-0.04 0.02,-0.053 0.012,-0.006 0.026,-0.026 0.026,-0.026 0.01,-0.01 0.03,-0.02 0.036,-0.024 0,-0.013 0,-0.033 0.02,-0.033 0,-0.007 0.006,-0.02 0.013,-0.033 0.003,-0.017 0.003,-0.017 0.023,-0.02 0.01,0 0.01,-0.03 0.02,-0.036 l 0.013,-0.02 0.037,-0.03 0.02,-0.02 c 0,-0.02 0.01,-0.033 0.02,-0.04 0,0 0.02,0 0.02,-0.013 0.013,-0.01 0.02,-0.015 0.034,-0.03 0.026,-0.023 0.06,-0.056 0.105,-0.08 v -0.008 c 0,-0.02 0.02,-0.023 0.024,-0.04 0.013,0 0.013,-0.01 0.02,-0.01 0,-0.005 0.013,-0.02 0.04,-0.02 0,-0.02 0.02,-0.02 0.02,-0.024 0.01,-0.02 0.02,-0.02 0.032,-0.03 0,0 0.01,0 0.01,-0.02 0.024,0 0.04,-0.003 0.04,-0.02 0.004,-0.01 0.02,-0.01 0.02,-0.01 0.01,-0.007 0.04,-0.02 0.05,-0.033 l 0.013,-0.007 c 0.05,-0.046 0.103,-0.072 0.16,-0.124 0.02,0 0.028,-0.015 0.055,-0.027 0,0 0.01,0 0.022,-0.008 0.013,-0.01 0.026,-0.01 0.046,-0.03 0.007,0 0.014,-0.007 0.02,-0.02 0.006,0 0.033,-0.007 0.046,-0.02 h 0.02 l 0.055,-0.02 c 0,-0.02 0,-0.02 0.01,-0.026 0.033,0 0.045,-0.014 0.06,-0.027 h 0.006 c 0.072,-0.04 0.143,-0.065 0.215,-0.1 0.025,-0.01 0.05,-0.01 0.066,-0.01 0.01,0 0.02,0 0.03,-0.014 0.01,0 0.02,-0.03 0.048,-0.03 0,0 0.02,0 0.024,-0.02 0.02,0 0.04,0 0.044,-0.01 h 0.052 c 0.01,-0.012 0.02,-0.02 0.04,-0.025 h 0.04 c 0.01,-0.02 0.042,-0.02 0.06,-0.033 0.004,0 0.01,-0.004 0.023,-0.004 0.02,0 0.04,-0.013 0.06,-0.013 0,-0.01 0.016,-0.01 0.016,-0.01 0.047,0 0.09,-0.026 0.146,-0.04 0.005,0 0.01,0 0.01,-0.013 h 0.08 c 0.02,-0.007 0.02,-0.007 0.04,-0.02 0.01,0 0.028,-0.02 0.06,-0.02 h 0.033 c 0.02,-0.005 0.046,-0.005 0.066,-0.005 0.005,0 0.02,-0.006 0.03,-0.006 0.02,-0.02 0.046,-0.02 0.066,-0.02 0.024,0 0.037,0 0.05,-0.014 0.01,0 0.04,-0.012 0.057,-0.012 h 0.068 c 0.007,-0.006 0.02,-0.006 0.04,-0.012 h 0.05 c 0.03,-0.02 0.074,-0.02 0.114,-0.02 0.02,-0.012 0.054,-0.012 0.074,-0.012 h 0.037 c 0.03,0 0.06,0 0.067,-0.02 h 0.062 c 0.02,-0.01 0.03,-0.01 0.064,-0.01 h 0.12 c 0.017,0 0.037,0 0.044,-0.02 0.032,0 0.06,0 0.084,-0.01 h 0.19 c 0.02,-0.017 0.065,-0.017 0.105,-0.017 0.02,0 0.027,-0.01 0.04,-0.01 h 0.24 c 0.036,0 0.055,-0.01 0.067,-0.01 h 0.14 c 0.03,-0.015 0.064,-0.015 0.084,-0.015 h 0.52 c 4.92,0 5.545,2.436 5.56,5.416 l -0.015,1.975 5.36,-2.784 v -0.7 c 0,-6.544 -6.375,-6.544 -6.375,-6.544 h -8.32 c 0,0 -2.27,0.02 -4.28,1.094 -1.53,0.83 -2.91,2.295 -2.91,4.91 v 5.74 c 0,5.123 0.202,6.806 7.505,6.806 5.59,0 9.033,0.138 9.033,4.96 v 6.225 c -0.014,0.16 -0.02,0.315 -0.02,0.465 v 0.034 c -0.007,0.154 -0.033,0.3 -0.04,0.44 v 0.036 c -0.006,0.156 -0.02,0.29 -0.04,0.416 v 0.03 c -0.005,0.144 -0.02,0.27 -0.065,0.407 v 0.01 c -0.014,0.14 -0.03,0.25 -0.066,0.38 v 0.01 c -0.028,0.13 -0.067,0.255 -0.09,0.366 v 0.02 c -0.01,0.1 -0.06,0.215 -0.108,0.32 v 0.02 c -0.04,0.104 -0.09,0.21 -0.14,0.305 -0.04,0.12 -0.088,0.2 -0.13,0.3 v 0.01 c -0.07,0.084 -0.14,0.175 -0.19,0.27 -0.076,0.09 -0.13,0.16 -0.2,0.25 -0.08,0.08 -0.16,0.15 -0.24,0.224 -0.08,0.075 -0.17,0.133 -0.254,0.204 -0.138,0.092 -0.287,0.18 -0.438,0.25 -0.568,0.285 -1.294,0.462 -2.207,0.533 h -0.06 c -0.3,0.032 -0.63,0.032 -0.994,0.032 -5.077,0 -5.696,-2.444 -5.696,-6.778 l -0.03,-2.68 -5.347,2.28 0.005,4.09 c 0,5.75 6.99,5.75 6.99,5.75 h 8.393 l 0.008,-0.008 h 0.176 c 0.01,0 0.01,-0.012 0.02,-0.012 h 0.076 c 0,0 0.007,-0.015 0.028,-0.015 h 0.13 c 0.008,0 0.02,-0.006 0.02,-0.006 h 0.015 c 1.26,-0.136 4.432,-0.867 5.6,-4.347 0.01,-0.05 0.02,-0.083 0.02,-0.13 0,-0.006 0,-0.006 0.02,-0.006 0,-0.03 0.02,-0.064 0.03,-0.097 v -0.02 c 0.016,-0.037 0.03,-0.076 0.035,-0.115 0.027,-0.047 0.027,-0.08 0.033,-0.11 v -0.015 c 0.026,-0.05 0.026,-0.09 0.03,-0.13 0.014,-0.05 0.026,-0.09 0.04,-0.122 0.013,-0.052 0.032,-0.085 0.032,-0.14 v -0.01 c 0,-0.033 0.014,-0.08 0.027,-0.117 v -0.005 c 0,-0.047 0.007,-0.1 0.02,-0.15 0.014,-0.033 0.014,-0.09 0.026,-0.13 0.05,-0.32 0.082,-0.645 0.1,-1.01 0.02,-0.22 0.03,-0.45 0.03,-0.69 v -8.078 c 0,-6.42 -3.11,-6.884 -10.116,-6.884"
       id="path128"
       inkscape:connector-curvature="0"
       style="fill:#ce1141" />
    <path
       d="m 122.58,198.37 v 4.785 h 8.97 l -0.02,30.59 5.56,3.7 0.013,-34.29 h 2.057 c 4.515,-0.228 7.42,-0.932 10.707,-2.386 -3.286,-1.56 -6.192,-2.1 -10.7,-2.38 l -16.587,-0.02"
       id="path130"
       inkscape:connector-curvature="0"
       style="fill:#ce1141" />
    <path
       d="m 158.962,205.5 c 0,-0.333 0.02,-0.653 0.054,-0.932 0.012,-0.066 0.02,-0.138 0.025,-0.204 0.08,-0.592 0.21,-1.132 0.4,-1.576 0.02,-0.04 0.02,-0.052 0.03,-0.078 0.11,-0.248 0.218,-0.457 0.36,-0.67 0.02,-0.014 0.03,-0.053 0.04,-0.1 0.02,-0.012 0.02,-0.025 0.048,-0.046 0.01,-0.02 0.02,-0.058 0.045,-0.07 0.03,-0.007 0.03,-0.04 0.04,-0.052 0.01,-0.02 0.036,-0.058 0.056,-0.085 0.012,-0.02 0.026,-0.033 0.05,-0.06 0.014,-0.025 0.033,-0.045 0.053,-0.065 0.02,-0.025 0.03,-0.032 0.044,-0.046 0.02,-0.02 0.03,-0.064 0.055,-0.083 0.02,-0.014 0.025,-0.033 0.044,-0.04 0.028,-0.032 0.047,-0.06 0.066,-0.085 0.015,-0.012 0.03,-0.02 0.05,-0.026 0.085,-0.084 0.183,-0.175 0.28,-0.254 0,-0.012 0.02,-0.02 0.033,-0.02 0.026,-0.025 0.045,-0.045 0.07,-0.064 0.02,-0.02 0.028,-0.026 0.053,-0.046 0.028,-0.02 0.04,-0.033 0.08,-0.053 0.02,-0.018 0.026,-0.025 0.04,-0.045 0.04,-0.013 0.056,-0.032 0.09,-0.052 0.013,-0.013 0.026,-0.013 0.05,-0.032 0.028,-0.014 0.054,-0.04 0.086,-0.047 0.02,0 0.034,-0.04 0.054,-0.04 0.024,-0.01 0.044,-0.03 0.083,-0.06 0.02,-0.01 0.04,-0.01 0.056,-0.02 0.028,-0.01 0.047,-0.03 0.08,-0.05 0.02,-0.01 0.033,-0.02 0.05,-0.02 0.055,-0.02 0.113,-0.06 0.18,-0.08 0.025,-0.01 0.044,-0.03 0.05,-0.03 0.027,-0.008 0.07,-0.028 0.093,-0.053 0.023,0 0.043,-0.007 0.062,-0.02 0.047,-0.013 0.054,-0.026 0.094,-0.026 0.02,0 0.063,-0.012 0.07,-0.012 0.026,-0.026 0.04,-0.026 0.09,-0.046 0.02,-0.006 0.054,-0.006 0.09,-0.027 0.01,0 0.035,-0.008 0.07,-0.008 0.03,-0.02 0.044,-0.02 0.075,-0.033 0.034,-0.003 0.06,-0.003 0.08,-0.016 0.033,-0.01 0.066,-0.01 0.104,-0.01 0.012,-0.025 0.05,-0.025 0.07,-0.025 0.046,-0.014 0.1,-0.028 0.145,-0.034 0.023,0 0.04,-0.01 0.056,-0.01 0.054,-0.02 0.09,-0.02 0.13,-0.027 0.035,0 0.06,0 0.068,-0.005 0.06,0 0.09,-0.02 0.123,-0.02 0.024,0 0.04,0 0.063,-0.016 0.04,0 0.083,-0.01 0.11,-0.01 h 0.08 c 0.04,-0.006 0.08,-0.006 0.1,-0.01 h 0.083 c 0.045,-0.02 0.09,-0.02 0.11,-0.02 h 0.27 c 0.06,-0.016 0.13,-0.016 0.19,-0.016 3.154,0 5.212,2.25 5.212,5.57 v 21.347 c 0,0.06 0,0.13 -0.013,0.183 v 0.24 c 0,0.048 -0.005,0.108 -0.013,0.17 v 0.03 c -0.01,0.06 -0.01,0.1 -0.01,0.143 0,0.025 -0.012,0.025 -0.012,0.045 v 0.16 c 0,0.02 0,0.02 -0.02,0.027 -0.01,0.044 -0.01,0.09 -0.02,0.15 v 0.037 c -0.02,0.105 -0.054,0.21 -0.067,0.32 0,0.02 0,0.03 -0.01,0.03 -0.01,0.067 -0.02,0.106 -0.032,0.152 l -0.01,0.01 c -0.01,0.06 -0.02,0.125 -0.03,0.163 v 0.034 c -0.027,0.036 -0.027,0.095 -0.054,0.134 0,0 0,0.013 -0.005,0.025 -0.023,0.046 -0.037,0.1 -0.05,0.15 0,0 0,0.005 -0.013,0.005 0,0.048 -0.01,0.11 -0.04,0.153 0,0.01 -0.002,0.01 -0.002,0.023 -0.048,0.1 -0.086,0.19 -0.12,0.3 0,0 -0.01,0 -0.01,0.015 -0.057,0.09 -0.11,0.182 -0.155,0.287 -0.02,0.065 -0.052,0.105 -0.08,0.144 -0.04,0.1 -0.11,0.19 -0.162,0.29 -0.056,0.09 -0.11,0.182 -0.186,0.273 -0.08,0.086 -0.145,0.164 -0.22,0.243 -0.17,0.195 -0.35,0.383 -0.58,0.54 v 0.02 c -0.08,0.064 -0.16,0.116 -0.252,0.19 -0.033,0.024 -0.085,0.05 -0.14,0.077 -0.57,0.367 -1.25,0.62 -2.02,0.726 -0.05,0.01 -0.062,0.01 -0.136,0.02 -0.24,0.046 -0.49,0.05 -0.75,0.05 -3.174,0 -5.22,-1.61 -5.22,-5.56 V 205.5 Z m -5.924,-0.985 v 23.23 c 0,7.288 7.603,7.197 7.603,7.197 h 7.09 c 0,0 7.61,0.09 7.61,-7.197 v -23.23 c 0,-7.202 -7.604,-7.202 -7.604,-7.202 h -7.08 c 0,0 -7.604,0 -7.604,7.202 z"
       id="path132"
       inkscape:connector-curvature="0"
       style="fill:#ce1141" />
    <path
       d="m 26.154,192.374 c -1.51,3.84 -2.207,7.21 -2.482,11.336 l -0.066,10.05 h -12.36 l -0.058,-10.05 c -0.27,-4.127 -0.98,-7.497 -2.483,-11.336 -1.338,3.846 -2.267,7.66 -2.476,11.336 l -0.21,34.525 5.35,-2.927 -0.09,-16.19 -0.02,-1.362 h 12.32 l -0.1,17.552 5.337,2.927 -0.2,-34.525 c -0.22,-3.676 -1.14,-7.49 -2.48,-11.336"
       id="path134"
       inkscape:connector-curvature="0"
       style="fill:#ce1141" />
    <path
       d="m 337.11,259.718 v 0.04 c -0.012,0.032 -0.012,0.058 -0.012,0.09 0,0.014 -0.013,0.027 -0.013,0.053 v 0.08 c -0.006,0.02 -0.006,0.05 -0.006,0.06 v 0.09 c -0.03,0.015 -0.03,0.026 -0.03,0.047 0,0.03 -0.01,0.05 -0.01,0.097 -0.01,0 -0.01,0.026 -0.01,0.04 0,0.02 -0.02,0.05 -0.02,0.09 0,0.006 -0.02,0.013 -0.02,0.04 -0.018,0.02 -0.018,0.05 -0.03,0.084 v 0.046 c -0.006,0.03 -0.026,0.056 -0.026,0.095 -0.005,0.01 -0.005,0.02 -0.005,0.02 l -0.035,0.1 c 0,0.015 0,0.03 -0.013,0.035 -0.012,0.042 -0.023,0.07 -0.037,0.113 0,0.008 -0.014,0.015 -0.014,0.015 -0.006,0.045 -0.025,0.084 -0.04,0.117 v 0.02 c -0.09,0.2 -0.2,0.4 -0.32,0.622 -0.024,0.05 -0.06,0.09 -0.08,0.14 -0.13,0.196 -0.29,0.404 -0.44,0.6 -0.01,0.02 -0.04,0.03 -0.05,0.06 -0.146,0.188 -0.32,0.358 -0.506,0.55 -0.033,0.03 -0.077,0.08 -0.117,0.13 -0.2,0.19 -0.42,0.366 -0.64,0.57 -0.01,0 -0.026,0.01 -0.04,0.01 -4.46,3.638 -14.63,6.644 -28.447,8.736 -0.173,0.02 -0.35,0.055 -0.534,0.067 -0.41,0.067 -0.824,0.126 -1.236,0.205 -0.296,0.03 -0.596,0.07 -0.883,0.11 -0.372,0.05 -0.726,0.103 -1.092,0.142 -0.41,0.067 -0.85,0.13 -1.29,0.177 -0.27,0.04 -0.522,0.062 -0.77,0.09 -0.693,0.1 -1.386,0.17 -2.09,0.246 -0.24,0.05 -0.484,0.07 -0.74,0.1 -0.51,0.06 -1.027,0.106 -1.542,0.17 -0.254,0.03 -0.517,0.05 -0.804,0.085 -0.52,0.05 -1.05,0.097 -1.59,0.16 -0.237,0.02 -0.466,0.048 -0.71,0.06 -0.77,0.1 -1.566,0.158 -2.336,0.217 l 0.32,-26.098 0.03,-1.554 c 25.333,3.26 46.21,6.897 46.21,12.906 v 0.137 z m -66.364,15.806 c -4.632,0.145 -9.407,0.242 -14.287,0.242 -5.07,0 -10.02,-0.097 -14.81,-0.26 l 0.19,-5.978 c -0.02,-0.964 -0.05,-1.923 -0.07,-2.92 0,-0.488 -0.01,-0.985 -0.03,-1.48 0,-0.514 0,-1.016 -0.012,-1.538 v -1.54 c -0.02,-0.533 -0.02,-1.04 -0.02,-1.59 v -1.413 c 0.02,-0.593 0.02,-1.192 0.02,-1.812 0.013,-0.36 0.013,-0.736 0.013,-1.096 0,-0.77 0.02,-1.5 0.03,-2.26 0,-0.2 0,-0.41 0.01,-0.61 0.174,-11.72 0.664,-24.8 0.873,-38.47 0.007,-0.52 0.02,-1.01 0.02,-1.53 12.576,1.29 28.783,4.72 28.53,13.74 l -0.464,48.5 z M 241.252,166.812 c 17.652,1.68 33.152,5.904 34.434,15.415 0.012,0.136 0.038,0.268 0.052,0.404 0.012,0.04 0.012,0.1 0.012,0.14 0.014,0.1 0.033,0.18 0.033,0.27 0.007,0.06 0.007,0.11 0.02,0.17 0,0.07 0.012,0.158 0.012,0.24 0,0.05 0.014,0.1 0.027,0.18 0,0.06 0.013,0.142 0.013,0.22 0.014,0.044 0.014,0.104 0.014,0.18 0,0.066 0.03,0.125 0.03,0.19 v 0.587 c 0.01,0.077 0.01,0.123 0.01,0.194 v 0.393 c 0,0.058 0.01,0.104 0.01,0.18 v 0.37 c 0,0.046 -0.014,0.118 -0.014,0.19 v 0.345 c 0,0.165 -0.01,0.347 -0.02,0.516 v 0.28 c 0,0.04 0,0.08 -0.025,0.11 -0.005,0.084 -0.005,0.15 -0.005,0.23 -0.015,0.044 -0.015,0.096 -0.015,0.135 l -0.04,0.217 v 0.14 c -0.013,0.064 -0.025,0.142 -0.025,0.22 0,0.037 -0.007,0.08 -0.007,0.123 -0.02,0.062 -0.026,0.15 -0.033,0.232 0,0.022 -0.01,0.06 -0.01,0.1 -0.015,0.07 -0.02,0.164 -0.04,0.215 0,0.052 -0.013,0.072 -0.013,0.118 0,0.09 -0.027,0.16 -0.033,0.24 0,0.03 -0.007,0.07 -0.007,0.095 -0.01,0.07 -0.05,0.17 -0.068,0.255 0,0.02 -0.005,0.04 -0.005,0.065 -0.007,0.082 -0.027,0.18 -0.05,0.26 v 0.01 c -0.12,0.6 -0.257,1.17 -0.44,1.74 -0.065,0.207 -0.13,0.384 -0.183,0.585 -0.11,0.374 -0.225,0.72 -0.39,1.09 -0.09,0.21 -0.18,0.424 -0.272,0.647 -0.126,0.302 -0.29,0.603 -0.426,0.91 -0.13,0.206 -0.23,0.435 -0.347,0.65 -0.17,0.273 -0.34,0.554 -0.504,0.834 -0.124,0.2 -0.276,0.416 -0.41,0.63 -0.17,0.26 -0.355,0.51 -0.55,0.763 -0.138,0.205 -0.3,0.4 -0.446,0.6 -0.21,0.25 -0.423,0.48 -0.615,0.72 -0.176,0.182 -0.33,0.37 -0.49,0.56 -0.24,0.254 -0.496,0.475 -0.75,0.72 -0.158,0.154 -0.308,0.31 -0.47,0.47 h -0.007 c -0.42,0.4 -0.85,0.772 -1.32,1.13 -0.05,0.053 -0.09,0.093 -0.148,0.13 -0.403,0.315 -0.78,0.6 -1.2,0.9 l -0.235,0.164 c -0.39,0.292 -0.81,0.56 -1.22,0.82 -0.085,0.045 -0.157,0.086 -0.223,0.137 -0.475,0.29 -0.965,0.59 -1.47,0.857 l -0.005,0.006 c -1.044,0.58 -2.13,1.12 -3.234,1.604 -0.065,0.027 -0.118,0.053 -0.17,0.086 -0.484,0.2 -0.967,0.398 -1.445,0.607 -0.116,0.04 -0.246,0.07 -0.345,0.13 -0.444,0.17 -0.89,0.326 -1.33,0.496 -0.127,0.038 -0.244,0.09 -0.375,0.136 -0.45,0.17 -0.916,0.32 -1.39,0.457 -0.08,0.043 -0.185,0.074 -0.3,0.113 -1.133,0.354 -2.296,0.685 -3.44,0.99 -0.025,0 -0.064,0 -0.077,0.015 -0.524,0.143 -1.067,0.266 -1.59,0.39 -0.123,0.03 -0.266,0.064 -0.41,0.09 -0.41,0.09 -0.837,0.2 -1.25,0.288 -0.16,0.03 -0.324,0.05 -0.495,0.09 -0.39,0.08 -0.79,0.15 -1.173,0.24 -0.156,0.013 -0.327,0.05 -0.49,0.09 -0.41,0.07 -0.796,0.138 -1.195,0.216 -0.143,0.017 -0.29,0.04 -0.43,0.06 -0.51,0.087 -1.052,0.17 -1.563,0.25 0.15,-14.11 -0.077,-28.75 -1.305,-43.11 -0.06,-0.507 -0.092,-1.023 -0.144,-1.524 z M 222.21,274.32 c -0.484,-0.04 -0.954,-0.086 -1.412,-0.13 h -0.02 c -15.697,-1.5 -28.385,-3.985 -36.093,-7.172 -0.006,-0.012 -0.025,-0.012 -0.025,-0.012 -0.385,-0.163 -0.778,-0.334 -1.138,-0.49 -0.032,-0.018 -0.07,-0.032 -0.098,-0.058 -0.346,-0.15 -0.68,-0.307 -1,-0.47 -0.045,-0.02 -0.077,-0.04 -0.136,-0.064 -0.294,-0.15 -0.582,-0.3 -0.857,-0.457 -0.07,-0.02 -0.13,-0.078 -0.19,-0.117 -0.23,-0.124 -0.48,-0.28 -0.72,-0.43 -0.06,-0.033 -0.14,-0.08 -0.21,-0.144 -0.22,-0.117 -0.42,-0.267 -0.62,-0.404 -0.08,-0.05 -0.15,-0.11 -0.23,-0.17 -0.17,-0.123 -0.35,-0.26 -0.51,-0.397 -0.08,-0.058 -0.15,-0.13 -0.23,-0.195 -0.143,-0.117 -0.29,-0.25 -0.42,-0.37 -0.075,-0.08 -0.133,-0.152 -0.23,-0.23 -0.093,-0.124 -0.22,-0.24 -0.32,-0.358 -0.08,-0.078 -0.133,-0.177 -0.212,-0.274 -0.083,-0.098 -0.176,-0.21 -0.254,-0.313 -0.07,-0.105 -0.115,-0.216 -0.174,-0.306 -0.057,-0.11 -0.123,-0.21 -0.18,-0.31 -0.067,-0.11 -0.106,-0.23 -0.15,-0.34 -0.04,-0.1 -0.087,-0.18 -0.113,-0.28 -0.03,-0.13 -0.06,-0.28 -0.11,-0.4 -0.006,-0.07 -0.026,-0.15 -0.04,-0.23 -0.044,-0.2 -0.06,-0.42 -0.06,-0.63 0,-0.168 0.016,-0.33 0.06,-0.5 0.014,-0.065 0.034,-0.13 0.04,-0.195 0.03,-0.085 0.06,-0.157 0.098,-0.24 0.08,-0.21 0.19,-0.425 0.316,-0.608 l 0.01,-0.02 c 3.5,-5.227 24.476,-8.23 45.512,-11.386 -0.02,7.384 -0.123,15.448 -0.365,24.317 l 0.103,3.364 z m 68.69,-27.845 0.266,-23.994 c -0.01,-0.42 -0.024,-0.82 -0.058,-1.21 -0.02,-0.12 -0.02,-0.24 -0.045,-0.36 -0.026,-0.28 -0.065,-0.55 -0.104,-0.82 -0.03,-0.12 -0.05,-0.24 -0.06,-0.35 -0.1,-0.29 -0.14,-0.57 -0.22,-0.85 -0.02,-0.064 -0.03,-0.142 -0.07,-0.214 -0.1,-0.332 -0.2,-0.66 -0.36,-0.98 -0.026,-0.07 -0.045,-0.13 -0.064,-0.19 -0.118,-0.252 -0.24,-0.506 -0.36,-0.74 -0.058,-0.078 -0.11,-0.164 -0.144,-0.24 -0.124,-0.23 -0.268,-0.43 -0.404,-0.647 -0.035,-0.066 -0.094,-0.137 -0.13,-0.203 -0.388,-0.533 -0.806,-1.04 -1.29,-1.484 -0.03,-0.053 -0.092,-0.105 -0.163,-0.17 -0.183,-0.156 -0.366,-0.327 -0.56,-0.476 -0.07,-0.06 -0.153,-0.118 -0.22,-0.178 l -0.64,-0.475 c -0.06,-0.024 -0.1,-0.045 -0.15,-0.09 -0.27,-0.176 -0.55,-0.352 -0.83,-0.5 -0.076,-0.053 -0.13,-0.086 -0.21,-0.125 -0.214,-0.12 -0.42,-0.234 -0.663,-0.337 -0.113,-0.06 -0.223,-0.1 -0.32,-0.16 -0.203,-0.09 -0.387,-0.17 -0.614,-0.252 -0.11,-0.042 -0.202,-0.094 -0.345,-0.15 -0.223,-0.08 -0.48,-0.16 -0.713,-0.26 -0.174,-0.06 -0.364,-0.114 -0.554,-0.17 -0.19,-0.074 -0.38,-0.13 -0.55,-0.18 -0.19,-0.042 -0.376,-0.094 -0.57,-0.14 -0.122,-0.04 -0.24,-0.07 -0.383,-0.09 -0.213,-0.06 -0.416,-0.124 -0.64,-0.163 -0.076,-0.02 -0.136,-0.032 -0.2,-0.04 -3.163,-0.663 -6.513,-0.8 -9.44,-0.73 -2.515,0.087 -4.73,0.32 -6.264,0.516 4.86,-0.866 16.797,-3.694 24.98,-11.38 0.314,-0.293 0.61,-0.585 0.91,-0.893 0.02,-0.013 0.033,-0.027 0.04,-0.033 0.88,-0.907 1.7,-1.865 2.455,-2.88 0.07,-0.092 0.13,-0.19 0.21,-0.288 l 0.59,-0.87 c 0.093,-0.144 0.172,-0.287 0.27,-0.424 0.184,-0.28 0.346,-0.594 0.543,-0.875 0.076,-0.16 0.155,-0.31 0.24,-0.466 0.275,-0.49 0.515,-0.996 0.745,-1.517 0.12,-0.237 0.23,-0.465 0.334,-0.71 0.11,-0.275 0.21,-0.524 0.304,-0.785 0.093,-0.263 0.198,-0.55 0.29,-0.82 0.085,-0.24 0.17,-0.485 0.254,-0.753 0.098,-0.32 0.177,-0.67 0.268,-0.998 0.067,-0.22 0.126,-0.44 0.17,-0.664 0.126,-0.548 0.236,-1.095 0.335,-1.68 0.03,-0.2 0.04,-0.4 0.07,-0.596 0.075,-0.41 0.12,-0.83 0.15,-1.25 0.01,-0.232 0.04,-0.48 0.05,-0.722 0.03,-0.42 0.053,-0.85 0.053,-1.31 0.013,-0.213 0.02,-0.422 0.02,-0.656 -0.007,-0.67 -0.02,-1.33 -0.072,-2.02 -1.112,-16.255 -21.48,-24.36 -55.26,-21.112 -0.57,0.06 -1.12,0.133 -1.67,0.18 -1.606,-12.02 -4.055,-23.66 -7.805,-34.394 -4.702,14.524 -7.42,25.98 -8.956,36.684 -0.39,0.06 -0.777,0.115 -1.195,0.193 -20.29,3.475 -34.552,8.116 -34.552,8.116 0,0 16.3,-1.47 34.89,-1.205 -2.09,21.406 0.116,41.695 -0.02,80.64 -0.498,-0.025 -0.993,-0.025 -1.477,-0.046 -0.045,0 -0.09,-0.006 -0.124,-0.006 -5.526,-0.16 -10.923,-0.103 -16.09,0.1 h -0.05 c -11.37,0.5 -21.65,1.856 -29.744,3.884 h -0.046 c -8.1,2.04 -14.066,4.76 -16.79,7.98 -1.11,1.33 -1.71,2.75 -1.647,4.216 0.306,9.17 27.625,17.592 65.98,20.812 l 1.632,51.972 2.695,-35.255 c 0,-0.214 0.016,-0.4 0.04,-0.57 0.047,-0.48 0.138,-0.86 0.24,-1.19 0.016,-0.01 0.016,-0.01 0.016,-0.023 0.04,-0.145 0.11,-0.275 0.163,-0.386 0.012,-0.046 0.032,-0.09 0.065,-0.118 0.03,-0.09 0.09,-0.17 0.14,-0.227 0.02,-0.04 0.06,-0.06 0.07,-0.09 0.067,-0.094 0.13,-0.16 0.197,-0.226 0.03,-0.012 0.05,-0.03 0.066,-0.045 0.067,-0.06 0.13,-0.105 0.216,-0.13 0.013,-0.028 0.06,-0.047 0.09,-0.047 0.054,-0.033 0.12,-0.045 0.184,-0.064 0.02,0 0.047,-0.015 0.08,-0.015 0.07,-0.006 0.17,-0.025 0.27,-0.006 0.017,0 0.02,0.006 0.05,0.006 h 0.013 c 0.034,0 0.067,0 0.067,0.016 h 0.005 c 0.083,0.02 0.155,0.05 0.234,0.084 h 0.026 l 0.033,0.032 c 0.02,0 0.024,0.004 0.024,0.004 l 0.032,0.03 c 0.01,0 0.035,0 0.035,0.02 0.01,0 0.02,0.007 0.02,0.007 0.028,0.012 0.04,0.033 0.04,0.04 0.007,0 0.02,0.012 0.028,0.02 0.012,0.013 0.03,0.032 0.045,0.032 0.01,0 0.01,0.012 0.03,0.02 0,0.02 0.025,0.02 0.03,0.033 0,0 0.02,0.006 0.02,0.025 0.027,0.026 0.048,0.045 0.067,0.057 0.007,0.008 0.007,0.027 0.033,0.027 0,0 0.006,0.032 0.026,0.04 0,0.012 0.013,0.03 0.027,0.03 0.005,0.005 0.025,0.03 0.03,0.043 0,0.007 0.01,0.007 0.03,0.033 0.012,0.014 0.02,0.027 0.04,0.03 0,0.008 0.005,0.02 0.024,0.035 0,0.034 0.01,0.04 0.034,0.054 0,0.01 0.006,0.02 0.006,0.03 0.013,0.032 0.02,0.04 0.04,0.065 0,0.013 0.006,0.013 0.01,0.025 0.01,0.02 0.02,0.04 0.04,0.06 0,0.01 0.014,0.026 0.014,0.026 0.02,0.033 0.045,0.08 0.057,0.11 h 0.01 c 0,0.034 0.013,0.066 0.032,0.094 0,0 0.01,0.005 0.01,0.016 0.016,0.02 0.02,0.067 0.035,0.073 0,0.03 0,0.03 0.007,0.05 0.014,0.01 0.014,0.04 0.033,0.075 0,0.01 0.007,0.025 0.007,0.03 0.005,0.02 0.005,0.047 0.02,0.067 0.012,0.014 0.012,0.04 0.012,0.04 0.012,0.037 0.024,0.057 0.03,0.096 v 0.032 c 0.013,0.035 0.027,0.06 0.027,0.087 0,0.01 0.01,0.01 0.01,0.04 0.02,0.035 0.028,0.07 0.04,0.13 0.007,0.043 0.007,0.082 0.02,0.12 0,0.01 0.02,0.02 0.02,0.04 0,0.034 0.01,0.066 0.01,0.106 0,0.007 0,0.026 0.01,0.046 0,0.03 0,0.057 0.007,0.076 0,0.02 0,0.052 0.005,0.06 v 0.1 c 0,0.01 0,0.04 0.016,0.05 v 0.45 l 1.2,46.435 2.863,-37.785 c -0.01,-0.266 0.02,-0.5 0.03,-0.74 0.04,-0.68 0.17,-1.2 0.32,-1.644 0.017,-0.075 0.06,-0.153 0.11,-0.22 0,-0.04 0.02,-0.076 0.03,-0.123 0.06,-0.122 0.13,-0.245 0.204,-0.364 0.034,-0.03 0.054,-0.058 0.086,-0.1 0.058,-0.083 0.105,-0.136 0.184,-0.19 0.01,-0.032 0.035,-0.07 0.06,-0.084 0.093,-0.08 0.157,-0.13 0.256,-0.185 0.017,-0.016 0.036,-0.016 0.07,-0.02 0.07,-0.04 0.136,-0.06 0.21,-0.07 0.03,-0.017 0.063,-0.017 0.096,-0.017 0.076,-0.013 0.174,-0.013 0.26,0 0.032,0 0.052,0.013 0.065,0.013 l 0.01,0.01 c 0.02,0 0.02,0.01 0.056,0.01 h 0.01 c 0.01,0.014 0.04,0.014 0.05,0.04 0.074,0.01 0.126,0.046 0.178,0.06 0,0.026 0.014,0.026 0.027,0.026 0.01,0.026 0.01,0.026 0.04,0.03 0.01,0.01 0.03,0.01 0.03,0.01 0.007,0.015 0.03,0.03 0.03,0.03 0.02,0.024 0.02,0.024 0.035,0.03 0.014,0.02 0.033,0.033 0.033,0.04 0.013,0 0.027,0.006 0.04,0.006 0.006,0.033 0.02,0.04 0.02,0.06 0.012,0.01 0.025,0.01 0.052,0.036 0.02,0 0.02,0.01 0.03,0.04 0.02,0.007 0.03,0.027 0.03,0.04 0.03,0 0.03,0.033 0.04,0.04 0,0.015 0.02,0.035 0.04,0.035 0.013,0.01 0.02,0.026 0.02,0.04 0.005,0.026 0.013,0.04 0.026,0.044 0.015,0.015 0.015,0.015 0.028,0.04 0.014,0.02 0.026,0.027 0.026,0.06 0.013,0.013 0.032,0.013 0.04,0.027 0,0.03 0.013,0.05 0.044,0.08 v 0.015 c 0.027,0.03 0.04,0.07 0.052,0.094 0,0 0,0.01 0.012,0.023 0.01,0.033 0.03,0.06 0.03,0.086 0,0.014 0.01,0.027 0.02,0.04 0.02,0.026 0.03,0.05 0.03,0.07 0.02,0.01 0.02,0.02 0.02,0.047 0.01,0.02 0.01,0.046 0.03,0.066 0,0.012 0,0.025 0.006,0.045 0.007,0.023 0.03,0.07 0.04,0.09 v 0.03 c 0.03,0.08 0.06,0.178 0.083,0.26 0,0.015 0.02,0.03 0.02,0.03 0,0.03 0.007,0.077 0.007,0.11 0.01,0.013 0.01,0.025 0.01,0.06 0.012,0.017 0.032,0.05 0.04,0.083 v 0.058 c 0.01,0.02 0.017,0.07 0.017,0.1 0.01,0.007 0.01,0.034 0.01,0.045 0,0.044 0.008,0.085 0.008,0.124 0,0.012 0,0.02 0.018,0.043 0,0.04 0.008,0.107 0.015,0.15 v 0.16 c 0.01,0.026 0.01,0.04 0.01,0.058 0,0.04 0,0.073 0.014,0.11 v 0.62 l 1.32,48.403 2.345,-72.155 c 4.92,0.18 9.95,0.25 15.097,0.25 4.852,0 9.62,-0.07 14.32,-0.226 l 2.304,73.444 1.98,-38.44 c 0,-0.26 0.005,-0.49 0.03,-0.705 0.04,-0.622 0.17,-1.12 0.31,-1.54 0.02,-0.006 0.02,-0.046 0.026,-0.085 0.026,-0.067 0.065,-0.127 0.093,-0.205 0.05,-0.117 0.12,-0.227 0.16,-0.313 0.04,-0.08 0.08,-0.137 0.12,-0.18 0.07,-0.1 0.142,-0.18 0.214,-0.237 0.04,-0.028 0.068,-0.08 0.106,-0.106 0.11,-0.09 0.21,-0.144 0.333,-0.177 0.035,-0.032 0.087,-0.032 0.12,-0.032 0.07,-0.02 0.15,-0.023 0.25,-0.02 0.026,0 0.072,0.016 0.11,0.02 0.085,0.008 0.164,0.04 0.248,0.074 0.05,0.02 0.08,0.03 0.11,0.056 0.11,0.08 0.23,0.166 0.32,0.27 l 0.02,0.027 c 0.01,0.014 0.01,0.027 0.028,0.046 0,0.013 0.02,0.013 0.028,0.013 0.03,0.026 0.03,0.033 0.04,0.067 0.016,0.005 0.016,0.005 0.016,0.016 0.014,0.025 0.034,0.04 0.04,0.06 0.014,0 0.014,0.01 0.026,0.02 0,0.003 0.035,0.03 0.04,0.05 0.01,0.02 0.02,0.03 0.02,0.06 0.02,0.023 0.04,0.043 0.047,0.055 0.007,0.02 0.028,0.05 0.028,0.06 0,0.02 0.014,0.027 0.014,0.047 0.02,0.005 0.033,0.03 0.033,0.046 0,0.02 0.01,0.045 0.02,0.06 0.01,0.014 0.03,0.033 0.035,0.06 0,0.02 0.016,0.03 0.016,0.05 0.015,0.014 0.026,0.03 0.04,0.054 0,0.02 0.006,0.04 0.006,0.047 0.01,0.026 0.028,0.065 0.04,0.09 0,0.008 0,0.02 0.008,0.033 0.02,0.04 0.02,0.07 0.03,0.115 0.014,0 0.014,0.026 0.014,0.026 0,0.028 0.007,0.07 0.028,0.106 0,0.012 0.02,0.02 0.02,0.046 v 0.07 c 0.025,0.03 0.025,0.045 0.025,0.05 0.008,0.03 0.028,0.072 0.028,0.1 0,0.026 0,0.032 0.01,0.063 v 0.125 c 0.013,0.044 0.013,0.09 0.046,0.135 v 0.02 c 0.007,0.04 0.02,0.108 0.02,0.15 0.007,0.01 0.007,0.02 0.007,0.05 0,0.032 0,0.077 0.016,0.11 v 0.06 c 0,0.03 0,0.077 0.016,0.102 v 0.07 c 0,0.036 0.02,0.06 0.02,0.1 v 0.41 l 1.972,53.911 2.034,-46.56 c 0.007,-0.224 0.026,-0.433 0.046,-0.63 0.074,-0.52 0.186,-0.96 0.33,-1.32 0.06,-0.153 0.124,-0.28 0.182,-0.41 0.03,-0.04 0.067,-0.075 0.08,-0.114 0.054,-0.097 0.106,-0.17 0.164,-0.254 0.033,-0.028 0.078,-0.067 0.098,-0.094 0.08,-0.09 0.158,-0.17 0.243,-0.235 0.014,-0.013 0.026,-0.02 0.034,-0.025 0.084,-0.07 0.196,-0.11 0.28,-0.16 0.027,-0.013 0.07,-0.025 0.087,-0.04 0.1,-0.026 0.164,-0.043 0.22,-0.05 0.04,0 0.07,-0.013 0.1,-0.013 0.11,0 0.195,0 0.32,0.014 0.007,0.01 0.04,0.01 0.067,0.02 h 0.02 c 0.01,0 0.026,0.01 0.04,0.01 0,0 0,0.015 0.02,0.015 0.103,0.04 0.22,0.09 0.344,0.16 v 0.016 l 0.06,0.04 c 0,0 0.01,0.006 0.02,0.006 0.03,0.006 0.04,0.034 0.046,0.034 0.013,0.018 0.013,0.026 0.026,0.026 0.02,0.01 0.03,0.024 0.035,0.03 0.01,0.013 0.01,0.033 0.044,0.033 0,0.022 0.02,0.022 0.04,0.034 0.007,0 0.007,0.012 0.02,0.02 0.045,0.044 0.09,0.1 0.144,0.155 0.013,0.005 0.02,0.03 0.02,0.04 0.026,0.012 0.032,0.025 0.045,0.044 0,0.004 0.01,0.02 0.02,0.023 0.01,0.027 0.03,0.04 0.03,0.053 0.013,0.027 0.03,0.027 0.04,0.05 0.02,0.007 0.03,0.04 0.03,0.048 0.002,0.01 0.02,0.04 0.02,0.05 0.016,0.02 0.016,0.025 0.05,0.04 0.01,0.025 0.01,0.03 0.023,0.044 0.01,0.026 0.01,0.037 0.014,0.05 0.005,0.034 0.02,0.06 0.032,0.073 0.01,0.014 0.01,0.025 0.01,0.045 0.032,0.04 0.046,0.068 0.06,0.107 0,0.008 0.006,0.027 0.024,0.033 0,0.04 0.013,0.066 0.027,0.086 0.015,0.014 0.015,0.035 0.02,0.066 0.02,0.015 0.02,0.035 0.028,0.05 0.013,0.025 0.013,0.053 0.02,0.064 0,0.026 0.01,0.046 0.038,0.065 v 0.068 c 0.02,0.027 0.02,0.06 0.03,0.08 0.014,0.015 0.014,0.034 0.014,0.06 0,0.027 0.02,0.05 0.032,0.085 v 0.05 c 0.02,0.035 0.02,0.08 0.035,0.107 v 0.026 c 0.017,0.05 0.03,0.11 0.037,0.16 0.02,0.025 0.02,0.03 0.02,0.044 v 0.1 c 0,0.026 0.008,0.044 0.008,0.08 0.02,0.012 0.02,0.05 0.032,0.082 v 0.063 c 0.006,0.032 0.006,0.07 0.02,0.1 v 0.18 c 0.006,0.013 0.006,0.045 0.006,0.064 0,0.04 0.017,0.08 0.017,0.11 v 0.246 l 1.666,61.72 2.44,-103.63 0.02,-1.187 v -0.074 c 31.325,-2.587 55.718,-8.582 63.95,-15.63 0.188,-0.15 0.36,-0.32 0.528,-0.482 0.076,-0.082 0.175,-0.15 0.25,-0.226 0.148,-0.17 0.296,-0.31 0.44,-0.47 0.066,-0.09 0.15,-0.17 0.217,-0.265 0.13,-0.155 0.25,-0.3 0.375,-0.44 0.12,-0.194 0.253,-0.376 0.363,-0.58 0.08,-0.14 0.15,-0.28 0.236,-0.415 0.07,-0.144 0.143,-0.293 0.21,-0.457 0.057,-0.1 0.08,-0.2 0.117,-0.3 0.06,-0.173 0.11,-0.35 0.136,-0.504 0.04,-0.086 0.055,-0.184 0.07,-0.267 0.053,-0.253 0.073,-0.51 0.073,-0.763 -0.467,-10.06 -30.797,-17.83 -66.505,-16.15 z"
       id="path136"
       inkscape:connector-curvature="0"
       style="fill:#ce1141" />
  </g>
</svg>
