<?xml version="1.0" encoding="UTF-8" standalone="no"?>
<svg
   xmlns:dc="http://purl.org/dc/elements/1.1/"
   xmlns:cc="http://creativecommons.org/ns#"
   xmlns:rdf="http://www.w3.org/1999/02/22-rdf-syntax-ns#"
   xmlns:svg="http://www.w3.org/2000/svg"
   xmlns="http://www.w3.org/2000/svg"
   xmlns:sodipodi="http://sodipodi.sourceforge.net/DTD/sodipodi-0.dtd"
   xmlns:inkscape="http://www.inkscape.org/namespaces/inkscape"
   width="512"
   height="512"
   viewBox="0 0 512 512"
   version="1.1"
   id="svg26"
   sodipodi:docname="boston-bruins.svg"
   inkscape:version="0.92.5 (2060ec1f9f, 2020-04-08)">
  <metadata
     id="metadata32">
    <rdf:RDF>
      <cc:Work
         rdf:about="">
        <dc:format>image/svg+xml</dc:format>
        <dc:type
           rdf:resource="http://purl.org/dc/dcmitype/StillImage" />
      </cc:Work>
    </rdf:RDF>
  </metadata>
  <defs
     id="defs30" />
  <sodipodi:namedview
     pagecolor="#ffffff"
     bordercolor="#666666"
     borderopacity="1"
     objecttolerance="10"
     gridtolerance="10"
     guidetolerance="10"
     inkscape:pageopacity="0"
     inkscape:pageshadow="2"
     inkscape:window-width="640"
     inkscape:window-height="480"
     id="namedview28"
     showgrid="false"
     inkscape:zoom="0.4609375"
     inkscape:cx="256"
     inkscape:cy="256"
     inkscape:window-x="0"
     inkscape:window-y="0"
     inkscape:window-maximized="0"
     inkscape:current-layer="svg26" />
  <g
     id="g24"
     transform="translate(-16,4)"
     style="fill:none;fill-rule:evenodd">
    <path
       d="m 257.483,113.15 c 79.71,0 144.333,64.62 144.333,144.333 0,79.708 -64.624,144.332 -144.333,144.332 -79.713,0 -144.332,-64.626 -144.332,-144.332 0,-79.713 64.62,-144.332 144.334,-144.332 z m 0,-32.15 c -23.81,0 -46.926,4.67 -68.704,13.882 -21.02,8.89 -39.893,21.61 -56.09,37.808 -16.198,16.198 -28.92,35.07 -37.81,56.09 C 85.67,210.556 81,233.67 81,257.482 c 0,23.81 4.67,46.927 13.882,68.703 8.89,21.02 21.61,39.89 37.808,56.086 16.198,16.2 35.07,28.92 56.087,37.81 21.78,9.213 44.895,13.885 68.706,13.885 23.81,0 46.927,-4.672 68.704,-13.884 21.02,-8.89 39.89,-21.61 56.087,-37.807 16.2,-16.198 28.92,-35.068 37.808,-56.087 9.212,-21.777 13.884,-44.894 13.884,-68.704 0,-23.81 -4.672,-46.927 -13.884,-68.706 -8.89,-21.02 -21.61,-39.89 -37.808,-56.087 -16.198,-16.198 -35.068,-28.92 -56.087,-37.81 C 304.412,85.67 281.293,81 257.483,81 Z"
       id="path2"
       inkscape:connector-curvature="0"
       style="fill:#ffb81c" />
    <path
       d="m 270.94,194.863 -26.974,-0.01 v -95.99 h 26.974 z"
       id="path4"
       inkscape:connector-curvature="0"
       style="fill:#ffb81c" />
    <path
       d="m 274.96,94.845 v 104.038 l -35.014,-0.01 V 94.843 h 35.013 z m -8.038,8.038 h -18.937 v 87.954 l 18.937,0.007 v -87.96 z"
       id="path6"
       inkscape:connector-curvature="0"
       style="fill:#010101" />
    <path
       d="M 270.94,416.355 H 243.965 V 320.583 H 270.94 Z"
       id="path8"
       inkscape:connector-curvature="0"
       style="fill:#ffb81c" />
    <path
       d="m 274.96,316.563 v 103.81 h -35.014 v -103.81 h 35.013 z m -8.038,8.038 h -18.937 v 87.736 h 18.937 V 324.6 Z"
       id="path10"
       inkscape:connector-curvature="0"
       style="fill:#010101" />
    <path
       d="m 360.165,379.397 -66.04,-66.04 5.44,-5.44 1.18,-1.18 -0.002,-1.666 -0.023,-23.266 78.52,78.518 -19.075,19.077 z m -205.425,0 -19.075,-19.076 82.366,-82.362 5.75,-5.748 v 38.144 l -69.04,69.043 z m 261.456,-108.3 h -124.25 l -3.867,-3.865 -1.18,-1.178 h -1.662 l -57.44,-0.017 h -4.018 v 5.06 H 98.708 V 244.12 h 125.148 v 5.275 h 63.12 l 1.178,-1.177 4.098,-4.098 H 416.2 v 26.977 z m -192.34,-28.01 -5.827,-5.826 -82.366,-82.362 19.075,-19.075 69.115,69.117 v 38.146 z m 76.963,-9.77 -0.026,-22.97 -0.002,-1.662 -1.177,-1.176 -5.57,-5.57 66.12,-66.12 19.075,19.076 -78.42,78.42 z"
       id="path12"
       inkscape:connector-curvature="0"
       style="fill:#ffb81c" />
    <path
       d="m 360.165,130.14 24.76,24.757 -85.208,85.205 h 120.5 v 35.012 h -120.5 l 85.207,85.207 -24.76,24.76 -71.72,-71.723 8.283,-8.282 L 296.7,281.54 285.236,270.074 227.8,270.057 v 41.962 l -73.06,73.06 -24.76,-24.758 85.208,-85.206 H 94.688 V 240.103 H 215.19 l -85.21,-85.203 24.76,-24.76 73.134,73.134 v 42.105 h 57.437 l 11.49,-11.49 -0.023,-23.537 -8.413,-8.41 71.802,-71.803 z m 0,11.365 -60.433,60.434 2.728,2.726 2.35,2.35 0.004,3.326 0.014,13.283 68.727,-68.73 -13.39,-13.39 z m -205.425,0 -13.39,13.392 78.486,78.487 v -26.78 L 154.74,141.506 Z M 412.178,248.14 H 293.915 l -2.92,2.92 -2.353,2.355 h -68.806 v -5.275 h -117.11 v 18.938 h 117.037 v -5.064 l 8.04,0.003 57.436,0.02 h 3.326 l 2.354,2.353 2.69,2.69 h 118.57 v -18.94 h -0.002 z m -192.416,33.768 -78.412,78.412 13.39,13.392 65.022,-65.022 z m 84.987,9.606 0.012,13.552 0.005,3.336 -2.358,2.36 -2.6,2.596 60.354,60.357 13.39,-13.39 -68.806,-68.81 z"
       id="path14"
       inkscape:connector-curvature="0"
       style="fill:#010101" />
    <path
       d="m 299.054,173.598 25.863,25.27 V 242.5 l -15.806,15.19 15.808,15.233 v 43.64 l -25.863,25.253 H 190.007 V 324.018 L 202.639,311.98 V 203.46 l -12.634,-12.052 v -17.81 h 109.047 z m -71.18,71.78 h 57.437 l 11.49,-11.49 -0.023,-23.536 -11.465,-11.464 -57.436,-0.02 v 46.51 z m -0.074,71.185 h 57.436 l 11.49,-11.49 -0.026,-23.536 -11.464,-11.466 -57.436,-0.015 v 46.51 z M 304.67,159.82 H 176.23 v 37.485 l 4.265,4.07 8.364,7.983 v 96.72 l -8.36,7.967 -4.27,4.07 v 37.482 h 128.436 l 4.013,-3.92 25.863,-25.254 4.152,-4.054 v -55.304 l -4.217,-4.063 -5.495,-5.295 5.48,-5.27 4.23,-4.065 v -55.305 l -4.148,-4.055 -25.864,-25.27 -4.012,-3.923 z m -63.016,71.78 v -18.95 l 37.948,0.01 3.4,3.402 0.014,12.12 -3.41,3.413 h -37.952 v 0.002 z m -0.075,71.184 v -18.946 l 37.945,0.01 3.4,3.404 0.015,12.12 -3.41,3.41 h -37.95 z"
       id="path16"
       inkscape:connector-curvature="0"
       style="fill:#010101" />
    <path
       d="M 300.34,344.974 H 186.848 V 322.67 l 0.977,-0.933 11.652,-11.108 V 204.812 l -11.655,-11.12 -0.976,-0.934 v -22.32 H 300.34 l 0.923,0.897 25.862,25.272 0.952,0.927 v 46.31 l -0.972,0.93 -13.438,12.917 13.442,12.953 0.966,0.93 v 46.317 l -0.954,0.928 -25.862,25.253 -0.92,0.9 z m -69.382,-31.566 h 52.973 l 9.64,-9.637 -0.026,-20.923 -9.613,-9.615 -52.972,-0.016 v 40.194 z m 0.075,-71.19 h 52.97 l 9.638,-9.636 -0.02,-20.922 -9.618,-9.617 -52.967,-0.015 v 40.19 z"
       id="path18"
       inkscape:connector-curvature="0"
       style="fill:#010101" />
    <path
       d="m 299.054,173.598 25.863,25.27 V 242.5 l -15.806,15.19 15.808,15.233 v 43.64 l -25.863,25.253 H 190.007 V 324.018 L 202.639,311.98 V 203.46 l -12.634,-12.052 v -17.81 h 109.047 z m -71.18,71.78 h 57.437 l 11.49,-11.49 -0.023,-23.536 -11.465,-11.464 -57.436,-0.02 v 46.51 z m -0.074,71.185 h 57.436 l 11.49,-11.49 -0.026,-23.536 -11.464,-11.466 -57.436,-0.015 v 46.51 z m 73.828,-149.28 H 183.692 v 26.828 l 1.955,1.868 10.675,10.187 v 103.112 l -10.672,10.172 -1.958,1.865 v 26.817 h 117.935 l 1.84,-1.796 25.863,-25.252 1.905,-1.86 V 270.24 l -1.934,-1.862 -11.075,-10.675 11.07,-10.644 1.94,-1.864 V 196.21 l -1.902,-1.858 -25.863,-25.27 -1.842,-1.8 z m -67.437,71.78 v -33.877 l 48.506,0.016 7.768,7.77 0.02,18.303 -7.788,7.788 H 234.19 Z m -0.074,71.186 v -33.877 l 48.504,0.015 7.768,7.768 0.02,18.305 -7.79,7.79 h -48.503 z"
       id="path20"
       inkscape:connector-curvature="0"
       style="fill:#ffb81c" />
    <path
       d="m 257.483,113.15 c 79.71,0 144.333,64.62 144.333,144.333 0,79.708 -64.624,144.332 -144.333,144.332 -79.713,0 -144.332,-64.626 -144.332,-144.332 0,-79.713 64.62,-144.332 144.334,-144.332 z m 0,-25.26 c -22.883,0 -45.097,4.487 -66.022,13.338 -20.197,8.544 -38.33,20.768 -53.9,36.336 -15.566,15.566 -27.79,33.7 -36.334,53.9 -8.848,20.922 -13.336,43.135 -13.336,66.02 0,22.882 4.487,45.094 13.337,66.02 8.543,20.195 20.768,38.33 36.335,53.896 15.567,15.57 33.702,27.794 53.9,36.337 20.926,8.852 43.138,13.338 66.02,13.338 22.885,0 45.098,-4.486 66.023,-13.338 20.195,-8.543 38.33,-20.767 53.898,-36.335 15.568,-15.568 27.794,-33.703 36.336,-53.9 8.85,-20.924 13.336,-43.136 13.336,-66.02 0,-22.883 -4.487,-45.096 -13.338,-66.02 -8.543,-20.198 -20.77,-38.333 -36.337,-53.9 -15.566,-15.567 -33.702,-27.792 -53.9,-36.335 -20.922,-8.85 -43.133,-13.337 -66.02,-13.337 z"
       id="path22"
       inkscape:connector-curvature="0"
       style="fill:#010101" />
  </g>
</svg>
