<?xml version="1.0" encoding="UTF-8" standalone="no"?>
<svg
   xmlns:dc="http://purl.org/dc/elements/1.1/"
   xmlns:cc="http://creativecommons.org/ns#"
   xmlns:rdf="http://www.w3.org/1999/02/22-rdf-syntax-ns#"
   xmlns:svg="http://www.w3.org/2000/svg"
   xmlns="http://www.w3.org/2000/svg"
   xmlns:sodipodi="http://sodipodi.sourceforge.net/DTD/sodipodi-0.dtd"
   xmlns:inkscape="http://www.inkscape.org/namespaces/inkscape"
   inkscape:version="1.0 (4035a4fb49, 2020-05-01)"
   sodipodi:docname="carolina-hurricanes.svg"
   id="svg18"
   version="1.1"
   viewBox="0 0 512 512"
   height="512"
   width="512">
  <metadata
     id="metadata24">
    <rdf:RDF>
      <cc:Work
         rdf:about="">
        <dc:format>image/svg+xml</dc:format>
        <dc:type
           rdf:resource="http://purl.org/dc/dcmitype/StillImage" />
      </cc:Work>
    </rdf:RDF>
  </metadata>
  <defs
     id="defs22" />
  <sodipodi:namedview
     inkscape:document-rotation="0"
     inkscape:current-layer="svg18"
     inkscape:window-maximized="0"
     inkscape:window-y="0"
     inkscape:window-x="0"
     inkscape:cy="256"
     inkscape:cx="256"
     inkscape:zoom="0.4609375"
     showgrid="false"
     id="namedview20"
     inkscape:window-height="480"
     inkscape:window-width="705"
     inkscape:pageshadow="2"
     inkscape:pageopacity="0"
     guidetolerance="10"
     gridtolerance="10"
     objecttolerance="10"
     borderopacity="1"
     bordercolor="#666666"
     pagecolor="#ffffff" />
  <g
     style="fill:none;fill-rule:evenodd"
     transform="translate(0,52)"
     id="g16">
    <path
       style="fill:#ffffff"
       inkscape:connector-curvature="0"
       id="path2"
       d="m 165.325,369.887 c -16.56,0 -31.33,-1.147 -43.898,-3.417 l -6.12,-1.102 5.21,-3.394 11.58,-7.548 c -6.745,-0.775 -17.185,-2.68 -27.725,-7.35 -16.28,-7.216 -35.685,-22.598 -35.685,-54.9 0,-23.154 9.76,-44.94 29.02,-64.753 16.983,-17.475 40.96,-33.083 71.267,-46.396 52.945,-23.255 122.543,-37.7 181.627,-37.7 17.16,0 32.486,1.24 45.555,3.69 l 6.09,1.143 -5.203,3.36 -11.55,7.455 c 6.668,0.88 17.035,2.95 27.502,7.777 16.09,7.42 35.27,22.97 35.27,54.884 -0.075,23.332 -9.993,45.202 -29.48,65.01 -17.144,17.418 -41.327,32.95 -71.88,46.146 -52.964,22.882 -122.542,37.095 -181.577,37.095 z" />
    <path
       style="fill:#a2aaad"
       inkscape:connector-curvature="0"
       id="path4"
       d="m 350.6,145.796 c 16.752,0 32.076,1.208 45.1,3.65 l -17.578,11.345 c 0,0 67.672,1.59 67.672,60.843 -0.308,95.995 -172.527,145.787 -280.47,145.787 -16.2,0 -30.954,-1.124 -43.46,-3.378 l 17.727,-11.55 c 0,0 -68.434,-0.35 -68.434,-60.313 -0.002,-95.198 170.352,-146.385 279.446,-146.385 z m 0,-4.937 c -59.407,0 -129.38,14.523 -182.62,37.907 -30.598,13.44 -54.837,29.234 -72.045,46.936 -19.722,20.29 -29.72,42.653 -29.72,66.473 0,26.616 12.847,46.382 37.156,57.155 7.82,3.468 15.593,5.45 21.92,6.584 l -6.122,3.99 -10.418,6.79 12.237,2.208 c 12.715,2.294 27.632,3.453 44.336,3.453 59.353,0 129.303,-14.293 182.558,-37.3 30.848,-13.326 55.294,-29.03 72.66,-46.682 19.958,-20.28 30.116,-42.732 30.193,-66.724 0,-26.313 -12.694,-46.067 -36.707,-57.143 -7.79,-3.594 -15.536,-5.698 -21.823,-6.93 l 6.177,-3.982 10.41,-6.72 -12.182,-2.28 c -13.217,-2.483 -28.696,-3.737 -46.007,-3.737 z" />
    <path
       style="fill:#010101"
       inkscape:connector-curvature="0"
       id="path6"
       d="m 371.004,154.62 c 0,0 -8.7,-1.412 -25.397,-1.412 -88.34,0 -264.93,46.06 -264.93,137.207 0,49.73 49.036,55.726 75.848,55.726 46.33,0 101.597,-17.455 123.82,-29.977 0,0 -82.9,32.918 -152.984,9.168 13.774,2.21 45.39,-2.116 57.87,-7.405 0,0 -34.88,-5.76 -34.88,-41.62 0,-89.51 198.438,-121.684 220.655,-121.684 z" />
    <path
       style="fill:#010101"
       inkscape:connector-curvature="0"
       id="path8"
       d="m 175.75,279.302 c 9.23,-16.753 9.465,-27.334 20.05,-39.797 18.363,-20.86 76.43,-36.653 108.004,-36.653 31.87,0 43.04,20.57 43.215,33.537 0,36.797 -76.75,66.776 -76.613,66.776 74.023,-49.79 71.438,-78.27 28.767,-78.27 -35.278,0 -100.673,23.19 -123.426,54.405 z" />
    <path
       style="fill:#c8102e"
       inkscape:connector-curvature="0"
       id="path10"
       d="m 146.057,358.84 c 0,0 8.702,1.412 25.4,1.412 88.34,0 264.93,-46.063 264.93,-137.205 0,-49.733 -49.035,-55.728 -75.848,-55.728 -46.33,0 -101.598,17.46 -123.823,29.977 0,0 82.902,-32.92 152.984,-9.17 -13.772,-2.205 -45.39,2.116 -57.867,7.408 0,0 34.88,5.76 34.88,41.62 0,89.508 -198.437,121.683 -220.657,121.683 z" />
    <path
       style="fill:#c8102e"
       inkscape:connector-curvature="0"
       id="path12"
       d="m 329.792,237.92 c -5.288,-14.713 -46.483,-12.853 -84.988,0.468 -41.383,14.87 -70.666,38.472 -65.377,53.182 5.288,14.714 46.476,13.542 84.503,-0.283 41.38,-14.868 71.147,-38.657 65.862,-53.368 z" />
    <path
       style="fill:#010101"
       inkscape:connector-curvature="0"
       id="path14"
       d="m 255.898,275.453 c 17.158,-5.8 29.537,-15.15 27.65,-20.884 -1.886,-5.736 -17.324,-5.68 -34.482,0.12 -17.157,5.8 -29.537,15.15 -27.65,20.884 1.887,5.734 17.325,5.68 34.482,-0.122 z" />
  </g>
</svg>
