<?xml version="1.0" encoding="UTF-8" standalone="no"?>
<svg
   xmlns:dc="http://purl.org/dc/elements/1.1/"
   xmlns:cc="http://creativecommons.org/ns#"
   xmlns:rdf="http://www.w3.org/1999/02/22-rdf-syntax-ns#"
   xmlns:svg="http://www.w3.org/2000/svg"
   xmlns="http://www.w3.org/2000/svg"
   xmlns:sodipodi="http://sodipodi.sourceforge.net/DTD/sodipodi-0.dtd"
   xmlns:inkscape="http://www.inkscape.org/namespaces/inkscape"
   width="512"
   height="512"
   viewBox="0 0 512 512"
   version="1.1"
   id="svg56"
   sodipodi:docname="chicago-blackhawks.svg"
   inkscape:version="0.92.5 (2060ec1f9f, 2020-04-08)">
  <metadata
     id="metadata62">
    <rdf:RDF>
      <cc:Work
         rdf:about="">
        <dc:format>image/svg+xml</dc:format>
        <dc:type
           rdf:resource="http://purl.org/dc/dcmitype/StillImage" />
      </cc:Work>
    </rdf:RDF>
  </metadata>
  <defs
     id="defs60" />
  <sodipodi:namedview
     pagecolor="#ffffff"
     bordercolor="#666666"
     borderopacity="1"
     objecttolerance="10"
     gridtolerance="10"
     guidetolerance="10"
     inkscape:pageopacity="0"
     inkscape:pageshadow="2"
     inkscape:window-width="640"
     inkscape:window-height="480"
     id="namedview58"
     showgrid="false"
     inkscape:zoom="0.4609375"
     inkscape:cx="256"
     inkscape:cy="256"
     inkscape:window-x="0"
     inkscape:window-y="0"
     inkscape:window-maximized="0"
     inkscape:current-layer="svg56" />
  <g
     id="g54"
     transform="translate(0,24)"
     style="fill:none;fill-rule:evenodd">
    <g
       id="g10"
       style="fill:#ffd100">
      <path
         d="m 356.374,312.848 c -1.407,-3.193 -3.237,-11.772 -5.293,-23.35 l -7.92,10.127 c 2.36,7.574 5.193,14.894 8.62,21.753 l 4.595,-8.53 z m -7.178,-48.95 c 1.272,8.092 2.52,15.773 3.697,22.556 l 15.88,8.87 c -0.215,-6.204 -0.866,-13.187 -2.113,-21.037 L 349.196,263.9 Z m -15.278,-13.43 a 288.13,288.13 0 0 0 2.656,20.88 l 9.856,-10.16 c -1,-6.413 -2.02,-13.082 -3.04,-19.813 l -9.472,9.092 z m 6.53,-75.858 a 12.24,12.24 0 0 1 -3.5,1.42 620.034,620.034 0 0 1 10.888,25.645 635.197,635.197 0 0 1 -7.388,-27.065 m -2.122,18.498 c 1.77,10.955 3.753,24.08 5.795,37.606 0.408,2.698 0.82,5.425 1.237,8.16 l 15.58,8.996 c -4.283,-15.93 -10.606,-34.475 -19.706,-56.1 -1.214,-2.918 -3.512,-1.578 -2.903,1.338 m 7.482,48.76 c 0.966,6.386 1.945,12.787 2.912,18.995 l 17.437,10.367 c -1.073,-6.178 -2.51,-12.876 -4.378,-20.136 l -15.972,-9.225 z m -2.85,-3.338 -1.124,-7.45 c -2.042,-13.53 -4.024,-26.647 -5.792,-37.578 -0.403,-2.5 -2.978,-2.655 -3.18,0.89 -0.596,14.196 -0.853,33.023 0.797,53.063 l 9.3,-8.925 z m 7.575,47.866 c -1.164,-6.704 -2.39,-14.27 -3.65,-22.305 l -9.815,10.126 c 1.36,7.658 3.08,15.278 5.256,22.677 l 8.208,-10.496 z"
         id="path2"
         inkscape:connector-curvature="0" />
      <path
         d="m 378.66,281.77 c -4.353,-6.668 -9.48,-16.683 -13.114,-25.234 11.516,49.2 2.535,71.29 -1.678,81.646 l -0.87,2.166 -0.75,1.867 -1.223,-1.562 c -36.79,-46.877 -31.374,-133.97 -29.595,-162.588 0.042,-0.698 0.085,-1.355 0.12,-1.992 a 11.09,11.09 0 0 1 -0.833,-0.218 l -2.332,0.695 c -1.157,5.96 -1.157,65.182 0.383,83.068 1.543,17.886 5.787,40.938 6.17,50.474 0.773,1.99 10.3,17.676 13.877,24.645 3.47,6.754 8.482,15.1 9.64,23.052 20.065,-19.088 23.765,-49.88 20.206,-76.02"
         id="path4"
         inkscape:connector-curvature="0" />
      <path
         d="m 368.84,298.072 -15.42,-8.612 c 2.075,11.682 3.894,20.195 5.19,22.672 l 8.483,7.692 c 1.12,-5.826 1.873,-12.972 1.746,-21.752 m -7.106,39.184 c 1.39,-3.416 3.305,-8.146 4.8,-14.763 l -8.54,-7.745 -4.937,9.164 c 2.55,4.808 5.386,9.376 8.567,13.618 z m -38.134,0.433 c -4.928,-2.36 -10.156,-5.715 -13.425,-9.096 -0.65,-6.562 -0.936,-16.737 -0.848,-28.724 4.193,3.865 12.16,8.92 14.993,10.674 0.502,10.228 0.138,19.258 -0.72,27.145 m -2.506,15.26 c -2.794,2.984 -8.513,-3.6 -10.828,-8.03 l -0.77,2.383 c -3.556,7.33 -6.2,6.297 -8.11,3.986 a 189.16,189.16 0 0 1 -2.74,-14.35 c 2.34,-1.307 7.83,-4.447 10.252,-6.407 3.108,3.408 12.162,8.562 14.396,9.807 a 135.043,135.043 0 0 1 -2.2,12.61 m -24.82,-47.4 10.298,-7.264 c -0.048,11.92 0.338,22.302 1.164,29.59 -2.546,2.472 -7.3,5.208 -9.48,6.4 -1.275,-9.23 -1.93,-18.81 -1.983,-28.727 m 1.825,-32.067 c 1.996,-1.413 7.255,-5.233 9.508,-7.85 -0.583,10.257 -0.925,20.372 -1.015,29.658 -2.344,2.15 -7.56,5.885 -10.336,7.836 0.045,-9.57 0.67,-19.464 1.845,-29.643 m 1.552,-11.743 c 2.198,-14.276 5.05,-26.464 8.938,-39.215 0.81,-3.335 3.488,-3.74 3.082,-0.198 -1.706,12.246 -2.992,26.003 -3.846,39.662 -1.382,2.155 -7.138,6.72 -9.388,8.46 0.36,-2.88 0.764,-5.78 1.215,-8.71 m 17.945,-38.33 c 0.662,16.595 1.883,35.493 2.975,49.102 -2.716,-1.66 -7.205,-4.995 -10.138,-7.87 0.795,-14.79 2.01,-29.733 3.65,-42.525 0.806,-4.17 3.11,-2.88 3.513,1.29 m 4.633,66.2 c 0.95,6.402 1.56,12.426 1.92,18.124 -3.92,-2.31 -11.002,-7.32 -14.79,-11.273 0.11,-8.975 0.418,-18.805 0.917,-28.786 3.082,2.9 7.834,6.334 10.56,8.05 0.548,6.534 1.044,11.52 1.394,13.887 m -2.297,-106.39 c -10.265,26.244 -18.587,52.3 -22.566,78.148 -6.996,45.46 -3.293,85.47 10.99,118.947 0.034,0.66 1.17,1.75 2.298,2.12 1.348,0.436 1.605,-0.794 2.487,-2.1 2.092,-3.078 20.165,-31.782 11.378,-91.088 -1.74,-11.708 -6.884,-95.76 -4.588,-106.027"
         id="path6"
         inkscape:connector-curvature="0" />
      <path
         d="m 259.02,340.2 c -0.093,-2.275 0.423,-3.124 0.63,-3.374 2.542,-0.852 4.482,2.305 5.937,6.724 0.505,3.15 0.674,5.928 0.62,8.38 -3.578,-2.992 -6.998,-7.036 -7.187,-11.73 m 37.897,-168.606 v 0.367 c 1.274,-0.05 2.27,-1.16 2.222,-2.472 -0.053,-1.317 -1.127,-2.344 -2.4,-2.294 -22.3,-0.588 -55.86,2.52 -75.776,6.94 -0.99,-10.048 -4.072,-16.12 -7.578,-23 -2.086,-4.09 -4.244,-8.324 -6.187,-13.938 -2.39,-6.893 -2.335,-11.847 0.15,-13.95 3.064,-2.587 9.824,-1.418 14.214,1.298 0.762,0.47 1.613,1.03 2.516,1.622 8.362,5.49 22.357,14.676 37.486,2.587 4.25,-3.395 7.7,-4.698 10.25,-3.872 4.704,1.515 7.33,10.144 9.873,18.483 l 0.156,0.517 c 1.644,5.4 4.698,9.28 9.066,11.52 5.877,3.016 13.936,1.082 17.805,-1.183 1.11,-0.65 1.498,-1.74 0.87,-2.884 -0.633,-1.145 -2.046,-1.546 -3.157,-0.895 -2.475,1.454 -8.563,3.57 -13.455,1.058 -3.204,-1.64 -5.46,-4.93 -6.715,-9.047 l -0.155,-0.514 c -2.9,-9.513 -5.896,-18.98 -12.904,-21.244 -4.14,-1.337 -8.87,0.186 -14.467,4.658 -12.552,10.03 -24.356,2.286 -32.167,-2.843 a 99.5,99.5 0 0 0 -2.623,-1.686 c -4.593,-2.844 -13.955,-5.967 -19.522,-1.26 -4.232,3.573 -4.762,10.048 -1.575,19.24 2.055,5.93 4.39,10.514 6.446,14.55 5.76,11.303 10.31,20.228 5.018,51.81 -7.552,45.084 -8.79,62.92 6.942,86.034 3.307,4.866 6.147,8.692 8.654,12.068 8.902,11.993 12.588,16.965 13.67,37.964 0.75,14.517 5.178,25.082 11.847,28.26 3.164,1.508 6.553,1.13 9.305,-1.033 2.31,-1.813 3.957,-4.7 4.97,-8.308 0.307,0.184 0.61,0.364 0.896,0.524 2.643,1.51 7.257,-0.18 10.077,-3.69 2.845,-3.54 7.763,-13.874 -7.947,-33.307 -3.788,-4.684 -7.953,-9.027 -11.986,-13.222 -4.562,-4.747 -8.87,-9.233 -12.65,-14.155 -7.137,-9.298 -16.026,-20.87 -13.39,-51.57 l 1.557,-18.57 c 1.077,-13.1 1.14,-13.88 2.24,-18.423 1.476,-6.068 3.546,-9.007 4.547,-9.153 0.47,-0.073 1.75,0.653 3.553,3.82 3.657,6.433 7.094,9.323 10.222,8.59 3.714,-0.873 4.56,-6.123 4.873,-9.996 1.12,-13.882 3.248,-14.586 3.338,-14.61 0.012,-0.002 1.23,-0.034 4.064,3.905 3.643,5.076 6.026,8.154 8.962,7.576 3.114,-0.61 4.04,-4.187 6.512,-13.74 l 0.567,-2.186 c 0.326,-1.275 -0.4,-2.583 -1.637,-2.923 -1.232,-0.343 -2.5,0.78 -2.83,2.05 l -0.574,2.194 c -1.117,4.33 -2.183,8.434 -2.97,9.957 -1.207,-1.07 -3.41,-4.134 -4.32,-5.4 -2.115,-2.944 -5.355,-6.735 -9.044,-5.65 -3.756,1.1 -5.693,6.547 -6.686,18.795 -0.332,4.15 -1.07,5.386 -1.313,5.69 -0.685,-0.22 -2.7,-1.935 -5.177,-6.296 -0.954,-1.678 -3.85,-7.144 -8.204,-6.498 -4.534,0.668 -7.055,7.285 -8.372,12.72 -1.19,4.91 -1.277,5.988 -2.36,19.176 l -1.557,18.55 c -2.8,32.592 7.123,45.518 14.37,54.953 3.94,5.128 8.54,9.92 12.99,14.55 3.964,4.123 8.06,8.39 11.72,12.918 8.907,11.02 12.026,20.616 8.557,26.326 -1.71,2.808 -4.342,3.538 -4.977,3.398 a 51.74,51.74 0 0 1 -2.095,-1.273 c 0.38,-3.71 0.223,-7.923 -0.51,-12.484 -0.875,-5.39 -6.06,-11.08 -11.258,-10.52 -2.027,0.214 -4.748,1.82 -4.486,8.233 0.302,7.437 5.967,13.222 11.21,17.045 -0.788,3.652 -2.206,6.047 -3.687,7.213 -1.402,1.103 -2.933,1.27 -4.555,0.498 -3.747,-1.788 -8.395,-9.19 -9.17,-24.185 -1.16,-22.477 -5.375,-28.158 -14.616,-40.61 -2.48,-3.337 -5.288,-7.126 -8.545,-11.908 -14.723,-21.633 -13.477,-38.836 -6.167,-82.483 1.96,-11.707 2.605,-20.432 2.37,-27.407 20.01,-4.837 50.292,-7.742 75.68,-6.97"
         id="path8"
         inkscape:connector-curvature="0" />
    </g>
    <g
       id="g16"
       style="fill:#cc8a00">
      <path
         d="m 212.67,345.4 c -5.49,-1.547 -8.013,-10.066 -5.64,-19.03 2.378,-8.96 8.75,-14.972 14.242,-13.425 5.49,1.55 8.014,10.065 5.64,19.03 -2.375,8.96 -8.753,14.97 -14.24,13.424 m -21.915,-47.234 c -27.37,-8.344 -9.968,-43.226 2.7,-39.74 -16.58,15.502 -8.22,33.507 -2.7,39.74 m -31.998,-45.703 c 9.764,-4.646 12.722,5.167 3.47,7.95 -26.39,7.936 -28.53,-5.96 -22.36,-11.927 -16.19,-9.934 4.625,-18.28 13.49,-21.063 8.87,-2.783 8.483,5.962 3.47,7.154 -5.01,1.192 -6.937,2.384 -11.18,3.576 -2.19,0.617 -2.723,2.61 -1.94,4.34 8.134,-0.496 12.508,-1.307 17.096,-4.217 3.716,-2.355 11.446,-7.673 14.914,-2.108 3.476,5.563 3.208,12.076 -11.058,11.28 -8.787,-0.49 -13.53,0.988 -20.033,4.046 -0.868,4.323 6.73,4.49 14.13,0.968 m -31.024,-18.3 c -2.96,0.566 -0.908,-6.586 -1.212,-8.47 -3.353,0.692 -9.512,-0.277 -10.124,-1.657 -0.755,-1.707 3.066,-2.684 10.65,-3.03 -0.613,-3.774 -1.862,-10.57 0.436,-14.25 -5.76,-2.063 -12.247,-3.37 -7.052,-7.36 4.444,-3.41 3.443,-5.515 3.443,-5.515 -2.84,-2.346 -6.328,-7.338 1.052,-10.472 7.372,-3.14 17.44,-1.45 22.645,2.826 6.08,4.994 14.624,10.655 21.28,9.71 10.692,-1.523 8.287,3.75 1.877,6.402 -7.495,3.105 -18.64,-2.67 -21.14,-4.25 -2.497,-1.582 -10.037,-5.67 -11.23,-2.33 -1.196,3.338 -3.328,5.737 -0.654,7.557 5.574,3.79 14.617,9.364 19.727,11.914 3.736,1.865 3.373,4.555 -3.494,6.26 -7.86,1.955 -19.747,3.868 -19.747,3.868 -0.863,4.474 -3.4,8.207 -6.458,8.795 m 30.1,-76.51 c 6.168,-4.37 9.636,-7.15 9.636,-7.15 4.24,-2.783 4.02,-1.3 6.94,0.793 3.41,2.445 9.586,8.506 11.715,10.7 3.855,3.976 0.524,7.04 -2.374,3.057 C 178.418,157.714 171,153.434 171,153.434 l -3.557,2.445 c 5.78,5.167 18.87,16.575 24.02,25.07 1.483,2.445 -1.483,4.28 -3.56,1.53 -7.122,-9.44 -24.02,-23.85 -24.02,-23.85 l -3.558,2.446 c 4.242,4.37 10.38,8.866 12.752,12.84 2.286,3.83 0.557,7.013 -2.753,2.628 -4.07,-5.38 -9.407,-9.355 -9.407,-9.355 -3.855,-3.18 -9.25,-5.168 -3.083,-9.54 m -27.46,175.25 a 6.962,6.962 0 0 1 -1.37,-0.47 c 11.474,13.31 -4.307,22.705 -9.326,5.697 -1.7,9.002 -10.602,5.85 -9.395,-0.374 0.68,-3.51 0.89,-9.98 0.89,-13.185 0,-1.26 -1.776,-4.054 0.67,-4.932 2.554,-0.916 4.113,-1.143 5.78,-2.408 2.448,-1.602 3.598,0.817 4.45,1.378 3.248,2.14 6.886,3.396 10.673,4.815 9.785,3.673 3.412,10.74 -2.37,9.48 m 96.81,7.398 c 10.806,-26.94 -6.864,-33.472 -12.143,-29.6 -27.76,-44.714 -17.193,-79.38 -15.035,-95.598 8.096,-60.81 -18.56,-69.034 -27.814,-76.19 -10.986,5.368 -37.587,27.664 -52.622,41.375 -15.034,13.71 -10.41,19.194 -9.25,26.945 1.156,7.75 -3.468,15.025 -6.362,19.197 -2.89,4.174 -3.933,6.974 -15.495,25.46 -11.568,18.48 -0.697,23.068 5.665,23.068 6.362,0 18.36,-2.276 29.127,-3.204 3.558,-0.3 7.277,-3.87 4.387,-8.192 -2.89,-4.322 -6.55,-6.83 -10.823,-6.575 -3.77,0.233 -5.142,5.05 0.4,6.37 4.773,-1.035 5.42,5.605 -2.91,2.957 -5.794,-1.85 -7.838,-14.43 3.92,-12.903 10.8,1.395 16,10.704 14.515,17.734 1.735,0.597 9.76,5.52 11.788,11.008 3.56,9.63 -1.517,8.926 -3.782,3.06 -5.334,-13.837 -22.967,-8.7 -33.9,-7.746 -6.444,0.564 -4.924,1.41 -6.012,5.007 -2.89,9.54 -4.683,18.9 1.68,20.69 5.142,1.443 17.11,-1.014 21.737,-2.21 4.625,-1.19 4.047,-4.767 -0.578,-4.17 -4.628,0.595 -6.94,-4.176 0,-5.368 6.936,-1.192 10.986,2.387 10.408,5.367 -0.578,2.98 1.156,5.366 2.893,5.96 1.732,0.595 3.117,4.8 3.47,7.157 1.156,7.75 -5.206,6.553 -4.628,1.192 0.257,-2.373 -3.468,-5.964 -6.94,-4.176 -3.468,1.79 -20.35,3.58 -27.87,2.387 -5.202,5.36 -2.044,10.776 -0.31,13.16 1.735,2.387 2.57,10.658 0.31,15.813 -7.517,17.17 9.806,23.505 16.827,23.965 24.8,1.618 44.337,-2.717 62.04,-9.398 9.01,-3.957 14.952,-11.388 20.13,-18.505 -1.636,7.45 -5.387,14.255 -11.464,18.874 -8.513,6.02 -23.275,10.362 -32.21,12.6 0,0 1.343,10.842 3.77,18.343 2.1,6.483 5.97,11.443 7.598,15.882 2.178,5.92 3.594,12.36 10.68,10.316 28.747,-8.3 53.836,-21.287 67.138,-29.63 -1.156,-1.786 -14.863,-32.667 -18.332,-40.42"
         id="path12"
         inkscape:connector-curvature="0" />
      <path
         d="m 219.705,318.87 c -3.486,-0.978 -6.864,2.534 -8.373,8.224 -1.508,5.686 -0.575,11.402 2.908,12.38 3.485,0.982 6.56,-3.33 8.065,-9.02 1.508,-5.686 0.882,-10.602 -2.6,-11.585 m -85.61,-125.783 c -3.66,0.63 -8.003,2.02 -8.768,3.12 -0.63,0.916 4.79,3.52 6.588,4.33 1.796,0.81 1.985,-1.074 2.77,-2.926 0.783,-1.85 3.07,-5.153 -0.59,-4.523"
         id="path14"
         inkscape:connector-curvature="0" />
    </g>
    <g
       id="g24"
       style="fill:#00843d">
      <path
         d="m 309.356,296.46 c 3.788,3.953 10.874,8.962 14.79,11.27 a 216.042,216.042 0 0 0 -1.916,-18.12 c -0.353,-2.373 -0.85,-7.353 -1.396,-13.892 -2.727,-1.712 -7.476,-5.15 -10.558,-8.044 a 774.115,774.115 0 0 0 -0.92,28.785 m -0.03,3.41 c -0.087,11.988 0.198,22.164 0.85,28.726 3.268,3.378 8.496,6.736 13.425,9.094 0.86,-7.887 1.223,-16.917 0.72,-27.145 -2.833,-1.756 -10.8,-6.812 -14.992,-10.673"
         id="path18"
         inkscape:connector-curvature="0" />
      <path
         d="m 313.14,380.332 c -0.884,1.306 -1.14,2.536 -2.488,2.1 -1.128,-0.367 -2.265,-1.46 -2.3,-2.117 -14.28,-33.478 -17.984,-73.49 -10.988,-118.947 3.98,-25.85 12.3,-51.904 22.568,-78.15 -2.298,10.264 2.848,94.318 4.585,106.028 8.787,59.304 -9.286,88.01 -11.378,91.086 m 11.39,-202.988 c 0.567,-1.9 1,-3.262 1.334,-4.242 a 12.93,12.93 0 0 1 -2.32,-2.82 c -14.594,20.514 -56.913,145.31 -15.764,214.86 1.555,3.02 4.674,3.4 6.098,1.572 7.473,-7.34 21.753,-45.203 16.434,-75.826 -5.645,-32.477 -8.868,-123.21 -5.783,-133.544"
         id="path20"
         inkscape:connector-curvature="0" />
      <path
         d="m 320.57,272.514 c -1.092,-13.61 -2.313,-32.507 -2.976,-49.105 -0.403,-4.17 -2.704,-5.46 -3.514,-1.29 -1.638,12.787 -2.85,27.733 -3.65,42.523 2.934,2.875 7.426,6.21 10.14,7.87 m -13.998,25.77 -10.298,7.264 c 0.05,9.92 0.708,19.496 1.982,28.727 2.177,-1.192 6.935,-3.928 9.48,-6.396 -0.828,-7.293 -1.212,-17.675 -1.164,-29.595 m -7.924,38.656 c 0.74,4.884 1.653,9.667 2.74,14.35 1.908,2.312 4.553,3.344 8.106,-3.988 l 0.773,-2.384 c 2.315,4.43 8.034,11.014 10.828,8.03 0.85,-3.78 1.61,-7.98 2.2,-12.608 -2.234,-1.244 -11.29,-6.4 -14.4,-9.81 -2.418,1.96 -7.912,5.1 -10.247,6.41 m 9.177,-74.952 c 0.854,-13.66 2.137,-27.42 3.846,-39.664 0.408,-3.542 -2.274,-3.135 -3.08,0.2 -3.89,12.752 -6.74,24.94 -8.94,39.217 a 322.79,322.79 0 0 0 -1.212,8.705 c 2.25,-1.738 8.003,-6.303 9.388,-8.457 m -0.22,3.645 c -2.252,2.616 -7.51,6.437 -9.507,7.85 -1.175,10.178 -1.8,20.072 -1.846,29.643 2.775,-1.95 7.992,-5.687 10.338,-7.836 0.09,-9.286 0.433,-19.4 1.016,-29.657 m 26.562,-95.913 c -3.367,0 -6.1,-2.814 -6.1,-6.288 0,-3.474 2.733,-6.29 6.1,-6.29 3.367,0 6.1,2.816 6.1,6.29 0,3.474 -2.733,6.288 -6.1,6.288 m 0,-16.115 c -5.262,0 -9.532,4.402 -9.532,9.827 0,5.425 4.27,9.824 9.532,9.824 5.262,0 9.528,-4.4 9.528,-9.824 0,-5.425 -4.266,-9.827 -9.528,-9.827 m 25.587,-10.047 c -4.456,1.928 -9.4,5.52 -12.37,9.617 l 2.97,8.667 13.51,-3.26 z m -72.933,105.435 c -2.51,11.22 -4.256,20.59 -4.972,25.657 l -0.028,0.2 c -0.38,0.31 -0.91,0.8 -1.65,1.524 -0.896,0.875 -2.103,2.102 -3.8,3.835 -4.685,4.777 -10.934,11.135 -15.057,14.223 -2.24,-4.283 -9.965,-19.293 -11.136,-24.797 0.418,-1.192 0.863,-2.39 1.33,-3.59 a 122.9,122.9 0 0 1 1.186,-2.97 c 3.257,-7.88 7.422,-15.88 12.058,-23.72 0.87,-1.468 1.754,-2.933 2.653,-4.387 13.42,-21.69 29.954,-41.65 40.416,-53.518 -8.034,16.594 -15.264,42.66 -20.11,63.635 a 787.305,787.305 0 0 0 -0.89,3.907 m -38.944,20.159 -0.105,0.306 0.06,0.317 c 1.175,6.474 11.626,26.148 12.07,26.985 l 0.6,1.122 1.043,-0.695 c 4.25,-2.838 11.302,-10.03 16.448,-15.28 2.417,-2.463 4.91,-5.01 5.44,-5.336 l 0.477,-0.296 c 0.053,-0.03 0.126,-0.6 0.126,-0.6 2.035,-15.52 17.02,-85.012 31.68,-105.552 -10.644,10.972 -54.074,59.294 -67.84,99.03"
         id="path22"
         inkscape:connector-curvature="0" />
    </g>
    <g
       id="g34"
       style="fill:#c8102e">
      <path
         d="m 222.305,330.456 c -1.508,5.69 -4.58,9.998 -8.065,9.018 -3.485,-0.98 -4.416,-6.695 -2.907,-12.38 1.51,-5.692 4.884,-9.204 8.372,-8.224 3.483,0.983 4.106,5.896 2.6,11.586 m -1.032,-17.51 c -5.49,-1.548 -11.866,4.465 -14.24,13.425 -2.375,8.965 0.15,17.484 5.64,19.03 5.487,1.547 11.863,-4.465 14.24,-13.423 2.375,-8.963 -0.15,-17.48 -5.64,-19.03 m -62.512,-60.483 c -7.4,3.52 -14.997,3.358 -14.132,-0.968 0.308,-1.532 1.67,-3.582 4.495,-6.184 -2.794,0.19 -4.678,-1.2 -5.41,-2.816 -0.782,-1.73 -0.25,-3.72 1.942,-4.34 4.238,-1.193 6.167,-2.385 11.18,-3.577 5.01,-1.193 5.395,-9.938 -3.47,-7.156 -8.866,2.786 -29.686,11.13 -13.494,21.067 -6.166,5.963 -4.026,19.86 22.36,11.923 9.253,-2.783 6.295,-12.595 -3.47,-7.95 m 119.93,-19.9 -13.934,6.798 c -4.64,7.836 -8.8,15.84 -12.06,23.72 3.617,-1.315 13.33,-4.98 17.796,-8.034 2.488,-7.303 5.297,-15.1 8.2,-22.483"
         id="path26"
         inkscape:connector-curvature="0" />
      <path
         d="m 293.58,202.803 c 1.083,0.468 -0.25,4.134 -1.14,5.512 -2.963,4.58 -7.032,13.958 -11.19,24.69 0.887,3.53 4.83,9.643 6.462,12.085 4.847,-20.976 12.078,-47.04 20.112,-63.635 -10.462,11.864 -27,31.826 -40.416,53.514 l 12.758,-6.087 c 4.605,-11.318 9.36,-21.208 13.414,-26.08"
         id="path28"
         inkscape:connector-curvature="0" />
      <path
         d="m 284.04,275.675 c 0,0 -0.074,0.57 -0.127,0.6 l -0.48,0.296 c -0.527,0.327 -3.023,2.874 -5.437,5.337 -5.15,5.25 -12.2,12.446 -16.448,15.28 l -1.044,0.695 -0.597,-1.12 c -0.446,-0.835 -10.897,-20.512 -12.075,-26.984 l -0.057,-0.32 0.105,-0.302 c 13.764,-39.737 57.196,-88.06 67.84,-99.032 -14.665,20.544 -29.644,90.037 -31.68,105.553 m 37.604,-112.556 c -0.68,-0.093 -1.698,0.264 -3.283,1.535 -3.466,2.785 -45.94,36.78 -72.473,99.337 -2.84,6.696 -3.085,3.975 -0.387,11.528 2.7,7.55 10.024,20.665 11.95,23.846 1.93,3.178 1.633,4.405 4.332,2.413 9.636,-8.345 17.34,-16.785 20.425,-19.17 3.358,-2.595 5.922,-6.55 6.173,-10.974 0.5,-8.745 17.258,-86.737 33.836,-103.83 0.045,-0.045 0.076,-0.086 0.118,-0.13 a 13.173,13.173 0 0 1 -0.707,-4.238 c 0,-0.108 0.014,-0.213 0.017,-0.317"
         id="path30"
         inkscape:connector-curvature="0" />
      <path
         d="m 272.602,256.746 c 1.625,5.623 5.462,13.772 9.247,17.907 0.714,-5.068 2.46,-14.438 4.97,-25.658 -1.616,-2.59 -5.508,-8.966 -6.91,-12.486 a 729.213,729.213 0 0 0 -7.31,20.235 m 3.77,23.464 a 267.432,267.432 0 0 1 3.803,-3.836 c -3.556,-3.884 -7.315,-10.172 -9.094,-15.167 -3.673,10.84 -6.52,20.028 -7.437,23.802 a 1.152,1.152 0 0 1 -1.402,0.863 c -0.62,-0.157 -0.997,-0.806 -0.842,-1.442 0.952,-3.92 3.96,-14.082 7.97,-26.06 -4.424,3.01 -14.093,6.41 -17.86,7.675 -0.466,1.203 -0.912,2.4 -1.332,3.593 1.173,5.5 8.897,20.51 11.136,24.793 4.123,-3.087 10.375,-9.445 15.056,-14.222 m 57.798,-123.064 c -3.367,0 -6.1,2.814 -6.1,6.288 0,3.474 2.733,6.29 6.1,6.29 3.367,0 6.1,-2.816 6.1,-6.29 0,-3.474 -2.733,-6.288 -6.1,-6.288 m -201.42,166.278 c -3.787,-1.422 -7.425,-2.675 -10.674,-4.817 -0.85,-0.558 -2.002,-2.98 -4.447,-1.378 -1.67,1.266 -3.23,1.493 -5.783,2.41 -2.443,0.877 -0.67,3.668 -0.67,4.933 0,3.203 -0.21,9.675 -0.89,13.18 -1.207,6.23 7.696,9.377 9.396,0.376 0.18,-0.943 0.28,-2.018 0.28,-3.24 0,-2.782 -1.332,-9.285 -1.332,-9.285 -0.225,-0.92 0.61,-1.08 1.22,-0.81 2.294,1.03 5.32,5.925 9.158,7.64 0.448,0.2 0.902,0.366 1.37,0.468 5.784,1.26 12.157,-5.806 2.372,-9.478"
         id="path32"
         inkscape:connector-curvature="0" />
    </g>
    <g
       id="g44"
       style="fill:#ff671f">
      <path
         d="m 341.12,134.517 h -20.106 l 12.836,14.336 h 7.27 z m 59.908,133.523 c -4.97,-8.615 -11.325,-19.355 -17.737,-30.09 l -5.43,15.157 c 6.864,14.357 12.73,24.387 17.83,31.45 l 5.34,-16.518 z m -37.57,-48.016 c 4.694,11.644 9.01,21.596 13,30.117 l 5.295,-14.764 a 5169.775,5169.775 0 0 0 -16.23,-26.92 l -2.066,11.57 z m 42.857,23.252 -20.953,-6.376 c 6.275,10.495 12.496,20.994 17.428,29.53 l 15.447,2.895 c -2.817,-9.09 -6.878,-17.795 -11.697,-26.03 -0.073,-0.008 -0.15,0 -0.225,-0.02"
         id="path36"
         inkscape:connector-curvature="0" />
      <path
         d="M 431.702,280.683 C 422.447,219.476 354.985,172.575 346.889,164.228 l -0.24,0.363 a 13.168,13.168 0 0 1 -1.61,5.265 c 2.697,2.985 6.718,6.817 11.71,11.568 25.54,24.31 73.084,69.563 67.62,123.232 l -0.14,1.395 -1.31,-0.367 c -1.038,-0.29 -2.087,-0.523 -3.198,-0.764 -14.427,-3.19 -32.365,-7.18 -76.59,-132.457 a 12.667,12.667 0 0 1 -2.685,2.146 636.56,636.56 0 0 0 7.39,27.066 c 5.827,14.682 10.325,27.872 13.74,39.71 31.488,77.536 63.753,73.8 71.283,73.475 -2.317,-5.56 0.824,-21.072 -1.158,-34.18"
         id="path38"
         inkscape:connector-curvature="0" />
      <path
         d="m 355.18,183.175 c -2.61,-2.49 -4.926,-4.698 -6.95,-6.693 -0.807,-0.695 -1.137,-0.136 -1,0.555 5.23,14.653 10.088,27.553 14.603,38.92 l 1.875,-10.492 c -4.87,-8.012 -8.395,-13.74 -9.3,-15.138 a 1.217,1.217 0 0 1 0.32,-1.654 1.137,1.137 0 0 1 1.606,0.33 c 0.553,0.862 4.004,6.478 8.948,14.607 l 13.8,3.477 c -8.58,-9.323 -17.043,-17.382 -23.9,-23.912"
         id="path40"
         inkscape:connector-curvature="0" />
      <path
         d="m 367.04,206.51 c 4.758,7.83 10.6,17.498 16.5,27.348 l 21.218,6.454 c -6.743,-10.96 -14.743,-21.04 -22.788,-30.04 l -14.93,-3.763 z m 53.165,96.073 c 0.677,0.148 1.314,0.317 1.963,0.47 0.914,-10.756 -0.364,-21.185 -3.17,-31.163 l -14.644,-2.747 c 3.93,6.855 6.842,12.13 7.964,14.615 0.268,0.593 0.02,1.302 -0.558,1.584 -0.58,0.277 -1.27,0.018 -1.54,-0.578 -1.063,-2.352 -3.844,-7.402 -7.628,-14.01 l -5.2,16.086 c 9.904,12.862 16.858,14.426 22.813,15.743"
         id="path42"
         inkscape:connector-curvature="0" />
    </g>
    <path
       d="m 358.61,312.132 c -1.296,-2.477 -3.115,-10.992 -5.19,-22.67 l 15.42,8.61 c 0.126,8.78 -0.627,15.927 -1.747,21.753 l -8.482,-7.693 z m 3.125,25.125 -0.11,0.27 c -3.183,-4.24 -6.018,-8.806 -8.567,-13.614 l 4.938,-9.164 8.536,7.743 c -1.492,6.617 -3.407,11.344 -4.797,14.763 z m -18.575,-37.63 7.92,-10.128 c 2.057,11.575 3.887,20.154 5.294,23.346 l -4.596,8.53 c -3.426,-6.858 -6.26,-14.18 -8.618,-21.75 z m -6.09,-25.415 9.813,-10.12 c 1.26,8.036 2.487,15.597 3.65,22.305 l -8.207,10.495 c -2.175,-7.402 -3.895,-15.02 -5.257,-22.68 z m -3.154,-23.747 9.473,-9.09 c 1.02,6.73 2.04,13.4 3.04,19.812 l -9.858,10.16 a 291.673,291.673 0 0 1 -2.657,-20.882 z m -1.054,-56.073 c 0.203,-3.544 2.777,-3.393 3.18,-0.893 1.77,10.93 3.75,24.05 5.793,37.58 l 1.125,7.45 -9.3,8.925 c -1.647,-20.04 -1.393,-38.87 -0.798,-53.064 z m 8.367,-2.623 c 9.1,21.623 15.423,40.17 19.703,56.1 l -15.577,-8.997 c -0.415,-2.736 -0.832,-5.463 -1.238,-8.16 -2.043,-13.526 -4.025,-26.652 -5.793,-37.607 -0.61,-2.916 1.69,-4.257 2.902,-1.338 z m 20.55,59.322 c 1.866,7.26 3.304,13.958 4.376,20.136 L 348.72,260.86 c -0.966,-6.207 -1.945,-12.61 -2.912,-18.994 l 15.972,9.225 z m 6.993,44.232 -15.882,-8.87 c -1.18,-6.786 -2.42,-14.464 -3.696,-22.555 l 17.467,10.384 c 1.247,7.85 1.898,14.836 2.113,21.04 z m -3.23,-38.79 a 312.184,312.184 0 0 0 -3.964,-15.146 c -3.416,-11.84 -7.916,-25.03 -13.745,-39.715 a 620.036,620.036 0 0 0 -10.888,-25.646 c -0.894,0.21 -1.825,0.33 -2.78,0.33 -0.897,0 -1.774,-0.1 -2.617,-0.284 -0.036,0.634 -0.078,1.29 -0.12,1.988 -1.78,28.618 -7.197,115.71 29.595,162.593 l 1.226,1.558 0.747,-1.865 0.87,-2.166 c 4.214,-10.357 13.198,-32.447 1.68,-81.647 z"
       id="path46"
       inkscape:connector-curvature="0"
       style="fill:#001871" />
    <g
       id="g52"
       style="fill:#010101">
      <path
         d="m 361.58,241.388 a 309.04,309.04 0 0 1 3.964,15.15 c 3.637,8.55 8.764,18.566 13.118,25.23 3.56,26.142 -0.14,56.936 -20.21,76.023 -1.157,-7.95 -6.168,-16.297 -9.636,-23.05 -3.58,-6.972 -13.107,-22.657 -13.877,-24.646 -0.39,-9.536 -4.63,-32.59 -6.17,-50.476 -1.545,-17.886 -1.545,-77.105 -0.386,-83.068 l 2.332,-0.696 c 0.277,0.08 0.553,0.16 0.835,0.22 0.84,0.187 1.718,0.29 2.618,0.29 a 12,12 0 0 0 2.777,-0.336 12.143,12.143 0 0 0 3.502,-1.418 12.58,12.58 0 0 0 2.68,-2.146 c 0.74,-0.78 1.382,-1.66 1.913,-2.61 a 13.165,13.165 0 0 0 1.604,-5.263 l 0.24,-0.36 c 8.1,8.345 75.56,55.246 84.815,116.454 1.982,13.11 -1.16,28.617 1.155,34.178 -7.526,0.327 -39.792,4.063 -71.28,-73.472 z m -47.703,145.325 c -1.422,1.83 -4.543,1.45 -6.097,-1.573 -41.146,-69.55 1.17,-194.345 15.766,-214.856 0.64,1.052 1.42,2 2.318,2.82 a 114.95,114.95 0 0 0 -1.334,4.24 c -3.088,10.337 0.138,101.065 5.78,133.546 5.322,30.623 -8.958,68.485 -16.433,75.823 z m -31.67,-104.105 c -3.086,2.384 -10.787,10.823 -20.426,19.167 -2.697,1.995 -2.4,0.768 -4.327,-2.41 -1.928,-3.183 -9.252,-16.295 -11.95,-23.845 -2.7,-7.557 -2.454,-4.835 0.383,-11.53 26.536,-62.555 69.007,-96.55 72.475,-99.335 1.586,-1.27 2.604,-1.628 3.284,-1.538 -0.003,0.105 -0.017,0.21 -0.017,0.317 0,1.488 0.256,2.91 0.708,4.242 -0.043,0.04 -0.074,0.084 -0.116,0.13 -16.58,17.093 -33.338,95.08 -33.84,103.83 -0.25,4.418 -2.815,8.375 -6.173,10.972 z m -1.54,74.37 c -2.82,3.51 -7.437,5.2 -10.077,3.688 -0.284,-0.16 -0.59,-0.343 -0.896,-0.526 -1.013,3.61 -2.66,6.498 -4.97,8.312 -2.75,2.163 -6.14,2.54 -9.302,1.032 -6.67,-3.178 -11.1,-13.743 -11.847,-28.26 -1.085,-21.002 -4.768,-25.97 -13.67,-37.963 -2.508,-3.373 -5.347,-7.202 -8.655,-12.066 -15.733,-23.113 -14.495,-40.953 -6.943,-86.036 5.29,-31.58 0.745,-40.505 -5.016,-51.81 -2.057,-4.037 -4.39,-8.616 -6.45,-14.547 -3.18,-9.192 -2.65,-15.666 1.58,-19.24 5.565,-4.706 14.93,-1.584 19.524,1.26 a 99.5,99.5 0 0 1 2.623,1.69 c 7.808,5.124 19.612,12.872 32.164,2.842 5.598,-4.47 10.33,-5.994 14.47,-4.656 7.007,2.264 10.005,11.73 12.904,21.243 l 0.158,0.51 c 1.253,4.117 3.512,7.405 6.715,9.047 4.893,2.512 10.978,0.396 13.457,-1.058 1.11,-0.655 2.524,-0.25 3.155,0.892 0.63,1.146 0.242,2.236 -0.87,2.888 -3.87,2.265 -11.93,4.198 -17.805,1.183 -4.37,-2.24 -7.422,-6.12 -9.07,-11.52 l -0.154,-0.518 c -2.543,-8.34 -5.17,-16.967 -9.872,-18.482 -2.552,-0.826 -6,0.477 -10.25,3.873 -15.13,12.088 -29.125,2.9 -37.486,-2.588 -0.9,-0.593 -1.753,-1.15 -2.517,-1.622 -4.388,-2.716 -11.147,-3.887 -14.213,-1.297 -2.487,2.1 -2.537,7.055 -0.152,13.95 1.946,5.612 4.103,9.843 6.187,13.936 3.505,6.882 6.588,12.952 7.577,23 19.92,-4.422 53.475,-7.53 75.775,-6.94 1.276,-0.05 2.35,0.977 2.4,2.294 0.05,1.314 -0.946,2.422 -2.223,2.474 v -0.365 c -25.385,-0.778 -55.666,2.13 -75.68,6.97 0.238,6.972 -0.408,15.697 -2.37,27.405 -7.31,43.648 -8.554,60.85 6.166,82.484 3.26,4.782 6.07,8.57 8.55,11.907 9.24,12.45 13.455,18.133 14.614,40.61 0.773,14.996 5.423,22.395 9.168,24.186 1.622,0.773 3.153,0.604 4.557,-0.5 1.482,-1.163 2.9,-3.562 3.685,-7.21 -5.242,-3.826 -10.908,-9.61 -11.207,-17.046 -0.262,-6.414 2.457,-8.018 4.487,-8.234 5.197,-0.558 10.383,5.132 11.257,10.522 0.733,4.562 0.89,8.774 0.508,12.484 0.786,0.5 1.503,0.93 2.098,1.27 0.634,0.142 3.268,-0.588 4.974,-3.4 3.47,-5.706 0.353,-15.3 -8.558,-26.322 -3.66,-4.527 -7.755,-8.795 -11.72,-12.917 -4.447,-4.63 -9.046,-9.422 -12.986,-14.55 -7.247,-9.434 -17.17,-22.36 -14.37,-54.95 l 1.556,-18.553 c 1.08,-13.187 1.168,-14.266 2.36,-19.176 1.317,-5.433 3.838,-12.05 8.373,-12.72 4.35,-0.644 7.25,4.82 8.2,6.496 2.48,4.365 4.494,6.08 5.18,6.3 0.242,-0.304 0.98,-1.543 1.314,-5.69 0.99,-12.247 2.927,-17.692 6.686,-18.797 3.688,-1.083 6.928,2.71 9.043,5.654 0.91,1.264 3.112,4.33 4.32,5.398 0.788,-1.523 1.854,-5.628 2.97,-9.954 l 0.57,-2.195 c 0.33,-1.27 1.602,-2.393 2.835,-2.053 1.232,0.343 1.962,1.652 1.635,2.925 l -0.57,2.185 c -2.47,9.554 -3.395,13.127 -6.514,13.74 -2.933,0.58 -5.32,-2.503 -8.96,-7.576 -2.834,-3.94 -4.055,-3.91 -4.063,-3.906 -0.09,0.02 -2.22,0.727 -3.342,14.61 -0.31,3.872 -1.156,9.123 -4.87,9.995 -3.127,0.73 -6.567,-2.158 -10.225,-8.592 -1.8,-3.165 -3.08,-3.892 -3.553,-3.822 -0.998,0.148 -3.07,3.087 -4.543,9.155 -1.1,4.54 -1.164,5.323 -2.238,18.423 l -1.557,18.57 c -2.64,30.7 6.25,42.272 13.39,51.57 3.777,4.92 8.086,9.407 12.65,14.155 4.03,4.196 8.196,8.54 11.984,13.223 15.707,19.433 10.79,29.768 7.946,33.307 z M 178.383,410.35 c -7.087,2.044 -8.502,-4.396 -10.68,-10.318 -1.63,-4.437 -5.498,-9.397 -7.596,-15.88 -2.428,-7.504 -3.77,-18.345 -3.77,-18.345 8.933,-2.237 23.693,-6.577 32.206,-12.598 6.08,-4.62 9.828,-11.427 11.466,-18.876 -5.18,7.117 -11.12,14.55 -20.13,18.505 -17.703,6.68 -37.24,11.015 -62.04,9.396 -7.023,-0.46 -24.346,-6.796 -16.828,-23.966 2.256,-5.155 1.424,-13.426 -0.313,-15.813 -1.735,-2.383 -4.89,-7.796 0.312,-13.16 7.518,1.192 24.4,-0.594 27.87,-2.384 3.47,-1.788 7.196,1.802 6.94,4.174 -0.578,5.362 5.783,6.56 4.624,-1.194 -0.352,-2.355 -1.734,-6.56 -3.465,-7.155 -1.736,-0.592 -3.474,-2.98 -2.893,-5.962 0.576,-2.977 -3.47,-6.556 -10.408,-5.364 -6.944,1.192 -4.63,5.963 0,5.364 4.624,-0.596 5.202,2.983 0.577,4.175 -4.627,1.196 -16.598,3.65 -21.74,2.207 -6.364,-1.79 -4.567,-11.15 -1.68,-20.69 1.092,-3.598 -0.428,-4.44 6.015,-5.005 10.933,-0.954 28.564,-6.09 33.902,7.745 2.264,5.867 7.34,6.57 3.78,-3.062 -2.026,-5.486 -10.052,-10.41 -11.786,-11.004 1.482,-7.032 -3.715,-16.34 -14.515,-17.734 -11.76,-1.527 -9.715,11.053 -3.923,12.902 8.33,2.65 7.684,-3.992 2.91,-2.957 -5.54,-1.32 -4.168,-6.136 -0.397,-6.37 4.272,-0.257 7.932,2.255 10.823,6.578 2.89,4.323 -0.83,7.887 -4.39,8.193 -10.765,0.928 -22.766,3.204 -29.125,3.204 -6.364,0 -17.232,-4.59 -5.667,-23.07 11.564,-18.484 12.607,-21.284 15.498,-25.458 2.894,-4.172 7.516,-11.447 6.36,-19.2 -1.156,-7.748 -5.784,-13.232 9.25,-26.942 15.038,-13.71 41.636,-36.01 52.625,-41.374 9.252,7.155 35.91,15.38 27.813,76.19 -2.16,16.216 -12.723,50.882 15.033,95.594 5.28,-3.87 22.953,2.663 12.147,29.602 3.467,7.754 17.175,38.636 18.33,40.42 -13.303,8.345 -38.39,21.332 -67.136,29.632 z m 165.31,-246.918 c 0,5.425 -4.263,9.824 -9.525,9.824 -5.266,0 -9.535,-4.4 -9.535,-9.824 0,-5.425 4.27,-9.827 9.534,-9.827 5.26,0 9.525,4.402 9.525,9.827 z m -2.574,-28.916 v 14.336 h -7.27 l -12.837,-14.336 h 20.106 z m 18.633,9.042 4.112,15.027 -13.51,3.26 -2.97,-8.67 c 2.97,-4.096 7.916,-7.69 12.368,-9.617 z m 75.312,161.062 c 7.344,-68.136 -56.618,-116.66 -80.77,-138.258 l 15.723,-3.605 -8.097,-27.544 -15.61,10.73 v -16.69 h -30.65 c 0,0 -10.987,-10.138 -30.07,-25.04 -19.085,-14.907 -52.91,-6.423 -60.025,-6.118 -4.153,0.308 -12.557,-2.413 -28.17,-1.22 -26.587,2.028 -31.91,24.73 -27.284,35.462 -17.925,12.52 -70.452,51.715 -67.562,64.833 1.94,8.795 3.204,16.142 -1.424,21.506 -1.717,1.993 -4.047,9.538 -17.926,30.406 -16.525,24.846 3.276,32.635 11.254,32.513 0,0 0.336,2.383 -0.265,3.854 -1.93,4.685 -2.894,17.286 -0.582,20.266 0.525,0.675 0.89,1.033 1.145,1.222 -0.158,0.072 -0.353,0.238 -0.564,0.57 -1.16,1.788 -5.49,6.146 -0.582,13.71 5.84,9.002 -0.042,13.438 -0.623,18.805 -4.37,40.57 47.07,25.866 56.89,27.044 0.528,4.623 1.69,12.32 4.306,19.582 3.12,8.66 7.555,12.794 8.86,18.585 1.58,7.018 5.144,14.263 12.107,12.57 27.178,-6.616 61.294,-22.658 77.483,-33.392 5.784,2.986 28.335,5.37 39.902,4.178 11.565,-1.19 14.29,5.763 20.242,4.77 2.005,-1.38 3.25,-4.845 4.946,-6.98 12.71,-15.943 18.276,-53.584 16.565,-71.234 6.74,13.236 20.9,34.177 22.086,47.173 22.582,-9.985 30.605,-55.93 25.552,-75.56 19.085,27.362 36.462,33.01 54.963,31.16 -0.295,-0.757 -2.27,-9.16 -1.82,-13.3 z"
         id="path48"
         inkscape:connector-curvature="0" />
      <path
         d="m 259.65,336.825 c -0.207,0.253 -0.723,1.1 -0.63,3.376 0.19,4.694 3.61,8.738 7.188,11.73 0.053,-2.45 -0.116,-5.23 -0.62,-8.38 -1.456,-4.42 -3.396,-7.575 -5.94,-6.724 m -68.89,-38.656 c -5.522,-6.235 -13.88,-24.243 2.7,-39.744 -12.67,-3.486 -30.073,31.4 -2.7,39.743 m -29.84,-130.977 c 0,0 5.34,3.974 9.408,9.356 3.31,4.38 5.04,1.2 2.753,-2.63 -2.374,-3.976 -8.513,-8.468 -12.754,-12.84 l 3.56,-2.446 c 0,0 16.896,14.406 24.02,23.846 2.074,2.75 5.04,0.917 3.558,-1.528 -5.15,-8.493 -18.24,-19.904 -24.02,-25.07 l 3.558,-2.445 c 0,0 7.417,4.28 12.752,11.617 2.896,3.98 6.226,0.92 2.37,-3.058 -2.128,-2.195 -8.303,-8.254 -11.713,-10.7 -2.914,-2.092 -2.697,-3.575 -6.94,-0.796 0,0 -3.467,2.783 -9.634,7.155 -6.167,4.373 -0.773,6.36 3.082,9.54 m -9.93,49.1 c 3.086,1.59 3.086,1.193 -0.386,2.385 -3.468,1.192 -14.976,2.462 -14.976,2.462 0.386,-1.59 0.386,-4.448 0,-5.643 -0.384,-1.194 0.386,-4.71 0.386,-4.71 0,0 11.892,3.915 14.977,5.505 m -19.077,-15.758 c -1.794,-0.808 -7.22,-3.413 -6.587,-4.33 0.764,-1.1 5.106,-2.487 8.767,-3.118 3.66,-0.63 1.376,2.67 0.59,4.52 -0.785,1.85 -0.974,3.735 -2.77,2.927 m 36.94,-4.593 c -6.654,0.947 -15.198,-4.713 -21.278,-9.708 -5.206,-4.277 -15.273,-5.966 -22.65,-2.83 -7.377,3.138 -3.89,8.13 -1.05,10.476 0,0 1.002,2.102 -3.442,5.516 -5.194,3.984 1.29,5.293 7.053,7.357 -2.3,3.68 -1.05,10.475 -0.437,14.25 -7.584,0.345 -11.405,1.324 -10.65,3.028 0.61,1.38 6.77,2.35 10.124,1.657 0.305,1.887 -1.748,9.036 1.213,8.472 3.056,-0.587 5.592,-4.323 6.457,-8.797 0,0 11.886,-1.913 19.748,-3.867 6.867,-1.704 7.23,-4.396 3.494,-6.26 -5.11,-2.55 -14.153,-8.123 -19.728,-11.917 -2.674,-1.816 -0.543,-4.214 0.65,-7.555 1.196,-3.337 8.736,0.747 11.232,2.332 2.5,1.58 13.646,7.352 21.14,4.247 6.41,-2.652 8.816,-7.923 -1.877,-6.402"
         id="path50"
         inkscape:connector-curvature="0" />
    </g>
  </g>
</svg>
