<?xml version="1.0" encoding="UTF-8" standalone="no"?>
<svg
   xmlns:dc="http://purl.org/dc/elements/1.1/"
   xmlns:cc="http://creativecommons.org/ns#"
   xmlns:rdf="http://www.w3.org/1999/02/22-rdf-syntax-ns#"
   xmlns:svg="http://www.w3.org/2000/svg"
   xmlns="http://www.w3.org/2000/svg"
   xmlns:sodipodi="http://sodipodi.sourceforge.net/DTD/sodipodi-0.dtd"
   xmlns:inkscape="http://www.inkscape.org/namespaces/inkscape"
   width="512"
   height="512"
   viewBox="0 0 512 512"
   version="1.1"
   id="svg50"
   sodipodi:docname="colorado-avalanche.svg"
   inkscape:version="0.92.5 (2060ec1f9f, 2020-04-08)">
  <metadata
     id="metadata56">
    <rdf:RDF>
      <cc:Work
         rdf:about="">
        <dc:format>image/svg+xml</dc:format>
        <dc:type
           rdf:resource="http://purl.org/dc/dcmitype/StillImage" />
      </cc:Work>
    </rdf:RDF>
  </metadata>
  <defs
     id="defs54" />
  <sodipodi:namedview
     pagecolor="#ffffff"
     bordercolor="#666666"
     borderopacity="1"
     objecttolerance="10"
     gridtolerance="10"
     guidetolerance="10"
     inkscape:pageopacity="0"
     inkscape:pageshadow="2"
     inkscape:window-width="640"
     inkscape:window-height="480"
     id="namedview52"
     showgrid="false"
     inkscape:zoom="0.4609375"
     inkscape:cx="256"
     inkscape:cy="256"
     inkscape:window-x="0"
     inkscape:window-y="0"
     inkscape:window-maximized="0"
     inkscape:current-layer="svg50" />
  <g
     id="g48"
     transform="translate(0,32)"
     style="fill:none;fill-rule:evenodd">
    <path
       d="m 431.576,322.072 c -0.765,-1.812 -10.237,-22.495 -17.344,-29.8 -9.215,-13.26 -9.564,-12.772 -9.215,-13.26 15.79,-22.26 21.924,-45.585 15.262,-66.637 -11.343,-35.845 -56.81,-55.736 -114.29,-55.11 -2.007,-3.225 -4.56,-6.36 -7.638,-9.218 -7.67,-7.128 -16.79,-10.894 -24.53,-10.894 L 256.454,109 216.989,172.98 C 127.142,203.17 67.935,267.694 84.1,318.808 c 4.22,13.338 22.55,32.516 22.55,32.516 L 77,401.028 c 72.93,-8.815 133.84,-12.022 133.84,-12.022 l 3.956,-15.795 c 21.47,-1.627 44.225,-5.967 67.253,-13.26 a 314.127,314.127 0 0 0 18.41,-6.463 c 2.838,9.078 6.175,19.653 6.843,21.212 11.055,26.13 47.844,35.53 82.163,21 34.315,-14.53 53.17,-47.497 42.11,-73.627 z"
       id="path2"
       inkscape:connector-curvature="0"
       style="fill:#236192" />
    <path
       d="m 229.856,332.523 c -2.217,0.893 -4.395,1.7 -6.547,2.47 -1.543,0.56 -3.08,1.1 -4.586,1.596 -41.833,13.773 -70.52,5.623 -84.824,-13.067 -0.952,-1.232 -1.812,-2.535 -2.637,-3.87 -17.584,-28.444 -5.967,-76.61 38.543,-112.015 -82.207,62.335 -45.54,112.49 -42.134,116.47 0.14,0.24 0.29,0.47 0.432,0.717 -22.88,37.462 -39.99,65.828 -41.306,69.026 49.29,-5.41 119.618,-10.816 119.618,-10.816 l 15.178,-43.158 c 32.53,-13.07 69.172,-12.967 102.033,8.276 -0.002,0 -1.2,-6.606 -15.63,-12.02 -38.47,-18.038 -69.722,-4.81 -78.14,-3.61 z"
       id="path4"
       inkscape:connector-curvature="0"
       style="fill:#a4a9ad" />
    <path
       d="m 398.728,272.183 c 2.437,0.822 10.792,-21.667 10.258,-33.657 -1.686,-38.048 -45.693,-67.134 -98.973,-65.984 -0.543,5.165 -1.52,9.586 -2.782,12.74 l 46.135,71.9 c 0.002,0 24.965,1.383 45.364,15 z m -274.214,46.35 c -24.303,-38.424 9.138,-93.583 75.556,-130.084 -164.796,73.73 -83.313,141.97 -83.313,141.97 l 8.156,-11.28 c -0.135,-0.2 -0.27,-0.4 -0.4,-0.607 z m 97.017,37.096 4.207,-10.825 c 52.296,-17.437 70.33,-3.604 70.33,-3.604 -37.267,14.428 -74.535,14.428 -74.535,14.428 z"
       id="path6"
       inkscape:connector-curvature="0"
       style="fill:#ffffff" />
    <path
       d="m 242.425,276.75 c 12.9,-4.514 25.458,-10.405 38.412,-15.28 l -0.01,0.092 c 0.788,-0.327 1.576,-0.644 2.368,-0.972 10.438,-3.804 16.835,-6.35 16.835,-6.35 0,0 17.898,-5.234 27.444,-6.1 -16.825,0 -46.212,8.46 -46.212,8.46 0,0 -5.748,2.194 -9.195,3.54 -1.534,0.594 -14.918,-34.998 -14.918,-34.998 0,0 -14.04,39.88 -16.727,47.94 -0.208,0.62 -9.422,3.617 -9.422,3.617 0,0 -21.64,9.616 -30.052,10.822 5.432,0 12.59,-1.72 18.802,-3.61 7.818,-1.898 14.943,-5.44 22.673,-7.162 z"
       id="path8"
       inkscape:connector-curvature="0" />
    <path
       d="m 169.804,207.64 c 4.782,-3.628 9.95,-7.3 15.576,-11.006 a 167.446,167.446 0 0 0 -15.576,11.005 z"
       id="path10"
       inkscape:connector-curvature="0"
       style="fill:#a4a9ad" />
    <path
       d="m 247.602,269.37 c 0,0 13.654,-6.217 17.4,-6.635 l -7.564,-21.96 z"
       id="path12"
       inkscape:connector-curvature="0" />
    <path
       d="m 242.425,276.75 c 12.9,-4.514 25.458,-10.405 38.412,-15.28 l -0.01,0.092 c 0.788,-0.327 1.576,-0.644 2.368,-0.972 10.438,-3.804 16.835,-6.35 16.835,-6.35 0,0 17.898,-5.234 27.444,-6.1 -16.825,0 -46.212,8.46 -46.212,8.46 0,0 -5.748,2.194 -9.195,3.54 -1.534,0.594 -14.918,-34.998 -14.918,-34.998 0,0 -14.04,39.88 -16.727,47.94 -0.208,0.62 -9.422,3.617 -9.422,3.617 0,0 -21.64,9.616 -30.052,10.822 5.432,0 12.59,-1.72 18.802,-3.61 7.818,-1.898 14.943,-5.44 22.673,-7.162 z"
       id="path14"
       inkscape:connector-curvature="0" />
    <path
       d="m 191.385,201.445 c -52.894,30.067 -56.503,86.586 -56.503,86.586 0,0 3.61,-1.204 3.61,0 -0.435,9.535 1.01,16.56 3.65,21.89 l 16.994,-28.092 c -8.257,-15.287 -7.467,-41.755 32.25,-80.382 z"
       id="path16"
       inkscape:connector-curvature="0"
       style="fill:#ffffff" />
    <path
       d="m 130.706,328.816 -36.698,60.626 109.8,-10.015 13.142,-37.74 c -11.004,3.74 -62.893,19.202 -86.244,-12.87 z"
       id="path18"
       inkscape:connector-curvature="0"
       style="fill:#6f263d" />
    <path
       d="m 218.725,336.59 3.45,-9.91 c -18.965,5.036 -37.906,7.904 -58.436,-0.164 -8.467,-3.082 -16.91,-7.15 -21.6,-16.596 l -8.24,13.605 c 14.303,18.69 42.99,26.84 84.824,13.064 z m 38.713,-95.816 -9.836,28.594 c 0,0 13.654,-6.217 17.4,-6.635 l -7.564,-21.96 z"
       id="path20"
       inkscape:connector-curvature="0" />
    <path
       d="m 430.064,353.694 c -10.86,28.74 -63.762,58.81 -101.895,38.7 -9.957,-5.752 -14.763,-13.566 -22.223,-29.908 29.703,33.774 90.803,-12.694 90.803,-12.694 0,0 10.09,-2.548 10.09,-10.297 5.167,-3.863 7.748,-9.023 11.617,-14.185 3.862,7.742 11.607,28.384 11.607,28.384 z"
       id="path22"
       inkscape:connector-curvature="0"
       style="fill:#010101" />
    <path
       d="m 247.602,269.37 c 0,0 13.654,-6.217 17.4,-6.635 l -7.564,-21.96 z"
       id="path24"
       inkscape:connector-curvature="0" />
    <path
       d="m 281.264,256.6 c 0,0 -5.75,2.195 -9.195,3.543 -1.537,0.593 -14.92,-35 -14.92,-35 0,0 -14.04,39.88 -16.725,47.942 -0.21,0.617 -9.423,3.616 -9.423,3.616 0,0 -21.64,9.62 -30.053,10.826 5.432,0 12.59,-1.72 18.803,-3.61 7.816,-1.897 14.94,-5.44 22.673,-7.16 12.898,-4.516 25.457,-10.407 38.41,-15.28 l -0.01,0.09 c 0.79,-0.327 1.577,-0.644 2.37,-0.972 10.437,-3.804 16.834,-6.35 16.834,-6.35 0,0 17.9,-5.234 27.445,-6.1 -16.826,-0.003 -46.21,8.458 -46.21,8.458 z m -33.662,12.77 9.836,-28.595 7.565,21.96 c -3.747,0.416 -17.4,6.635 -17.4,6.635 z"
       id="path26"
       inkscape:connector-curvature="0"
       style="fill:#a4a9ad" />
    <path
       d="m 272.07,260.14 c -1.536,0.594 -14.92,-34.998 -14.92,-34.998 0,0 -14.038,39.88 -16.724,47.94 -0.21,0.62 -9.423,3.617 -9.423,3.617 0,0 -21.64,9.616 -30.053,10.822 5.433,0 12.592,-1.72 18.804,-3.61 7.816,-1.896 14.94,-5.44 22.673,-7.16 12.898,-4.515 25.457,-10.406 38.41,-15.28 l -0.01,0.09 c 0.79,-0.327 1.577,-0.644 2.37,-0.97 10.437,-3.805 16.834,-6.35 16.834,-6.35 0,0 17.9,-5.235 27.446,-6.103 -16.824,0 -46.21,8.46 -46.21,8.46 0,0 -5.75,2.193 -9.196,3.54 z"
       id="path28"
       inkscape:connector-curvature="0" />
    <path
       d="M 345.868,256.77 256.304,116.663 c 0,0 -90.163,148.118 -90.128,146.21 -1.755,3.987 -2.502,7.72 -2.28,11.104 l 4.25,-7.033 88.41,-143.263 83.502,129.8 c 1.087,1.633 1.868,2.98 2.384,4.09 7.934,0.53 3.426,-0.8 3.426,-0.8 z"
       id="path30"
       inkscape:connector-curvature="0"
       style="fill:#a4a9ad" />
    <path
       d="m 340.058,253.477 -83.503,-129.797 -88.41,143.262 -4.25,7.033 c 1.397,21.342 41.73,28.423 114.09,-5.936 12.493,-5.926 29.247,-9.887 51.7,-10.58 3.275,-0.1 6.658,-0.138 10.17,-0.095 0.99,0.09 1.843,0.153 2.586,0.202 -0.513,-1.11 -1.295,-2.458 -2.38,-4.09 z m -40.028,0.766 c 0,0 -6.397,2.545 -16.835,6.35 -0.792,0.325 -1.58,0.643 -2.368,0.97 l 0.01,-0.09 c -12.956,4.872 -25.513,10.763 -38.412,15.28 -7.732,1.72 -14.855,5.264 -22.672,7.16 -6.213,1.89 -13.37,3.61 -18.804,3.61 C 209.36,286.318 231,276.7 231,276.7 c 0,0 9.214,-3 9.422,-3.617 2.687,-8.06 16.725,-47.94 16.725,-47.94 0,0 13.383,35.59 14.917,34.998 3.447,-1.345 9.195,-3.54 9.195,-3.54 0,0 29.385,-8.46 46.21,-8.46 -9.545,0.87 -27.443,6.104 -27.443,6.104 z"
       id="path32"
       inkscape:connector-curvature="0"
       style="fill:#6f263d" />
    <path
       d="m 303.962,181.28 c 8.244,-44.772 -46.02,-41.364 -46.02,-41.364 l -2.24,11.153 -8.313,3.187 -6.387,19.58 -5.455,3.432 -9.7,16.66 c 0,0 60.866,-45.306 78.112,-12.65 z"
       id="path34"
       inkscape:connector-curvature="0"
       style="fill:#ffffff" />
    <path
       d="m 252.7,161.36 -1.605,4.813 c 0,0 29.658,-10.424 46.483,-1.606 0,0 -7.21,-12.026 -44.878,-3.207 z"
       id="path36"
       inkscape:connector-curvature="0"
       style="fill:#236192" />
    <path
       d="m 238.275,182.207 2.4,-5.413 c 44.486,-24.055 58.307,-7.216 58.307,-7.216 -24.045,-12.026 -60.707,12.63 -60.707,12.63 z"
       id="path38"
       inkscape:connector-curvature="0"
       style="fill:#a4a9ad" />
    <path
       d="m 388.545,274.803 c -31.343,-15.15 -61.85,-12.96 -81.753,-8.55 -14.065,3.12 -22.836,7.344 -22.836,7.344 -55.902,23.452 -82.353,27.662 -102.188,21.646 -1.202,1.207 -1.202,2.406 -3.607,2.406 -4.9,-0.934 -13.78,-6.128 -19.023,-15.825 l -16.995,28.092 c 4.69,9.45 13.134,13.515 21.6,16.597 20.528,8.068 39.47,5.2 58.435,0.163 27.68,-7.337 55.415,-19.29 88.222,-8.583 20.446,7.215 51.7,25.85 51.7,40.89 -31.255,16.23 -50.49,-1.206 -52.897,-3.61 10.822,16.838 35.465,16.23 51.69,7.213 l 8.91,-4.425 -4.095,-8.804 2.405,-2.407 7.207,6.01 -4.808,-14.428 c 0,-1.2 13.227,12.03 13.227,12.03 3.61,0 -12.028,-21.65 -12.028,-21.65 0,0 -6.005,3.606 -8.414,4.81 -7.212,-13.227 -29.456,-24.65 -33.658,-26.455 -8.416,-3.61 -36.666,-12.03 -63.717,-8.42 17.433,-6.613 32.462,-8.42 46.885,-7.212 36.067,2.404 55.306,28.86 55.306,28.86 l 6.007,-4.81 c 0,0 25.248,26.455 28.855,43.293 V 322.9 c 1.202,-1.2 1.202,-1.2 2.405,-2.404 2.407,1.205 4.81,6.014 4.81,6.014 l 1.206,-15.638 c 9.616,9.625 15.625,22.85 18.033,36.08 1.2,-28.856 -16.83,-56.517 -40.88,-72.15 z"
       id="path40"
       inkscape:connector-curvature="0"
       style="fill:#ffffff" />
    <path
       d="m 360.893,266.99 c 0,0 31.954,20.82 32.805,26.943 l -5.863,7.005 -1.97,9.462 -5.827,-6.835 c 0,0 -1.938,0.305 -2.915,1.603 -7.214,-9.625 -19.24,-15.632 -30.052,-21.648 -25.245,-8.417 -52.897,-8.417 -78.14,0 -26.45,12.023 -52.9,24.052 -81.753,24.052 -35.486,-3.077 -36.337,-27.942 -36.545,-42.55 l 4.09,-23.29 c 0,0 -31.262,60.126 14.427,70.65 33.655,6.015 64.914,-8.412 93.77,-21.647 15.026,-5.715 63.715,-22.547 104.59,14.433 3.604,1.205 4.807,4.808 8.41,7.212 1.203,-1.198 4.807,-2.404 4.807,-2.404 l 8.42,9.625 c 0,0 1.205,-9.623 2.408,-14.43 1.204,-1.2 2.4,-2.407 2.4,-2.407 l 3.607,-6.014 v -4.812 c -11.82,-17.936 -36.667,-24.95 -36.667,-24.95 z"
       id="path42"
       inkscape:connector-curvature="0"
       style="fill:#236192" />
    <path
       d="m 370.918,374.617 -2.406,4.81 c -35.27,12.427 -50.095,-1.603 -51.695,-4.007 25.644,12.825 54.1,-0.803 54.1,-0.803 z"
       id="path44"
       inkscape:connector-curvature="0"
       style="fill:#a4a9ad" />
    <path
       d="m 397.76,375.015 -0.8,4.412 c -52.09,28.86 -72.934,5.206 -72.934,5.206 0,0 26.85,18.045 73.735,-9.618 z"
       id="path46"
       inkscape:connector-curvature="0"
       style="fill:#a4a9ad" />
  </g>
</svg>
