<?xml version="1.0" encoding="UTF-8" standalone="no"?>
<svg
   xmlns:dc="http://purl.org/dc/elements/1.1/"
   xmlns:cc="http://creativecommons.org/ns#"
   xmlns:rdf="http://www.w3.org/1999/02/22-rdf-syntax-ns#"
   xmlns:svg="http://www.w3.org/2000/svg"
   xmlns="http://www.w3.org/2000/svg"
   xmlns:sodipodi="http://sodipodi.sourceforge.net/DTD/sodipodi-0.dtd"
   xmlns:inkscape="http://www.inkscape.org/namespaces/inkscape"
   inkscape:version="1.0 (4035a4fb49, 2020-05-01)"
   sodipodi:docname="columbus-blue-jackets.svg"
   id="svg28"
   version="1.1"
   viewBox="0 0 512 512"
   height="512"
   width="512">
  <metadata
     id="metadata34">
    <rdf:RDF>
      <cc:Work
         rdf:about="">
        <dc:format>image/svg+xml</dc:format>
        <dc:type
           rdf:resource="http://purl.org/dc/dcmitype/StillImage" />
      </cc:Work>
    </rdf:RDF>
  </metadata>
  <defs
     id="defs32" />
  <sodipodi:namedview
     inkscape:document-rotation="0"
     inkscape:current-layer="svg28"
     inkscape:window-maximized="0"
     inkscape:window-y="391"
     inkscape:window-x="35"
     inkscape:cy="256"
     inkscape:cx="256"
     inkscape:zoom="0.4609375"
     showgrid="false"
     id="namedview30"
     inkscape:window-height="480"
     inkscape:window-width="705"
     inkscape:pageshadow="2"
     inkscape:pageopacity="0"
     guidetolerance="10"
     gridtolerance="10"
     objecttolerance="10"
     borderopacity="1"
     bordercolor="#666666"
     pagecolor="#ffffff" />
  <g
     style="fill:none;fill-rule:evenodd"
     transform="translate(0,38.033899)"
     id="g26">
    <path
       style="fill:#a4a9ad"
       inkscape:connector-curvature="0"
       id="path2"
       d="m 259.852,99.877 -16.46,34.44 c -24.484,2.25 -59.958,11.335 -91.662,28.12 -41.31,21.866 -76.584,57.506 -76.584,100.33 0,61.13 58.6,78.014 64.618,81.246 l -26.95,66.465 71.148,-56.305 c 38.38,5.473 87.624,2.73 112.956,-1.74 l 77.84,68.387 -26.563,-79.97 c 0,0 19.237,-6.502 25.956,-10.247 L 446.346,164.4 c -58.863,34.41 -111.83,54.73 -111.83,54.73 l 102.618,-76.335 -64.81,11.03 c 0,0 -36.32,-23.83 -101.48,-21.87 l -10.99,-32.078 z" />
    <path
       style="fill:#041e42"
       inkscape:connector-curvature="0"
       id="path4"
       d="m 433,179.437 c -53.714,29.94 -90.665,45.128 -128.713,58.997 l -2.24,-6.655 116.083,-80.623 -128.916,33.005 72.006,-29.08 c 0,0 -34.7,-19.808 -94.967,-16.8 l -7.41,-21.993 -40.158,83.357 -60.938,17.27 56.384,-23.12 26.02,-53.08 c -7.24,1.128 -14.95,2.435 -22.82,4.243 -76.73,17.637 -136.036,66.26 -136.036,117.376 0,54.128 47.728,71.3 66.88,77.903 L 123,395.535 182.108,347.553 c 40.64,6.095 89.92,3.86 116.91,-1.626 l 65.505,58.267 -24.538,-67.526 c 0,0 14.51,-3.68 29.376,-10.655 L 433,179.435 Z m -246.584,78.018 c -19.638,-2.614 -25.644,-9.4 -25.644,-14.854 0,-2.03 0.965,-4.367 0.965,-4.367 l 29.667,8.28 -4.988,10.943 z" />
    <path
       style="fill:#c8102e"
       inkscape:connector-curvature="0"
       id="path6"
       d="m 368.754,220.13 c -66.957,34.764 -125.48,48.514 -163.006,48.514 -49.65,0 -71.9,-23.674 -71.9,-38.575 0,-35.52 53.035,-63.28 98.935,-74.324 l 3.775,-7.703 c -38.426,7.036 -81.803,23 -106.606,45.684 -24.18,16.256 -39.374,40.53 -39.374,68.492 0,41.15 34.126,79.71 139.69,79.71 67.26,0 113.796,-14.29 129.578,-22.216 -66.178,-0.406 -133.843,-20.117 -133.843,-20.117 0,0 86.158,-33.122 142.75,-79.47 z m -98.276,-69.57 h 0.025 a 252.58,252.58 0 0 1 20.693,-0.857 c 29.296,0 48.804,4.733 48.804,4.733 0,0 -20.83,-10.424 -63.4,-10.424 -2.61,0 -5.312,0.07 -8.094,0.202 l 1.972,6.347 z" />
    <g
       style="fill:#ffffff"
       id="g12">
      <path
         inkscape:connector-curvature="0"
         id="path8"
         d="m 270.93,310.056 c 0,0 -23.847,3.766 -53.11,3.766 -115.407,0 -123.413,-58.106 -123.413,-75.335 a 74.905,74.905 0 0 0 -3.828,23.59 c 0.07,1.206 4.512,67.393 132.067,67.393 52.394,0 96.08,-12.187 96.08,-12.187 -17.36,-1.848 -33.757,-4.52 -47.8,-7.227 z" />
      <path
         inkscape:connector-curvature="0"
         id="path10"
         d="m 318.415,254.568 c -0.287,0.113 -70.263,27.76 -118.763,27.76 -55.797,0 -81.18,-31.83 -81.18,-56.83 0,-17.34 11.48,-31.768 11.48,-31.768 -0.37,0.25 -0.743,0.503 -1.11,0.757 -0.16,0.12 -20.294,15.392 -20.294,39.414 0,39.1 38.533,60.554 83.416,60.554 25.468,0 51.106,-4.47 66.157,-8.635 16.835,-7.734 38.456,-18.41 60.296,-31.25 z" />
    </g>
    <path
       style="fill:#a4a9ad"
       inkscape:connector-curvature="0"
       id="path14"
       d="m 319.9,355.134 21.825,17.16 -11.104,-29.46 c -10.935,2.75 -10.72,12.3 -10.72,12.3 z M 199.062,258.45 c 1.946,0.065 3.98,0.1 6.108,0.1 31.843,0 69.116,-10.392 87.562,-16.24 l -5.482,-14.545 80.385,-52.73 -94.414,22.91 -16.61,-52.07 -26.392,62.928 -71.782,18.124 50.293,12.218 -9.666,19.306 z m -42.515,84.932 -11.93,23.832 22.253,-16.695 c 0,-0.004 -2.188,-7.185 -10.322,-7.14 z" />
    <g
       style="fill:#ffffff"
       id="g20">
      <path
         inkscape:connector-curvature="0"
         id="path16"
         d="m 256.583,154.757 12.954,44.255 -26.572,17.168 z m -83.55,71.06 58.522,-15.9 11.41,6.263 z m -14.675,117.687 -8.965,17.563 11.027,-17.076 a 10.726,10.726 0 0 0 -2.062,-0.485 z m 46.815,-84.953 c 3.5,0 7.062,-0.125 10.66,-0.356 l 27.132,-42.014 -31.53,23.345 -9.697,18.994 c 1.118,0.02 2.26,0.03 3.435,0.03 z" />
      <path
         inkscape:connector-curvature="0"
         id="path18"
         d="m 335.173,363.303 -10.877,-17.355 c -2.105,1.793 -3.202,3.91 -3.775,5.66 l 14.654,11.695 z M 264.325,250.26 242.965,216.18 v 38.604 c 7.422,-1.325 14.64,-2.89 21.36,-4.523 z m -21.36,-34.08 42.168,8.944 67.922,-42.267 z" />
    </g>
    <path
       style="fill:#ffffff"
       inkscape:connector-curvature="0"
       id="path22"
       d="m 263.252,290.86 -2.5,3.022 -3.966,0.497 2.617,1.252 -2.434,3.226 4.17,-2.145 2.833,2.096 -0.473,-3.353 3.7,-2.16 -3.843,0.388 z m 21.425,4.674 -2.236,2.64 -3.782,0.408 2.36,1.372 -2.36,2.895 3.82,-1.87 2.708,2.02 -0.347,-3.274 3.597,-1.932 -3.743,0.16 z m 8.113,-18.844 -2.61,3.315 -3.93,0.39 2.53,1.46 -2.443,3.163 4.18,-2.2 2.933,2.182 -0.527,-3.54 3.76,-2.117 -3.828,0.323 z m 21.508,2.474 -2.42,3.077 -3.643,0.363 2.346,1.353 -2.267,2.934 3.88,-2.042 2.716,2.026 -0.486,-3.283 3.486,-1.96 -3.55,0.297 z m -8.412,19.443 -2.407,2.734 -3.46,0.19 2.08,1.44 -2.3,2.88 3.876,-2.035 2.743,2.084 -0.51,-3.15 3.454,-1.958 -3.404,0.238 z m 26.966,2.11 -2.857,3.28 -4.085,0.41 2.575,1.457 -2.608,3.217 4.402,-2.267 3.047,2.337 -0.476,-3.59 4.1,-2.168 -4.165,0.168 z m -9.592,-42.647 -2.69,3.504 -4.7,0.558 2.87,1.525 -2.846,3.76 4.876,-2.668 3.405,2.512 -0.634,-3.988 4.446,-2.59 -4.547,0.507 z m 39.246,41.58 -3.76,4.318 -5.69,0.608 3.606,1.78 -3.53,4.57 5.903,-3.156 4.103,3.234 -0.686,-4.93 5.615,-2.945 -5.615,0.25 z m 10.616,-26.198 -3.285,4.2 -5.216,0.576 3.255,1.727 -3.32,4.267 5.555,-2.98 3.74,2.693 -0.767,-4.327 5.39,-3.04 -5.402,0.62 z m 8.942,-26.078 -3.38,4.344 -5.664,0.66 3.456,1.83 -3.456,4.572 5.995,-3.2 4.166,3.072 -0.89,-4.877 5.463,-3.124 -5.436,0.51 z m -25.198,-10.972 -2.64,4.852 -5.795,1.168 3.99,1.753 -2.692,4.75 5.588,-3.785 5.13,2.768 -1.853,-4.825 4.78,-3.76 -5.566,1.09 z m 34.3,-20.412 -3.99,5.63 -7.094,0.845 4.838,2.36 -4.062,5.9 7.217,-4.12 5.42,3.75 -1.33,-6.152 6.562,-3.956 -6.956,0.827 z m -66.408,65.116 c 0,3.15 2.338,12.396 13.41,12.396 12.093,0 24.794,-11.684 24.794,-23.368 0,-7.214 -5.08,-13.004 -13.107,-13.004 -15.443,0 -25.097,14.833 -25.097,23.976 z" />
    <path
       style="fill:#c8102e"
       inkscape:connector-curvature="0"
       id="path24"
       d="m 328.416,279.55 c 0,5.417 3.522,10.566 10.228,10.566 10.635,0 20.49,-10.03 20.49,-19.744 0,-5.114 -3.966,-10.278 -10.398,-10.278 -11.43,-0.002 -20.32,11.853 -20.32,19.455 z" />
  </g>
</svg>
