<?xml version="1.0" encoding="UTF-8" standalone="no"?>
<svg
   xmlns:dc="http://purl.org/dc/elements/1.1/"
   xmlns:cc="http://creativecommons.org/ns#"
   xmlns:rdf="http://www.w3.org/1999/02/22-rdf-syntax-ns#"
   xmlns:svg="http://www.w3.org/2000/svg"
   xmlns="http://www.w3.org/2000/svg"
   xmlns:sodipodi="http://sodipodi.sourceforge.net/DTD/sodipodi-0.dtd"
   xmlns:inkscape="http://www.inkscape.org/namespaces/inkscape"
   inkscape:version="0.92.5 (2060ec1f9f, 2020-04-08)"
   sodipodi:docname="dallas-stars.svg"
   id="svg24"
   version="1.1"
   viewBox="0 0 512 512"
   height="512"
   width="512">
  <metadata
     id="metadata30">
    <rdf:RDF>
      <cc:Work
         rdf:about="">
        <dc:format>image/svg+xml</dc:format>
        <dc:type
           rdf:resource="http://purl.org/dc/dcmitype/StillImage" />
      </cc:Work>
    </rdf:RDF>
  </metadata>
  <defs
     id="defs28" />
  <sodipodi:namedview
     inkscape:document-rotation="0"
     inkscape:current-layer="svg24"
     inkscape:window-maximized="0"
     inkscape:window-y="132"
     inkscape:window-x="723"
     inkscape:cy="256"
     inkscape:cx="256"
     inkscape:zoom="0.4609375"
     showgrid="false"
     id="namedview26"
     inkscape:window-height="480"
     inkscape:window-width="705"
     inkscape:pageshadow="2"
     inkscape:pageopacity="0"
     guidetolerance="10"
     gridtolerance="10"
     objecttolerance="10"
     borderopacity="1"
     bordercolor="#666666"
     pagecolor="#ffffff" />
  <g
     style="fill:none;fill-rule:evenodd"
     transform="matrix(0.8915141,0,0,0.91972937,61.537705,36.573242)"
     id="g22">
    <path
       style="fill:#006341"
       inkscape:connector-curvature="0"
       id="path2"
       d="m 272.613,67.11 c 0.767,4.744 1.014,9.56 1.57,14.343 3.586,35.282 7.04,70.583 10.71,105.86 17.783,1.71 35.857,8.202 48.347,21.446 45.68,-0.038 91.366,0.004 137.052,-0.026 5.228,-0.314 10.468,-0.163 15.708,-0.133 v 0.17 c -48.415,25.9 -96.787,51.91 -145.19,77.83 -9.278,19.653 -23.09,37.38 -40.965,49.87 3.43,33.783 6.79,67.567 10.208,101.345 -31.783,-25.51 -63.44,-51.18 -95.193,-76.73 -4.697,0.434 -9.472,0.06 -14.126,0.664 -52.122,27.86 -104.146,55.924 -156.292,83.74 16.813,-28.016 33.776,-55.95 50.588,-83.965 -12.526,-0.012 -25.058,0.024 -37.585,-0.018 17.072,-28.7 34.2,-57.364 51.32,-86.04 -27.577,-22.232 -55.14,-44.49 -82.717,-66.72 40.833,-0.007 81.67,0.005 122.51,-0.007 4.413,-7.343 8.783,-14.705 13.166,-22.062 12.937,0.018 25.874,0 38.81,0.006 24.002,-39.87 48.1,-79.687 72.08,-119.575 z m -6.598,26.28 c -20.223,33.712 -40.676,67.284 -60.838,101.03 -12.99,0.352 -26.013,-0.09 -39.01,0.22 -3.99,6.842 -8.125,13.6 -12.14,20.43 -0.446,0.66 -0.833,1.753 -1.853,1.53 -34.584,-0.037 -69.17,0.048 -103.754,-0.043 23.296,18.914 46.695,37.7 70.04,56.554 0.928,0.564 -0.092,1.507 -0.345,2.16 -15.61,26.034 -31.084,52.16 -46.713,78.18 12.533,0.183 25.07,-0.023 37.603,0.098 -1.11,2.32 -2.644,4.4 -3.9,6.637 -11.8,19.62 -23.664,39.206 -35.46,58.827 -1.11,1.9 -2.426,3.682 -3.247,5.737 44.316,-23.64 88.493,-47.554 132.832,-71.135 5.62,-0.15 11.265,-0.15 16.89,-0.52 1.686,-0.386 2.772,1.12 3.967,2 18.696,15.12 37.434,30.188 56.124,45.306 8.025,6.323 15.81,12.96 23.938,19.144 -0.024,-0.484 -0.067,-1.445 -0.09,-1.93 -2.856,-28.397 -5.754,-56.788 -8.537,-85.186 19.114,-12.017 33.63,-30.453 42.88,-50.902 0.556,-1.1 1.9,-1.402 2.88,-2.02 38.7,-20.738 77.39,-41.502 116.086,-62.247 0.157,-0.17 0.477,-0.51 0.634,-0.678 -41.45,0 -82.89,0.062 -124.334,-0.03 -4.89,-5.603 -10.81,-10.31 -17.488,-13.612 -10.66,-5.464 -22.662,-7.586 -34.518,-8.3 -3.562,-34.284 -6.9,-68.594 -10.408,-102.885 -0.446,0.52 -0.887,1.052 -1.237,1.638 z" />
    <path
       style="fill:#010101"
       inkscape:connector-curvature="0"
       id="path4"
       d="m 266.015,93.39 c 0.35,-0.585 0.79,-1.117 1.237,-1.637 3.508,34.29 6.846,68.6 10.408,102.886 11.856,0.71 23.857,2.833 34.518,8.297 6.677,3.3 12.6,8.01 17.488,13.613 41.443,0.092 82.885,0.03 124.333,0.03 l -0.636,0.678 c -38.695,20.745 -77.385,41.51 -116.086,62.248 -0.98,0.617 -2.325,0.92 -2.88,2.02 -9.25,20.448 -23.767,38.884 -42.88,50.9 2.783,28.4 5.68,56.79 8.536,85.188 0.024,0.484 0.067,1.445 0.09,1.93 -8.125,-6.185 -15.912,-12.822 -23.935,-19.145 -18.69,-15.12 -37.428,-30.19 -56.124,-45.307 -1.195,-0.882 -2.28,-2.387 -3.966,-2 -5.625,0.368 -11.27,0.368 -16.89,0.52 -44.34,23.58 -88.516,47.492 -132.832,71.133 0.82,-2.055 2.137,-3.838 3.248,-5.736 11.795,-19.62 23.658,-39.205 35.46,-58.826 1.255,-2.237 2.788,-4.316 3.9,-6.637 -12.533,-0.12 -25.07,0.085 -37.604,-0.097 15.63,-26.022 31.102,-52.147 46.713,-78.18 0.253,-0.654 1.273,-1.597 0.344,-2.16 -23.346,-18.853 -46.745,-37.64 -70.04,-56.553 34.584,0.09 69.17,0.006 103.753,0.042 1.02,0.222 1.407,-0.87 1.853,-1.53 4.015,-6.83 8.15,-13.59 12.14,-20.43 12.997,-0.31 26.02,0.13 39.01,-0.22 20.162,-33.747 40.615,-67.32 60.838,-101.03 z m -13.897,53.774 c -12.737,21.084 -25.408,42.204 -38.188,63.264 -12.895,-0.03 -25.79,-0.025 -38.684,-0.006 -4.376,7.344 -8.783,14.67 -13.136,22.038 -22.45,0.085 -44.907,-0.102 -67.358,0.09 a 70.512,70.512 0 0 0 -1.086,-0.253 c 0.598,1.27 1.95,1.91 2.952,2.823 14.39,11.624 28.825,23.2 43.18,34.872 -8.843,14.458 -17.39,29.11 -26.138,43.642 -4.655,7.955 -9.58,15.76 -14.06,23.804 l -0.332,0.18 c 20.247,0.068 40.494,0.013 60.742,0.032 1.37,0.06 2.83,-0.28 4.117,0.35 -2.487,0.544 -4.896,1.384 -7.39,1.886 l -0.114,0.14 c -8.3,2.14 -16.553,4.478 -24.847,6.654 -3.75,6.214 -7.504,12.422 -11.235,18.648 -3.53,5.996 -7.4,11.817 -10.66,17.965 0.66,-0.387 1.31,-0.792 2.018,-1.076 1.732,-0.64 3.29,-1.644 4.926,-2.48 21.352,-11.47 42.722,-22.902 64.074,-34.374 4.914,-2.497 9.653,-5.423 14.663,-7.683 9.038,0.018 18.093,-0.11 27.106,-0.925 18.817,15.3 37.724,30.483 56.6,45.704 l -0.03,0.197 c 0.477,0.332 0.978,0.665 1.46,1.003 -1.725,-16.355 -3.252,-32.742 -5.166,-49.075 -6.72,0.858 -13.505,0.816 -20.266,0.822 -5.446,-0.042 -10.89,-0.308 -16.324,-0.647 14.748,-2.533 29.387,-6.86 42.288,-14.61 11.258,-6.65 20.838,-15.97 28.245,-26.723 6.92,-10.077 12.798,-21.156 15.22,-33.24 1.382,-6.395 1.164,-12.972 0.102,-19.39 1.762,2.217 3.296,4.61 4.66,7.095 2.51,4.854 3.966,10.192 4.636,15.608 18.257,-9.84 36.476,-19.754 54.72,-29.613 0.235,-0.218 0.706,-0.647 0.94,-0.864 0.224,-0.025 0.67,-0.085 0.895,-0.11 l -0.375,-0.416 c -22.946,-0.03 -45.898,-0.06 -68.85,0.012 l -0.06,-0.13 c -4.528,-8.25 -12.508,-14.12 -21.2,-17.38 -11.712,-4.53 -24.468,-4.797 -36.856,-4.53 -2.408,-22.644 -4.388,-45.348 -6.99,-67.967 -0.054,-0.593 -0.11,-1.19 -0.157,-1.783 -1.527,2.032 -2.656,4.317 -4.04,6.444 z" />
    <path
       style="fill:#010101"
       inkscape:connector-curvature="0"
       id="path6"
       d="m 187.15,244.79 c 20.133,-0.18 40.272,-0.023 60.41,-0.077 6.744,0.29 13.88,0.768 19.813,4.316 3.09,1.78 5.186,4.967 5.928,8.43 1.13,5.954 -0.83,12.017 -3.62,17.233 -6.387,11.467 -17.5,20.226 -30.147,23.708 -7.003,1.97 -14.3,2.594 -21.55,2.817 -14.713,0.06 -29.425,-0.066 -44.13,0.067 0.507,-1.336 1.352,-2.497 2.1,-3.7 8.398,-13.83 16.916,-27.587 25.29,-41.43 -4.668,-3.832 -9.382,-7.592 -14.09,-11.364 z" />
    <path
       style="fill:#8a8d8f"
       inkscape:connector-curvature="0"
       id="path8"
       d="m 255.548,143.018 a 48.8,48.8 0 0 0 0.766,-0.514 c 2.602,22.62 4.582,45.323 6.99,67.966 -7.87,0.218 -15.755,0.012 -23.627,0.11 0.332,-2.594 1.11,-5.103 1.666,-7.654 4.745,-19.965 9.418,-39.96 14.205,-59.908 z m -67.37,89.388 c 0.99,-1.692 1.943,-3.415 3.12,-4.98 23.375,0.132 46.743,0.018 70.117,0.054 8.73,0.15 17.82,1.18 25.524,5.615 4.46,2.527 7.966,6.523 10.164,11.14 a 2306.834,2306.834 0 0 0 24.255,-11.853 l 0.06,0.127 c 1.322,2.676 2.22,5.53 3.374,8.285 1.063,6.42 1.28,12.996 -0.102,19.39 -2.42,12.085 -8.3,23.165 -15.22,33.24 -7.406,10.755 -16.986,20.075 -28.245,26.724 -12.9,7.75 -27.54,12.077 -42.287,14.61 -5.42,0.713 -10.853,1.323 -16.274,1.994 -9.013,0.816 -18.068,0.943 -27.105,0.925 -5.01,2.26 -9.75,5.185 -14.662,7.682 -21.352,11.473 -42.722,22.903 -64.074,34.376 -1.636,0.833 -3.193,1.836 -4.926,2.477 -0.193,-0.725 0.278,-1.257 0.797,-1.68 13.172,-12.017 26.302,-24.076 39.456,-36.117 1.535,-1.42 3.19,-2.732 4.475,-4.395 l 0.114,-0.14 c 2.492,-0.5 4.9,-1.34 7.39,-1.885 -1.288,-0.628 -2.748,-0.29 -4.12,-0.35 -20.246,-0.018 -40.493,0.036 -60.74,-0.03 l 0.33,-0.182 c 12.208,-6.014 24.486,-11.932 36.638,-18.043 6.146,-9.823 11.887,-19.91 17.893,-29.824 11.344,-19.06 22.706,-38.106 34.05,-57.165 z m -1.027,12.386 c 4.71,3.772 9.426,7.53 14.09,11.364 -8.37,13.842 -16.89,27.6 -25.286,41.43 -0.748,1.203 -1.593,2.363 -2.1,3.7 -12.23,6.08 -24.6,11.89 -36.758,18.09 24.322,-0.035 48.644,-0.005 72.966,-0.017 15.78,0.215 31.82,-2.02 46.393,-8.3 17.217,-7.285 31.735,-21.267 38.587,-38.796 3.447,-8.686 5.125,-18.636 1.926,-27.655 -7.957,3.79 -15.835,7.75 -23.785,11.563 l 0.122,1.287 c -0.743,-3.462 -2.838,-6.648 -5.928,-8.43 -5.934,-3.55 -13.07,-4.027 -19.813,-4.317 -20.138,0.055 -40.276,-0.103 -60.41,0.08 z M 93.668,232.297 c 0.272,0.06 0.815,0.188 1.087,0.254 0.47,0.214 1.42,0.63 1.895,0.836 18.285,5.767 36.624,11.358 54.892,17.18 -3.947,6.455 -7.624,13.08 -11.74,19.427 -14.356,-11.672 -28.79,-23.248 -43.182,-34.872 -1.002,-0.91 -2.354,-1.552 -2.952,-2.822 z m 288.128,2.46 c 2.644,-0.604 5.234,-1.504 7.957,-1.734 -0.235,0.217 -0.706,0.647 -0.94,0.864 -18.244,9.86 -36.463,19.772 -54.718,29.613 -0.67,-5.416 -2.125,-10.753 -4.636,-15.607 17.428,-4.443 34.892,-8.747 52.338,-13.135 z m -126.53,100.65 c 6.76,-0.006 13.546,0.036 20.265,-0.822 1.913,16.333 3.44,32.72 5.167,49.077 -0.483,-0.34 -0.984,-0.67 -1.46,-1.004 l 0.03,-0.2 a 2.1,2.1 0 0 0 -0.206,-1.782 c -7.937,-15.088 -16.002,-30.11 -23.795,-45.27 z" />
    <path
       inkscape:connector-curvature="0"
       id="path10"
       d="m 100.706,335.86 c 0.312,-0.513 2.3,-3.898 4.42,-7.524 3.552,-6.08 30.724,-51.44 41.802,-69.786 2.617,-4.333 4.666,-7.963 4.554,-8.068 -0.112,-0.104 -12.44,-4.01 -27.396,-8.677 -14.956,-4.67 -27.45,-8.606 -27.765,-8.75 -0.357,-0.166 4.554,-0.287 13.17,-0.324 7.555,-0.032 22.55,-0.137 33.315,-0.233 l 19.577,-0.174 6.465,-10.82 6.463,-10.82 h 38.666 l 19.58,-32.457 c 22.794,-37.782 22.445,-37.218 22.586,-36.483 0.057,0.3 -0.08,0.685 -0.31,0.853 -0.42,0.31 -16.235,66.222 -16.247,67.71 -0.002,0.256 5.103,0.368 20.964,0.46 22.264,0.128 22.696,0.152 30.024,1.646 13.2,2.693 23.84,9.323 29.635,18.468 0.5,0.79 0.886,1.455 0.86,1.48 -0.13,0.102 -23.745,11.572 -23.83,11.572 -0.054,0 -0.554,-0.78 -1.11,-1.735 -5.243,-8.953 -14.776,-13.625 -29.79,-14.6 -2.38,-0.153 -20.03,-0.28 -39.696,-0.282 l -35.407,-0.006 -0.833,1.217 c -0.46,0.67 -11.397,18.952 -24.308,40.626 -12.91,21.676 -24.94,41.822 -26.73,44.77 l -3.257,5.362 -13.453,6.656 c -14.48,7.164 -22.076,10.854 -22.347,10.854 -0.093,0 0.086,-0.418 0.398,-0.93 z m 228.02,-89.566 c -0.432,-0.748 -1.46,-2.328 -2.283,-3.51 -1.236,-1.775 -2.673,-4.807 -4.45,-9.387 l -0.25,-0.645 33.984,0.043 c 18.69,0.024 33.596,0.097 33.124,0.163 -0.47,0.066 -13.957,3.4 -29.97,7.41 -16.012,4.008 -29.17,7.288 -29.24,7.288 -0.07,0 -0.48,-0.613 -0.913,-1.362 z" />
    <path
       inkscape:connector-curvature="0"
       id="path12"
       d="m 143.836,316.248 c 3.306,-1.675 11.407,-5.682 18.002,-8.904 l 11.99,-5.857 23.646,-0.127 c 27.31,-0.146 31.472,-0.374 39.244,-2.147 16.972,-3.874 30.87,-15.962 35.97,-31.284 0.72,-2.168 0.788,-2.748 0.817,-7.058 l 0.03,-4.695 11.662,-5.676 c 7.277,-3.54 11.704,-5.55 11.774,-5.335 1.948,5.9 1.996,12.73 0.144,20.07 -4.446,17.628 -17.764,33.886 -35.24,43.02 -10.26,5.362 -22.087,8.724 -36.505,10.377 -3.773,0.432 -8.93,0.497 -45.897,0.575 l -41.647,0.087 6.01,-3.047 z m 107.234,43.22 c -15.327,-12.382 -27.74,-22.555 -27.583,-22.608 0.156,-0.052 3.745,-0.514 7.974,-1.026 6.537,-0.79 8.187,-0.9 10.984,-0.727 1.81,0.11 4.852,0.214 6.758,0.227 1.908,0.013 4.046,0.103 4.752,0.2 l 1.284,0.176 4.66,8.924 a 7977.91,7977.91 0 0 0 11.947,22.737 c 4.007,7.6 7.243,13.995 7.19,14.213 -0.058,0.242 -10.97,-8.39 -27.963,-22.115 z m -139.553,21.246 c 0.592,-1.064 4.315,-7.287 8.272,-13.83 3.955,-6.54 8.27,-13.7 9.582,-15.906 a 986.032,986.032 0 0 1 2.44,-4.084 c 0.126,-0.183 23.714,-6.392 23.964,-6.308 0.157,0.052 -0.276,0.598 -0.962,1.212 -11.302,10.126 -42.927,39.36 -43.068,39.81 -0.19,0.612 -0.62,1.028 -1.067,1.036 -0.133,0.002 0.244,-0.866 0.836,-1.93 z" />
    <path
       style="fill:#ffffff"
       inkscape:connector-curvature="0"
       id="path14"
       d="m 269.105,374.148 c -5.51,-4.457 -18.102,-14.637 -27.98,-22.624 -9.88,-7.987 -17.964,-14.57 -17.964,-14.628 0,-0.058 3.623,-0.543 8.048,-1.076 l 8.045,-0.97 3.946,0.217 c 2.17,0.12 5.764,0.282 7.985,0.36 l 4.038,0.147 5.132,9.83 a 6174.727,6174.727 0 0 0 11.915,22.658 c 5.71,10.804 7.43,14.326 6.93,14.207 -0.04,-0.01 -4.584,-3.667 -10.095,-8.123 z" />
    <path
       style="fill:#ffffff"
       inkscape:connector-curvature="0"
       id="path16"
       d="m 256.338,363.68 a 19464.04,19464.04 0 0 1 -27.774,-22.47 l -5.32,-4.326 7.427,-0.915 c 6.58,-0.81 8.4,-0.88 15.95,-0.62 l 8.526,0.298 2.584,4.913 c 17.108,32.528 21.285,40.59 21.182,40.9 -0.066,0.2 -10.225,-7.803 -22.574,-17.78 z m -144.5,17.038 c 0,-0.172 0.48,-1.15 1.068,-2.172 1.052,-1.833 18.788,-31.33 18.986,-31.576 0.263,-0.327 23.676,-6.4 23.576,-6.113 -0.063,0.18 -8.13,7.657 -17.926,16.618 A 19278.49,19278.49 0 0 0 115.785,377.4 c -2.17,1.997 -3.947,3.49 -3.947,3.318 z m -11.334,-44.215 c 0,-0.367 11.36,-19.49 28.74,-48.38 22.347,-37.148 22.43,-37.29 22.016,-37.678 -0.198,-0.185 -12.473,-4.117 -27.278,-8.736 -14.806,-4.62 -27.192,-8.557 -27.526,-8.747 -0.34,-0.194 14.053,-0.352 32.643,-0.36 l 33.25,-0.01 6.435,-10.843 6.437,-10.842 19.417,-0.105 19.416,-0.105 20.434,-33.854 c 11.24,-18.62 20.49,-33.69 20.555,-33.49 0.067,0.2 -3.268,14.662 -7.41,32.135 -4.143,17.472 -7.68,32.544 -7.858,33.492 l -0.324,1.723 18.264,0.006 c 19.43,0.008 25.51,0.314 32.094,1.616 4.433,0.876 11.186,3.086 14.487,4.74 5.858,2.934 12.62,8.68 15.39,13.074 1.156,1.833 1.246,2.276 0.52,2.574 -0.28,0.114 -5.546,2.67 -11.707,5.68 l -11.2,5.474 -1.655,-2.56 c -4.5,-6.967 -11.48,-11.025 -22.473,-13.065 -3.236,-0.6 -8.278,-0.696 -42.932,-0.814 -37.34,-0.13 -39.287,-0.1 -39.71,0.59 -0.245,0.396 -11.475,19.235 -24.956,41.862 -32.86,55.153 -28.93,48.973 -32.19,50.63 -8.356,4.245 -32.88,16.172 -32.88,15.99 z" />
    <path
       style="fill:#ffffff"
       inkscape:connector-curvature="0"
       id="path18"
       d="m 100.504,336.51 c 0,-0.365 5.307,-9.3 28.448,-47.904 12.65,-21.1 22.512,-37.963 22.31,-38.144 -0.2,-0.18 -12.475,-4.112 -27.28,-8.74 -14.806,-4.63 -27.192,-8.57 -27.526,-8.76 -0.337,-0.19 14.21,-0.35 32.64,-0.357 l 33.25,-0.012 6.433,-10.842 6.43,-10.84 19.42,-0.106 19.417,-0.106 20.44,-33.852 c 11.24,-18.62 20.49,-33.69 20.556,-33.493 0.066,0.198 -3.168,14.25 -7.188,31.226 -4.02,16.976 -7.555,32.05 -7.858,33.496 l -0.55,2.63 18.266,0.007 c 24.776,0.01 30.98,0.605 40.374,3.88 7.76,2.704 13.243,6.132 18.037,11.28 2.97,3.187 4.97,6.07 4.52,6.517 -0.286,0.286 -22.593,11.154 -23.113,11.26 -0.24,0.05 -0.895,-0.73 -1.453,-1.734 -1.608,-2.894 -6.73,-7.726 -9.976,-9.41 -3.71,-1.927 -8.074,-3.372 -12.784,-4.232 -3.39,-0.62 -8.126,-0.713 -42.892,-0.847 -37.298,-0.143 -39.108,-0.117 -39.715,0.583 -0.35,0.403 -11.658,19.246 -25.13,41.873 -13.47,22.627 -25.613,42.964 -26.984,45.194 l -2.494,4.053 -3.53,1.788 c -9.186,4.65 -32.07,15.777 -32.07,15.593 z m 226.82,-92.463 c -1.882,-2.79 -5.398,-10.12 -5.398,-11.254 0,-0.11 15.347,-0.183 34.104,-0.162 29.357,0.035 33.738,0.115 31.473,0.575 -2.218,0.45 -55.18,13.625 -57.122,14.21 -0.463,0.14 -1.34,-0.826 -3.054,-3.367 z" />
    <path
       style="fill:#ffffff"
       inkscape:connector-curvature="0"
       id="path20"
       d="m 155.758,310.41 17.81,-8.852 22.51,-0.03 c 27.94,-0.037 35.024,-0.54 44.08,-3.13 18.556,-5.305 34.293,-23.372 33.505,-38.466 l -0.19,-3.668 11.53,-5.58 c 6.34,-3.07 11.673,-5.43 11.85,-5.25 0.174,0.183 0.605,1.738 0.956,3.456 3.36,16.445 -7.767,39.172 -25.877,52.85 -10.886,8.222 -24.863,13.685 -41.326,16.15 -7.763,1.165 -18.305,1.43 -55.42,1.4 l -37.24,-0.03 17.81,-8.85 z m 102.604,54.902 a 33769.668,33769.668 0 0 0 -27.78,-22.43 c -4.04,-3.254 -7.32,-5.947 -7.285,-5.983 0.034,-0.038 3.34,-0.467 7.348,-0.956 6.383,-0.777 8.353,-0.852 15.89,-0.598 l 8.604,0.29 2.18,4.108 c 9.93,18.698 21.69,41.418 21.59,41.714 -0.064,0.198 -9.312,-7.068 -20.55,-16.148 z m -146.524,15.406 c 0,-0.172 0.48,-1.15 1.07,-2.172 1.15,-2 18.8,-31.364 18.98,-31.576 0.28,-0.334 23.68,-6.396 23.58,-6.11 -0.095,0.273 -11.847,11.1 -40.088,36.93 -1.948,1.782 -3.542,3.1 -3.542,2.928 z" />
  </g>
</svg>
