<?xml version="1.0" encoding="UTF-8" standalone="no"?>
<svg
   xmlns:dc="http://purl.org/dc/elements/1.1/"
   xmlns:cc="http://creativecommons.org/ns#"
   xmlns:rdf="http://www.w3.org/1999/02/22-rdf-syntax-ns#"
   xmlns:svg="http://www.w3.org/2000/svg"
   xmlns="http://www.w3.org/2000/svg"
   xmlns:sodipodi="http://sodipodi.sourceforge.net/DTD/sodipodi-0.dtd"
   xmlns:inkscape="http://www.inkscape.org/namespaces/inkscape"
   width="512"
   height="512"
   viewBox="0 0 512 512"
   version="1.1"
   id="svg22"
   sodipodi:docname="detroit-red-wings.svg"
   inkscape:version="0.92.5 (2060ec1f9f, 2020-04-08)">
  <metadata
     id="metadata28">
    <rdf:RDF>
      <cc:Work
         rdf:about="">
        <dc:format>image/svg+xml</dc:format>
        <dc:type
           rdf:resource="http://purl.org/dc/dcmitype/StillImage" />
      </cc:Work>
    </rdf:RDF>
  </metadata>
  <defs
     id="defs26" />
  <sodipodi:namedview
     pagecolor="#ffffff"
     bordercolor="#666666"
     borderopacity="1"
     objecttolerance="10"
     gridtolerance="10"
     guidetolerance="10"
     inkscape:pageopacity="0"
     inkscape:pageshadow="2"
     inkscape:window-width="640"
     inkscape:window-height="480"
     id="namedview24"
     showgrid="false"
     inkscape:zoom="0.4609375"
     inkscape:cx="256"
     inkscape:cy="256"
     inkscape:window-x="0"
     inkscape:window-y="0"
     inkscape:window-maximized="0"
     inkscape:current-layer="svg22" />
  <g
     id="g20"
     transform="translate(20,22)"
     style="fill:none;fill-rule:evenodd">
    <path
       d="m 433.24,204.824 c -14.068,12.326 -30.048,20.274 -47.45,26.057 -16.566,5.51 -33.655,8.05 -50.823,7.35 -2.164,-0.086 -3.568,-3.82 -5.777,-5.14 -1.813,-1.084 -4.467,-0.706 -6.828,-1.06 -0.9,-0.137 -1.033,-1.885 -0.44,-2.073 3.65,-1.192 7.564,-0.74 11.497,-1.382 1.764,-0.297 1.89,-2.586 3.16,-3.154 5.153,-2.302 10.92,-1.487 16.507,-2.03 1.397,-0.125 0.686,-2.63 1.636,-3.06 2.063,-0.915 4.217,0.714 6.478,1.243 1.957,0.485 1.97,-2.536 2.99,-2.24 3.996,1.123 5.67,0.196 8.514,-2.118 0.517,-0.435 1.768,-0.04 2.644,0.195 0.905,0.233 2.36,0.774 2.837,-0.4 3.027,-7.506 11.06,-0.28 15.708,-1.747 1.216,-0.37 -0.715,-2.44 0.208,-3.058 3.237,-2.096 7.088,0.68 10.393,-0.864 1.26,-0.597 0.052,-2.47 0.748,-3.247 1.073,-1.21 2.954,0.417 4.32,-0.24 1.027,-0.492 2.732,-1.047 3.52,-1.085 3.79,-0.108 6.42,-1.886 10.125,-2.496 0.6,-0.088 0.97,-1.098 1.573,-1.236 2.888,-0.687 8.11,0.26 8.46,0.46 0.42,0.258 0.86,0.573 0,1.33 z m -24.805,31.2 c 1.82,0.428 5.222,1.135 4.658,1.6 -28.72,23.605 -65.84,28.13 -100.35,28.477 -3.373,-4.522 -9.06,-6.473 -14.02,-9.27 -0.297,-0.16 -0.284,-1.528 0,-1.675 4.045,-2 8.56,-1.21 12.988,-1.897 1.64,-0.246 2.105,-2.675 3.628,-3.135 5.14,-1.578 10.147,-3.56 15.584,-3.338 4.564,0.196 9.02,0.58 13.595,0.367 1.372,-0.067 0.788,-2.82 2.078,-3.065 5.105,-0.927 9.914,1.1 15.055,0.052 1.03,-0.204 1.277,-2.26 1.705,-2.443 5.588,-2.258 12.103,-0.346 18.018,-2.39 -0.61,-0.543 -1.52,-1.356 -0.89,-1.854 0.993,-0.774 2.75,-0.378 3.867,-0.258 2.343,0.245 5.024,0.54 7.308,-1.142 1.536,-1.136 3.984,0.555 5.758,-0.038 1.894,-0.618 3.665,-1.742 5.598,-1.11 2.166,0.712 3.638,0.712 5.425,1.122 z m -74.99,48.838 c -19.58,3.676 -38.01,3.178 -56.873,-1.64 -0.962,-0.26 1.624,-2.17 2.997,-2.664 4.492,-1.588 9.407,-1.91 13.924,-3.54 0.945,-0.35 1.693,-1.797 2.41,-2.522 1.846,-1.885 5.03,-2.478 7.443,-3.204 7.388,-2.208 15.158,0.294 23.02,1.45 3.116,0.462 6.07,0.8 9.166,1.716 0.383,0.118 1.698,-0.4 1.83,-1.293 0.153,-1.02 0.176,-2.296 1.12,-2.32 2.487,-0.058 5.206,0.94 7.467,0.062 2.902,-1.136 6.093,-0.347 9.176,-0.79 0.813,-0.118 0.196,-1.292 1.02,-1.487 3.14,-0.73 6.433,0.726 9.263,-0.593 2.15,-1.003 6.947,1.95 7.88,3.13 -12.337,6.95 -25.496,11.006 -39.847,13.695 z m -0.038,16.557 c -12.487,3.864 -25.106,3.81 -37.82,3.82 -12.964,0.032 -25.083,-3.81 -37.82,-7.32 -0.756,-0.205 -0.643,-1.2 -0.436,-1.33 1.79,-1.006 4.05,-0.438 5.944,-1.24 1.02,-0.415 1.233,-1.785 2.126,-2.327 1.17,-0.725 3.79,-0.63 4.908,-1.306 1.637,-0.978 2.116,-2.158 3.73,-3.123 1.495,-0.894 3.332,0.582 5.485,0.115 4.348,-0.915 7.49,2.945 11.55,4.13 1.623,0.467 3.058,-0.965 4.486,-0.73 1.636,0.26 2.9,1.765 4.587,2.256 1.314,0.386 2.272,0.43 3.625,-0.233 1.905,-0.927 3.788,1.652 5.915,1.15 0.718,-0.165 0.707,-1.68 1.563,-1.756 3.438,-0.272 5.697,3.367 9.058,3.317 0.35,-0.013 0.636,-0.68 1.043,-0.852 1.796,-0.68 3.458,0.892 5.61,0.26 2.658,-0.788 5.08,1.293 6.83,3.343 0.82,0.933 0.613,1.528 -0.382,1.823 z m -39.358,18.203 c 1.19,0.902 1.807,2.405 1.41,2.532 -7.81,2.313 -20.638,0.995 -30.134,0.144 -8.448,-0.765 -16.415,-3.116 -24.17,-6.263 -5.186,-2.11 -10.195,-4.113 -15.087,-7.11 -1.315,-0.802 -3.31,-1.098 -3.506,-2.898 -0.025,-0.2 0.377,-0.8 0.454,-0.838 2.85,-1.42 6.06,0.613 8.956,-0.32 1.02,-0.336 1.744,-2.083 2.58,-2.07 2.115,0.024 4.42,0.8 6.37,-0.644 1.428,-1.085 3.53,-0.322 5.023,0.37 2,0.935 5.22,5.377 7.745,4.877 0.7,-0.146 4.897,-0.983 5.607,-0.574 3.934,2.366 10.297,7.06 14.71,7.31 0.862,0.06 1.427,-2.54 2.523,-1.973 2.67,1.407 4.4,3.4 6.59,3.795 0.705,0.134 1.995,-0.977 2.818,-0.85 1.614,0.232 2.555,1.432 4.32,2.686 0.76,0.532 2.568,0.878 3.786,1.824 z m -32.274,16.572 c -28.252,0.663 -53.994,-15.832 -72.53,-37.81 -0.27,-0.32 -0.295,-1.356 0.403,-1.32 3.247,0.235 5.796,2.354 8.684,3.697 3.16,1.446 6.728,5.798 9.975,3.256 0.673,-0.532 0.27,-1.565 0.98,-1.37 4.257,1.122 7.208,4.7 10.3,7.777 2.655,2.664 4.033,6.39 7.475,8.075 1.498,0.718 2.63,-2.676 3.8,-1.652 2.584,2.255 4.37,4.493 7.133,6.56 1.144,0.865 1.83,-1.746 2.29,-1.96 1.214,-0.555 4.01,2.244 5.412,3.368 1.768,1.405 3.674,3.304 5.89,4.636 1.095,0.65 2.065,-0.927 3.084,-0.51 1.65,0.68 3.224,1.676 5.017,2.18 1.12,0.31 2.108,2.69 2.977,3.773 1.107,1.357 -0.234,1.288 -0.893,1.3 z m -60.12,52.623 c -12.858,7.466 -26.238,11.378 -40.763,12.722 -6.786,0.624 -13.407,0.17 -20.122,-0.827 -46.466,-6.88 -83.512,-49.153 -82.83,-95.662 0,-0.094 0.697,1.617 1.572,1.925 1.057,0.36 1.485,-0.503 2.163,-1.27 0.97,-1.093 2.054,1.245 3.344,0.792 0.396,-0.153 0.74,-0.88 0.99,-0.816 2.49,0.593 2.53,-2.415 4.523,-1.924 1.2,0.295 0.86,2.157 1.56,3.304 0.712,1.18 1.96,1.343 2.98,0.885 3.736,-1.647 2.41,-6.102 4.6,-8.972 0.98,5.18 0.036,10.365 1.2,15.63 1.75,7.856 3.595,15.104 6.986,22.236 6.016,12.673 15.45,22.633 27.66,30.35 34.094,21.57 79.49,10.11 100.87,-22.2 3.085,0.637 6.95,1.91 10.61,2.43 a 21.47,21.47 0 0 0 6.02,0 c 0.39,-0.065 1.562,-0.424 1.447,-0.58 -3.06,-4.344 -9.48,-9.458 -10.007,-16.005 6.307,2.382 13.986,4.96 21.695,7.582 -10.182,20.307 -24.244,38.637 -44.497,50.397 z M 64.178,262.65 c 6.28,-12.043 14.533,-22.14 24.634,-31.35 13.023,-11.86 27.586,-19.69 44.907,-23.555 20.807,-4.623 40.14,-3.64 60.44,5.286 0.88,0.374 -1.65,5.698 -2.28,5.45 -34.23,-13.03 -74.45,-7.657 -100.4,19.01 -9.913,10.167 -20.826,20.796 -22.902,35.185 -1.686,-2.258 0.15,-5.565 -2.127,-7.463 -1.006,-0.813 -1.932,1.63 -2.77,0.752 -0.812,-0.845 0,-2.34 0.498,-3.31 z M 264.063,154.44 c 39.52,-0.837 88.408,1.112 115.48,-6.325 23.2,-6.36 39.515,-12.497 57.45,-29.767 2.792,-2.7 3.724,-2.208 1.967,0.7 -11.057,18.37 -30.158,31.818 -56.454,39.18 -29.582,8.294 -86.068,5.065 -118.442,6.332 -36.134,1.406 -63.058,15.164 -74.412,39.61 l -8.41,-3.376 c 10.183,-30.205 44.113,-45.527 82.82,-46.353 z m -84.84,160.573 c -2.424,-2.7 -2.512,-6.692 -0.932,-9.846 0.97,-1.926 4.13,-4.21 5.388,-2.776 1.253,1.408 1.856,3.763 2.89,5.154 0.824,1.112 2.09,1.256 2.937,2.517 0.862,1.28 1.688,3.596 2.814,4.5 0.81,0.674 1.93,0.97 2.68,1.81 0.58,0.63 0.692,1.6 1.233,2.13 0.542,0.52 1.498,0.58 2.103,1.124 1.057,0.927 1.794,3.167 3.084,3.515 0.716,0.18 1.893,-0.584 2.497,-0.235 1.108,0.675 2.033,1.565 2.914,2.562 0.927,1.053 1.8,2.206 2.747,3.253 0.86,0.952 1.686,2.334 2.77,2.984 0.772,0.448 2.27,-0.712 2.888,-0.196 0.812,0.662 1.197,2.367 2.028,2.858 1.12,0.67 2.756,0.05 3.386,1.21 0.8,1.438 2.19,4.77 3.505,6.656 -17.65,-2.908 -33.062,-13.928 -44.933,-27.22 z m -24.17,-74.92 c -34.66,0 -62.76,28.164 -62.76,62.916 0,34.735 28.1,62.9 62.76,62.9 20.87,0 39.363,-10.205 50.773,-25.91 l 8.39,2.992 c -12.827,19.013 -34.528,31.52 -59.162,31.52 -39.405,0 -71.346,-32.012 -71.346,-71.507 0,-39.495 31.94,-71.52 71.346,-71.52 10.403,0 21.76,2.662 31.72,7.303 v 9.903 a 62.5,62.5 0 0 0 -31.72,-8.6 z m 26.025,36.72 a 36.195,36.195 0 0 0 -8.987,-6.62 l 15.16,-12.958 c 0.09,6.618 -1.66,14.768 -4.472,21.228 l -1.7,-1.65 z m -25.91,62.67 a 36.29,36.29 0 0 0 15.865,-3.647 l 1.573,22.09 a 57.494,57.494 0 0 1 -17.44,2.7 c -1.084,0 -2.177,-0.037 -3.248,-0.09 l -3.298,-21.67 a 36.25,36.25 0 0 0 6.546,0.617 z m -7.59,-7.37 -1.366,-9.027 a 21.635,21.635 0 0 0 7.58,1.862 l -6.213,7.165 z m -2.28,7.912 3.078,20.193 c -5.853,-0.703 -11.435,-2.253 -16.616,-4.574 l 13.537,-15.62 z m -19.528,-15.43 c 1.068,1.44 2.215,2.847 3.503,4.14 a 36.438,36.438 0 0 0 13.752,8.64 l -14.488,16.72 a 57.764,57.764 0 0 1 -14.992,-11.307 l 12.224,-18.192 z m -2.4,-2.618 -12.21,18.16 a 57.688,57.688 0 0 1 -9.844,-16.64 z m -4.38,-24.935 a 38.01,38.01 0 0 0 -0.44,5.722 36.64,36.64 0 0 0 3.593,15.824 l -22.016,1.527 a 58.1,58.1 0 0 1 -2.623,-17.29 c 0,-0.554 0.025,-1.108 0.05,-1.665 z m -0.108,-3.514 -21.122,4.082 a 57.373,57.373 0 0 1 4.765,-18.37 z m 15.597,-21.03 a 36.803,36.803 0 0 0 -13.83,17.997 l -16.565,-14.484 a 58.223,58.223 0 0 1 12.732,-16.32 l 17.66,12.808 z m 4.082,-2.44 c -0.295,0.15 -0.603,0.293 -0.9,0.46 L 119.553,257.41 c 5.646,-4.46 12.13,-7.9 19.203,-9.986 l -0.195,22.633 z m -5.256,36.094 c 0.037,0.27 0.102,0.528 0.14,0.785 l -7.37,10.984 a 32.84,32.84 0 0 1 -3.69,-15.155 c 0,-1.938 0.195,-3.837 0.516,-5.71 l 10.404,9.098 z m 5.117,-17.802 a 20.554,20.554 0 0 0 -1.303,1.678 l -13.095,2.502 a 32.79,32.79 0 0 1 7.967,-13.008 c 1.78,-1.782 3.75,-3.303 5.84,-4.61 l 0.694,0.492 -0.102,12.946 z m -5.323,13.032 -6.627,-5.784 8.434,-1.628 a 22.565,22.565 0 0 0 -1.806,7.412 z m 5.45,16.07 -8.39,0.584 4.565,-6.782 a 22.013,22.013 0 0 0 3.826,6.2 z m 3.506,3.233 c 0.107,0.074 0.22,0.14 0.327,0.218 l 1.958,12.862 c -4.585,-1.615 -8.802,-4.206 -12.347,-7.758 a 32.47,32.47 0 0 1 -3.65,-4.383 l 13.714,-0.94 z m 5.558,-38.695 a 21.907,21.907 0 0 0 -5.72,3.103 l 0.06,-7.21 z m 17.905,1.242 a 21.874,21.874 0 0 0 -6.125,-2.193 l 5.386,-4.607 0.738,6.798 z m -0.568,-37.35 a 57.495,57.495 0 0 1 20.895,8 l -17.24,14.736 c -0.408,-0.163 -0.822,-0.31 -1.244,-0.448 l -2.41,-22.287 z m -2.246,77.774 a 22.21,22.21 0 0 0 7.156,-4.254 l 0.673,9.332 -7.83,-5.078 z m -7.54,-8.964 c -6.56,0 -11.884,-5.336 -11.884,-11.927 0,-6.574 5.324,-11.924 11.883,-11.924 6.577,0 11.9,5.35 11.9,11.926 0.003,6.59 -5.323,11.927 -11.9,11.927 z m 3.196,10.256 11.217,7.288 a 32.285,32.285 0 0 1 -14.415,3.393 c -1.895,0 -3.776,-0.19 -5.62,-0.507 l 8.817,-10.176 z m -16.33,-56.445 0.182,-22.002 a 58.22,58.22 0 0 1 12.952,-1.48 c 2.128,0 4.217,0.15 6.27,0.37 l 2.34,21.72 c -2.782,-0.674 -5.657,-1.06 -8.61,-1.06 -4.627,0 -9.045,0.88 -13.135,2.454 z m 13.133,1.396 c 3.11,0 6.148,0.452 9.05,1.292 l 0.114,1.095 -9.794,8.37 a 25.41,25.41 0 0 0 -2.542,0.235 l -10,-7.237 v -0.983 a 32.666,32.666 0 0 1 13.17,-2.774 z m 16.112,17.723 a 21.42,21.42 0 0 0 -2.02,-1.912 l -1.303,-11.99 0.926,-0.79 a 32.744,32.744 0 0 1 9.478,6.59 l 2.883,2.886 -2.24,4.624 -7.72,0.594 z m 1.498,2.105 5.243,-0.17 -2.216,5.09 c -0.68,-1.987 -1.845,-3.23 -3.028,-4.92 z m 1.278,39.868 -0.983,-13.732 c 1.857,2.612 4.243,6.352 6.485,8.258 -1.895,2.32 -3.052,3.726 -5.5,5.474 z m 18.252,17.39 c -4.832,4.082 -10.315,7.427 -16.32,9.74 l -1.523,-21.314 17.843,11.575 z m -15.83,-14.394 a 36.865,36.865 0 0 0 4.6,-3.86 l 2.268,-2.095 16.962,12.08 c -1.403,1.69 -3.053,3.697 -5.33,5.89 l -18.5,-12.016 z m 232.015,-159.02 c 17.442,-4.277 32.03,-13.41 43.67,-26.305 0.848,-1.124 3.75,-4.624 4.317,-5.746 0.554,-1.123 1.127,-1.123 0.7,0.145 -0.42,1.25 -3.287,5.88 -3.998,7.287 -7.26,11.91 -18.808,19.27 -30.6,25.32 -17.248,8.8 -35.758,14.018 -54.86,15.077 -34.03,1.91 -67.904,0.63 -101.895,0.762 -12.45,0.05 -24.193,3.91 -35.23,10.9 -11.71,7.432 -20.01,17.638 -25.544,29.82 -4.687,10.307 -4.34,21.793 -5.3,33.25 -1.257,15.17 -8.842,28.57 -19.767,34.674 4.834,-8.852 9.9,-19.052 11.56,-29.49 1.674,-10.493 0.04,-18.786 0.46,-28.047 0.97,-21.348 14.5,-39.754 33.07,-50.27 13.146,-7.457 26.96,-12.08 41.77,-12.635 11.624,-0.43 23.162,0.542 34.804,1.33 14.193,0.965 28.28,0.914 42.37,0.516 1.675,-0.035 3.89,0.015 5.576,-0.035 19.812,-0.665 39.162,-1.712 58.897,-6.556 z m -119.85,24.564 c 2.517,-0.972 6.007,2.642 8.853,0.152 1.637,-1.433 4.824,0.837 7.23,1.923 2.507,1.136 4.242,-0.567 6.308,-1.9 1.355,-0.875 3.456,1.736 5.835,1.163 0.813,-0.19 0.624,-2 1.436,-2.1 2.783,-0.33 5.23,2.296 7.777,1.172 0.91,-0.41 1.906,-2 2.9,-2.598 1.22,-0.745 2.88,0.984 3.776,0.182 2.624,-2.38 5.268,-1.383 7.704,-1.023 0.517,0.082 1.02,2.108 0.403,2.498 -10.293,6.402 -20.512,8.124 -32.275,9.43 -5.68,0.644 -16.97,-0.417 -23.873,-4.447 -3.907,-2.256 1.814,-3.614 3.928,-4.452 z m 4.94,53.303 c -10.87,2.517 -21.118,1.817 -31.722,-0.738 -2.208,-0.53 -3.453,-2.687 -5.21,-4.213 -0.384,-0.336 -2.215,-0.14 -2.277,-0.36 -0.736,-2.17 -1.29,-3.053 -3.043,-4.46 -0.272,-0.223 -0.486,-1.64 0.39,-1.718 2.705,-0.22 5.36,-0.54 8.044,-0.877 1.376,-0.17 1.44,-2.598 2.63,-3.103 2.78,-1.15 5.93,-1.294 9.007,-1.615 7.954,-0.826 15.714,-2.106 23.69,-1.514 8.017,0.612 15.46,3.216 23.18,5.584 0.988,0.296 2.743,0.922 1.882,2.29 -1.06,1.665 -3.304,1.678 -5.056,2.864 -2.324,1.566 -5.645,0.973 -7.734,2.96 -2.954,2.832 -6.926,3.05 -10.728,3.54 -1.045,0.143 -1.895,1.082 -3.052,1.36 z m -43.686,25.58 c -3.593,-0.908 -8.956,-2.07 -9.793,-4.28 0.486,0.14 1.417,-1.2 1.456,-1.588 0.113,-1.68 -3.198,-2.032 -4.343,-3.168 -0.296,-0.28 -0.528,-1.727 0.384,-1.74 1.77,-0.045 5.506,1.496 8.07,0.177 0.697,-0.345 0.736,-1.357 1.794,-1.793 1.06,-0.44 2.474,0.152 3.16,-0.207 0.653,-0.378 1.71,-0.492 2.2,-1.166 0.36,-0.498 -0.22,-1.9 0.31,-2.418 0.875,-0.875 2.09,-0.46 3.417,-1.324 0.85,-0.54 1.636,-1.944 2.317,-2.34 1.29,-0.752 2.993,-0.84 4.462,-0.947 4.165,-0.297 8.35,-0.114 12.578,0.43 3.598,0.456 7.077,0.802 10.62,1.834 5.803,1.68 11.497,2.945 16.64,6.093 -3.127,4.253 -8.27,4.472 -12.552,6.69 -3.454,1.8 -7.165,1.983 -10.763,3.067 -9.86,2.988 -20.043,5.17 -29.954,2.68 z m -48.682,12.476 c 1.53,0.26 2.743,-0.605 3.996,-0.295 1.687,0.41 2.386,0.57 3.68,1.236 0.838,-0.53 2.104,-0.717 2.532,-0.85 2.36,-0.75 5.08,0.726 7.553,0.543 1.21,-0.09 1.133,-2.665 2.053,-3.086 3.41,-1.553 7.9,0.717 11.504,-0.184 0.416,-0.113 0.108,-1.998 1.694,-3.165 0.654,-0.487 3.493,-0.53 4.405,-0.892 0.1,-0.37 0.206,-1.21 1.042,-1.638 2.732,-1.358 6.602,0.902 10.454,1.524 2.707,0.446 5.376,1.42 8.07,2.31 2.086,0.686 5.24,2.623 4.56,3.324 -10.868,11.07 -27.867,12.402 -42.822,11.33 -8.798,-0.64 -18.364,-0.753 -25.49,-6.554 -1.642,-1.32 0.448,-4.057 2.354,-5.072 1.365,-0.726 2.977,1.223 4.412,1.47 z m 20.222,-19.34 c 4.268,2.018 8.766,3.745 12.103,7.075 -7.44,4.5 -15.71,5.87 -24.255,7.276 -3.122,0.518 -6.395,1.062 -9.542,-0.19 1.83,-6.542 4.23,-12.867 6.564,-19.226 5.324,0.854 10.233,2.75 15.13,5.066 z m 14.217,-59.91 c 2.438,-0.85 5.51,-1.532 5.13,-4.842 -0.086,-0.77 1.19,-1.225 1.87,-1.313 1.858,-0.246 3.676,-0.314 5.495,-0.79 1.467,-0.376 2.072,-1.91 3.205,-2.723 3.957,-2.87 8.91,-0.058 12.762,-1.71 1.768,-0.775 3.568,-1.186 5.118,-0.282 3.862,2.277 9.554,3.154 10.725,7.853 -13.803,8.087 -30.173,10.312 -45.914,10.117 0.076,-2.328 -0.76,-5.463 1.61,-6.31 z m 8.033,11.66 c 5.054,1.097 8.945,3.733 13.47,5.512 1.755,0.687 5.506,2.712 3.8,3.708 -14.32,8.232 -30.933,9.28 -47.084,9.184 0.17,-2.452 1.39,-4.17 1.944,-6.458 0.71,-2.922 5.223,-3.653 5.154,-7.696 -0.025,-2.227 4.35,-1.798 5.726,-3.748 0.553,-0.776 1.108,-1.968 1.845,-2.095 5.117,-0.85 9.976,0.48 15.143,1.59 z m -33.698,28.12 c 1.045,-1.545 1.756,-3.65 2.644,-4.157 6.514,-3.75 15.067,-2.07 22.43,-0.013 6.35,1.766 12.902,3.267 17.566,8.187 0.26,0.27 0.22,1.217 0.026,1.306 -14.085,6.474 -29.542,9.186 -44.76,7.52 -0.44,-0.05 0.113,-3.294 -0.17,-5.412 -0.21,-1.477 1.215,-2.33 2.36,-3.71 0.615,-0.75 -0.863,-2.554 -0.096,-3.72 z m 124.468,-27.912 c -20.75,8.055 -43.208,8.055 -65.08,6.82 -0.902,-0.05 -1.112,-1.76 -1.742,-2.613 -0.797,-1.123 -2.605,-1.42 -3.567,-2.13 -0.774,-0.583 -0.698,-1.566 -1.536,-2.246 -0.786,-0.657 -2.902,-0.493 -4.173,-1.06 -0.478,-0.196 -1.08,-1.755 -0.478,-2.108 2.718,-1.59 6.924,1.18 8.648,-1.072 2.863,-3.71 6.544,-0.954 9.873,-2.235 1.02,-0.39 0.787,-1.716 1.248,-2.29 2.863,-3.49 8.148,-3.937 12.712,-4.043 3.752,-0.09 8.22,0.037 11.512,0.454 9.164,1.434 17.257,2.846 25.363,6.756 2.252,1.1 4.833,1.642 6.816,3.622 0.81,0.8 0.105,1.494 0.403,2.145 z m 124.962,-78.77 c -0.553,2.247 -1.22,4.314 -2.06,6.706 -6.175,17.543 -19.673,28.784 -34.288,39.484 -13.7,10.023 -27.492,16.325 -43.8,20.11 -12.397,2.87 -24.286,5.437 -36.734,4.548 -2.864,-0.208 -5.068,-2.095 -7.736,-3.413 -1.145,-0.556 -3.09,-0.386 -4.254,-1.043 -1.284,-0.738 -0.68,-2.39 0.893,-2.675 1.857,-0.34 3.94,0.423 5.375,-0.39 3.63,-2.064 7.616,-1.225 11.21,-2.38 2.128,-0.667 0.058,-3.677 1.643,-4.168 2.046,-0.662 4.292,-0.89 6.433,-1.464 1.026,-0.27 1.206,-2.76 1.724,-2.914 2.938,-0.857 8.005,0.398 11.93,0.32 1.242,-0.01 0.404,-2.275 1.938,-2.3 4.923,-0.052 4.482,0.555 7.8,-1.665 3.04,-2.036 10.408,0.83 10.32,-3.86 6.212,-1.033 12.867,0.814 18.462,-3.31 0.912,-0.66 2.585,0 3.84,-0.8 0.722,-0.46 0.672,-1.64 1.56,-1.9 2.334,-0.706 4.81,-0.68 6.985,-1.69 1.28,-0.594 1.06,-2.79 1.725,-3.086 13.563,-6.176 24.792,-14.483 32.625,-27.39 1.536,-2.518 3.25,-6.025 3.677,-7.148 0.412,-1.12 1.085,-0.95 0.732,0.43 z m -17.527,55.152 c -5.547,-0.442 -11.073,0.14 -16.618,-0.296 -0.888,-0.062 -0.666,-1.488 -0.386,-1.71 21.98,-17.53 38.36,-41.052 38.632,-68.933 0,-0.347 -0.584,-0.775 -0.842,-0.436 -15.207,20.088 -33.292,38.513 -58.645,41.61 -1.2,0.158 -1.28,-1.95 -0.35,-2.554 23.124,-15.09 40.038,-35.268 45.68,-62.4 0.066,-0.31 -0.526,-0.75 -0.835,-0.43 -16.54,17.304 -36.365,29.447 -59.155,36.14 -41.046,12.074 -82.938,7.98 -124.546,8.112 -16.478,0.052 -33.08,1.484 -48.274,8.618 -18.768,8.806 -34.88,23.03 -43.54,42.137 l -0.27,0.506 c -5.84,-1.023 -11.845,-1.53 -17.983,-1.53 -58.443,0 -105.837,47.48 -105.837,106.07 0,58.585 47.393,106.08 105.837,106.08 44.83,0 83.135,-27.933 98.568,-67.39 l 1.492,-0.024 c 5.186,0.208 10.907,0.403 16.024,-1.652 0.62,-0.26 2.413,-1.433 1.747,-2.726 -0.83,-1.576 -3.368,-4.76 -4.155,-6.888 -0.182,-0.463 -0.295,-1.384 0.442,-1.395 12.838,-0.09 26.643,0.737 38.448,-3.935 -2.988,-4.94 -9.836,-8.592 -13.6,-13.45 -0.85,-1.105 0.813,-1.708 1.378,-1.708 17.93,-0.065 34.646,-0.077 50.44,-8.138 0.593,-0.31 0.603,-0.957 0.258,-1.32 -3.493,-3.654 -7.81,-7.104 -11.856,-9.973 19.974,-4 41.954,-14.03 48.272,-19.71 0.667,-0.606 0.233,-1.192 -0.12,-1.59 -1.674,-2 -6.15,-5.015 -6.985,-5.853 -0.283,-0.284 -0.2,-1.225 -0.038,-1.308 17.763,-6.818 35.308,-14.61 48.066,-29.773 0.58,-0.712 -0.22,-1.654 -0.926,-1.797 -5.14,-0.986 -10.045,-1.22 -15.11,-1.15 0,-0.675 -0.204,-1.665 0.093,-1.85 13.287,-7.74 25.054,-15.864 35.08,-27.597 0.3,-0.35 0.5,-1.694 -0.386,-1.756 z"
       id="path2"
       inkscape:connector-curvature="0"
       style="fill:#ffffff" />
    <path
       d="m 442.27,200.25 c -10.027,11.733 -21.796,19.858 -35.082,27.598 -0.296,0.184 -0.093,1.173 -0.093,1.85 5.067,-0.07 9.97,0.163 15.11,1.148 0.708,0.145 1.506,1.085 0.926,1.797 -12.755,15.164 -30.3,22.955 -48.063,29.772 -0.162,0.083 -0.245,1.022 0.037,1.308 0.835,0.838 5.312,3.854 6.985,5.853 0.352,0.4 0.785,0.984 0.12,1.59 -6.32,5.682 -28.3,15.71 -48.273,19.712 4.044,2.87 8.363,6.32 11.856,9.973 0.345,0.363 0.336,1.01 -0.26,1.32 -15.79,8.063 -32.506,8.075 -50.438,8.14 -0.565,0 -2.228,0.603 -1.378,1.708 3.764,4.858 10.61,8.51 13.6,13.45 -11.806,4.672 -25.61,3.845 -38.448,3.936 -0.74,0.01 -0.625,0.933 -0.44,1.393 0.784,2.13 3.322,5.312 4.153,6.888 0.665,1.293 -1.13,2.467 -1.746,2.726 -5.118,2.058 -10.84,1.86 -16.024,1.653 l -1.492,0.025 c -15.43,39.458 -53.734,67.39 -98.567,67.39 -58.442,0 -105.836,-47.495 -105.836,-106.08 0,-58.587 47.392,-106.07 105.836,-106.07 6.14,0 12.143,0.506 17.983,1.528 l 0.27,-0.506 c 8.66,-19.108 24.772,-33.333 43.54,-42.138 15.194,-7.134 31.797,-8.566 48.274,-8.618 41.608,-0.13 83.5,3.962 124.547,-8.11 22.79,-6.693 42.616,-18.838 59.155,-36.14 0.308,-0.323 0.9,0.12 0.837,0.428 -5.646,27.132 -22.56,47.31 -45.683,62.4 -0.93,0.606 -0.85,2.712 0.347,2.554 25.352,-3.097 43.438,-21.524 58.644,-41.608 0.258,-0.34 0.842,0.09 0.842,0.436 -0.272,27.88 -16.653,51.404 -38.632,68.933 -0.28,0.222 -0.502,1.648 0.385,1.71 5.545,0.436 11.07,-0.145 16.617,0.297 0.89,0.065 0.69,1.408 0.387,1.756 z m -0.115,-5.09 c -2.924,-0.228 -5.825,-0.19 -8.623,-0.153 -0.565,0.013 -1.133,0.013 -1.686,0.013 16.806,-14.666 34.71,-37.312 35.006,-67.44 0.015,-1.64 -1.106,-3.174 -2.717,-3.728 -1.525,-0.517 -3.173,-0.02 -4.13,1.25 -11.87,15.68 -26.483,31.973 -46.375,38.15 21.086,-15.986 34.197,-35.723 39.003,-58.81 0.32,-1.616 -0.514,-3.295 -2.036,-4.108 -1.517,-0.802 -3.31,-0.518 -4.47,0.688 -16.163,16.893 -35.578,28.758 -57.696,35.254 -32.064,9.42 -65.415,8.82 -97.664,8.25 -8.502,-0.15 -17.296,-0.306 -25.956,-0.283 -15.25,0.058 -33.08,1.155 -49.678,8.938 -20.058,9.413 -35.704,24.287 -44.3,42.01 a 109.437,109.437 0 0 0 -16.077,-1.202 c -60.192,0 -109.165,49.077 -109.165,109.413 0,60.333 48.97,109.42 109.165,109.42 22.375,0 43.888,-6.744 62.203,-19.504 17.275,-12.017 30.56,-28.54 38.593,-47.877 4.993,0.193 11.008,0.295 16.53,-1.94 0.296,-0.12 2.796,-1.19 3.695,-3.62 a 4.638,4.638 0 0 0 -0.24,-3.748 c -0.402,-0.763 -0.994,-1.65 -1.692,-2.674 -0.152,-0.216 -0.308,-0.46 -0.478,-0.707 h 1.114 c 11.493,0.025 23.37,0.06 34.06,-4.175 a 3.398,3.398 0 0 0 1.94,-2.04 3.36,3.36 0 0 0 -0.315,-2.804 c -1.907,-3.167 -4.95,-5.696 -7.9,-8.15 -0.787,-0.66 -1.562,-1.307 -2.308,-1.95 16.44,-0.12 32.06,-0.815 47.09,-8.49 1.207,-0.617 2.032,-1.716 2.25,-3.034 a 4.134,4.134 0 0 0 -1.093,-3.564 c -1.882,-1.965 -4.085,-3.978 -6.57,-6.01 17.993,-4.672 36.54,-13.24 42.804,-18.887 1.535,-1.38 2.202,-3.848 0.208,-6.21 -0.968,-1.16 -2.486,-2.444 -3.984,-3.605 16.213,-6.42 32.666,-14.332 45.014,-29.042 0.976,-1.154 1.248,-2.687 0.743,-4.126 -0.554,-1.56 -1.96,-2.775 -3.58,-3.097 a 66.227,66.227 0 0 0 -7.09,-0.958 c 9.99,-6.225 20.107,-13.68 29.05,-24.167 1.06,-1.243 1.367,-3.272 0.738,-4.82 a 3.99,3.99 0 0 0 -3.382,-2.46 z"
       id="path4"
       inkscape:connector-curvature="0"
       style="fill:#c8102e" />
    <path
       d="m 422.382,177.453 c -0.666,0.297 -0.446,2.492 -1.725,3.085 -2.178,1.008 -4.65,0.985 -6.985,1.69 -0.89,0.26 -0.837,1.44 -1.56,1.9 -1.256,0.8 -2.927,0.144 -3.84,0.8 -5.596,4.125 -12.25,2.278 -18.463,3.312 0.087,4.686 -7.283,1.822 -10.32,3.86 -3.32,2.22 -2.88,1.614 -7.8,1.665 -1.536,0.026 -0.7,2.29 -1.938,2.302 -3.927,0.076 -8.994,-1.178 -11.933,-0.32 -0.52,0.152 -0.7,2.642 -1.724,2.914 -2.14,0.576 -4.39,0.804 -6.434,1.466 -1.584,0.493 0.486,3.5 -1.642,4.17 -3.593,1.154 -7.577,0.314 -11.208,2.377 -1.436,0.814 -3.518,0.05 -5.376,0.39 -1.573,0.285 -2.178,1.938 -0.893,2.676 1.163,0.656 3.108,0.486 4.254,1.04 2.67,1.32 4.873,3.205 7.737,3.413 12.45,0.89 24.337,-1.678 36.734,-4.55 16.308,-3.783 30.097,-10.085 43.8,-20.108 14.615,-10.7 28.114,-21.94 34.288,-39.483 0.837,-2.39 1.506,-4.458 2.06,-6.705 0.35,-1.382 -0.322,-1.55 -0.73,-0.43 -0.428,1.123 -2.142,4.63 -3.678,7.148 -7.835,12.907 -19.063,21.215 -32.626,27.39 m -88.33,42.515 c -1.984,-1.98 -4.564,-2.524 -6.816,-3.62 -8.107,-3.912 -16.2,-5.325 -25.364,-6.757 -3.292,-0.415 -7.76,-0.54 -11.512,-0.454 -4.564,0.106 -9.85,0.553 -12.712,4.04 -0.462,0.575 -0.227,1.9 -1.248,2.29 -3.33,1.28 -7.01,-1.475 -9.873,2.235 -1.725,2.25 -5.932,-0.517 -8.648,1.072 -0.604,0.354 0,1.91 0.478,2.108 1.27,0.568 3.386,0.404 4.173,1.06 0.838,0.68 0.76,1.664 1.536,2.245 0.962,0.714 2.77,1.01 3.568,2.134 0.63,0.85 0.838,2.56 1.742,2.61 21.872,1.238 44.33,1.238 65.08,-6.818 -0.3,-0.652 0.405,-1.346 -0.405,-2.146 m -126.33,37.488 c 0.282,2.12 -0.27,5.36 0.17,5.413 15.217,1.667 30.674,-1.045 44.76,-7.52 0.194,-0.087 0.233,-1.033 -0.026,-1.304 -4.664,-4.92 -11.216,-6.42 -17.566,-8.187 -7.364,-2.058 -15.917,-3.735 -22.432,0.01 -0.886,0.505 -1.598,2.613 -2.644,4.158 -0.768,1.167 0.71,2.97 0.095,3.722 -1.145,1.38 -2.57,2.232 -2.36,3.708 m 72.234,-51.02 c -1.17,-4.698 -6.86,-5.576 -10.725,-7.852 -1.55,-0.902 -3.35,-0.493 -5.117,0.282 -3.852,1.652 -8.805,-1.16 -12.762,1.71 -1.134,0.813 -1.738,2.345 -3.205,2.725 -1.82,0.474 -3.636,0.542 -5.493,0.79 -0.68,0.087 -1.96,0.54 -1.87,1.312 0.378,3.31 -2.694,3.993 -5.13,4.843 -2.373,0.846 -1.536,3.98 -1.612,6.31 15.743,0.194 32.112,-2.03 45.916,-10.12 m -51.414,13.878 c -0.737,0.126 -1.292,1.32 -1.845,2.096 -1.38,1.95 -5.75,1.52 -5.726,3.747 0.07,4.04 -4.444,4.772 -5.154,7.694 -0.553,2.29 -1.775,4.007 -1.945,6.46 16.15,0.093 32.765,-0.954 47.083,-9.185 1.706,-0.998 -2.045,-3.02 -3.8,-3.71 -4.526,-1.78 -8.416,-4.416 -13.47,-5.513 -5.168,-1.112 -10.027,-2.443 -15.144,-1.592 m -28.8,64.002 c 3.146,1.252 6.42,0.708 9.542,0.19 8.546,-1.406 16.816,-2.774 24.255,-7.274 -3.336,-3.33 -7.834,-5.058 -12.102,-7.077 -4.897,-2.314 -9.806,-4.213 -15.13,-5.065 -2.335,6.36 -4.733,12.686 -6.564,19.227 m -2.94,3.71 c -1.907,1.015 -3.997,3.752 -2.354,5.073 7.125,5.802 16.69,5.915 25.49,6.554 14.954,1.073 31.953,-0.26 42.822,-11.33 0.68,-0.7 -2.475,-2.637 -4.56,-3.325 -2.697,-0.89 -5.364,-1.864 -8.07,-2.31 -3.853,-0.624 -7.723,-2.884 -10.455,-1.526 -0.838,0.43 -0.944,1.267 -1.044,1.638 -0.913,0.36 -3.752,0.404 -4.406,0.892 -1.586,1.167 -1.278,3.05 -1.694,3.166 -3.604,0.902 -8.093,-1.368 -11.504,0.185 -0.92,0.42 -0.845,2.994 -2.054,3.085 -2.473,0.183 -5.192,-1.293 -7.553,-0.543 -0.428,0.133 -1.692,0.32 -2.53,0.85 -1.296,-0.667 -1.995,-0.825 -3.682,-1.235 -1.252,-0.31 -2.466,0.555 -3.995,0.295 -1.435,-0.246 -3.047,-2.195 -4.413,-1.47 m 93.814,-16.75 c 4.28,-2.218 9.425,-2.437 12.55,-6.69 -5.14,-3.148 -10.837,-4.413 -16.638,-6.095 -3.543,-1.032 -7.024,-1.38 -10.62,-1.834 -4.23,-0.543 -8.413,-0.726 -12.58,-0.43 -1.467,0.108 -3.17,0.195 -4.46,0.946 -0.68,0.397 -1.467,1.8 -2.317,2.34 -1.33,0.865 -2.544,0.45 -3.417,1.325 -0.53,0.516 0.05,1.92 -0.31,2.416 -0.49,0.674 -1.547,0.788 -2.2,1.167 -0.686,0.358 -2.1,-0.234 -3.16,0.207 -1.057,0.437 -1.096,1.45 -1.794,1.795 -2.56,1.32 -6.3,-0.222 -8.07,-0.178 -0.91,0.014 -0.68,1.458 -0.384,1.74 1.145,1.137 4.456,1.49 4.343,3.17 -0.038,0.385 -0.97,1.727 -1.455,1.587 0.837,2.21 6.2,3.37 9.793,4.278 9.91,2.492 20.095,0.31 29.956,-2.675 3.595,-1.087 7.306,-1.27 10.76,-3.07 m 24.48,-27.696 c 1.75,-1.184 3.995,-1.2 5.054,-2.863 0.86,-1.368 -0.894,-1.994 -1.88,-2.29 -7.723,-2.367 -15.165,-4.97 -23.182,-5.584 -7.975,-0.59 -15.736,0.688 -23.69,1.515 -3.08,0.32 -6.226,0.466 -9.007,1.615 -1.19,0.504 -1.257,2.932 -2.63,3.102 -2.683,0.336 -5.34,0.657 -8.045,0.877 -0.875,0.077 -0.66,1.497 -0.39,1.718 1.754,1.407 2.31,2.29 3.046,4.46 0.063,0.22 1.894,0.026 2.277,0.36 1.758,1.526 3.003,3.684 5.21,4.213 10.606,2.557 20.852,3.256 31.723,0.74 1.155,-0.28 2.005,-1.218 3.05,-1.363 3.8,-0.486 7.773,-0.707 10.726,-3.54 2.09,-1.985 5.412,-1.392 7.736,-2.956 m -6.507,-36.542 c 11.763,-1.306 21.982,-3.028 32.274,-9.43 0.615,-0.392 0.11,-2.416 -0.405,-2.498 -2.435,-0.36 -5.08,-1.356 -7.704,1.022 -0.893,0.802 -2.554,-0.927 -3.776,-0.183 -0.993,0.598 -1.99,2.188 -2.9,2.597 -2.545,1.123 -4.993,-1.5 -7.775,-1.172 -0.813,0.1 -0.624,1.91 -1.437,2.1 -2.38,0.573 -4.48,-2.038 -5.833,-1.16 -2.065,1.33 -3.8,3.033 -6.307,1.898 -2.408,-1.084 -5.593,-3.356 -7.23,-1.923 -2.846,2.49 -6.336,-1.124 -8.853,-0.152 -2.116,0.84 -7.836,2.197 -3.928,4.454 6.904,4.03 18.193,5.092 23.873,4.448"
       id="path6"
       inkscape:connector-curvature="0"
       style="fill:#c8102e" />
    <path
       d="m 344.017,180.165 c -14.092,0.398 -28.177,0.448 -42.37,-0.516 -11.642,-0.79 -23.18,-1.76 -34.805,-1.333 -14.81,0.554 -28.624,5.18 -41.77,12.634 -18.567,10.517 -32.1,28.923 -33.068,50.27 -0.422,9.26 1.212,17.555 -0.46,28.046 -1.662,10.44 -6.73,20.64 -11.562,29.49 10.925,-6.104 18.51,-19.503 19.768,-34.675 0.958,-11.454 0.612,-22.942 5.3,-33.25 5.533,-12.18 13.835,-22.386 25.546,-29.817 11.034,-6.99 22.778,-10.85 35.228,-10.9 33.992,-0.132 67.865,1.148 101.895,-0.764 19.1,-1.06 37.61,-6.277 54.857,-15.076 11.794,-6.05 23.343,-13.412 30.6,-25.322 0.71,-1.408 3.58,-6.038 3.996,-7.286 0.428,-1.267 -0.144,-1.267 -0.7,-0.145 -0.566,1.124 -3.468,4.624 -4.316,5.746 -11.64,12.895 -26.226,22.028 -43.668,26.305 -19.737,4.846 -39.085,5.893 -58.898,6.556 -1.686,0.05 -3.902,0 -5.576,0.038 m -143.708,158.554 -16.964,-12.08 -2.266,2.094 a 36.716,36.716 0 0 1 -4.6,3.86 l 18.496,12.017 c 2.28,-2.192 3.93,-4.2 5.333,-5.89 m -24.32,18.01 c 6.004,-2.316 11.487,-5.66 16.32,-9.74 l -17.84,-11.576 1.52,21.315 m -2.912,-40.863 0.982,13.732 c 2.448,-1.75 3.606,-3.156 5.5,-5.475 -2.242,-1.906 -4.626,-5.647 -6.482,-8.258 m -0.297,-26.137 c 1.183,1.692 2.348,2.933 3.028,4.92 l 2.215,-5.09 -5.245,0.17 m 8.465,-7.323 -2.882,-2.884 a 32.764,32.764 0 0 0 -9.477,-6.59 l -0.924,0.788 1.303,11.993 a 21.24,21.24 0 0 1 2.02,1.912 l 7.722,-0.593 2.24,-4.623 m -39.246,-8.75 10,7.236 c 0.843,-0.112 1.68,-0.21 2.543,-0.235 l 9.792,-8.37 -0.114,-1.095 c -2.9,-0.84 -5.94,-1.294 -9.05,-1.294 -4.613,0 -9.07,0.973 -13.172,2.777 v 0.982 m 21.783,-6.55 -2.34,-21.718 c -2.054,-0.22 -4.143,-0.37 -6.27,-0.37 -4.444,0 -8.773,0.53 -12.953,1.48 l -0.183,22.003 a 36.44,36.44 0 0 1 13.134,-2.452 c 2.952,0 5.828,0.385 8.61,1.06 m -8.61,68.52 a 32.29,32.29 0 0 0 14.414,-3.394 l -11.217,-7.29 -8.818,10.177 c 1.845,0.315 3.726,0.505 5.62,0.505 m 11.904,-32.866 c 0,-6.574 -5.326,-11.925 -11.902,-11.925 -6.557,0 -11.882,5.35 -11.882,11.925 0,6.59 5.323,11.927 11.882,11.927 6.576,0.002 11.902,-5.335 11.902,-11.926 m 2.793,16.638 a 22.194,22.194 0 0 1 -7.156,4.254 l 7.83,5.078 -0.674,-9.332 m 15.986,-65.52 c -6.258,-3.944 -13.333,-6.693 -20.897,-8 l 2.41,22.286 c 0.423,0.14 0.838,0.284 1.247,0.448 l 17.24,-14.735 m -26.454,27.16 c 2.178,0.42 4.23,1.185 6.123,2.192 l -0.74,-6.8 -5.385,4.607 m -17.503,4.053 a 21.907,21.907 0 0 1 5.72,-3.103 l -5.656,-4.107 -0.064,7.21 m -9.9,40.916 c 3.544,3.55 7.76,6.143 12.35,7.758 l -1.958,-12.862 c -0.107,-0.08 -0.22,-0.146 -0.328,-0.22 l -13.713,0.942 a 32.55,32.55 0 0 0 3.65,4.382 m 6.557,-8.557 a 22.046,22.046 0 0 1 -3.825,-6.2 l -4.564,6.783 8.39,-0.583 m -5.45,-16.07 a 22.574,22.574 0 0 1 1.808,-7.413 l -8.434,1.628 6.628,5.784 m -1.106,-21.86 c -3.7,3.723 -6.395,8.164 -7.968,13.008 l 13.097,-2.502 a 20.51,20.51 0 0 1 1.303,-1.678 l 0.1,-12.946 -0.693,-0.49 c -2.088,1.305 -4.06,2.826 -5.84,4.608 m -9.605,23.242 c 0,5.374 1.29,10.526 3.69,15.157 l 7.37,-10.982 c -0.038,-0.257 -0.102,-0.516 -0.14,-0.785 l -10.402,-9.098 c -0.32,1.873 -0.518,3.774 -0.518,5.71 m 15.275,-32.247 c 0.297,-0.164 0.605,-0.308 0.9,-0.46 l 0.195,-22.634 c -7.074,2.088 -13.557,5.525 -19.203,9.985 l 18.108,13.11 m -33.577,5.492 16.566,14.485 A 36.803,36.803 0 0 1 134.48,272.5 l -17.66,-12.808 a 58.244,58.244 0 0 0 -12.733,16.32 m -6.326,21.6 21.123,-4.082 -16.357,-14.287 a 57.335,57.335 0 0 0 -4.765,18.37 m -0.255,5.214 a 58.1,58.1 0 0 0 2.623,17.29 l 22.016,-1.526 a 36.64,36.64 0 0 1 -3.594,-15.823 c 0,-1.95 0.155,-3.862 0.44,-5.722 l -21.436,4.118 c -0.025,0.557 -0.05,1.11 -0.05,1.664 m 25.866,19.153 -22.054,1.52 a 57.655,57.655 0 0 0 9.844,16.64 l 12.21,-18.16 m 19.656,15.398 a 36.415,36.415 0 0 1 -13.75,-8.64 c -1.29,-1.293 -2.436,-2.7 -3.506,-4.14 l -12.223,18.193 a 57.854,57.854 0 0 0 14.99,11.307 l 14.49,-16.72 m 2.27,2.65 -13.538,15.62 c 5.18,2.32 10.76,3.873 16.614,4.575 l -3.078,-20.195 m 0.914,-16.94 1.367,9.028 6.212,-7.165 a 21.595,21.595 0 0 1 -7.58,-1.862 m 8.955,37.54 a 57.54,57.54 0 0 0 17.44,-2.697 l -1.573,-22.092 a 36.295,36.295 0 0 1 -15.866,3.647 36.34,36.34 0 0 1 -6.545,-0.614 l 3.298,21.67 c 1.07,0.05 2.163,0.087 3.246,0.087"
       id="path8"
       inkscape:connector-curvature="0"
       style="fill:#c8102e" />
    <path
       d="m 187.25,257.236 -15.16,12.958 a 36.12,36.12 0 0 1 8.987,6.62 l 1.7,1.652 c 2.814,-6.46 4.562,-14.612 4.474,-21.23"
       id="path10"
       inkscape:connector-curvature="0"
       style="fill:#c8102e" />
    <path
       d="m 155.053,231.488 c -39.405,0 -71.346,32.026 -71.346,71.52 0,39.494 31.94,71.51 71.346,71.51 24.634,0 46.335,-12.51 59.162,-31.522 l -8.39,-2.993 c -11.41,15.704 -29.902,25.91 -50.772,25.91 -34.66,0 -62.76,-28.164 -62.76,-62.9 0,-34.753 28.1,-62.918 62.76,-62.918 a 62.473,62.473 0 0 1 31.72,8.604 v -9.906 c -9.96,-4.644 -21.317,-7.307 -31.72,-7.307"
       id="path12"
       inkscape:connector-curvature="0"
       style="fill:#c8102e" />
    <path
       d="m 220.648,335.577 c -0.63,-1.16 -2.266,-0.54 -3.386,-1.21 -0.83,-0.49 -1.215,-2.195 -2.028,-2.857 -0.617,-0.518 -2.116,0.643 -2.89,0.195 -1.082,-0.648 -1.905,-2.032 -2.768,-2.984 -0.945,-1.045 -1.82,-2.2 -2.745,-3.252 -0.88,-0.998 -1.804,-1.887 -2.912,-2.56 -0.604,-0.35 -1.78,0.414 -2.498,0.233 -1.29,-0.347 -2.028,-2.59 -3.085,-3.515 -0.605,-0.543 -1.56,-0.605 -2.103,-1.122 -0.54,-0.53 -0.653,-1.5 -1.233,-2.13 -0.75,-0.84 -1.87,-1.137 -2.683,-1.81 -1.127,-0.905 -1.952,-3.22 -2.814,-4.5 -0.85,-1.263 -2.114,-1.405 -2.938,-2.517 -1.033,-1.392 -1.638,-3.746 -2.89,-5.153 -1.257,-1.433 -4.417,0.85 -5.386,2.776 -1.58,3.154 -1.493,7.145 0.93,9.846 11.87,13.29 27.284,24.31 44.933,27.218 -1.318,-1.888 -2.706,-5.22 -3.506,-6.656 M 264.06,164.56 c 32.376,-1.266 88.863,1.963 118.443,-6.332 26.295,-7.36 45.398,-20.81 56.454,-39.18 1.757,-2.907 0.824,-3.4 -1.97,-0.7 -17.93,17.27 -34.25,23.41 -57.448,29.768 -27.073,7.44 -75.96,5.488 -115.48,6.326 -38.708,0.828 -72.637,16.15 -82.82,46.354 l 8.41,3.375 c 11.353,-24.445 38.277,-38.203 74.41,-39.61 M 66.45,265.21 c 2.278,1.9 0.44,5.206 2.127,7.464 2.076,-14.388 12.99,-25.018 22.902,-35.186 25.95,-26.664 66.165,-32.04 100.397,-19.007 0.63,0.248 3.16,-5.076 2.278,-5.45 -20.297,-8.924 -39.63,-9.907 -60.44,-5.284 -17.32,3.867 -31.883,11.694 -44.905,23.554 -10.1,9.21 -18.35,19.308 -24.633,31.35 -0.497,0.97 -1.31,2.467 -0.497,3.31 0.837,0.877 1.762,-1.563 2.77,-0.75"
       id="path14"
       inkscape:connector-curvature="0"
       style="fill:#c8102e" />
    <path
       d="m 234.468,346.844 c 0.113,0.157 -1.058,0.518 -1.448,0.582 a 21.47,21.47 0 0 1 -6.017,0 c -3.662,-0.518 -7.527,-1.793 -10.61,-2.432 -21.38,32.312 -66.778,43.773 -100.872,22.2 -12.206,-7.716 -21.64,-17.674 -27.66,-30.348 -3.392,-7.133 -5.235,-14.382 -6.985,-22.235 -1.164,-5.266 -0.22,-10.45 -1.2,-15.63 -2.19,2.87 -0.864,7.325 -4.6,8.97 -1.02,0.46 -2.268,0.297 -2.98,-0.883 -0.698,-1.148 -0.357,-3.01 -1.56,-3.306 -1.995,-0.49 -2.033,2.518 -4.525,1.927 -0.248,-0.064 -0.593,0.662 -0.99,0.815 -1.29,0.453 -2.373,-1.885 -3.344,-0.79 -0.678,0.767 -1.106,1.63 -2.163,1.268 -0.875,-0.307 -1.573,-2.018 -1.573,-1.924 -0.68,46.508 36.366,88.78 82.832,95.663 6.715,0.996 13.337,1.45 20.122,0.825 14.525,-1.342 27.905,-5.255 40.764,-12.722 20.253,-11.758 34.313,-30.09 44.497,-50.395 -7.71,-2.623 -15.388,-5.2 -21.694,-7.582 0.53,6.545 6.95,11.66 10.01,16 m 25.226,-15.72 c -1.795,-0.505 -3.37,-1.502 -5.017,-2.18 -1.02,-0.417 -1.99,1.16 -3.085,0.51 -2.216,-1.33 -4.123,-3.232 -5.89,-4.636 -1.403,-1.126 -4.2,-3.924 -5.412,-3.37 -0.46,0.217 -1.145,2.827 -2.292,1.96 -2.763,-2.064 -4.55,-4.302 -7.13,-6.56 -1.17,-1.02 -2.303,2.373 -3.8,1.653 -3.443,-1.686 -4.823,-5.41 -7.478,-8.074 -3.088,-3.08 -6.04,-6.656 -10.296,-7.78 -0.71,-0.194 -0.31,0.838 -0.983,1.37 -3.245,2.543 -6.814,-1.81 -9.973,-3.256 -2.89,-1.342 -5.44,-3.46 -8.685,-3.695 -0.7,-0.037 -0.675,1 -0.403,1.32 18.534,21.976 44.276,38.473 72.528,37.81 0.66,-0.013 2,0.057 0.893,-1.3 -0.868,-1.085 -1.857,-3.463 -2.975,-3.77 m 26.25,-16.01 c -0.826,-0.128 -2.115,0.983 -2.82,0.85 -2.19,-0.397 -3.92,-2.39 -6.59,-3.797 -1.095,-0.57 -1.66,2.03 -2.523,1.972 -4.41,-0.25 -10.775,-4.945 -14.71,-7.31 -0.71,-0.408 -4.91,0.43 -5.607,0.575 -2.524,0.5 -5.745,-3.942 -7.746,-4.876 -1.493,-0.692 -3.596,-1.455 -5.024,-0.37 -1.95,1.444 -4.255,0.666 -6.37,0.642 -0.836,-0.012 -1.56,1.736 -2.58,2.07 -2.895,0.934 -6.106,-1.098 -8.957,0.32 -0.077,0.04 -0.48,0.64 -0.454,0.838 0.196,1.8 2.19,2.096 3.505,2.898 4.89,2.996 9.9,5 15.09,7.11 7.753,3.147 15.72,5.5 24.17,6.262 9.494,0.85 22.32,2.17 30.13,-0.144 0.4,-0.127 -0.217,-1.63 -1.41,-2.532 -1.22,-0.946 -3.024,-1.292 -3.786,-1.822 -1.765,-1.255 -2.706,-2.455 -4.32,-2.687 m 41.018,-18.86 c -2.152,0.63 -3.813,-0.944 -5.608,-0.263 -0.407,0.172 -0.692,0.84 -1.043,0.852 -3.36,0.05 -5.62,-3.59 -9.057,-3.318 -0.855,0.075 -0.844,1.59 -1.562,1.755 -2.125,0.503 -4.01,-2.076 -5.914,-1.15 -1.354,0.664 -2.31,0.62 -3.626,0.234 -1.69,-0.49 -2.952,-2 -4.59,-2.256 -1.428,-0.234 -2.862,1.2 -4.487,0.73 -4.057,-1.184 -7.2,-5.044 -11.55,-4.13 -2.152,0.466 -3.99,-1.01 -5.485,-0.115 -1.614,0.964 -2.092,2.144 -3.728,3.122 -1.12,0.676 -3.738,0.58 -4.91,1.306 -0.892,0.542 -1.106,1.912 -2.126,2.327 -1.89,0.803 -4.152,0.235 -5.942,1.24 -0.206,0.13 -0.32,1.128 0.437,1.33 12.735,3.51 24.853,7.355 37.817,7.32 12.715,-0.01 25.334,0.045 37.82,-3.82 0.995,-0.296 1.202,-0.89 0.386,-1.824 -1.753,-2.05 -4.176,-4.13 -6.833,-3.34 m 38.45,-28.218 c -2.83,1.32 -6.123,-0.138 -9.265,0.593 -0.824,0.195 -0.208,1.37 -1.02,1.487 -3.082,0.443 -6.273,-0.344 -9.174,0.79 -2.257,0.877 -4.98,-0.12 -7.464,-0.063 -0.945,0.025 -0.968,1.3 -1.122,2.32 -0.13,0.894 -1.446,1.41 -1.83,1.293 -3.096,-0.915 -6.05,-1.254 -9.164,-1.717 -7.862,-1.154 -15.634,-3.658 -23.022,-1.448 -2.414,0.726 -5.597,1.32 -7.442,3.204 -0.716,0.725 -1.466,2.173 -2.41,2.523 -4.52,1.628 -9.434,1.95 -13.927,3.538 -1.376,0.493 -3.963,2.405 -3,2.664 18.864,4.82 37.293,5.318 56.873,1.64 14.35,-2.687 27.51,-6.744 39.845,-13.696 -0.932,-1.18 -5.73,-4.13 -7.88,-3.13 m 32.003,-32.023 c -1.773,0.593 -4.22,-1.098 -5.757,0.038 -2.284,1.683 -4.965,1.387 -7.308,1.142 -1.118,-0.12 -2.874,-0.518 -3.867,0.26 -0.63,0.497 0.28,1.31 0.89,1.853 -5.914,2.042 -12.43,0.132 -18.017,2.39 -0.427,0.185 -0.673,2.24 -1.704,2.442 -5.14,1.047 -9.95,-0.98 -15.055,-0.052 -1.29,0.245 -0.706,2.998 -2.077,3.066 -4.575,0.215 -9.03,-0.17 -13.594,-0.366 -5.437,-0.22 -10.44,1.76 -15.584,3.338 -1.523,0.46 -1.99,2.89 -3.626,3.135 -4.428,0.688 -8.942,-0.1 -12.988,1.897 -0.283,0.147 -0.296,1.516 0,1.674 4.96,2.798 10.648,4.75 14.022,9.273 34.51,-0.345 71.63,-4.87 100.35,-28.475 0.563,-0.467 -2.84,-1.173 -4.66,-1.6 -1.786,-0.41 -3.258,-0.41 -5.423,-1.124 -1.93,-0.63 -3.702,0.494 -5.596,1.112 m 35.826,-32.52 c -0.35,-0.2 -5.572,-1.147 -8.46,-0.46 -0.604,0.14 -0.975,1.148 -1.574,1.237 -3.706,0.61 -6.335,2.39 -10.125,2.495 -0.786,0.04 -2.49,0.594 -3.52,1.086 -1.363,0.658 -3.244,-0.97 -4.316,0.24 -0.696,0.775 0.51,2.65 -0.748,3.25 -3.305,1.544 -7.156,-1.23 -10.392,0.863 -0.923,0.62 1.01,2.688 -0.208,3.06 -4.65,1.464 -12.682,-5.76 -15.708,1.748 -0.477,1.172 -1.932,0.63 -2.838,0.397 -0.877,-0.235 -2.128,-0.63 -2.645,-0.195 -2.846,2.315 -4.52,3.242 -8.515,2.12 -1.02,-0.298 -1.032,2.724 -2.988,2.238 -2.26,-0.53 -4.413,-2.157 -6.478,-1.242 -0.95,0.43 -0.24,2.933 -1.636,3.06 -5.588,0.543 -11.353,-0.272 -16.508,2.03 -1.266,0.568 -1.393,2.86 -3.16,3.155 -3.934,0.644 -7.848,0.19 -11.5,1.38 -0.59,0.19 -0.46,1.94 0.442,2.077 2.36,0.353 5.015,-0.026 6.828,1.058 2.21,1.318 3.613,5.053 5.777,5.142 17.17,0.7 34.26,-1.843 50.823,-7.35 17.402,-5.784 33.382,-13.73 47.45,-26.058 0.86,-0.756 0.42,-1.07 0,-1.33 M 267.59,371.18 a 7.765,7.765 0 0 1 -7.773,-7.77 c 0,-4.303 3.478,-7.79 7.772,-7.79 4.292,0 7.76,3.486 7.76,7.79 a 7.752,7.752 0 0 1 -7.76,7.77 z m 0,-17.68 c -5.463,0 -9.886,4.44 -9.886,9.91 0,5.474 4.423,9.903 9.886,9.903 5.45,0 9.874,-4.43 9.874,-9.904 0,-5.47 -4.424,-9.91 -9.874,-9.91 z"
       id="path16"
       inkscape:connector-curvature="0"
       style="fill:#c8102e" />
    <path
       d="m 268.29,362.347 h -2.642 v -2.47 h 2.643 a 1.235,1.235 0 0 1 0,2.47 z m 3.35,-1.24 a 3.36,3.36 0 0 0 -3.35,-3.363 h -4.756 v 11.322 h 2.114 v -4.598 h 1.517 l 2.138,4.598 h 2.348 l -2.225,-4.795 a 3.344,3.344 0 0 0 2.215,-3.162 z"
       id="path18"
       inkscape:connector-curvature="0"
       style="fill:#c8102e" />
  </g>
</svg>
