<?xml version="1.0" encoding="UTF-8" standalone="no"?>
<svg
   xmlns:dc="http://purl.org/dc/elements/1.1/"
   xmlns:cc="http://creativecommons.org/ns#"
   xmlns:rdf="http://www.w3.org/1999/02/22-rdf-syntax-ns#"
   xmlns:svg="http://www.w3.org/2000/svg"
   xmlns="http://www.w3.org/2000/svg"
   xmlns:sodipodi="http://sodipodi.sourceforge.net/DTD/sodipodi-0.dtd"
   xmlns:inkscape="http://www.inkscape.org/namespaces/inkscape"
   inkscape:version="1.0 (4035a4fb49, 2020-05-01)"
   sodipodi:docname="edmonton-oilers.svg"
   id="svg24"
   version="1.1"
   viewBox="0 0 512 512"
   height="512"
   width="512">
  <metadata
     id="metadata30">
    <rdf:RDF>
      <cc:Work
         rdf:about="">
        <dc:format>image/svg+xml</dc:format>
        <dc:type
           rdf:resource="http://purl.org/dc/dcmitype/StillImage" />
      </cc:Work>
    </rdf:RDF>
  </metadata>
  <defs
     id="defs28" />
  <sodipodi:namedview
     inkscape:document-rotation="0"
     inkscape:current-layer="svg24"
     inkscape:window-maximized="0"
     inkscape:window-y="0"
     inkscape:window-x="0"
     inkscape:cy="256"
     inkscape:cx="256"
     inkscape:zoom="0.4609375"
     showgrid="false"
     id="namedview26"
     inkscape:window-height="480"
     inkscape:window-width="705"
     inkscape:pageshadow="2"
     inkscape:pageopacity="0"
     guidetolerance="10"
     gridtolerance="10"
     objecttolerance="10"
     borderopacity="1"
     bordercolor="#666666"
     pagecolor="#ffffff" />
  <g
     style="fill:none;fill-rule:evenodd"
     transform="translate(-6,10)"
     id="g22">
    <path
       style="fill:#ffffff"
       inkscape:connector-curvature="0"
       id="path2"
       d="m 256.47,75.32 c -99.886,0 -181.144,81.264 -181.144,181.146 0,99.89 81.258,181.15 181.144,181.15 99.883,0 181.145,-81.258 181.145,-181.15 0,-99.882 -81.263,-181.145 -181.145,-181.145 z m 29.212,71.764 c 0,13.986 -11.553,27.598 -29.212,27.598 -17.663,0 -29.21,-13.612 -29.21,-27.598 0,-20.466 17.748,-31.397 29.21,-59.967 11.463,28.57 29.212,39.5 29.212,59.967 z M 256.47,429.238 c -95.415,0 -172.762,-77.347 -172.762,-172.773 0,-92.02 71.96,-167.243 162.682,-172.46 l -20.016,31.58 c -8.544,13.49 -9.99,24.75 -9.99,30.928 0,23.77 21.072,39.444 40.086,39.444 19.02,0 40.088,-15.675 40.088,-39.444 0,-6.177 -1.447,-17.437 -9.99,-30.927 l -20.01,-31.58 c 90.72,5.216 162.68,80.438 162.68,172.46 0,95.425 -77.352,172.772 -172.768,172.772 z" />
    <path
       style="fill:#ffffff"
       inkscape:connector-curvature="0"
       id="path4"
       d="m 296.907,104.7 c 6.636,9.237 15.246,22.555 15.246,41.2 0,29.015 -24.533,56.118 -55.683,56.118 -31.15,0 -55.682,-27.103 -55.682,-56.118 0,-18.645 8.615,-31.963 15.25,-41.2 -67.133,17.836 -116.604,79.027 -116.604,151.766 0,86.73 70.31,157.04 157.036,157.04 86.73,0 157.036,-70.31 157.036,-157.04 0,-72.74 -49.47,-133.93 -116.6,-151.766 z M 156.957,362.27 C 139.603,342.3 128.484,318.288 126.345,288.328 v -58.49 c 0,-8.503 3.288,-19.773 15.54,-19.773 h 11.86 c 5.93,0 15.62,1.78 15.62,14.826 v 130.466 c 0,10.68 -6.702,13.486 -12.407,6.916 z m 30.8,27.457 c -9.574,-5.473 -18.078,-12.307 -25.645,-20.567 0,0 2.833,1.002 6.01,-0.87 3.368,-1.988 4.532,-6.61 4.532,-9.18 v -59.63 c 3.267,0 5.802,-3.627 5.802,-6.81 v -52.166 c 0,-4.78 -2.833,-6.915 -5.73,-6.915 v -23.324 h 24.506 v 23.324 c -2.71,0 -5.736,2.773 -5.736,6.916 v 52.05 c 0,3.713 2.15,6.925 4.75,6.925 v 83.74 c 0,5.54 -4.34,8.876 -8.488,6.508 z m 41.874,15.94 c -13.65,-2.136 -24.587,-6.72 -36.25,-12.976 0,0 5.83,-1.06 5.83,-7.09 v -86.117 c 3.294,0 6.72,-3.126 6.72,-6.925 v -52.05 c 0,-4.573 -2.83,-6.915 -5.536,-6.915 V 210.27 h 26.49 v 23.323 c -2.862,0 -7.708,2.342 -7.708,6.915 0,2.175 -0.035,49.354 0,51.332 0.076,4.622 0.233,7.703 5.104,7.703 4.744,0 5.37,-2.2 5.37,-7.31 v -16.935 h 11.266 V 396.07 c 0,6.53 -4.957,10.582 -11.285,9.596 z m 45.304,1.188 c -6.656,1.083 -12.418,1.345 -18.796,1.345 -5.585,0 -13.638,-0.33 -19.01,-0.965 0,0 6.708,-1.62 6.708,-10.618 v -97.134 c 2.817,0 4.345,-2.96 4.345,-6.926 0,0 0.14,-48.494 0,-52.05 0,-4.112 -2.746,-6.914 -9.484,-6.914 V 210.42 h 48.824 v 37.948 h -12.41 v -7.658 c 0,-3.36 -0.587,-7.314 -4.937,-7.314 -5.342,0 -6.18,3.505 -6.18,8.052 0,0.673 0,5.954 -0.006,11.913 H 276.3 v 17.003 h -12.317 c 0,8.887 0,20.405 0.01,21.214 0.08,4.973 0.228,8.256 5.114,8.256 4.74,0 5.36,-2.307 5.367,-8.256 0.004,-7.512 0,-16.13 0,-16.13 h 12.847 v 118.01 c 0,7.314 -5.395,12.26 -12.386,13.4 z m 68.182,-43.79 c -0.197,9.884 -0.906,12.747 -3.086,14.724 -6.51,5.917 -11.26,8.962 -19.52,13.727 0.42,-0.34 1.613,-2.16 1.45,-11.655 V 274.898 c 0,-4.537 -1.91,-7.7 -5.305,-7.7 -4.148,0 -5.266,3.557 -5.266,6.915 v 18.443 c 0,4.148 4.01,7.087 7.302,7.087 l 0.005,82.588 c 0,6.137 -1.603,11.504 -5.75,13.28 -7.827,3.36 -18.54,7.31 -27.008,9.276 0,0 4.587,-2.98 4.49,-16.024 -0.02,-2.766 0,-86.118 0,-89.28 3.13,0 6.324,-2.958 6.324,-6.924 V 240.71 c 0,-4.09 -3.525,-7.12 -5.73,-7.12 v -23.323 h 34.79 c 7.112,0.785 12.155,3.35 12.155,13.638 v 21.745 c 0,2.57 0.794,9.287 -2.57,12.054 -3.36,2.772 -2.767,2.57 -2.767,2.57 0,0 4.942,2.372 4.942,8.108 v 24.113 c 0,3.86 2.21,6.986 5.54,6.986 v 63.586 z m 17.39,-123.742 v 12.06 c 0,1.977 1.23,3.18 2.97,4.54 2.76,2.18 16.996,13.643 16.996,13.643 1.58,1.78 5.14,3.562 5.14,10.28 0,5.538 0.89,23.48 -6.92,42.105 -7.708,18.39 -16.6,32.805 -32.61,50.6 v -96.46 h 13.045 v 18.574 c 0.197,6.925 11.062,6.13 11.062,0.997 v -13.044 c 0,-2.18 0,-2.772 -1.18,-3.763 -1.194,-0.987 -18.39,-14.817 -19.77,-15.808 -1.384,-0.986 -2.18,-2.57 -2.18,-6.525 v -36.37 c 0.204,-4.745 2.677,-9.884 10.184,-9.884 h 18.382 c 7.122,0.784 10.977,3.157 10.977,12.054 v 26.49 h -15.225 v -9.296 c -0.002,-7.705 -10.872,-7.912 -10.872,-0.193 z" />
    <path
       style="fill:#ffffff"
       inkscape:connector-curvature="0"
       id="path6"
       d="m 141.297,239.783 v 53.896 c 0,8.714 12.252,8.314 12.252,-0.396 V 239.39 c -0.544,-8.307 -12.254,-7.913 -12.254,0.393 z m 170.785,-0.425 v 9.773 c 0,6.96 9.798,6.643 9.798,-0.317 0,-6.328 0.27,-5.66 0,-9.762 -0.476,-7.28 -9.798,-6.965 -9.798,0.31 z" />
    <path
       style="fill:#cf4520"
       inkscape:connector-curvature="0"
       id="path8"
       d="m 256.47,87.117 c -11.462,28.57 -29.21,39.5 -29.21,59.967 0,13.986 11.547,27.598 29.21,27.598 17.66,0 29.212,-13.612 29.212,-27.598 0,-20.466 -17.75,-31.397 -29.212,-59.967 z" />
    <path
       style="fill:#ffffff"
       inkscape:connector-curvature="0"
       id="path10"
       d="M 256.47,70 C 153.655,70 70,153.645 70,256.465 c 0,102.82 83.655,186.476 186.47,186.476 102.82,0 186.47,-83.653 186.47,-186.474 C 442.94,153.646 359.293,70 256.47,70 Z m 0,367.615 c -99.886,0 -181.144,-81.258 -181.144,-181.15 0,-99.882 81.258,-181.144 181.144,-181.144 99.883,0 181.145,81.264 181.145,181.146 0,99.892 -81.263,181.15 -181.145,181.15 z" />
    <path
       style="fill:#00205b"
       inkscape:connector-curvature="0"
       id="path12"
       d="m 266.557,84.006 20.01,31.58 c 8.544,13.49 9.99,24.75 9.99,30.927 0,23.77 -21.068,39.444 -40.087,39.444 -19.014,0 -40.087,-15.675 -40.087,-39.444 0,-6.177 1.447,-17.437 9.99,-30.927 l 20.016,-31.58 c -90.723,5.216 -162.683,80.438 -162.683,172.46 0,95.425 77.347,172.772 172.762,172.772 95.415,0 172.767,-77.347 172.767,-172.773 0,-92.02 -71.96,-167.243 -162.68,-172.46 z m -10.087,329.5 c -86.725,0 -157.035,-70.31 -157.035,-157.04 0,-72.74 49.47,-133.93 116.604,-151.766 -6.638,9.237 -15.25,22.555 -15.25,41.2 0,29.015 24.53,56.118 55.68,56.118 31.15,0 55.682,-27.103 55.682,-56.118 0,-18.645 -8.61,-31.963 -15.246,-41.2 67.13,17.836 116.6,79.027 116.6,151.766 0,86.73 -70.307,157.04 -157.037,157.04 z" />
    <path
       style="fill:#00205b"
       inkscape:connector-curvature="0"
       id="path14"
       d="m 196.246,383.222 v -83.74 c -2.6,0 -4.75,-3.212 -4.75,-6.925 v -52.05 c 0,-4.143 3.025,-6.915 5.736,-6.915 v -23.324 h -24.507 v 23.324 c 2.898,0 5.73,2.135 5.73,6.915 v 52.166 c 0,3.182 -2.533,6.81 -5.8,6.81 v 59.627 c 0,2.57 -1.165,7.193 -4.533,9.18 -3.177,1.873 -6.01,0.87 -6.01,0.87 7.567,8.26 16.07,15.095 25.646,20.568 4.148,2.367 8.488,-0.967 8.488,-6.506 z" />
    <path
       style="fill:#00205b"
       inkscape:connector-curvature="0"
       id="path16"
       d="M 240.916,396.07 V 275.298 H 229.65 v 16.935 c 0,5.11 -0.626,7.31 -5.37,7.31 -4.872,0 -5.03,-3.08 -5.105,-7.705 -0.035,-1.977 0,-49.157 0,-51.332 0,-4.572 4.846,-6.914 7.71,-6.914 v -23.324 h -26.49 v 23.324 c 2.705,0 5.533,2.342 5.533,6.914 v 52.05 c 0,3.8 -3.425,6.926 -6.718,6.926 V 385.6 c 0,6.03 -5.832,7.09 -5.832,7.09 11.665,6.258 22.6,10.84 36.253,12.975 6.33,0.987 11.287,-3.064 11.287,-9.595 z" />
    <path
       style="fill:#00205b"
       inkscape:connector-curvature="0"
       id="path18"
       d="m 287.32,275.444 h -12.847 c 0,0 0.005,8.62 0,16.13 -0.005,5.95 -0.627,8.257 -5.366,8.257 -4.886,0 -5.033,-3.28 -5.114,-8.254 -0.01,-0.81 -0.01,-12.327 -0.01,-21.215 H 276.3 v -17 h -12.313 c 0.005,-5.96 0.005,-11.24 0.005,-11.912 0,-4.547 0.84,-8.053 6.18,-8.053 4.35,0 4.938,3.956 4.938,7.315 v 7.657 h 12.41 V 210.42 h -48.825 v 23.17 c 6.738,0 9.485,2.803 9.485,6.916 0.14,3.556 0,52.05 0,52.05 0,3.966 -1.528,6.925 -4.345,6.925 v 97.137 c 0,9 -6.708,10.617 -6.708,10.617 5.372,0.638 13.425,0.966 19.01,0.966 6.378,0 12.14,-0.264 18.796,-1.346 6.99,-1.14 12.388,-6.086 12.388,-13.4 v -118.01 z m 99.28,-26.632 v -26.49 c 0,-8.898 -3.853,-11.27 -10.976,-12.054 h -18.38 c -7.508,0 -9.982,5.14 -10.184,9.884 v 36.37 c 0,3.955 0.794,5.538 2.18,6.524 1.38,0.99 18.575,14.82 19.768,15.808 1.18,0.99 1.18,1.583 1.18,3.763 v 13.045 c 0,5.134 -10.866,5.93 -11.064,-0.996 V 276.09 H 346.08 v 96.46 c 16.01,-17.797 24.9,-32.213 32.61,-50.6 7.81,-18.624 6.92,-36.566 6.92,-42.105 0,-6.718 -3.56,-8.498 -5.14,-10.28 0,0 -14.234,-11.46 -16.996,-13.64 -1.74,-1.362 -2.97,-2.566 -2.97,-4.544 v -12.057 c 0,-7.72 10.87,-7.51 10.87,0.192 v 9.298 H 386.6 Z M 169.367,355.356 V 224.89 c 0,-13.044 -9.692,-14.824 -15.62,-14.824 h -11.862 c -12.25,0 -15.54,11.27 -15.54,19.773 v 58.487 c 2.14,29.96 13.26,53.972 30.614,73.943 5.704,6.57 12.407,3.764 12.407,-6.914 z m -15.817,-62.07 c 0,8.71 -12.253,9.11 -12.253,0.394 v -53.897 c 0,-8.306 11.71,-8.7 12.252,-0.394 v 53.894 z" />
    <path
       style="fill:#00205b"
       inkscape:connector-curvature="0"
       id="path20"
       d="m 337.576,292.496 v -24.113 c 0,-5.736 -4.942,-8.11 -4.942,-8.11 0,0 -0.592,0.204 2.767,-2.568 3.366,-2.767 2.57,-9.485 2.57,-12.054 v -21.744 c 0,-10.288 -5.042,-12.853 -12.154,-13.637 h -34.79 v 23.323 c 2.205,0 5.73,3.03 5.73,7.117 v 51.847 c 0,3.965 -3.192,6.925 -6.323,6.925 0,3.16 -0.02,86.513 0,89.28 0.096,13.044 -4.492,16.024 -4.492,16.024 8.47,-1.968 19.18,-5.918 27.008,-9.277 4.148,-1.778 5.75,-7.145 5.75,-13.28 l -0.004,-82.588 c -3.293,0 -7.304,-2.938 -7.304,-7.086 v -18.443 c 0,-3.36 1.117,-6.915 5.265,-6.915 3.394,0 5.305,3.16 5.305,7.698 V 379.86 c 0.163,9.496 -1.03,11.317 -1.45,11.656 8.26,-4.765 13.01,-7.81 19.52,-13.73 2.18,-1.976 2.888,-4.84 3.085,-14.723 V 299.48 c -3.33,0 -5.54,-3.126 -5.54,-6.986 z M 321.88,248.812 c 0,6.96 -9.798,7.28 -9.798,0.32 v -9.774 c 0,-7.274 9.322,-7.587 9.798,-0.31 0.268,4.104 0,3.436 0,9.764 z" />
  </g>
</svg>
