<?xml version="1.0" encoding="UTF-8" standalone="no"?>
<svg
   xmlns:dc="http://purl.org/dc/elements/1.1/"
   xmlns:cc="http://creativecommons.org/ns#"
   xmlns:rdf="http://www.w3.org/1999/02/22-rdf-syntax-ns#"
   xmlns:svg="http://www.w3.org/2000/svg"
   xmlns="http://www.w3.org/2000/svg"
   xmlns:sodipodi="http://sodipodi.sourceforge.net/DTD/sodipodi-0.dtd"
   xmlns:inkscape="http://www.inkscape.org/namespaces/inkscape"
   width="512"
   height="512"
   viewBox="0 0 512 512"
   version="1.1"
   id="svg24"
   sodipodi:docname="florida-panthers.svg"
   inkscape:version="0.92.5 (2060ec1f9f, 2020-04-08)">
  <metadata
     id="metadata30">
    <rdf:RDF>
      <cc:Work
         rdf:about="">
        <dc:format>image/svg+xml</dc:format>
        <dc:type
           rdf:resource="http://purl.org/dc/dcmitype/StillImage" />
      </cc:Work>
    </rdf:RDF>
  </metadata>
  <defs
     id="defs28" />
  <sodipodi:namedview
     pagecolor="#ffffff"
     bordercolor="#666666"
     borderopacity="1"
     objecttolerance="10"
     gridtolerance="10"
     guidetolerance="10"
     inkscape:pageopacity="0"
     inkscape:pageshadow="2"
     inkscape:window-width="640"
     inkscape:window-height="480"
     id="namedview26"
     showgrid="false"
     inkscape:zoom="0.4609375"
     inkscape:cx="256"
     inkscape:cy="256"
     inkscape:window-x="708"
     inkscape:window-y="167"
     inkscape:window-maximized="0"
     inkscape:current-layer="svg24" />
  <g
     id="g22"
     transform="translate(-20,24)"
     style="fill:none;fill-rule:evenodd">
    <path
       d="m 298,415.3 v 6.4 h -1.6 v -6.4 h -1.9 v -1.6 h 5.3 v 1.6 z m 8.7,6.4 V 417 l -1.4,2.9 h -1.4 l -1.4,-2.9 v 4.7 H 301 v -8 h 1.6 l 2.1,4.3 2.1,-4.3 h 1.6 v 8 z"
       id="path2"
       inkscape:connector-curvature="0"
       style="fill:#041e42" />
    <path
       d="M 409,117.1 C 365.2,94.3 312.3,82.2 256,82.2 c -56.3,0 -109.2,12.1 -153,34.9 l -2.4,1.2 V 185 c 0,17.8 2.5,64.6 26,115.5 26.4,57.2 64.5,95.5 127.4,128.2 l 2,1 2,-1 c 62.9,-32.7 101,-71 127.3,-128.1 23.5,-50.9 26,-97.7 26,-115.5 v -66.7 z"
       id="path4"
       inkscape:connector-curvature="0" />
    <path
       d="m 105,121 v 64.1 c 0,17.5 2.5,63.5 25.6,113.7 28.2,61.1 69.7,97.1 125.4,126 55.2,-28.7 97,-64.5 125.4,-126 C 404.5,248.7 407,202.6 407,185.1 V 121 C 360.3,96.7 306.9,86.6 256,86.6 205.5,86.7 152,96.6 105,121 Z"
       id="path6"
       inkscape:connector-curvature="0"
       style="fill:#041e42" />
    <path
       d="m 113.2,126 v 59.1 c 0,16.9 2.4,61.6 24.9,110.2 26.2,56.8 66,93.3 117.9,120.2 52.1,-27.1 91.8,-63.6 117.9,-120.2 22.4,-48.6 24.9,-93.3 24.9,-110.2 V 126 C 357.5,104.5 303.3,94.8 256,94.8 c -47.5,0 -101.5,9.7 -142.8,31.2 z"
       id="path8"
       inkscape:connector-curvature="0"
       style="fill:#b9975b" />
    <g
       id="g14"
       style="fill:#041e42">
      <path
         d="m 317.5,245.8 c 6.7,-3.8 15.8,-12.2 15.8,-12.2 4.8,-14.3 9,-33.5 9,-33.5 0,-1.9 -2.3,-5 -2.3,-5 -2.3,-1.2 -7.6,-2 -7.6,-2 -7.8,1.3 -18,8.9 -26.1,15.3 4.2,0 11.6,-1.4 11.6,-1.4 -1.5,3.8 -6.7,13.7 -6.7,13.7 3.4,0.2 9.9,-1.3 9.9,-1.3 -2.5,7.8 -7.4,17.3 -7.4,17.3 z m -56.3,-26.7 c -1.1,-0.4 -2.1,-0.9 -3.2,-1.3 -3.1,-1.2 -5.8,-2.2 -5.8,-2.2 0,0 -0.6,0 -1.9,0.1 -0.3,0 -0.7,0.1 -1.1,0.1 -0.8,0.1 -1.7,0.3 -2.8,0.5 -5,1 -13,3.2 -24.1,8.2 l -1,-2 -1.3,-2.5 -12.7,17.5 c 4.3,0.8 8.8,1.1 12.9,1 9,0 16.3,-1.5 16.3,-1.5 4.7,-4 8.9,-8.3 11.8,-11.4 1,-1 1.8,-2 2.4,-2.7 0.8,-1 1.4,-1.6 1.5,-1.8 3,-0.8 5.3,-1.2 9,-2 z m 19.4,11.6 c -7.2,-5.7 -11.8,-7.2 -11.8,-7.2 0,0 0.4,8.1 -0.2,10.7 -7,9.6 -15.3,18.5 -15.3,18.5 l 24.9,-11.4 c 1.4,-5.3 2.4,-10.6 2.4,-10.6 z"
         id="path10"
         inkscape:connector-curvature="0" />
      <path
         d="m 256,168.5 c -77.2,0 -128.4,25 -132.5,27.1 2.4,48.2 22.4,135.1 104.7,192 11,-5.9 18.3,-15.8 22.7,-23.5 8.7,10.5 9.6,25.1 9.6,25.1 -0.6,7.2 -4.4,15.1 -4.4,15.1 7.4,-3.8 14.3,-7.9 20.9,-12.1 11,-7.1 20.9,-14.7 29.9,-22.7 0.3,-0.2 0.5,-0.5 0.8,-0.7 29,-30 29.8,-75 29.8,-75 -6.3,-26.2 -17.4,-35.3 -17.4,-35.3 2.2,12 3.6,25.2 3.6,25.2 -7.1,15.6 -19.7,26 -19.7,26 -11.4,1.3 -20.4,0.1 -36.2,-5.2 -13.7,-4.6 -23.9,-11.9 -23.9,-11.9 0,0 -5.2,-0.3 -11.2,0.3 -5.1,0.5 -11.2,1.9 -11.2,1.9 6.8,-12 10.8,-24.2 11.6,-29.8 -4.6,-4.9 -9.6,-9.6 -14.7,-13.2 C 207,252.3 198,253 198,253 l 3.8,-15.4 c 0,0 -2.6,2.2 -5.5,5 -3.1,3.1 -6.5,7 -6.5,7 -6.7,2.7 -16.2,4.2 -16.2,4.2 -4.8,-1.3 -9.5,-4.4 -9.5,-4.4 11.4,-16.9 29.9,-23.6 29.9,-23.6 -3.4,-4 -3.2,-7.2 -3.2,-7.2 4.7,-3.1 9,-5.7 12.9,-7.8 -0.9,2.5 -1.1,4.2 -1.1,4.2 0,0 6.5,-5.2 10.4,-7.6 4.4,-2.7 8.7,-4.9 8.7,-4.9 2.9,-9.2 7.8,-16.7 9,-17.8 0,0 2.6,-0.4 3.9,-0.3 0.3,3 3.7,7.8 5.1,9.7 -7.2,2.3 -13.4,7 -13.4,7 0,0 15.7,-4.2 29.7,-4.7 18.9,-0.6 30.5,3.6 30.5,3.6 -2.8,4.1 -6.7,8.4 -6.7,8.4 31.2,-10.6 34.5,-18.7 51.4,-22.3 6.2,1 11.7,3 11.7,3 4,4.2 5,8.5 5,8.5 -2.3,18 -9.6,38.3 -9.6,38.3 -5.7,7 -15.5,13.3 -15.5,13.3 9.8,-1.3 24.3,-5.7 24.3,-5.7 9,6.6 20.9,20.9 25.8,27.1 10.3,-28.4 14.3,-55.1 15.3,-75.1 -3.8,-2 -55,-27 -132.2,-27 z"
         id="path12"
         inkscape:connector-curvature="0" />
    </g>
    <path
       d="m 169.4,289.7 c 0,0 4.1,-6.5 7.2,-9.5 l -4.4,-12.3 c -1.6,-1.5 -3.1,-3.1 -4.4,-4.8 -1.2,-1.6 -2.3,-3.2 -3.1,-4.5 l -4.3,11.3 c -0.1,-0.1 3.9,11.1 9,19.8 z m 5.9,6.5 c 0,0 2.5,8.7 10.1,14.8 0,0 11.4,-4.7 27.8,-6.3 0,0 -21.1,-8.6 -34.8,-18.3 0,-0.1 -2.9,3.7 -3.1,9.8 z m 61.2,-59.1 c 0,0 -7.3,1.4 -16.3,1.5 -4.1,0 -8.6,-0.2 -12.9,-1 l 9.3,4.3 c 6.7,0.3 14.5,0.2 22.6,-1.7 3.8,-3.6 9.9,-10.1 13,-15.6 0,0 0.1,-1.5 0,-3.4 -0.1,0.2 -0.7,0.8 -1.5,1.8 -0.6,0.7 -1.4,1.6 -2.4,2.7 -2.9,3.1 -7.1,7.4 -11.8,11.4 z m -26.7,55.1 c 0,0 0.8,-1.2 1.8,-3.2 -4,-3.7 -8.4,-6.5 -8.4,-6.5 4.9,-0.1 9,0.6 10.9,1 l 0.9,-2.4 c -4.8,-3.8 -10.6,-6.5 -10.6,-6.5 5.3,-0.8 10.5,-0.4 12.3,-0.2 0.1,-0.7 0.2,-1.5 0.3,-2.3 -5.7,-3.9 -14,-6.2 -14,-6.2 3.7,-1.2 7.2,-1.8 9.4,-2 l -4.2,-4.9 c 0,0 -4.7,-0.2 -9.7,0.2 -6.5,0.4 -12.5,1.3 -12.5,1.3 -1,0.7 -2.5,1.9 -3.6,2.8 -2,1.8 -2.8,2.8 -4.1,4.5 l 0.2,12 c 3.9,1.8 19.1,8.7 31.3,12.4 z m 64.5,34.5 c 0,0 2.2,5.2 3.6,12.6 1.2,6.4 0.6,10.3 0.6,10.3 -20.2,-23.2 -49.6,-37.5 -49.6,-37.5 0,0 40.7,33.5 31.4,76.9 -0.6,7.2 -4.4,15.1 -4.4,15.1 7.4,-3.8 14.3,-7.9 20.9,-12.1 11,-7.1 20.9,-14.7 29.9,-22.7 -11.2,-25.4 -32.4,-42.6 -32.4,-42.6 z M 222.2,224.5 c 11.1,-5 19.2,-7.2 24.1,-8.2 1.1,-0.2 2,-0.4 2.8,-0.5 0.4,-0.1 0.8,-0.1 1.1,-0.1 1.3,-0.1 1.9,-0.1 1.9,-0.1 C 237.4,213 220,220 220,220 l 1.3,2.6 z"
       id="path16"
       inkscape:connector-curvature="0"
       style="fill:#ffffff" />
    <path
       d="m 227.9,231.7 c -2.2,0.9 -5.1,-0.3 -6.1,-1.4 -0.8,1.3 -1.7,2.9 -1.7,2.9 0,0 6.1,2.8 13.3,-0.6 4.4,-2.1 5.5,-6 5.5,-6 -2.7,0.2 -5.3,0.5 -7.7,1 -0.4,1 -1.2,3.2 -3.3,4.1 z M 123.2,184.8 c 39.8,-18.1 89,-26.3 132.8,-26.3 43.6,0 93,8.2 132.8,26.3 V 132 c 0,0 -52.3,-27.2 -132.8,-27.2 -80.5,0 -132.8,27.2 -132.8,27.2 z"
       id="path18"
       inkscape:connector-curvature="0"
       style="fill:#c8102e" />
    <path
       d="m 194.6,147.6 c -3.8,0.7 -7.5,1.5 -11.3,2.3 v -27.5 c -2.3,0.5 -4.6,1.1 -6.9,1.6 v 34.5 c 6,-1.5 12.1,-2.8 18.2,-3.9 z m 61.7,-12.5 h 1.7 c 1.9,4.6 3.7,9.2 5.6,13.8 2.5,0.1 5,0.1 7.5,0.3 -1.9,-4.7 -3.7,-9.3 -5.6,-14 0.8,0 1.5,0 2.3,0.1 1.1,-1.9 2.2,-3.9 3.3,-5.8 v -8.8 c -1.1,-2 -2.2,-4.1 -3.3,-6.1 -6.2,-0.2 -12.4,-0.3 -18.5,-0.1 V 149 c 2.4,0 4.7,-0.1 7.1,-0.1 z m 0,-13.7 c 2.6,0 5.1,0 7.7,0.1 v 6.8 c -2.6,-0.1 -5.1,-0.1 -7.7,-0.1 z m -107.1,31.2 c 2.6,-0.9 5.3,-1.7 7.9,-2.5 v -7 c -2.6,0.8 -5.3,1.7 -7.9,2.5 v -6.8 c 3.7,-1.2 7.4,-2.4 11.1,-3.5 v -7 c -6,1.8 -11.9,3.7 -17.8,5.9 v 34.5 c 2.2,-0.8 4.5,-1.6 6.8,-2.4 v -13.7 z m 206.2,-2.4 c 2.5,0.8 5,1.6 7.4,2.4 v 13.7 c 2.3,0.8 4.5,1.5 6.8,2.4 v -28.5 c -1,-2.4 -2.1,-4.7 -3.1,-7.1 -4.9,-1.7 -9.8,-3.3 -14.7,-4.7 -1.1,1.7 -2.1,3.3 -3.2,5 v 28.5 c 2.3,0.7 4.6,1.3 6.8,2 z m 0,-13.7 c 2.5,0.8 5,1.6 7.4,2.4 v 6.8 c -2.5,-0.8 -4.9,-1.6 -7.4,-2.4 z m -126,13.4 c 1.1,-2.1 2.2,-4.1 3.3,-6.2 v -22.5 l -3.3,-5.7 c -5.1,0.4 -10.1,0.9 -15.2,1.6 -1.1,2.1 -2.2,4.2 -3.3,6.4 V 146 c 1.1,1.8 2.2,3.7 3.3,5.5 5.1,-0.6 10.1,-1.2 15.2,-1.6 z M 218,123.6 c 2.6,-0.3 5.1,-0.6 7.7,-0.8 v 20.5 c -2.6,0.2 -5.1,0.5 -7.7,0.8 z m 76.5,-6.9 c -2.3,-0.3 -4.7,-0.5 -7,-0.7 v 34.5 c 2.3,0.2 4.7,0.5 7,0.7 z m 37.9,35.1 v -22.5 c -1.1,-2.2 -2.1,-4.5 -3.2,-6.7 -6.1,-1.4 -12.2,-2.5 -18.3,-3.6 v 34.5 c 6.1,1 12.2,2.2 18.3,3.6 1.1,-1.9 2.2,-3.6 3.2,-5.3 z m -6.9,-2.6 c -2.5,-0.5 -5.1,-1 -7.6,-1.5 v -20.5 c 2.5,0.5 5.1,1 7.6,1.5 z"
       id="path20"
       inkscape:connector-curvature="0"
       style="fill:#ffffff" />
  </g>
</svg>
