<?xml version="1.0" encoding="UTF-8" standalone="no"?>
<svg
   xmlns:dc="http://purl.org/dc/elements/1.1/"
   xmlns:cc="http://creativecommons.org/ns#"
   xmlns:rdf="http://www.w3.org/1999/02/22-rdf-syntax-ns#"
   xmlns:svg="http://www.w3.org/2000/svg"
   xmlns="http://www.w3.org/2000/svg"
   xmlns:sodipodi="http://sodipodi.sourceforge.net/DTD/sodipodi-0.dtd"
   xmlns:inkscape="http://www.inkscape.org/namespaces/inkscape"
   width="512"
   height="512"
   viewBox="0 0 512 512"
   version="1.1"
   id="svg46"
   sodipodi:docname="los-angeles-kings.svg"
   inkscape:version="0.92.5 (2060ec1f9f, 2020-04-08)">
  <metadata
     id="metadata52">
    <rdf:RDF>
      <cc:Work
         rdf:about="">
        <dc:format>image/svg+xml</dc:format>
        <dc:type
           rdf:resource="http://purl.org/dc/dcmitype/StillImage" />
      </cc:Work>
    </rdf:RDF>
  </metadata>
  <defs
     id="defs50" />
  <sodipodi:namedview
     pagecolor="#ffffff"
     bordercolor="#666666"
     borderopacity="1"
     objecttolerance="10"
     gridtolerance="10"
     guidetolerance="10"
     inkscape:pageopacity="0"
     inkscape:pageshadow="2"
     inkscape:window-width="640"
     inkscape:window-height="480"
     id="namedview48"
     showgrid="false"
     inkscape:zoom="0.4609375"
     inkscape:cx="256"
     inkscape:cy="256"
     inkscape:window-x="0"
     inkscape:window-y="0"
     inkscape:window-maximized="0"
     inkscape:current-layer="svg46" />
  <g
     id="g44"
     transform="translate(0,16)"
     style="fill:none;fill-rule:evenodd">
    <path
       d="m 106.928,261.696 h 300.144 v 66.02 L 257,436.106 106.928,327.716 Z m 0,-186.283 H 407.073 V 252.43 H 106.928 V 75.412 Z M 96.318,333.136 257,449.188 417.68,333.136 V 64.81 H 96.32 v 268.326 z"
       id="path2"
       inkscape:connector-curvature="0"
       style="fill:#ffffff" />
    <path
       d="m 282.375,125.88 h 83.232 v 32.46 h -83.232 z m -19.67,-14.274 c 2.754,6.43 7.545,21.678 7.545,50.075 0,28.4 -4.79,43.65 -7.544,50.07 h 19.668 v -39.12 h 83.233 v 39.118 h 19.662 c -2.747,-6.42 -7.54,-21.67 -7.54,-50.067 0,-28.395 4.793,-43.644 7.538,-50.073 H 262.705 Z M 148.41,197.47 v -35.793 c 0,-28.397 4.783,-43.647 7.528,-50.066 h -27.21 c 2.75,6.42 7.53,21.67 7.53,50.068 0,28.405 -4.78,43.642 -7.522,50.075 H 237.9 c 1.8,-2.826 6.938,-12.04 8.124,-25.087 -6.234,4.247 -19.24,10.805 -40.948,10.805 H 148.41 m 103.162,174.54 c -7.238,0 -15.106,-0.854 -20.634,-1.6 7.322,2.767 18.348,3.91 18.348,3.91 -8.144,0 -17.095,-1.072 -22.597,-1.87 8.064,3.098 21.665,4.358 21.665,4.358 -20.01,-0.54 -31.853,-3.512 -31.853,-3.512 L 207.315,320 l 9.298,12.41 c 4.08,-6.652 12.005,-12.005 22.163,-14.984 l -2.803,-6.83 14.38,6.458 v -3.527 l 6.647,-11.434 6.644,11.433 v 3.528 l 14.38,-6.457 -2.803,6.83 c 10.158,2.98 18.083,8.332 22.168,14.985 l 9.292,-12.41 -9.186,53.297 c 0,0 -11.844,2.97 -31.85,3.51 0,0 13.598,-1.26 21.663,-4.357 -5.503,0.795 -14.453,1.87 -22.597,1.87 0,0 11.026,-1.144 18.347,-3.91 -5.52,0.745 -13.395,1.6 -20.633,1.6 0,0 10.753,-1.12 18.07,-3.81 -6.537,-1.387 -14.59,-2.52 -23.494,-2.52 -8.91,0 -16.963,1.133 -23.5,2.52 7.316,2.69 18.07,3.81 18.07,3.81 z m -2.48,-60.246 7.143,-12.32 -3.505,-5.975 -0.835,-0.864 0.583,-0.862 1.294,0.093 0.202,1.083 3.026,5.23 3.022,-5.23 0.202,-1.084 1.294,-0.093 0.582,0.862 -0.835,0.863 -3.504,5.975 7.145,12.32 h 5.648 l -0.695,1.335 h -5.696 L 257,300.78 l -7.164,12.318 h -5.697 l -0.696,-1.335 h 5.647 z m 50.186,63.986 10.423,-59.764 -2.164,-0.937 c 0,0 -8.5,11.35 -10.09,13.466 -3.49,-4.264 -10.145,-9.56 -19.16,-12.53 0.717,-1.737 3.987,-9.68 3.987,-9.68 0,0 -5.022,2.02 -7.188,2.9 0.227,-0.448 0.458,-0.89 0.458,-0.89 0,0 -7.706,0.4 -8.926,0.468 -0.617,-1.083 -4.816,-8.52 -5.383,-9.52 a 862.6,862.6 0 0 1 2.266,-3.96 c 0.264,-0.23 2.235,-1.895 2.235,-1.895 l -2.562,-4.87 -5.428,0.374 c 0,0 -0.094,2.55 -0.12,3.012 l -0.626,1.034 -0.628,-1.033 -0.112,-3.012 -5.432,-0.373 -2.56,4.868 c 0,0 1.973,1.666 2.237,1.896 a 1337,1337 0 0 1 2.27,3.96 c -0.57,1 -4.766,8.435 -5.387,9.52 -1.22,-0.068 -8.925,-0.47 -8.925,-0.47 0,0 0.23,0.443 0.45,0.89 -2.158,-0.88 -7.18,-2.9 -7.18,-2.9 0,0 3.27,7.944 3.98,9.68 -9.008,2.97 -15.664,8.267 -19.162,12.53 l -10.08,-13.466 -2.175,0.936 10.43,59.763 c 0,0 14.843,3.79 42.276,3.79 27.44,0 42.28,-3.79 42.28,-3.79 z"
       id="path4"
       inkscape:connector-curvature="0"
       style="fill:#ffffff" />
    <path
       d="m 218.268,334.62 2.52,3.375 c 6.165,-12.048 18.494,-13.41 18.494,-13.41 -10.576,3.922 -14.97,10.12 -16.4,16.186 l 2.364,3.166 c 0,0 -0.306,8.504 1.39,12.073 a 56.35,56.35 0 0 1 1.844,-0.658 c -5.503,-22.65 12.352,-26.825 12.352,-26.825 -12.613,6.515 -11.44,18.117 -8.87,25.77 a 74.01,74.01 0 0 1 3.46,-0.864 l 1.905,-9.403 a 4.368,4.368 0 0 1 -2.795,-4.07 c 0,-2.4 1.955,-4.366 4.362,-4.366 1.414,0 2.665,0.68 3.47,1.72 a 4.13,4.13 0 0 1 1.94,3.494 c 0,1.55 -0.863,2.902 -2.132,3.603 l 4.002,7.306 c 2.116,-0.21 4.303,-0.363 6.52,-0.438 l -12.937,-31.48 c -10.033,2.923 -17.896,8.336 -21.49,14.825 m 53.942,9.085 a 4.35,4.35 0 0 1 -2.147,-3.75 4.366,4.366 0 0 1 4.37,-4.356 4.37,4.37 0 0 1 3.466,1.708 4.13,4.13 0 0 1 1.936,3.496 4.097,4.097 0 0 1 -3.023,3.958 l 1.762,8.665 c 1.26,0.29 2.41,0.58 3.46,0.87 2.577,-7.647 3.747,-19.258 -8.88,-25.773 0,0 17.856,4.172 12.362,26.822 0.694,0.24 1.31,0.46 1.844,0.66 1.697,-3.57 1.39,-12.073 1.39,-12.073 l 2.373,-3.156 c -1.438,-6.077 -5.83,-12.27 -16.407,-16.195 0,0 12.328,1.37 18.492,13.41 l 2.52,-3.375 c -3.588,-6.492 -11.448,-11.908 -21.49,-14.826 l -12.935,31.475 c 2.207,0.08 4.394,0.226 6.51,0.44 l 4.394,-8.006"
       id="path6"
       inkscape:connector-curvature="0"
       style="fill:#ffffff" />
    <path
       d="m 238.897,343.275 a 3.32,3.32 0 0 1 -3.32,-3.314 c 0,-1.83 1.49,-3.307 3.32,-3.307 a 3.316,3.316 0 0 1 3.32,3.31 3.323,3.323 0 0 1 -3.32,3.313 m 0,-7.04 a 3.73,3.73 0 0 0 -3.725,3.726 3.73,3.73 0 0 0 3.725,3.73 3.733,3.733 0 0 0 3.725,-3.73 3.732,3.732 0 0 0 -3.725,-3.725 m 35.537,7.04 a 3.32,3.32 0 0 1 -3.316,-3.314 3.312,3.312 0 0 1 3.316,-3.308 c 1.83,0 3.31,1.478 3.31,3.31 a 3.313,3.313 0 0 1 -3.31,3.313 m 3.728,-3.314 a 3.732,3.732 0 0 0 -3.728,-3.724 3.74,3.74 0 0 0 -3.733,3.725 3.74,3.74 0 0 0 3.735,3.733 3.734,3.734 0 0 0 3.728,-3.732 m -62.875,9.488 c 0,-0.91 -0.686,-1.637 -1.533,-1.637 a 1.25,1.25 0 0 0 -0.422,0.072 l 0.55,3.19 c 0.785,-0.07 1.405,-0.765 1.405,-1.625"
       id="path8"
       inkscape:connector-curvature="0"
       style="fill:#ffffff" />
    <path
       d="m 213.757,344.775 a 4.1,4.1 0 0 0 -0.942,0.112 l 0.103,0.6 c 0.27,-0.067 0.55,-0.113 0.84,-0.113 2.078,0 3.765,1.822 3.765,4.074 0,2.044 -1.405,3.748 -3.232,4.024 l 0.11,0.596 c 2.11,-0.332 3.724,-2.277 3.724,-4.62 0,-2.583 -1.955,-4.673 -4.366,-4.673 m 84.953,4.673 c 0,0.86 0.62,1.553 1.407,1.624 l 0.548,-3.19 a 1.29,1.29 0 0 0 -0.43,-0.07 c -0.84,0 -1.524,0.727 -1.524,1.636"
       id="path10"
       inkscape:connector-curvature="0"
       style="fill:#ffffff" />
    <path
       d="m 299.597,354.068 0.1,-0.596 c -1.82,-0.277 -3.233,-1.98 -3.233,-4.024 0,-2.252 1.695,-4.07 3.774,-4.07 0.29,0 0.572,0.034 0.84,0.108 l 0.102,-0.6 a 4.138,4.138 0 0 0 -0.942,-0.11 c -2.41,0 -4.365,2.09 -4.365,4.672 0,2.342 1.616,4.288 3.724,4.62 m -44.32,-36.442 c 0,-0.95 0.768,-1.72 1.723,-1.72 0.942,0 1.72,0.77 1.72,1.72 a 1.723,1.723 0 0 1 -3.444,0 m 3.663,0 a 1.95,1.95 0 0 0 -1.94,-1.943 1.95,1.95 0 0 0 -1.948,1.943 1.94,1.94 0 0 0 1.949,1.934 1.94,1.94 0 0 0 1.94,-1.935 m 8.536,2.003 c 0.946,0 1.715,0.78 1.715,1.726 0,0.946 -0.77,1.72 -1.714,1.72 a 1.7235,1.7235 0 0 1 0,-3.447 m 0,3.664 c 1.066,0 1.938,-0.87 1.938,-1.937 a 1.944,1.944 0 0 0 -1.938,-1.945 c -1.067,0 -1.94,0.872 -1.94,1.946 0,1.067 0.873,1.938 1.94,1.938 m -21.95,-3.665 c 0.952,0 1.72,0.78 1.72,1.726 0,0.946 -0.768,1.72 -1.72,1.72 a 1.72,1.72 0 0 1 -1.715,-1.72 c 0,-0.946 0.77,-1.727 1.717,-1.727 m 0,3.664 a 1.942,1.942 0 0 0 0,-3.883 1.948,1.948 0 0 0 -1.947,1.946 c 0,1.067 0.873,1.938 1.948,1.938"
       id="path12"
       inkscape:connector-curvature="0"
       style="fill:#ffffff" />
    <path
       d="m 116.387,278.124 h 281.23 v 44.76 L 257.005,424.45 116.387,322.885 v -44.76 z m 290.685,49.592 v -66.024 h -300.14 v 66.024 L 257.004,436.108 Z M 116.387,84.874 H 397.613 V 238.492 H 116.387 Z m -9.46,167.555 H 407.073 V 75.41 H 106.928 v 177.02 z"
       id="path14"
       inkscape:connector-curvature="0"
       style="fill:#a2aaad" />
    <path
       d="m 262.7,111.606 h 122.573 c -2.75,6.43 -7.532,21.674 -7.532,50.075 0,28.407 4.785,43.644 7.534,50.078 H 365.609 V 172.63 h -83.23 v 39.127 H 262.7 c 2.754,-6.434 7.545,-21.67 7.545,-50.076 0,-28.4 -4.79,-43.644 -7.544,-50.073 m 22.11,102.576 v -39.115 h 78.367 v 39.115 h 26.012 c 0,0 -9.02,-13.817 -9.02,-52.5 0,-38.673 9.02,-52.506 9.02,-52.506 H 258.8 c 0,0 9.016,13.833 9.016,52.505 0,38.685 -9.017,52.502 -9.017,52.502 h 26.01"
       id="path16"
       inkscape:connector-curvature="0"
       style="fill:#a2aaad" />
    <path
       d="m 284.805,128.322 h 78.367 v 27.595 h -78.367 z m -2.43,30.026 h 83.236 v -32.463 h -83.234 v 32.463 z M 128.727,111.606 h 27.206 c -2.745,6.43 -7.52,21.674 -7.52,50.075 v 35.794 h 56.66 c 21.707,0 34.722,-6.56 40.943,-10.808 -1.174,13.047 -6.325,22.265 -8.11,25.092 h -109.18 c 2.755,-6.434 7.53,-21.67 7.53,-50.076 0,-28.4 -4.784,-43.645 -7.53,-50.074 M 239.22,214.182 c 0,0 9.532,-12.97 9.532,-32.736 0,0 -13.047,13.598 -43.68,13.598 H 150.845 V 161.68 c 0,-38.67 9.008,-52.504 9.008,-52.504 h -35.037 c 0,0 9.008,13.833 9.008,52.505 0,38.686 -9.008,52.503 -9.008,52.503 H 239.22 m 6.974,109.75 a 2.11,2.11 0 0 1 -1.212,-0.38 2.273,2.273 0 0 1 -1.728,-2.202 2.28,2.28 0 0 1 2.27,-2.27 c 0.736,0 1.39,0.357 1.807,0.898 a 2.14,2.14 0 0 1 -1.136,3.954 m 4.16,-5.576 -12.134,-5.442 12.133,29.525 v -24.084 m 17.793,5.577 c -0.452,0 -0.872,-0.136 -1.22,-0.378 a 2.27,2.27 0 0 1 -1.72,-2.202 2.275,2.275 0 0 1 2.27,-2.27 c 0.73,0 1.382,0.356 1.795,0.897 a 2.126,2.126 0 0 1 1.02,1.814 c 0,1.18 -0.965,2.14 -2.143,2.14 m -4.507,-5.576 v 24.083 l 12.132,-29.524 -12.133,5.442 m -8.914,-0.736 a 2.267,2.267 0 0 1 2.27,-2.265 2.267,2.267 0 0 1 2.27,2.265 2.27,2.27 0 0 1 -4.54,0 m 7.697,0.222 -5.428,-7.072 -5.42,7.072 5.42,6.437 5.428,-6.436 m 30.627,36.298 1.68,-2.368 1.17,1.784 -2.85,0.584 m 1.235,-5.248 0.187,2.124 -2.795,-0.826 2.608,-1.298 m 1.117,-2.974 -0.93,1.917 -1.978,-2.14 2.908,0.222 m 2.48,-1.983 -1.777,1.17 -0.604,-2.844 2.383,1.674 m 1.962,-3.095 1.187,2.657 -2.133,0.096 0.944,-2.755 m -15.94,22.998 c -0.322,0 -0.612,-0.082 -0.88,-0.22 0.01,0 0.025,0.01 0.033,0.01 a 2.19,2.19 0 0 0 2.192,-2.19 c 0,-0.516 -0.18,-0.984 -0.474,-1.356 a 1.978,1.978 0 0 1 -0.872,3.756"
       id="path18"
       inkscape:connector-curvature="0"
       style="fill:#a2aaad" />
    <path
       d="m 281.288,361.437 c 0,-0.983 0.793,-1.777 1.77,-1.777 0.97,0 1.77,0.793 1.77,1.777 0,0.97 -0.8,1.77 -1.77,1.77 -0.976,0 -1.77,-0.8 -1.77,-1.77 m -14.34,-0.61 a 1.97,1.97 0 0 1 -0.894,-0.212 h 0.047 a 2.19,2.19 0 0 0 2.19,-2.192 2.16,2.16 0 0 0 -0.48,-1.344 c 0.66,0.32 1.12,0.985 1.12,1.767 a 1.984,1.984 0 0 1 -1.98,1.978"
       id="path20"
       inkscape:connector-curvature="0"
       style="fill:#a2aaad" />
    <path
       d="m 264.32,358.423 c 0,-0.972 0.795,-1.77 1.78,-1.77 0.97,0 1.77,0.797 1.77,1.77 a 1.77,1.77 0 0 1 -1.77,1.772 1.77,1.77 0 0 1 -1.78,-1.772 m -6.59,-12.76 c -0.308,0 -0.607,-0.075 -0.88,-0.21 h 0.047 a 2.2,2.2 0 0 0 2.19,-2.194 c 0,-0.515 -0.185,-0.974 -0.483,-1.355 a 1.98,1.98 0 0 1 1.122,1.777 c 0,1.092 -0.89,1.98 -1.995,1.98"
       id="path22"
       inkscape:connector-curvature="0"
       style="fill:#a2aaad" />
    <path
       d="m 255.115,343.26 c 0,-0.972 0.798,-1.77 1.782,-1.77 0.97,0 1.77,0.797 1.77,1.77 0,0.973 -0.8,1.767 -1.77,1.767 a 1.777,1.777 0 0 1 -1.782,-1.768 m -7.603,17.565 a 1.91,1.91 0 0 1 -0.88,-0.21 h 0.037 c 1.205,0 2.19,-0.983 2.19,-2.193 0,-0.506 -0.18,-0.972 -0.477,-1.343 a 1.958,1.958 0 0 1 1.112,1.767 c 0,1.09 -0.888,1.978 -1.984,1.978"
       id="path24"
       inkscape:connector-curvature="0"
       style="fill:#a2aaad" />
    <path
       d="m 244.9,358.423 a 1.774,1.774 0 0 1 3.548,0 c 0,0.983 -0.798,1.772 -1.778,1.772 a 1.77,1.77 0 0 1 -1.77,-1.772 m -14.312,5.415 a 1.91,1.91 0 0 1 -0.88,-0.22 c 0.007,0 0.028,0.01 0.036,0.01 a 2.196,2.196 0 0 0 2.192,-2.19 c 0,-0.516 -0.18,-0.984 -0.476,-1.356 a 1.978,1.978 0 0 1 -0.872,3.756"
       id="path26"
       inkscape:connector-curvature="0"
       style="fill:#a2aaad" />
    <path
       d="m 227.974,361.437 c 0,-0.983 0.794,-1.777 1.77,-1.777 0.97,0 1.77,0.793 1.77,1.777 0,0.97 -0.798,1.77 -1.77,1.77 -0.975,0 -1.77,-0.8 -1.77,-1.77 m -8.44,-10.42 0.185,-2.123 2.6,1.297 -2.788,0.828 m -1.43,2.54 1.158,-1.784 1.695,2.368 -2.853,-0.584 m 0.488,-7.638 2.906,-0.224 -1.97,2.14 -0.936,-1.917 m -0.702,-0.815 -1.78,-1.17 2.382,-1.673 -0.602,2.843 m -4.928,-1.607 1.195,-2.657 0.942,2.758 -2.137,-0.1 m 2.153,11.772 1.955,-0.848 0.1,2.908 -2.055,-2.06 m 81.823,-0.848 1.947,0.848 -2.05,2.06 0.103,-2.908"
       id="path28"
       inkscape:connector-curvature="0"
       style="fill:#a2aaad" />
    <path
       d="m 299.5,354.65 c -2.386,-0.38 -4.227,-2.562 -4.227,-5.202 0,-2.904 2.23,-5.263 4.96,-5.263 0.365,0 0.713,0.033 1.05,0.108 l 3.38,-19.615 -14.706,19.63 c 0.323,9.412 -1.988,13.2 -1.988,13.2 0,0 -4.94,-1.98 -10.41,-3.085 l -1.93,-9.503 a 4.18,4.18 0 0 1 -2.243,-0.72 l -0.075,-0.024 -4.83,8.8 c 0,0 -6.093,-0.586 -9.144,-0.586 l 2.72,-8.453 -5.064,-13.056 -5.064,13.058 2.73,8.453 c -3.048,0 -9.146,0.588 -9.146,0.588 l -4.47,-8.152 c -0.28,0.062 -0.57,0.095 -0.863,0.095 -0.62,0 -1.21,-0.144 -1.735,-0.39 l -2.005,9.894 c -5.478,1.108 -10.406,3.086 -10.406,3.086 0,0 -2.314,-3.79 -2,-13.202 l -14.706,-19.63 3.387,19.615 a 4.79,4.79 0 0 1 1.04,-0.108 c 2.746,0 4.97,2.36 4.97,5.263 0,2.64 -1.843,4.822 -4.233,5.2 l 2.93,16.986 c 4.632,-1.78 20.21,-7.152 39.573,-7.152 19.372,0 34.95,5.37 39.57,7.152 l 2.932,-16.985"
       id="path30"
       inkscape:connector-curvature="0"
       style="fill:#a2aaad" />
    <path
       d="m 204.298,315.99 2.167,-0.94 c 0,0 8.508,11.35 10.09,13.47 3.49,-4.267 10.146,-9.563 19.163,-12.53 -0.712,-1.744 -3.982,-9.69 -3.982,-9.69 0,0 5.023,2.03 7.18,2.9 -0.227,-0.436 -0.45,-0.886 -0.45,-0.886 l 8.918,0.467 a 9370.48,9370.48 0 0 0 5.383,-9.517 c -0.496,-0.873 -2.093,-3.658 -2.258,-3.956 a 555.8,555.8 0 0 1 -2.238,-1.9 l 2.555,-4.867 5.437,0.378 0.11,3.005 0.625,1.032 0.627,-1.032 0.112,-3.005 5.432,-0.38 2.558,4.868 c 0,0 -1.962,1.674 -2.234,1.9 -0.17,0.298 -1.762,3.083 -2.27,3.956 0.58,1.003 4.773,8.435 5.394,9.52 l 8.913,-0.468 c 0,0 -0.227,0.45 -0.445,0.887 2.157,-0.87 7.18,-2.9 7.18,-2.9 0,0 -3.26,7.946 -3.98,9.69 9.015,2.968 15.672,8.264 19.16,12.53 1.584,-2.122 10.092,-13.47 10.092,-13.47 l 2.166,0.94 -10.423,59.766 c 0,0 -14.85,3.78 -42.283,3.78 -27.43,0 -42.28,-3.78 -42.28,-3.78 L 204.3,315.99 Z m 193.32,6.895 v -44.76 h -281.23 v 44.76 L 257,424.45 Z m -8.43,-108.703 h -26.016 v -39.115 h -78.357 v 39.115 h -26.02 c 0,0 9.016,-13.817 9.016,-52.5 0,-38.673 -9.015,-52.506 -9.015,-52.506 H 389.19 c 0,0 -9.018,13.833 -9.018,52.505 0,38.686 9.018,52.503 9.018,52.503 z m -149.97,0 H 124.82 c 0,0 9.01,-13.817 9.01,-52.5 0,-38.673 -9.01,-52.506 -9.01,-52.506 h 35.025 c 0,0 -9.01,13.833 -9.01,52.505 v 33.365 h 54.24 c 30.63,0 43.678,-13.598 43.678,-13.598 0,19.767 -9.534,32.736 -9.534,32.736 z m -122.83,24.303 H 397.613 V 84.865 H 116.387 v 153.62 z"
       id="path32"
       inkscape:connector-curvature="0"
       style="fill:#010101" />
    <path
       d="m 284.815,128.322 h 78.366 v 27.595 H 284.817 Z M 238.897,336.65 a 3.32,3.32 0 0 0 -3.32,3.308 3.32,3.32 0 0 0 6.64,0 3.322,3.322 0 0 0 -3.32,-3.31 m 35.537,0 a 3.32,3.32 0 0 0 -3.32,3.31 3.32,3.32 0 0 0 3.32,3.318 3.314,3.314 0 0 0 0,-6.627"
       id="path34"
       inkscape:connector-curvature="0"
       style="fill:#010101" />
    <path
       d="m 217.43,371.635 -2.932,-16.985 c 2.39,-0.38 4.233,-2.56 4.233,-5.202 0,-2.903 -2.23,-5.262 -4.976,-5.262 -0.356,0 -0.703,0.033 -1.04,0.11 l -3.38,-19.616 14.706,19.633 c -0.323,9.408 1.99,13.2 1.99,13.2 0,0 4.93,-1.983 10.407,-3.09 l 2.014,-9.89 a 4.093,4.093 0 0 0 2.594,0.297 l 4.47,8.147 c 0,0 6.097,-0.583 9.143,-0.583 l -2.72,-8.452 5.061,-13.056 5.064,13.056 -2.73,8.452 c 3.052,0 9.146,0.583 9.146,0.583 l 4.837,-8.8 c 0.017,0.01 0.042,0.017 0.075,0.024 a 4.12,4.12 0 0 0 2.236,0.72 l 1.93,9.505 c 5.478,1.107 10.414,3.09 10.414,3.09 0,0 2.303,-3.793 1.99,-13.2 l 14.702,-19.634 -3.384,19.618 a 4.65,4.65 0 0 0 -1.042,-0.11 c -2.74,0 -4.97,2.358 -4.97,5.26 0,2.642 1.84,4.823 4.234,5.203 l -2.927,16.986 c -4.634,-1.778 -20.212,-7.15 -39.576,-7.15 -19.373,0 -34.95,5.372 -39.57,7.15 z m -3.135,-18.16 c 1.827,-0.28 3.233,-1.98 3.233,-4.028 0,-2.252 -1.692,-4.07 -3.775,-4.07 a 3.5,3.5 0 0 0 -0.84,0.1 l -0.098,-0.59 a 4.33,4.33 0 0 1 0.938,-0.112 c 2.422,0 4.378,2.09 4.378,4.672 0,2.343 -1.622,4.288 -3.73,4.62 l -0.104,-0.59 z m -0.964,-5.593 a 1.4,1.4 0 0 1 0.424,-0.067 c 0.848,0 1.533,0.728 1.533,1.633 0,0.855 -0.62,1.558 -1.405,1.624 l -0.55,-3.19 z m 25.57,-4.19 a 3.74,3.74 0 0 1 -3.735,-3.73 3.732,3.732 0 0 1 7.462,0 3.73,3.73 0 0 1 -3.725,3.73 z m 0.854,-23.902 12.94,31.484 a 97.736,97.736 0 0 0 -6.51,0.44 l -4.007,-7.312 a 4.088,4.088 0 0 0 2.126,-3.594 c 0,-1.484 -0.77,-2.777 -1.94,-3.503 a 4.374,4.374 0 0 0 -3.46,-1.71 4.373,4.373 0 0 0 -4.37,4.367 4.357,4.357 0 0 0 2.802,4.06 l -1.914,9.41 c -1.26,0.29 -2.413,0.578 -3.463,0.863 -2.563,-7.648 -3.742,-19.257 8.884,-25.766 0,0 -17.86,4.163 -12.364,26.82 -0.69,0.233 -1.31,0.45 -1.836,0.653 -1.696,-3.56 -1.398,-12.072 -1.398,-12.072 l -2.36,-3.155 c 1.43,-6.07 5.825,-12.264 16.408,-16.196 0,0 -12.337,1.37 -18.493,13.41 l -2.53,-3.367 c 3.598,-6.49 11.453,-11.907 21.486,-14.834 z m -1.54,-6.88 12.14,5.442 v 24.08 l -12.14,-29.52 z m 18.785,-2.14 5.428,7.077 -5.428,6.437 -5.428,-6.437 z m 6.64,7.586 12.14,-5.442 -12.14,29.522 z m 10.794,25.34 a 3.735,3.735 0 0 1 -3.733,-3.732 3.728,3.728 0 0 1 3.735,-3.723 3.728,3.728 0 0 1 0,7.455 z m 21.294,-9.07 -2.525,3.366 c -6.164,-12.04 -18.488,-13.41 -18.488,-13.41 10.582,3.932 14.965,10.125 16.408,16.196 l -2.365,3.156 c 0,0 0.298,8.51 -1.397,12.072 a 46.92,46.92 0 0 0 -1.842,-0.653 c 5.503,-22.656 -12.362,-26.822 -12.362,-26.822 12.623,6.51 11.457,18.12 8.89,25.767 a 91.7,91.7 0 0 0 -3.473,-0.863 l -1.748,-8.664 a 4.114,4.114 0 0 0 3.013,-3.958 4.115,4.115 0 0 0 -1.937,-3.503 4.39,4.39 0 0 0 -3.465,-1.71 4.373,4.373 0 0 0 -4.37,4.366 c 0,1.6 0.863,2.978 2.14,3.747 l -4.393,8.007 a 95.67,95.67 0 0 0 -6.506,-0.443 l 12.935,-31.482 c 10.04,2.925 17.897,8.34 21.49,14.83 z m 5.35,10.854 c -0.268,-0.066 -0.55,-0.1 -0.84,-0.1 -2.07,0 -3.774,1.818 -3.774,4.07 0,2.05 1.413,3.748 3.233,4.03 l -0.1,0.59 c -2.108,-0.332 -3.724,-2.277 -3.724,-4.62 0,-2.583 1.955,-4.673 4.365,-4.673 0.323,0 0.638,0.046 0.942,0.112 l -0.102,0.59 z m -0.963,5.594 c -0.79,-0.066 -1.405,-0.77 -1.405,-1.624 0,-0.905 0.68,-1.633 1.53,-1.633 0.145,0 0.29,0.025 0.434,0.067 l -0.56,3.19 z m -19.62,17.125 c -7.322,2.693 -18.067,3.81 -18.067,3.81 7.24,0 15.106,-0.848 20.634,-1.59 -7.326,2.76 -18.357,3.9 -18.357,3.9 8.153,0 17.103,-1.076 22.606,-1.866 -8.07,3.1 -21.664,4.36 -21.664,4.36 20.01,-0.543 31.852,-3.52 31.852,-3.52 l 9.186,-53.3 -9.298,12.41 c -4.08,-6.638 -12.005,-11.997 -22.175,-14.984 l 2.81,-6.825 -14.38,6.454 v -3.53 L 257,302.095 l -6.648,11.423 v 3.53 l -14.375,-6.456 2.803,6.825 c -10.162,2.986 -18.087,8.345 -22.175,14.984 l -9.298,-12.41 9.2,53.3 c 0,0 11.843,2.976 31.848,3.52 0,0 -13.597,-1.262 -21.667,-4.36 5.507,0.79 14.445,1.863 22.597,1.863 0,0 -11.022,-1.137 -18.348,-3.9 5.523,0.744 13.396,1.59 20.634,1.59 0,0 -10.75,-1.115 -18.072,-3.81 6.543,-1.388 14.597,-2.52 23.502,-2.52 8.91,0 16.958,1.134 23.494,2.52 z"
       id="path36"
       inkscape:connector-curvature="0"
       style="fill:#010101" />
    <path
       d="m 253.767,291.83 -1.294,-0.09 -0.587,0.864 0.848,0.864 3.506,5.97 -7.145,12.322 h -5.65 l 0.685,1.338 h 5.71 l 7.16,-12.32 7.157,12.32 h 5.704 l 0.697,-1.338 H 264.9 l -7.142,-12.322 3.5,-5.97 0.848,-0.864 -0.583,-0.863 -1.302,0.09 -0.205,1.09 -3.014,5.226 -3.02,-5.227 -0.212,-1.088 m -5.383,65.243 c 0.298,0.37 0.483,0.838 0.483,1.348 0,1.21 -0.992,2.197 -2.202,2.197 -0.01,0 -0.017,-0.008 -0.033,-0.008 0.268,0.137 0.566,0.22 0.88,0.22 1.1,0 1.98,-0.89 1.98,-1.99 a 1.96,1.96 0 0 0 -1.108,-1.767 m -16.925,3.007 c 0.293,0.372 0.48,0.84 0.48,1.355 0,1.203 -0.99,2.19 -2.2,2.19 -0.01,0 -0.018,-0.008 -0.034,-0.008 0.268,0.135 0.566,0.22 0.88,0.22 1.1,0 1.99,-0.892 1.99,-1.99 0,-0.777 -0.467,-1.445 -1.116,-1.77 m 34.635,0.54 h -0.033 c 0.26,0.13 0.558,0.21 0.882,0.21 a 1.98,1.98 0 0 0 1.978,-1.98 1.97,1.97 0 0 0 -1.107,-1.776 c 0.285,0.37 0.475,0.833 0.475,1.354 0,1.206 -0.983,2.19 -2.195,2.19 m 16.962,3.007 h -0.032 a 2,2 0 0 0 0.88,0.21 c 1.09,0 1.98,-0.888 1.98,-1.978 a 1.98,1.98 0 0 0 -1.108,-1.778 c 0.298,0.37 0.476,0.833 0.476,1.353 0,1.208 -0.984,2.19 -2.196,2.19 M 259.72,343.68 c 0,-0.78 -0.457,-1.45 -1.115,-1.767 0.294,0.37 0.48,0.838 0.48,1.343 0,1.21 -0.98,2.193 -2.19,2.193 h -0.034 c 0.26,0.136 0.56,0.21 0.88,0.21 a 1.985,1.985 0 0 0 1.98,-1.98"
       id="path38"
       inkscape:connector-curvature="0"
       style="fill:#010101" />
    <path
       d="m 248.442,358.426 a 1.7735,1.7735 0 0 0 -3.547,0 c 0,0.98 0.793,1.77 1.778,1.77 0.972,0 1.77,-0.79 1.77,-1.77 m -16.93,3.008 a 1.774,1.774 0 0 0 -3.547,0 1.774,1.774 0 0 0 3.548,0 m 34.58,-1.24 a 1.77,1.77 0 0 0 1.77,-1.768 c 0,-0.98 -0.792,-1.777 -1.77,-1.777 -0.97,0 -1.768,0.795 -1.768,1.775 0,0.975 0.797,1.77 1.77,1.77 m 16.96,3.01 c 0.977,0 1.77,-0.798 1.77,-1.77 a 1.77,1.77 0 1 0 -1.77,1.77 m -24.394,-19.942 c 0,-0.985 -0.794,-1.77 -1.77,-1.77 a 1.77,1.77 0 0 0 -1.778,1.77 1.775,1.775 0 0 0 3.548,0 m -45.695,0.235 2.126,0.1 -0.943,-2.756 -1.183,2.656 m 3.147,0.442 1.778,1.174 0.6,-2.852 -2.378,1.678 m 2.476,1.98 0.94,1.922 1.97,-2.14 -2.91,0.217 m 0.94,5.1 2.794,-0.828 -2.61,-1.293 -0.185,2.12 m -1.428,2.538 2.853,0.584 -1.69,-2.368 -1.163,1.784 m -2.992,1.716 2.053,2.062 -0.1,-2.91 -1.953,0.848 m 83.793,-11.677 2.126,-0.103 -1.186,-2.657 -0.942,2.76 m -2.802,1.517 1.786,-1.177 -2.384,-1.68 0.6,2.857 m -1.626,2.723 0.926,-1.918 -2.907,-0.224 1.98,2.14 m -2.803,2.356 2.796,0.83 -0.18,-2.123 -2.616,1.29 m 1.373,3.955 2.853,-0.582 -1.17,-1.79 -1.683,2.372 m 3.78,3.19 2.06,-2.065 -1.95,-0.848 -0.11,2.914 m -41.765,-39.71 c 0,-1.066 0.865,-1.943 1.94,-1.943 a 1.95,1.95 0 0 1 1.94,1.943 1.94,1.94 0 0 1 -3.88,0 m 4.21,0 a 2.268,2.268 0 0 0 -2.27,-2.268 2.2665,2.2665 0 0 0 0,4.533 2.268,2.268 0 0 0 2.27,-2.263 m 8.202,5.668 c -1.066,0 -1.94,-0.87 -1.94,-1.938 0,-1.074 0.874,-1.945 1.94,-1.945 1.074,0 1.947,0.872 1.947,1.946 a 1.946,1.946 0 0 1 -1.95,1.938 m 1.803,-3.318 a 2.27,2.27 0 0 0 -1.802,-0.897 2.278,2.278 0 0 0 -2.27,2.277 c 0,1.057 0.736,1.953 1.73,2.2 0.346,0.233 0.76,0.37 1.21,0.37 a 2.138,2.138 0 0 0 2.14,-2.14 c 0,-0.76 -0.404,-1.428 -1.007,-1.81 m -23.742,3.318 a 1.945,1.945 0 0 1 -1.946,-1.938 c 0,-1.074 0.872,-1.945 1.947,-1.945 1.068,0 1.94,0.872 1.94,1.946 a 1.944,1.944 0 0 1 -1.94,1.938 m 1.795,-3.318 a 2.266,2.266 0 0 0 -1.794,-0.897 2.284,2.284 0 0 0 -2.276,2.277 c 0,1.057 0.736,1.953 1.728,2.2 0.347,0.233 0.76,0.37 1.212,0.37 a 2.135,2.135 0 0 0 1.13,-3.95"
       id="path40"
       inkscape:connector-curvature="0"
       style="fill:#010101" />
    <path
       d="m 258.715,317.626 a 1.717,1.717 0 1 0 -3.433,-0.005 1.717,1.717 0 0 0 3.433,0.007 m 8.762,2.007 a 1.717,1.717 0 1 0 -0.007,3.432 1.717,1.717 0 0 0 0.007,-3.432 m -21.95,0 a 1.7175012,1.7175012 0 1 0 0.004,3.435 1.718,1.718 0 0 0 0,-3.436"
       id="path42"
       inkscape:connector-curvature="0"
       style="fill:#010101" />
  </g>
</svg>
