<?xml version="1.0" encoding="UTF-8" standalone="no"?>
<svg
   xmlns:dc="http://purl.org/dc/elements/1.1/"
   xmlns:cc="http://creativecommons.org/ns#"
   xmlns:rdf="http://www.w3.org/1999/02/22-rdf-syntax-ns#"
   xmlns:svg="http://www.w3.org/2000/svg"
   xmlns="http://www.w3.org/2000/svg"
   xmlns:sodipodi="http://sodipodi.sourceforge.net/DTD/sodipodi-0.dtd"
   xmlns:inkscape="http://www.inkscape.org/namespaces/inkscape"
   width="512"
   height="512"
   viewBox="0 0 512 512"
   version="1.1"
   id="svg12"
   sodipodi:docname="new-jersey-devils.svg"
   inkscape:version="0.92.5 (2060ec1f9f, 2020-04-08)">
  <metadata
     id="metadata18">
    <rdf:RDF>
      <cc:Work
         rdf:about="">
        <dc:format>image/svg+xml</dc:format>
        <dc:type
           rdf:resource="http://purl.org/dc/dcmitype/StillImage" />
      </cc:Work>
    </rdf:RDF>
  </metadata>
  <defs
     id="defs16" />
  <sodipodi:namedview
     pagecolor="#ffffff"
     bordercolor="#666666"
     borderopacity="1"
     objecttolerance="10"
     gridtolerance="10"
     guidetolerance="10"
     inkscape:pageopacity="0"
     inkscape:pageshadow="2"
     inkscape:window-width="640"
     inkscape:window-height="480"
     id="namedview14"
     showgrid="false"
     inkscape:zoom="0.4609375"
     inkscape:cx="256"
     inkscape:cy="256"
     inkscape:window-x="657"
     inkscape:window-y="66"
     inkscape:window-maximized="0"
     inkscape:current-layer="svg12" />
  <g
     id="g10"
     transform="translate(-20,44)"
     style="fill:none;fill-rule:evenodd">
    <path
       d="m 259.305,389.662 c 76.066,0 137.73,-61.676 137.73,-137.753 0,-76.08 -61.664,-137.76 -137.73,-137.76 -76.062,0 -137.727,61.678 -137.727,137.758 0,76.076 61.663,137.752 137.727,137.752 z"
       id="path2"
       inkscape:connector-curvature="0"
       style="fill:#010101" />
    <path
       d="m 259.305,375.162 c 68.054,0 123.224,-55.183 123.224,-123.253 0,-68.073 -55.17,-123.256 -123.226,-123.256 -68.054,0 -123.23,55.183 -123.23,123.254 0,68.067 55.174,123.252 123.23,123.252 z"
       id="path4"
       inkscape:connector-curvature="0"
       style="fill:#ffffff" />
    <path
       d="m 146.827,389.046 c -15.947,6.84 -30.798,17.342 -36.348,24.462 -8.89,-21.632 -10.64,-36.564 -8.933,-52.798 2.344,-22.275 11.227,-42.54 23.33,-56.922 0.573,12.53 3.8,22.676 11.128,21.607 5.837,-0.856 8.31,-4.044 12.163,-5.7 12.453,-5.348 23.676,-6.243 39.458,-6.243 14.348,0 37.045,6.3 47.188,-3.847 6.56,-6.563 13.1,-13.262 13.1,-13.262 l -14.24,-25.92 -15.233,39.504 c -11.96,-3.414 -26.767,-4.13 -33.17,-4.13 -13.67,0 -29.127,3.755 -35.88,6.263 l -2.29,-3.89 c -1.24,-2.6 -1.84,-3.783 -1.84,-3.783 l 37.73,-94.63 c 9.114,-21.646 13.1,-35.32 29.048,-38.736 15.363,-3.29 24.495,2.35 36.446,15.384 10.82,11.798 29.614,37.024 29.614,37.024 l 17.088,-45 c -17.798,0 -34.886,-11.964 -34.886,-30.19 0,-13.67 4.512,-25.89 18.94,-35.602 6.095,-4.105 13.802,-7.428 20.923,-9.418 10.175,-2.84 19.015,-3.4 19.015,-3.4 -1.285,1.142 -2.777,2.775 -2.777,2.775 -2.564,2.564 -9.397,9.474 -9.893,13.816 -0.71,6.157 4.48,9.54 12.596,9.54 4.885,0 41.717,0.073 41.717,0.073 7.545,0 13.243,-7.12 8.968,-13.956 -3.402,-5.447 -4.625,-6.55 -7.047,-10.253 0,0 -1.35,-1.71 -2.344,-2.85 h 6.263 c 5.27,0 22.695,1.368 32.89,11.108 9.536,9.115 11.295,12.38 12.957,24.64 1.137,8.402 -2.563,22.36 -11.41,30.305 -8.545,7.673 -22.03,12.488 -32.16,14.125 l -46.986,124.18 c -9.937,24.882 -16.416,36.094 -34.455,46.57 -17.655,10.253 -35.592,12.532 -45.842,12.532 -17.372,0 -25.535,-4.236 -41.29,-9.968 -15.42,-5.61 -24.14,-4.6 -28.05,-1.992 -3.842,2.563 -4.41,3.133 -5.42,5.4 -1.476,3.33 1.07,8.82 4.708,11.69 10.04,7.902 20.575,12.603 22.567,13.453 -2.136,-0.004 -30.952,1.017 -47.34,8.04 z"
       id="path6"
       inkscape:connector-curvature="0"
       style="fill:#010101" />
    <path
       d="m 152,305.217 c 8.21,-2.434 21.172,-5.117 33.27,-5.117 1.77,0 16.123,0.098 29.667,3.08 l 17.834,-46.236 22.108,40.24 -2.77,3.012 c -0.272,0.297 -6.696,6.87 -13.265,13.437 -10.91,10.912 -29.655,5.684 -45.16,5.55 l -6.054,-0.038 -8.51,-0.1 c -10.798,-0.17 -19.3,1.843 -28.704,5.882 -0.9,0.385 -1.816,0.982 -2.88,1.675 -2.53,1.645 -5.678,3.688 -10.708,4.424 -3.502,0.513 -6.784,-0.4 -9.492,-2.638 -2.583,-2.124 -4.558,-5.45 -5.932,-9.913 -7.546,12.526 -12.583,27.535 -14.19,42.828 -1.386,13.178 -0.29,24.957 5.427,41.764 7.936,-6.778 19.744,-14.03 31.94,-19.257 8.744,-3.75 20.324,-5.85 30.1,-7.035 a 97.065,97.065 0 0 1 -6.6,-4.76 c -5.317,-4.18 -9.16,-12.24 -6.39,-18.475 1.646,-3.718 3.266,-5.03 7.462,-7.83 4.73,-3.15 14.32,-5.47 33.155,1.38 l 6.727,2.504 c 11.38,4.293 18.9,7.122 32.618,7.122 6.835,0 24.71,-1.147 42.984,-11.76 16.252,-9.442 22.287,-19.202 31.665,-42.983 l 0.394,-0.858 48.08,-127.077 3.25,-0.526 c 8.48,-1.374 21.24,-5.533 29.264,-12.745 7.565,-6.79 10.42,-19.057 9.57,-25.297 -1.47,-10.863 -2.628,-13.05 -11.244,-21.282 -6.165,-5.89 -16.352,-8.386 -23.65,-9.203 a 98.195,98.195 0 0 1 2.657,4.058 c 2.91,4.656 3.12,9.96 0.574,14.55 -2.772,5.007 -8.28,8.118 -14.383,8.118 l -41.707,-0.067 c -6.683,0 -11.918,-1.91 -15.133,-5.516 -2.502,-2.805 -3.58,-6.39 -3.124,-10.372 0.26,-2.31 1.315,-4.795 3.3,-7.697 -0.81,0.2 -1.624,0.41 -2.456,0.642 -6.967,1.943 -13.992,5.1 -19.276,8.656 -11.354,7.646 -16.416,17.168 -16.416,30.877 0,5.92 2.29,11.338 6.616,15.667 5.523,5.53 13.96,8.827 22.572,8.827 h 8.253 l -23.706,62.43 -6.202,-8.327 c -0.185,-0.25 -18.744,-25.13 -29.245,-36.577 -11.93,-13.015 -19.187,-16.207 -31.058,-13.665 -10.93,2.346 -14.747,10.577 -22.33,28.972 l -2.633,6.338 -37.577,93.718 1.31,-0.4 z"
       id="path8"
       inkscape:connector-curvature="0"
       style="fill:#c8102e" />
  </g>
</svg>
