<?xml version="1.0" encoding="UTF-8" standalone="no"?>
<svg
   xmlns:dc="http://purl.org/dc/elements/1.1/"
   xmlns:cc="http://creativecommons.org/ns#"
   xmlns:rdf="http://www.w3.org/1999/02/22-rdf-syntax-ns#"
   xmlns:svg="http://www.w3.org/2000/svg"
   xmlns="http://www.w3.org/2000/svg"
   xmlns:sodipodi="http://sodipodi.sourceforge.net/DTD/sodipodi-0.dtd"
   xmlns:inkscape="http://www.inkscape.org/namespaces/inkscape"
   width="512"
   height="512"
   viewBox="0 0 512 512"
   version="1.1"
   id="svg18"
   sodipodi:docname="ottawa-senators.svg"
   inkscape:version="0.92.5 (2060ec1f9f, 2020-04-08)">
  <metadata
     id="metadata24">
    <rdf:RDF>
      <cc:Work
         rdf:about="">
        <dc:format>image/svg+xml</dc:format>
        <dc:type
           rdf:resource="http://purl.org/dc/dcmitype/StillImage" />
      </cc:Work>
    </rdf:RDF>
  </metadata>
  <defs
     id="defs22" />
  <sodipodi:namedview
     pagecolor="#ffffff"
     bordercolor="#666666"
     borderopacity="1"
     objecttolerance="10"
     gridtolerance="10"
     guidetolerance="10"
     inkscape:pageopacity="0"
     inkscape:pageshadow="2"
     inkscape:window-width="640"
     inkscape:window-height="480"
     id="namedview20"
     showgrid="false"
     inkscape:zoom="0.4609375"
     inkscape:cx="256"
     inkscape:cy="256"
     inkscape:window-x="0"
     inkscape:window-y="0"
     inkscape:window-maximized="0"
     inkscape:current-layer="svg18" />
  <g
     id="g16"
     transform="translate(-8)"
     style="fill:none;fill-rule:evenodd">
    <path
       d="m 325.193,207.884 -35.967,-49.1 -11.742,5.485 c 0,0 -4.32,-2.433 -21.347,-4.833 l 8.456,-8.467 v -19.41 h -6.027 c 3.832,-5.104 4.46,-12.95 4.46,-19.62 0,-6.665 -0.14,-21.942 19.51,-34.91 h -77.378 c -45.465,15.26 -47.9,83.32 -43.863,129.355 l 11.2,-4.33 c 0,0 -7.436,16.69 -3.918,25.7 -5.192,12.17 -3.463,23.767 1.567,32.552 l -5.645,7.916 1.252,35.728 c 0,0 -0.71,0.99 -1.36,1.877 -1.515,2.065 -5.29,5.267 -18.866,7.76 -15.023,2.76 -18.445,5.843 -19.962,12.136 -1.523,6.315 -15.22,10.942 -16.6,11.37 0,0 -1.43,4.15 -1.43,8.94 0,19.102 24.086,31.356 52.104,42.135 29.598,11.388 65.794,20.677 78.12,36.968 15.138,7.58 32.51,11.833 51.507,11.833 66.924,0 117.506,-55.243 117.506,-117.758 0.003,-52.057 -34.1,-95.54 -81.58,-111.326 z"
       id="path2"
       inkscape:connector-curvature="0"
       style="fill:#010101" />
    <path
       d="m 169.377,190.55 c 0,0 -5.8,-84.173 35.31,-101.255 l 5.94,37.855 1.254,-39.86 50.73,0.07 c -5.548,3.508 -7.423,7.793 -8.5,12.57 -2.284,10.086 -0.455,23.193 -4.635,30.277 l -38.672,-0.035 -41.425,60.38 z m -37.904,145.832 3.553,6.632 -3.19,3.335 51.79,23.643 c -35.154,-22.36 -50.344,-31.388 -50.344,-40.625 0,-8.7 20.712,-5.627 32.26,-13.855 3.067,18.368 -23.202,18.923 -23.202,18.923 l 43.202,23.75 c 20.974,20.034 45.222,26.49 45.222,26.49 5.225,6.044 6.27,11.46 6.27,11.46 0,0 -25.92,-15.937 -39.09,-17.708 0,0 8.23,4.012 17.873,9.168 15.505,8.29 35.02,20.625 32.506,32.188 -21.935,-30.954 -130.23,-40.644 -130.23,-72.188 0,-8.51 11.776,-8.51 13.38,-11.216 z m 155.175,78.402 c 6.096,-18.676 19.396,-29.12 36.024,-41.283 15.216,-11.13 29.232,-21.61 29.232,-42.36 -0.627,-2.19 -17.403,-8.906 -19.284,-9.426 0,0 10.66,8.802 10.66,12.448 0,3.646 -23.568,17.343 -23.568,17.343 0,0 2.347,-2.95 5.33,-6.51 4.12,-4.92 9.25,-11.212 9.25,-14.324 0,-4.323 -8.1,-5.68 -10.626,-14.67 0,0 -2.198,3.363 -4.336,8.02 -2.258,4.914 -4.46,11.208 -4.46,14.237 l 4.11,28.576 -11.39,-1.32 c -1.036,0.843 -21.103,19.72 -20.942,49.272 z"
       id="path4"
       inkscape:connector-curvature="0"
       style="fill:#c8102e" />
    <path
       d="m 303.022,357.493 4.18,-10.833 2.37,11.805 z m -84.032,-96.663 66.196,-22.78 33.583,19.585 0.28,3.053 c 0,0 -1.264,-1.093 -3.44,-2.282 -3.504,-1.912 -9.31,-4.28 -15.584,-4.28 -3.797,0.017 -7.547,2.133 -10.278,4.654 -3.26,3.007 -5.21,6.39 -5.21,6.39 0,0 -4.233,-10.66 -23.36,-10.66 -17.977,0 -42.19,6.32 -42.19,6.32 z"
       id="path6"
       inkscape:connector-curvature="0"
       style="fill:#c69214" />
    <path
       d="m 200.386,250.134 3.24,10.034 87.55,-35.07 34.562,30.105 -0.805,-13.346 a 3.85,3.85 0 0 1 -1.425,0.29 c -3.692,0 -10.73,-4.653 -10.73,-4.653 l 1.323,-1.11 c 0,0 4.81,1.666 6.76,1.666 1.03,0 2.57,-0.426 3.794,-0.827 l -0.796,-13.2 -37.887,-52.753 -8.45,3.032 c 0,0 -19.197,-7.708 -36.546,-7.708 -28.766,0 -62.05,27.986 -62.05,57.152 l 18.395,1.25 50.38,-37.708 -50.798,50 c 0,0 -3.97,-8.75 -11.288,-8.75 -3.162,0.078 -10.713,5.228 -10.713,17.29 0,10.486 5,16.18 5,16.18 l -5.818,8.056 c 2.456,49.152 1.715,72.24 -15.293,67.22 l 24.735,12.013 c 0,0 -0.487,-31.666 -0.487,-40.555 0,-16.273 1.335,-17.977 3.345,-17.916 5.46,0 6.934,28.465 7.57,46.745 0.367,10.59 0.757,18.777 0.757,18.777 0,0 19.825,21.702 55.082,24.756 -30.573,-21.484 -27.09,-47.495 -24.807,-65.067 1.05,-8.08 2.167,-16.51 4.18,-25.764 -28.08,-0.277 -28.29,-15.83 -28.29,-19.86 0,-4.03 0.6,-6.094 0.6,-6.094 -1.227,0.85 -6.94,5.296 -14.22,3.144 13.166,-4.27 13.133,-17.326 13.133,-17.326 z m 15.223,-45.087 -20.8,13.802 -11.548,-0.366 c 0,-2.676 1.307,-25.678 32.818,-40.417 -2.618,1.747 -4.887,3.796 -7.21,5.677 -5.7,4.614 -14.267,12.915 -14.267,17.238 0,5.315 6.95,7.295 21.006,4.064 z m 95.27,8.994 c 0.26,0 7.053,5.905 7.053,14.43 0,2.29 1.324,4.236 1.324,4.236 l -0.418,0.903 c 0,0 -1.604,-0.904 -2.16,-0.904 -0.558,0 -1.325,0.695 -3.137,0.695 -1.812,0 -5.365,-2.22 -9.198,-6.526 0,0 0.487,-0.348 1.116,-0.348 0.627,0 3.624,2.987 5.646,2.987 2.022,0 1.463,-1.112 4.25,-0.903 0,0 -0.697,-2.085 -0.697,-3.543 0,-6.085 -3.973,-9.55 -3.973,-10.208 0,-0.7 0.19,-0.82 0.19,-0.82 z m -13.433,0.014 c 0.204,0 3.275,3.39 5.07,3.39 1.022,0 1.443,-0.47 2.508,-0.47 0,0 -0.096,-0.4 -0.078,-0.91 0.1,-1.66 0.582,-2.36 0.626,-3.62 0.057,-1.582 -1.736,-6.052 -1.785,-6.198 -0.2,-0.594 0.074,-2.18 0.313,-1.91 0.907,1.084 4.46,6.738 4.46,10.556 0,1.81 -0.155,2.725 -0.21,4.272 -0.055,1.547 0.828,3.098 0.828,3.098 l -0.3,0.807 c 0,0 -1.24,-1.72 -3.332,-1.72 -2.26,0 -3.16,-0.47 -4.468,-1.667 -1.307,-1.197 -4.234,-5.092 -4.224,-5.31 0,-0.15 0.14,-0.32 0.592,-0.32 z m -18.03,-27.287 c 0,0 -2.454,2.604 -2.454,9.844 0,11.127 5.885,18.074 12.49,18.074 0.99,0 4.44,-0.677 4.44,-0.677 0,0 -1.776,4.532 -7.263,4.532 -7.21,0 -14.945,-9.793 -14.945,-18.178 0,-9.79 7.734,-13.594 7.734,-13.594 z m -27,28.42 c 0,-1.34 -0.088,-1.61 -0.088,-2.76 0,-1.15 0.954,-3.67 1.53,-4.827 0.748,-1.494 5.22,-6.202 6.378,-7.015 0.303,-0.2 0.505,1.268 0.233,1.753 -0.066,0.12 -0.85,0.915 -1.592,2.084 -0.916,1.438 -1.817,3.394 -1.817,4.765 0,1.094 0.615,1.524 0.667,2.97 0,0.44 -0.245,0.857 -0.245,0.857 1.42,0 2.034,1.077 3.798,1.077 4.546,0 7.507,-2.74 8.36,-2.74 0.245,0 0.802,0.13 0.802,0.486 0,0.19 -2.09,1.797 -4.878,3.385 -2.396,1.368 -5.32,2.76 -7.734,2.76 -3.083,0 -2.77,-0.59 -3.937,-0.59 -1.168,0 -2.683,1.147 -2.683,1.147 l -0.828,-0.143 c 0.004,0 2.032,-1.866 2.032,-3.206 z M 237.94,225.83 c 0.204,-0.46 0.424,-3.303 0.942,-5.278 0.41,-1.567 1.06,-2.212 1.637,-3.368 1.44,-2.883 7.034,-6.744 8.31,-7.64 0.305,-0.2 0.393,0.505 0.123,0.99 -0.187,0.335 -3.083,2.63 -4.704,5.817 -0.737,1.45 -0.994,3.127 -0.994,4.808 0,1.285 -0.28,2.31 -0.28,2.31 2.078,0 3.593,1.874 4.983,1.874 4.545,0 9.494,-2.767 10.346,-2.767 0.244,0 1.26,0.204 1.26,0.56 0,0.355 -9.204,5.975 -14.43,5.975 -3.082,0 -5.07,-1.18 -6.235,-1.18 -1.165,0 -1.915,0.73 -1.915,0.73 l -0.522,-0.696 c -0.002,0.002 1.114,-1.307 1.478,-2.134 z m -16.008,6.016 c 0.496,-0.755 1.69,-5.374 3.413,-7.734 0.698,-0.955 4.752,-3.807 5.017,-3.993 0.296,-0.21 0.836,0.33 0.49,0.76 -0.35,0.435 -1.448,1.164 -2.32,2.987 -0.87,1.823 -0.957,3.89 -1.323,4.74 a 7.21,7.21 0 0 1 -0.94,1.545 c 3.902,0 2.765,3.802 10.453,3.802 1.463,0 8.832,-1.145 8.832,-1.145 l 2.3,1.51 c 0,0 -7.58,3.49 -14.634,3.49 -6.374,0 -8.465,-3.28 -12.02,-3.23 -0.47,0 -2.51,0.416 -2.51,0.416 l -0.31,-0.364 c 0,0 3.057,-2.03 3.553,-2.786 z m -18.9,8.533 c 0,0 1.768,-0.466 2.195,-2.638 1.08,-5.504 4.214,-5.66 5.94,-7.275 0.374,-0.322 0.63,0.167 0.417,0.39 -0.496,0.52 -0.836,1.537 -0.836,1.9 0,0.366 0.29,1.486 0.29,2.033 0,1.51 -1.7,2.865 -1.7,2.865 4.01,0 3.095,2.865 8.99,2.865 1.41,0 1.88,-0.21 2.56,-0.21 0.68,0 2.352,0.365 4.128,2.162 -4.128,0.52 -5.565,1.9 -10.085,1.9 -7.472,0 -7.68,-3.254 -11.08,-3.254 -0.34,0 -0.396,0.215 -0.723,0.215 -0.33,0 -0.583,-0.117 -0.583,-0.475 -0.002,-0.36 0.487,-0.478 0.487,-0.478 z m -16.096,23.714 c -5.61,0 -8.223,-8.543 -8.223,-8.543 0,0 2.544,4.04 5.945,4.04 2.443,0 9.107,-5.545 9.107,-14.32 0,-5.45 -1.255,-7.776 -1.255,-7.776 0,0 4.878,5.908 4.878,11.146 0,9.797 -7.062,15.452 -10.452,15.452 z"
       id="path8"
       inkscape:connector-curvature="0"
       style="fill:#c69214" />
    <path
       d="m 182.338,184.995 1.708,7.743 c 3.31,-5.313 23.517,-32.882 62.293,-32.69 l 5.554,-5.79 -29.074,-0.007 -24.787,19.81 21.906,-25.616 35.49,-0.004 v -10.214 h -38.645 l -34.448,46.77 z m 154.258,38.642 -0.052,37.746 c 17.088,14.017 27.587,34.592 27.587,57.96 0,32.352 -19.702,59.183 -49.673,70.76 -6.4,10.587 -11.853,25.29 -7.045,34.936 52.47,-10.878 88.703,-53.105 88.703,-105.673 0,-41.947 -23.56,-77.505 -59.517,-95.73 z m 45.948,67.436 c 0,0 0.55,1.43 0.774,3.596 0.25,2.41 0.565,5.204 -1.025,8.12 -0.366,0.67 -1.137,1.297 -1.537,2.028 -1.215,2.226 -0.86,3.892 -0.86,3.892 0,0 -0.66,-2.008 -1.604,-2.677 -0.943,-0.668 -1.402,-0.583 -3.827,-2.607 -3.07,-2.563 -4.302,-9.888 -4.302,-9.888 2.52,0.178 4.402,4.578 7.4,4.157 2.446,-0.345 2.608,-5.82 4.98,-6.624 z m -5.97,-14.966 c 0,0 0.777,1.326 1.346,3.425 0.635,2.343 1.397,5.05 0.297,8.182 -0.253,0.722 -0.914,1.462 -1.19,2.25 -0.84,2.39 -0.22,3.977 -0.22,3.977 0,0 -0.975,-1.874 -2.014,-2.384 -1.04,-0.508 -1.48,-0.35 -4.197,-1.958 -3.442,-2.038 -5.84,-9.072 -5.84,-9.072 2.515,-0.226 5.084,3.815 7.972,2.918 2.357,-0.732 1.635,-6.16 3.846,-7.336 z M 337.48,241.94 c 0,0 14.807,5.346 14.807,9.514 0,1.597 -0.977,2.43 -2.37,2.43 -4.738,0 -12.437,-11.945 -12.437,-11.945 z m 10.373,16.102 c 2.3,-1.042 6.062,1.928 8.49,0.13 1.987,-1.466 -0.495,-6.355 1.203,-8.19 0,0 1.172,0.996 2.405,2.79 1.376,2.002 2.99,4.306 2.99,7.625 0,0.764 -0.376,1.68 -0.376,2.512 0,2.534 1.11,3.827 1.11,3.827 0,0 -1.54,-1.45 -2.69,-1.588 -1.15,-0.14 -1.512,0.155 -4.613,-0.47 -3.923,-0.79 -8.516,-6.64 -8.516,-6.64 z m 9.48,10.45 c 2.446,-0.628 5.637,2.946 8.342,1.595 2.207,-1.103 0.614,-6.343 2.605,-7.858 0,0 0.983,1.18 1.883,3.16 1.007,2.21 2.2,4.757 1.622,8.027 -0.133,0.752 -0.664,1.59 -0.808,2.41 -0.44,2.497 0.427,3.962 0.427,3.962 0,0 -1.266,-1.693 -2.374,-2.03 -1.11,-0.334 -1.515,-0.105 -4.462,-1.257 -3.727,-1.457 -7.235,-8.01 -7.235,-8.01 z m -32.236,136.75 c -1.473,3.9 -17.22,3.713 -17.22,3.713 0,0 11.425,-8.48 15.86,-6.82 1.305,0.49 1.923,1.61 1.36,3.107 z m 12.387,-6.602 c -0.294,0.78 -0.263,1.77 -0.534,2.485 -1.172,3.11 -3.497,4.697 -5.493,6.088 -1.787,1.248 -3.235,1.77 -3.235,1.77 -0.94,-2.315 3.106,-6.018 1.767,-8.088 -1.64,-2.534 -6.213,-1.076 -7.998,-2.857 0,0 6.366,-3.864 10.318,-3.228 3.125,0.503 3.357,0.906 4.484,1.18 1.125,0.272 3.08,-0.544 3.08,-0.544 0,0 -1.496,0.822 -2.39,3.194 z m 14.33,-10.473 c -0.152,0.82 0.055,1.787 -0.083,2.54 -0.6,3.265 -2.605,5.24 -4.32,6.96 -1.537,1.545 -2.87,2.316 -2.87,2.316 -1.34,-2.113 1.985,-6.473 0.298,-8.273 -2.065,-2.204 -6.3,0.04 -8.375,-1.397 0,0 5.576,-4.93 9.58,-5.002 3.162,-0.054 3.465,0.3 4.62,0.37 1.158,0.07 2.935,-1.08 2.935,-1.08 0,0 -1.326,1.075 -1.783,3.568 z m 11.303,-9.632 c 0.023,3.32 -1.578,5.633 -2.94,7.646 -1.22,1.806 -2.386,2.808 -2.386,2.808 -1.71,-1.824 0.738,-6.727 -1.255,-8.18 -2.44,-1.782 -6.183,1.212 -8.49,0.186 0,0 4.555,-5.88 8.473,-6.697 3.097,-0.647 3.46,-0.352 4.61,-0.5 1.15,-0.147 2.68,-1.607 2.68,-1.607 0,0 -1.1,1.302 -1.085,3.836 0.005,0.83 0.39,1.745 0.395,2.51 z m 7.44,-5.478 c -0.92,1.973 -1.91,3.147 -1.91,3.147 -1.98,-1.533 -0.338,-6.76 -2.536,-7.882 -2.692,-1.374 -5.914,2.17 -8.353,1.518 0,0 3.567,-6.52 7.308,-7.944 2.956,-1.123 3.36,-0.893 4.473,-1.218 1.11,-0.324 2.392,-2.007 2.392,-2.007 0,0 -0.883,1.46 -0.466,3.96 0.138,0.823 0.663,1.665 0.788,2.418 0.548,3.274 -0.667,5.81 -1.694,8.01 z m 8,-15.045 c -0.52,2.113 -1.266,3.455 -1.266,3.455 -2.236,-1.124 -1.633,-6.568 -4.007,-7.25 -2.908,-0.832 -5.388,3.264 -7.907,3.092 0,0 2.242,-7.086 5.64,-9.2 2.683,-1.67 3.126,-1.52 4.154,-2.05 1.026,-0.533 1.96,-2.43 1.96,-2.43 0,0 -0.586,1.6 0.308,3.973 0.292,0.78 0.97,1.504 1.24,2.22 1.167,3.11 0.463,5.833 -0.12,8.188 z m 5.262,-15.155 c -0.184,2.168 -0.71,3.61 -0.71,3.61 -2.387,-0.76 -2.652,-6.23 -5.104,-6.528 -3.004,-0.368 -4.804,4.066 -7.32,4.292 0,0 1.095,-7.348 4.115,-9.97 2.39,-2.067 2.848,-1.99 3.78,-2.676 0.93,-0.688 1.552,-2.706 1.552,-2.706 0,0 -0.324,1.67 0.932,3.876 0.414,0.724 1.196,1.334 1.575,1.998 1.645,2.886 1.38,5.684 1.18,8.103 z m -3.7,-17.76 c -3.06,0 -5.54,-2.522 -5.54,-5.637 0,-3.113 2.48,-5.636 5.54,-5.636 3.06,0 5.54,2.523 5.54,5.636 0,3.113 -2.48,5.638 -5.54,5.638 z"
       id="path10"
       inkscape:connector-curvature="0"
       style="fill:#c69214" />
    <path
       d="m 310.043,271.922 6.062,2.707 -0.888,-9.636 c 0,0 -11.296,-10.715 -20.328,-3.02 -2.877,2.446 -11.708,13.524 -11.708,13.524 -4.214,-8.525 -13.78,-13.898 -26.913,-14.204 -6.278,-0.145 -13.744,0.92 -22.578,3.005 -10.91,2.57 -19.057,5.763 -19.057,5.763 0,0 -1.742,1.978 -1.742,5.07 0,9.65 16.13,9.72 18.71,9.72 2.576,0 6.583,-0.174 6.583,-0.174 l -3.972,17.71 15.086,2.1 c 0,0 -11.774,24.67 -11.774,44.32 0,1.4 0.84,5.3 2.752,7.223 1.6,1.72 8.33,8.365 13.797,13.228 1.603,1.427 3.26,2.858 4.652,3.934 1.06,0.82 1.968,1.4 2.56,1.797 1.248,0.833 2.46,1.25 3.414,1.25 8.238,0 13.693,-1.22 17.42,-2.29 1.855,-0.535 5.47,-2.114 6.37,-3.075 1.033,-1.108 1.367,-3.898 1.367,-4.357 0,-3.335 -0.906,-8.96 -13.658,-8.96 -12.75,0 -17.996,4.723 -17.996,4.723 l 2.823,-9.165 c 0,0 0.7,-1.15 3.24,-2.032 2.152,-0.746 5.622,-1.25 11.184,-1.25 4.81,0 13.327,0.99 13.327,0.99 l -0.627,-8.177 -5.123,0.938 -11.81,-1.823 -25.54,0.73 -1.184,-1.005 31.113,-5.764 6.847,1.51 5.644,-1.354 -3.03,-2.916 -3.398,1.458 -0.628,-6.927 -18.71,-3.07 14.686,-5.26 9.3,3.646 7.055,-3.387 -7.736,-30.103 2.978,-9.167 21.425,-8.228 z m -35.73,19.183 -12.366,-1.667 6.55,-5.174 -8.376,-2.357 c 0,0 -2.375,4.024 -6.635,4.024 -5.67,0 -7.356,-6.25 -7.356,-6.25 l -29.788,-3.852 34.623,-5.652 28.228,11.38 -4.876,9.55 z"
       id="path12"
       inkscape:connector-curvature="0"
       style="fill:#ffffff" />
    <path
       d="m 302.78,337.025 -1.726,-4.012 -5.225,-5.937 6.844,-5.677 -4.102,-8.62 -4.68,-15.028 2.823,-10.156 c 0,0 1.83,2.917 4.704,2.917 4.337,0 5.696,-6.302 5.696,-6.302 l 5.8,-1.163 -1.533,5.417 c 0,0 5.105,9.843 5.105,13.472 l -6.185,10.242 -7.526,24.845 z m -30.612,66.6 4.376,-15.04 -14.58,-2.03 -6.323,5.625 z"
       id="path14"
       inkscape:connector-curvature="0"
       style="fill:#ffffff" />
  </g>
</svg>
