<?xml version="1.0" encoding="UTF-8" standalone="no"?>
<svg
   xmlns:dc="http://purl.org/dc/elements/1.1/"
   xmlns:cc="http://creativecommons.org/ns#"
   xmlns:rdf="http://www.w3.org/1999/02/22-rdf-syntax-ns#"
   xmlns:svg="http://www.w3.org/2000/svg"
   xmlns="http://www.w3.org/2000/svg"
   xmlns:sodipodi="http://sodipodi.sourceforge.net/DTD/sodipodi-0.dtd"
   xmlns:inkscape="http://www.inkscape.org/namespaces/inkscape"
   width="512"
   height="512"
   viewBox="0 0 512 512"
   version="1.1"
   id="svg12"
   sodipodi:docname="philadelphia-flyers.svg"
   inkscape:version="0.92.5 (2060ec1f9f, 2020-04-08)">
  <metadata
     id="metadata18">
    <rdf:RDF>
      <cc:Work
         rdf:about="">
        <dc:format>image/svg+xml</dc:format>
        <dc:type
           rdf:resource="http://purl.org/dc/dcmitype/StillImage" />
      </cc:Work>
    </rdf:RDF>
  </metadata>
  <defs
     id="defs16" />
  <sodipodi:namedview
     pagecolor="#ffffff"
     bordercolor="#666666"
     borderopacity="1"
     objecttolerance="10"
     gridtolerance="10"
     guidetolerance="10"
     inkscape:pageopacity="0"
     inkscape:pageshadow="2"
     inkscape:window-width="640"
     inkscape:window-height="480"
     id="namedview14"
     showgrid="false"
     inkscape:zoom="0.4609375"
     inkscape:cx="256"
     inkscape:cy="256"
     inkscape:window-x="0"
     inkscape:window-y="0"
     inkscape:window-maximized="0"
     inkscape:current-layer="svg12" />
  <g
     id="g10"
     transform="translate(0,53.559322)"
     style="fill:none;fill-rule:evenodd">
    <path
       d="m 197.356,377.47 h -44.98 c -12.055,0 -34.628,-2.66 -50.364,-20.472 -16.5,-18.68 -17.117,-43.18 -17.32,-51.23 l -0.007,-0.302 -0.05,-1.965 h 17.183 c -0.023,-0.02 -0.045,-0.042 -0.068,-0.065 -2.45,-2.42 -5.3,-5.39 -8.108,-10.018 a 49.348,49.348 0 0 1 -3.51,-6.98 c -0.492,-1.212 -0.882,-2.397 -1.295,-3.65 -0.177,-0.54 -0.357,-1.085 -0.548,-1.64 -2.776,-8.078 -4.18,-19.138 -4.18,-32.875 v -1.914 h 17.653 c -5.54,-6.35 -9.676,-12.533 -12.66,-21.215 -2.934,-8.535 -4.342,-19.48 -4.07,-31.647 0.005,-0.26 0.01,-0.447 0.01,-0.555 v -1.913 h 1.916 l 17.107,-0.02 c -5.172,-5.217 -9.21,-10.82 -12.034,-16.705 -7.365,-15.348 -7.005,-30.878 -6.87,-36.724 l 0.043,-1.87 h 1.873 c 2.06,-0.003 206.53,-0.177 233.647,-0.177 30.247,0 58.42,11.57 79.33,32.58 10.022,10.07 17.885,21.784 23.37,34.82 a 107.55,107.55 0 0 1 8.464,41.927 c 0,14.85 -2.91,29.233 -8.646,42.745 -5.537,13.04 -13.47,24.74 -23.574,34.772 a 109.346,109.346 0 0 1 -34.95,23.37 c -13.542,5.675 -27.935,8.552 -42.777,8.552 -13.37,0 -26.33,-2.317 -38.527,-6.886 -9.754,-3.655 -19.038,-8.75 -27.594,-15.14 -10.657,-7.962 -17.44,-15.855 -20.44,-19.703 l -37.47,63.958 -0.556,0.948 z"
       id="path2"
       inkscape:connector-curvature="0"
       style="fill:#ffffff" />
    <path
       d="m 87.08,133.79 -3.747,0.002 -0.087,3.74 c -0.138,5.97 -0.505,21.833 7.058,37.595 2.335,4.867 5.47,9.54 9.357,13.966 l -12.7,0.014 -3.834,0.004 v 3.83 c -0.285,12.903 1.158,24.077 4.165,32.824 2.584,7.516 5.988,13.197 10.37,18.678 H 82.19 v 3.832 c 0,13.948 1.442,25.217 4.284,33.494 0.186,0.54 0.366,1.088 0.54,1.616 0.405,1.23 0.823,2.5 1.338,3.772 a 51.34,51.34 0 0 0 3.65,7.255 49.046,49.046 0 0 0 5.317,7.177 H 82.665 l 0.1,3.93 c 0.215,8.523 0.846,33.547 17.807,52.75 7.105,8.042 16.287,13.903 27.292,17.42 9.57,3.06 18.61,3.7 24.51,3.7 h 46.08 l 1.11,-1.896 36.07,-61.564 c 3.622,4.332 9.957,11.093 19.037,17.876 8.702,6.502 18.145,11.683 28.07,15.4 12.41,4.65 25.6,7.01 39.2,7.01 15.098,0 29.74,-2.928 43.52,-8.7 a 111.95,111.95 0 0 0 19.002,-10.223 111.746,111.746 0 0 0 30.223,-30.014 110.87,110.87 0 0 0 10.323,-18.924 c 5.84,-13.75 8.8,-28.384 8.8,-43.494 a 109.45,109.45 0 0 0 -8.614,-42.67 111.45,111.45 0 0 0 -10.187,-18.87 112.248,112.248 0 0 0 -13.593,-16.558 112.308,112.308 0 0 0 -16.613,-13.75 112.25,112.25 0 0 0 -19.25,-10.444 c -14.08,-5.94 -29.163,-8.95 -44.827,-8.95 -27.12,0 -231.587,0.173 -233.65,0.175 z m 342.893,111.066 c 0,59.725 -48.402,107.522 -108.03,107.522 -57.597,0 -86.746,-43.29 -86.746,-43.29 l -38.94,66.468 h -43.882 c -12.07,0 -33.86,-2.774 -48.924,-19.825 -16.25,-18.395 -16.654,-42.8 -16.847,-50.312 h 19.823 c 0,0 -1.063,-1.11 -3.326,-3.344 -2.076,-2.05 -5.006,-5.02 -7.818,-9.65 a 47.397,47.397 0 0 1 -3.372,-6.704 c -0.678,-1.675 -1.183,-3.38 -1.807,-5.196 -2.855,-8.316 -4.076,-19.452 -4.076,-32.252 h 20.046 C 98.731,240.361 94.156,233.937 90.919,224.52 86.186,210.747 86.963,194.47 86.963,192.937 l 21.908,-0.024 c -6.864,-6.117 -11.887,-12.733 -15.106,-19.442 -6.812,-14.195 -6.856,-28.35 -6.682,-35.85 0,0 206.214,-0.176 233.646,-0.176 62.256,0 109.245,49.565 109.245,107.41 z"
       id="path4"
       inkscape:connector-curvature="0"
       style="fill:#010101" />
    <path
       d="m 96.593,145.08 c 0,17.475 8.797,32.726 14.347,38.268 7.124,7.114 17.806,12.886 33.562,12.886 l 85.875,0.056 c 0.587,0 2.026,1.317 2.026,2.3 0,0.98 -1.307,2.477 -2.026,2.477 H 97.537 c 0,2.163 -0.222,24.157 13.715,38.074 13.864,13.846 27.944,12.537 34.385,13.826 h 51.074 c 0.578,0 2.41,1.883 2.41,2.555 0,0.957 -1.736,2.234 -2.41,2.234 l -100.61,-0.05 c 0,2.895 0.637,19.8 9.807,33.235 9.687,14.19 26.28,18.722 35.944,18.722 0,0 19.398,0.024 20.453,0.024 1.055,0 2.782,1.652 2.782,2.538 0,0.91 -1.583,2.394 -2.758,2.394 l -65.64,-0.025 c 0,2.913 -0.01,19.82 13.895,35.1 14.736,16.198 29.708,17.24 36.64,17.24 l 44.728,0.033 87.642,-147.454 c 8.66,-14.293 24.412,-23.854 42.408,-23.854 27.33,0 49.484,22.047 49.484,49.244 0,27.196 -22.155,49.244 -49.484,49.244 -27.118,0 -49.138,-21.71 -49.475,-48.62 l -33.154,56.3 c 9.81,13.44 35.083,42.936 83.708,42.936 54.502,0 99.295,-44.6 99.295,-100.156 0,-49.884 -39.458,-99.533 -102.676,-99.533 l -223.103,0.004 z"
       id="path6"
       inkscape:connector-curvature="0"
       style="fill:#010101" />
    <path
       d="m 350.493,244.92 c 0,15.674 -12.767,28.38 -28.515,28.38 -15.748,0 -28.514,-12.706 -28.514,-28.38 0,-15.675 12.766,-28.382 28.514,-28.382 15.748,0 28.515,12.707 28.515,28.38"
       id="path8"
       inkscape:connector-curvature="0"
       style="fill:#fa4616" />
  </g>
</svg>
