<?xml version="1.0" encoding="UTF-8" standalone="no"?>
<svg
   xmlns:dc="http://purl.org/dc/elements/1.1/"
   xmlns:cc="http://creativecommons.org/ns#"
   xmlns:rdf="http://www.w3.org/1999/02/22-rdf-syntax-ns#"
   xmlns:svg="http://www.w3.org/2000/svg"
   xmlns="http://www.w3.org/2000/svg"
   xmlns:sodipodi="http://sodipodi.sourceforge.net/DTD/sodipodi-0.dtd"
   xmlns:inkscape="http://www.inkscape.org/namespaces/inkscape"
   width="512"
   height="512"
   viewBox="0 0 512 512"
   version="1.1"
   id="svg16"
   sodipodi:docname="pittsburgh-penguins.svg"
   inkscape:version="0.92.5 (2060ec1f9f, 2020-04-08)">
  <metadata
     id="metadata22">
    <rdf:RDF>
      <cc:Work
         rdf:about="">
        <dc:format>image/svg+xml</dc:format>
        <dc:type
           rdf:resource="http://purl.org/dc/dcmitype/StillImage" />
      </cc:Work>
    </rdf:RDF>
  </metadata>
  <defs
     id="defs20" />
  <sodipodi:namedview
     pagecolor="#ffffff"
     bordercolor="#666666"
     borderopacity="1"
     objecttolerance="10"
     gridtolerance="10"
     guidetolerance="10"
     inkscape:pageopacity="0"
     inkscape:pageshadow="2"
     inkscape:window-width="640"
     inkscape:window-height="480"
     id="namedview18"
     showgrid="false"
     inkscape:zoom="0.4609375"
     inkscape:cx="256"
     inkscape:cy="256"
     inkscape:window-x="0"
     inkscape:window-y="0"
     inkscape:window-maximized="0"
     inkscape:current-layer="svg16" />
  <g
     id="g14"
     transform="translate(0,16)"
     style="fill:none;fill-rule:evenodd">
    <path
       d="m 280.3,381.2 c -4.3,0 -7.7,3.5 -7.7,7.7 0,4.3 3.5,7.7 7.7,7.7 4.3,0 7.7,-3.5 7.7,-7.7 0,-4.3 -3.5,-7.7 -7.7,-7.7 z m 0,13.8 c -3.4,0 -6.1,-2.7 -6.1,-6.1 0,-3.3 2.7,-6.1 6.1,-6.1 3.3,0 6.1,2.7 6.1,6.1 -0.1,3.4 -2.8,6.1 -6.1,6.1 z m 3.2,-7.9 c 0,-1.4 -1.2,-2.6 -2.6,-2.6 h -3.7 v 8.8 h 1.7 v -3.6 h 1.2 l 1.7,3.6 h 1.8 l -1.7,-3.7 c 0.8,-0.4 1.6,-1.4 1.6,-2.5 z m -2.7,1 h -2.1 v -1.9 h 2.1 c 0.5,0 1,0.4 1,1 0,0.4 -0.4,0.9 -1,0.9 z"
       id="path2"
       inkscape:connector-curvature="0"
       style="fill:#010101" />
    <path
       d="M 405.3,140.4 H 383 c -0.9,-2.6 -2.4,-5.1 -4.7,-7.4 -6.5,-6.5 -15.2,-7.5 -20.2,-2.5 -1.1,1.1 -1.9,2.4 -2.4,3.8 -1.5,-1.1 -3.4,-2.1 -5.6,-3 -3.1,-6.6 -7.6,-15.9 -17.5,-15.9 -3.6,0 -6.7,1.1 -9.2,2.3 -7.3,-5.8 -23.2,-16.7 -39.5,-16.7 -17.8,0 -42.4,16.3 -49.7,16.3 -5.3,0 -17.1,-26.1 -35.4,-26.1 -9.9,0 -19.8,6.7 -31.7,13.9 -11.3,6.8 -14.4,15 -17.7,23.7 -1.1,2.8 -6.1,8 -9.5,11.5 H 83 l 97,168.6 H 113.6 L 92.4,347 h 97.4 c 3.3,0 7,-1.1 10.4,-2.9 l 44,76.5 42.8,-74.4 h 35.6 v -20.9 h -2.4 c 0,-7.2 -5.5,-15.2 -8.3,-18.6 l -0.5,-3 8.2,-14.2 47.7,-17.6 c 7.7,-2.9 11.3,-9.8 13,-15.2 0,0 5.3,-0.1 10.1,-5.6 3.4,0.9 7.6,1.8 10.9,1.8 7.2,0 14.8,-4.1 16.7,-11.8 0,0 7.6,-4.7 11,-19.1 l -59.3,-19.6 z"
       id="path4"
       inkscape:connector-curvature="0"
       style="fill:#ffffff" />
    <path
       d="m 359.1,213.4 7.4,2.5 v 4.8 c -4,-0.2 -7.1,-0.9 -7.1,10.7 0,8.7 1.7,11.5 1.7,13.9 0,4.1 -0.4,5.1 -13.4,5.1 0,0 -2,-2.5 -9.2,-5.2 0,0 -0.1,-0.7 -0.4,-1.9 l 55.1,-95.9 h -16.7 c 1.2,-2.4 0,-6.3 -3.1,-9.4 -3.5,-3.5 -8.1,-4.6 -10.3,-2.5 -1,1 -1.3,2.5 -1,4.1 l -6.9,7.2 c 0.2,-1.1 0.6,-6.8 -10.2,-9.9 -3.2,-6.4 -6,-14.5 -12.4,-14.5 -5.3,0 -9.8,4 -9.8,4 0,0 -19.7,-18.3 -38.8,-18.3 -16.6,0 -39.6,16.3 -49.7,16.3 -10.8,0 -20.3,-26.1 -35.4,-26.1 -8.1,0 -17.7,6.5 -28.1,12.8 -10.3,6.3 -12.3,14 -14.8,20.3 -1.7,4.2 -7,9.8 -13.1,15.9 H 95.2 L 192,315.8 c -0.7,0.1 -1.5,0.2 -2.1,0.2 h -72.2 l -13.3,24 h 85.4 c 3.6,0 8.6,-2.2 11.1,-4.9 l 1.4,-1.5 41.9,72.9 38.7,-67.3 h 32.7 v -6.8 h -7.9 l -1.4,-4.4 h 1.2 l 5.7,-2.6 c 0,-6.5 -7.9,-15.7 -7.9,-15.7 l -1.3,-7.3 10.7,-18.7 50.1,-18.5 c 8.9,-3.3 9.9,-16.2 9.9,-16.2 0,0 8.1,3.8 12.6,-6.1 0,0 9,2.9 13.9,2.9 4.3,0 10.2,-2.3 10.2,-8.7 0,0 6.6,-3.9 8.7,-10.7 l -59,-19.5 z m 4.9,-71.1 c 2.1,0 3.2,0.8 3.2,1.9 0,1.1 -4.2,6.6 -9.4,6.6 -1.1,0 -1.4,-0.6 -1.4,-1 0,-1.6 5.5,-7.5 7.6,-7.5 z m -4.5,11.3 c 4.9,5.9 5,12.3 5,12.3 l -6.4,-11.3 c 0,-1.1 1.4,-1 1.4,-1 z m -3,3.9 c 0,0 7.1,7.9 7.1,12.3 0,2.4 -1.9,1.5 -1.9,1.5 L 354.8,161 Z m 1.2,19 c -3.4,0 -6.6,-9.2 -6.6,-9.2 0,0 0.3,-1.9 2.1,-1.9 5.8,5 4.5,11.1 4.5,11.1 z m -11.5,-4.8 c 5.7,0 8,10.4 7.5,12.3 -5.6,0 -7.5,-12.3 -7.5,-12.3 z m 2,18.7 c -8.1,0 -12.2,-14.6 -12.2,-14.6 0,0 0.2,-2 5.9,-1.6 0,0 8.2,8.3 6.3,16.2 z m 5.4,-36.6 c 0,7.3 -8.5,16.4 -12.7,16.4 -2.2,0 -2.6,-1.8 -2.6,-1.8 0,0 5.3,-11.2 13,-16.2 0.1,0 2.3,0 2.3,1.6 z m -7.5,-11.4 c 3.5,-2 8.7,4.5 3.8,7 -7.3,3.6 -15.2,18.8 -15.2,18.8 -3.5,0.6 -4.9,-1.6 -4.9,-1.6 0,0 1.5,-14.6 16.3,-24.2 z m -89.4,127.2 c -2.7,3.1 -10.4,-2.2 -7.5,-5.3 l 80.2,-84.2 c 3,-3 6.9,0.7 4.1,3.9 z m 5.4,9.8 -0.7,2.3 -2.7,-0.4 0.4,-4 c 1.6,-0.5 2.3,1.7 3,2.1 z m -8.2,-3.9 c 2.8,0 2.6,4 2.6,10.5 0,4.4 -1.7,6.1 -2.8,6.1 -2.1,0 -2,-3.2 -2.6,-4.3 0,0 0.9,-1.1 0.9,-3.3 0,-2.3 -1.2,-9 1.9,-9 z m -37.5,-7.9 c -1.8,1.8 -5,1.6 -5,1.6 0,0 -8.8,-7.7 -3.4,-15.2 5.6,3.5 8.4,13.6 8.4,13.6 z m -4.2,-16.1 c 0,-3.3 7.1,-5.7 7.1,0.6 0,7.9 1.5,7.8 1.5,8.9 0,1.5 -2.9,0.4 -2.9,0.4 0.1,-2.5 -5.7,-6.6 -5.7,-9.9 z m 14.9,15.2 c 3.4,0 2.2,4.4 2.2,4.4 -6.2,-1.5 -15.3,7.3 -15.3,7.3 0,0 -0.6,-1.4 -0.6,-2.9 0,-3 6.7,-8.8 13.7,-8.8 z m -4.9,-15.8 c 0,-4.5 4.3,-6.7 4.3,5.9 -1.5,1.5 -4.3,-0.9 -4.3,-5.9 z m -3.1,27.9 c 5.7,18.4 10.9,28.3 10.9,28.3 l -2,1.1 c 0,0 -10.4,-7.4 -11.9,-24.6 z m 4.2,-2.3 c 10.1,-5.5 14,11.3 14,11.3 0,16.1 -1.6,18.8 -1.6,18.8 -2.3,-0.6 -7.8,-11.5 -12.4,-30.1 z m 10.5,-13.9 c -1.1,0.6 -3.6,0.8 -3.6,-2.9 0,-3.5 -1.2,-8.7 0.4,-12.1 5.6,2.6 1.8,12.2 3.2,15 z m -0.6,7.9 c 0,-1.2 1.5,-3.2 4.4,-3.2 2.9,0 5.5,0.5 5.5,3.5 0,3.7 -4.5,6.2 -5.3,6.2 -1.4,0.1 -4.6,-3.3 -4.6,-6.5 z m 3,-21.1 c 0,0 4.4,-0.5 4.4,4.9 0,2.1 0,5.7 0.2,7.2 -1,1.5 -3.9,0.3 -3.9,0.3 0,0 -1.4,-7.9 -0.7,-12.4 z m 5.2,34.1 c 0,0 5.9,-5.9 5.9,8.3 0,12 -8.1,18.1 -8.1,13.3 -0.1,-2.8 3,-2.5 2.2,-21.6 z m 2.8,-29.9 c 0,0 2.8,-1.3 2.8,4.6 0,5.9 -0.6,5.6 -1.5,6.1 0,-0.1 -2.4,-3.7 -1.3,-10.7 z m 2.8,26.2 c -0.9,0 -2.4,-0.9 -2.4,-2.1 0,-3.7 1,-5.8 2.8,-5.8 1.1,0 1.5,1.2 1.5,2.5 0.1,4.1 -1.3,5.4 -1.9,5.4 z m 80.9,-107.3 c 0,0 2.8,-1.2 4.4,3.8 -2.5,-0.1 -4.1,1 -4.1,1 0,0 -1.5,-3.1 -0.3,-4.8 z m 7.9,-46.6 3.1,6.7 c -3.3,0 -5.6,-5 -5.6,-6 0,-1.3 2.2,-1.4 2.5,-0.7 z m -6.9,0.4 9.9,13.5 c 0,0 -0.8,1.6 -2.1,0.1 l -10.8,-11.5 c 0,0 0.5,-2.1 3,-2.1 z m -5,5 11.8,13.5 c 0.6,0.6 -1.5,2.3 -2.7,1.2 l -13.3,-13 c -0.1,-0.2 2.6,-3.5 4.2,-1.7 z m -7.1,4.5 c 2,0 14.6,9.8 14.6,12.7 0,0.3 -0.9,1.6 -1.5,1.3 l -16,-11.5 c 0.1,0 1,-2.5 2.9,-2.5 z m -5.5,6.3 c 6.2,2.8 11.7,6.3 17.3,10 0.9,0.6 -0.5,3.5 -1.4,3 l -16.9,-9.2 c 0,0.1 -0.5,-1.7 1,-3.8 z m -1.9,7.6 c 3.4,1 14.7,7.2 16.2,8.2 1.3,0.8 -0.5,2.7 -1.1,2.4 l -15.9,-7.4 c -0.1,0 -1.1,-1.2 0.8,-3.2 z m -3,6.5 c 6.3,1.8 14.3,6 14.3,6 -11.3,0.6 -14.8,-4.7 -14.8,-4.7 z m -71.3,-1.6 c 24,0 50.6,22.8 68.8,48.1 L 254.1,255 c -27.8,-14.7 -54.8,-38 -54.8,-68 0,-16.7 14.4,-32.4 35.8,-32.4 z m -64.9,-35.9 c 4,-1.9 6.8,1.9 6.8,1.9 -0.5,1.5 -4.9,4.6 -4.9,7.7 0,1.7 8.2,1.8 8.2,8.2 0,2.8 -1.4,4.2 -1.4,4.2 l -3.3,0.3 c 0,0 1.4,-1.4 1.4,-4 0,-2.2 -2.3,-4.2 -3.8,-4.2 -4.7,0 -3.6,6.8 -6.8,4.1 0.9,-5.4 3.2,-9.5 3.8,-18.2 z m -15.8,22.6 c 8.7,8.7 12.7,18.3 12.7,18.3 -1.8,4.4 -20.9,13.1 -20.9,13.1 l 11.3,-20.9 -28.4,24.4 c 0,0 0.4,-11.3 3.9,-15.3 3.5,-3.9 21.4,-19.6 21.4,-19.6 z M 121.1,337 h -11.6 l 10,-18 h 11.6 z m 77.6,-3.9 c -1.9,2.1 -6,3.9 -8.9,3.9 h -8.5 l 8.2,-18 h 0.4 c 4.4,0 10.3,-2.4 13.4,-5.6 l 13.8,-13.9 5.4,7.7 z m 90.6,-5.1 h 9 l -1.3,4.4 h -10.3 z m -28.1,-4.1 c -0.7,-0.9 0.1,-2.8 1.7,-4.1 1.7,-1.3 3.7,-1.7 4.4,-0.7 0.7,0.9 0,2.8 -1.7,4.1 -1.7,1.3 -3.7,1.6 -4.4,0.7 z m 44.8,10.8 h 7.2 v 2.2 h -57.3 c 0.9,-4.8 3.7,-8.2 4.3,-8.9 h 2 l 3.8,6.7 h 6.2 l 2.1,-6.7 h 3.5 l 2.4,6.7 h 18.5 l 1.9,-6.7 h 3.2 z m 2.4,-62 c -8.1,0 -23.6,-3.8 -40.4,-11.1 l 43.2,-48.2 c 9.3,15.2 15.1,30.2 15.1,40.9 -0.1,16.3 -10.4,18.4 -17.9,18.4 z m 65.8,-49.9 2.4,-3.6 14.4,4.8 0.1,4.4 z m 27.6,19.2 c -2.1,0.5 -4,0 -4.3,-1.2 -0.3,-1.2 1.2,-2.5 3.3,-3 2.1,-0.5 4,0 4.3,1.2 0.3,1.2 -1.2,2.5 -3.3,3 z m -2.6,-10.9 2.6,-3.5 3.1,1 0.9,4.7 z m -36.5,-21.3 54.5,18 c -1.9,3.7 -5.2,6.2 -6.4,7 l -2.4,-0.8 -1.4,-7.3 -5.9,-2 -4,5.5 -3.5,-1.1 -0.2,-6.9 -17.6,-5.8 -3.8,5.5 -3.2,-1.1 0.1,-6.8 -6.9,-2.3 z"
       id="path6"
       inkscape:connector-curvature="0"
       style="fill:#010101" />
    <g
       id="g12"
       style="fill:#ffb81c">
      <path
         d="m 212.4,282.2 c -3.1,-7.5 -1.7,-9.1 -1.7,-9.1 0,0 -9.9,-8.2 -7,-18.3 0,0 -25.6,-37.1 -25.6,-59 0,-11.4 5.5,-10.3 5.5,-19.6 0,-7.6 -5.2,-13.3 -9,-13.3 -4.3,0 -17.7,8.8 -37.3,20.4 l 7.4,-17 -17.9,18.3 c 0,0 -3.5,-17.9 6.1,-27.5 1.6,-1.6 3.2,-3.1 4.7,-4.7 h -34.1 l 93.1,161.9 c 1.7,-0.8 3.3,-1.8 4.4,-2.9 l 14.7,-14.8 c -2.2,-5.6 -3.3,-11.3 -3.3,-14.4 z m 112.1,-113.4 -1.7,-3.9 c -9,1.5 -17.1,-3.1 -19.4,-4.2 -2.3,-1.2 0.2,-6.2 0.2,-6.2 0,0 -0.6,-1.1 -2,-2.1 h -9.4 c -1.8,1.6 -2.2,4.1 -0.7,5.6 10,10.4 18,21.5 24.5,32.3 l 10.5,-11 z m 38.3,-15 c 5.5,6.5 3.2,13.1 3.2,13.1 0,5 -2.6,4.9 -2.6,4.9 0,11.6 -6.1,9.6 -6.1,9.6 0,15.3 -16.9,9.1 -16.9,9.1 -2.8,-0.4 -5,-1.1 -6.9,-2 L 322,201.3 c 7.4,14.4 11.9,27.3 14.2,35.2 l 48.4,-84.2 h -20.5 z m -78.4,122.3 c 0,-1 -15.4,-5.1 -21.4,-7.4 -5.5,2.2 1.6,3.3 1.6,10.4 0,4.2 -2.1,9.2 -2.1,9.2 l -3.1,0.9 c 0,0 -6.1,11.3 -10,9.6 -5.6,9.8 -7.9,12.1 -16.8,12.1 -2.9,0 -5.4,-0.8 -7.6,-2.2 l -19.4,21.2 38.4,66.8 33,-57.5 h -23.7 c 0,-6.1 3.9,-11.2 3.9,-11.2 0,-9.7 6,-11.8 10.5,-12.2 9.5,-0.8 13.4,0 13.4,-4.6 0,-3.3 -0.3,-7.1 -0.3,-7.1 h 3.5 c 0,-12.8 -3.6,-15.9 -3.6,-22.4 0.1,-2.6 3.7,-3.6 3.7,-5.6 z m -2.8,55.4 2,-3.5 h -3.3 z"
         id="path8"
         inkscape:connector-curvature="0" />
      <path
         d="m 267.3,332.4 h 3.3 l 1.3,-4.4 h -7 z m 32.3,-32.2 7.4,-12.9 -8.3,4.1 z"
         id="path10"
         inkscape:connector-curvature="0" />
    </g>
  </g>
</svg>
