<?xml version="1.0" encoding="UTF-8" standalone="no"?>
<svg
   xmlns:dc="http://purl.org/dc/elements/1.1/"
   xmlns:cc="http://creativecommons.org/ns#"
   xmlns:rdf="http://www.w3.org/1999/02/22-rdf-syntax-ns#"
   xmlns:svg="http://www.w3.org/2000/svg"
   xmlns="http://www.w3.org/2000/svg"
   xmlns:sodipodi="http://sodipodi.sourceforge.net/DTD/sodipodi-0.dtd"
   xmlns:inkscape="http://www.inkscape.org/namespaces/inkscape"
   width="512"
   height="512"
   viewBox="0 0 512 512"
   version="1.1"
   id="svg60"
   sodipodi:docname="san-jose-sharks.svg"
   inkscape:version="0.92.5 (2060ec1f9f, 2020-04-08)">
  <metadata
     id="metadata66">
    <rdf:RDF>
      <cc:Work
         rdf:about="">
        <dc:format>image/svg+xml</dc:format>
        <dc:type
           rdf:resource="http://purl.org/dc/dcmitype/StillImage" />
      </cc:Work>
    </rdf:RDF>
  </metadata>
  <defs
     id="defs64" />
  <sodipodi:namedview
     pagecolor="#ffffff"
     bordercolor="#666666"
     borderopacity="1"
     objecttolerance="10"
     gridtolerance="10"
     guidetolerance="10"
     inkscape:pageopacity="0"
     inkscape:pageshadow="2"
     inkscape:window-width="640"
     inkscape:window-height="480"
     id="namedview62"
     showgrid="false"
     inkscape:zoom="0.4609375"
     inkscape:cx="256"
     inkscape:cy="256"
     inkscape:window-x="0"
     inkscape:window-y="0"
     inkscape:window-maximized="0"
     inkscape:current-layer="svg60" />
  <g
     id="g58"
     transform="translate(8)"
     style="fill:none;fill-rule:evenodd">
    <path
       d="m 326.3,383.888 c -0.823,-1.217 -2.794,-1.812 -3.585,-3.926 -0.363,-0.954 -0.595,-2.154 -1.41,-2.568 0,0 -3.213,4.808 -1.686,11.963 3.277,0.784 6.593,-2.502 6.593,-2.502 0,0 0.662,-2.12 0.087,-2.967 m -19.742,-6.34 c -3.98,1.513 -5.25,4.38 -5.25,4.38 0,0 0.81,0.614 1.58,1.717 0.77,1.104 0.968,2.668 1.02,3.157 0.048,0.485 4.27,-0.08 4.27,-0.08 1.193,-0.292 4.478,-8.935 4.478,-8.935 0,0 0.696,-1.927 0.373,-2.34 -0.328,-0.417 -2.48,0.582 -6.47,2.102"
       id="path2"
       inkscape:connector-curvature="0"
       style="fill:#ffffff" />
    <path
       d="m 419.665,157.01 -23.172,4.51 c -0.93,0.182 -93.592,18.014 -152.008,18.014 -57.695,0 -148.576,-17.282 -152.418,-18.018 l -29.435,-5.482 181.654,286.652 181.86,-287.125 -6.48,1.45"
       id="path4"
       inkscape:connector-curvature="0"
       style="fill:#010101" />
    <path
       d="m 397.83,168.76 c -3.843,0.744 -94.752,18.147 -153.345,18.147 -58.357,0 -149.864,-17.403 -153.73,-18.143 l -12.93,-2.5 166.46,259.108 166.465,-259.127 -12.92,2.515"
       id="path6"
       inkscape:connector-curvature="0"
       style="fill:#e57200" />
    <path
       d="m 398.232,170.96 c -3.846,0.743 -94.884,18.186 -153.747,18.186 -58.56,0 -150.29,-17.447 -154.164,-18.187 l -7.84,-1.52 161.807,251.864 161.802,-251.876 -7.858,1.532"
       id="path8"
       inkscape:connector-curvature="0"
       style="fill:#006272" />
    <path
       d="m 393.048,177.383 c -15.398,2.81 -94.937,16.825 -148.563,16.825 -53.605,0 -132.933,-14.39 -148.294,-17.273 l -1.894,-0.357 149.995,233.32 150.648,-232.858 -1.892,0.343"
       id="path10"
       inkscape:connector-curvature="0"
       style="fill:#ffffff" />
    <path
       d="m 72.033,162.18 65.353,101.785 c 0,0 -4.814,-41.403 18.193,-51.78 23.005,-10.38 50.615,-30.67 50.615,-30.67 L 72.033,162.18"
       id="path12"
       inkscape:connector-curvature="0"
       style="fill:#010101" />
    <path
       d="m 381.326,222.186 c -24.477,10.252 -30.26,13.567 -31.974,15.827 0,0 -0.05,0.077 -0.074,0.105 -17.77,-15.18 -37.43,-29.778 -55.692,-41.286 0,0 11.956,-0.457 9.63,-1.91 -2.734,-5.69 -6.28,-11.718 -10.503,-18.174 -7.04,-0.003 -33.632,2.786 -48.228,2.786 -6.867,0 -14.206,-0.247 -21.806,-0.68 a 45.318,45.318 0 0 1 1.575,4.01 c -4.55,0.344 -16.078,2.927 -19.303,3.348 -3.804,0.497 -10.315,1.908 -15.327,3.368 -42.47,8.848 -57.426,28.378 -58.098,29.494 l 0.676,1.318 0.364,2.12 c -0.034,0.31 6.08,0.56 6.08,4.49 0,9.155 5.51,28.846 13.354,47.58 -4.407,0.388 25.84,56.2 20.87,56.074 l 3.7,5.173 c 28.026,7.04 37.862,8.027 63.894,7.486 l 2.844,-0.056 c 6.726,4.297 14.313,9.144 21.723,13.535 4.455,2.64 10.33,6.33 16.55,10.24 2.63,1.653 10.415,-1.784 12.853,-0.268 0,0 89.92,-141.173 90.493,-146.125 0,0 -2.45,1.063 -3.602,1.544"
       id="path14"
       inkscape:connector-curvature="0"
       style="fill:#ffffff" />
    <path
       d="m 140.553,270.568 c 0.492,1.293 1.72,3.31 2.678,5.533 7.713,0 13.318,-1.304 18.244,-1.473 0,0 21.583,21.895 22.022,13.922 0.438,-7.96 -13.35,-24.227 -25.71,-22.43 -12.365,1.797 -18.93,-1.31 -17.232,4.45"
       id="path16"
       inkscape:connector-curvature="0"
       style="fill:#006272" />
    <path
       d="m 422.674,338.676 c -5.248,-11.445 -6.03,-13.732 -6.03,-13.732 0,0 -4.468,-19.882 -8.08,-24.255 -3.61,-4.38 -9.848,-7.07 -9.848,-7.07 0,0 -0.693,-0.884 -1.942,-2.43 5.51,-9.482 14.653,-26.384 22.58,-46.536 12.31,-31.3 17.482,-44.674 13.3,-43.163 -4.19,1.517 -32.74,16.155 -50.224,23.473 -17.472,7.32 -29.045,12.624 -30.763,14.892 -0.767,1.01 -1.288,1.864 -1.85,2.62 -16.654,-14.42 -37.016,-30.008 -57.76,-43.086 -27.243,-17.16 -30.85,-18.843 -43.656,-19.854 -12.797,-1.01 -35.427,0.316 -46.343,1.738 -4.143,0.542 -8.68,1.642 -12.915,2.875 -41.84,8.65 -57.612,34.923 -57.612,34.923 0,0 -2.504,24.727 9.025,51.494 7.71,0 13.788,-1.177 18.71,-1.346 26.575,15.62 22.998,22.597 14.78,26.943 12.41,8.902 33.047,25.48 36.896,26.75 6.155,2.045 12.203,4.717 15.196,6.29 8.118,4.293 24.61,15.648 40.364,24.992 15.753,9.338 48.483,31.304 56.112,32.566 7.63,1.26 18.483,3.086 24.39,2.83 5.898,-0.247 9.43,-1.65 9.43,-1.65 0,0 8,2.358 15.874,2.358 7.88,0 13.572,-3.04 13.572,-3.04 0,0 5.907,3.532 18.707,4.543 0,0 8.387,0.684 16.264,0.587 8.132,0.182 14.047,-1.214 14.96,-2.33 1.496,-1.823 -7.884,-39.944 -13.137,-51.384"
       id="path18"
       inkscape:connector-curvature="0"
       style="fill:#010101" />
    <path
       d="m 358.783,382.45 c -6.25,0.006 -17.477,0.015 -22.005,-0.794 l -1.98,-0.348 1.734,-1.047 c 2.583,-1.566 5.556,-3.426 7.456,-4.93 -7.327,0.304 -19.198,-0.08 -22.758,-0.994 l -1.313,-0.335 0.994,-0.95 c 0.96,-0.92 2.394,-2.06 3.913,-3.266 1.632,-1.298 3.38,-2.705 4.605,-3.885 -5.346,0.574 -13.42,1.24 -17.39,1.083 l -1.624,-0.06 1.396,-1.52 c 1.186,-1.29 3.418,-3.728 4.485,-5.734 -0.06,0.012 -0.223,0.04 -0.223,0.04 -4.326,0.748 -10.25,1.778 -12.742,1.686 l -1.366,-0.05 0.783,-1.143 c 1.118,-1.61 2.253,-3.295 3.005,-4.56 -0.55,0.106 -1.118,0.22 -1.118,0.22 -3.125,0.658 -7.007,1.486 -9.1,0.824 l -0.996,-0.312 0.617,-0.856 c 1.193,-1.667 1.686,-2.81 1.92,-3.58 -2.296,0.59 -5.993,1.306 -8.07,0.433 l -1.022,-0.425 0.78,-0.808 c 0.593,-0.607 1.123,-1.598 1.433,-2.426 -8.85,-0.086 -13.932,1.443 -13.932,1.443 13.783,0.505 27.73,21.37 31.342,25.236 3.61,3.87 14.44,8.923 28.06,10.435 10.362,1.152 17.623,-0.21 19.71,-0.687 1.108,-0.725 2.243,-1.623 3.407,-2.69"
       id="path20"
       inkscape:connector-curvature="0"
       style="fill:#ffffff" />
    <path
       d="m 347.48,369 c -14.928,-7.904 -23.958,-15.14 -42.004,-18.674 -5.175,-1.014 -9.792,-1.46 -13.732,-1.58 a 9.998,9.998 0 0 1 -1.175,2.466 c 1.895,0.226 4.846,-0.336 7.26,-1.047 l 0.94,-0.27 v 1 c 0,0.69 -0.32,2.172 -1.756,4.468 1.953,0.125 4.97,-0.49 7.317,-0.99 l 4.053,-0.784 -0.554,1.31 c -0.418,0.992 -1.524,2.714 -3.03,4.94 2.856,-0.213 7.656,-1.04 11.022,-1.624 l 2.716,-0.47 -0.316,1.15 c -0.572,2.098 -2.81,4.738 -4.47,6.585 4.4,-0.027 11.893,-0.655 17.456,-1.305 l 1.61,-0.185 -0.92,1.366 c -0.996,1.504 -3.625,3.598 -6.17,5.62 -0.978,0.78 -1.86,1.495 -2.65,2.162 4.885,0.708 16.425,1.04 22.895,0.583 l 1.792,-0.12 -1.184,1.38 c -1.253,1.46 -4.296,3.496 -7.462,5.45 5.283,0.52 14.612,0.51 19.956,0.507 l 3.374,-0.003 -1.267,1.293 c -0.57,0.594 -1.825,1.86 -3.473,3.12 2.46,0.506 7.017,1.372 9.79,1.492 4.59,0.19 10.01,0.67 15.755,-0.67 -8.043,-3.7 -20.843,-9.26 -35.774,-17.17"
       id="path22"
       inkscape:connector-curvature="0"
       style="fill:#ffffff" />
    <path
       d="m 228.672,230.182 c 0,0 8.532,6.396 17.394,18.172 8.867,11.78 14.77,20.868 13.13,21.878 -1.64,1.01 -8.204,-2.02 -8.204,-2.02 0,0 14.274,9.062 27.403,20.838 13.12,11.784 19.853,18.535 19.853,18.535 0,0 21.338,-0.34 23.63,5.048 2.303,5.386 3.288,7.74 4.928,10.77 1.64,3.028 11.817,18.172 13.126,18.172 1.316,0 5.286,-0.02 6.27,-1.032 0.985,-1.014 2.59,-4.354 2.59,-4.354 0,0 1.32,7.404 -1.31,11.104 2.592,2.033 26.93,18.085 48.108,27.23 18.433,7.952 34.97,14.403 36.61,12.718 1.643,-1.682 -7.266,-35.238 -12.514,-46.68 -5.253,-11.44 -6.036,-13.73 -6.036,-13.73 0,0 -4.466,-19.883 -8.08,-24.257 -3.605,-4.378 -9.844,-7.07 -9.844,-7.07 0,0 -16.078,-20.564 -34.46,-38.065 -18.374,-17.5 -44.966,-38.997 -72.2,-56.162 -27.245,-17.164 -30.85,-18.846 -43.654,-19.852 -12.8,-1.01 -33.144,0.97 -43.972,2.986 -10.833,2.022 -25.28,7.402 -25.28,7.402 0,0 14.773,7.072 30.197,19.522 l 22.315,18.846"
       id="path24"
       inkscape:connector-curvature="0"
       style="fill:#006272" />
    <path
       d="m 311.544,319.53 c 0,0 5.74,5.385 9.19,10.43 3.447,5.053 9.188,14.306 9.188,14.306 0,0 -7.715,-3.533 -9.843,-4.713 -2.134,-1.18 -3.94,-2.522 -3.94,-2.522 0,0 -2.46,-5.72 -3.12,-9.252 -0.66,-3.538 -1.477,-8.246 -1.477,-8.246"
       id="path26"
       inkscape:connector-curvature="0"
       style="fill:#e57200" />
    <path
       d="m 270.878,304.1 3.9,5.506 c 0,0 -4.27,17.775 -3.755,23.075 0,0 -3.145,-12.73 -0.145,-28.58 m -9.524,-9.043 3.894,6.323 c 0,0 -3.576,19.683 -2.674,26.365 0,0 -4.213,-14.505 -1.22,-32.69 m -9.426,-8.225 3.895,5.506 c 0,0 -3.076,20.61 -2.17,29.446 0,0 -4.813,-15.52 -1.725,-34.952 m -21.45,-32.08 c 0,0 -33.97,-21.88 -56.285,-28.1 -22.32,-6.226 -24.285,-7.07 -25.6,-6.057 -1.314,1.007 -5.085,3.87 -5.085,3.87 0,0 3.28,-6.732 4.922,-6.732 1.644,0 15.427,2.36 34.953,10.097 19.158,7.596 35.284,18.676 47.094,26.923"
       id="path28"
       inkscape:connector-curvature="0"
       style="fill:#006272" />
    <path
       d="m 159.18,271.66 c 0,0 -20.44,2.157 -58.35,3.673 -37.908,1.516 -78.304,1.86 -78.49,2.633 -0.738,3.027 48.86,26.3 108.733,42.543 64.63,17.526 73.148,20.56 109.335,19.802 -3.693,-5.3 -7.874,-9.59 -15.014,-15.398 -7.14,-5.805 -41.845,-40.13 -66.214,-53.256 m 62.03,-40.382 c 0,0 19.442,-3.537 41.6,0.756 22.154,4.29 60.204,18.196 62.464,16.744 3.94,-2.52 -28.733,-67.134 -58.487,-103.707 -26.55,-32.636 -64.776,-65.796 -93.082,-78.413 -3.07,-1.37 23.876,45.684 34.95,76.727 11.076,31.047 9.23,46.752 9.23,46.752 0,0 -26.46,-1.516 -45.165,3.028 -18.71,4.544 11.565,29.78 48.49,38.113 M 323.484,365.74 c -0.09,-0.105 -1.932,-1.648 -3.067,-3.305 -0.058,-1.06 -0.268,-3.36 -1.125,-4.14 -0.174,-1.04 -1.747,-1.412 -3.54,-1.39 -3.092,0.034 -3.915,-0.964 -8.3,-0.252 -4.39,0.716 -13.486,2.643 -37.42,2.56 0,0 -32.556,0.172 -48.85,-0.996 -16.292,-1.173 -23.47,-2.433 -24.765,-1.576 -1.29,0.843 -25.528,19.123 -39.556,33.624 -14.015,14.504 -25.423,29.478 -32.344,38.072 -6.918,8.578 -9.803,13.615 -9.63,14.282 0.092,0.344 1.765,2.947 1.984,3.5 0.34,0.833 13.02,-0.63 23.273,-0.905 10.253,-0.27 23.768,-0.407 24.248,-1.083 0.487,-0.67 7.63,-19.11 21.797,-34.783 14.18,-15.672 29.982,-31.192 31.604,-31.04 1.635,0.148 40.69,-1.094 58.91,-2.95 18.21,-1.854 41.96,-4.44 43.41,-5.452 1.455,-1.02 4.528,-2.843 3.376,-4.165"
       id="path30"
       inkscape:connector-curvature="0"
       style="fill:#010101" />
    <path
       d="m 183.933,383.742 c -6.453,-0.41 -11.47,-0.586 -15.348,-0.63 -3.59,3.213 -7.033,6.475 -10.022,9.56 a 482.08,482.08 0 0 0 -2.02,2.118 c 9.724,-1.12 26.223,-2.57 36.87,-1.067 a 491.778,491.778 0 0 1 5.762,-6.214 c -2.914,-1.735 -7.62,-3.28 -15.242,-3.77 m -28.983,12.747 a 350.61,350.61 0 0 0 -9.124,10.19 c 4.036,-0.4 9.89,-0.76 18.66,-1.033 7.493,-0.227 13.268,0.225 17.167,1.318 0.505,-0.632 0.964,-1.17 1.358,-1.606 l 0.184,-0.202 a 975.364,975.364 0 0 1 8.994,-10.09 c -10.402,-1.193 -26.566,0.133 -37.237,1.423 m 9.584,10.664 c -9.98,0.308 -16.145,0.737 -20.143,1.2 -1.034,1.23 -2.044,2.423 -3.034,3.608 2.927,-0.503 6.942,-1.09 12.374,-1.686 l 1.758,-0.204 c 9.872,-1.09 19.31,-2.14 24.62,-1.12 0.192,-0.254 0.37,-0.5 0.555,-0.73 -3.162,-0.784 -8.183,-1.314 -16.13,-1.068 m -14.4,20.088 c 8.92,-0.397 12.818,-0.57 17.727,0.526 1.375,-2.427 2.803,-4.8 4.223,-7.067 -3.126,-1.282 -7.684,-2.4 -14.145,-2.463 -8.31,-0.08 -15.854,0.044 -22.01,0.352 a 806.515,806.515 0 0 0 -5.877,7.36 l -2.747,3.436 c 5.336,-0.85 12.522,-1.69 20.13,-2.025 l 2.7,-0.12"
       id="path32"
       inkscape:connector-curvature="0"
       style="fill:#ffffff" />
    <path
       d="m 155.64,411.57 -1.754,0.195 c -6.56,0.728 -11.056,1.438 -14.02,1.996 a 663.194,663.194 0 0 0 -2.68,3.273 c 5.933,-0.267 13.012,-0.38 20.76,-0.295 6.86,0.07 11.662,1.26 14.96,2.657 a 173.49,173.49 0 0 1 6.213,-9.12 c -5.254,-0.737 -14.804,0.327 -23.48,1.297 m 15.23,-30.492 c -0.208,0.186 -0.424,0.364 -0.63,0.558 3.646,0.068 8.167,0.254 13.784,0.606 7.124,0.46 12.546,1.852 16.21,4.143 0.418,-0.432 0.824,-0.865 1.238,-1.293 a 33.742,33.742 0 0 0 -3.4,-1.367 c -4.234,-1.44 -19.885,-2.307 -27.203,-2.647"
       id="path34"
       inkscape:connector-curvature="0"
       style="fill:#ffffff" />
    <path
       d="m 182.845,370.964 a 433.732,433.732 0 0 0 -10.345,8.682 c 7.882,0.385 21.886,1.246 26.033,2.653 a 33.44,33.44 0 0 1 4.032,1.66 c 3.35,-3.444 6.437,-6.46 8.9,-8.55 -2.52,-1.37 -6.69,-2.657 -13.528,-3.497 -6.2,-0.77 -11.143,-1.012 -15.092,-0.95 M 173.622,421 c 0.117,0.693 0.236,1.384 0.348,2.04 a 120.732,120.732 0 0 1 5.82,-8.297 289.08,289.08 0 0 0 -0.39,-2.35 176.984,176.984 0 0 0 -5.778,8.608 m 9.165,-9.98 c 0.77,-0.91 1.54,-1.823 2.327,-2.692 0.1,-0.11 3.25,-3.587 7.574,-8.18 -0.1,-0.808 -0.248,-1.843 -0.417,-2.963 a 937.913,937.913 0 0 0 -7.99,8.97 l -0.192,0.22 a 48.96,48.96 0 0 0 -1.793,2.15 c 0.125,0.622 0.307,1.536 0.493,2.494 m 17.622,-22.63 c 0.24,0.93 0.507,1.945 0.76,2.91 0.39,-0.4 0.783,-0.796 1.17,-1.196 -0.127,-1 -0.276,-2.163 -0.425,-3.307 -0.492,0.517 -0.998,1.047 -1.506,1.592 m 11,-11.016 c -2.156,1.96 -4.934,4.693 -8.188,8.07 0.128,1.045 0.286,2.226 0.427,3.35 2.8,-2.81 5.525,-5.44 7.85,-7.523 a 560.58,560.58 0 0 0 -0.09,-3.896 M 172.8,424.922 c -0.117,-0.69 -0.238,-1.383 -0.345,-2.045 a 182.28,182.28 0 0 0 -3.444,5.83 c 0.112,0.706 0.22,1.442 0.327,2.15 a 142.245,142.245 0 0 1 3.46,-5.935 m 26.422,-35.27 a 536.227,536.227 0 0 0 -5.668,6.128 c 0.146,1.007 0.3,2.054 0.43,2.993 a 625.614,625.614 0 0 1 5.99,-6.247 c -0.268,-1.026 -0.533,-2.03 -0.753,-2.874 M 181.1,410.07 c -0.16,0.22 -0.317,0.442 -0.483,0.664 0.128,0.816 0.27,1.65 0.406,2.454 0.186,-0.234 0.36,-0.477 0.56,-0.71 -0.175,-0.862 -0.34,-1.712 -0.482,-2.408"
       id="path36"
       inkscape:connector-curvature="0"
       style="fill:#ffffff" />
    <path
       d="m 319.922,365.283 c -0.846,-0.4 -2.116,-1.01 -2.314,-2.703 l -0.054,-1.05 c -0.037,-1.73 -0.146,-1.78 -1.118,-1.772 -1.292,0.01 -2.256,-0.142 -3.1,-0.276 -1.34,-0.213 -2.496,-0.4 -4.996,0.01 l -1.192,0.2 c -4.674,0.793 -14.402,2.455 -36.448,2.374 -0.327,0 -32.805,0.158 -48.96,-1.002 l -14.78,-1.25 c -4.68,-0.437 -8.37,-0.776 -9.16,-0.518 -0.71,0.495 -6.118,4.536 -13.096,10.168 3.675,0.024 8.088,0.295 13.407,0.954 6.646,0.82 11.514,2.15 14.585,3.98 1.673,-1.32 2.947,-2.064 3.635,-2.003 2.395,0.17 41.526,-0.453 59.44,-2.284 l 31.91,-3.155 c 5.904,-0.562 7.484,-0.717 7.908,-0.882 l 0.124,-0.052 h 0.128 c 1.22,-0.01 3.188,-0.12 4.885,-0.27 -0.24,-0.17 -0.5,-0.32 -0.803,-0.466 m -169.728,63.46 -2.695,0.118 c -8.62,0.377 -16.39,1.395 -21.597,2.28 -4.566,5.704 -6.586,8.85 -7.472,10.515 2.633,-0.12 6.77,-0.368 10.35,-0.582 l 11.627,-0.614 c 6.51,-0.186 18.846,-0.57 21.496,-0.842 1.444,-3.39 3.245,-6.97 5.2,-10.49 -4.484,-0.94 -8.272,-0.775 -16.91,-0.384"
       id="path38"
       inkscape:connector-curvature="0"
       style="fill:#e57200" />
    <path
       d="m 488.097,223.468 c 0.572,-4.25 0.572,-8.255 0.572,-8.255 0,0 -7.08,-1.896 -11.29,-2.005 -4.21,-0.102 -11.284,1.003 -11.284,1.003 0,0 -3.95,5.78 -4.876,8.268 -0.248,0.635 1.048,6.792 1.048,6.792 0,0 -6.06,11.07 -10.254,19.286 -4.184,8.214 -11.055,21.017 -20.805,36.548 -8.794,14.004 -15.388,24.583 -15.388,24.583 l 3.022,7.17 2.84,-2.133 0.72,-0.28 2.458,0.207 c 0,0 4.483,-5.173 10.254,-11.107 5.78,-5.926 18.636,-26.52 26.873,-38.23 8.224,-11.71 16.147,-29.058 16.147,-29.058 0,0 4.085,-0.436 6.424,-1.503 2.34,-1.07 2.886,-4.616 2.886,-4.616 0,0 0.15,-2.92 0.65,-6.666"
       id="path40"
       inkscape:connector-curvature="0"
       style="fill:#010101" />
    <path
       d="m 472.405,221.786 c 0,0 8.585,0.178 9.156,0.186 0.59,-0.655 2.365,-2.708 3.53,-4.847 -1.78,-0.214 -5.39,-0.61 -8.363,-0.683 -3.37,-0.085 -7.856,1.05 -9.19,1.415 -0.773,1.06 -2.142,3.044 -3.03,4.69 2.028,-0.45 4.69,-0.81 7.9,-0.76 m -49.036,83.056 1.09,-1.05 -0.538,1.61 c 0,0.09 -0.136,0.778 -0.356,1.256 0.51,-0.155 2.098,-0.976 2.098,-0.976 0,0 -2.483,4.515 -3.175,5.47 0.19,-0.122 2.375,-1.89 2.566,-2.006 2.376,-1.67 15.39,-19.79 27.192,-39.577 5.452,-9.15 18.296,-31.87 25.39,-42.963 -1.254,-0.154 -3.125,-0.26 -4.75,-0.35 -2.654,-0.148 -4.082,0.442 -5.354,0.955 L 466,227.75 c -0.56,0.634 -1.983,3.238 -1.983,3.238 -0.045,0.07 -5.892,10.928 -10.038,19.065 -4.053,7.948 -12.25,22.776 -20.255,36.056 -5.242,8.69 -11.21,17.13 -15.338,21.785 0.833,-0.716 4.493,-2.58 4.985,-3.053"
       id="path42"
       inkscape:connector-curvature="0"
       style="fill:#e57200" />
    <path
       d="m 422.256,308.13 c -0.426,0.13 -0.82,0.24 -0.86,0.25 -1.26,1.08 -2.903,1.432 -3.515,1.683 0.204,0.42 1.608,3.323 1.818,3.77 0.323,-0.24 0.937,-0.702 1.128,-0.843 -0.125,-0.36 -0.278,-0.81 -0.453,-1.362 0.638,-1.124 1.334,-2.746 1.884,-3.498"
       id="path44"
       inkscape:connector-curvature="0"
       style="fill:#e57200" />
    <path
       d="m 308.178,386.722 c 0,0 -4.222,0.565 -4.27,0.08 -0.052,-0.49 -0.25,-2.053 -1.02,-3.157 -0.77,-1.103 -1.58,-1.717 -1.58,-1.717 0,0 1.27,-2.867 5.252,-4.38 3.99,-1.52 6.143,-2.518 6.47,-2.102 0.322,0.414 -0.374,2.34 -0.374,2.34 0,0 -3.285,8.644 -4.478,8.936"
       id="path46"
       inkscape:connector-curvature="0"
       style="fill:#010101" />
    <path
       d="m 310.894,377.262 c -0.435,0.17 -0.906,0.35 -1.375,0.533 l -2.4,0.93 c -2.246,0.854 -3.44,2.167 -4.013,2.96 0.322,0.323 0.687,0.734 1.055,1.264 0.31,0.44 1.104,1.79 1.28,2.27 1.758,-2.39 5.045,-6.354 5.45,-7.96"
       id="path48"
       inkscape:connector-curvature="0"
       style="fill:#e57200" />
    <path
       d="m 433.855,326.123 c 0,0 3.676,-2.146 3.38,-2.627 -0.29,-0.493 -1.2,-2.098 -1.357,-3.626 -0.148,-1.52 0.066,-2.62 0.066,-2.62 0,0 -2.93,-1.883 -7.07,-0.788 -4.143,1.104 -6.5,1.532 -6.465,2.126 0.023,0.594 0.562,2.212 0.562,2.212 0,0 9.756,5.813 10.882,5.323"
       id="path50"
       inkscape:connector-curvature="0"
       style="fill:#010101" />
    <path
       d="m 425.307,318.948 c 0.45,-0.13 0.943,-0.247 1.432,-0.37 l 2.507,-0.65 c 2.318,-0.617 4.143,-0.15 5.13,0.235 -0.027,0.51 -0.035,1.13 0.04,1.86 0.057,0.61 0.21,1.21 0.396,1.77 -2.99,-1.13 -6.796,-2.428 -9.507,-2.845"
       id="path52"
       inkscape:connector-curvature="0"
       style="fill:#e57200" />
    <path
       d="m 326.3,383.888 c -0.823,-1.217 -2.794,-1.812 -3.585,-3.926 -0.363,-0.954 -0.595,-2.154 -1.41,-2.568 0,0 -3.213,4.808 -1.686,11.963 3.277,0.784 6.593,-2.502 6.593,-2.502 0,0 0.662,-2.12 0.087,-2.967"
       id="path54"
       inkscape:connector-curvature="0"
       style="fill:#010101" />
    <path
       d="m 324.18,386.136 0.205,-0.18 -0.183,-0.26 c -0.67,-1.01 -1.64,-2.59 -2.456,-4.456 l -0.285,-0.64 -0.184,0.604 a 16.275,16.275 0 0 0 -0.633,6.294 l 0.037,0.403 1.204,-0.325 c 0.728,-0.295 1.503,-0.78 2.297,-1.438"
       id="path56"
       inkscape:connector-curvature="0"
       style="fill:#e57200" />
  </g>
</svg>
