<?xml version="1.0" encoding="UTF-8" standalone="no"?>
<svg
   xmlns:dc="http://purl.org/dc/elements/1.1/"
   xmlns:cc="http://creativecommons.org/ns#"
   xmlns:rdf="http://www.w3.org/1999/02/22-rdf-syntax-ns#"
   xmlns:svg="http://www.w3.org/2000/svg"
   xmlns="http://www.w3.org/2000/svg"
   xmlns:sodipodi="http://sodipodi.sourceforge.net/DTD/sodipodi-0.dtd"
   xmlns:inkscape="http://www.inkscape.org/namespaces/inkscape"
   width="512"
   height="512"
   viewBox="0 0 512 512"
   version="1.1"
   id="svg12"
   sodipodi:docname="st-louis-blues.svg"
   inkscape:version="0.92.5 (2060ec1f9f, 2020-04-08)">
  <metadata
     id="metadata18">
    <rdf:RDF>
      <cc:Work
         rdf:about="">
        <dc:format>image/svg+xml</dc:format>
        <dc:type
           rdf:resource="http://purl.org/dc/dcmitype/StillImage" />
      </cc:Work>
    </rdf:RDF>
  </metadata>
  <defs
     id="defs16" />
  <sodipodi:namedview
     pagecolor="#ffffff"
     bordercolor="#666666"
     borderopacity="1"
     objecttolerance="10"
     gridtolerance="10"
     guidetolerance="10"
     inkscape:pageopacity="0"
     inkscape:pageshadow="2"
     inkscape:window-width="640"
     inkscape:window-height="480"
     id="namedview14"
     showgrid="false"
     inkscape:zoom="0.4609375"
     inkscape:cx="256"
     inkscape:cy="256"
     inkscape:window-x="0"
     inkscape:window-y="0"
     inkscape:window-maximized="0"
     inkscape:current-layer="svg12" />
  <g
     id="g10"
     transform="translate(0,42)"
     style="fill:none;fill-rule:evenodd">
    <path
       d="m 140.092,112.492 c 0,0 13.706,20.56 17.72,31.09 0.15,0.362 0.24,0.868 0.36,1.21 0.86,2.47 0.84,4.818 0.218,5.677 -1.47,2.03 -3.938,2.93 -9.8,2.782 l -25.563,-40.76 H 77 l 107.7,175.122 a 120.444,120.444 0 0 0 -4.062,-0.072 c -20.388,0 -39.446,5.226 -53.658,14.71 -16.664,11.122 -25.112,25.07 -25.112,41.456 0,15.788 8.95,30.454 25.198,41.296 14.116,9.42 33.144,14.606 53.576,14.606 19.88,0 38.8,-5.32 53.27,-14.98 16.154,-10.786 25.052,-25.3 25.052,-40.87 0,-7.044 -1.868,-13.845 -5.877,-21.406 l -0.187,-0.35 -25.13,-40.143 c 4.857,0.81 9.674,0.89 13.193,0.89 6.945,0 12.653,-1.047 12.88,-1.095 1.938,-0.407 7.43,-1.658 7.43,-1.658 l -7.032,-10.22 c 2.637,0.184 16.685,0.886 29.06,0.058 8.646,-0.577 16.474,-2.53 19.038,-3.257 2.24,-0.634 8.855,-3.05 8.855,-3.05 l -9,-8.94 c 9.71,-0.154 19.71,-2.49 32.834,-8.478 21.415,-9.77 33.59,-23.868 38.025,-29.63 h -2.33 c 3.32,-1.87 7.148,-4.345 10.323,-6.94 6.14,-5.015 10.602,-10.07 13.937,-15.353 1.36,-2.156 2.684,-4.304 3.592,-6.142 1.28,-2.595 1.885,-4.522 1.885,-4.522 h -2.495 c 1.907,-1.58 7.87,-7.096 12.077,-14.79 1.958,-3.58 3.57,-7.684 4.6,-10.92 0.992,-3.114 1.44,-5.43 1.44,-5.43 h -3.922 c 4.257,-2.98 10.9,-9.463 15.924,-18.798 2.434,-4.527 4.333,-9.47 5.447,-13.567 1.146,-4.222 1.47,-7.528 1.47,-7.528 H 140.093 Z"
       id="path2"
       inkscape:connector-curvature="0"
       style="fill:#041e42" />
    <path
       d="m 148.68,117.705 3.59,5.202 c 0.076,0.11 7.528,10.957 10.716,20.12 1.52,4.37 0.924,8.552 0.286,9.722 -2.642,4.83 -12.053,5.355 -15.976,5.355 -0.56,0 -1.127,-0.01 -1.69,-0.03 l -25.454,-40.37 h -33.83 l 108.168,175.88 a 118.21,118.21 0 0 0 -13.852,-0.83 c -19.37,0 -37.4,4.912 -50.767,13.835 -15.122,10.095 -22.79,22.584 -22.79,37.12 0,13.99 8.124,27.114 22.88,36.96 13.27,8.854 31.27,13.73 50.683,13.73 18.863,0 36.754,-5.01 50.377,-14.106 14.66,-9.786 22.732,-22.76 22.732,-36.53 0,-6.16 -1.675,-12.186 -5.27,-18.963 l -0.097,-0.184 -31.82,-50.828 c 3.81,0.998 17.96,3.753 24.398,3.753 6.438,0 11.37,-1.126 11.37,-1.126 l -9.18,-12.944 c 3.776,0.24 18.48,1.958 31.957,1.353 14.432,-0.65 20.003,-2.034 26.252,-3.546 l -10.837,-11.374 c 9.236,-0.168 24.215,-0.44 42.14,-8.62 16.624,-7.582 26.608,-17.89 31.168,-23.814 h -9.396 c 9.04,-2.55 16.1,-6.076 23.31,-11.97 10.267,-8.386 14.43,-18.284 14.43,-18.284 l -9.81,-0.02 c 1.57,-1 5.197,-2.87 9.237,-5.926 3.712,-2.806 7.71,-6.734 10.77,-10.543 2.008,-2.5 5.712,-8.748 6.383,-14.632 l -10.033,-0.015 c 4.186,-3.015 14.675,-10.835 21.42,-20.482 2.566,-3.668 4.796,-7.88 6.04,-11.315 1.364,-3.76 1.62,-6.58 1.62,-6.58 z"
       id="path4"
       inkscape:connector-curvature="0"
       style="fill:#ffffff" />
    <path
       d="m 155,121.022 c 0,0 7.738,11.202 11.117,20.917 1.836,5.276 1.153,10.406 0.064,12.4 -3.365,6.162 -13.276,7.083 -18.884,7.083 a 51.22,51.22 0 0 1 -3.582,-0.126 L 118.325,121.02 H 92.26 l 108.814,176.935 c -6.4,-1.234 -13.66,-1.883 -20.432,-1.883 -18.394,0 -35.824,4.532 -48.927,13.276 -14.238,9.502 -21.318,20.916 -21.318,34.357 0,13.003 7.888,25.182 21.403,34.2 13.097,8.74 30.448,13.174 48.846,13.174 18.416,0 35.445,-4.808 48.536,-13.547 13.502,-9.014 21.258,-20.77 21.258,-33.774 0,-5.596 -1.552,-11.128 -4.883,-17.41 l -0.05,-0.093 -35.802,-58.242 c 9.077,2.704 23.152,6.384 31.146,6.022 l 6.36,-0.29 -3.882,-5.048 c -0.045,-0.058 -3.233,-4.214 -5.962,-8.643 7.704,0.577 21.402,1.45 33.674,1.45 4.505,0 12.263,-0.32 17.874,-0.853 3.81,-0.363 6.676,-1.008 6.676,-1.008 l -11.9,-12.625 c 0.74,0.013 1.518,0.02 2.334,0.02 h 0.003 c 8.58,0 27.768,-0.714 43.878,-7.89 8.35,-3.72 15.835,-8.375 20.902,-12.737 4.15,-3.572 6.685,-7.287 6.685,-7.287 h -14.03 c 12.234,-3.943 23.042,-8.462 33.026,-16.705 4.047,-3.342 6.684,-7.392 8.028,-9.95 0.658,-1.258 0.926,-2.195 1.05,-2.437 h -14.084 c 1.29,-0.698 15.986,-8.45 24.348,-16.76 4.062,-4.032 6.335,-8.21 7.226,-11.057 0.586,-1.877 0.374,-3.295 0.374,-3.295 h -15.177 c 6.67,-4.186 18.465,-12.144 26.21,-21.486 2.994,-3.61 5.826,-7.912 7.284,-11.196 1.352,-3.05 1.435,-5.22 1.435,-5.22 H 155 v 0.002 z"
       id="path6"
       inkscape:connector-curvature="0"
       style="fill:#ffb81c" />
    <path
       d="m 161.17,124.34 c 29.77,46.446 -19.39,40.11 -19.39,40.11 L 116.495,124.34 H 98.177 l 109.398,178.684 c -8.112,-2.33 -17.496,-3.635 -26.937,-3.635 -36.692,0 -66.484,19.884 -66.484,44.37 0,24.523 29.792,44.38 66.484,44.38 36.74,0 66.482,-19.858 66.482,-44.38 0,-5.71 -1.808,-10.788 -4.496,-15.854 l -40.408,-65.733 c 0,0 26.7,9.086 38.48,8.55 0,0 -6.462,-8.395 -9.168,-14.464 0,0 39.413,3.583 57.104,0.982 l -12.91,-13.947 c 0,0 48.923,5.222 73.982,-20.853 H 215.51 l -2.142,-3.348 h 118.177 c 16.125,-4.163 40.238,-12.4 48.068,-25.745 h -181.71 l -2.14,-3.348 h 168.605 c 11.282,-5.69 32.545,-17.624 34.89,-27.763 H 178.36 l -2.143,-3.348 h 205.666 c 10.593,-6.22 31.962,-20.242 36.703,-34.553 H 161.17 Z"
       id="path8"
       inkscape:connector-curvature="0"
       style="fill:#003087" />
  </g>
</svg>
