<?xml version="1.0" encoding="UTF-8" standalone="no"?>
<svg
   xmlns:dc="http://purl.org/dc/elements/1.1/"
   xmlns:cc="http://creativecommons.org/ns#"
   xmlns:rdf="http://www.w3.org/1999/02/22-rdf-syntax-ns#"
   xmlns:svg="http://www.w3.org/2000/svg"
   xmlns="http://www.w3.org/2000/svg"
   xmlns:sodipodi="http://sodipodi.sourceforge.net/DTD/sodipodi-0.dtd"
   xmlns:inkscape="http://www.inkscape.org/namespaces/inkscape"
   width="512"
   height="512"
   viewBox="0 0 512 512"
   version="1.1"
   id="svg8"
   sodipodi:docname="tampa-bay-lightning.svg"
   inkscape:version="0.92.5 (2060ec1f9f, 2020-04-08)">
  <metadata
     id="metadata14">
    <rdf:RDF>
      <cc:Work
         rdf:about="">
        <dc:format>image/svg+xml</dc:format>
        <dc:type
           rdf:resource="http://purl.org/dc/dcmitype/StillImage" />
      </cc:Work>
    </rdf:RDF>
  </metadata>
  <defs
     id="defs12" />
  <sodipodi:namedview
     pagecolor="#ffffff"
     bordercolor="#666666"
     borderopacity="1"
     objecttolerance="10"
     gridtolerance="10"
     guidetolerance="10"
     inkscape:pageopacity="0"
     inkscape:pageshadow="2"
     inkscape:window-width="640"
     inkscape:window-height="480"
     id="namedview10"
     showgrid="false"
     inkscape:zoom="0.4609375"
     inkscape:cx="256"
     inkscape:cy="256"
     inkscape:window-x="94"
     inkscape:window-y="153"
     inkscape:window-maximized="0"
     inkscape:current-layer="svg8" />
  <g
     id="g6"
     transform="translate(0,39.186441)"
     style="fill:#00205b;fill-rule:evenodd">
    <path
       d="m 438.29,240.487 c 0,-36.906 -22.965,-73.285 -63.73,-95.637 l -15.614,12.378 c 27.854,17.506 44.25,43.674 44.25,73.373 0,69.307 -85.742,132.086 -181.155,132.086 -9.79,0 -19.4,-0.72 -28.67,-2.094 l -32.2,23.807 c 20.33,6.87 43.014,10.514 66.727,10.514 113.265,0 210.393,-76.386 210.393,-154.425"
       id="path2"
       inkscape:connector-curvature="0" />
    <path
       d="m 294.226,266.255 -58.272,11.39 129.25,-106.1 -60.173,8.056 L 421.99,86.94 285.835,122.73 a 264.007,264.007 0 0 0 -5.414,-0.065 c -111.584,0 -206.42,75.75 -206.42,155.67 0,39.223 21.143,70.414 53.915,90.627 L 77.6,426.454 294.226,266.254 Z m -204.67,0.264 c 0,-71.67 89.78,-132.085 181.156,-132.085 0.633,0 1.25,0.015 1.883,0.022 l -88.34,98.73 50.795,-8.028 -100.086,96.686 40.59,-7.318 -28.35,32.402 C 112.744,330.63 89.557,302.518 89.557,266.515 Z"
       id="path4"
       inkscape:connector-curvature="0" />
  </g>
</svg>
