<?xml version="1.0" encoding="UTF-8" standalone="no"?>
<svg
   xmlns:dc="http://purl.org/dc/elements/1.1/"
   xmlns:cc="http://creativecommons.org/ns#"
   xmlns:rdf="http://www.w3.org/1999/02/22-rdf-syntax-ns#"
   xmlns:svg="http://www.w3.org/2000/svg"
   xmlns="http://www.w3.org/2000/svg"
   xmlns:sodipodi="http://sodipodi.sourceforge.net/DTD/sodipodi-0.dtd"
   xmlns:inkscape="http://www.inkscape.org/namespaces/inkscape"
   width="512"
   height="512"
   viewBox="0 0 512 512"
   version="1.1"
   id="svg10"
   sodipodi:docname="toronto-maple-leafs.svg"
   inkscape:version="0.92.5 (2060ec1f9f, 2020-04-08)">
  <metadata
     id="metadata16">
    <rdf:RDF>
      <cc:Work
         rdf:about="">
        <dc:format>image/svg+xml</dc:format>
        <dc:type
           rdf:resource="http://purl.org/dc/dcmitype/StillImage" />
      </cc:Work>
    </rdf:RDF>
  </metadata>
  <defs
     id="defs14" />
  <sodipodi:namedview
     pagecolor="#ffffff"
     bordercolor="#666666"
     borderopacity="1"
     objecttolerance="10"
     gridtolerance="10"
     guidetolerance="10"
     inkscape:pageopacity="0"
     inkscape:pageshadow="2"
     inkscape:window-width="640"
     inkscape:window-height="480"
     id="namedview12"
     showgrid="false"
     inkscape:zoom="0.4609375"
     inkscape:cx="256"
     inkscape:cy="256"
     inkscape:window-x="0"
     inkscape:window-y="0"
     inkscape:window-maximized="0"
     inkscape:current-layer="svg10" />
  <g
     id="g8"
     transform="translate(-20,20)"
     style="fill:none;fill-rule:evenodd">
    <path
       d="m 332.6,409.7 v 6.6 H 331 v -6.6 h -1.9 v -1.6 h 5.5 v 1.6 z m 9,6.6 v -4.9 l -1.4,3 h -1.5 l -1.4,-3 v 4.9 h -1.6 v -8.2 h 1.6 l 2.1,4.4 2.1,-4.4 h 1.6 v 8.2 z"
       id="path2"
       inkscape:connector-curvature="0"
       style="fill:#00205b" />
    <path
       d="m 413.7,217.9 c 0.2,-0.3 0,-0.7 -0.3,-0.8 -4.8,-1.8 -9.2,-3 -13.8,-3.7 -0.4,-0.1 -0.6,-0.4 -0.4,-0.8 3.7,-7.5 6.1,-16 7.9,-25.3 0.1,-0.4 -0.3,-0.8 -0.7,-0.6 -8.4,2.2 -17.9,6.1 -25.9,9.9 -0.3,0.1 -0.7,0 -0.7,-0.4 -1.2,-5.2 -2.6,-11 -5.4,-16 -0.2,-0.3 -0.5,-0.4 -0.8,-0.2 -8.4,6.1 -15.9,12.8 -22.5,20.1 -0.2,0.3 -0.7,0.2 -0.9,-0.1 -1.7,-2.8 -3.9,-5.3 -6.8,-7.4 -0.2,-0.2 -0.6,-0.1 -0.7,0.1 -10.8,13.4 -24.4,28.6 -42,41.1 -0.4,0.3 -0.9,-0.1 -0.7,-0.5 4,-13 10,-25.5 15.8,-36.9 0.2,-0.3 0,-0.7 -0.4,-0.8 -2.5,-0.6 -5.7,-0.9 -8.9,-1 -0.4,0 -0.6,-0.5 -0.4,-0.8 7.4,-11 13.1,-24.3 16.6,-36.3 0.1,-0.3 -0.2,-0.7 -0.5,-0.7 -6.2,0.3 -13.7,1.7 -19.8,3.8 -0.4,0.1 -0.7,-0.2 -0.7,-0.6 1.8,-10.4 1,-22 -1,-32.8 -0.1,-0.3 -0.4,-0.5 -0.7,-0.4 -4.4,1.6 -9.4,4.2 -13.9,6.9 -0.4,0.2 -0.8,-0.1 -0.8,-0.5 0.7,-9.7 -0.4,-20.5 -2.5,-29.2 -0.1,-0.3 -0.4,-0.5 -0.7,-0.4 -3.2,1.1 -6.9,3.1 -10.5,5.2 -0.3,0.2 -0.7,0 -0.8,-0.3 -3.4,-9.8 -8.7,-19.4 -14.5,-28.9 -0.2,-0.4 -0.7,-0.4 -0.9,0 -5.8,9.5 -11.2,19 -14.5,28.9 -0.1,0.3 -0.5,0.5 -0.8,0.3 -3.6,-2.1 -7.3,-4.1 -10.5,-5.2 -0.3,-0.1 -0.6,0.1 -0.7,0.4 -2.1,8.7 -3.2,19.5 -2.5,29.2 0,0.4 -0.4,0.7 -0.8,0.5 -4.6,-2.7 -9.6,-5.3 -13.9,-6.9 -0.3,-0.1 -0.7,0.1 -0.7,0.4 -2,10.8 -2.8,22.4 -1,32.8 0.1,0.4 -0.3,0.7 -0.7,0.6 -6.2,-2.1 -13.7,-3.5 -19.8,-3.8 -0.4,0 -0.6,0.3 -0.5,0.7 3.6,12 9.2,25.3 16.6,36.3 0.2,0.3 0,0.8 -0.4,0.8 -3.1,0.2 -6.4,0.5 -8.9,1 -0.3,0.1 -0.5,0.5 -0.4,0.8 6.1,11.6 12.1,24.1 16.1,37.1 0.1,0.4 -0.3,0.8 -0.7,0.5 -15.6,-10.9 -30.5,-26.8 -42,-41.2 -0.2,-0.2 -0.5,-0.3 -0.7,-0.1 -2.9,2.1 -5.1,4.6 -6.8,7.4 -0.2,0.3 -0.6,0.4 -0.9,0.1 -6.6,-7.4 -14.1,-14.1 -22.5,-20.1 -0.3,-0.2 -0.7,-0.1 -0.8,0.2 -2.9,5 -4.2,10.9 -5.4,16 -0.1,0.3 -0.4,0.5 -0.7,0.4 -8,-3.8 -17.5,-7.7 -25.9,-9.9 -0.4,-0.1 -0.8,0.3 -0.7,0.6 1.8,9.3 4.2,17.8 7.9,25.3 0.2,0.3 0,0.7 -0.4,0.8 -4.5,0.6 -9,1.9 -13.8,3.7 -0.3,0.1 -0.5,0.5 -0.3,0.8 5.6,9.6 12,17.5 19.5,23.7 0.3,0.2 0.2,0.7 -0.1,0.9 -3,1.8 -5.8,3.9 -8.2,6.3 -0.2,0.2 -0.2,0.6 0,0.8 9.4,9.2 19.7,17.5 30.8,24.8 0.3,0.2 0.3,0.7 0,0.9 -4.1,3.2 -7.7,6.5 -10.8,10.2 -0.2,0.2 -0.2,0.6 0.1,0.8 8.1,7.1 17.3,12.9 28,17.3 0.4,0.2 0.5,0.7 0.1,1 -3.8,2.9 -6.9,6 -9.8,9.5 -0.2,0.3 -0.1,0.7 0.2,0.8 7.7,3.9 17,6.5 26.6,8.2 0.4,0.1 0.5,0.7 0,0.8 -12.3,3.8 -23.6,8.7 -34.5,14.8 -0.4,0.2 -0.4,0.7 -0.1,0.9 7.9,5.9 16,11 25.5,14.7 0.4,0.2 0.5,0.7 0.1,0.9 -12.9,10.5 -23.4,22.6 -32.6,35.7 -0.3,0.4 0.1,0.9 0.5,0.9 13.1,-1.7 25.3,-3.7 35.9,-6.6 0.4,-0.1 0.8,0.3 0.6,0.7 -2.3,4.5 -4.3,9.3 -6.1,14.3 -0.1,0.4 0.2,0.8 0.6,0.8 11.8,-1.3 22.6,-2.8 31.2,-4.7 0.5,-0.1 0.8,0.4 0.6,0.8 -3.6,5.5 -6.2,11.5 -8.3,18.1 -0.1,0.4 0.2,0.8 0.6,0.7 20.7,-4 39.6,-9.9 56.4,-17.9 0.5,-0.2 1,0.1 1,0.6 1,14.9 6.6,25.2 14.4,33.5 0.3,0.3 0.8,0.3 1.1,0 l 10.8,-10 c 0.3,-0.3 0.4,-0.8 0.1,-1.1 -2.1,-2.5 -12,-13.6 -10.3,-22.2 0.2,-1 1.3,-1.6 2.3,-1.1 12.5,5.7 38.4,14.3 58.7,18.2 0.4,0.1 0.7,-0.3 0.6,-0.7 -2.1,-6.6 -4.6,-12.6 -8.3,-18.1 -0.3,-0.4 0.1,-0.9 0.6,-0.8 8.6,1.9 19.3,3.4 31.2,4.7 0.4,0 0.7,-0.4 0.6,-0.8 -1.9,-5 -3.9,-9.8 -6.1,-14.3 -0.2,-0.4 0.2,-0.9 0.6,-0.7 10.5,2.9 22.7,4.9 35.9,6.6 0.5,0.1 0.8,-0.5 0.5,-0.9 -9.2,-13.1 -19.7,-25.2 -32.6,-35.7 -0.3,-0.3 -0.2,-0.8 0.1,-0.9 9.4,-3.7 17.5,-8.8 25.5,-14.7 0.3,-0.2 0.3,-0.7 -0.1,-0.9 -10.8,-6 -22.2,-11 -34.5,-14.8 -0.4,-0.1 -0.4,-0.7 0,-0.8 9.6,-1.7 19,-4.3 26.6,-8.2 0.3,-0.2 0.4,-0.6 0.2,-0.8 -2.9,-3.4 -6,-6.6 -9.8,-9.5 -0.3,-0.3 -0.3,-0.8 0.1,-1 10.7,-4.4 20,-10.2 28,-17.3 0.2,-0.2 0.3,-0.5 0.1,-0.8 -3.1,-3.7 -6.7,-7 -10.8,-10.2 -0.3,-0.2 -0.3,-0.7 0,-0.9 11.1,-7.3 21.4,-15.5 30.8,-24.8 0.2,-0.2 0.2,-0.6 0,-0.8 -2.4,-2.4 -5.2,-4.5 -8.2,-6.3 -0.3,-0.2 -0.4,-0.6 -0.1,-0.9 7.6,-6.3 14,-14.2 19.6,-23.8 z"
       id="path4"
       inkscape:connector-curvature="0"
       style="fill:#00205b" />
    <path
       d="m 253.9,218.4 c 0.1,0.1 0.2,0.2 0.2,0.3 0.1,4.1 0.2,7.9 0.3,11.6 0,0.1 0.1,0.2 0.3,0.3 h 2.9 c 0.1,0 0.1,0 0.2,-0.1 0.1,-0.1 0.1,-0.1 0.1,-0.2 l -0.3,-7.8 c 0,-0.1 0.1,-0.3 0.2,-0.4 13.9,-10.6 25,-22.9 30.2,-33.8 l -0.2,-0.1 c -6.5,10.8 -16.6,21.2 -30.1,30.9 -0.1,0.1 -0.2,0 -0.2,-0.1 -0.5,-16.6 -0.5,-30.2 0,-41.8 0,-1.6 0.1,-3.2 0.1,-5 0,-0.2 0.1,-0.4 0.3,-0.5 6,-3.3 11.4,-7.7 16.6,-13.3 l -0.1,-0.1 c -5.8,5.1 -11.2,8.8 -16.5,11.4 h -0.2 v -0.1 c 0.4,-20.4 -0.1,-44.3 -1.1,-55.5 h -0.2 c 0.1,11.9 0,24.1 -0.4,36.2 0,0.1 -0.1,0.1 -0.1,0.1 h -0.1 c -4.9,-5.2 -9.4,-11 -13.4,-17.2 l -0.2,0.1 c 3.3,6.4 7.7,12.8 13.4,19.7 0.2,0.2 0.3,0.5 0.3,0.8 -0.3,7.9 -0.6,15.7 -1.1,23.2 -0.1,2.6 -0.2,5.3 -0.4,8.6 0,0.1 -0.1,0.2 -0.2,0.1 -6.3,-4.5 -12.1,-10.6 -16.7,-17.7 l -0.2,0.1 c 4.1,7.8 9.7,14.4 16.6,19.6 0.2,0.2 0.4,0.5 0.4,0.8 -0.3,9 -0.4,18 -0.2,27 v 0.1 H 254 c -12.4,-7.5 -22.6,-17.3 -30.4,-29.1 l -0.1,0.1 c 6.9,12.2 18,23.9 30.4,31.8 z M 164.8,251 h 0.1 l 2,-0.9 c 0.1,0 0.1,-0.1 0.1,-0.2 0,-0.1 0,-0.1 -0.1,-0.2 -0.7,-0.7 -1.5,-1.5 -2.2,-2.3 -0.2,-0.2 -0.2,-0.4 -0.3,-0.6 -0.1,-7.8 -2.7,-14.7 -7.7,-20.6 l -0.1,0.1 c 3.8,5.7 5.6,11.7 5.6,18.5 -4.8,-4.8 -10,-9.6 -15.5,-14.5 -0.2,-0.2 -0.3,-0.4 -0.2,-0.6 0.5,-5.8 -0.5,-11.2 -2.9,-16.1 l -0.2,0.1 c 1.7,4.8 2.1,9.7 1.3,14.8 h -0.1 c -6.1,-5.6 -12.8,-12.3 -20.5,-20.3 l -0.1,0.1 c 6.5,7.8 14.2,15.9 23.5,25 1.4,1.3 2.8,2.7 4.4,4.3 -0.9,0.1 -1.8,0.1 -2.7,0.1 -6.4,0 -12.9,-1.6 -19.8,-4.9 l -0.1,0.2 c 7.3,4.5 15,6.6 23.5,6.6 h 0.9 c 0.1,0 0.3,0.1 0.3,0.1 3.1,3.1 6.6,6.8 10.6,11.3 z m 201.4,-20.3 c 7.1,-7.1 13.7,-14.4 19.9,-21.6 L 386,209 c -7.3,7.3 -14.7,14.5 -22.6,22.1 0,0 -0.1,0 -0.1,-0.1 -0.8,-5.1 -0.6,-10.6 0.5,-16 h -0.2 c -1.9,5.2 -2.6,10.9 -2.1,17.4 0,0.2 -0.1,0.5 -0.3,0.6 -6,5.4 -11.7,10.8 -16.9,16.2 -0.1,0.1 -0.1,0.1 -0.1,0.2 0,0.1 0.1,0.1 0.1,0.2 l 2,1.1 h 0.1 c 0.1,0 0.2,0 0.2,-0.1 1.9,-2.1 4,-4.4 6.5,-6.9 0.2,-0.2 0.4,-0.3 0.7,-0.3 8.6,-0.1 15.9,-2.1 22.5,-6.1 l -0.1,-0.2 c -6.4,2.8 -12.1,4.1 -18,4.1 -0.8,0 -1.7,0 -2.5,-0.1 h -0.1 V 241 c 3.6,-3.6 7.1,-7 10.6,-10.3 z M 263.5,374.4 c -6.1,0 -11.8,1.7 -14.6,5.8 0,0 -0.1,0.1 -0.1,0 -1.8,-1.2 -7.8,-4.8 -14.8,-4.8 -3.8,0 -7.9,1.8 -12,4.2 h -0.2 c -11,-1.6 -21.6,0.5 -31.9,4.5 10.8,-2.7 21,-4.5 29.1,-2.9 0,0 0.1,0.1 0,0.1 -4.8,2.9 -9.6,6.1 -13.8,7.6 8.8,-1 20.2,-11 29.1,-11 5.9,0 11.9,3.7 13.4,4.7 0.1,0 0.1,0.1 0,0.1 -0.4,1.4 -0.6,3 -0.4,4.8 2.9,-8 8.7,-9.8 16.8,-9.8 6.2,0 12.4,2.2 19.6,3.8 0.1,0 0.1,0 0.2,0.1 4.4,3.8 12.5,7.7 16.4,8.3 l 1.7,0.3 -1.6,-0.6 c -3.3,-1.3 -9.2,-4.2 -12.1,-7.1 v -0.1 c 3,0.5 6.2,0.8 9.6,0.8 12.8,0 18.6,-2.3 22.3,-3.8 -3.9,0.8 -7.5,2 -20.4,2 -11.9,0.1 -26.7,-7 -36.3,-7 z M 174,267.7 c 2.2,-1.1 4.4,-2.2 6.5,-3.2 l -2.5,-4.9 c -6.4,3.1 -12.7,6.3 -18.9,9.8 l 2.5,4.9 c 2.1,-1.2 4.3,-2.3 6.4,-3.5 l 0.4,-0.2 12.7,24.6 c 1.7,-0.9 3.4,-1.8 5.2,-2.7 l -12.7,-24.6 z m 25.8,18.5 c 0.7,0 1.4,-0.1 2.1,-0.4 2.5,-0.9 5.1,-1.8 7.7,-2.6 1.6,-0.5 2.9,-1.6 3.7,-3.1 0.7,-1.5 0.8,-3.1 0.3,-4.7 L 207,255.9 c -0.9,-2.6 -3.4,-4.4 -6.1,-4.4 -0.7,0 -1.3,0.1 -1.9,0.3 -2.6,0.8 -5.2,1.7 -7.7,2.6 -3.3,1.2 -5,4.8 -3.9,8.1 L 194,282 c 0.8,2.5 3.1,4.2 5.8,4.2 z m -4.8,-27.3 3.6,-1.2 c 0.3,-0.1 0.5,-0.1 0.8,-0.1 1.1,0 2,0.7 2.4,1.7 l 5.5,16.2 c 0.2,0.6 0.2,1.3 -0.1,1.9 -0.3,0.6 -0.8,1 -1.5,1.3 l -3.6,1.2 c -0.3,0.1 -0.5,0.1 -0.8,0.1 -1.1,0 -2,-0.7 -2.4,-1.7 l -5.5,-16.2 c -0.4,-1.4 0.3,-2.8 1.6,-3.2 z m 65.8,17.2 c 3.6,0 6.3,-2.7 6.3,-6.2 v -20.6 c 0,-3.5 -2.8,-6.4 -6.3,-6.5 h -8.2 c -3.5,0 -6.3,2.9 -6.3,6.5 v 20.6 c 0,3.5 2.7,6.2 6.2,6.2 0.7,0 3.8,-0.1 8.3,0 z m -8.5,-25.2 c 0,-1.4 1.1,-2.5 2.5,-2.5 h 3.8 c 1.4,0 2.5,1.1 2.5,2.5 V 268 c 0,1.4 -1.1,2.5 -2.5,2.5 h -3.8 c -1.4,0 -2.5,-1.1 -2.5,-2.5 z m -1.4,104 h 8.9 l 1.4,5.4 h 5.9 l -7.8,-28.9 h -7.8 l -7.8,28.9 h 5.9 z m 4.4,-17.5 3.1,12.1 h -6.1 z m 15.2,-29.2 v -9 c 0,-3.2 -2.6,-5.7 -5.7,-5.7 h -12.5 v 28.9 h 5.7 v -8.5 h 6.8 c 3.2,0 5.7,-2.5 5.7,-5.7 z m -5.6,-1.5 c 0,1 -0.8,1.8 -1.8,1.8 H 258 v -9.6 h 5.1 c 1,0 1.8,0.8 1.8,1.8 z m -70.8,24.7 v 28.9 H 211 v -5.4 h -11.2 v -23.5 z m 21.6,-37.9 h -4.5 l -6.3,14.5 -6.3,-14.5 h -4.5 v 28.9 h 5.7 V 309 l 5.1,11.6 5.1,-11.6 v 13.4 h 5.7 z m 11.6,-14.7 -1.6,-9.8 0.4,-0.1 c 0.8,-0.1 1.6,-0.3 2.4,-0.4 h 0.3 l 0.2,0.2 c 2.1,2.9 4.2,5.9 6.3,8.9 1.9,-0.3 3.8,-0.5 5.7,-0.8 -2.1,-2.9 -4.1,-5.9 -6.2,-8.8 l -0.3,-0.4 0.5,-0.2 c 2.6,-1.1 4.1,-3.8 3.7,-6.6 L 237,250.3 c -0.5,-3.1 -3.2,-5.4 -6.3,-5.4 -0.3,0 -0.6,0 -0.9,0.1 -4.5,0.7 -8.9,1.4 -13.4,2.3 l 5.3,32.8 c 1.8,-0.6 3.7,-1 5.6,-1.3 z m -4,-27.4 c 1.7,-0.3 3.5,-0.6 5.2,-0.9 1.4,-0.2 2.7,0.8 2.9,2.1 l 1.1,7.1 c 0.1,0.7 -0.1,1.3 -0.4,1.9 -0.4,0.5 -1,0.9 -1.6,1 -1.7,0.3 -3.5,0.6 -5.2,0.9 l -0.4,0.1 -1.9,-12 z m 15.9,71 h 5.8 l -7.1,-28.9 h -7.7 l -7.1,28.9 h 5.8 l 1.2,-5.4 h 7.9 z m -7.9,-10.9 2.7,-12.1 2.7,12.1 z m 60.8,25.3 v -5.4 h -18.2 v 28.9 h 5.8 v -11.7 h 8.8 v -5.5 h -8.8 v -6.3 z m -13.6,-92.9 -5.5,32.8 c 1.9,0.3 3.8,0.5 5.8,0.8 l 3.2,-18.8 0.6,1.6 c 2.2,6.3 4.3,12.7 6.4,18.9 l 4.5,0.9 5.5,-32.8 c -1.9,-0.4 -3.8,-0.7 -5.7,-1.1 l -3.2,18.8 -0.6,-1.6 c -2.1,-6.3 -4.3,-12.7 -6.4,-18.9 -1.6,-0.1 -3.1,-0.4 -4.6,-0.6 z m 26.9,116.4 h 8.1 c 3.2,0 5.8,-2.6 5.8,-5.7 v -4.1 c 0,-2.1 -0.8,-4.1 -2.8,-5.1 0,0 -10.1,-4.5 -10.3,-4.6 -0.5,-0.3 -1,-0.9 -1,-1.6 v -0.6 c 0,-1 0.8,-1.8 1.8,-1.8 h 4.7 c 1,0 1.8,0.8 1.8,1.8 v 1.2 h 5.7 v -2.7 c 0,-3.2 -2.6,-5.7 -5.8,-5.7 h -8.1 c -3.2,0 -5.8,2.6 -5.8,5.7 v 3 c 0,2.1 0.8,4.1 2.8,5.1 0,0 10.1,4.5 10.3,4.6 0.5,0.3 1,0.9 1,1.6 v 1.8 c 0,1 -0.8,1.8 -1.8,1.8 h -4.7 c -1,0 -1.8,-0.8 -1.8,-1.8 V 352 h -5.7 v 2.7 c 0,3 2.6,5.6 5.8,5.6 z m 13.9,-43.4 h -11 v -6.3 h 7.5 v -5.4 h -7.5 v -6.3 h 11 v -5.4 h -16.7 v 28.9 h 16.7 z m -24,0 h -10.5 v -23.4 h -5.7 v 28.9 h 16.2 z m 14.7,-31.6 8.8,-26.3 0.4,0.1 c 2.3,0.8 4.6,1.6 6.9,2.5 l 1.8,-5.3 c -6.6,-2.5 -13.4,-4.7 -20.2,-6.8 l -1.8,5.3 c 2.3,0.7 4.6,1.4 7,2.2 l 0.4,0.1 -8.8,26.3 c 1.8,0.6 3.7,1.2 5.5,1.9 z m -73.3,51.5 v -5.4 h -18.1 v 28.9 h 18.1 v -5.4 h -12.4 v -6.3 h 8.8 v -5.5 h -8.8 v -6.3 z m 111.7,-70.7 c -2.4,-1.3 -4.8,-2.5 -7.2,-3.7 -0.9,-0.4 -1.8,-0.7 -2.8,-0.7 -2.4,0 -4.7,1.4 -5.8,3.5 l -9.5,18.3 c -0.8,1.5 -0.9,3.2 -0.4,4.7 0.5,1.6 1.6,2.9 3.2,3.7 2.4,1.2 4.8,2.5 7.2,3.7 0.9,0.5 1.9,0.7 3,0.7 2.3,0 4.4,-1.3 5.5,-3.3 l 9.5,-18.3 c 1.6,-3.1 0.4,-6.9 -2.7,-8.6 z m -3.4,7.3 -7.9,15.2 c -0.4,0.8 -1.3,1.3 -2.2,1.3 -0.4,0 -0.8,-0.1 -1.2,-0.3 -1.1,-0.6 -2.2,-1.2 -3.3,-1.7 -0.6,-0.3 -1,-0.8 -1.2,-1.5 -0.2,-0.6 -0.1,-1.3 0.2,-1.9 l 7.9,-15.2 c 0.4,-0.8 1.3,-1.4 2.3,-1.4 0.4,0 0.8,0.1 1.1,0.3 1.1,0.6 2.2,1.1 3.3,1.7 1.2,0.8 1.7,2.3 1,3.5 z"
       id="path6"
       inkscape:connector-curvature="0"
       style="fill:#ffffff" />
  </g>
</svg>
