<?xml version="1.0" encoding="UTF-8" standalone="no"?>
<svg
   xmlns:dc="http://purl.org/dc/elements/1.1/"
   xmlns:cc="http://creativecommons.org/ns#"
   xmlns:rdf="http://www.w3.org/1999/02/22-rdf-syntax-ns#"
   xmlns:svg="http://www.w3.org/2000/svg"
   xmlns="http://www.w3.org/2000/svg"
   xmlns:sodipodi="http://sodipodi.sourceforge.net/DTD/sodipodi-0.dtd"
   xmlns:inkscape="http://www.inkscape.org/namespaces/inkscape"
   width="512"
   height="512"
   viewBox="0 0 512 512"
   version="1.1"
   id="svg24"
   sodipodi:docname="vancouver-canucks.svg"
   inkscape:version="0.92.5 (2060ec1f9f, 2020-04-08)">
  <metadata
     id="metadata30">
    <rdf:RDF>
      <cc:Work
         rdf:about="">
        <dc:format>image/svg+xml</dc:format>
        <dc:type
           rdf:resource="http://purl.org/dc/dcmitype/StillImage" />
      </cc:Work>
    </rdf:RDF>
  </metadata>
  <defs
     id="defs28" />
  <sodipodi:namedview
     pagecolor="#ffffff"
     bordercolor="#666666"
     borderopacity="1"
     objecttolerance="10"
     gridtolerance="10"
     guidetolerance="10"
     inkscape:pageopacity="0"
     inkscape:pageshadow="2"
     inkscape:window-width="640"
     inkscape:window-height="480"
     id="namedview26"
     showgrid="false"
     inkscape:zoom="0.4609375"
     inkscape:cx="256"
     inkscape:cy="256"
     inkscape:window-x="0"
     inkscape:window-y="0"
     inkscape:window-maximized="0"
     inkscape:current-layer="svg24" />
  <g
     id="g22"
     transform="translate(0,16)"
     style="fill:none;fill-rule:evenodd">
    <path
       d="m 332.912,259.736 c 53.33,14.93 69.153,35.128 69.153,35.128 l 30.548,-34.47 c 1.685,-1.755 6.74,-7.976 6.74,-19.32 0,-12.294 -12.82,-21.734 -21.758,-28.174 -15.164,-39.812 -99.26,-51.375 -105.488,-65.206 -2.125,-4.757 -14.43,-46.25 -14.43,-46.25 C 290.35,80 268.737,80 260.607,80 c -8.205,0 -25.713,2.78 -25.713,2.78 0,29.86 -4.03,66.304 -8.278,72.964 0,0 -15.164,7.977 -33.038,14.344 l -42.49,-28.615 11.21,38.568 C 90.508,219.415 73,288.06 73,288.06 c 0,0 18.46,144.61 199.915,144.61 95.965,0 151.347,-46.326 151.347,-46.326 L 393.348,317.26 c 0,0 -47.177,24.516 -107.54,24.516 -55.6,0 -77.358,-25.907 -85.343,-40.982 47.104,1.463 54.502,-2.27 54.502,-2.27 l 77.945,-38.786 z"
       id="path2"
       inkscape:connector-curvature="0"
       style="fill:#97999b" />
    <path
       d="m 146.988,254.687 47.03,-31.615 -3.516,25.102 z m 57.946,-35.933 -8.79,-21.15 33.99,-19.027 z m 11.866,-2.414 20.146,16.83 -40.583,-5.488 z"
       id="path4"
       inkscape:connector-curvature="0"
       style="fill:#97999b" />
    <path
       d="m 411.002,218.315 c -14.797,-40.03 -96.55,-47.35 -105.635,-66.157 -3.59,-7.61 -8.278,-25.687 -15.017,-47.715 -5.42,-15.954 -21.39,-15.954 -29.376,-15.954 -7.618,0 -17.508,1.61 -17.508,1.61 0,16.245 -3.077,63.594 -10.622,71.863 -1.905,2.342 -15.823,7.977 -30.987,13.832 l 4.542,3.074 -4.617,4.61 c 15.09,-7.905 27.69,-10.685 35.236,-16.98 10.987,-11.27 148.415,67.548 140.577,67.548 -3.443,0 -16.117,4.903 -26.666,9.074 35.238,11.563 53.258,24.004 55.676,25.76 l -5.2,5.855 c 0,0 -20.88,-16.906 -69.74,-29.86 -21.025,10.54 -82.707,1.17 -82.707,1.17 -33.99,6.954 -66.444,39.227 -68.055,40.837 4.615,22.687 26.81,69.524 105.195,69.524 56.628,0 100.435,-19.76 100.435,-19.76 l 20.292,45.374 c 0,0 -53.184,36.81 -133.62,36.81 -164.458,0 -185.336,-129.166 -185.336,-129.166 22.71,-60.595 60.877,-87.16 85.125,-98.357 l -7.618,-0.878 -0.66,-2.27 c -64.1,35.42 -83,100.846 -83,100.846 0,0 19.487,135.9 191.565,135.9 88.055,0 141.312,-40.763 141.312,-40.763 l -24.907,-55.62 c 0,0 -46.518,21.81 -103.51,21.81 -84.904,0 -97.43,-57.888 -97.43,-57.888 0,0 48.348,2.926 63.805,-1.245 l 79.922,-39.885 c 54.136,15.222 69.74,31.762 69.74,31.762 l 24.76,-27.884 c 0,0 4.542,-4.246 4.542,-13.832 0,-8.93 -13.406,-17.93 -20.512,-23.053"
       id="path6"
       inkscape:connector-curvature="0"
       style="fill:#003e7e" />
    <path
       d="m 390.857,221.096 c -33.918,-2.708 -47.104,-13.832 -47.104,-22.613 0,-4.172 3.81,-4.977 6.447,-4.977 13.845,0 35.236,10.978 38.752,20.272 -6.08,-6.514 -16.702,-12.222 -24.76,-12.222 -1.758,0 -3.516,0.513 -3.516,2.635 0,5.49 9.743,14.053 45.272,18.005 -13.626,-39.226 -88.713,-42.007 -105.562,-66.596 -4.688,-6.807 -12.453,-50.644 -20.292,-56.57 -8.57,-6.588 -30.62,-3.587 -30.62,-3.587 0,6.074 -1.466,59.79 -12.6,70.987 -7.473,6.292 -20.146,9.073 -35.237,16.977 l -8.717,8.782 -9.597,30.003 -12.453,-6.514 4.468,11.05 -22.27,3.732 12.6,4.318 -36.334,27.81 9.816,0.732 -12.893,23.346 c 18.68,-8.416 24.32,-10.1 24.32,-10.1 l -5.347,-5.488 37.58,-15.15 c 0,0 -2.857,7.54 -2.857,22.102 0,2.122 0.293,5.123 1.026,8.71 1.61,-3.075 31.205,-57.523 94.57,-61.255 l -79.115,61.18 c 0,0 43.367,1.83 53.99,-1.17 33.477,-15.515 60.29,-30.078 81.313,-40.617 20.145,-10.1 35.09,-16.466 45.345,-16.466 12.673,0 30.4,12.295 45.418,22.687 0,0 0.954,-0.803 1.76,-2.413 3.66,-13.173 -15.24,-23.272 -33.405,-27.59"
       id="path8"
       inkscape:connector-curvature="0"
       style="fill:#00205b" />
    <path
       d="m 180.98,286.814 c 1.61,-1.537 34.063,-33.81 68.054,-40.763 l 26.518,-20.49 c -63.366,3.733 -92.96,58.18 -94.573,61.255 M 425.505,242.98 c 0,-8.05 -10.622,-13.467 -19.633,-20.71 -35.602,-3.954 -45.272,-12.516 -45.272,-18.005 0,-2.122 1.833,-2.635 3.518,-2.635 8.057,0 18.752,5.708 24.76,12.22 -3.517,-9.293 -24.908,-20.27 -38.753,-20.27 -2.638,0 -6.447,0.804 -6.447,4.976 0,8.782 13.186,19.832 47.104,22.613 18.167,4.316 37.067,14.415 33.404,27.515 0.733,-1.39 1.32,-3.293 1.32,-5.708 m -66.664,-0.074 13.186,4.684 c 2.418,-1.024 5.055,-2.342 5.275,-2.634 0.146,-0.366 0.146,-0.66 -0.367,-1.17 -0.366,-0.367 -6.3,-2.563 -9.962,-3.88 z m 11.135,-4.17 c 3.515,1.39 8.35,3.365 8.79,3.44 0.586,0.072 1.465,0.145 2.05,0 0.44,-0.148 3.297,-1.61 5.422,-2.636 -2.05,-1.025 -6.155,-2.927 -8.938,-2.927 -2.638,-0.072 -7.326,2.123 -7.326,2.123 m 13.04,4.537 c -0.148,0.293 0,0.44 0.438,0.805 0.513,0.366 7.4,3.952 7.912,3.952 0.512,0.073 1.025,0.073 1.538,-0.073 0.366,-0.073 2.784,-1.61 4.395,-2.708 l -9.158,-4.903 c -2.344,1.244 -4.908,2.635 -5.127,2.927 m 6.518,7.245 c 0.147,-0.366 0.22,-0.585 0.147,-0.878 -0.44,-0.512 -7.253,-4.025 -7.985,-4.098 -0.806,-0.075 -1.245,-0.075 -1.905,0.22 -0.586,0.29 -4.03,2.193 -5.274,2.852 l 10.623,4.83 c 2.05,-1.244 4.174,-2.635 4.394,-2.928 m 13.04,3.733 c 0.22,0.073 0.952,-0.147 1.685,-0.366 0.365,-0.146 1.977,-1.39 3.002,-2.27 l -8.204,-5.194 c -1.978,1.244 -4.03,2.635 -4.25,2.927 0,0.074 0,0.293 0.44,0.88 l 7.326,4.024 z m 3.37,0.805 c -0.22,0.44 -0.293,0.658 -0.147,0.805 0.294,0.22 4.543,3.073 7.4,4.976 l 3.296,-3.293 -7.545,-4.902 c -1.39,1.024 -2.856,2.195 -3.002,2.415 m -4.69,1.39 c 0.148,-0.22 0.074,-0.658 -0.22,-0.95 -0.438,-0.44 -6.958,-3.953 -7.47,-4.026 -0.587,-0.147 -1.54,0 -2.125,0.22 -0.292,0.072 -2.197,1.39 -3.955,2.707 l 10.036,4.684 c 1.686,-1.098 3.59,-2.342 3.737,-2.635 m 1.757,1.317 c -0.293,0.074 -2.197,1.537 -3.59,2.635 l 9.085,5.635 3.37,-3.732 c -2.785,-1.903 -6.74,-4.61 -7.107,-4.757 -0.367,-0.07 -1.32,0.075 -1.76,0.22"
       id="path10"
       inkscape:connector-curvature="0"
       style="fill:#ffffff" />
    <path
       d="m 214.237,220.803 15.53,9.002 -26.445,-3.22 z m 2.564,-4.464 -20.363,11.34 40.51,5.49 -20.145,-16.832 z m -29.52,29.42 -28.863,4.462 31.867,-21.59 -3.004,17.126 z m 3.223,2.413 3.59,-25.102 -47.104,31.616 43.513,-6.513 z m 10.77,-49.4 21.536,-12.147 -18.61,25.175 -2.93,-13.026 z m 28.862,-20.197 -34.064,19.027 8.865,21.15 25.2,-40.177 z"
       id="path12"
       inkscape:connector-curvature="0"
       style="fill:#aeb0b2" />
    <path
       d="m 383.238,345.14 c -14.21,5.49 -51.28,17.857 -96.99,17.857 -90.178,0 -112.888,-61.693 -112.888,-84.965 0,-5.123 0.367,-9.514 0.806,-13.026 l -20.73,6.88 2.71,5.853 -16.19,5.853 -13.92,9.148 28.35,5.27 -5.86,20.198 12.16,-3.587 11.65,29.64 13.99,-1.83 4.616,20.858 c 0,0 26.3,18.222 70.765,22.174 58.75,5.27 111.422,-14.783 111.422,-14.783 0,0 -62.78,24.59 -119.775,18.515 -43.587,-4.61 -71.937,-22.32 -71.937,-22.32 l -0.368,-18.808 -17.215,0.22 -8.13,-28.76 -15.312,7.17 6.74,-25.76 -29.376,-3.586 6.006,-18.002 6.96,-14.052 -9.377,0.22 39.264,-29.2 -17.142,-6.66 27.91,-5.342 -9.742,-19.54 17.215,9.807 6.813,-21.37 c -20.658,7.173 -65.124,30.006 -90.837,97.115 3.15,15.368 30.035,121.922 178.45,121.922 64.1,0 110.91,-24.298 125.27,-32.787 l -15.312,-34.323 z m -192.223,-153.097 8.498,-11.417 -41.39,-28.614 11.868,34.835 z"
       id="path14"
       inkscape:connector-curvature="0"
       style="fill:#003e7e" />
    <path
       d="m 289.03,163.282 c 0,0 -11.5,-4.83 -14.577,-8.782 -3.076,-3.88 -6.74,-42.958 -6.74,-42.958 0,0 -0.658,39.81 -2.93,43.397 -2.344,3.51 -13.77,10.097 -13.77,10.097 0,0 12.672,-4.17 18.9,-4.464 4.614,-0.293 19.118,2.708 19.118,2.708"
       id="path16"
       inkscape:connector-curvature="0"
       style="fill:#ffffff" />
    <path
       d="m 269.985,160.574 c -6.227,0.366 -18.9,4.464 -18.9,4.464 0,0 11.428,-6.586 13.7,-10.1 2.27,-3.512 2.93,-43.396 2.93,-43.396 0,0 3.662,39.006 6.738,42.958 3.15,3.952 14.652,8.782 14.652,8.782 0,0 -14.578,-3 -19.12,-2.708 m 61.754,84.306 c 48.86,12.954 69.74,29.86 69.74,29.86 l 5.2,-5.856 c -2.418,-1.756 -20.44,-14.197 -55.675,-25.76 10.475,-4.17 23.222,-9.075 26.665,-9.075 7.766,0 23.81,10.17 41.024,21.37 l 3.956,-4.393 c -15.018,-10.392 -32.672,-22.687 -45.42,-22.687 -10.4,0 -25.272,6.368 -45.49,16.54"
       id="path18"
       inkscape:connector-curvature="0"
       style="fill:#ffffff" />
    <path
       d="m 229.767,229.805 -15.53,-9.002 -10.988,5.782 z m -28.497,-31.03 2.93,12.954 18.608,-25.104 z m -10.987,29.932 -31.867,21.59 28.863,-4.538 z"
       id="path20"
       inkscape:connector-curvature="0"
       style="fill:#003e7e" />
  </g>
</svg>
