<?xml version="1.0" encoding="UTF-8" standalone="no"?>
<svg
   xmlns:dc="http://purl.org/dc/elements/1.1/"
   xmlns:cc="http://creativecommons.org/ns#"
   xmlns:rdf="http://www.w3.org/1999/02/22-rdf-syntax-ns#"
   xmlns:svg="http://www.w3.org/2000/svg"
   xmlns="http://www.w3.org/2000/svg"
   xmlns:sodipodi="http://sodipodi.sourceforge.net/DTD/sodipodi-0.dtd"
   xmlns:inkscape="http://www.inkscape.org/namespaces/inkscape"
   width="512"
   height="512"
   viewBox="0 0 512 512"
   version="1.1"
   id="svg12"
   sodipodi:docname="washington-capitals.svg"
   inkscape:version="0.92.5 (2060ec1f9f, 2020-04-08)">
  <metadata
     id="metadata18">
    <rdf:RDF>
      <cc:Work
         rdf:about="">
        <dc:format>image/svg+xml</dc:format>
        <dc:type
           rdf:resource="http://purl.org/dc/dcmitype/StillImage" />
      </cc:Work>
    </rdf:RDF>
  </metadata>
  <defs
     id="defs16" />
  <sodipodi:namedview
     pagecolor="#ffffff"
     bordercolor="#666666"
     borderopacity="1"
     objecttolerance="10"
     gridtolerance="10"
     guidetolerance="10"
     inkscape:pageopacity="0"
     inkscape:pageshadow="2"
     inkscape:window-width="640"
     inkscape:window-height="480"
     id="namedview14"
     showgrid="false"
     inkscape:zoom="0.4609375"
     inkscape:cx="256"
     inkscape:cy="259.39545"
     inkscape:window-x="0"
     inkscape:window-y="0"
     inkscape:window-maximized="0"
     inkscape:current-layer="svg12" />
  <g
     id="g10"
     transform="matrix(0.91198817,0,0,0.86997559,50.866436,72.059953)"
     style="fill:none;fill-rule:evenodd">
    <path
       d="m 88.296,241.982 c 0,0 2.528,-31.452 12.947,-31.452 h 19.09 c 0,0 1.916,-44.58 18.418,-44.58 h 190.24 l 28.81,-67.463 h 30.786 l -59.458,143.495 h 37.427 c 15.752,0 23.254,12.097 23.254,12.097 l 30.784,-75.56 h 31.186 l -28.02,68.69 c 0,0 9.39,-5.12 14.28,-5.12 H 504 l -11.002,26.587 h -10.17 c 0,0 5.668,5.674 5.668,13.433 0,11.68 -10.92,26.614 -24.92,26.614 H 330.212 c -12.336,0 -22.213,-9.884 -22.09,-16.935 l -15.67,38.513 c 0,0 -0.707,1.28 -0.707,3.95 0,2.67 0.283,2.952 0.708,3.38 l 34.286,29.436 17.555,-21.72 56.766,-0.085 -24.67,30.868 h -45.18 l -26.867,39.377 c 0,0 -32.34,-50.833 -35.897,-56.84 -3.556,-6.007 -4.78,-15.352 -4.78,-20.244 0,-13.238 3.754,-21.964 4.78,-24.585 l 2,-5.115 H 178.76 l -12.447,30.702 h -31.23 l 12.78,-30.814 h -40.95 c -11.255,0 -17.826,-10.662 -17.826,-10.662 0,0 -14.462,10.775 -25.354,10.775 H 32.393 C 19.17,308.725 11,296.768 11,288.59 11,270.07 39.062,241.982 74.904,241.982 h 13.392"
       id="path2"
       inkscape:connector-curvature="0"
       style="fill:#ffffff" />
    <path
       d="M 73.076,261.116 H 91.99 l 4.803,-11.625 H 76.236 c -30.172,0 -57.512,22.825 -57.512,39.1 0,8.457 9.42,12.574 11.448,12.574 h 32.784 c 8.446,0 23.228,-10.57 23.228,-10.57 l -11.67,-5.45 c 0,0 -5.778,4.227 -9.89,4.227 H 36.506 c -2.113,0 -3,-1.556 -3,-3.782 0,-4.95 11.89,-24.47 39.57,-24.47 m 61.215,28.273 -25.243,-0.02 c -1.5,0 -1.722,-1.67 -1.722,-2.67 0,-1 1.917,-6.757 7.585,-6.757 h 23.632 c 1.335,0 6.212,-2.086 6.212,-2.086 0,0 -3.21,11.534 -10.462,11.534 m 9.752,-39.9 H 105.6 l -4.732,11.627 h 41.07 c 6.394,0 7.15,2.558 7.15,6.562 h -30.26 c -17.843,0 -25.42,12.66 -25.42,18.856 0,10.733 9.71,14.597 14.253,14.597 h 20.09 c 3.75,0 8.335,-3.086 8.335,-3.086 l -1.166,3.117 14.627,-0.016 11.433,-27.267 c 1.03,-2.462 2.445,-7.15 2.445,-9.315 0,-8.62 -6.92,-15.073 -19.38,-15.073 m 1.875,82.26 14.282,-32.313 c 1.94,-4.39 14.38,-49.947 61.9,-49.947 h 34.844 l -15.005,36.542 c -3.002,7.316 -9.613,15.13 -17,15.13 h -43.62 l 4.777,-11.792 h 34.84 c 5.297,0 6.774,-4.094 8.28,-7.9 l 8.058,-20.354 h -14.17 c -20.546,0 -37.536,12.772 -42.343,24.137 l -19.67,46.496 h -15.17 m 111.766,-64.158 -13.762,33.568 h 14.56 l 13.79,-33.568 h -14.588 m 17.252,-6.48 4.773,-11.624 h -14.6 l -4.767,11.627 h 14.593 m 10.676,-11.627 -4.632,11.626 h 17.385 L 275,317.18 c -1.694,4.07 -3.778,9.786 -3.778,23.58 0,4.895 0.903,9.742 2.222,11.79 1.32,2.05 31.342,48.61 31.342,48.61 l 19.004,-27.03 -37.426,-31.284 c -1.133,-0.945 -2.14,-3.42 -2.14,-8.316 0,-4.892 0.946,-6.362 2.223,-9.454 l 90.52,-219.25 h -14.25 L 303.533,249.49 h -17.92"
       id="path4"
       inkscape:connector-curvature="0"
       style="fill:#041e42" />
    <path
       d="m 355.88,289.403 -25.243,-0.02 c -1.5,0 -1.718,-1.67 -1.718,-2.67 0,-1 1.915,-6.758 7.584,-6.758 h 23.63 c 1.333,0 6.21,-2.085 6.21,-2.085 0,0 -3.21,11.533 -10.464,11.533 m 9.756,-39.9 H 322.29 l -4.734,11.627 h 45.974 c 6.394,0 7.147,2.56 7.147,6.56 H 340.42 c -17.844,0 -25.42,12.66 -25.42,18.858 0,10.733 9.71,14.6 14.25,14.6 h 20.088 c 3.754,0 8.337,-3.087 8.337,-3.087 l -1.165,3.117 14.625,-0.013 11.434,-27.27 c 1.032,-2.462 2.443,-7.15 2.443,-9.316 0,-8.62 -6.917,-15.073 -19.378,-15.073 m 27.18,51.658 47.72,-115.58 H 426.28 l -47.61,115.58 h 14.146 m 8.014,0 4.675,-11.793 c 0,0 51.318,0.02 54.673,0.02 3.354,0 5.98,-3.33 5.98,-5.136 0,-1.81 -1.04,-3.31 -3.25,-3.31 h -32.632 c -3.502,0 -11.517,-4.42 -11.517,-11.873 0,-7.453 4.137,-19.58 26.1,-19.58 h 47.97 l -4.78,11.627 h -49.177 c -3.866,0 -6.057,3.95 -6.057,6.005 0,1.837 1.834,2.672 2.28,2.672 h 30.506 c 6.948,0 14.558,2.448 14.558,12.236 0,9.788 -6.19,19.135 -21.336,19.135 H 400.83"
       id="path6"
       inkscape:connector-curvature="0"
       style="fill:#041e42" />
    <path
       d="m 373.136,367.79 12.005,-14.46 h -37.565 l -11.446,14.46 h 37.007 M 117.043,232.205 h -4.312 l 1.32,-11.652 -9.657,11.652 h -4.396 l 0.728,-16.036 h 4.167 l -0.452,11.253 8.545,-11.152 h 4.62 L 117,227.3 l 8.82,-11.03 h 4.128 l -12.904,15.934 m 21.352,-6.174 -0.04,-6.41 -6.163,6.41 z m 0.043,2.655 h -8.21 l -3.128,3.52 h -4.38 l 14.6,-15.933 h 4.734 l 0.478,15.933 h -4.04 l -0.056,-3.52 z m 7.724,-1.643 4.084,-0.162 c -0.123,0.993 -0.022,1.662 0.3,2.01 0.52,0.565 1.617,0.848 3.295,0.848 1.394,0 2.437,-0.19 3.13,-0.575 0.69,-0.384 1.084,-0.85 1.182,-1.393 0.086,-0.47 -0.096,-0.868 -0.545,-1.195 -0.316,-0.24 -1.227,-0.625 -2.737,-1.162 -1.508,-0.538 -2.6,-0.985 -3.276,-1.342 -0.676,-0.36 -1.173,-0.823 -1.493,-1.395 -0.32,-0.573 -0.412,-1.242 -0.272,-2.012 0.244,-1.342 1.076,-2.454 2.498,-3.337 1.422,-0.884 3.33,-1.325 5.723,-1.325 2.43,0 4.234,0.437 5.408,1.315 1.176,0.877 1.697,2.044 1.563,3.5 l -4.108,0.14 c 0.035,-0.76 -0.22,-1.342 -0.758,-1.748 -0.537,-0.405 -1.407,-0.61 -2.603,-0.61 -1.177,0 -2.047,0.158 -2.608,0.48 -0.564,0.32 -0.888,0.72 -0.976,1.205 -0.083,0.46 0.08,0.834 0.49,1.13 0.404,0.307 1.35,0.724 2.84,1.253 2.24,0.79 3.64,1.432 4.2,1.923 0.838,0.726 1.156,1.656 0.95,2.794 -0.254,1.406 -1.196,2.608 -2.822,3.603 -1.626,0.996 -3.732,1.494 -6.31,1.494 -1.782,0 -3.283,-0.23 -4.505,-0.69 -1.22,-0.46 -2.027,-1.1 -2.415,-1.92 -0.388,-0.82 -0.467,-1.76 -0.237,-2.827 m 33.078,-1.957 h -8.013 l -3.225,7.12 h -4.27 l 7.225,-15.934 h 4.253 l -2.78,6.152 h 8.013 l 2.795,-6.152 h 4.256 l -7.21,15.933 h -4.266 l 3.225,-7.12 m 4.834,7.12 7.224,-15.933 h 4.253 l -7.207,15.933 h -4.268 m 25.885,0 h -3.97 l -3.787,-10.707 -5.154,10.707 h -3.974 l 7.515,-15.933 h 3.987 l 3.806,10.663 4.395,-10.663 h 3.957 l -6.778,15.933 m 17.313,-8.51 h 9.272 l -3.103,6.836 c -1.194,0.546 -2.618,1.007 -4.274,1.384 a 22.357,22.357 0 0 1 -4.957,0.564 c -2.56,0 -4.446,-0.445 -5.65,-1.336 -1.645,-1.216 -2.26,-2.982 -1.84,-5.293 0.28,-1.55 0.95,-3.036 2.007,-4.457 a 12.944,12.944 0 0 1 4.82,-3.978 c 1.942,-0.943 4.107,-1.412 6.502,-1.412 2.39,0 4.232,0.428 5.525,1.283 1.29,0.853 1.358,2.3 1.53,3.94 l -4.033,-0.014 c -0.186,-0.898 0.042,-1.416 -0.652,-1.874 -0.694,-0.457 -1.632,-0.685 -2.808,-0.685 a 9.658,9.658 0 0 0 -3.938,0.828 c -1.25,0.55 -2.303,1.403 -3.162,2.556 a 8.896,8.896 0 0 0 -1.658,3.77 c -0.24,1.342 -0.027,2.33 0.65,2.974 0.675,0.64 1.775,0.963 3.302,0.963 0.914,0 1.87,-0.1 2.866,-0.3 0.997,-0.2 1.87,-0.437 2.617,-0.713 l 1.062,-2.37 h -5.284 l 1.2,-2.66 m 17.042,8.505 h -4.27 l 6.022,-13.27 h -6.076 l 1.2,-2.663 h 16.325 l -1.2,2.662 h -5.994 l -6.005,13.27 m 14.838,-6.314 c -0.2,1.095 0.068,2.012 0.8,2.75 0.733,0.74 1.805,1.11 3.218,1.11 1.15,0 2.307,-0.293 3.475,-0.874 1.166,-0.584 2.2,-1.47 3.11,-2.654 0.906,-1.184 1.463,-2.34 1.665,-3.46 0.225,-1.255 -0.03,-2.24 -0.78,-2.953 -0.748,-0.717 -1.797,-1.07 -3.153,-1.07 -2.085,0 -3.91,0.744 -5.486,2.237 -1.575,1.492 -2.526,3.13 -2.846,4.913 m -4.225,0.067 c 0.17,-0.943 0.535,-1.937 1.09,-2.98 a 12.586,12.586 0 0 1 2.856,-3.64 c 1.173,-1.03 2.56,-1.844 4.166,-2.442 1.608,-0.597 3.367,-0.895 5.28,-0.895 2.564,0 4.52,0.612 5.877,1.836 1.356,1.226 1.85,2.848 1.485,4.87 -0.306,1.68 -1.11,3.308 -2.423,4.88 a 13.106,13.106 0 0 1 -4.84,3.63 c -1.917,0.848 -3.986,1.272 -6.21,1.272 -1.93,0 -3.488,-0.336 -4.678,-1.01 -1.187,-0.675 -1.963,-1.51 -2.33,-2.506 a 5.666,5.666 0 0 1 -0.273,-3.015 m 36.264,6.248 h -3.968 l -3.657,-10.707 -4.85,10.707 h -3.973 l 7.208,-15.933 h 3.988 l 3.677,10.663 4.827,-10.663 h 3.96 l -7.212,15.933 m -133.678,-41.936 10.828,-8.022 h -13.425 l -4.077,-12.597 -3.942,12.6 h -13.06 l 10.615,7.81 -4.03,12.88 10.73,-7.953 10.358,7.618 -3.994,-12.334 m 70.014,0 10.828,-8.022 H 224.93 l -4.08,-12.597 -3.94,12.6 h -13.062 l 10.616,7.81 -4.03,12.88 10.73,-7.953 10.358,7.618 -3.994,-12.334 m 69.792,0 10.83,-8.022 h -13.427 l -4.078,-12.597 -3.942,12.6 h -13.06 l 10.617,7.81 -4.032,12.88 10.73,-7.953 10.355,7.618 -3.992,-12.334"
       id="path8"
       inkscape:connector-curvature="0"
       style="fill:#a6192e" />
  </g>
</svg>
