<?xml version="1.0" encoding="UTF-8" standalone="no"?>
<svg
   xmlns:dc="http://purl.org/dc/elements/1.1/"
   xmlns:cc="http://creativecommons.org/ns#"
   xmlns:rdf="http://www.w3.org/1999/02/22-rdf-syntax-ns#"
   xmlns:svg="http://www.w3.org/2000/svg"
   xmlns="http://www.w3.org/2000/svg"
   xmlns:sodipodi="http://sodipodi.sourceforge.net/DTD/sodipodi-0.dtd"
   xmlns:inkscape="http://www.inkscape.org/namespaces/inkscape"
   inkscape:version="1.0 (4035a4fb49, 2020-05-01)"
   sodipodi:docname="winnipeg-jets.svg"
   id="svg18"
   version="1.1"
   viewBox="0 0 512 512"
   height="512"
   width="512">
  <metadata
     id="metadata24">
    <rdf:RDF>
      <cc:Work
         rdf:about="">
        <dc:format>image/svg+xml</dc:format>
        <dc:type
           rdf:resource="http://purl.org/dc/dcmitype/StillImage" />
      </cc:Work>
    </rdf:RDF>
  </metadata>
  <defs
     id="defs22" />
  <sodipodi:namedview
     inkscape:current-layer="svg18"
     inkscape:window-maximized="0"
     inkscape:window-y="0"
     inkscape:window-x="0"
     inkscape:cy="256"
     inkscape:cx="256"
     inkscape:zoom="1.3085938"
     showgrid="false"
     id="namedview20"
     inkscape:window-height="480"
     inkscape:window-width="705"
     inkscape:pageshadow="2"
     inkscape:pageopacity="0"
     guidetolerance="10"
     gridtolerance="10"
     objecttolerance="10"
     borderopacity="1"
     bordercolor="#666666"
     pagecolor="#ffffff" />
  <g
     transform="translate(-4)"
     id="g16"
     fill-rule="evenodd"
     fill="none">
    <path
       id="path2"
       d="m 445.827,257.422 c 0,104.06 -84.315,188.408 -188.383,188.408 C 153.384,445.83 69,361.483 69,257.422 69,153.352 153.358,69 257.42,69 c 104.075,0 188.407,84.352 188.407,188.422"
       fill="#a8a9ad" />
    <path
       id="path4"
       d="m 433.176,257.422 c 0,97.06 -78.658,175.763 -175.73,175.763 -97.082,0 -175.783,-78.703 -175.783,-175.763 0,-97.074 78.682,-175.774 175.754,-175.774 97.08,0 175.76,78.7 175.76,175.774"
       fill="#041e42" />
    <path
       id="path6"
       d="m 274.432,128.948 -17,-42.83 -18.027,42.834 c -63.426,8.56 -112.344,62.878 -112.344,128.652 0,71.72 58.655,129.86 130.373,129.86 71.72,0 129.34,-58.14 129.34,-129.86 0,-65.78 -48.914,-120.093 -112.34,-128.656"
       fill="#ffffff" />
    <path
       id="path8"
       d="m 178.1,233.186 10.773,25.918 49.104,-23.43 2.655,-30.087 3.645,-16.837 -24.74,-16.22 c 0,0 9.95,58.94 9.955,58.963 l -26.33,-26.274 -0.72,20.734 -38.538,-14.54 14.294,37.836 v -3.317 L 178.1,233.185 Z m 28.292,77.814 18.026,2.93 11.09,-15.947 v -7.32 l -34.94,-2.327 14.13,12.322 z m 51.04,71.434 11.197,-54.11 -0.045,-0.11 -11.154,24.61 -10.845,-24.62 -0.204,0.525 z m 43.252,-81.776 14.152,-12.346 -35.172,2.352 v 7.317 l 11.094,15.967 18.238,-2.94 z m -23.5,-64.982 49.106,23.424 10.483,-26.24 0.2,13.07 v 3.926 l 14.523,-38.44 -38.544,14.542 -0.73,-20.738 -26.333,26.277 c 0.68,-4.088 9.96,-58.967 9.96,-58.967 l -24.932,16.373 3.616,16.686 2.647,30.085 z m 81.013,14.807 -21.227,-0.1 v 18.62 z m -201.007,0 21.008,18.327 v -18.427 z"
       fill="#810120" />
    <path
       id="path10"
       d="m 274.546,205.587 -17.102,-78.153 -16.805,78.153 -2.65,30.09 -49.11,23.426 -10.776,-25.917 0.1,12.746 v 45.31 l 7.806,-3.887 49.505,3.31 v 7.316 l -22.486,32.347 v 19.61 l 31,-15.29 2.563,-6.442 10.825,24.736 11.173,-24.726 2.548,6.433 31.01,15.29 V 330.32 l -22.48,-32.34 v -7.316 l 49.5,-3.31 7.81,3.89 V 245.93 l -0.2,-13.074 -10.485,26.245 -49.1,-23.426 z"
       fill="#6e6d75" />
    <path
       id="path12"
       d="m 239.662,255.94 -3.22,-15.766 -49.327,23.527 -5.52,-13.277 v 35.352 l 3.715,-1.855 53.59,3.582 v 11.542 l -22.48,32.345 v 13.09 l 24.94,-12.293 3.858,-9.72 -2.16,-10.757 3.65,8.45 10.71,24.344 0.014,-203.37 -13.437,64.925 -2.798,31.84 -0.017,0.01 z"
       fill="#a8a9ad" />
    <path
       id="path14"
       d="m 235.465,290.664 -32.026,-2.134 13.536,11.806 c -0.215,0.6 -7.343,9.426 -7.343,9.426 l 15.85,2.572 9.98,-14.35 v -7.32 z m 8.38,-100.11 -21.923,-14.403 c 0,0 0.012,0.103 0.044,0.27 l 17.44,42.617 1.18,-13.445 3.26,-15.036 z m -14.364,43.372 c -0.023,-0.01 -0.035,-0.03 -0.063,-0.042 l -24.65,-24.586 -0.72,19.086 -36.86,-13.866 35.988,37.75 30.26,-14.444 -3.953,-3.898 z m 19.972,100.814 8,40.43 -0.033,-22.208 z m -87.632,-82.536 16.333,14.262 V 252.13 Z m 131.477,-75.914 -22.007,14.52 2.47,11.366 z m 14.968,74.237 40.21,-36.045 -36.806,13.922 -10.764,18.605 z"
       fill="#c8102e" />
  </g>
</svg>
